%TF.GenerationSoftware,KiCad,Pcbnew,6.0.4-1.fc35*%
%TF.CreationDate,2022-04-22T23:34:45+05:30*%
%TF.ProjectId,8puter,38707574-6572-42e6-9b69-6361645f7063,rev?*%
%TF.SameCoordinates,PX5496c90PY8113368*%
%TF.FileFunction,Paste,Top*%
%TF.FilePolarity,Positive*%
%FSLAX46Y46*%
G04 Gerber Fmt 4.6, Leading zero omitted, Abs format (unit mm)*
G04 Created by KiCad (PCBNEW 6.0.4-1.fc35) date 2022-04-22 23:34:45*
%MOMM*%
%LPD*%
G01*
G04 APERTURE LIST*
G04 Aperture macros list*
%AMRoundRect*
0 Rectangle with rounded corners*
0 $1 Rounding radius*
0 $2 $3 $4 $5 $6 $7 $8 $9 X,Y pos of 4 corners*
0 Add a 4 corners polygon primitive as box body*
4,1,4,$2,$3,$4,$5,$6,$7,$8,$9,$2,$3,0*
0 Add four circle primitives for the rounded corners*
1,1,$1+$1,$2,$3*
1,1,$1+$1,$4,$5*
1,1,$1+$1,$6,$7*
1,1,$1+$1,$8,$9*
0 Add four rect primitives between the rounded corners*
20,1,$1+$1,$2,$3,$4,$5,0*
20,1,$1+$1,$4,$5,$6,$7,0*
20,1,$1+$1,$6,$7,$8,$9,0*
20,1,$1+$1,$8,$9,$2,$3,0*%
G04 Aperture macros list end*
%ADD10R,1.925000X0.700000*%
%ADD11R,0.700000X1.925000*%
%ADD12RoundRect,0.250000X-0.250000X-0.475000X0.250000X-0.475000X0.250000X0.475000X-0.250000X0.475000X0*%
%ADD13RoundRect,0.250000X-0.262500X-0.450000X0.262500X-0.450000X0.262500X0.450000X-0.262500X0.450000X0*%
%ADD14RoundRect,0.250000X0.262500X0.450000X-0.262500X0.450000X-0.262500X-0.450000X0.262500X-0.450000X0*%
%ADD15R,1.000000X0.700000*%
%ADD16R,0.600000X0.700000*%
%ADD17RoundRect,0.250000X0.475000X-0.250000X0.475000X0.250000X-0.475000X0.250000X-0.475000X-0.250000X0*%
%ADD18RoundRect,0.250000X-0.450000X0.262500X-0.450000X-0.262500X0.450000X-0.262500X0.450000X0.262500X0*%
%ADD19RoundRect,0.250000X0.450000X-0.262500X0.450000X0.262500X-0.450000X0.262500X-0.450000X-0.262500X0*%
%ADD20RoundRect,0.250000X-0.475000X0.250000X-0.475000X-0.250000X0.475000X-0.250000X0.475000X0.250000X0*%
%ADD21R,1.500000X2.000000*%
%ADD22R,3.800000X2.000000*%
%ADD23R,0.520000X1.500000*%
%ADD24R,1.500000X0.520000*%
%ADD25RoundRect,0.243750X-0.456250X0.243750X-0.456250X-0.243750X0.456250X-0.243750X0.456250X0.243750X0*%
%ADD26RoundRect,0.207500X-0.207500X0.207500X-0.207500X-0.207500X0.207500X-0.207500X0.207500X0.207500X0*%
%ADD27RoundRect,0.062500X-0.062500X0.375000X-0.062500X-0.375000X0.062500X-0.375000X0.062500X0.375000X0*%
%ADD28RoundRect,0.062500X-0.375000X0.062500X-0.375000X-0.062500X0.375000X-0.062500X0.375000X0.062500X0*%
%ADD29R,0.450000X1.750000*%
%ADD30RoundRect,0.250000X0.250000X0.475000X-0.250000X0.475000X-0.250000X-0.475000X0.250000X-0.475000X0*%
%ADD31R,2.000000X1.500000*%
%ADD32R,2.000000X3.800000*%
%ADD33RoundRect,0.075000X-0.662500X-0.075000X0.662500X-0.075000X0.662500X0.075000X-0.662500X0.075000X0*%
%ADD34RoundRect,0.075000X-0.075000X-0.662500X0.075000X-0.662500X0.075000X0.662500X-0.075000X0.662500X0*%
%ADD35RoundRect,0.100000X0.100000X-0.637500X0.100000X0.637500X-0.100000X0.637500X-0.100000X-0.637500X0*%
%ADD36R,1.250000X3.000000*%
G04 APERTURE END LIST*
D10*
%TO.C,SERC1*%
X31297500Y68100000D03*
X31297500Y69370000D03*
X31297500Y70640000D03*
X31297500Y71910000D03*
D11*
X29785000Y73422500D03*
X28515000Y73422500D03*
X27245000Y73422500D03*
X25975000Y73422500D03*
X24705000Y73422500D03*
X23435000Y73422500D03*
X22165000Y73422500D03*
D10*
X20652500Y71910000D03*
X20652500Y70640000D03*
X20652500Y69370000D03*
X20652500Y68100000D03*
X20652500Y66830000D03*
X20652500Y65560000D03*
X20652500Y64290000D03*
D11*
X22165000Y62777500D03*
X23435000Y62777500D03*
X24705000Y62777500D03*
X25975000Y62777500D03*
X27245000Y62777500D03*
X28515000Y62777500D03*
X29785000Y62777500D03*
D10*
X31297500Y64290000D03*
X31297500Y65560000D03*
X31297500Y66830000D03*
%TD*%
D12*
%TO.C,C15*%
X29814219Y10984226D03*
X31714219Y10984226D03*
%TD*%
D13*
%TO.C,R30*%
X49387500Y84350000D03*
X51212500Y84350000D03*
%TD*%
D14*
%TO.C,R22*%
X54300000Y16000000D03*
X52475000Y16000000D03*
%TD*%
%TO.C,R3*%
X97800000Y26700000D03*
X95975000Y26700000D03*
%TD*%
D15*
%TO.C,U6*%
X65450005Y79100012D03*
D16*
X67150005Y79100012D03*
X67150005Y81100012D03*
X65250005Y81100012D03*
%TD*%
D17*
%TO.C,C12*%
X15050000Y64750000D03*
X15050000Y66650000D03*
%TD*%
D18*
%TO.C,R28*%
X73000000Y5725000D03*
X73000000Y3900000D03*
%TD*%
D14*
%TO.C,R16*%
X54200000Y31400000D03*
X52375000Y31400000D03*
%TD*%
%TO.C,R13*%
X54100000Y39000000D03*
X52275000Y39000000D03*
%TD*%
D19*
%TO.C,R11*%
X13000000Y50775000D03*
X13000000Y52600000D03*
%TD*%
D12*
%TO.C,C8*%
X23050000Y93400000D03*
X24950000Y93400000D03*
%TD*%
D20*
%TO.C,C2*%
X51774219Y44024226D03*
X51774219Y42124226D03*
%TD*%
D17*
%TO.C,C9*%
X43600000Y94800000D03*
X43600000Y96700000D03*
%TD*%
D14*
%TO.C,R19*%
X54300000Y23700000D03*
X52475000Y23700000D03*
%TD*%
D17*
%TO.C,C21*%
X87400000Y60700000D03*
X87400000Y62600000D03*
%TD*%
D21*
%TO.C,REG2*%
X98650000Y13450000D03*
D22*
X100950000Y19750000D03*
D21*
X100950000Y13450000D03*
X103250000Y13450000D03*
%TD*%
D17*
%TO.C,C19*%
X60500000Y86300000D03*
X60500000Y88200000D03*
%TD*%
D12*
%TO.C,C16*%
X7594219Y11004226D03*
X9494219Y11004226D03*
%TD*%
%TO.C,C17*%
X23050000Y90800000D03*
X24950000Y90800000D03*
%TD*%
D23*
%TO.C,PRP1*%
X99900005Y63450012D03*
X99100005Y63450012D03*
X98300005Y63450012D03*
X97500005Y63450012D03*
X96700005Y63450012D03*
X95900005Y63450012D03*
X95100005Y63450012D03*
X94300005Y63450012D03*
X93500005Y63450012D03*
X92700005Y63450012D03*
X91900005Y63450012D03*
D24*
X89850005Y61400012D03*
X89850005Y60600012D03*
X89850005Y59800012D03*
X89850005Y59000012D03*
X89850005Y58200012D03*
X89850005Y57400012D03*
X89850005Y56600012D03*
X89850005Y55800012D03*
X89850005Y55000012D03*
X89850005Y54200012D03*
X89850005Y53400012D03*
D23*
X91900005Y51350012D03*
X92700005Y51350012D03*
X93500005Y51350012D03*
X94300005Y51350012D03*
X95100005Y51350012D03*
X95900005Y51350012D03*
X96700005Y51350012D03*
X97500005Y51350012D03*
X98300005Y51350012D03*
X99100005Y51350012D03*
X99900005Y51350012D03*
D24*
X101950005Y53400012D03*
X101950005Y54200012D03*
X101950005Y55000012D03*
X101950005Y55800012D03*
X101950005Y56600012D03*
X101950005Y57400012D03*
X101950005Y58200012D03*
X101950005Y59000012D03*
X101950005Y59800012D03*
X101950005Y60600012D03*
X101950005Y61400012D03*
%TD*%
D13*
%TO.C,R2*%
X29801719Y8284226D03*
X31626719Y8284226D03*
%TD*%
D25*
%TO.C,D1*%
X11590000Y84837500D03*
X11590000Y82962500D03*
%TD*%
D14*
%TO.C,R18*%
X54300000Y26300000D03*
X52475000Y26300000D03*
%TD*%
D17*
%TO.C,C14*%
X56100000Y86300000D03*
X56100000Y88200000D03*
%TD*%
D18*
%TO.C,R6*%
X25700000Y41112500D03*
X25700000Y39287500D03*
%TD*%
D14*
%TO.C,R15*%
X54200000Y33900000D03*
X52375000Y33900000D03*
%TD*%
D26*
%TO.C,GLUE_FPGA1*%
X89404219Y20604226D03*
X90434219Y20604226D03*
X90434219Y21634226D03*
X88374219Y21634226D03*
X88374219Y20604226D03*
X88374219Y19574226D03*
X90434219Y19574226D03*
X89404219Y19574226D03*
X89404219Y21634226D03*
D27*
X91154219Y23041726D03*
X90654219Y23041726D03*
X90154219Y23041726D03*
X89654219Y23041726D03*
X89154219Y23041726D03*
X88654219Y23041726D03*
X88154219Y23041726D03*
X87654219Y23041726D03*
D28*
X86966719Y22354226D03*
X86966719Y21854226D03*
X86966719Y21354226D03*
X86966719Y20854226D03*
X86966719Y20354226D03*
X86966719Y19854226D03*
X86966719Y19354226D03*
X86966719Y18854226D03*
D27*
X87654219Y18166726D03*
X88154219Y18166726D03*
X88654219Y18166726D03*
X89154219Y18166726D03*
X89654219Y18166726D03*
X90154219Y18166726D03*
X90654219Y18166726D03*
X91154219Y18166726D03*
D28*
X91841719Y18854226D03*
X91841719Y19354226D03*
X91841719Y19854226D03*
X91841719Y20354226D03*
X91841719Y20854226D03*
X91841719Y21354226D03*
X91841719Y21854226D03*
X91841719Y22354226D03*
%TD*%
D20*
%TO.C,C4*%
X54574219Y44024226D03*
X54574219Y42124226D03*
%TD*%
D18*
%TO.C,R27*%
X75300000Y5712500D03*
X75300000Y3887500D03*
%TD*%
D14*
%TO.C,R23*%
X54300000Y13500000D03*
X52475000Y13500000D03*
%TD*%
%TO.C,R24*%
X54300000Y10700000D03*
X52475000Y10700000D03*
%TD*%
D29*
%TO.C,USB1*%
X97825000Y73150000D03*
X98475000Y73150000D03*
X99125000Y73150000D03*
X99775000Y73150000D03*
X100425000Y73150000D03*
X101075000Y73150000D03*
X101725000Y73150000D03*
X102375000Y73150000D03*
X103025000Y73150000D03*
X103675000Y73150000D03*
X104325000Y73150000D03*
X104975000Y73150000D03*
X105625000Y73150000D03*
X106275000Y73150000D03*
X106275000Y80350000D03*
X105625000Y80350000D03*
X104975000Y80350000D03*
X104325000Y80350000D03*
X103675000Y80350000D03*
X103025000Y80350000D03*
X102375000Y80350000D03*
X101725000Y80350000D03*
X101075000Y80350000D03*
X100425000Y80350000D03*
X99775000Y80350000D03*
X99125000Y80350000D03*
X98475000Y80350000D03*
X97825000Y80350000D03*
%TD*%
D30*
%TO.C,C11*%
X62394219Y79400000D03*
X60494219Y79400000D03*
%TD*%
D14*
%TO.C,R17*%
X54300000Y28800000D03*
X52475000Y28800000D03*
%TD*%
D19*
%TO.C,R9*%
X7900000Y50787500D03*
X7900000Y52612500D03*
%TD*%
%TO.C,R10*%
X10400000Y50787500D03*
X10400000Y52612500D03*
%TD*%
D18*
%TO.C,R29*%
X14000000Y84825000D03*
X14000000Y83000000D03*
%TD*%
D17*
%TO.C,C20*%
X58300000Y86300000D03*
X58300000Y88200000D03*
%TD*%
D12*
%TO.C,C6*%
X101554219Y23600000D03*
X103454219Y23600000D03*
%TD*%
D30*
%TO.C,C22*%
X95050000Y80700000D03*
X93150000Y80700000D03*
%TD*%
D18*
%TO.C,R25*%
X79900000Y5712500D03*
X79900000Y3887500D03*
%TD*%
D12*
%TO.C,C18*%
X49337500Y88550000D03*
X51237500Y88550000D03*
%TD*%
D31*
%TO.C,REG3*%
X63350000Y89200000D03*
D32*
X69650000Y86900000D03*
D31*
X63350000Y86900000D03*
X63350000Y84600000D03*
%TD*%
D33*
%TO.C,VIDEO1*%
X72787500Y83862500D03*
X72787500Y83362500D03*
X72787500Y82862500D03*
X72787500Y82362500D03*
X72787500Y81862500D03*
X72787500Y81362500D03*
X72787500Y80862500D03*
X72787500Y80362500D03*
X72787500Y79862500D03*
X72787500Y79362500D03*
X72787500Y78862500D03*
X72787500Y78362500D03*
D34*
X74200000Y76950000D03*
X74700000Y76950000D03*
X75200000Y76950000D03*
X75700000Y76950000D03*
X76200000Y76950000D03*
X76700000Y76950000D03*
X77200000Y76950000D03*
X77700000Y76950000D03*
X78200000Y76950000D03*
X78700000Y76950000D03*
X79200000Y76950000D03*
X79700000Y76950000D03*
D33*
X81112500Y78362500D03*
X81112500Y78862500D03*
X81112500Y79362500D03*
X81112500Y79862500D03*
X81112500Y80362500D03*
X81112500Y80862500D03*
X81112500Y81362500D03*
X81112500Y81862500D03*
X81112500Y82362500D03*
X81112500Y82862500D03*
X81112500Y83362500D03*
X81112500Y83862500D03*
D34*
X79700000Y85275000D03*
X79200000Y85275000D03*
X78700000Y85275000D03*
X78200000Y85275000D03*
X77700000Y85275000D03*
X77200000Y85275000D03*
X76700000Y85275000D03*
X76200000Y85275000D03*
X75700000Y85275000D03*
X75200000Y85275000D03*
X74700000Y85275000D03*
X74200000Y85275000D03*
%TD*%
D30*
%TO.C,C13*%
X17750000Y59900000D03*
X15850000Y59900000D03*
%TD*%
D21*
%TO.C,REG1*%
X25350000Y87600000D03*
D22*
X23050000Y81300000D03*
D21*
X23050000Y87600000D03*
X20750000Y87600000D03*
%TD*%
D18*
%TO.C,R26*%
X77600000Y5712500D03*
X77600000Y3887500D03*
%TD*%
D12*
%TO.C,C7*%
X101554219Y25744226D03*
X103454219Y25744226D03*
%TD*%
D14*
%TO.C,R20*%
X54300000Y21100000D03*
X52475000Y21100000D03*
%TD*%
%TO.C,R14*%
X54112500Y36400000D03*
X52287500Y36400000D03*
%TD*%
%TO.C,R1*%
X92612500Y14600000D03*
X90787500Y14600000D03*
%TD*%
D19*
%TO.C,R8*%
X5400000Y50787500D03*
X5400000Y52612500D03*
%TD*%
D35*
%TO.C,U2*%
X43550000Y85137500D03*
X44200000Y85137500D03*
X44850000Y85137500D03*
X45500000Y85137500D03*
X46150000Y85137500D03*
X46800000Y85137500D03*
X47450000Y85137500D03*
X47450000Y90862500D03*
X46800000Y90862500D03*
X46150000Y90862500D03*
X45500000Y90862500D03*
X44850000Y90862500D03*
X44200000Y90862500D03*
X43550000Y90862500D03*
%TD*%
D14*
%TO.C,R21*%
X54300000Y18600000D03*
X52475000Y18600000D03*
%TD*%
D18*
%TO.C,R5*%
X25700000Y37500000D03*
X25700000Y35675000D03*
%TD*%
D14*
%TO.C,R31*%
X51200000Y86450000D03*
X49375000Y86450000D03*
%TD*%
D17*
%TO.C,C10*%
X17425000Y64825000D03*
X17425000Y66725000D03*
%TD*%
D12*
%TO.C,C23*%
X72000000Y89000000D03*
X73900000Y89000000D03*
%TD*%
D36*
%TO.C,USB_P1*%
X104400000Y86950000D03*
X101900000Y86950000D03*
X99900000Y86950000D03*
X97400000Y86950000D03*
%TD*%
D20*
%TO.C,C1*%
X16900000Y84800000D03*
X16900000Y82900000D03*
%TD*%
D18*
%TO.C,R7*%
X25700000Y44712500D03*
X25700000Y42887500D03*
%TD*%
D19*
%TO.C,R12*%
X15600000Y50787500D03*
X15600000Y52612500D03*
%TD*%
D30*
%TO.C,C5*%
X99800000Y10700000D03*
X97900000Y10700000D03*
%TD*%
M02*
