%TF.GenerationSoftware,KiCad,Pcbnew,6.0.4-1.fc35*%
%TF.CreationDate,2022-04-22T01:22:09+05:30*%
%TF.ProjectId,8puter,38707574-6572-42e6-9b69-6361645f7063,rev?*%
%TF.SameCoordinates,PX5496c90PY8113368*%
%TF.FileFunction,Plated,1,2,PTH,Mixed*%
%TF.FilePolarity,Positive*%
%FSLAX46Y46*%
G04 Gerber Fmt 4.6, Leading zero omitted, Abs format (unit mm)*
G04 Created by KiCad (PCBNEW 6.0.4-1.fc35) date 2022-04-22 01:22:09*
%MOMM*%
%LPD*%
G01*
G04 APERTURE LIST*
%TA.AperFunction,ViaDrill*%
%ADD10C,0.300000*%
%TD*%
%TA.AperFunction,ViaDrill*%
%ADD11C,0.400000*%
%TD*%
%TA.AperFunction,ComponentDrill*%
%ADD12C,0.700000*%
%TD*%
%TA.AperFunction,ComponentDrill*%
%ADD13C,0.800000*%
%TD*%
%TA.AperFunction,ComponentDrill*%
%ADD14C,1.000000*%
%TD*%
G04 aperture for slot hole*
%TA.AperFunction,ComponentDrill*%
%ADD15O,1.000000X2.500000*%
%TD*%
G04 aperture for slot hole*
%TA.AperFunction,ComponentDrill*%
%ADD16O,2.300000X1.000000*%
%TD*%
G04 aperture for slot hole*
%TA.AperFunction,ComponentDrill*%
%ADD17O,3.000000X1.000000*%
%TD*%
%TA.AperFunction,ComponentDrill*%
%ADD18C,1.100000*%
%TD*%
%TA.AperFunction,ComponentDrill*%
%ADD19C,2.300000*%
%TD*%
%TA.AperFunction,ComponentDrill*%
%ADD20C,3.200000*%
%TD*%
G04 APERTURE END LIST*
D10*
X6800000Y7000000D03*
X7500000Y7700000D03*
X13600005Y67700012D03*
X14000005Y7750012D03*
X14100000Y70400000D03*
X14224219Y68524226D03*
X14850005Y11200012D03*
X15000000Y70900000D03*
X15700005Y10505012D03*
X16500005Y9200012D03*
X17150005Y9850012D03*
X19600000Y4476489D03*
X21200000Y51700000D03*
X21500000Y73900000D03*
X23120005Y68980012D03*
X23700000Y76100000D03*
X23760005Y68380012D03*
X24270005Y67690012D03*
X24530005Y72569995D03*
X24700005Y8350012D03*
X24870005Y66990012D03*
X25250005Y6950012D03*
X25300000Y75400000D03*
X25520005Y66260012D03*
X26170005Y65590012D03*
X26200000Y74700000D03*
X26700005Y5675500D03*
X26930005Y64830012D03*
X27550005Y6375512D03*
X27700005Y64230012D03*
X28500000Y73000000D03*
X29900005Y61400012D03*
X31454219Y70324226D03*
X33200000Y50400000D03*
X35274719Y64124226D03*
X35900000Y51700000D03*
X37300005Y67120012D03*
X37500005Y7600012D03*
X38000005Y66600023D03*
X38150005Y11150012D03*
X38600005Y66000012D03*
X39000005Y10455012D03*
X39200005Y65400012D03*
X39800005Y64800012D03*
X39800005Y9150012D03*
X40300005Y69000012D03*
X40450005Y9800012D03*
X41000005Y68400012D03*
X41700000Y92900000D03*
X41700005Y67700012D03*
X44600000Y83000000D03*
X45100000Y89100000D03*
X47000005Y63100012D03*
X47100005Y8350012D03*
X47500000Y92900000D03*
X47650005Y6950012D03*
X48000000Y82400000D03*
X48000000Y81300000D03*
X48000005Y62500012D03*
X48700000Y90800000D03*
X50524219Y52524226D03*
X54400005Y61400012D03*
X56600000Y82400000D03*
X56600000Y81300000D03*
X67400005Y64100012D03*
X69200000Y80900000D03*
X70150005Y21200012D03*
X70150005Y11150012D03*
X70324219Y54224226D03*
X70434219Y69724226D03*
X71545005Y18645012D03*
X71545005Y10455012D03*
X71600005Y61800012D03*
X72700005Y64800012D03*
X72845005Y16105012D03*
X72850005Y9800012D03*
X73700005Y65400012D03*
X74000005Y13550012D03*
X74000005Y9150012D03*
X74700005Y66000012D03*
X75000000Y81300000D03*
X75600000Y9600000D03*
X75700005Y66600012D03*
X76500005Y67100012D03*
X76800005Y8400012D03*
X77500005Y67700012D03*
X77600000Y78900000D03*
X77650005Y7700012D03*
X77700000Y89000000D03*
X78199500Y81200000D03*
X78400005Y68400012D03*
X78500000Y79700000D03*
X79100000Y74000000D03*
X79200005Y69000012D03*
X79700000Y75400000D03*
X79900000Y7000000D03*
X80000005Y59300012D03*
X84200000Y86200000D03*
X85750005Y19000012D03*
X85800005Y63100012D03*
X87100005Y25300012D03*
X87524219Y56600012D03*
X88100005Y16000012D03*
X88150005Y24350012D03*
X88200005Y21400012D03*
X88300005Y57400012D03*
X88300005Y54200012D03*
X88450000Y4450000D03*
X89850000Y64600000D03*
X89850005Y26250012D03*
X90200000Y6350000D03*
X90400005Y16900012D03*
X90600005Y21400012D03*
X90650005Y24350012D03*
X91000005Y25800012D03*
X91200000Y16000000D03*
X91850005Y28850012D03*
X91900000Y65200000D03*
X91900000Y16900000D03*
X92700000Y65800000D03*
X92700005Y31350012D03*
X93250005Y22400012D03*
X93500000Y66350000D03*
X93500005Y33900012D03*
X93700000Y5100000D03*
X94300000Y66974500D03*
X94300005Y36450012D03*
X94700000Y5800000D03*
X95100000Y67600000D03*
X95900000Y68400000D03*
X95900005Y38950012D03*
X96700005Y41500012D03*
X97500000Y69000000D03*
X97500005Y44050012D03*
X98300005Y60600012D03*
X98450000Y66400000D03*
X99050000Y67650000D03*
X99900005Y37700012D03*
X100050005Y25750012D03*
X100450000Y68425500D03*
X100499219Y84534126D03*
X101100000Y78100000D03*
X101200000Y64600000D03*
X101349219Y84534126D03*
X101700000Y77000000D03*
X101900000Y40300000D03*
X102075000Y10275000D03*
X102500000Y65800000D03*
X103000000Y42700000D03*
X103200000Y78300000D03*
X103279821Y65145633D03*
X103900000Y45300012D03*
X104300000Y66800000D03*
X105450000Y19250000D03*
X105450000Y15650000D03*
X105600000Y84225000D03*
X106050000Y16450000D03*
X106300000Y83375000D03*
X112800500Y71600000D03*
X113400500Y72500000D03*
X115200000Y71600000D03*
D11*
X10000000Y59900000D03*
X12624500Y66800000D03*
X26900000Y90200000D03*
X26900000Y89100000D03*
X30200000Y89600000D03*
X30200000Y88500000D03*
X35200000Y93400000D03*
X35800000Y96700000D03*
X36300000Y93400000D03*
X36900000Y96700000D03*
X52800000Y96400000D03*
X52800000Y94050500D03*
X84200000Y83800000D03*
X87400005Y59000012D03*
X96900000Y56400000D03*
X99800000Y75200000D03*
X99800000Y57400000D03*
X99800000Y5300000D03*
X109000000Y11200000D03*
X109000000Y10100000D03*
X109000000Y9000000D03*
X109500000Y49000000D03*
X111200000Y49000000D03*
X114200000Y11200000D03*
X114200000Y10100000D03*
X114200000Y9000000D03*
D12*
%TO.C,R4*%
X20090000Y59900000D03*
X27710000Y59900000D03*
D13*
%TO.C,C3*%
X7500000Y84100000D03*
X7500000Y81600000D03*
%TO.C,RAM1*%
X7660005Y47320012D03*
X7660005Y44780012D03*
X7660005Y42240012D03*
X7660005Y39700012D03*
X7660005Y37160012D03*
X7660005Y34620012D03*
X7660005Y32080012D03*
X7660005Y29540012D03*
X7660005Y27000012D03*
X7660005Y24460012D03*
X7660005Y21920012D03*
X7660005Y19380012D03*
X7660005Y16840012D03*
X7660005Y14300012D03*
%TO.C,Y1*%
X22850000Y55800000D03*
%TO.C,RAM1*%
X22900005Y47320012D03*
X22900005Y44780012D03*
X22900005Y42240012D03*
X22900005Y39700012D03*
X22900005Y37160012D03*
X22900005Y34620012D03*
X22900005Y32080012D03*
X22900005Y29540012D03*
X22900005Y27000012D03*
X22900005Y24460012D03*
X22900005Y21920012D03*
X22900005Y19380012D03*
X22900005Y16840012D03*
X22900005Y14300012D03*
%TO.C,Y1*%
X27730000Y55800000D03*
%TO.C,ROM1*%
X29785005Y47295012D03*
X29785005Y44755012D03*
X29785005Y42215012D03*
X29785005Y39675012D03*
X29785005Y37135012D03*
X29785005Y34595012D03*
X29785005Y32055012D03*
X29785005Y29515012D03*
X29785005Y26975012D03*
X29785005Y24435012D03*
X29785005Y21895012D03*
X29785005Y19355012D03*
X29785005Y16815012D03*
X29785005Y14275012D03*
%TO.C,X1*%
X31690000Y91810000D03*
X31690000Y84190000D03*
X39310000Y91810000D03*
X39310000Y84190000D03*
%TO.C,CS_SEL1*%
X40500000Y76500000D03*
X40500000Y74500000D03*
X42500000Y76500000D03*
X42500000Y74500000D03*
X44500000Y76500000D03*
X44500000Y74500000D03*
%TO.C,ROM1*%
X45025005Y47295012D03*
X45025005Y44755012D03*
X45025005Y42215012D03*
X45025005Y39675012D03*
X45025005Y37135012D03*
X45025005Y34595012D03*
X45025005Y32055012D03*
X45025005Y29515012D03*
X45025005Y26975012D03*
X45025005Y24435012D03*
X45025005Y21895012D03*
X45025005Y19355012D03*
X45025005Y16815012D03*
X45025005Y14275012D03*
%TO.C,CPU1*%
X57500005Y61825012D03*
X57500005Y59285012D03*
X57500005Y56745012D03*
X57500005Y54205012D03*
X57500005Y51665012D03*
X57500005Y49125012D03*
X57500005Y46585012D03*
X57500005Y44045012D03*
X57500005Y41505012D03*
X57500005Y38965012D03*
X57500005Y36425012D03*
X57500005Y33885012D03*
X57500005Y31345012D03*
X57500005Y28805012D03*
X57500005Y26265012D03*
X57500005Y23725012D03*
X57500005Y21185012D03*
X57500005Y18645012D03*
X57500005Y16105012D03*
X57500005Y13565012D03*
X82900005Y61825012D03*
X82900005Y59285012D03*
X82900005Y56745012D03*
X82900005Y54205012D03*
X82900005Y51665012D03*
X82900005Y49125012D03*
X82900005Y46585012D03*
X82900005Y44045012D03*
X82900005Y41505012D03*
X82900005Y38965012D03*
X82900005Y36425012D03*
X82900005Y33885012D03*
X82900005Y31345012D03*
X82900005Y28805012D03*
X82900005Y26265012D03*
X82900005Y23725012D03*
X82900005Y21185012D03*
X82900005Y18645012D03*
X82900005Y16105012D03*
X82900005Y13565012D03*
%TO.C,SWD_H1*%
X86400000Y86300000D03*
X86400000Y84300000D03*
X86400000Y82300000D03*
X86400000Y80300000D03*
%TO.C,JTAG1*%
X95900000Y23900000D03*
X95900000Y21900000D03*
X95900000Y19900000D03*
X95900000Y17900000D03*
X95900000Y15900000D03*
%TO.C,PERIPHERAL1*%
X109200000Y69000000D03*
X109200000Y67000000D03*
X109200000Y65000000D03*
X109200000Y63000000D03*
X109200000Y61000000D03*
X109200000Y59000000D03*
X109200000Y57000000D03*
X109200000Y55000000D03*
%TO.C,DEBUG1*%
X109200000Y45250000D03*
X109200000Y43250000D03*
X109200000Y41250000D03*
X109200000Y39250000D03*
X109200000Y37250000D03*
X109200000Y35250000D03*
X109200000Y33250000D03*
X109200000Y31250000D03*
X109200000Y29250000D03*
X109200000Y27250000D03*
X109200000Y25250000D03*
X109200000Y23250000D03*
X109200000Y21250000D03*
X109200000Y19250000D03*
X109200000Y17250000D03*
X109200000Y15250000D03*
%TO.C,PERIPHERAL1*%
X111200000Y69000000D03*
X111200000Y67000000D03*
X111200000Y65000000D03*
X111200000Y63000000D03*
X111200000Y61000000D03*
X111200000Y59000000D03*
X111200000Y57000000D03*
X111200000Y55000000D03*
%TO.C,DEBUG1*%
X111200000Y45250000D03*
X111200000Y43250000D03*
X111200000Y41250000D03*
X111200000Y39250000D03*
X111200000Y37250000D03*
X111200000Y35250000D03*
X111200000Y33250000D03*
X111200000Y31250000D03*
X111200000Y29250000D03*
X111200000Y27250000D03*
X111200000Y25250000D03*
X111200000Y23250000D03*
X111200000Y21250000D03*
X111200000Y19250000D03*
X111200000Y17250000D03*
X111200000Y15250000D03*
D14*
%TO.C,SERIAL1*%
X6825000Y74975000D03*
X6825000Y72435000D03*
X6825000Y69895000D03*
X6825000Y67355000D03*
X6825000Y64815000D03*
D15*
%TO.C,J1*%
X8400000Y94600000D03*
D14*
%TO.C,SERIAL1*%
X9365000Y74975000D03*
X9365000Y72435000D03*
X9365000Y69895000D03*
X9365000Y67355000D03*
X9365000Y64815000D03*
D16*
%TO.C,J1*%
X12900000Y93600000D03*
D17*
X12900000Y87600000D03*
D15*
X17400000Y94600000D03*
D14*
%TO.C,VGA1*%
X70155000Y95079669D03*
X71300000Y97059669D03*
X71300000Y93099669D03*
X72445000Y95079669D03*
X73590000Y97059669D03*
X73590000Y93099669D03*
X74735000Y95079669D03*
X75880000Y97059669D03*
X75880000Y93099669D03*
X77025000Y95079669D03*
X78170000Y97059669D03*
X78170000Y93099669D03*
X79315000Y95079669D03*
X80460000Y97059669D03*
X80460000Y93099669D03*
D18*
%TO.C,STEP_SW1*%
X50000000Y76500000D03*
X50000000Y72000000D03*
X56500000Y76500000D03*
X56500000Y72000000D03*
%TO.C,RESET_SW1*%
X59894219Y76594226D03*
X59894219Y72094226D03*
X66394219Y76594226D03*
X66394219Y72094226D03*
D19*
%TO.C,USB_P1*%
X94330000Y90630000D03*
X107470000Y90630000D03*
D20*
%TO.C,VGA1*%
X63115000Y95149669D03*
X88115000Y95149669D03*
M02*
