%TF.GenerationSoftware,KiCad,Pcbnew,6.0.4-1.fc35*%
%TF.CreationDate,2022-04-27T20:56:34+05:30*%
%TF.ProjectId,8puter,38707574-6572-42e6-9b69-6361645f7063,rev?*%
%TF.SameCoordinates,PX5496c90PY8113368*%
%TF.FileFunction,Soldermask,Top*%
%TF.FilePolarity,Negative*%
%FSLAX46Y46*%
G04 Gerber Fmt 4.6, Leading zero omitted, Abs format (unit mm)*
G04 Created by KiCad (PCBNEW 6.0.4-1.fc35) date 2022-04-27 20:56:34*
%MOMM*%
%LPD*%
G01*
G04 APERTURE LIST*
G04 Aperture macros list*
%AMRoundRect*
0 Rectangle with rounded corners*
0 $1 Rounding radius*
0 $2 $3 $4 $5 $6 $7 $8 $9 X,Y pos of 4 corners*
0 Add a 4 corners polygon primitive as box body*
4,1,4,$2,$3,$4,$5,$6,$7,$8,$9,$2,$3,0*
0 Add four circle primitives for the rounded corners*
1,1,$1+$1,$2,$3*
1,1,$1+$1,$4,$5*
1,1,$1+$1,$6,$7*
1,1,$1+$1,$8,$9*
0 Add four rect primitives between the rounded corners*
20,1,$1+$1,$2,$3,$4,$5,0*
20,1,$1+$1,$4,$5,$6,$7,0*
20,1,$1+$1,$6,$7,$8,$9,0*
20,1,$1+$1,$8,$9,$2,$3,0*%
G04 Aperture macros list end*
%ADD10C,2.050000*%
%TA.AperFunction,Profile*%
%ADD11C,0.050000*%
%TD*%
%ADD12RoundRect,0.300000X-0.250000X-0.475000X0.250000X-0.475000X0.250000X0.475000X-0.250000X0.475000X0*%
%ADD13RoundRect,0.300000X-0.262500X-0.450000X0.262500X-0.450000X0.262500X0.450000X-0.262500X0.450000X0*%
%ADD14RoundRect,0.300000X0.262500X0.450000X-0.262500X0.450000X-0.262500X-0.450000X0.262500X-0.450000X0*%
%ADD15RoundRect,0.050000X0.550000X-0.425000X0.550000X0.425000X-0.550000X0.425000X-0.550000X-0.425000X0*%
%ADD16RoundRect,0.050000X0.550000X-0.375000X0.550000X0.375000X-0.550000X0.375000X-0.550000X-0.375000X0*%
%ADD17RoundRect,0.050000X0.500000X-0.600000X0.500000X0.600000X-0.500000X0.600000X-0.500000X-0.600000X0*%
%ADD18RoundRect,0.050000X0.900000X-0.585000X0.900000X0.585000X-0.900000X0.585000X-0.900000X-0.585000X0*%
%ADD19RoundRect,0.050000X0.675000X-0.950000X0.675000X0.950000X-0.675000X0.950000X-0.675000X-0.950000X0*%
%ADD20RoundRect,0.050000X0.675000X-0.775000X0.675000X0.775000X-0.675000X0.775000X-0.675000X-0.775000X0*%
%ADD21C,2.100000*%
%ADD22RoundRect,0.050000X1.200000X0.800000X-1.200000X0.800000X-1.200000X-0.800000X1.200000X-0.800000X0*%
%ADD23O,2.500000X1.700000*%
%ADD24RoundRect,0.050000X0.500000X-0.350000X0.500000X0.350000X-0.500000X0.350000X-0.500000X-0.350000X0*%
%ADD25RoundRect,0.050000X0.300000X-0.350000X0.300000X0.350000X-0.300000X0.350000X-0.300000X-0.350000X0*%
%ADD26RoundRect,0.300000X-0.450000X0.262500X-0.450000X-0.262500X0.450000X-0.262500X0.450000X0.262500X0*%
%ADD27RoundRect,0.050000X-1.200000X-0.800000X1.200000X-0.800000X1.200000X0.800000X-1.200000X0.800000X0*%
%ADD28RoundRect,0.300000X0.450000X-0.262500X0.450000X0.262500X-0.450000X0.262500X-0.450000X-0.262500X0*%
%ADD29RoundRect,0.300000X-0.475000X0.250000X-0.475000X-0.250000X0.475000X-0.250000X0.475000X0.250000X0*%
%ADD30RoundRect,0.300000X0.475000X-0.250000X0.475000X0.250000X-0.475000X0.250000X-0.475000X-0.250000X0*%
%ADD31RoundRect,0.050000X-1.000000X-0.750000X1.000000X-0.750000X1.000000X0.750000X-1.000000X0.750000X0*%
%ADD32RoundRect,0.050000X-1.000000X-1.900000X1.000000X-1.900000X1.000000X1.900000X-1.000000X1.900000X0*%
%ADD33RoundRect,0.050000X-0.675000X-0.675000X0.675000X-0.675000X0.675000X0.675000X-0.675000X0.675000X0*%
%ADD34O,1.450000X1.450000*%
%ADD35RoundRect,0.050000X-0.750000X-0.260000X0.750000X-0.260000X0.750000X0.260000X-0.750000X0.260000X0*%
%ADD36RoundRect,0.050000X-0.260000X-0.750000X0.260000X-0.750000X0.260000X0.750000X-0.260000X0.750000X0*%
%ADD37RoundRect,0.050000X-0.800000X0.800000X-0.800000X-0.800000X0.800000X-0.800000X0.800000X0.800000X0*%
%ADD38C,1.700000*%
%ADD39RoundRect,0.050000X-0.260000X0.750000X-0.260000X-0.750000X0.260000X-0.750000X0.260000X0.750000X0*%
%ADD40RoundRect,0.050000X-0.750000X0.260000X-0.750000X-0.260000X0.750000X-0.260000X0.750000X0.260000X0*%
%ADD41RoundRect,0.150000X-0.100000X0.637500X-0.100000X-0.637500X0.100000X-0.637500X0.100000X0.637500X0*%
%ADD42RoundRect,0.293750X-0.456250X0.243750X-0.456250X-0.243750X0.456250X-0.243750X0.456250X0.243750X0*%
%ADD43C,4.100000*%
%ADD44RoundRect,0.050000X0.800000X0.800000X-0.800000X0.800000X-0.800000X-0.800000X0.800000X-0.800000X0*%
%ADD45RoundRect,0.050000X-0.675000X0.675000X-0.675000X-0.675000X0.675000X-0.675000X0.675000X0.675000X0*%
%ADD46RoundRect,0.200000X0.150000X-0.825000X0.150000X0.825000X-0.150000X0.825000X-0.150000X-0.825000X0*%
%ADD47RoundRect,0.050000X0.225000X-0.875000X0.225000X0.875000X-0.225000X0.875000X-0.225000X-0.875000X0*%
%ADD48RoundRect,0.300000X0.250000X0.475000X-0.250000X0.475000X-0.250000X-0.475000X0.250000X-0.475000X0*%
%ADD49RoundRect,0.125000X-0.662500X-0.075000X0.662500X-0.075000X0.662500X0.075000X-0.662500X0.075000X0*%
%ADD50RoundRect,0.125000X-0.075000X-0.662500X0.075000X-0.662500X0.075000X0.662500X-0.075000X0.662500X0*%
%ADD51RoundRect,0.050000X2.000000X1.000000X-2.000000X1.000000X-2.000000X-1.000000X2.000000X-1.000000X0*%
%ADD52O,3.400000X2.100000*%
%ADD53O,2.100000X3.600000*%
%ADD54RoundRect,0.050000X-0.750000X1.000000X-0.750000X-1.000000X0.750000X-1.000000X0.750000X1.000000X0*%
%ADD55RoundRect,0.050000X-1.900000X1.000000X-1.900000X-1.000000X1.900000X-1.000000X1.900000X1.000000X0*%
%ADD56RoundRect,0.150000X0.100000X-0.637500X0.100000X0.637500X-0.100000X0.637500X-0.100000X-0.637500X0*%
%ADD57RoundRect,0.050000X0.625000X1.500000X-0.625000X1.500000X-0.625000X-1.500000X0.625000X-1.500000X0*%
%ADD58C,3.100000*%
%ADD59RoundRect,0.050000X-0.800000X-0.800000X0.800000X-0.800000X0.800000X0.800000X-0.800000X0.800000X0*%
G04 APERTURE END LIST*
D10*
X5013184Y96000856D02*
G75*
G03*
X5013184Y96000856I-1025000J0D01*
G01*
X117025000Y4000000D02*
G75*
G03*
X117025000Y4000000I-1025000J0D01*
G01*
X5014231Y4014932D02*
G75*
G03*
X5014231Y4014932I-1025000J0D01*
G01*
X117025000Y96000000D02*
G75*
G03*
X117025000Y96000000I-1025000J0D01*
G01*
D11*
X1994219Y100105798D02*
X118010005Y100110012D01*
X1994219Y100105781D02*
G75*
G03*
X-5781Y98105798I-19J-1999981D01*
G01*
X-5781Y98105798D02*
X-5781Y2095798D01*
X26Y2094226D02*
G75*
G03*
X2000005Y94226I1999974J-26D01*
G01*
X120010012Y98110012D02*
G75*
G03*
X118010005Y100110012I-2000012J-12D01*
G01*
X120010005Y2100012D02*
X120010005Y98110012D01*
X117995791Y100012D02*
X2000005Y94226D01*
X5000000Y96000000D02*
G75*
G03*
X5000000Y96000000I-1000000J0D01*
G01*
X117000000Y4000000D02*
G75*
G03*
X117000000Y4000000I-1000000J0D01*
G01*
X117000000Y96000000D02*
G75*
G03*
X117000000Y96000000I-1000000J0D01*
G01*
X117995791Y100045D02*
G75*
G03*
X120010005Y2100012I109J2014155D01*
G01*
X5000000Y4000000D02*
G75*
G03*
X5000000Y4000000I-1000000J0D01*
G01*
D10*
X5013184Y96000856D02*
G75*
G03*
X5013184Y96000856I-1025000J0D01*
G01*
X117025000Y4000000D02*
G75*
G03*
X117025000Y4000000I-1025000J0D01*
G01*
X5014231Y4014932D02*
G75*
G03*
X5014231Y4014932I-1025000J0D01*
G01*
X117025000Y96000000D02*
G75*
G03*
X117025000Y96000000I-1025000J0D01*
G01*
D11*
X1994219Y100105798D02*
X118010005Y100110012D01*
X1994219Y100105781D02*
G75*
G03*
X-5781Y98105798I-19J-1999981D01*
G01*
X-5781Y98105798D02*
X-5781Y2095798D01*
X26Y2094226D02*
G75*
G03*
X2000005Y94226I1999974J-26D01*
G01*
X120010012Y98110012D02*
G75*
G03*
X118010005Y100110012I-2000012J-12D01*
G01*
X120010005Y2100012D02*
X120010005Y98110012D01*
X117995791Y100012D02*
X2000005Y94226D01*
X5000000Y96000000D02*
G75*
G03*
X5000000Y96000000I-1000000J0D01*
G01*
X117000000Y4000000D02*
G75*
G03*
X117000000Y4000000I-1000000J0D01*
G01*
X117000000Y96000000D02*
G75*
G03*
X117000000Y96000000I-1000000J0D01*
G01*
X117995791Y100045D02*
G75*
G03*
X120010005Y2100012I109J2014155D01*
G01*
X5000000Y4000000D02*
G75*
G03*
X5000000Y4000000I-1000000J0D01*
G01*
D12*
%TO.C,C15*%
X29814219Y10984226D03*
X31714219Y10984226D03*
%TD*%
D13*
%TO.C,R30*%
X49387500Y84350000D03*
X51212500Y84350000D03*
%TD*%
D14*
%TO.C,R22*%
X54300000Y16000000D03*
X52475000Y16000000D03*
%TD*%
D15*
%TO.C,SDCARD1*%
X1150000Y65495000D03*
X1150000Y66595000D03*
X1150000Y67695000D03*
X1150000Y68795000D03*
X1150000Y69895000D03*
X1150000Y70995000D03*
X1150000Y72095000D03*
D16*
X1150000Y73145000D03*
D17*
X7300000Y62860000D03*
X11000000Y62860000D03*
D18*
X1500000Y74355000D03*
D19*
X11975000Y72330000D03*
D20*
X1275000Y63035000D03*
D19*
X11975000Y66360000D03*
%TD*%
D21*
%TO.C,RESET_SW1*%
X59894219Y76594226D03*
X66394219Y76594226D03*
X59894219Y72094226D03*
X66394219Y72094226D03*
%TD*%
D22*
%TO.C,ROM1*%
X45025005Y14275012D03*
D23*
X45025005Y16815012D03*
X45025005Y19355012D03*
X45025005Y21895012D03*
X45025005Y24435012D03*
X45025005Y26975012D03*
X45025005Y29515012D03*
X45025005Y32055012D03*
X45025005Y34595012D03*
X45025005Y37135012D03*
X45025005Y39675012D03*
X45025005Y42215012D03*
X45025005Y44755012D03*
X45025005Y47295012D03*
X29785005Y47295012D03*
X29785005Y44755012D03*
X29785005Y42215012D03*
X29785005Y39675012D03*
X29785005Y37135012D03*
X29785005Y34595012D03*
X29785005Y32055012D03*
X29785005Y29515012D03*
X29785005Y26975012D03*
X29785005Y24435012D03*
X29785005Y21895012D03*
X29785005Y19355012D03*
X29785005Y16815012D03*
X29785005Y14275012D03*
%TD*%
D24*
%TO.C,U6*%
X65450005Y79100012D03*
D25*
X67150005Y79100012D03*
X67150005Y81100012D03*
X65250005Y81100012D03*
%TD*%
D26*
%TO.C,R28*%
X73000000Y5725000D03*
X73000000Y3900000D03*
%TD*%
D14*
%TO.C,R16*%
X54200000Y31400000D03*
X52375000Y31400000D03*
%TD*%
%TO.C,R13*%
X54100000Y39000000D03*
X52275000Y39000000D03*
%TD*%
D27*
%TO.C,CPU1*%
X57500005Y61825012D03*
D23*
X57500005Y59285012D03*
X57500005Y56745012D03*
X57500005Y54205012D03*
X57500005Y51665012D03*
X57500005Y49125012D03*
X57500005Y46585012D03*
X57500005Y44045012D03*
X57500005Y41505012D03*
X57500005Y38965012D03*
X57500005Y36425012D03*
X57500005Y33885012D03*
X57500005Y31345012D03*
X57500005Y28805012D03*
X57500005Y26265012D03*
X57500005Y23725012D03*
X57500005Y21185012D03*
X57500005Y18645012D03*
X57500005Y16105012D03*
X57500005Y13565012D03*
X82900005Y13565012D03*
X82900005Y16105012D03*
X82900005Y18645012D03*
X82900005Y21185012D03*
X82900005Y23725012D03*
X82900005Y26265012D03*
X82900005Y28805012D03*
X82900005Y31345012D03*
X82900005Y33885012D03*
X82900005Y36425012D03*
X82900005Y38965012D03*
X82900005Y41505012D03*
X82900005Y44045012D03*
X82900005Y46585012D03*
X82900005Y49125012D03*
X82900005Y51665012D03*
X82900005Y54205012D03*
X82900005Y56745012D03*
X82900005Y59285012D03*
X82900005Y61825012D03*
%TD*%
D28*
%TO.C,R11*%
X12250000Y50775000D03*
X12250000Y52600000D03*
%TD*%
D12*
%TO.C,C8*%
X23050000Y93400000D03*
X24950000Y93400000D03*
%TD*%
D29*
%TO.C,C2*%
X51774219Y44024226D03*
X51774219Y42124226D03*
%TD*%
D30*
%TO.C,C9*%
X43600000Y94800000D03*
X43600000Y96700000D03*
%TD*%
D14*
%TO.C,R19*%
X54300000Y23700000D03*
X52475000Y23700000D03*
%TD*%
D30*
%TO.C,C21*%
X87400000Y60700000D03*
X87400000Y62600000D03*
%TD*%
D31*
%TO.C,REG2*%
X60900000Y89150000D03*
D32*
X67200000Y86850000D03*
D31*
X60900000Y86850000D03*
X60900000Y84550000D03*
%TD*%
D33*
%TO.C,PERIPHERAL1*%
X109200000Y69000000D03*
D34*
X111200000Y69000000D03*
X109200000Y67000000D03*
X111200000Y67000000D03*
X109200000Y65000000D03*
X111200000Y65000000D03*
X109200000Y63000000D03*
X111200000Y63000000D03*
X109200000Y61000000D03*
X111200000Y61000000D03*
X109200000Y59000000D03*
X111200000Y59000000D03*
X109200000Y57000000D03*
X111200000Y57000000D03*
X109200000Y55000000D03*
X111200000Y55000000D03*
%TD*%
D35*
%TO.C,SERC1*%
X22450000Y68000000D03*
X22450000Y67200000D03*
X22450000Y66400000D03*
X22450000Y65600000D03*
X22450000Y64800000D03*
X22450000Y64000000D03*
X22450000Y63200000D03*
X22450000Y62400000D03*
X22450000Y61600000D03*
X22450000Y60800000D03*
X22450000Y60000000D03*
D36*
X24500000Y57950000D03*
X25300000Y57950000D03*
X26100000Y57950000D03*
X26900000Y57950000D03*
X27700000Y57950000D03*
X28500000Y57950000D03*
X29300000Y57950000D03*
X30100000Y57950000D03*
X30900000Y57950000D03*
X31700000Y57950000D03*
X32500000Y57950000D03*
D35*
X34550000Y60000000D03*
X34550000Y60800000D03*
X34550000Y61600000D03*
X34550000Y62400000D03*
X34550000Y63200000D03*
X34550000Y64000000D03*
X34550000Y64800000D03*
X34550000Y65600000D03*
X34550000Y66400000D03*
X34550000Y67200000D03*
X34550000Y68000000D03*
D36*
X32500000Y70050000D03*
X31700000Y70050000D03*
X30900000Y70050000D03*
X30100000Y70050000D03*
X29300000Y70050000D03*
X28500000Y70050000D03*
X27700000Y70050000D03*
X26900000Y70050000D03*
X26100000Y70050000D03*
X25300000Y70050000D03*
X24500000Y70050000D03*
%TD*%
D12*
%TO.C,C16*%
X7594219Y11004226D03*
X9494219Y11004226D03*
%TD*%
%TO.C,C17*%
X23050000Y90800000D03*
X24950000Y90800000D03*
%TD*%
D37*
%TO.C,C3*%
X7500000Y84105112D03*
D38*
X7500000Y81605112D03*
%TD*%
D39*
%TO.C,PRP1*%
X99900005Y63450012D03*
X99100005Y63450012D03*
X98300005Y63450012D03*
X97500005Y63450012D03*
X96700005Y63450012D03*
X95900005Y63450012D03*
X95100005Y63450012D03*
X94300005Y63450012D03*
X93500005Y63450012D03*
X92700005Y63450012D03*
X91900005Y63450012D03*
D40*
X89850005Y61400012D03*
X89850005Y60600012D03*
X89850005Y59800012D03*
X89850005Y59000012D03*
X89850005Y58200012D03*
X89850005Y57400012D03*
X89850005Y56600012D03*
X89850005Y55800012D03*
X89850005Y55000012D03*
X89850005Y54200012D03*
X89850005Y53400012D03*
D39*
X91900005Y51350012D03*
X92700005Y51350012D03*
X93500005Y51350012D03*
X94300005Y51350012D03*
X95100005Y51350012D03*
X95900005Y51350012D03*
X96700005Y51350012D03*
X97500005Y51350012D03*
X98300005Y51350012D03*
X99100005Y51350012D03*
X99900005Y51350012D03*
D40*
X101950005Y53400012D03*
X101950005Y54200012D03*
X101950005Y55000012D03*
X101950005Y55800012D03*
X101950005Y56600012D03*
X101950005Y57400012D03*
X101950005Y58200012D03*
X101950005Y59000012D03*
X101950005Y59800012D03*
X101950005Y60600012D03*
X101950005Y61400012D03*
%TD*%
D13*
%TO.C,R2*%
X29801719Y8284226D03*
X31626719Y8284226D03*
%TD*%
D41*
%TO.C,U1*%
X90900000Y21912500D03*
X90250000Y21912500D03*
X89600000Y21912500D03*
X88950000Y21912500D03*
X88300000Y21912500D03*
X87650000Y21912500D03*
X87000000Y21912500D03*
X87000000Y16187500D03*
X87650000Y16187500D03*
X88300000Y16187500D03*
X88950000Y16187500D03*
X89600000Y16187500D03*
X90250000Y16187500D03*
X90900000Y16187500D03*
%TD*%
D42*
%TO.C,D1*%
X11590000Y84837500D03*
X11590000Y82962500D03*
%TD*%
D14*
%TO.C,R18*%
X54300000Y26300000D03*
X52475000Y26300000D03*
%TD*%
D26*
%TO.C,R6*%
X25700000Y41112500D03*
X25700000Y39287500D03*
%TD*%
D43*
%TO.C,VGA1*%
X88115000Y95149669D03*
X63115000Y95149669D03*
D44*
X71300000Y93099669D03*
D38*
X73590000Y93099669D03*
X75880000Y93099669D03*
X78170000Y93099669D03*
X80460000Y93099669D03*
X70155000Y95079669D03*
X72445000Y95079669D03*
X74735000Y95079669D03*
X77025000Y95079669D03*
X79315000Y95079669D03*
X71300000Y97059669D03*
X73590000Y97059669D03*
X75880000Y97059669D03*
X78170000Y97059669D03*
X80460000Y97059669D03*
%TD*%
D14*
%TO.C,R15*%
X54200000Y33900000D03*
X52375000Y33900000D03*
%TD*%
D45*
%TO.C,SPI1*%
X15500000Y58100000D03*
D34*
X13500000Y58100000D03*
X11500000Y58100000D03*
X9500000Y58100000D03*
X7500000Y58100000D03*
X5500000Y58100000D03*
%TD*%
D29*
%TO.C,C4*%
X54574219Y44024226D03*
X54574219Y42124226D03*
%TD*%
D33*
%TO.C,DEBUG1*%
X109200000Y45250000D03*
D34*
X111200000Y45250000D03*
X109200000Y43250000D03*
X111200000Y43250000D03*
X109200000Y41250000D03*
X111200000Y41250000D03*
X109200000Y39250000D03*
X111200000Y39250000D03*
X109200000Y37250000D03*
X111200000Y37250000D03*
X109200000Y35250000D03*
X111200000Y35250000D03*
X109200000Y33250000D03*
X111200000Y33250000D03*
X109200000Y31250000D03*
X111200000Y31250000D03*
X109200000Y29250000D03*
X111200000Y29250000D03*
X109200000Y27250000D03*
X111200000Y27250000D03*
X109200000Y25250000D03*
X111200000Y25250000D03*
X109200000Y23250000D03*
X111200000Y23250000D03*
X109200000Y21250000D03*
X111200000Y21250000D03*
X109200000Y19250000D03*
X111200000Y19250000D03*
X109200000Y17250000D03*
X111200000Y17250000D03*
X109200000Y15250000D03*
X111200000Y15250000D03*
%TD*%
D46*
%TO.C,U3*%
X20190000Y73025000D03*
X21460000Y73025000D03*
X22730000Y73025000D03*
X24000000Y73025000D03*
X25270000Y73025000D03*
X26540000Y73025000D03*
X27810000Y73025000D03*
X27810000Y77975000D03*
X26540000Y77975000D03*
X25270000Y77975000D03*
X24000000Y77975000D03*
X22730000Y77975000D03*
X21460000Y77975000D03*
X20190000Y77975000D03*
%TD*%
D26*
%TO.C,R27*%
X75300000Y5712500D03*
X75300000Y3887500D03*
%TD*%
D14*
%TO.C,R23*%
X54300000Y13500000D03*
X52475000Y13500000D03*
%TD*%
%TO.C,R24*%
X54300000Y10700000D03*
X52475000Y10700000D03*
%TD*%
D47*
%TO.C,USB1*%
X97825000Y73150000D03*
X98475000Y73150000D03*
X99125000Y73150000D03*
X99775000Y73150000D03*
X100425000Y73150000D03*
X101075000Y73150000D03*
X101725000Y73150000D03*
X102375000Y73150000D03*
X103025000Y73150000D03*
X103675000Y73150000D03*
X104325000Y73150000D03*
X104975000Y73150000D03*
X105625000Y73150000D03*
X106275000Y73150000D03*
X106275000Y80350000D03*
X105625000Y80350000D03*
X104975000Y80350000D03*
X104325000Y80350000D03*
X103675000Y80350000D03*
X103025000Y80350000D03*
X102375000Y80350000D03*
X101725000Y80350000D03*
X101075000Y80350000D03*
X100425000Y80350000D03*
X99775000Y80350000D03*
X99125000Y80350000D03*
X98475000Y80350000D03*
X97825000Y80350000D03*
%TD*%
D48*
%TO.C,C11*%
X62394219Y79400000D03*
X60494219Y79400000D03*
%TD*%
D14*
%TO.C,R17*%
X54300000Y28800000D03*
X52475000Y28800000D03*
%TD*%
D28*
%TO.C,R9*%
X7750000Y50787500D03*
X7750000Y52612500D03*
%TD*%
%TO.C,R10*%
X10000000Y50787500D03*
X10000000Y52612500D03*
%TD*%
D26*
%TO.C,R29*%
X14000000Y84825000D03*
X14000000Y83000000D03*
%TD*%
D30*
%TO.C,C6*%
X58244226Y87800000D03*
X58244226Y89700000D03*
%TD*%
D48*
%TO.C,C22*%
X95050000Y80700000D03*
X93150000Y80700000D03*
%TD*%
D26*
%TO.C,R25*%
X79900000Y5712500D03*
X79900000Y3887500D03*
%TD*%
D12*
%TO.C,C18*%
X49337500Y88550000D03*
X51237500Y88550000D03*
%TD*%
D33*
%TO.C,SWD_H1*%
X86400000Y86300000D03*
D34*
X86400000Y84300000D03*
X86400000Y82300000D03*
X86400000Y80300000D03*
%TD*%
D22*
%TO.C,RAM1*%
X22900005Y14300012D03*
D23*
X22900005Y16840012D03*
X22900005Y19380012D03*
X22900005Y21920012D03*
X22900005Y24460012D03*
X22900005Y27000012D03*
X22900005Y29540012D03*
X22900005Y32080012D03*
X22900005Y34620012D03*
X22900005Y37160012D03*
X22900005Y39700012D03*
X22900005Y42240012D03*
X22900005Y44780012D03*
X22900005Y47320012D03*
X7660005Y47320012D03*
X7660005Y44780012D03*
X7660005Y42240012D03*
X7660005Y39700012D03*
X7660005Y37160012D03*
X7660005Y34620012D03*
X7660005Y32080012D03*
X7660005Y29540012D03*
X7660005Y27000012D03*
X7660005Y24460012D03*
X7660005Y21920012D03*
X7660005Y19380012D03*
X7660005Y16840012D03*
X7660005Y14300012D03*
%TD*%
D49*
%TO.C,VIDEO1*%
X72787500Y83862500D03*
X72787500Y83362500D03*
X72787500Y82862500D03*
X72787500Y82362500D03*
X72787500Y81862500D03*
X72787500Y81362500D03*
X72787500Y80862500D03*
X72787500Y80362500D03*
X72787500Y79862500D03*
X72787500Y79362500D03*
X72787500Y78862500D03*
X72787500Y78362500D03*
D50*
X74200000Y76950000D03*
X74700000Y76950000D03*
X75200000Y76950000D03*
X75700000Y76950000D03*
X76200000Y76950000D03*
X76700000Y76950000D03*
X77200000Y76950000D03*
X77700000Y76950000D03*
X78200000Y76950000D03*
X78700000Y76950000D03*
X79200000Y76950000D03*
X79700000Y76950000D03*
D49*
X81112500Y78362500D03*
X81112500Y78862500D03*
X81112500Y79362500D03*
X81112500Y79862500D03*
X81112500Y80362500D03*
X81112500Y80862500D03*
X81112500Y81362500D03*
X81112500Y81862500D03*
X81112500Y82362500D03*
X81112500Y82862500D03*
X81112500Y83362500D03*
X81112500Y83862500D03*
D50*
X79700000Y85275000D03*
X79200000Y85275000D03*
X78700000Y85275000D03*
X78200000Y85275000D03*
X77700000Y85275000D03*
X77200000Y85275000D03*
X76700000Y85275000D03*
X76200000Y85275000D03*
X75700000Y85275000D03*
X75200000Y85275000D03*
X74700000Y85275000D03*
X74200000Y85275000D03*
%TD*%
D38*
%TO.C,J1*%
X12900000Y96600000D03*
D51*
X12900000Y87600000D03*
D52*
X12900000Y93600000D03*
D53*
X17400000Y94600000D03*
X8400000Y94600000D03*
%TD*%
D21*
%TO.C,STEP_SW1*%
X56500000Y72000000D03*
X50000000Y72000000D03*
X50000000Y76500000D03*
X56500000Y76500000D03*
%TD*%
D54*
%TO.C,REG1*%
X25350000Y87600000D03*
D55*
X23050000Y81300000D03*
D54*
X23050000Y87600000D03*
X20750000Y87600000D03*
%TD*%
D26*
%TO.C,R26*%
X77600000Y5712500D03*
X77600000Y3887500D03*
%TD*%
D30*
%TO.C,C7*%
X56100000Y87800000D03*
X56100000Y89700000D03*
%TD*%
D14*
%TO.C,R20*%
X54300000Y21100000D03*
X52475000Y21100000D03*
%TD*%
%TO.C,R14*%
X54112500Y36400000D03*
X52287500Y36400000D03*
%TD*%
D45*
%TO.C,CS_SEL1*%
X44500000Y76500000D03*
D34*
X44500000Y74500000D03*
X42500000Y76500000D03*
X42500000Y74500000D03*
X40500000Y76500000D03*
X40500000Y74500000D03*
%TD*%
D28*
%TO.C,R8*%
X5400000Y50787500D03*
X5400000Y52612500D03*
%TD*%
D56*
%TO.C,U2*%
X43550000Y85137500D03*
X44200000Y85137500D03*
X44850000Y85137500D03*
X45500000Y85137500D03*
X46150000Y85137500D03*
X46800000Y85137500D03*
X47450000Y85137500D03*
X47450000Y90862500D03*
X46800000Y90862500D03*
X46150000Y90862500D03*
X45500000Y90862500D03*
X44850000Y90862500D03*
X44200000Y90862500D03*
X43550000Y90862500D03*
%TD*%
D14*
%TO.C,R21*%
X54300000Y18600000D03*
X52475000Y18600000D03*
%TD*%
D26*
%TO.C,R5*%
X25700000Y37500000D03*
X25700000Y35675000D03*
%TD*%
D14*
%TO.C,R31*%
X51200000Y86450000D03*
X49375000Y86450000D03*
%TD*%
D12*
%TO.C,C10*%
X25000000Y55100000D03*
X26900000Y55100000D03*
%TD*%
%TO.C,C23*%
X71400000Y89000000D03*
X73300000Y89000000D03*
%TD*%
D57*
%TO.C,USB_P1*%
X104400000Y86950000D03*
X101900000Y86950000D03*
X99900000Y86950000D03*
X97400000Y86950000D03*
D58*
X94330000Y90630000D03*
X107470000Y90630000D03*
%TD*%
D29*
%TO.C,C1*%
X16900000Y84800000D03*
X16900000Y82900000D03*
%TD*%
D26*
%TO.C,R7*%
X25700000Y44712500D03*
X25700000Y42887500D03*
%TD*%
D28*
%TO.C,R12*%
X14500000Y50787500D03*
X14500000Y52612500D03*
%TD*%
D29*
%TO.C,C5*%
X58250000Y84600000D03*
X58250000Y82700000D03*
%TD*%
D59*
%TO.C,X1*%
X31690000Y84190000D03*
D38*
X39310000Y84190000D03*
X39310000Y91810000D03*
X31690000Y91810000D03*
%TD*%
G36*
X89170754Y16912614D02*
G01*
X89186543Y16896853D01*
X89248611Y16863031D01*
X89318889Y16868119D01*
X89363676Y16896959D01*
X89379126Y16912435D01*
X89381057Y16912954D01*
X89382472Y16911541D01*
X89382204Y16909911D01*
X89363303Y16881624D01*
X89352000Y16824801D01*
X89352000Y15550199D01*
X89363303Y15493376D01*
X89382322Y15464912D01*
X89382453Y15462916D01*
X89380790Y15461805D01*
X89379246Y15462386D01*
X89363457Y15478147D01*
X89301389Y15511969D01*
X89231111Y15506881D01*
X89186324Y15478041D01*
X89170874Y15462565D01*
X89168943Y15462046D01*
X89167528Y15463459D01*
X89167796Y15465089D01*
X89186697Y15493376D01*
X89198000Y15550199D01*
X89198000Y16824801D01*
X89186697Y16881624D01*
X89167678Y16910088D01*
X89167547Y16912084D01*
X89169210Y16913195D01*
X89170754Y16912614D01*
G37*
G36*
X88520754Y16912614D02*
G01*
X88536543Y16896853D01*
X88598611Y16863031D01*
X88668889Y16868119D01*
X88713676Y16896959D01*
X88729126Y16912435D01*
X88731057Y16912954D01*
X88732472Y16911541D01*
X88732204Y16909911D01*
X88713303Y16881624D01*
X88702000Y16824801D01*
X88702000Y15550199D01*
X88713303Y15493376D01*
X88732322Y15464912D01*
X88732453Y15462916D01*
X88730790Y15461805D01*
X88729246Y15462386D01*
X88713457Y15478147D01*
X88651389Y15511969D01*
X88581111Y15506881D01*
X88536324Y15478041D01*
X88520874Y15462565D01*
X88518943Y15462046D01*
X88517528Y15463459D01*
X88517796Y15465089D01*
X88536697Y15493376D01*
X88548000Y15550199D01*
X88548000Y16824801D01*
X88536697Y16881624D01*
X88517678Y16910088D01*
X88517547Y16912084D01*
X88519210Y16913195D01*
X88520754Y16912614D01*
G37*
G36*
X87870754Y16912614D02*
G01*
X87886543Y16896853D01*
X87948611Y16863031D01*
X88018889Y16868119D01*
X88063676Y16896959D01*
X88079126Y16912435D01*
X88081057Y16912954D01*
X88082472Y16911541D01*
X88082204Y16909911D01*
X88063303Y16881624D01*
X88052000Y16824801D01*
X88052000Y15550199D01*
X88063303Y15493376D01*
X88082322Y15464912D01*
X88082453Y15462916D01*
X88080790Y15461805D01*
X88079246Y15462386D01*
X88063457Y15478147D01*
X88001389Y15511969D01*
X87931111Y15506881D01*
X87886324Y15478041D01*
X87870874Y15462565D01*
X87868943Y15462046D01*
X87867528Y15463459D01*
X87867796Y15465089D01*
X87886697Y15493376D01*
X87898000Y15550199D01*
X87898000Y16824801D01*
X87886697Y16881624D01*
X87867678Y16910088D01*
X87867547Y16912084D01*
X87869210Y16913195D01*
X87870754Y16912614D01*
G37*
G36*
X87220754Y16912614D02*
G01*
X87236543Y16896853D01*
X87298611Y16863031D01*
X87368889Y16868119D01*
X87413676Y16896959D01*
X87429126Y16912435D01*
X87431057Y16912954D01*
X87432472Y16911541D01*
X87432204Y16909911D01*
X87413303Y16881624D01*
X87402000Y16824801D01*
X87402000Y15550199D01*
X87413303Y15493376D01*
X87432322Y15464912D01*
X87432453Y15462916D01*
X87430790Y15461805D01*
X87429246Y15462386D01*
X87413457Y15478147D01*
X87351389Y15511969D01*
X87281111Y15506881D01*
X87236324Y15478041D01*
X87220874Y15462565D01*
X87218943Y15462046D01*
X87217528Y15463459D01*
X87217796Y15465089D01*
X87236697Y15493376D01*
X87248000Y15550199D01*
X87248000Y16824801D01*
X87236697Y16881624D01*
X87217678Y16910088D01*
X87217547Y16912084D01*
X87219210Y16913195D01*
X87220754Y16912614D01*
G37*
G36*
X89820754Y16912614D02*
G01*
X89836543Y16896853D01*
X89898611Y16863031D01*
X89968889Y16868119D01*
X90013676Y16896959D01*
X90029126Y16912435D01*
X90031057Y16912954D01*
X90032472Y16911541D01*
X90032204Y16909911D01*
X90013303Y16881624D01*
X90002000Y16824801D01*
X90002000Y15550199D01*
X90013303Y15493376D01*
X90032322Y15464912D01*
X90032453Y15462916D01*
X90030790Y15461805D01*
X90029246Y15462386D01*
X90013457Y15478147D01*
X89951389Y15511969D01*
X89881111Y15506881D01*
X89836324Y15478041D01*
X89820874Y15462565D01*
X89818943Y15462046D01*
X89817528Y15463459D01*
X89817796Y15465089D01*
X89836697Y15493376D01*
X89848000Y15550199D01*
X89848000Y16824801D01*
X89836697Y16881624D01*
X89817678Y16910088D01*
X89817547Y16912084D01*
X89819210Y16913195D01*
X89820754Y16912614D01*
G37*
G36*
X90470754Y16912614D02*
G01*
X90486543Y16896853D01*
X90548611Y16863031D01*
X90618889Y16868119D01*
X90663676Y16896959D01*
X90679126Y16912435D01*
X90681057Y16912954D01*
X90682472Y16911541D01*
X90682204Y16909911D01*
X90663303Y16881624D01*
X90652000Y16824801D01*
X90652000Y15550199D01*
X90663303Y15493376D01*
X90682322Y15464912D01*
X90682453Y15462916D01*
X90680790Y15461805D01*
X90679246Y15462386D01*
X90663457Y15478147D01*
X90601389Y15511969D01*
X90531111Y15506881D01*
X90486324Y15478041D01*
X90470874Y15462565D01*
X90468943Y15462046D01*
X90467528Y15463459D01*
X90467796Y15465089D01*
X90486697Y15493376D01*
X90498000Y15550199D01*
X90498000Y16824801D01*
X90486697Y16881624D01*
X90467678Y16910088D01*
X90467547Y16912084D01*
X90469210Y16913195D01*
X90470754Y16912614D01*
G37*
G36*
X88520754Y22637614D02*
G01*
X88536543Y22621853D01*
X88598611Y22588031D01*
X88668889Y22593119D01*
X88713676Y22621959D01*
X88729126Y22637435D01*
X88731057Y22637954D01*
X88732472Y22636541D01*
X88732204Y22634911D01*
X88713303Y22606624D01*
X88702000Y22549801D01*
X88702000Y21275199D01*
X88713303Y21218376D01*
X88732322Y21189912D01*
X88732453Y21187916D01*
X88730790Y21186805D01*
X88729246Y21187386D01*
X88713457Y21203147D01*
X88651389Y21236969D01*
X88581111Y21231881D01*
X88536324Y21203041D01*
X88520874Y21187565D01*
X88518943Y21187046D01*
X88517528Y21188459D01*
X88517796Y21190089D01*
X88536697Y21218376D01*
X88548000Y21275199D01*
X88548000Y22549801D01*
X88536697Y22606624D01*
X88517678Y22635088D01*
X88517547Y22637084D01*
X88519210Y22638195D01*
X88520754Y22637614D01*
G37*
G36*
X87870754Y22637614D02*
G01*
X87886543Y22621853D01*
X87948611Y22588031D01*
X88018889Y22593119D01*
X88063676Y22621959D01*
X88079126Y22637435D01*
X88081057Y22637954D01*
X88082472Y22636541D01*
X88082204Y22634911D01*
X88063303Y22606624D01*
X88052000Y22549801D01*
X88052000Y21275199D01*
X88063303Y21218376D01*
X88082322Y21189912D01*
X88082453Y21187916D01*
X88080790Y21186805D01*
X88079246Y21187386D01*
X88063457Y21203147D01*
X88001389Y21236969D01*
X87931111Y21231881D01*
X87886324Y21203041D01*
X87870874Y21187565D01*
X87868943Y21187046D01*
X87867528Y21188459D01*
X87867796Y21190089D01*
X87886697Y21218376D01*
X87898000Y21275199D01*
X87898000Y22549801D01*
X87886697Y22606624D01*
X87867678Y22635088D01*
X87867547Y22637084D01*
X87869210Y22638195D01*
X87870754Y22637614D01*
G37*
G36*
X87220754Y22637614D02*
G01*
X87236543Y22621853D01*
X87298611Y22588031D01*
X87368889Y22593119D01*
X87413676Y22621959D01*
X87429126Y22637435D01*
X87431057Y22637954D01*
X87432472Y22636541D01*
X87432204Y22634911D01*
X87413303Y22606624D01*
X87402000Y22549801D01*
X87402000Y21275199D01*
X87413303Y21218376D01*
X87432322Y21189912D01*
X87432453Y21187916D01*
X87430790Y21186805D01*
X87429246Y21187386D01*
X87413457Y21203147D01*
X87351389Y21236969D01*
X87281111Y21231881D01*
X87236324Y21203041D01*
X87220874Y21187565D01*
X87218943Y21187046D01*
X87217528Y21188459D01*
X87217796Y21190089D01*
X87236697Y21218376D01*
X87248000Y21275199D01*
X87248000Y22549801D01*
X87236697Y22606624D01*
X87217678Y22635088D01*
X87217547Y22637084D01*
X87219210Y22638195D01*
X87220754Y22637614D01*
G37*
G36*
X89170754Y22637614D02*
G01*
X89186543Y22621853D01*
X89248611Y22588031D01*
X89318889Y22593119D01*
X89363676Y22621959D01*
X89379126Y22637435D01*
X89381057Y22637954D01*
X89382472Y22636541D01*
X89382204Y22634911D01*
X89363303Y22606624D01*
X89352000Y22549801D01*
X89352000Y21275199D01*
X89363303Y21218376D01*
X89382322Y21189912D01*
X89382453Y21187916D01*
X89380790Y21186805D01*
X89379246Y21187386D01*
X89363457Y21203147D01*
X89301389Y21236969D01*
X89231111Y21231881D01*
X89186324Y21203041D01*
X89170874Y21187565D01*
X89168943Y21187046D01*
X89167528Y21188459D01*
X89167796Y21190089D01*
X89186697Y21218376D01*
X89198000Y21275199D01*
X89198000Y22549801D01*
X89186697Y22606624D01*
X89167678Y22635088D01*
X89167547Y22637084D01*
X89169210Y22638195D01*
X89170754Y22637614D01*
G37*
G36*
X90470754Y22637614D02*
G01*
X90486543Y22621853D01*
X90548611Y22588031D01*
X90618889Y22593119D01*
X90663676Y22621959D01*
X90679126Y22637435D01*
X90681057Y22637954D01*
X90682472Y22636541D01*
X90682204Y22634911D01*
X90663303Y22606624D01*
X90652000Y22549801D01*
X90652000Y21275199D01*
X90663303Y21218376D01*
X90682322Y21189912D01*
X90682453Y21187916D01*
X90680790Y21186805D01*
X90679246Y21187386D01*
X90663457Y21203147D01*
X90601389Y21236969D01*
X90531111Y21231881D01*
X90486324Y21203041D01*
X90470874Y21187565D01*
X90468943Y21187046D01*
X90467528Y21188459D01*
X90467796Y21190089D01*
X90486697Y21218376D01*
X90498000Y21275199D01*
X90498000Y22549801D01*
X90486697Y22606624D01*
X90467678Y22635088D01*
X90467547Y22637084D01*
X90469210Y22638195D01*
X90470754Y22637614D01*
G37*
G36*
X89820754Y22637614D02*
G01*
X89836543Y22621853D01*
X89898611Y22588031D01*
X89968889Y22593119D01*
X90013676Y22621959D01*
X90029126Y22637435D01*
X90031057Y22637954D01*
X90032472Y22636541D01*
X90032204Y22634911D01*
X90013303Y22606624D01*
X90002000Y22549801D01*
X90002000Y21275199D01*
X90013303Y21218376D01*
X90032322Y21189912D01*
X90032453Y21187916D01*
X90030790Y21186805D01*
X90029246Y21187386D01*
X90013457Y21203147D01*
X89951389Y21236969D01*
X89881111Y21231881D01*
X89836324Y21203041D01*
X89820874Y21187565D01*
X89818943Y21187046D01*
X89817528Y21188459D01*
X89817796Y21190089D01*
X89836697Y21218376D01*
X89848000Y21275199D01*
X89848000Y22549801D01*
X89836697Y22606624D01*
X89817678Y22635088D01*
X89817547Y22637084D01*
X89819210Y22638195D01*
X89820754Y22637614D01*
G37*
G36*
X96202339Y52128378D02*
G01*
X96250152Y52088420D01*
X96319986Y52079648D01*
X96383633Y52110100D01*
X96392209Y52119996D01*
X96394099Y52120650D01*
X96395610Y52119340D01*
X96395682Y52118296D01*
X96392005Y52099813D01*
X96392005Y50600211D01*
X96395696Y50581657D01*
X96400617Y50574292D01*
X96400748Y50572296D01*
X96399085Y50571185D01*
X96397671Y50571646D01*
X96349858Y50611604D01*
X96280024Y50620376D01*
X96216377Y50589924D01*
X96207801Y50580028D01*
X96205911Y50579374D01*
X96204400Y50580684D01*
X96204328Y50581728D01*
X96208005Y50600211D01*
X96208005Y52099813D01*
X96204314Y52118367D01*
X96199393Y52125732D01*
X96199262Y52127728D01*
X96200925Y52128839D01*
X96202339Y52128378D01*
G37*
G36*
X97802339Y52128378D02*
G01*
X97850152Y52088420D01*
X97919986Y52079648D01*
X97983633Y52110100D01*
X97992209Y52119996D01*
X97994099Y52120650D01*
X97995610Y52119340D01*
X97995682Y52118296D01*
X97992005Y52099813D01*
X97992005Y50600211D01*
X97995696Y50581657D01*
X98000617Y50574292D01*
X98000748Y50572296D01*
X97999085Y50571185D01*
X97997671Y50571646D01*
X97949858Y50611604D01*
X97880024Y50620376D01*
X97816377Y50589924D01*
X97807801Y50580028D01*
X97805911Y50579374D01*
X97804400Y50580684D01*
X97804328Y50581728D01*
X97808005Y50600211D01*
X97808005Y52099813D01*
X97804314Y52118367D01*
X97799393Y52125732D01*
X97799262Y52127728D01*
X97800925Y52128839D01*
X97802339Y52128378D01*
G37*
G36*
X95402339Y52128378D02*
G01*
X95450152Y52088420D01*
X95519986Y52079648D01*
X95583633Y52110100D01*
X95592209Y52119996D01*
X95594099Y52120650D01*
X95595610Y52119340D01*
X95595682Y52118296D01*
X95592005Y52099813D01*
X95592005Y50600211D01*
X95595696Y50581657D01*
X95600617Y50574292D01*
X95600748Y50572296D01*
X95599085Y50571185D01*
X95597671Y50571646D01*
X95549858Y50611604D01*
X95480024Y50620376D01*
X95416377Y50589924D01*
X95407801Y50580028D01*
X95405911Y50579374D01*
X95404400Y50580684D01*
X95404328Y50581728D01*
X95408005Y50600211D01*
X95408005Y52099813D01*
X95404314Y52118367D01*
X95399393Y52125732D01*
X95399262Y52127728D01*
X95400925Y52128839D01*
X95402339Y52128378D01*
G37*
G36*
X98602339Y52128378D02*
G01*
X98650152Y52088420D01*
X98719986Y52079648D01*
X98783633Y52110100D01*
X98792209Y52119996D01*
X98794099Y52120650D01*
X98795610Y52119340D01*
X98795682Y52118296D01*
X98792005Y52099813D01*
X98792005Y50600211D01*
X98795696Y50581657D01*
X98800617Y50574292D01*
X98800748Y50572296D01*
X98799085Y50571185D01*
X98797671Y50571646D01*
X98749858Y50611604D01*
X98680024Y50620376D01*
X98616377Y50589924D01*
X98607801Y50580028D01*
X98605911Y50579374D01*
X98604400Y50580684D01*
X98604328Y50581728D01*
X98608005Y50600211D01*
X98608005Y52099813D01*
X98604314Y52118367D01*
X98599393Y52125732D01*
X98599262Y52127728D01*
X98600925Y52128839D01*
X98602339Y52128378D01*
G37*
G36*
X93802339Y52128378D02*
G01*
X93850152Y52088420D01*
X93919986Y52079648D01*
X93983633Y52110100D01*
X93992209Y52119996D01*
X93994099Y52120650D01*
X93995610Y52119340D01*
X93995682Y52118296D01*
X93992005Y52099813D01*
X93992005Y50600211D01*
X93995696Y50581657D01*
X94000617Y50574292D01*
X94000748Y50572296D01*
X93999085Y50571185D01*
X93997671Y50571646D01*
X93949858Y50611604D01*
X93880024Y50620376D01*
X93816377Y50589924D01*
X93807801Y50580028D01*
X93805911Y50579374D01*
X93804400Y50580684D01*
X93804328Y50581728D01*
X93808005Y50600211D01*
X93808005Y52099813D01*
X93804314Y52118367D01*
X93799393Y52125732D01*
X93799262Y52127728D01*
X93800925Y52128839D01*
X93802339Y52128378D01*
G37*
G36*
X93002339Y52128378D02*
G01*
X93050152Y52088420D01*
X93119986Y52079648D01*
X93183633Y52110100D01*
X93192209Y52119996D01*
X93194099Y52120650D01*
X93195610Y52119340D01*
X93195682Y52118296D01*
X93192005Y52099813D01*
X93192005Y50600211D01*
X93195696Y50581657D01*
X93200617Y50574292D01*
X93200748Y50572296D01*
X93199085Y50571185D01*
X93197671Y50571646D01*
X93149858Y50611604D01*
X93080024Y50620376D01*
X93016377Y50589924D01*
X93007801Y50580028D01*
X93005911Y50579374D01*
X93004400Y50580684D01*
X93004328Y50581728D01*
X93008005Y50600211D01*
X93008005Y52099813D01*
X93004314Y52118367D01*
X92999393Y52125732D01*
X92999262Y52127728D01*
X93000925Y52128839D01*
X93002339Y52128378D01*
G37*
G36*
X99402339Y52128378D02*
G01*
X99450152Y52088420D01*
X99519986Y52079648D01*
X99583633Y52110100D01*
X99592209Y52119996D01*
X99594099Y52120650D01*
X99595610Y52119340D01*
X99595682Y52118296D01*
X99592005Y52099813D01*
X99592005Y50600211D01*
X99595696Y50581657D01*
X99600617Y50574292D01*
X99600748Y50572296D01*
X99599085Y50571185D01*
X99597671Y50571646D01*
X99549858Y50611604D01*
X99480024Y50620376D01*
X99416377Y50589924D01*
X99407801Y50580028D01*
X99405911Y50579374D01*
X99404400Y50580684D01*
X99404328Y50581728D01*
X99408005Y50600211D01*
X99408005Y52099813D01*
X99404314Y52118367D01*
X99399393Y52125732D01*
X99399262Y52127728D01*
X99400925Y52128839D01*
X99402339Y52128378D01*
G37*
G36*
X94602339Y52128378D02*
G01*
X94650152Y52088420D01*
X94719986Y52079648D01*
X94783633Y52110100D01*
X94792209Y52119996D01*
X94794099Y52120650D01*
X94795610Y52119340D01*
X94795682Y52118296D01*
X94792005Y52099813D01*
X94792005Y50600211D01*
X94795696Y50581657D01*
X94800617Y50574292D01*
X94800748Y50572296D01*
X94799085Y50571185D01*
X94797671Y50571646D01*
X94749858Y50611604D01*
X94680024Y50620376D01*
X94616377Y50589924D01*
X94607801Y50580028D01*
X94605911Y50579374D01*
X94604400Y50580684D01*
X94604328Y50581728D01*
X94608005Y50600211D01*
X94608005Y52099813D01*
X94604314Y52118367D01*
X94599393Y52125732D01*
X94599262Y52127728D01*
X94600925Y52128839D01*
X94602339Y52128378D01*
G37*
G36*
X92202339Y52128378D02*
G01*
X92250152Y52088420D01*
X92319986Y52079648D01*
X92383633Y52110100D01*
X92392209Y52119996D01*
X92394099Y52120650D01*
X92395610Y52119340D01*
X92395682Y52118296D01*
X92392005Y52099813D01*
X92392005Y50600211D01*
X92395696Y50581657D01*
X92400617Y50574292D01*
X92400748Y50572296D01*
X92399085Y50571185D01*
X92397671Y50571646D01*
X92349858Y50611604D01*
X92280024Y50620376D01*
X92216377Y50589924D01*
X92207801Y50580028D01*
X92205911Y50579374D01*
X92204400Y50580684D01*
X92204328Y50581728D01*
X92208005Y50600211D01*
X92208005Y52099813D01*
X92204314Y52118367D01*
X92199393Y52125732D01*
X92199262Y52127728D01*
X92200925Y52128839D01*
X92202339Y52128378D01*
G37*
G36*
X97002339Y52128378D02*
G01*
X97050152Y52088420D01*
X97119986Y52079648D01*
X97183633Y52110100D01*
X97192209Y52119996D01*
X97194099Y52120650D01*
X97195610Y52119340D01*
X97195682Y52118296D01*
X97192005Y52099813D01*
X97192005Y50600211D01*
X97195696Y50581657D01*
X97200617Y50574292D01*
X97200748Y50572296D01*
X97199085Y50571185D01*
X97197671Y50571646D01*
X97149858Y50611604D01*
X97080024Y50620376D01*
X97016377Y50589924D01*
X97007801Y50580028D01*
X97005911Y50579374D01*
X97004400Y50580684D01*
X97004328Y50581728D01*
X97008005Y50600211D01*
X97008005Y52099813D01*
X97004314Y52118367D01*
X96999393Y52125732D01*
X96999262Y52127728D01*
X97000925Y52128839D01*
X97002339Y52128378D01*
G37*
G36*
X102728832Y53899092D02*
G01*
X102728371Y53897678D01*
X102688413Y53849865D01*
X102679641Y53780031D01*
X102710093Y53716384D01*
X102719989Y53707808D01*
X102720643Y53705918D01*
X102719333Y53704407D01*
X102718289Y53704335D01*
X102699806Y53708012D01*
X101200204Y53708012D01*
X101181650Y53704321D01*
X101174285Y53699400D01*
X101172289Y53699269D01*
X101171178Y53700932D01*
X101171639Y53702346D01*
X101211597Y53750159D01*
X101220369Y53819993D01*
X101189917Y53883640D01*
X101180021Y53892216D01*
X101179367Y53894106D01*
X101180677Y53895617D01*
X101181721Y53895689D01*
X101200204Y53892012D01*
X102699806Y53892012D01*
X102718360Y53895703D01*
X102725725Y53900624D01*
X102727721Y53900755D01*
X102728832Y53899092D01*
G37*
G36*
X90628832Y53899092D02*
G01*
X90628371Y53897678D01*
X90588413Y53849865D01*
X90579641Y53780031D01*
X90610093Y53716384D01*
X90619989Y53707808D01*
X90620643Y53705918D01*
X90619333Y53704407D01*
X90618289Y53704335D01*
X90599806Y53708012D01*
X89100204Y53708012D01*
X89081650Y53704321D01*
X89074285Y53699400D01*
X89072289Y53699269D01*
X89071178Y53700932D01*
X89071639Y53702346D01*
X89111597Y53750159D01*
X89120369Y53819993D01*
X89089917Y53883640D01*
X89080021Y53892216D01*
X89079367Y53894106D01*
X89080677Y53895617D01*
X89081721Y53895689D01*
X89100204Y53892012D01*
X90599806Y53892012D01*
X90618360Y53895703D01*
X90625725Y53900624D01*
X90627721Y53900755D01*
X90628832Y53899092D01*
G37*
G36*
X102728832Y54699092D02*
G01*
X102728371Y54697678D01*
X102688413Y54649865D01*
X102679641Y54580031D01*
X102710093Y54516384D01*
X102719989Y54507808D01*
X102720643Y54505918D01*
X102719333Y54504407D01*
X102718289Y54504335D01*
X102699806Y54508012D01*
X101200204Y54508012D01*
X101181650Y54504321D01*
X101174285Y54499400D01*
X101172289Y54499269D01*
X101171178Y54500932D01*
X101171639Y54502346D01*
X101211597Y54550159D01*
X101220369Y54619993D01*
X101189917Y54683640D01*
X101180021Y54692216D01*
X101179367Y54694106D01*
X101180677Y54695617D01*
X101181721Y54695689D01*
X101200204Y54692012D01*
X102699806Y54692012D01*
X102718360Y54695703D01*
X102725725Y54700624D01*
X102727721Y54700755D01*
X102728832Y54699092D01*
G37*
G36*
X90628832Y54699092D02*
G01*
X90628371Y54697678D01*
X90588413Y54649865D01*
X90579641Y54580031D01*
X90610093Y54516384D01*
X90619989Y54507808D01*
X90620643Y54505918D01*
X90619333Y54504407D01*
X90618289Y54504335D01*
X90599806Y54508012D01*
X89100204Y54508012D01*
X89081650Y54504321D01*
X89074285Y54499400D01*
X89072289Y54499269D01*
X89071178Y54500932D01*
X89071639Y54502346D01*
X89111597Y54550159D01*
X89120369Y54619993D01*
X89089917Y54683640D01*
X89080021Y54692216D01*
X89079367Y54694106D01*
X89080677Y54695617D01*
X89081721Y54695689D01*
X89100204Y54692012D01*
X90599806Y54692012D01*
X90618360Y54695703D01*
X90625725Y54700624D01*
X90627721Y54700755D01*
X90628832Y54699092D01*
G37*
G36*
X102728832Y55499092D02*
G01*
X102728371Y55497678D01*
X102688413Y55449865D01*
X102679641Y55380031D01*
X102710093Y55316384D01*
X102719989Y55307808D01*
X102720643Y55305918D01*
X102719333Y55304407D01*
X102718289Y55304335D01*
X102699806Y55308012D01*
X101200204Y55308012D01*
X101181650Y55304321D01*
X101174285Y55299400D01*
X101172289Y55299269D01*
X101171178Y55300932D01*
X101171639Y55302346D01*
X101211597Y55350159D01*
X101220369Y55419993D01*
X101189917Y55483640D01*
X101180021Y55492216D01*
X101179367Y55494106D01*
X101180677Y55495617D01*
X101181721Y55495689D01*
X101200204Y55492012D01*
X102699806Y55492012D01*
X102718360Y55495703D01*
X102725725Y55500624D01*
X102727721Y55500755D01*
X102728832Y55499092D01*
G37*
G36*
X90628832Y55499092D02*
G01*
X90628371Y55497678D01*
X90588413Y55449865D01*
X90579641Y55380031D01*
X90610093Y55316384D01*
X90619989Y55307808D01*
X90620643Y55305918D01*
X90619333Y55304407D01*
X90618289Y55304335D01*
X90599806Y55308012D01*
X89100204Y55308012D01*
X89081650Y55304321D01*
X89074285Y55299400D01*
X89072289Y55299269D01*
X89071178Y55300932D01*
X89071639Y55302346D01*
X89111597Y55350159D01*
X89120369Y55419993D01*
X89089917Y55483640D01*
X89080021Y55492216D01*
X89079367Y55494106D01*
X89080677Y55495617D01*
X89081721Y55495689D01*
X89100204Y55492012D01*
X90599806Y55492012D01*
X90618360Y55495703D01*
X90625725Y55500624D01*
X90627721Y55500755D01*
X90628832Y55499092D01*
G37*
G36*
X102728832Y56299092D02*
G01*
X102728371Y56297678D01*
X102688413Y56249865D01*
X102679641Y56180031D01*
X102710093Y56116384D01*
X102719989Y56107808D01*
X102720643Y56105918D01*
X102719333Y56104407D01*
X102718289Y56104335D01*
X102699806Y56108012D01*
X101200204Y56108012D01*
X101181650Y56104321D01*
X101174285Y56099400D01*
X101172289Y56099269D01*
X101171178Y56100932D01*
X101171639Y56102346D01*
X101211597Y56150159D01*
X101220369Y56219993D01*
X101189917Y56283640D01*
X101180021Y56292216D01*
X101179367Y56294106D01*
X101180677Y56295617D01*
X101181721Y56295689D01*
X101200204Y56292012D01*
X102699806Y56292012D01*
X102718360Y56295703D01*
X102725725Y56300624D01*
X102727721Y56300755D01*
X102728832Y56299092D01*
G37*
G36*
X90628832Y56299092D02*
G01*
X90628371Y56297678D01*
X90588413Y56249865D01*
X90579641Y56180031D01*
X90610093Y56116384D01*
X90619989Y56107808D01*
X90620643Y56105918D01*
X90619333Y56104407D01*
X90618289Y56104335D01*
X90599806Y56108012D01*
X89100204Y56108012D01*
X89081650Y56104321D01*
X89074285Y56099400D01*
X89072289Y56099269D01*
X89071178Y56100932D01*
X89071639Y56102346D01*
X89111597Y56150159D01*
X89120369Y56219993D01*
X89089917Y56283640D01*
X89080021Y56292216D01*
X89079367Y56294106D01*
X89080677Y56295617D01*
X89081721Y56295689D01*
X89100204Y56292012D01*
X90599806Y56292012D01*
X90618360Y56295703D01*
X90625725Y56300624D01*
X90627721Y56300755D01*
X90628832Y56299092D01*
G37*
G36*
X102728832Y57099092D02*
G01*
X102728371Y57097678D01*
X102688413Y57049865D01*
X102679641Y56980031D01*
X102710093Y56916384D01*
X102719989Y56907808D01*
X102720643Y56905918D01*
X102719333Y56904407D01*
X102718289Y56904335D01*
X102699806Y56908012D01*
X101200204Y56908012D01*
X101181650Y56904321D01*
X101174285Y56899400D01*
X101172289Y56899269D01*
X101171178Y56900932D01*
X101171639Y56902346D01*
X101211597Y56950159D01*
X101220369Y57019993D01*
X101189917Y57083640D01*
X101180021Y57092216D01*
X101179367Y57094106D01*
X101180677Y57095617D01*
X101181721Y57095689D01*
X101200204Y57092012D01*
X102699806Y57092012D01*
X102718360Y57095703D01*
X102725725Y57100624D01*
X102727721Y57100755D01*
X102728832Y57099092D01*
G37*
G36*
X90628832Y57099092D02*
G01*
X90628371Y57097678D01*
X90588413Y57049865D01*
X90579641Y56980031D01*
X90610093Y56916384D01*
X90619989Y56907808D01*
X90620643Y56905918D01*
X90619333Y56904407D01*
X90618289Y56904335D01*
X90599806Y56908012D01*
X89100204Y56908012D01*
X89081650Y56904321D01*
X89074285Y56899400D01*
X89072289Y56899269D01*
X89071178Y56900932D01*
X89071639Y56902346D01*
X89111597Y56950159D01*
X89120369Y57019993D01*
X89089917Y57083640D01*
X89080021Y57092216D01*
X89079367Y57094106D01*
X89080677Y57095617D01*
X89081721Y57095689D01*
X89100204Y57092012D01*
X90599806Y57092012D01*
X90618360Y57095703D01*
X90625725Y57100624D01*
X90627721Y57100755D01*
X90628832Y57099092D01*
G37*
G36*
X29602334Y58728366D02*
G01*
X29650147Y58688408D01*
X29719981Y58679636D01*
X29783628Y58710088D01*
X29792204Y58719984D01*
X29794094Y58720638D01*
X29795605Y58719328D01*
X29795677Y58718284D01*
X29792000Y58699801D01*
X29792000Y57200199D01*
X29795691Y57181645D01*
X29800612Y57174280D01*
X29800743Y57172284D01*
X29799080Y57171173D01*
X29797666Y57171634D01*
X29749853Y57211592D01*
X29680019Y57220364D01*
X29616372Y57189912D01*
X29607796Y57180016D01*
X29605906Y57179362D01*
X29604395Y57180672D01*
X29604323Y57181716D01*
X29608000Y57200199D01*
X29608000Y58699801D01*
X29604309Y58718355D01*
X29599388Y58725720D01*
X29599257Y58727716D01*
X29600920Y58728827D01*
X29602334Y58728366D01*
G37*
G36*
X25602334Y58728366D02*
G01*
X25650147Y58688408D01*
X25719981Y58679636D01*
X25783628Y58710088D01*
X25792204Y58719984D01*
X25794094Y58720638D01*
X25795605Y58719328D01*
X25795677Y58718284D01*
X25792000Y58699801D01*
X25792000Y57200199D01*
X25795691Y57181645D01*
X25800612Y57174280D01*
X25800743Y57172284D01*
X25799080Y57171173D01*
X25797666Y57171634D01*
X25749853Y57211592D01*
X25680019Y57220364D01*
X25616372Y57189912D01*
X25607796Y57180016D01*
X25605906Y57179362D01*
X25604395Y57180672D01*
X25604323Y57181716D01*
X25608000Y57200199D01*
X25608000Y58699801D01*
X25604309Y58718355D01*
X25599388Y58725720D01*
X25599257Y58727716D01*
X25600920Y58728827D01*
X25602334Y58728366D01*
G37*
G36*
X30402334Y58728366D02*
G01*
X30450147Y58688408D01*
X30519981Y58679636D01*
X30583628Y58710088D01*
X30592204Y58719984D01*
X30594094Y58720638D01*
X30595605Y58719328D01*
X30595677Y58718284D01*
X30592000Y58699801D01*
X30592000Y57200199D01*
X30595691Y57181645D01*
X30600612Y57174280D01*
X30600743Y57172284D01*
X30599080Y57171173D01*
X30597666Y57171634D01*
X30549853Y57211592D01*
X30480019Y57220364D01*
X30416372Y57189912D01*
X30407796Y57180016D01*
X30405906Y57179362D01*
X30404395Y57180672D01*
X30404323Y57181716D01*
X30408000Y57200199D01*
X30408000Y58699801D01*
X30404309Y58718355D01*
X30399388Y58725720D01*
X30399257Y58727716D01*
X30400920Y58728827D01*
X30402334Y58728366D01*
G37*
G36*
X28802334Y58728366D02*
G01*
X28850147Y58688408D01*
X28919981Y58679636D01*
X28983628Y58710088D01*
X28992204Y58719984D01*
X28994094Y58720638D01*
X28995605Y58719328D01*
X28995677Y58718284D01*
X28992000Y58699801D01*
X28992000Y57200199D01*
X28995691Y57181645D01*
X29000612Y57174280D01*
X29000743Y57172284D01*
X28999080Y57171173D01*
X28997666Y57171634D01*
X28949853Y57211592D01*
X28880019Y57220364D01*
X28816372Y57189912D01*
X28807796Y57180016D01*
X28805906Y57179362D01*
X28804395Y57180672D01*
X28804323Y57181716D01*
X28808000Y57200199D01*
X28808000Y58699801D01*
X28804309Y58718355D01*
X28799388Y58725720D01*
X28799257Y58727716D01*
X28800920Y58728827D01*
X28802334Y58728366D01*
G37*
G36*
X32002334Y58728366D02*
G01*
X32050147Y58688408D01*
X32119981Y58679636D01*
X32183628Y58710088D01*
X32192204Y58719984D01*
X32194094Y58720638D01*
X32195605Y58719328D01*
X32195677Y58718284D01*
X32192000Y58699801D01*
X32192000Y57200199D01*
X32195691Y57181645D01*
X32200612Y57174280D01*
X32200743Y57172284D01*
X32199080Y57171173D01*
X32197666Y57171634D01*
X32149853Y57211592D01*
X32080019Y57220364D01*
X32016372Y57189912D01*
X32007796Y57180016D01*
X32005906Y57179362D01*
X32004395Y57180672D01*
X32004323Y57181716D01*
X32008000Y57200199D01*
X32008000Y58699801D01*
X32004309Y58718355D01*
X31999388Y58725720D01*
X31999257Y58727716D01*
X32000920Y58728827D01*
X32002334Y58728366D01*
G37*
G36*
X28002334Y58728366D02*
G01*
X28050147Y58688408D01*
X28119981Y58679636D01*
X28183628Y58710088D01*
X28192204Y58719984D01*
X28194094Y58720638D01*
X28195605Y58719328D01*
X28195677Y58718284D01*
X28192000Y58699801D01*
X28192000Y57200199D01*
X28195691Y57181645D01*
X28200612Y57174280D01*
X28200743Y57172284D01*
X28199080Y57171173D01*
X28197666Y57171634D01*
X28149853Y57211592D01*
X28080019Y57220364D01*
X28016372Y57189912D01*
X28007796Y57180016D01*
X28005906Y57179362D01*
X28004395Y57180672D01*
X28004323Y57181716D01*
X28008000Y57200199D01*
X28008000Y58699801D01*
X28004309Y58718355D01*
X27999388Y58725720D01*
X27999257Y58727716D01*
X28000920Y58728827D01*
X28002334Y58728366D01*
G37*
G36*
X31202334Y58728366D02*
G01*
X31250147Y58688408D01*
X31319981Y58679636D01*
X31383628Y58710088D01*
X31392204Y58719984D01*
X31394094Y58720638D01*
X31395605Y58719328D01*
X31395677Y58718284D01*
X31392000Y58699801D01*
X31392000Y57200199D01*
X31395691Y57181645D01*
X31400612Y57174280D01*
X31400743Y57172284D01*
X31399080Y57171173D01*
X31397666Y57171634D01*
X31349853Y57211592D01*
X31280019Y57220364D01*
X31216372Y57189912D01*
X31207796Y57180016D01*
X31205906Y57179362D01*
X31204395Y57180672D01*
X31204323Y57181716D01*
X31208000Y57200199D01*
X31208000Y58699801D01*
X31204309Y58718355D01*
X31199388Y58725720D01*
X31199257Y58727716D01*
X31200920Y58728827D01*
X31202334Y58728366D01*
G37*
G36*
X26402334Y58728366D02*
G01*
X26450147Y58688408D01*
X26519981Y58679636D01*
X26583628Y58710088D01*
X26592204Y58719984D01*
X26594094Y58720638D01*
X26595605Y58719328D01*
X26595677Y58718284D01*
X26592000Y58699801D01*
X26592000Y57200199D01*
X26595691Y57181645D01*
X26600612Y57174280D01*
X26600743Y57172284D01*
X26599080Y57171173D01*
X26597666Y57171634D01*
X26549853Y57211592D01*
X26480019Y57220364D01*
X26416372Y57189912D01*
X26407796Y57180016D01*
X26405906Y57179362D01*
X26404395Y57180672D01*
X26404323Y57181716D01*
X26408000Y57200199D01*
X26408000Y58699801D01*
X26404309Y58718355D01*
X26399388Y58725720D01*
X26399257Y58727716D01*
X26400920Y58728827D01*
X26402334Y58728366D01*
G37*
G36*
X24802334Y58728366D02*
G01*
X24850147Y58688408D01*
X24919981Y58679636D01*
X24983628Y58710088D01*
X24992204Y58719984D01*
X24994094Y58720638D01*
X24995605Y58719328D01*
X24995677Y58718284D01*
X24992000Y58699801D01*
X24992000Y57200199D01*
X24995691Y57181645D01*
X25000612Y57174280D01*
X25000743Y57172284D01*
X24999080Y57171173D01*
X24997666Y57171634D01*
X24949853Y57211592D01*
X24880019Y57220364D01*
X24816372Y57189912D01*
X24807796Y57180016D01*
X24805906Y57179362D01*
X24804395Y57180672D01*
X24804323Y57181716D01*
X24808000Y57200199D01*
X24808000Y58699801D01*
X24804309Y58718355D01*
X24799388Y58725720D01*
X24799257Y58727716D01*
X24800920Y58728827D01*
X24802334Y58728366D01*
G37*
G36*
X27202334Y58728366D02*
G01*
X27250147Y58688408D01*
X27319981Y58679636D01*
X27383628Y58710088D01*
X27392204Y58719984D01*
X27394094Y58720638D01*
X27395605Y58719328D01*
X27395677Y58718284D01*
X27392000Y58699801D01*
X27392000Y57200199D01*
X27395691Y57181645D01*
X27400612Y57174280D01*
X27400743Y57172284D01*
X27399080Y57171173D01*
X27397666Y57171634D01*
X27349853Y57211592D01*
X27280019Y57220364D01*
X27216372Y57189912D01*
X27207796Y57180016D01*
X27205906Y57179362D01*
X27204395Y57180672D01*
X27204323Y57181716D01*
X27208000Y57200199D01*
X27208000Y58699801D01*
X27204309Y58718355D01*
X27199388Y58725720D01*
X27199257Y58727716D01*
X27200920Y58728827D01*
X27202334Y58728366D01*
G37*
G36*
X90628832Y57899092D02*
G01*
X90628371Y57897678D01*
X90588413Y57849865D01*
X90579641Y57780031D01*
X90610093Y57716384D01*
X90619989Y57707808D01*
X90620643Y57705918D01*
X90619333Y57704407D01*
X90618289Y57704335D01*
X90599806Y57708012D01*
X89100204Y57708012D01*
X89081650Y57704321D01*
X89074285Y57699400D01*
X89072289Y57699269D01*
X89071178Y57700932D01*
X89071639Y57702346D01*
X89111597Y57750159D01*
X89120369Y57819993D01*
X89089917Y57883640D01*
X89080021Y57892216D01*
X89079367Y57894106D01*
X89080677Y57895617D01*
X89081721Y57895689D01*
X89100204Y57892012D01*
X90599806Y57892012D01*
X90618360Y57895703D01*
X90625725Y57900624D01*
X90627721Y57900755D01*
X90628832Y57899092D01*
G37*
G36*
X102728832Y57899092D02*
G01*
X102728371Y57897678D01*
X102688413Y57849865D01*
X102679641Y57780031D01*
X102710093Y57716384D01*
X102719989Y57707808D01*
X102720643Y57705918D01*
X102719333Y57704407D01*
X102718289Y57704335D01*
X102699806Y57708012D01*
X101200204Y57708012D01*
X101181650Y57704321D01*
X101174285Y57699400D01*
X101172289Y57699269D01*
X101171178Y57700932D01*
X101171639Y57702346D01*
X101211597Y57750159D01*
X101220369Y57819993D01*
X101189917Y57883640D01*
X101180021Y57892216D01*
X101179367Y57894106D01*
X101180677Y57895617D01*
X101181721Y57895689D01*
X101200204Y57892012D01*
X102699806Y57892012D01*
X102718360Y57895703D01*
X102725725Y57900624D01*
X102727721Y57900755D01*
X102728832Y57899092D01*
G37*
G36*
X102728832Y58699092D02*
G01*
X102728371Y58697678D01*
X102688413Y58649865D01*
X102679641Y58580031D01*
X102710093Y58516384D01*
X102719989Y58507808D01*
X102720643Y58505918D01*
X102719333Y58504407D01*
X102718289Y58504335D01*
X102699806Y58508012D01*
X101200204Y58508012D01*
X101181650Y58504321D01*
X101174285Y58499400D01*
X101172289Y58499269D01*
X101171178Y58500932D01*
X101171639Y58502346D01*
X101211597Y58550159D01*
X101220369Y58619993D01*
X101189917Y58683640D01*
X101180021Y58692216D01*
X101179367Y58694106D01*
X101180677Y58695617D01*
X101181721Y58695689D01*
X101200204Y58692012D01*
X102699806Y58692012D01*
X102718360Y58695703D01*
X102725725Y58700624D01*
X102727721Y58700755D01*
X102728832Y58699092D01*
G37*
G36*
X90628832Y58699092D02*
G01*
X90628371Y58697678D01*
X90588413Y58649865D01*
X90579641Y58580031D01*
X90610093Y58516384D01*
X90619989Y58507808D01*
X90620643Y58505918D01*
X90619333Y58504407D01*
X90618289Y58504335D01*
X90599806Y58508012D01*
X89100204Y58508012D01*
X89081650Y58504321D01*
X89074285Y58499400D01*
X89072289Y58499269D01*
X89071178Y58500932D01*
X89071639Y58502346D01*
X89111597Y58550159D01*
X89120369Y58619993D01*
X89089917Y58683640D01*
X89080021Y58692216D01*
X89079367Y58694106D01*
X89080677Y58695617D01*
X89081721Y58695689D01*
X89100204Y58692012D01*
X90599806Y58692012D01*
X90618360Y58695703D01*
X90625725Y58700624D01*
X90627721Y58700755D01*
X90628832Y58699092D01*
G37*
G36*
X102728832Y59499092D02*
G01*
X102728371Y59497678D01*
X102688413Y59449865D01*
X102679641Y59380031D01*
X102710093Y59316384D01*
X102719989Y59307808D01*
X102720643Y59305918D01*
X102719333Y59304407D01*
X102718289Y59304335D01*
X102699806Y59308012D01*
X101200204Y59308012D01*
X101181650Y59304321D01*
X101174285Y59299400D01*
X101172289Y59299269D01*
X101171178Y59300932D01*
X101171639Y59302346D01*
X101211597Y59350159D01*
X101220369Y59419993D01*
X101189917Y59483640D01*
X101180021Y59492216D01*
X101179367Y59494106D01*
X101180677Y59495617D01*
X101181721Y59495689D01*
X101200204Y59492012D01*
X102699806Y59492012D01*
X102718360Y59495703D01*
X102725725Y59500624D01*
X102727721Y59500755D01*
X102728832Y59499092D01*
G37*
G36*
X90628832Y59499092D02*
G01*
X90628371Y59497678D01*
X90588413Y59449865D01*
X90579641Y59380031D01*
X90610093Y59316384D01*
X90619989Y59307808D01*
X90620643Y59305918D01*
X90619333Y59304407D01*
X90618289Y59304335D01*
X90599806Y59308012D01*
X89100204Y59308012D01*
X89081650Y59304321D01*
X89074285Y59299400D01*
X89072289Y59299269D01*
X89071178Y59300932D01*
X89071639Y59302346D01*
X89111597Y59350159D01*
X89120369Y59419993D01*
X89089917Y59483640D01*
X89080021Y59492216D01*
X89079367Y59494106D01*
X89080677Y59495617D01*
X89081721Y59495689D01*
X89100204Y59492012D01*
X90599806Y59492012D01*
X90618360Y59495703D01*
X90625725Y59500624D01*
X90627721Y59500755D01*
X90628832Y59499092D01*
G37*
G36*
X90628832Y60299092D02*
G01*
X90628371Y60297678D01*
X90588413Y60249865D01*
X90579641Y60180031D01*
X90610093Y60116384D01*
X90619989Y60107808D01*
X90620643Y60105918D01*
X90619333Y60104407D01*
X90618289Y60104335D01*
X90599806Y60108012D01*
X89100204Y60108012D01*
X89081650Y60104321D01*
X89074285Y60099400D01*
X89072289Y60099269D01*
X89071178Y60100932D01*
X89071639Y60102346D01*
X89111597Y60150159D01*
X89120369Y60219993D01*
X89089917Y60283640D01*
X89080021Y60292216D01*
X89079367Y60294106D01*
X89080677Y60295617D01*
X89081721Y60295689D01*
X89100204Y60292012D01*
X90599806Y60292012D01*
X90618360Y60295703D01*
X90625725Y60300624D01*
X90627721Y60300755D01*
X90628832Y60299092D01*
G37*
G36*
X102728832Y60299092D02*
G01*
X102728371Y60297678D01*
X102688413Y60249865D01*
X102679641Y60180031D01*
X102710093Y60116384D01*
X102719989Y60107808D01*
X102720643Y60105918D01*
X102719333Y60104407D01*
X102718289Y60104335D01*
X102699806Y60108012D01*
X101200204Y60108012D01*
X101181650Y60104321D01*
X101174285Y60099400D01*
X101172289Y60099269D01*
X101171178Y60100932D01*
X101171639Y60102346D01*
X101211597Y60150159D01*
X101220369Y60219993D01*
X101189917Y60283640D01*
X101180021Y60292216D01*
X101179367Y60294106D01*
X101180677Y60295617D01*
X101181721Y60295689D01*
X101200204Y60292012D01*
X102699806Y60292012D01*
X102718360Y60295703D01*
X102725725Y60300624D01*
X102727721Y60300755D01*
X102728832Y60299092D01*
G37*
G36*
X35328827Y60499080D02*
G01*
X35328366Y60497666D01*
X35288408Y60449853D01*
X35279636Y60380019D01*
X35310088Y60316372D01*
X35319984Y60307796D01*
X35320638Y60305906D01*
X35319328Y60304395D01*
X35318284Y60304323D01*
X35299801Y60308000D01*
X33800199Y60308000D01*
X33781645Y60304309D01*
X33774280Y60299388D01*
X33772284Y60299257D01*
X33771173Y60300920D01*
X33771634Y60302334D01*
X33811592Y60350147D01*
X33820364Y60419981D01*
X33789912Y60483628D01*
X33780016Y60492204D01*
X33779362Y60494094D01*
X33780672Y60495605D01*
X33781716Y60495677D01*
X33800199Y60492000D01*
X35299801Y60492000D01*
X35318355Y60495691D01*
X35325720Y60500612D01*
X35327716Y60500743D01*
X35328827Y60499080D01*
G37*
G36*
X23228827Y60499080D02*
G01*
X23228366Y60497666D01*
X23188408Y60449853D01*
X23179636Y60380019D01*
X23210088Y60316372D01*
X23219984Y60307796D01*
X23220638Y60305906D01*
X23219328Y60304395D01*
X23218284Y60304323D01*
X23199801Y60308000D01*
X21700199Y60308000D01*
X21681645Y60304309D01*
X21674280Y60299388D01*
X21672284Y60299257D01*
X21671173Y60300920D01*
X21671634Y60302334D01*
X21711592Y60350147D01*
X21720364Y60419981D01*
X21689912Y60483628D01*
X21680016Y60492204D01*
X21679362Y60494094D01*
X21680672Y60495605D01*
X21681716Y60495677D01*
X21700199Y60492000D01*
X23199801Y60492000D01*
X23218355Y60495691D01*
X23225720Y60500612D01*
X23227716Y60500743D01*
X23228827Y60499080D01*
G37*
G36*
X102728832Y61099092D02*
G01*
X102728371Y61097678D01*
X102688413Y61049865D01*
X102679641Y60980031D01*
X102710093Y60916384D01*
X102719989Y60907808D01*
X102720643Y60905918D01*
X102719333Y60904407D01*
X102718289Y60904335D01*
X102699806Y60908012D01*
X101200204Y60908012D01*
X101181650Y60904321D01*
X101174285Y60899400D01*
X101172289Y60899269D01*
X101171178Y60900932D01*
X101171639Y60902346D01*
X101211597Y60950159D01*
X101220369Y61019993D01*
X101189917Y61083640D01*
X101180021Y61092216D01*
X101179367Y61094106D01*
X101180677Y61095617D01*
X101181721Y61095689D01*
X101200204Y61092012D01*
X102699806Y61092012D01*
X102718360Y61095703D01*
X102725725Y61100624D01*
X102727721Y61100755D01*
X102728832Y61099092D01*
G37*
G36*
X90628832Y61099092D02*
G01*
X90628371Y61097678D01*
X90588413Y61049865D01*
X90579641Y60980031D01*
X90610093Y60916384D01*
X90619989Y60907808D01*
X90620643Y60905918D01*
X90619333Y60904407D01*
X90618289Y60904335D01*
X90599806Y60908012D01*
X89100204Y60908012D01*
X89081650Y60904321D01*
X89074285Y60899400D01*
X89072289Y60899269D01*
X89071178Y60900932D01*
X89071639Y60902346D01*
X89111597Y60950159D01*
X89120369Y61019993D01*
X89089917Y61083640D01*
X89080021Y61092216D01*
X89079367Y61094106D01*
X89080677Y61095617D01*
X89081721Y61095689D01*
X89100204Y61092012D01*
X90599806Y61092012D01*
X90618360Y61095703D01*
X90625725Y61100624D01*
X90627721Y61100755D01*
X90628832Y61099092D01*
G37*
G36*
X35328827Y61299080D02*
G01*
X35328366Y61297666D01*
X35288408Y61249853D01*
X35279636Y61180019D01*
X35310088Y61116372D01*
X35319984Y61107796D01*
X35320638Y61105906D01*
X35319328Y61104395D01*
X35318284Y61104323D01*
X35299801Y61108000D01*
X33800199Y61108000D01*
X33781645Y61104309D01*
X33774280Y61099388D01*
X33772284Y61099257D01*
X33771173Y61100920D01*
X33771634Y61102334D01*
X33811592Y61150147D01*
X33820364Y61219981D01*
X33789912Y61283628D01*
X33780016Y61292204D01*
X33779362Y61294094D01*
X33780672Y61295605D01*
X33781716Y61295677D01*
X33800199Y61292000D01*
X35299801Y61292000D01*
X35318355Y61295691D01*
X35325720Y61300612D01*
X35327716Y61300743D01*
X35328827Y61299080D01*
G37*
G36*
X23228827Y61299080D02*
G01*
X23228366Y61297666D01*
X23188408Y61249853D01*
X23179636Y61180019D01*
X23210088Y61116372D01*
X23219984Y61107796D01*
X23220638Y61105906D01*
X23219328Y61104395D01*
X23218284Y61104323D01*
X23199801Y61108000D01*
X21700199Y61108000D01*
X21681645Y61104309D01*
X21674280Y61099388D01*
X21672284Y61099257D01*
X21671173Y61100920D01*
X21671634Y61102334D01*
X21711592Y61150147D01*
X21720364Y61219981D01*
X21689912Y61283628D01*
X21680016Y61292204D01*
X21679362Y61294094D01*
X21680672Y61295605D01*
X21681716Y61295677D01*
X21700199Y61292000D01*
X23199801Y61292000D01*
X23218355Y61295691D01*
X23225720Y61300612D01*
X23227716Y61300743D01*
X23228827Y61299080D01*
G37*
G36*
X23228827Y62099080D02*
G01*
X23228366Y62097666D01*
X23188408Y62049853D01*
X23179636Y61980019D01*
X23210088Y61916372D01*
X23219984Y61907796D01*
X23220638Y61905906D01*
X23219328Y61904395D01*
X23218284Y61904323D01*
X23199801Y61908000D01*
X21700199Y61908000D01*
X21681645Y61904309D01*
X21674280Y61899388D01*
X21672284Y61899257D01*
X21671173Y61900920D01*
X21671634Y61902334D01*
X21711592Y61950147D01*
X21720364Y62019981D01*
X21689912Y62083628D01*
X21680016Y62092204D01*
X21679362Y62094094D01*
X21680672Y62095605D01*
X21681716Y62095677D01*
X21700199Y62092000D01*
X23199801Y62092000D01*
X23218355Y62095691D01*
X23225720Y62100612D01*
X23227716Y62100743D01*
X23228827Y62099080D01*
G37*
G36*
X35328827Y62099080D02*
G01*
X35328366Y62097666D01*
X35288408Y62049853D01*
X35279636Y61980019D01*
X35310088Y61916372D01*
X35319984Y61907796D01*
X35320638Y61905906D01*
X35319328Y61904395D01*
X35318284Y61904323D01*
X35299801Y61908000D01*
X33800199Y61908000D01*
X33781645Y61904309D01*
X33774280Y61899388D01*
X33772284Y61899257D01*
X33771173Y61900920D01*
X33771634Y61902334D01*
X33811592Y61950147D01*
X33820364Y62019981D01*
X33789912Y62083628D01*
X33780016Y62092204D01*
X33779362Y62094094D01*
X33780672Y62095605D01*
X33781716Y62095677D01*
X33800199Y62092000D01*
X35299801Y62092000D01*
X35318355Y62095691D01*
X35325720Y62100612D01*
X35327716Y62100743D01*
X35328827Y62099080D01*
G37*
G36*
X92202339Y64228378D02*
G01*
X92250152Y64188420D01*
X92319986Y64179648D01*
X92383633Y64210100D01*
X92392209Y64219996D01*
X92394099Y64220650D01*
X92395610Y64219340D01*
X92395682Y64218296D01*
X92392005Y64199813D01*
X92392005Y62700211D01*
X92395696Y62681657D01*
X92400617Y62674292D01*
X92400748Y62672296D01*
X92399085Y62671185D01*
X92397671Y62671646D01*
X92349858Y62711604D01*
X92280024Y62720376D01*
X92216377Y62689924D01*
X92207801Y62680028D01*
X92205911Y62679374D01*
X92204400Y62680684D01*
X92204328Y62681728D01*
X92208005Y62700211D01*
X92208005Y64199813D01*
X92204314Y64218367D01*
X92199393Y64225732D01*
X92199262Y64227728D01*
X92200925Y64228839D01*
X92202339Y64228378D01*
G37*
G36*
X99402339Y64228378D02*
G01*
X99450152Y64188420D01*
X99519986Y64179648D01*
X99583633Y64210100D01*
X99592209Y64219996D01*
X99594099Y64220650D01*
X99595610Y64219340D01*
X99595682Y64218296D01*
X99592005Y64199813D01*
X99592005Y62700211D01*
X99595696Y62681657D01*
X99600617Y62674292D01*
X99600748Y62672296D01*
X99599085Y62671185D01*
X99597671Y62671646D01*
X99549858Y62711604D01*
X99480024Y62720376D01*
X99416377Y62689924D01*
X99407801Y62680028D01*
X99405911Y62679374D01*
X99404400Y62680684D01*
X99404328Y62681728D01*
X99408005Y62700211D01*
X99408005Y64199813D01*
X99404314Y64218367D01*
X99399393Y64225732D01*
X99399262Y64227728D01*
X99400925Y64228839D01*
X99402339Y64228378D01*
G37*
G36*
X97802339Y64228378D02*
G01*
X97850152Y64188420D01*
X97919986Y64179648D01*
X97983633Y64210100D01*
X97992209Y64219996D01*
X97994099Y64220650D01*
X97995610Y64219340D01*
X97995682Y64218296D01*
X97992005Y64199813D01*
X97992005Y62700211D01*
X97995696Y62681657D01*
X98000617Y62674292D01*
X98000748Y62672296D01*
X97999085Y62671185D01*
X97997671Y62671646D01*
X97949858Y62711604D01*
X97880024Y62720376D01*
X97816377Y62689924D01*
X97807801Y62680028D01*
X97805911Y62679374D01*
X97804400Y62680684D01*
X97804328Y62681728D01*
X97808005Y62700211D01*
X97808005Y64199813D01*
X97804314Y64218367D01*
X97799393Y64225732D01*
X97799262Y64227728D01*
X97800925Y64228839D01*
X97802339Y64228378D01*
G37*
G36*
X93002339Y64228378D02*
G01*
X93050152Y64188420D01*
X93119986Y64179648D01*
X93183633Y64210100D01*
X93192209Y64219996D01*
X93194099Y64220650D01*
X93195610Y64219340D01*
X93195682Y64218296D01*
X93192005Y64199813D01*
X93192005Y62700211D01*
X93195696Y62681657D01*
X93200617Y62674292D01*
X93200748Y62672296D01*
X93199085Y62671185D01*
X93197671Y62671646D01*
X93149858Y62711604D01*
X93080024Y62720376D01*
X93016377Y62689924D01*
X93007801Y62680028D01*
X93005911Y62679374D01*
X93004400Y62680684D01*
X93004328Y62681728D01*
X93008005Y62700211D01*
X93008005Y64199813D01*
X93004314Y64218367D01*
X92999393Y64225732D01*
X92999262Y64227728D01*
X93000925Y64228839D01*
X93002339Y64228378D01*
G37*
G36*
X94602339Y64228378D02*
G01*
X94650152Y64188420D01*
X94719986Y64179648D01*
X94783633Y64210100D01*
X94792209Y64219996D01*
X94794099Y64220650D01*
X94795610Y64219340D01*
X94795682Y64218296D01*
X94792005Y64199813D01*
X94792005Y62700211D01*
X94795696Y62681657D01*
X94800617Y62674292D01*
X94800748Y62672296D01*
X94799085Y62671185D01*
X94797671Y62671646D01*
X94749858Y62711604D01*
X94680024Y62720376D01*
X94616377Y62689924D01*
X94607801Y62680028D01*
X94605911Y62679374D01*
X94604400Y62680684D01*
X94604328Y62681728D01*
X94608005Y62700211D01*
X94608005Y64199813D01*
X94604314Y64218367D01*
X94599393Y64225732D01*
X94599262Y64227728D01*
X94600925Y64228839D01*
X94602339Y64228378D01*
G37*
G36*
X95402339Y64228378D02*
G01*
X95450152Y64188420D01*
X95519986Y64179648D01*
X95583633Y64210100D01*
X95592209Y64219996D01*
X95594099Y64220650D01*
X95595610Y64219340D01*
X95595682Y64218296D01*
X95592005Y64199813D01*
X95592005Y62700211D01*
X95595696Y62681657D01*
X95600617Y62674292D01*
X95600748Y62672296D01*
X95599085Y62671185D01*
X95597671Y62671646D01*
X95549858Y62711604D01*
X95480024Y62720376D01*
X95416377Y62689924D01*
X95407801Y62680028D01*
X95405911Y62679374D01*
X95404400Y62680684D01*
X95404328Y62681728D01*
X95408005Y62700211D01*
X95408005Y64199813D01*
X95404314Y64218367D01*
X95399393Y64225732D01*
X95399262Y64227728D01*
X95400925Y64228839D01*
X95402339Y64228378D01*
G37*
G36*
X98602339Y64228378D02*
G01*
X98650152Y64188420D01*
X98719986Y64179648D01*
X98783633Y64210100D01*
X98792209Y64219996D01*
X98794099Y64220650D01*
X98795610Y64219340D01*
X98795682Y64218296D01*
X98792005Y64199813D01*
X98792005Y62700211D01*
X98795696Y62681657D01*
X98800617Y62674292D01*
X98800748Y62672296D01*
X98799085Y62671185D01*
X98797671Y62671646D01*
X98749858Y62711604D01*
X98680024Y62720376D01*
X98616377Y62689924D01*
X98607801Y62680028D01*
X98605911Y62679374D01*
X98604400Y62680684D01*
X98604328Y62681728D01*
X98608005Y62700211D01*
X98608005Y64199813D01*
X98604314Y64218367D01*
X98599393Y64225732D01*
X98599262Y64227728D01*
X98600925Y64228839D01*
X98602339Y64228378D01*
G37*
G36*
X97002339Y64228378D02*
G01*
X97050152Y64188420D01*
X97119986Y64179648D01*
X97183633Y64210100D01*
X97192209Y64219996D01*
X97194099Y64220650D01*
X97195610Y64219340D01*
X97195682Y64218296D01*
X97192005Y64199813D01*
X97192005Y62700211D01*
X97195696Y62681657D01*
X97200617Y62674292D01*
X97200748Y62672296D01*
X97199085Y62671185D01*
X97197671Y62671646D01*
X97149858Y62711604D01*
X97080024Y62720376D01*
X97016377Y62689924D01*
X97007801Y62680028D01*
X97005911Y62679374D01*
X97004400Y62680684D01*
X97004328Y62681728D01*
X97008005Y62700211D01*
X97008005Y64199813D01*
X97004314Y64218367D01*
X96999393Y64225732D01*
X96999262Y64227728D01*
X97000925Y64228839D01*
X97002339Y64228378D01*
G37*
G36*
X93802339Y64228378D02*
G01*
X93850152Y64188420D01*
X93919986Y64179648D01*
X93983633Y64210100D01*
X93992209Y64219996D01*
X93994099Y64220650D01*
X93995610Y64219340D01*
X93995682Y64218296D01*
X93992005Y64199813D01*
X93992005Y62700211D01*
X93995696Y62681657D01*
X94000617Y62674292D01*
X94000748Y62672296D01*
X93999085Y62671185D01*
X93997671Y62671646D01*
X93949858Y62711604D01*
X93880024Y62720376D01*
X93816377Y62689924D01*
X93807801Y62680028D01*
X93805911Y62679374D01*
X93804400Y62680684D01*
X93804328Y62681728D01*
X93808005Y62700211D01*
X93808005Y64199813D01*
X93804314Y64218367D01*
X93799393Y64225732D01*
X93799262Y64227728D01*
X93800925Y64228839D01*
X93802339Y64228378D01*
G37*
G36*
X96202339Y64228378D02*
G01*
X96250152Y64188420D01*
X96319986Y64179648D01*
X96383633Y64210100D01*
X96392209Y64219996D01*
X96394099Y64220650D01*
X96395610Y64219340D01*
X96395682Y64218296D01*
X96392005Y64199813D01*
X96392005Y62700211D01*
X96395696Y62681657D01*
X96400617Y62674292D01*
X96400748Y62672296D01*
X96399085Y62671185D01*
X96397671Y62671646D01*
X96349858Y62711604D01*
X96280024Y62720376D01*
X96216377Y62689924D01*
X96207801Y62680028D01*
X96205911Y62679374D01*
X96204400Y62680684D01*
X96204328Y62681728D01*
X96208005Y62700211D01*
X96208005Y64199813D01*
X96204314Y64218367D01*
X96199393Y64225732D01*
X96199262Y64227728D01*
X96200925Y64228839D01*
X96202339Y64228378D01*
G37*
G36*
X35328827Y62899080D02*
G01*
X35328366Y62897666D01*
X35288408Y62849853D01*
X35279636Y62780019D01*
X35310088Y62716372D01*
X35319984Y62707796D01*
X35320638Y62705906D01*
X35319328Y62704395D01*
X35318284Y62704323D01*
X35299801Y62708000D01*
X33800199Y62708000D01*
X33781645Y62704309D01*
X33774280Y62699388D01*
X33772284Y62699257D01*
X33771173Y62700920D01*
X33771634Y62702334D01*
X33811592Y62750147D01*
X33820364Y62819981D01*
X33789912Y62883628D01*
X33780016Y62892204D01*
X33779362Y62894094D01*
X33780672Y62895605D01*
X33781716Y62895677D01*
X33800199Y62892000D01*
X35299801Y62892000D01*
X35318355Y62895691D01*
X35325720Y62900612D01*
X35327716Y62900743D01*
X35328827Y62899080D01*
G37*
G36*
X23228827Y62899080D02*
G01*
X23228366Y62897666D01*
X23188408Y62849853D01*
X23179636Y62780019D01*
X23210088Y62716372D01*
X23219984Y62707796D01*
X23220638Y62705906D01*
X23219328Y62704395D01*
X23218284Y62704323D01*
X23199801Y62708000D01*
X21700199Y62708000D01*
X21681645Y62704309D01*
X21674280Y62699388D01*
X21672284Y62699257D01*
X21671173Y62700920D01*
X21671634Y62702334D01*
X21711592Y62750147D01*
X21720364Y62819981D01*
X21689912Y62883628D01*
X21680016Y62892204D01*
X21679362Y62894094D01*
X21680672Y62895605D01*
X21681716Y62895677D01*
X21700199Y62892000D01*
X23199801Y62892000D01*
X23218355Y62895691D01*
X23225720Y62900612D01*
X23227716Y62900743D01*
X23228827Y62899080D01*
G37*
G36*
X23228827Y63699080D02*
G01*
X23228366Y63697666D01*
X23188408Y63649853D01*
X23179636Y63580019D01*
X23210088Y63516372D01*
X23219984Y63507796D01*
X23220638Y63505906D01*
X23219328Y63504395D01*
X23218284Y63504323D01*
X23199801Y63508000D01*
X21700199Y63508000D01*
X21681645Y63504309D01*
X21674280Y63499388D01*
X21672284Y63499257D01*
X21671173Y63500920D01*
X21671634Y63502334D01*
X21711592Y63550147D01*
X21720364Y63619981D01*
X21689912Y63683628D01*
X21680016Y63692204D01*
X21679362Y63694094D01*
X21680672Y63695605D01*
X21681716Y63695677D01*
X21700199Y63692000D01*
X23199801Y63692000D01*
X23218355Y63695691D01*
X23225720Y63700612D01*
X23227716Y63700743D01*
X23228827Y63699080D01*
G37*
G36*
X35328827Y63699080D02*
G01*
X35328366Y63697666D01*
X35288408Y63649853D01*
X35279636Y63580019D01*
X35310088Y63516372D01*
X35319984Y63507796D01*
X35320638Y63505906D01*
X35319328Y63504395D01*
X35318284Y63504323D01*
X35299801Y63508000D01*
X33800199Y63508000D01*
X33781645Y63504309D01*
X33774280Y63499388D01*
X33772284Y63499257D01*
X33771173Y63500920D01*
X33771634Y63502334D01*
X33811592Y63550147D01*
X33820364Y63619981D01*
X33789912Y63683628D01*
X33780016Y63692204D01*
X33779362Y63694094D01*
X33780672Y63695605D01*
X33781716Y63695677D01*
X33800199Y63692000D01*
X35299801Y63692000D01*
X35318355Y63695691D01*
X35325720Y63700612D01*
X35327716Y63700743D01*
X35328827Y63699080D01*
G37*
G36*
X35328827Y64499080D02*
G01*
X35328366Y64497666D01*
X35288408Y64449853D01*
X35279636Y64380019D01*
X35310088Y64316372D01*
X35319984Y64307796D01*
X35320638Y64305906D01*
X35319328Y64304395D01*
X35318284Y64304323D01*
X35299801Y64308000D01*
X33800199Y64308000D01*
X33781645Y64304309D01*
X33774280Y64299388D01*
X33772284Y64299257D01*
X33771173Y64300920D01*
X33771634Y64302334D01*
X33811592Y64350147D01*
X33820364Y64419981D01*
X33789912Y64483628D01*
X33780016Y64492204D01*
X33779362Y64494094D01*
X33780672Y64495605D01*
X33781716Y64495677D01*
X33800199Y64492000D01*
X35299801Y64492000D01*
X35318355Y64495691D01*
X35325720Y64500612D01*
X35327716Y64500743D01*
X35328827Y64499080D01*
G37*
G36*
X23228827Y64499080D02*
G01*
X23228366Y64497666D01*
X23188408Y64449853D01*
X23179636Y64380019D01*
X23210088Y64316372D01*
X23219984Y64307796D01*
X23220638Y64305906D01*
X23219328Y64304395D01*
X23218284Y64304323D01*
X23199801Y64308000D01*
X21700199Y64308000D01*
X21681645Y64304309D01*
X21674280Y64299388D01*
X21672284Y64299257D01*
X21671173Y64300920D01*
X21671634Y64302334D01*
X21711592Y64350147D01*
X21720364Y64419981D01*
X21689912Y64483628D01*
X21680016Y64492204D01*
X21679362Y64494094D01*
X21680672Y64495605D01*
X21681716Y64495677D01*
X21700199Y64492000D01*
X23199801Y64492000D01*
X23218355Y64495691D01*
X23225720Y64500612D01*
X23227716Y64500743D01*
X23228827Y64499080D01*
G37*
G36*
X35328827Y65299080D02*
G01*
X35328366Y65297666D01*
X35288408Y65249853D01*
X35279636Y65180019D01*
X35310088Y65116372D01*
X35319984Y65107796D01*
X35320638Y65105906D01*
X35319328Y65104395D01*
X35318284Y65104323D01*
X35299801Y65108000D01*
X33800199Y65108000D01*
X33781645Y65104309D01*
X33774280Y65099388D01*
X33772284Y65099257D01*
X33771173Y65100920D01*
X33771634Y65102334D01*
X33811592Y65150147D01*
X33820364Y65219981D01*
X33789912Y65283628D01*
X33780016Y65292204D01*
X33779362Y65294094D01*
X33780672Y65295605D01*
X33781716Y65295677D01*
X33800199Y65292000D01*
X35299801Y65292000D01*
X35318355Y65295691D01*
X35325720Y65300612D01*
X35327716Y65300743D01*
X35328827Y65299080D01*
G37*
G36*
X23228827Y65299080D02*
G01*
X23228366Y65297666D01*
X23188408Y65249853D01*
X23179636Y65180019D01*
X23210088Y65116372D01*
X23219984Y65107796D01*
X23220638Y65105906D01*
X23219328Y65104395D01*
X23218284Y65104323D01*
X23199801Y65108000D01*
X21700199Y65108000D01*
X21681645Y65104309D01*
X21674280Y65099388D01*
X21672284Y65099257D01*
X21671173Y65100920D01*
X21671634Y65102334D01*
X21711592Y65150147D01*
X21720364Y65219981D01*
X21689912Y65283628D01*
X21680016Y65292204D01*
X21679362Y65294094D01*
X21680672Y65295605D01*
X21681716Y65295677D01*
X21700199Y65292000D01*
X23199801Y65292000D01*
X23218355Y65295691D01*
X23225720Y65300612D01*
X23227716Y65300743D01*
X23228827Y65299080D01*
G37*
G36*
X35328827Y66099080D02*
G01*
X35328366Y66097666D01*
X35288408Y66049853D01*
X35279636Y65980019D01*
X35310088Y65916372D01*
X35319984Y65907796D01*
X35320638Y65905906D01*
X35319328Y65904395D01*
X35318284Y65904323D01*
X35299801Y65908000D01*
X33800199Y65908000D01*
X33781645Y65904309D01*
X33774280Y65899388D01*
X33772284Y65899257D01*
X33771173Y65900920D01*
X33771634Y65902334D01*
X33811592Y65950147D01*
X33820364Y66019981D01*
X33789912Y66083628D01*
X33780016Y66092204D01*
X33779362Y66094094D01*
X33780672Y66095605D01*
X33781716Y66095677D01*
X33800199Y66092000D01*
X35299801Y66092000D01*
X35318355Y66095691D01*
X35325720Y66100612D01*
X35327716Y66100743D01*
X35328827Y66099080D01*
G37*
G36*
X23228827Y66099080D02*
G01*
X23228366Y66097666D01*
X23188408Y66049853D01*
X23179636Y65980019D01*
X23210088Y65916372D01*
X23219984Y65907796D01*
X23220638Y65905906D01*
X23219328Y65904395D01*
X23218284Y65904323D01*
X23199801Y65908000D01*
X21700199Y65908000D01*
X21681645Y65904309D01*
X21674280Y65899388D01*
X21672284Y65899257D01*
X21671173Y65900920D01*
X21671634Y65902334D01*
X21711592Y65950147D01*
X21720364Y66019981D01*
X21689912Y66083628D01*
X21680016Y66092204D01*
X21679362Y66094094D01*
X21680672Y66095605D01*
X21681716Y66095677D01*
X21700199Y66092000D01*
X23199801Y66092000D01*
X23218355Y66095691D01*
X23225720Y66100612D01*
X23227716Y66100743D01*
X23228827Y66099080D01*
G37*
G36*
X571057Y66132766D02*
G01*
X581645Y66125691D01*
X600199Y66122000D01*
X1699801Y66122000D01*
X1718355Y66125691D01*
X1728943Y66132766D01*
X1730939Y66132897D01*
X1732050Y66131234D01*
X1731717Y66129992D01*
X1721491Y66114687D01*
X1700373Y66047248D01*
X1721500Y65975299D01*
X1731717Y65960008D01*
X1731848Y65958012D01*
X1730185Y65956901D01*
X1728943Y65957234D01*
X1718355Y65964309D01*
X1699801Y65968000D01*
X600199Y65968000D01*
X581645Y65964309D01*
X571057Y65957234D01*
X569061Y65957103D01*
X567950Y65958766D01*
X568283Y65960008D01*
X578509Y65975313D01*
X599627Y66042752D01*
X578500Y66114701D01*
X568283Y66129992D01*
X568152Y66131988D01*
X569815Y66133099D01*
X571057Y66132766D01*
G37*
G36*
X35328827Y66899080D02*
G01*
X35328366Y66897666D01*
X35288408Y66849853D01*
X35279636Y66780019D01*
X35310088Y66716372D01*
X35319984Y66707796D01*
X35320638Y66705906D01*
X35319328Y66704395D01*
X35318284Y66704323D01*
X35299801Y66708000D01*
X33800199Y66708000D01*
X33781645Y66704309D01*
X33774280Y66699388D01*
X33772284Y66699257D01*
X33771173Y66700920D01*
X33771634Y66702334D01*
X33811592Y66750147D01*
X33820364Y66819981D01*
X33789912Y66883628D01*
X33780016Y66892204D01*
X33779362Y66894094D01*
X33780672Y66895605D01*
X33781716Y66895677D01*
X33800199Y66892000D01*
X35299801Y66892000D01*
X35318355Y66895691D01*
X35325720Y66900612D01*
X35327716Y66900743D01*
X35328827Y66899080D01*
G37*
G36*
X23228827Y66899080D02*
G01*
X23228366Y66897666D01*
X23188408Y66849853D01*
X23179636Y66780019D01*
X23210088Y66716372D01*
X23219984Y66707796D01*
X23220638Y66705906D01*
X23219328Y66704395D01*
X23218284Y66704323D01*
X23199801Y66708000D01*
X21700199Y66708000D01*
X21681645Y66704309D01*
X21674280Y66699388D01*
X21672284Y66699257D01*
X21671173Y66700920D01*
X21671634Y66702334D01*
X21711592Y66750147D01*
X21720364Y66819981D01*
X21689912Y66883628D01*
X21680016Y66892204D01*
X21679362Y66894094D01*
X21680672Y66895605D01*
X21681716Y66895677D01*
X21700199Y66892000D01*
X23199801Y66892000D01*
X23218355Y66895691D01*
X23225720Y66900612D01*
X23227716Y66900743D01*
X23228827Y66899080D01*
G37*
G36*
X571057Y67232766D02*
G01*
X581645Y67225691D01*
X600199Y67222000D01*
X1699801Y67222000D01*
X1718355Y67225691D01*
X1728943Y67232766D01*
X1730939Y67232897D01*
X1732050Y67231234D01*
X1731717Y67229992D01*
X1721491Y67214687D01*
X1700373Y67147248D01*
X1721500Y67075299D01*
X1731717Y67060008D01*
X1731848Y67058012D01*
X1730185Y67056901D01*
X1728943Y67057234D01*
X1718355Y67064309D01*
X1699801Y67068000D01*
X600199Y67068000D01*
X581645Y67064309D01*
X571057Y67057234D01*
X569061Y67057103D01*
X567950Y67058766D01*
X568283Y67060008D01*
X578509Y67075313D01*
X599627Y67142752D01*
X578500Y67214701D01*
X568283Y67229992D01*
X568152Y67231988D01*
X569815Y67233099D01*
X571057Y67232766D01*
G37*
G36*
X35328827Y67699080D02*
G01*
X35328366Y67697666D01*
X35288408Y67649853D01*
X35279636Y67580019D01*
X35310088Y67516372D01*
X35319984Y67507796D01*
X35320638Y67505906D01*
X35319328Y67504395D01*
X35318284Y67504323D01*
X35299801Y67508000D01*
X33800199Y67508000D01*
X33781645Y67504309D01*
X33774280Y67499388D01*
X33772284Y67499257D01*
X33771173Y67500920D01*
X33771634Y67502334D01*
X33811592Y67550147D01*
X33820364Y67619981D01*
X33789912Y67683628D01*
X33780016Y67692204D01*
X33779362Y67694094D01*
X33780672Y67695605D01*
X33781716Y67695677D01*
X33800199Y67692000D01*
X35299801Y67692000D01*
X35318355Y67695691D01*
X35325720Y67700612D01*
X35327716Y67700743D01*
X35328827Y67699080D01*
G37*
G36*
X23228827Y67699080D02*
G01*
X23228366Y67697666D01*
X23188408Y67649853D01*
X23179636Y67580019D01*
X23210088Y67516372D01*
X23219984Y67507796D01*
X23220638Y67505906D01*
X23219328Y67504395D01*
X23218284Y67504323D01*
X23199801Y67508000D01*
X21700199Y67508000D01*
X21681645Y67504309D01*
X21674280Y67499388D01*
X21672284Y67499257D01*
X21671173Y67500920D01*
X21671634Y67502334D01*
X21711592Y67550147D01*
X21720364Y67619981D01*
X21689912Y67683628D01*
X21680016Y67692204D01*
X21679362Y67694094D01*
X21680672Y67695605D01*
X21681716Y67695677D01*
X21700199Y67692000D01*
X23199801Y67692000D01*
X23218355Y67695691D01*
X23225720Y67700612D01*
X23227716Y67700743D01*
X23228827Y67699080D01*
G37*
G36*
X571057Y68332766D02*
G01*
X581645Y68325691D01*
X600199Y68322000D01*
X1699801Y68322000D01*
X1718355Y68325691D01*
X1728943Y68332766D01*
X1730939Y68332897D01*
X1732050Y68331234D01*
X1731717Y68329992D01*
X1721491Y68314687D01*
X1700373Y68247248D01*
X1721500Y68175299D01*
X1731717Y68160008D01*
X1731848Y68158012D01*
X1730185Y68156901D01*
X1728943Y68157234D01*
X1718355Y68164309D01*
X1699801Y68168000D01*
X600199Y68168000D01*
X581645Y68164309D01*
X571057Y68157234D01*
X569061Y68157103D01*
X567950Y68158766D01*
X568283Y68160008D01*
X578509Y68175313D01*
X599627Y68242752D01*
X578500Y68314701D01*
X568283Y68329992D01*
X568152Y68331988D01*
X569815Y68333099D01*
X571057Y68332766D01*
G37*
G36*
X571057Y69432766D02*
G01*
X581645Y69425691D01*
X600199Y69422000D01*
X1699801Y69422000D01*
X1718355Y69425691D01*
X1728943Y69432766D01*
X1730939Y69432897D01*
X1732050Y69431234D01*
X1731717Y69429992D01*
X1721491Y69414687D01*
X1700373Y69347248D01*
X1721500Y69275299D01*
X1731717Y69260008D01*
X1731848Y69258012D01*
X1730185Y69256901D01*
X1728943Y69257234D01*
X1718355Y69264309D01*
X1699801Y69268000D01*
X600199Y69268000D01*
X581645Y69264309D01*
X571057Y69257234D01*
X569061Y69257103D01*
X567950Y69258766D01*
X568283Y69260008D01*
X578509Y69275313D01*
X599627Y69342752D01*
X578500Y69414701D01*
X568283Y69429992D01*
X568152Y69431988D01*
X569815Y69433099D01*
X571057Y69432766D01*
G37*
G36*
X25602334Y70828366D02*
G01*
X25650147Y70788408D01*
X25719981Y70779636D01*
X25783628Y70810088D01*
X25792204Y70819984D01*
X25794094Y70820638D01*
X25795605Y70819328D01*
X25795677Y70818284D01*
X25792000Y70799801D01*
X25792000Y69300199D01*
X25795691Y69281645D01*
X25800612Y69274280D01*
X25800743Y69272284D01*
X25799080Y69271173D01*
X25797666Y69271634D01*
X25749853Y69311592D01*
X25680019Y69320364D01*
X25616372Y69289912D01*
X25607796Y69280016D01*
X25605906Y69279362D01*
X25604395Y69280672D01*
X25604323Y69281716D01*
X25608000Y69300199D01*
X25608000Y70799801D01*
X25604309Y70818355D01*
X25599388Y70825720D01*
X25599257Y70827716D01*
X25600920Y70828827D01*
X25602334Y70828366D01*
G37*
G36*
X32002334Y70828366D02*
G01*
X32050147Y70788408D01*
X32119981Y70779636D01*
X32183628Y70810088D01*
X32192204Y70819984D01*
X32194094Y70820638D01*
X32195605Y70819328D01*
X32195677Y70818284D01*
X32192000Y70799801D01*
X32192000Y69300199D01*
X32195691Y69281645D01*
X32200612Y69274280D01*
X32200743Y69272284D01*
X32199080Y69271173D01*
X32197666Y69271634D01*
X32149853Y69311592D01*
X32080019Y69320364D01*
X32016372Y69289912D01*
X32007796Y69280016D01*
X32005906Y69279362D01*
X32004395Y69280672D01*
X32004323Y69281716D01*
X32008000Y69300199D01*
X32008000Y70799801D01*
X32004309Y70818355D01*
X31999388Y70825720D01*
X31999257Y70827716D01*
X32000920Y70828827D01*
X32002334Y70828366D01*
G37*
G36*
X31202334Y70828366D02*
G01*
X31250147Y70788408D01*
X31319981Y70779636D01*
X31383628Y70810088D01*
X31392204Y70819984D01*
X31394094Y70820638D01*
X31395605Y70819328D01*
X31395677Y70818284D01*
X31392000Y70799801D01*
X31392000Y69300199D01*
X31395691Y69281645D01*
X31400612Y69274280D01*
X31400743Y69272284D01*
X31399080Y69271173D01*
X31397666Y69271634D01*
X31349853Y69311592D01*
X31280019Y69320364D01*
X31216372Y69289912D01*
X31207796Y69280016D01*
X31205906Y69279362D01*
X31204395Y69280672D01*
X31204323Y69281716D01*
X31208000Y69300199D01*
X31208000Y70799801D01*
X31204309Y70818355D01*
X31199388Y70825720D01*
X31199257Y70827716D01*
X31200920Y70828827D01*
X31202334Y70828366D01*
G37*
G36*
X24802334Y70828366D02*
G01*
X24850147Y70788408D01*
X24919981Y70779636D01*
X24983628Y70810088D01*
X24992204Y70819984D01*
X24994094Y70820638D01*
X24995605Y70819328D01*
X24995677Y70818284D01*
X24992000Y70799801D01*
X24992000Y69300199D01*
X24995691Y69281645D01*
X25000612Y69274280D01*
X25000743Y69272284D01*
X24999080Y69271173D01*
X24997666Y69271634D01*
X24949853Y69311592D01*
X24880019Y69320364D01*
X24816372Y69289912D01*
X24807796Y69280016D01*
X24805906Y69279362D01*
X24804395Y69280672D01*
X24804323Y69281716D01*
X24808000Y69300199D01*
X24808000Y70799801D01*
X24804309Y70818355D01*
X24799388Y70825720D01*
X24799257Y70827716D01*
X24800920Y70828827D01*
X24802334Y70828366D01*
G37*
G36*
X30402334Y70828366D02*
G01*
X30450147Y70788408D01*
X30519981Y70779636D01*
X30583628Y70810088D01*
X30592204Y70819984D01*
X30594094Y70820638D01*
X30595605Y70819328D01*
X30595677Y70818284D01*
X30592000Y70799801D01*
X30592000Y69300199D01*
X30595691Y69281645D01*
X30600612Y69274280D01*
X30600743Y69272284D01*
X30599080Y69271173D01*
X30597666Y69271634D01*
X30549853Y69311592D01*
X30480019Y69320364D01*
X30416372Y69289912D01*
X30407796Y69280016D01*
X30405906Y69279362D01*
X30404395Y69280672D01*
X30404323Y69281716D01*
X30408000Y69300199D01*
X30408000Y70799801D01*
X30404309Y70818355D01*
X30399388Y70825720D01*
X30399257Y70827716D01*
X30400920Y70828827D01*
X30402334Y70828366D01*
G37*
G36*
X27202334Y70828366D02*
G01*
X27250147Y70788408D01*
X27319981Y70779636D01*
X27383628Y70810088D01*
X27392204Y70819984D01*
X27394094Y70820638D01*
X27395605Y70819328D01*
X27395677Y70818284D01*
X27392000Y70799801D01*
X27392000Y69300199D01*
X27395691Y69281645D01*
X27400612Y69274280D01*
X27400743Y69272284D01*
X27399080Y69271173D01*
X27397666Y69271634D01*
X27349853Y69311592D01*
X27280019Y69320364D01*
X27216372Y69289912D01*
X27207796Y69280016D01*
X27205906Y69279362D01*
X27204395Y69280672D01*
X27204323Y69281716D01*
X27208000Y69300199D01*
X27208000Y70799801D01*
X27204309Y70818355D01*
X27199388Y70825720D01*
X27199257Y70827716D01*
X27200920Y70828827D01*
X27202334Y70828366D01*
G37*
G36*
X29602334Y70828366D02*
G01*
X29650147Y70788408D01*
X29719981Y70779636D01*
X29783628Y70810088D01*
X29792204Y70819984D01*
X29794094Y70820638D01*
X29795605Y70819328D01*
X29795677Y70818284D01*
X29792000Y70799801D01*
X29792000Y69300199D01*
X29795691Y69281645D01*
X29800612Y69274280D01*
X29800743Y69272284D01*
X29799080Y69271173D01*
X29797666Y69271634D01*
X29749853Y69311592D01*
X29680019Y69320364D01*
X29616372Y69289912D01*
X29607796Y69280016D01*
X29605906Y69279362D01*
X29604395Y69280672D01*
X29604323Y69281716D01*
X29608000Y69300199D01*
X29608000Y70799801D01*
X29604309Y70818355D01*
X29599388Y70825720D01*
X29599257Y70827716D01*
X29600920Y70828827D01*
X29602334Y70828366D01*
G37*
G36*
X28002334Y70828366D02*
G01*
X28050147Y70788408D01*
X28119981Y70779636D01*
X28183628Y70810088D01*
X28192204Y70819984D01*
X28194094Y70820638D01*
X28195605Y70819328D01*
X28195677Y70818284D01*
X28192000Y70799801D01*
X28192000Y69300199D01*
X28195691Y69281645D01*
X28200612Y69274280D01*
X28200743Y69272284D01*
X28199080Y69271173D01*
X28197666Y69271634D01*
X28149853Y69311592D01*
X28080019Y69320364D01*
X28016372Y69289912D01*
X28007796Y69280016D01*
X28005906Y69279362D01*
X28004395Y69280672D01*
X28004323Y69281716D01*
X28008000Y69300199D01*
X28008000Y70799801D01*
X28004309Y70818355D01*
X27999388Y70825720D01*
X27999257Y70827716D01*
X28000920Y70828827D01*
X28002334Y70828366D01*
G37*
G36*
X28802334Y70828366D02*
G01*
X28850147Y70788408D01*
X28919981Y70779636D01*
X28983628Y70810088D01*
X28992204Y70819984D01*
X28994094Y70820638D01*
X28995605Y70819328D01*
X28995677Y70818284D01*
X28992000Y70799801D01*
X28992000Y69300199D01*
X28995691Y69281645D01*
X29000612Y69274280D01*
X29000743Y69272284D01*
X28999080Y69271173D01*
X28997666Y69271634D01*
X28949853Y69311592D01*
X28880019Y69320364D01*
X28816372Y69289912D01*
X28807796Y69280016D01*
X28805906Y69279362D01*
X28804395Y69280672D01*
X28804323Y69281716D01*
X28808000Y69300199D01*
X28808000Y70799801D01*
X28804309Y70818355D01*
X28799388Y70825720D01*
X28799257Y70827716D01*
X28800920Y70828827D01*
X28802334Y70828366D01*
G37*
G36*
X26402334Y70828366D02*
G01*
X26450147Y70788408D01*
X26519981Y70779636D01*
X26583628Y70810088D01*
X26592204Y70819984D01*
X26594094Y70820638D01*
X26595605Y70819328D01*
X26595677Y70818284D01*
X26592000Y70799801D01*
X26592000Y69300199D01*
X26595691Y69281645D01*
X26600612Y69274280D01*
X26600743Y69272284D01*
X26599080Y69271173D01*
X26597666Y69271634D01*
X26549853Y69311592D01*
X26480019Y69320364D01*
X26416372Y69289912D01*
X26407796Y69280016D01*
X26405906Y69279362D01*
X26404395Y69280672D01*
X26404323Y69281716D01*
X26408000Y69300199D01*
X26408000Y70799801D01*
X26404309Y70818355D01*
X26399388Y70825720D01*
X26399257Y70827716D01*
X26400920Y70828827D01*
X26402334Y70828366D01*
G37*
G36*
X571057Y70532766D02*
G01*
X581645Y70525691D01*
X600199Y70522000D01*
X1699801Y70522000D01*
X1718355Y70525691D01*
X1728943Y70532766D01*
X1730939Y70532897D01*
X1732050Y70531234D01*
X1731717Y70529992D01*
X1721491Y70514687D01*
X1700373Y70447248D01*
X1721500Y70375299D01*
X1731717Y70360008D01*
X1731848Y70358012D01*
X1730185Y70356901D01*
X1728943Y70357234D01*
X1718355Y70364309D01*
X1699801Y70368000D01*
X600199Y70368000D01*
X581645Y70364309D01*
X571057Y70357234D01*
X569061Y70357103D01*
X567950Y70358766D01*
X568283Y70360008D01*
X578509Y70375313D01*
X599627Y70442752D01*
X578500Y70514701D01*
X568283Y70529992D01*
X568152Y70531988D01*
X569815Y70533099D01*
X571057Y70532766D01*
G37*
G36*
X571057Y71632766D02*
G01*
X581645Y71625691D01*
X600199Y71622000D01*
X1699801Y71622000D01*
X1718355Y71625691D01*
X1728943Y71632766D01*
X1730939Y71632897D01*
X1732050Y71631234D01*
X1731717Y71629992D01*
X1721491Y71614687D01*
X1700373Y71547248D01*
X1721500Y71475299D01*
X1731717Y71460008D01*
X1731848Y71458012D01*
X1730185Y71456901D01*
X1728943Y71457234D01*
X1718355Y71464309D01*
X1699801Y71468000D01*
X600199Y71468000D01*
X581645Y71464309D01*
X571057Y71457234D01*
X569061Y71457103D01*
X567950Y71458766D01*
X568283Y71460008D01*
X578509Y71475313D01*
X599627Y71542752D01*
X578500Y71614701D01*
X568283Y71629992D01*
X568152Y71631988D01*
X569815Y71633099D01*
X571057Y71632766D01*
G37*
G36*
X105365427Y74060907D02*
G01*
X105365991Y74058988D01*
X105365710Y74058349D01*
X105355691Y74043355D01*
X105352000Y74024801D01*
X105352000Y72275199D01*
X105355691Y72256645D01*
X105365603Y72241811D01*
X105365734Y72239815D01*
X105364071Y72238704D01*
X105363342Y72238791D01*
X105302247Y72257922D01*
X105236516Y72238621D01*
X105234573Y72239093D01*
X105234009Y72241012D01*
X105234290Y72241651D01*
X105244309Y72256645D01*
X105248000Y72275199D01*
X105248000Y74024801D01*
X105244309Y74043355D01*
X105234397Y74058189D01*
X105234266Y74060185D01*
X105235929Y74061296D01*
X105236658Y74061209D01*
X105297753Y74042078D01*
X105363484Y74061379D01*
X105365427Y74060907D01*
G37*
G36*
X100165427Y74060907D02*
G01*
X100165991Y74058988D01*
X100165710Y74058349D01*
X100155691Y74043355D01*
X100152000Y74024801D01*
X100152000Y72275199D01*
X100155691Y72256645D01*
X100165603Y72241811D01*
X100165734Y72239815D01*
X100164071Y72238704D01*
X100163342Y72238791D01*
X100102247Y72257922D01*
X100036516Y72238621D01*
X100034573Y72239093D01*
X100034009Y72241012D01*
X100034290Y72241651D01*
X100044309Y72256645D01*
X100048000Y72275199D01*
X100048000Y74024801D01*
X100044309Y74043355D01*
X100034397Y74058189D01*
X100034266Y74060185D01*
X100035929Y74061296D01*
X100036658Y74061209D01*
X100097753Y74042078D01*
X100163484Y74061379D01*
X100165427Y74060907D01*
G37*
G36*
X100815427Y74060907D02*
G01*
X100815991Y74058988D01*
X100815710Y74058349D01*
X100805691Y74043355D01*
X100802000Y74024801D01*
X100802000Y72275199D01*
X100805691Y72256645D01*
X100815603Y72241811D01*
X100815734Y72239815D01*
X100814071Y72238704D01*
X100813342Y72238791D01*
X100752247Y72257922D01*
X100686516Y72238621D01*
X100684573Y72239093D01*
X100684009Y72241012D01*
X100684290Y72241651D01*
X100694309Y72256645D01*
X100698000Y72275199D01*
X100698000Y74024801D01*
X100694309Y74043355D01*
X100684397Y74058189D01*
X100684266Y74060185D01*
X100685929Y74061296D01*
X100686658Y74061209D01*
X100747753Y74042078D01*
X100813484Y74061379D01*
X100815427Y74060907D01*
G37*
G36*
X99515427Y74060907D02*
G01*
X99515991Y74058988D01*
X99515710Y74058349D01*
X99505691Y74043355D01*
X99502000Y74024801D01*
X99502000Y72275199D01*
X99505691Y72256645D01*
X99515603Y72241811D01*
X99515734Y72239815D01*
X99514071Y72238704D01*
X99513342Y72238791D01*
X99452247Y72257922D01*
X99386516Y72238621D01*
X99384573Y72239093D01*
X99384009Y72241012D01*
X99384290Y72241651D01*
X99394309Y72256645D01*
X99398000Y72275199D01*
X99398000Y74024801D01*
X99394309Y74043355D01*
X99384397Y74058189D01*
X99384266Y74060185D01*
X99385929Y74061296D01*
X99386658Y74061209D01*
X99447753Y74042078D01*
X99513484Y74061379D01*
X99515427Y74060907D01*
G37*
G36*
X106015427Y74060907D02*
G01*
X106015991Y74058988D01*
X106015710Y74058349D01*
X106005691Y74043355D01*
X106002000Y74024801D01*
X106002000Y72275199D01*
X106005691Y72256645D01*
X106015603Y72241811D01*
X106015734Y72239815D01*
X106014071Y72238704D01*
X106013342Y72238791D01*
X105952247Y72257922D01*
X105886516Y72238621D01*
X105884573Y72239093D01*
X105884009Y72241012D01*
X105884290Y72241651D01*
X105894309Y72256645D01*
X105898000Y72275199D01*
X105898000Y74024801D01*
X105894309Y74043355D01*
X105884397Y74058189D01*
X105884266Y74060185D01*
X105885929Y74061296D01*
X105886658Y74061209D01*
X105947753Y74042078D01*
X106013484Y74061379D01*
X106015427Y74060907D01*
G37*
G36*
X103415427Y74060907D02*
G01*
X103415991Y74058988D01*
X103415710Y74058349D01*
X103405691Y74043355D01*
X103402000Y74024801D01*
X103402000Y72275199D01*
X103405691Y72256645D01*
X103415603Y72241811D01*
X103415734Y72239815D01*
X103414071Y72238704D01*
X103413342Y72238791D01*
X103352247Y72257922D01*
X103286516Y72238621D01*
X103284573Y72239093D01*
X103284009Y72241012D01*
X103284290Y72241651D01*
X103294309Y72256645D01*
X103298000Y72275199D01*
X103298000Y74024801D01*
X103294309Y74043355D01*
X103284397Y74058189D01*
X103284266Y74060185D01*
X103285929Y74061296D01*
X103286658Y74061209D01*
X103347753Y74042078D01*
X103413484Y74061379D01*
X103415427Y74060907D01*
G37*
G36*
X101465427Y74060907D02*
G01*
X101465991Y74058988D01*
X101465710Y74058349D01*
X101455691Y74043355D01*
X101452000Y74024801D01*
X101452000Y72275199D01*
X101455691Y72256645D01*
X101465603Y72241811D01*
X101465734Y72239815D01*
X101464071Y72238704D01*
X101463342Y72238791D01*
X101402247Y72257922D01*
X101336516Y72238621D01*
X101334573Y72239093D01*
X101334009Y72241012D01*
X101334290Y72241651D01*
X101344309Y72256645D01*
X101348000Y72275199D01*
X101348000Y74024801D01*
X101344309Y74043355D01*
X101334397Y74058189D01*
X101334266Y74060185D01*
X101335929Y74061296D01*
X101336658Y74061209D01*
X101397753Y74042078D01*
X101463484Y74061379D01*
X101465427Y74060907D01*
G37*
G36*
X102765427Y74060907D02*
G01*
X102765991Y74058988D01*
X102765710Y74058349D01*
X102755691Y74043355D01*
X102752000Y74024801D01*
X102752000Y72275199D01*
X102755691Y72256645D01*
X102765603Y72241811D01*
X102765734Y72239815D01*
X102764071Y72238704D01*
X102763342Y72238791D01*
X102702247Y72257922D01*
X102636516Y72238621D01*
X102634573Y72239093D01*
X102634009Y72241012D01*
X102634290Y72241651D01*
X102644309Y72256645D01*
X102648000Y72275199D01*
X102648000Y74024801D01*
X102644309Y74043355D01*
X102634397Y74058189D01*
X102634266Y74060185D01*
X102635929Y74061296D01*
X102636658Y74061209D01*
X102697753Y74042078D01*
X102763484Y74061379D01*
X102765427Y74060907D01*
G37*
G36*
X104715427Y74060907D02*
G01*
X104715991Y74058988D01*
X104715710Y74058349D01*
X104705691Y74043355D01*
X104702000Y74024801D01*
X104702000Y72275199D01*
X104705691Y72256645D01*
X104715603Y72241811D01*
X104715734Y72239815D01*
X104714071Y72238704D01*
X104713342Y72238791D01*
X104652247Y72257922D01*
X104586516Y72238621D01*
X104584573Y72239093D01*
X104584009Y72241012D01*
X104584290Y72241651D01*
X104594309Y72256645D01*
X104598000Y72275199D01*
X104598000Y74024801D01*
X104594309Y74043355D01*
X104584397Y74058189D01*
X104584266Y74060185D01*
X104585929Y74061296D01*
X104586658Y74061209D01*
X104647753Y74042078D01*
X104713484Y74061379D01*
X104715427Y74060907D01*
G37*
G36*
X98865427Y74060907D02*
G01*
X98865991Y74058988D01*
X98865710Y74058349D01*
X98855691Y74043355D01*
X98852000Y74024801D01*
X98852000Y72275199D01*
X98855691Y72256645D01*
X98865603Y72241811D01*
X98865734Y72239815D01*
X98864071Y72238704D01*
X98863342Y72238791D01*
X98802247Y72257922D01*
X98736516Y72238621D01*
X98734573Y72239093D01*
X98734009Y72241012D01*
X98734290Y72241651D01*
X98744309Y72256645D01*
X98748000Y72275199D01*
X98748000Y74024801D01*
X98744309Y74043355D01*
X98734397Y74058189D01*
X98734266Y74060185D01*
X98735929Y74061296D01*
X98736658Y74061209D01*
X98797753Y74042078D01*
X98863484Y74061379D01*
X98865427Y74060907D01*
G37*
G36*
X98215427Y74060907D02*
G01*
X98215991Y74058988D01*
X98215710Y74058349D01*
X98205691Y74043355D01*
X98202000Y74024801D01*
X98202000Y72275199D01*
X98205691Y72256645D01*
X98215603Y72241811D01*
X98215734Y72239815D01*
X98214071Y72238704D01*
X98213342Y72238791D01*
X98152247Y72257922D01*
X98086516Y72238621D01*
X98084573Y72239093D01*
X98084009Y72241012D01*
X98084290Y72241651D01*
X98094309Y72256645D01*
X98098000Y72275199D01*
X98098000Y74024801D01*
X98094309Y74043355D01*
X98084397Y74058189D01*
X98084266Y74060185D01*
X98085929Y74061296D01*
X98086658Y74061209D01*
X98147753Y74042078D01*
X98213484Y74061379D01*
X98215427Y74060907D01*
G37*
G36*
X102115427Y74060907D02*
G01*
X102115991Y74058988D01*
X102115710Y74058349D01*
X102105691Y74043355D01*
X102102000Y74024801D01*
X102102000Y72275199D01*
X102105691Y72256645D01*
X102115603Y72241811D01*
X102115734Y72239815D01*
X102114071Y72238704D01*
X102113342Y72238791D01*
X102052247Y72257922D01*
X101986516Y72238621D01*
X101984573Y72239093D01*
X101984009Y72241012D01*
X101984290Y72241651D01*
X101994309Y72256645D01*
X101998000Y72275199D01*
X101998000Y74024801D01*
X101994309Y74043355D01*
X101984397Y74058189D01*
X101984266Y74060185D01*
X101985929Y74061296D01*
X101986658Y74061209D01*
X102047753Y74042078D01*
X102113484Y74061379D01*
X102115427Y74060907D01*
G37*
G36*
X104065427Y74060907D02*
G01*
X104065991Y74058988D01*
X104065710Y74058349D01*
X104055691Y74043355D01*
X104052000Y74024801D01*
X104052000Y72275199D01*
X104055691Y72256645D01*
X104065603Y72241811D01*
X104065734Y72239815D01*
X104064071Y72238704D01*
X104063342Y72238791D01*
X104002247Y72257922D01*
X103936516Y72238621D01*
X103934573Y72239093D01*
X103934009Y72241012D01*
X103934290Y72241651D01*
X103944309Y72256645D01*
X103948000Y72275199D01*
X103948000Y74024801D01*
X103944309Y74043355D01*
X103934397Y74058189D01*
X103934266Y74060185D01*
X103935929Y74061296D01*
X103936658Y74061209D01*
X103997753Y74042078D01*
X104063484Y74061379D01*
X104065427Y74060907D01*
G37*
G36*
X571057Y72732766D02*
G01*
X581645Y72725691D01*
X600199Y72722000D01*
X1699801Y72722000D01*
X1718355Y72725691D01*
X1728943Y72732766D01*
X1730939Y72732897D01*
X1732050Y72731234D01*
X1731717Y72729992D01*
X1721491Y72714687D01*
X1700373Y72647248D01*
X1721500Y72575299D01*
X1731717Y72560008D01*
X1731848Y72558012D01*
X1730185Y72556901D01*
X1728943Y72557234D01*
X1718355Y72564309D01*
X1699801Y72568000D01*
X600199Y72568000D01*
X581645Y72564309D01*
X571057Y72557234D01*
X569061Y72557103D01*
X567950Y72558766D01*
X568283Y72560008D01*
X578509Y72575313D01*
X599627Y72642752D01*
X578500Y72714701D01*
X568283Y72729992D01*
X568152Y72731988D01*
X569815Y72733099D01*
X571057Y72732766D01*
G37*
G36*
X571057Y73732766D02*
G01*
X581645Y73725691D01*
X600199Y73722000D01*
X1860004Y73722000D01*
X1861736Y73721000D01*
X1861736Y73719000D01*
X1860567Y73718081D01*
X1792474Y73698087D01*
X1746381Y73644893D01*
X1736355Y73575158D01*
X1740922Y73563238D01*
X1741016Y73562912D01*
X1744613Y73544826D01*
X1743970Y73542932D01*
X1742008Y73542542D01*
X1740988Y73543325D01*
X1733913Y73553913D01*
X1718355Y73564309D01*
X1699801Y73568000D01*
X600199Y73568000D01*
X581645Y73564309D01*
X571057Y73557234D01*
X569061Y73557103D01*
X567950Y73558766D01*
X568283Y73560008D01*
X578509Y73575313D01*
X599627Y73642752D01*
X578500Y73714701D01*
X568283Y73729992D01*
X568152Y73731988D01*
X569815Y73733099D01*
X571057Y73732766D01*
G37*
G36*
X78368041Y77697250D02*
G01*
X78380314Y77689050D01*
X78447753Y77667933D01*
X78519700Y77689059D01*
X78531959Y77697250D01*
X78533955Y77697381D01*
X78535066Y77695718D01*
X78534733Y77694476D01*
X78511400Y77659556D01*
X78502000Y77612301D01*
X78502000Y76287699D01*
X78511400Y76240444D01*
X78534733Y76205524D01*
X78534864Y76203528D01*
X78533201Y76202417D01*
X78531959Y76202750D01*
X78519686Y76210950D01*
X78452247Y76232067D01*
X78380300Y76210941D01*
X78368041Y76202750D01*
X78366045Y76202619D01*
X78364934Y76204282D01*
X78365267Y76205524D01*
X78388600Y76240444D01*
X78398000Y76287699D01*
X78398000Y77612301D01*
X78388600Y77659556D01*
X78365267Y77694476D01*
X78365136Y77696472D01*
X78366799Y77697583D01*
X78368041Y77697250D01*
G37*
G36*
X75368041Y77697250D02*
G01*
X75380314Y77689050D01*
X75447753Y77667933D01*
X75519700Y77689059D01*
X75531959Y77697250D01*
X75533955Y77697381D01*
X75535066Y77695718D01*
X75534733Y77694476D01*
X75511400Y77659556D01*
X75502000Y77612301D01*
X75502000Y76287699D01*
X75511400Y76240444D01*
X75534733Y76205524D01*
X75534864Y76203528D01*
X75533201Y76202417D01*
X75531959Y76202750D01*
X75519686Y76210950D01*
X75452247Y76232067D01*
X75380300Y76210941D01*
X75368041Y76202750D01*
X75366045Y76202619D01*
X75364934Y76204282D01*
X75365267Y76205524D01*
X75388600Y76240444D01*
X75398000Y76287699D01*
X75398000Y77612301D01*
X75388600Y77659556D01*
X75365267Y77694476D01*
X75365136Y77696472D01*
X75366799Y77697583D01*
X75368041Y77697250D01*
G37*
G36*
X75868041Y77697250D02*
G01*
X75880314Y77689050D01*
X75947753Y77667933D01*
X76019700Y77689059D01*
X76031959Y77697250D01*
X76033955Y77697381D01*
X76035066Y77695718D01*
X76034733Y77694476D01*
X76011400Y77659556D01*
X76002000Y77612301D01*
X76002000Y76287699D01*
X76011400Y76240444D01*
X76034733Y76205524D01*
X76034864Y76203528D01*
X76033201Y76202417D01*
X76031959Y76202750D01*
X76019686Y76210950D01*
X75952247Y76232067D01*
X75880300Y76210941D01*
X75868041Y76202750D01*
X75866045Y76202619D01*
X75864934Y76204282D01*
X75865267Y76205524D01*
X75888600Y76240444D01*
X75898000Y76287699D01*
X75898000Y77612301D01*
X75888600Y77659556D01*
X75865267Y77694476D01*
X75865136Y77696472D01*
X75866799Y77697583D01*
X75868041Y77697250D01*
G37*
G36*
X74868041Y77697250D02*
G01*
X74880314Y77689050D01*
X74947753Y77667933D01*
X75019700Y77689059D01*
X75031959Y77697250D01*
X75033955Y77697381D01*
X75035066Y77695718D01*
X75034733Y77694476D01*
X75011400Y77659556D01*
X75002000Y77612301D01*
X75002000Y76287699D01*
X75011400Y76240444D01*
X75034733Y76205524D01*
X75034864Y76203528D01*
X75033201Y76202417D01*
X75031959Y76202750D01*
X75019686Y76210950D01*
X74952247Y76232067D01*
X74880300Y76210941D01*
X74868041Y76202750D01*
X74866045Y76202619D01*
X74864934Y76204282D01*
X74865267Y76205524D01*
X74888600Y76240444D01*
X74898000Y76287699D01*
X74898000Y77612301D01*
X74888600Y77659556D01*
X74865267Y77694476D01*
X74865136Y77696472D01*
X74866799Y77697583D01*
X74868041Y77697250D01*
G37*
G36*
X76368041Y77697250D02*
G01*
X76380314Y77689050D01*
X76447753Y77667933D01*
X76519700Y77689059D01*
X76531959Y77697250D01*
X76533955Y77697381D01*
X76535066Y77695718D01*
X76534733Y77694476D01*
X76511400Y77659556D01*
X76502000Y77612301D01*
X76502000Y76287699D01*
X76511400Y76240444D01*
X76534733Y76205524D01*
X76534864Y76203528D01*
X76533201Y76202417D01*
X76531959Y76202750D01*
X76519686Y76210950D01*
X76452247Y76232067D01*
X76380300Y76210941D01*
X76368041Y76202750D01*
X76366045Y76202619D01*
X76364934Y76204282D01*
X76365267Y76205524D01*
X76388600Y76240444D01*
X76398000Y76287699D01*
X76398000Y77612301D01*
X76388600Y77659556D01*
X76365267Y77694476D01*
X76365136Y77696472D01*
X76366799Y77697583D01*
X76368041Y77697250D01*
G37*
G36*
X79368041Y77697250D02*
G01*
X79380314Y77689050D01*
X79447753Y77667933D01*
X79519700Y77689059D01*
X79531959Y77697250D01*
X79533955Y77697381D01*
X79535066Y77695718D01*
X79534733Y77694476D01*
X79511400Y77659556D01*
X79502000Y77612301D01*
X79502000Y76287699D01*
X79511400Y76240444D01*
X79534733Y76205524D01*
X79534864Y76203528D01*
X79533201Y76202417D01*
X79531959Y76202750D01*
X79519686Y76210950D01*
X79452247Y76232067D01*
X79380300Y76210941D01*
X79368041Y76202750D01*
X79366045Y76202619D01*
X79364934Y76204282D01*
X79365267Y76205524D01*
X79388600Y76240444D01*
X79398000Y76287699D01*
X79398000Y77612301D01*
X79388600Y77659556D01*
X79365267Y77694476D01*
X79365136Y77696472D01*
X79366799Y77697583D01*
X79368041Y77697250D01*
G37*
G36*
X74368041Y77697250D02*
G01*
X74380314Y77689050D01*
X74447753Y77667933D01*
X74519700Y77689059D01*
X74531959Y77697250D01*
X74533955Y77697381D01*
X74535066Y77695718D01*
X74534733Y77694476D01*
X74511400Y77659556D01*
X74502000Y77612301D01*
X74502000Y76287699D01*
X74511400Y76240444D01*
X74534733Y76205524D01*
X74534864Y76203528D01*
X74533201Y76202417D01*
X74531959Y76202750D01*
X74519686Y76210950D01*
X74452247Y76232067D01*
X74380300Y76210941D01*
X74368041Y76202750D01*
X74366045Y76202619D01*
X74364934Y76204282D01*
X74365267Y76205524D01*
X74388600Y76240444D01*
X74398000Y76287699D01*
X74398000Y77612301D01*
X74388600Y77659556D01*
X74365267Y77694476D01*
X74365136Y77696472D01*
X74366799Y77697583D01*
X74368041Y77697250D01*
G37*
G36*
X77368041Y77697250D02*
G01*
X77380314Y77689050D01*
X77447753Y77667933D01*
X77519700Y77689059D01*
X77531959Y77697250D01*
X77533955Y77697381D01*
X77535066Y77695718D01*
X77534733Y77694476D01*
X77511400Y77659556D01*
X77502000Y77612301D01*
X77502000Y76287699D01*
X77511400Y76240444D01*
X77534733Y76205524D01*
X77534864Y76203528D01*
X77533201Y76202417D01*
X77531959Y76202750D01*
X77519686Y76210950D01*
X77452247Y76232067D01*
X77380300Y76210941D01*
X77368041Y76202750D01*
X77366045Y76202619D01*
X77364934Y76204282D01*
X77365267Y76205524D01*
X77388600Y76240444D01*
X77398000Y76287699D01*
X77398000Y77612301D01*
X77388600Y77659556D01*
X77365267Y77694476D01*
X77365136Y77696472D01*
X77366799Y77697583D01*
X77368041Y77697250D01*
G37*
G36*
X77868041Y77697250D02*
G01*
X77880314Y77689050D01*
X77947753Y77667933D01*
X78019700Y77689059D01*
X78031959Y77697250D01*
X78033955Y77697381D01*
X78035066Y77695718D01*
X78034733Y77694476D01*
X78011400Y77659556D01*
X78002000Y77612301D01*
X78002000Y76287699D01*
X78011400Y76240444D01*
X78034733Y76205524D01*
X78034864Y76203528D01*
X78033201Y76202417D01*
X78031959Y76202750D01*
X78019686Y76210950D01*
X77952247Y76232067D01*
X77880300Y76210941D01*
X77868041Y76202750D01*
X77866045Y76202619D01*
X77864934Y76204282D01*
X77865267Y76205524D01*
X77888600Y76240444D01*
X77898000Y76287699D01*
X77898000Y77612301D01*
X77888600Y77659556D01*
X77865267Y77694476D01*
X77865136Y77696472D01*
X77866799Y77697583D01*
X77868041Y77697250D01*
G37*
G36*
X76868041Y77697250D02*
G01*
X76880314Y77689050D01*
X76947753Y77667933D01*
X77019700Y77689059D01*
X77031959Y77697250D01*
X77033955Y77697381D01*
X77035066Y77695718D01*
X77034733Y77694476D01*
X77011400Y77659556D01*
X77002000Y77612301D01*
X77002000Y76287699D01*
X77011400Y76240444D01*
X77034733Y76205524D01*
X77034864Y76203528D01*
X77033201Y76202417D01*
X77031959Y76202750D01*
X77019686Y76210950D01*
X76952247Y76232067D01*
X76880300Y76210941D01*
X76868041Y76202750D01*
X76866045Y76202619D01*
X76864934Y76204282D01*
X76865267Y76205524D01*
X76888600Y76240444D01*
X76898000Y76287699D01*
X76898000Y77612301D01*
X76888600Y77659556D01*
X76865267Y77694476D01*
X76865136Y77696472D01*
X76866799Y77697583D01*
X76868041Y77697250D01*
G37*
G36*
X78868041Y77697250D02*
G01*
X78880314Y77689050D01*
X78947753Y77667933D01*
X79019700Y77689059D01*
X79031959Y77697250D01*
X79033955Y77697381D01*
X79035066Y77695718D01*
X79034733Y77694476D01*
X79011400Y77659556D01*
X79002000Y77612301D01*
X79002000Y76287699D01*
X79011400Y76240444D01*
X79034733Y76205524D01*
X79034864Y76203528D01*
X79033201Y76202417D01*
X79031959Y76202750D01*
X79019686Y76210950D01*
X78952247Y76232067D01*
X78880300Y76210941D01*
X78868041Y76202750D01*
X78866045Y76202619D01*
X78864934Y76204282D01*
X78865267Y76205524D01*
X78888600Y76240444D01*
X78898000Y76287699D01*
X78898000Y77612301D01*
X78888600Y77659556D01*
X78865267Y77694476D01*
X78865136Y77696472D01*
X78866799Y77697583D01*
X78868041Y77697250D01*
G37*
G36*
X80368024Y78697233D02*
G01*
X80402944Y78673900D01*
X80450199Y78664500D01*
X81774801Y78664500D01*
X81822056Y78673900D01*
X81856976Y78697233D01*
X81858972Y78697364D01*
X81860083Y78695701D01*
X81859750Y78694459D01*
X81851550Y78682186D01*
X81830433Y78614747D01*
X81851559Y78542800D01*
X81859750Y78530541D01*
X81859881Y78528545D01*
X81858218Y78527434D01*
X81856976Y78527767D01*
X81822056Y78551100D01*
X81774801Y78560500D01*
X80450199Y78560500D01*
X80402944Y78551100D01*
X80368024Y78527767D01*
X80366028Y78527636D01*
X80364917Y78529299D01*
X80365250Y78530541D01*
X80373450Y78542814D01*
X80394567Y78610253D01*
X80373441Y78682200D01*
X80365250Y78694459D01*
X80365119Y78696455D01*
X80366782Y78697566D01*
X80368024Y78697233D01*
G37*
G36*
X72043024Y78697233D02*
G01*
X72077944Y78673900D01*
X72125199Y78664500D01*
X73449801Y78664500D01*
X73497056Y78673900D01*
X73531976Y78697233D01*
X73533972Y78697364D01*
X73535083Y78695701D01*
X73534750Y78694459D01*
X73526550Y78682186D01*
X73505433Y78614747D01*
X73526559Y78542800D01*
X73534750Y78530541D01*
X73534881Y78528545D01*
X73533218Y78527434D01*
X73531976Y78527767D01*
X73497056Y78551100D01*
X73449801Y78560500D01*
X72125199Y78560500D01*
X72077944Y78551100D01*
X72043024Y78527767D01*
X72041028Y78527636D01*
X72039917Y78529299D01*
X72040250Y78530541D01*
X72048450Y78542814D01*
X72069567Y78610253D01*
X72048441Y78682200D01*
X72040250Y78694459D01*
X72040119Y78696455D01*
X72041782Y78697566D01*
X72043024Y78697233D01*
G37*
G36*
X72043024Y79197233D02*
G01*
X72077944Y79173900D01*
X72125199Y79164500D01*
X73449801Y79164500D01*
X73497056Y79173900D01*
X73531976Y79197233D01*
X73533972Y79197364D01*
X73535083Y79195701D01*
X73534750Y79194459D01*
X73526550Y79182186D01*
X73505433Y79114747D01*
X73526559Y79042800D01*
X73534750Y79030541D01*
X73534881Y79028545D01*
X73533218Y79027434D01*
X73531976Y79027767D01*
X73497056Y79051100D01*
X73449801Y79060500D01*
X72125199Y79060500D01*
X72077944Y79051100D01*
X72043024Y79027767D01*
X72041028Y79027636D01*
X72039917Y79029299D01*
X72040250Y79030541D01*
X72048450Y79042814D01*
X72069567Y79110253D01*
X72048441Y79182200D01*
X72040250Y79194459D01*
X72040119Y79196455D01*
X72041782Y79197566D01*
X72043024Y79197233D01*
G37*
G36*
X80368024Y79197233D02*
G01*
X80402944Y79173900D01*
X80450199Y79164500D01*
X81774801Y79164500D01*
X81822056Y79173900D01*
X81856976Y79197233D01*
X81858972Y79197364D01*
X81860083Y79195701D01*
X81859750Y79194459D01*
X81851550Y79182186D01*
X81830433Y79114747D01*
X81851559Y79042800D01*
X81859750Y79030541D01*
X81859881Y79028545D01*
X81858218Y79027434D01*
X81856976Y79027767D01*
X81822056Y79051100D01*
X81774801Y79060500D01*
X80450199Y79060500D01*
X80402944Y79051100D01*
X80368024Y79027767D01*
X80366028Y79027636D01*
X80364917Y79029299D01*
X80365250Y79030541D01*
X80373450Y79042814D01*
X80394567Y79110253D01*
X80373441Y79182200D01*
X80365250Y79194459D01*
X80365119Y79196455D01*
X80366782Y79197566D01*
X80368024Y79197233D01*
G37*
G36*
X102765427Y81260907D02*
G01*
X102765991Y81258988D01*
X102765710Y81258349D01*
X102755691Y81243355D01*
X102752000Y81224801D01*
X102752000Y79475199D01*
X102755691Y79456645D01*
X102765603Y79441811D01*
X102765734Y79439815D01*
X102764071Y79438704D01*
X102763342Y79438791D01*
X102702247Y79457922D01*
X102636516Y79438621D01*
X102634573Y79439093D01*
X102634009Y79441012D01*
X102634290Y79441651D01*
X102644309Y79456645D01*
X102648000Y79475199D01*
X102648000Y81224801D01*
X102644309Y81243355D01*
X102634397Y81258189D01*
X102634266Y81260185D01*
X102635929Y81261296D01*
X102636658Y81261209D01*
X102697753Y81242078D01*
X102763484Y81261379D01*
X102765427Y81260907D01*
G37*
G36*
X103415427Y81260907D02*
G01*
X103415991Y81258988D01*
X103415710Y81258349D01*
X103405691Y81243355D01*
X103402000Y81224801D01*
X103402000Y79475199D01*
X103405691Y79456645D01*
X103415603Y79441811D01*
X103415734Y79439815D01*
X103414071Y79438704D01*
X103413342Y79438791D01*
X103352247Y79457922D01*
X103286516Y79438621D01*
X103284573Y79439093D01*
X103284009Y79441012D01*
X103284290Y79441651D01*
X103294309Y79456645D01*
X103298000Y79475199D01*
X103298000Y81224801D01*
X103294309Y81243355D01*
X103284397Y81258189D01*
X103284266Y81260185D01*
X103285929Y81261296D01*
X103286658Y81261209D01*
X103347753Y81242078D01*
X103413484Y81261379D01*
X103415427Y81260907D01*
G37*
G36*
X105365427Y81260907D02*
G01*
X105365991Y81258988D01*
X105365710Y81258349D01*
X105355691Y81243355D01*
X105352000Y81224801D01*
X105352000Y79475199D01*
X105355691Y79456645D01*
X105365603Y79441811D01*
X105365734Y79439815D01*
X105364071Y79438704D01*
X105363342Y79438791D01*
X105302247Y79457922D01*
X105236516Y79438621D01*
X105234573Y79439093D01*
X105234009Y79441012D01*
X105234290Y79441651D01*
X105244309Y79456645D01*
X105248000Y79475199D01*
X105248000Y81224801D01*
X105244309Y81243355D01*
X105234397Y81258189D01*
X105234266Y81260185D01*
X105235929Y81261296D01*
X105236658Y81261209D01*
X105297753Y81242078D01*
X105363484Y81261379D01*
X105365427Y81260907D01*
G37*
G36*
X106015427Y81260907D02*
G01*
X106015991Y81258988D01*
X106015710Y81258349D01*
X106005691Y81243355D01*
X106002000Y81224801D01*
X106002000Y79475199D01*
X106005691Y79456645D01*
X106015603Y79441811D01*
X106015734Y79439815D01*
X106014071Y79438704D01*
X106013342Y79438791D01*
X105952247Y79457922D01*
X105886516Y79438621D01*
X105884573Y79439093D01*
X105884009Y79441012D01*
X105884290Y79441651D01*
X105894309Y79456645D01*
X105898000Y79475199D01*
X105898000Y81224801D01*
X105894309Y81243355D01*
X105884397Y81258189D01*
X105884266Y81260185D01*
X105885929Y81261296D01*
X105886658Y81261209D01*
X105947753Y81242078D01*
X106013484Y81261379D01*
X106015427Y81260907D01*
G37*
G36*
X104065427Y81260907D02*
G01*
X104065991Y81258988D01*
X104065710Y81258349D01*
X104055691Y81243355D01*
X104052000Y81224801D01*
X104052000Y79475199D01*
X104055691Y79456645D01*
X104065603Y79441811D01*
X104065734Y79439815D01*
X104064071Y79438704D01*
X104063342Y79438791D01*
X104002247Y79457922D01*
X103936516Y79438621D01*
X103934573Y79439093D01*
X103934009Y79441012D01*
X103934290Y79441651D01*
X103944309Y79456645D01*
X103948000Y79475199D01*
X103948000Y81224801D01*
X103944309Y81243355D01*
X103934397Y81258189D01*
X103934266Y81260185D01*
X103935929Y81261296D01*
X103936658Y81261209D01*
X103997753Y81242078D01*
X104063484Y81261379D01*
X104065427Y81260907D01*
G37*
G36*
X100815427Y81260907D02*
G01*
X100815991Y81258988D01*
X100815710Y81258349D01*
X100805691Y81243355D01*
X100802000Y81224801D01*
X100802000Y79475199D01*
X100805691Y79456645D01*
X100815603Y79441811D01*
X100815734Y79439815D01*
X100814071Y79438704D01*
X100813342Y79438791D01*
X100752247Y79457922D01*
X100686516Y79438621D01*
X100684573Y79439093D01*
X100684009Y79441012D01*
X100684290Y79441651D01*
X100694309Y79456645D01*
X100698000Y79475199D01*
X100698000Y81224801D01*
X100694309Y81243355D01*
X100684397Y81258189D01*
X100684266Y81260185D01*
X100685929Y81261296D01*
X100686658Y81261209D01*
X100747753Y81242078D01*
X100813484Y81261379D01*
X100815427Y81260907D01*
G37*
G36*
X99515427Y81260907D02*
G01*
X99515991Y81258988D01*
X99515710Y81258349D01*
X99505691Y81243355D01*
X99502000Y81224801D01*
X99502000Y79475199D01*
X99505691Y79456645D01*
X99515603Y79441811D01*
X99515734Y79439815D01*
X99514071Y79438704D01*
X99513342Y79438791D01*
X99452247Y79457922D01*
X99386516Y79438621D01*
X99384573Y79439093D01*
X99384009Y79441012D01*
X99384290Y79441651D01*
X99394309Y79456645D01*
X99398000Y79475199D01*
X99398000Y81224801D01*
X99394309Y81243355D01*
X99384397Y81258189D01*
X99384266Y81260185D01*
X99385929Y81261296D01*
X99386658Y81261209D01*
X99447753Y81242078D01*
X99513484Y81261379D01*
X99515427Y81260907D01*
G37*
G36*
X102115427Y81260907D02*
G01*
X102115991Y81258988D01*
X102115710Y81258349D01*
X102105691Y81243355D01*
X102102000Y81224801D01*
X102102000Y79475199D01*
X102105691Y79456645D01*
X102115603Y79441811D01*
X102115734Y79439815D01*
X102114071Y79438704D01*
X102113342Y79438791D01*
X102052247Y79457922D01*
X101986516Y79438621D01*
X101984573Y79439093D01*
X101984009Y79441012D01*
X101984290Y79441651D01*
X101994309Y79456645D01*
X101998000Y79475199D01*
X101998000Y81224801D01*
X101994309Y81243355D01*
X101984397Y81258189D01*
X101984266Y81260185D01*
X101985929Y81261296D01*
X101986658Y81261209D01*
X102047753Y81242078D01*
X102113484Y81261379D01*
X102115427Y81260907D01*
G37*
G36*
X101465427Y81260907D02*
G01*
X101465991Y81258988D01*
X101465710Y81258349D01*
X101455691Y81243355D01*
X101452000Y81224801D01*
X101452000Y79475199D01*
X101455691Y79456645D01*
X101465603Y79441811D01*
X101465734Y79439815D01*
X101464071Y79438704D01*
X101463342Y79438791D01*
X101402247Y79457922D01*
X101336516Y79438621D01*
X101334573Y79439093D01*
X101334009Y79441012D01*
X101334290Y79441651D01*
X101344309Y79456645D01*
X101348000Y79475199D01*
X101348000Y81224801D01*
X101344309Y81243355D01*
X101334397Y81258189D01*
X101334266Y81260185D01*
X101335929Y81261296D01*
X101336658Y81261209D01*
X101397753Y81242078D01*
X101463484Y81261379D01*
X101465427Y81260907D01*
G37*
G36*
X100165427Y81260907D02*
G01*
X100165991Y81258988D01*
X100165710Y81258349D01*
X100155691Y81243355D01*
X100152000Y81224801D01*
X100152000Y79475199D01*
X100155691Y79456645D01*
X100165603Y79441811D01*
X100165734Y79439815D01*
X100164071Y79438704D01*
X100163342Y79438791D01*
X100102247Y79457922D01*
X100036516Y79438621D01*
X100034573Y79439093D01*
X100034009Y79441012D01*
X100034290Y79441651D01*
X100044309Y79456645D01*
X100048000Y79475199D01*
X100048000Y81224801D01*
X100044309Y81243355D01*
X100034397Y81258189D01*
X100034266Y81260185D01*
X100035929Y81261296D01*
X100036658Y81261209D01*
X100097753Y81242078D01*
X100163484Y81261379D01*
X100165427Y81260907D01*
G37*
G36*
X98215427Y81260907D02*
G01*
X98215991Y81258988D01*
X98215710Y81258349D01*
X98205691Y81243355D01*
X98202000Y81224801D01*
X98202000Y79475199D01*
X98205691Y79456645D01*
X98215603Y79441811D01*
X98215734Y79439815D01*
X98214071Y79438704D01*
X98213342Y79438791D01*
X98152247Y79457922D01*
X98086516Y79438621D01*
X98084573Y79439093D01*
X98084009Y79441012D01*
X98084290Y79441651D01*
X98094309Y79456645D01*
X98098000Y79475199D01*
X98098000Y81224801D01*
X98094309Y81243355D01*
X98084397Y81258189D01*
X98084266Y81260185D01*
X98085929Y81261296D01*
X98086658Y81261209D01*
X98147753Y81242078D01*
X98213484Y81261379D01*
X98215427Y81260907D01*
G37*
G36*
X98865427Y81260907D02*
G01*
X98865991Y81258988D01*
X98865710Y81258349D01*
X98855691Y81243355D01*
X98852000Y81224801D01*
X98852000Y79475199D01*
X98855691Y79456645D01*
X98865603Y79441811D01*
X98865734Y79439815D01*
X98864071Y79438704D01*
X98863342Y79438791D01*
X98802247Y79457922D01*
X98736516Y79438621D01*
X98734573Y79439093D01*
X98734009Y79441012D01*
X98734290Y79441651D01*
X98744309Y79456645D01*
X98748000Y79475199D01*
X98748000Y81224801D01*
X98744309Y81243355D01*
X98734397Y81258189D01*
X98734266Y81260185D01*
X98735929Y81261296D01*
X98736658Y81261209D01*
X98797753Y81242078D01*
X98863484Y81261379D01*
X98865427Y81260907D01*
G37*
G36*
X104715427Y81260907D02*
G01*
X104715991Y81258988D01*
X104715710Y81258349D01*
X104705691Y81243355D01*
X104702000Y81224801D01*
X104702000Y79475199D01*
X104705691Y79456645D01*
X104715603Y79441811D01*
X104715734Y79439815D01*
X104714071Y79438704D01*
X104713342Y79438791D01*
X104652247Y79457922D01*
X104586516Y79438621D01*
X104584573Y79439093D01*
X104584009Y79441012D01*
X104584290Y79441651D01*
X104594309Y79456645D01*
X104598000Y79475199D01*
X104598000Y81224801D01*
X104594309Y81243355D01*
X104584397Y81258189D01*
X104584266Y81260185D01*
X104585929Y81261296D01*
X104586658Y81261209D01*
X104647753Y81242078D01*
X104713484Y81261379D01*
X104715427Y81260907D01*
G37*
G36*
X80368024Y79697233D02*
G01*
X80402944Y79673900D01*
X80450199Y79664500D01*
X81774801Y79664500D01*
X81822056Y79673900D01*
X81856976Y79697233D01*
X81858972Y79697364D01*
X81860083Y79695701D01*
X81859750Y79694459D01*
X81851550Y79682186D01*
X81830433Y79614747D01*
X81851559Y79542800D01*
X81859750Y79530541D01*
X81859881Y79528545D01*
X81858218Y79527434D01*
X81856976Y79527767D01*
X81822056Y79551100D01*
X81774801Y79560500D01*
X80450199Y79560500D01*
X80402944Y79551100D01*
X80368024Y79527767D01*
X80366028Y79527636D01*
X80364917Y79529299D01*
X80365250Y79530541D01*
X80373450Y79542814D01*
X80394567Y79610253D01*
X80373441Y79682200D01*
X80365250Y79694459D01*
X80365119Y79696455D01*
X80366782Y79697566D01*
X80368024Y79697233D01*
G37*
G36*
X72043024Y79697233D02*
G01*
X72077944Y79673900D01*
X72125199Y79664500D01*
X73449801Y79664500D01*
X73497056Y79673900D01*
X73531976Y79697233D01*
X73533972Y79697364D01*
X73535083Y79695701D01*
X73534750Y79694459D01*
X73526550Y79682186D01*
X73505433Y79614747D01*
X73526559Y79542800D01*
X73534750Y79530541D01*
X73534881Y79528545D01*
X73533218Y79527434D01*
X73531976Y79527767D01*
X73497056Y79551100D01*
X73449801Y79560500D01*
X72125199Y79560500D01*
X72077944Y79551100D01*
X72043024Y79527767D01*
X72041028Y79527636D01*
X72039917Y79529299D01*
X72040250Y79530541D01*
X72048450Y79542814D01*
X72069567Y79610253D01*
X72048441Y79682200D01*
X72040250Y79694459D01*
X72040119Y79696455D01*
X72041782Y79697566D01*
X72043024Y79697233D01*
G37*
G36*
X72043024Y80197233D02*
G01*
X72077944Y80173900D01*
X72125199Y80164500D01*
X73449801Y80164500D01*
X73497056Y80173900D01*
X73531976Y80197233D01*
X73533972Y80197364D01*
X73535083Y80195701D01*
X73534750Y80194459D01*
X73526550Y80182186D01*
X73505433Y80114747D01*
X73526559Y80042800D01*
X73534750Y80030541D01*
X73534881Y80028545D01*
X73533218Y80027434D01*
X73531976Y80027767D01*
X73497056Y80051100D01*
X73449801Y80060500D01*
X72125199Y80060500D01*
X72077944Y80051100D01*
X72043024Y80027767D01*
X72041028Y80027636D01*
X72039917Y80029299D01*
X72040250Y80030541D01*
X72048450Y80042814D01*
X72069567Y80110253D01*
X72048441Y80182200D01*
X72040250Y80194459D01*
X72040119Y80196455D01*
X72041782Y80197566D01*
X72043024Y80197233D01*
G37*
G36*
X80368024Y80197233D02*
G01*
X80402944Y80173900D01*
X80450199Y80164500D01*
X81774801Y80164500D01*
X81822056Y80173900D01*
X81856976Y80197233D01*
X81858972Y80197364D01*
X81860083Y80195701D01*
X81859750Y80194459D01*
X81851550Y80182186D01*
X81830433Y80114747D01*
X81851559Y80042800D01*
X81859750Y80030541D01*
X81859881Y80028545D01*
X81858218Y80027434D01*
X81856976Y80027767D01*
X81822056Y80051100D01*
X81774801Y80060500D01*
X80450199Y80060500D01*
X80402944Y80051100D01*
X80368024Y80027767D01*
X80366028Y80027636D01*
X80364917Y80029299D01*
X80365250Y80030541D01*
X80373450Y80042814D01*
X80394567Y80110253D01*
X80373441Y80182200D01*
X80365250Y80194459D01*
X80365119Y80196455D01*
X80366782Y80197566D01*
X80368024Y80197233D01*
G37*
G36*
X72043024Y80697233D02*
G01*
X72077944Y80673900D01*
X72125199Y80664500D01*
X73449801Y80664500D01*
X73497056Y80673900D01*
X73531976Y80697233D01*
X73533972Y80697364D01*
X73535083Y80695701D01*
X73534750Y80694459D01*
X73526550Y80682186D01*
X73505433Y80614747D01*
X73526559Y80542800D01*
X73534750Y80530541D01*
X73534881Y80528545D01*
X73533218Y80527434D01*
X73531976Y80527767D01*
X73497056Y80551100D01*
X73449801Y80560500D01*
X72125199Y80560500D01*
X72077944Y80551100D01*
X72043024Y80527767D01*
X72041028Y80527636D01*
X72039917Y80529299D01*
X72040250Y80530541D01*
X72048450Y80542814D01*
X72069567Y80610253D01*
X72048441Y80682200D01*
X72040250Y80694459D01*
X72040119Y80696455D01*
X72041782Y80697566D01*
X72043024Y80697233D01*
G37*
G36*
X80368024Y80697233D02*
G01*
X80402944Y80673900D01*
X80450199Y80664500D01*
X81774801Y80664500D01*
X81822056Y80673900D01*
X81856976Y80697233D01*
X81858972Y80697364D01*
X81860083Y80695701D01*
X81859750Y80694459D01*
X81851550Y80682186D01*
X81830433Y80614747D01*
X81851559Y80542800D01*
X81859750Y80530541D01*
X81859881Y80528545D01*
X81858218Y80527434D01*
X81856976Y80527767D01*
X81822056Y80551100D01*
X81774801Y80560500D01*
X80450199Y80560500D01*
X80402944Y80551100D01*
X80368024Y80527767D01*
X80366028Y80527636D01*
X80364917Y80529299D01*
X80365250Y80530541D01*
X80373450Y80542814D01*
X80394567Y80610253D01*
X80373441Y80682200D01*
X80365250Y80694459D01*
X80365119Y80696455D01*
X80366782Y80697566D01*
X80368024Y80697233D01*
G37*
G36*
X72043024Y81197233D02*
G01*
X72077944Y81173900D01*
X72125199Y81164500D01*
X73449801Y81164500D01*
X73497056Y81173900D01*
X73531976Y81197233D01*
X73533972Y81197364D01*
X73535083Y81195701D01*
X73534750Y81194459D01*
X73526550Y81182186D01*
X73505433Y81114747D01*
X73526559Y81042800D01*
X73534750Y81030541D01*
X73534881Y81028545D01*
X73533218Y81027434D01*
X73531976Y81027767D01*
X73497056Y81051100D01*
X73449801Y81060500D01*
X72125199Y81060500D01*
X72077944Y81051100D01*
X72043024Y81027767D01*
X72041028Y81027636D01*
X72039917Y81029299D01*
X72040250Y81030541D01*
X72048450Y81042814D01*
X72069567Y81110253D01*
X72048441Y81182200D01*
X72040250Y81194459D01*
X72040119Y81196455D01*
X72041782Y81197566D01*
X72043024Y81197233D01*
G37*
G36*
X80368024Y81197233D02*
G01*
X80402944Y81173900D01*
X80450199Y81164500D01*
X81774801Y81164500D01*
X81822056Y81173900D01*
X81856976Y81197233D01*
X81858972Y81197364D01*
X81860083Y81195701D01*
X81859750Y81194459D01*
X81851550Y81182186D01*
X81830433Y81114747D01*
X81851559Y81042800D01*
X81859750Y81030541D01*
X81859881Y81028545D01*
X81858218Y81027434D01*
X81856976Y81027767D01*
X81822056Y81051100D01*
X81774801Y81060500D01*
X80450199Y81060500D01*
X80402944Y81051100D01*
X80368024Y81027767D01*
X80366028Y81027636D01*
X80364917Y81029299D01*
X80365250Y81030541D01*
X80373450Y81042814D01*
X80394567Y81110253D01*
X80373441Y81182200D01*
X80365250Y81194459D01*
X80365119Y81196455D01*
X80366782Y81197566D01*
X80368024Y81197233D01*
G37*
G36*
X80368024Y81697233D02*
G01*
X80402944Y81673900D01*
X80450199Y81664500D01*
X81774801Y81664500D01*
X81822056Y81673900D01*
X81856976Y81697233D01*
X81858972Y81697364D01*
X81860083Y81695701D01*
X81859750Y81694459D01*
X81851550Y81682186D01*
X81830433Y81614747D01*
X81851559Y81542800D01*
X81859750Y81530541D01*
X81859881Y81528545D01*
X81858218Y81527434D01*
X81856976Y81527767D01*
X81822056Y81551100D01*
X81774801Y81560500D01*
X80450199Y81560500D01*
X80402944Y81551100D01*
X80368024Y81527767D01*
X80366028Y81527636D01*
X80364917Y81529299D01*
X80365250Y81530541D01*
X80373450Y81542814D01*
X80394567Y81610253D01*
X80373441Y81682200D01*
X80365250Y81694459D01*
X80365119Y81696455D01*
X80366782Y81697566D01*
X80368024Y81697233D01*
G37*
G36*
X72043024Y81697233D02*
G01*
X72077944Y81673900D01*
X72125199Y81664500D01*
X73449801Y81664500D01*
X73497056Y81673900D01*
X73531976Y81697233D01*
X73533972Y81697364D01*
X73535083Y81695701D01*
X73534750Y81694459D01*
X73526550Y81682186D01*
X73505433Y81614747D01*
X73526559Y81542800D01*
X73534750Y81530541D01*
X73534881Y81528545D01*
X73533218Y81527434D01*
X73531976Y81527767D01*
X73497056Y81551100D01*
X73449801Y81560500D01*
X72125199Y81560500D01*
X72077944Y81551100D01*
X72043024Y81527767D01*
X72041028Y81527636D01*
X72039917Y81529299D01*
X72040250Y81530541D01*
X72048450Y81542814D01*
X72069567Y81610253D01*
X72048441Y81682200D01*
X72040250Y81694459D01*
X72040119Y81696455D01*
X72041782Y81697566D01*
X72043024Y81697233D01*
G37*
G36*
X72043024Y82197233D02*
G01*
X72077944Y82173900D01*
X72125199Y82164500D01*
X73449801Y82164500D01*
X73497056Y82173900D01*
X73531976Y82197233D01*
X73533972Y82197364D01*
X73535083Y82195701D01*
X73534750Y82194459D01*
X73526550Y82182186D01*
X73505433Y82114747D01*
X73526559Y82042800D01*
X73534750Y82030541D01*
X73534881Y82028545D01*
X73533218Y82027434D01*
X73531976Y82027767D01*
X73497056Y82051100D01*
X73449801Y82060500D01*
X72125199Y82060500D01*
X72077944Y82051100D01*
X72043024Y82027767D01*
X72041028Y82027636D01*
X72039917Y82029299D01*
X72040250Y82030541D01*
X72048450Y82042814D01*
X72069567Y82110253D01*
X72048441Y82182200D01*
X72040250Y82194459D01*
X72040119Y82196455D01*
X72041782Y82197566D01*
X72043024Y82197233D01*
G37*
G36*
X80368024Y82197233D02*
G01*
X80402944Y82173900D01*
X80450199Y82164500D01*
X81774801Y82164500D01*
X81822056Y82173900D01*
X81856976Y82197233D01*
X81858972Y82197364D01*
X81860083Y82195701D01*
X81859750Y82194459D01*
X81851550Y82182186D01*
X81830433Y82114747D01*
X81851559Y82042800D01*
X81859750Y82030541D01*
X81859881Y82028545D01*
X81858218Y82027434D01*
X81856976Y82027767D01*
X81822056Y82051100D01*
X81774801Y82060500D01*
X80450199Y82060500D01*
X80402944Y82051100D01*
X80368024Y82027767D01*
X80366028Y82027636D01*
X80364917Y82029299D01*
X80365250Y82030541D01*
X80373450Y82042814D01*
X80394567Y82110253D01*
X80373441Y82182200D01*
X80365250Y82194459D01*
X80365119Y82196455D01*
X80366782Y82197566D01*
X80368024Y82197233D01*
G37*
G36*
X80368024Y82697233D02*
G01*
X80402944Y82673900D01*
X80450199Y82664500D01*
X81774801Y82664500D01*
X81822056Y82673900D01*
X81856976Y82697233D01*
X81858972Y82697364D01*
X81860083Y82695701D01*
X81859750Y82694459D01*
X81851550Y82682186D01*
X81830433Y82614747D01*
X81851559Y82542800D01*
X81859750Y82530541D01*
X81859881Y82528545D01*
X81858218Y82527434D01*
X81856976Y82527767D01*
X81822056Y82551100D01*
X81774801Y82560500D01*
X80450199Y82560500D01*
X80402944Y82551100D01*
X80368024Y82527767D01*
X80366028Y82527636D01*
X80364917Y82529299D01*
X80365250Y82530541D01*
X80373450Y82542814D01*
X80394567Y82610253D01*
X80373441Y82682200D01*
X80365250Y82694459D01*
X80365119Y82696455D01*
X80366782Y82697566D01*
X80368024Y82697233D01*
G37*
G36*
X72043024Y82697233D02*
G01*
X72077944Y82673900D01*
X72125199Y82664500D01*
X73449801Y82664500D01*
X73497056Y82673900D01*
X73531976Y82697233D01*
X73533972Y82697364D01*
X73535083Y82695701D01*
X73534750Y82694459D01*
X73526550Y82682186D01*
X73505433Y82614747D01*
X73526559Y82542800D01*
X73534750Y82530541D01*
X73534881Y82528545D01*
X73533218Y82527434D01*
X73531976Y82527767D01*
X73497056Y82551100D01*
X73449801Y82560500D01*
X72125199Y82560500D01*
X72077944Y82551100D01*
X72043024Y82527767D01*
X72041028Y82527636D01*
X72039917Y82529299D01*
X72040250Y82530541D01*
X72048450Y82542814D01*
X72069567Y82610253D01*
X72048441Y82682200D01*
X72040250Y82694459D01*
X72040119Y82696455D01*
X72041782Y82697566D01*
X72043024Y82697233D01*
G37*
G36*
X80368024Y83197233D02*
G01*
X80402944Y83173900D01*
X80450199Y83164500D01*
X81774801Y83164500D01*
X81822056Y83173900D01*
X81856976Y83197233D01*
X81858972Y83197364D01*
X81860083Y83195701D01*
X81859750Y83194459D01*
X81851550Y83182186D01*
X81830433Y83114747D01*
X81851559Y83042800D01*
X81859750Y83030541D01*
X81859881Y83028545D01*
X81858218Y83027434D01*
X81856976Y83027767D01*
X81822056Y83051100D01*
X81774801Y83060500D01*
X80450199Y83060500D01*
X80402944Y83051100D01*
X80368024Y83027767D01*
X80366028Y83027636D01*
X80364917Y83029299D01*
X80365250Y83030541D01*
X80373450Y83042814D01*
X80394567Y83110253D01*
X80373441Y83182200D01*
X80365250Y83194459D01*
X80365119Y83196455D01*
X80366782Y83197566D01*
X80368024Y83197233D01*
G37*
G36*
X72043024Y83197233D02*
G01*
X72077944Y83173900D01*
X72125199Y83164500D01*
X73449801Y83164500D01*
X73497056Y83173900D01*
X73531976Y83197233D01*
X73533972Y83197364D01*
X73535083Y83195701D01*
X73534750Y83194459D01*
X73526550Y83182186D01*
X73505433Y83114747D01*
X73526559Y83042800D01*
X73534750Y83030541D01*
X73534881Y83028545D01*
X73533218Y83027434D01*
X73531976Y83027767D01*
X73497056Y83051100D01*
X73449801Y83060500D01*
X72125199Y83060500D01*
X72077944Y83051100D01*
X72043024Y83027767D01*
X72041028Y83027636D01*
X72039917Y83029299D01*
X72040250Y83030541D01*
X72048450Y83042814D01*
X72069567Y83110253D01*
X72048441Y83182200D01*
X72040250Y83194459D01*
X72040119Y83196455D01*
X72041782Y83197566D01*
X72043024Y83197233D01*
G37*
G36*
X72043024Y83697233D02*
G01*
X72077944Y83673900D01*
X72125199Y83664500D01*
X73449801Y83664500D01*
X73497056Y83673900D01*
X73531976Y83697233D01*
X73533972Y83697364D01*
X73535083Y83695701D01*
X73534750Y83694459D01*
X73526550Y83682186D01*
X73505433Y83614747D01*
X73526559Y83542800D01*
X73534750Y83530541D01*
X73534881Y83528545D01*
X73533218Y83527434D01*
X73531976Y83527767D01*
X73497056Y83551100D01*
X73449801Y83560500D01*
X72125199Y83560500D01*
X72077944Y83551100D01*
X72043024Y83527767D01*
X72041028Y83527636D01*
X72039917Y83529299D01*
X72040250Y83530541D01*
X72048450Y83542814D01*
X72069567Y83610253D01*
X72048441Y83682200D01*
X72040250Y83694459D01*
X72040119Y83696455D01*
X72041782Y83697566D01*
X72043024Y83697233D01*
G37*
G36*
X80368024Y83697233D02*
G01*
X80402944Y83673900D01*
X80450199Y83664500D01*
X81774801Y83664500D01*
X81822056Y83673900D01*
X81856976Y83697233D01*
X81858972Y83697364D01*
X81860083Y83695701D01*
X81859750Y83694459D01*
X81851550Y83682186D01*
X81830433Y83614747D01*
X81851559Y83542800D01*
X81859750Y83530541D01*
X81859881Y83528545D01*
X81858218Y83527434D01*
X81856976Y83527767D01*
X81822056Y83551100D01*
X81774801Y83560500D01*
X80450199Y83560500D01*
X80402944Y83551100D01*
X80368024Y83527767D01*
X80366028Y83527636D01*
X80364917Y83529299D01*
X80365250Y83530541D01*
X80373450Y83542814D01*
X80394567Y83610253D01*
X80373441Y83682200D01*
X80365250Y83694459D01*
X80365119Y83696455D01*
X80366782Y83697566D01*
X80368024Y83697233D01*
G37*
G36*
X45070754Y85862614D02*
G01*
X45086543Y85846853D01*
X45148611Y85813031D01*
X45218889Y85818119D01*
X45263676Y85846959D01*
X45279126Y85862435D01*
X45281057Y85862954D01*
X45282472Y85861541D01*
X45282204Y85859911D01*
X45263303Y85831624D01*
X45252000Y85774801D01*
X45252000Y84500199D01*
X45263303Y84443376D01*
X45282322Y84414912D01*
X45282453Y84412916D01*
X45280790Y84411805D01*
X45279246Y84412386D01*
X45263457Y84428147D01*
X45201389Y84461969D01*
X45131111Y84456881D01*
X45086324Y84428041D01*
X45070874Y84412565D01*
X45068943Y84412046D01*
X45067528Y84413459D01*
X45067796Y84415089D01*
X45086697Y84443376D01*
X45098000Y84500199D01*
X45098000Y85774801D01*
X45086697Y85831624D01*
X45067678Y85860088D01*
X45067547Y85862084D01*
X45069210Y85863195D01*
X45070754Y85862614D01*
G37*
G36*
X46370754Y85862614D02*
G01*
X46386543Y85846853D01*
X46448611Y85813031D01*
X46518889Y85818119D01*
X46563676Y85846959D01*
X46579126Y85862435D01*
X46581057Y85862954D01*
X46582472Y85861541D01*
X46582204Y85859911D01*
X46563303Y85831624D01*
X46552000Y85774801D01*
X46552000Y84500199D01*
X46563303Y84443376D01*
X46582322Y84414912D01*
X46582453Y84412916D01*
X46580790Y84411805D01*
X46579246Y84412386D01*
X46563457Y84428147D01*
X46501389Y84461969D01*
X46431111Y84456881D01*
X46386324Y84428041D01*
X46370874Y84412565D01*
X46368943Y84412046D01*
X46367528Y84413459D01*
X46367796Y84415089D01*
X46386697Y84443376D01*
X46398000Y84500199D01*
X46398000Y85774801D01*
X46386697Y85831624D01*
X46367678Y85860088D01*
X46367547Y85862084D01*
X46369210Y85863195D01*
X46370754Y85862614D01*
G37*
G36*
X44420754Y85862614D02*
G01*
X44436543Y85846853D01*
X44498611Y85813031D01*
X44568889Y85818119D01*
X44613676Y85846959D01*
X44629126Y85862435D01*
X44631057Y85862954D01*
X44632472Y85861541D01*
X44632204Y85859911D01*
X44613303Y85831624D01*
X44602000Y85774801D01*
X44602000Y84500199D01*
X44613303Y84443376D01*
X44632322Y84414912D01*
X44632453Y84412916D01*
X44630790Y84411805D01*
X44629246Y84412386D01*
X44613457Y84428147D01*
X44551389Y84461969D01*
X44481111Y84456881D01*
X44436324Y84428041D01*
X44420874Y84412565D01*
X44418943Y84412046D01*
X44417528Y84413459D01*
X44417796Y84415089D01*
X44436697Y84443376D01*
X44448000Y84500199D01*
X44448000Y85774801D01*
X44436697Y85831624D01*
X44417678Y85860088D01*
X44417547Y85862084D01*
X44419210Y85863195D01*
X44420754Y85862614D01*
G37*
G36*
X43770754Y85862614D02*
G01*
X43786543Y85846853D01*
X43848611Y85813031D01*
X43918889Y85818119D01*
X43963676Y85846959D01*
X43979126Y85862435D01*
X43981057Y85862954D01*
X43982472Y85861541D01*
X43982204Y85859911D01*
X43963303Y85831624D01*
X43952000Y85774801D01*
X43952000Y84500199D01*
X43963303Y84443376D01*
X43982322Y84414912D01*
X43982453Y84412916D01*
X43980790Y84411805D01*
X43979246Y84412386D01*
X43963457Y84428147D01*
X43901389Y84461969D01*
X43831111Y84456881D01*
X43786324Y84428041D01*
X43770874Y84412565D01*
X43768943Y84412046D01*
X43767528Y84413459D01*
X43767796Y84415089D01*
X43786697Y84443376D01*
X43798000Y84500199D01*
X43798000Y85774801D01*
X43786697Y85831624D01*
X43767678Y85860088D01*
X43767547Y85862084D01*
X43769210Y85863195D01*
X43770754Y85862614D01*
G37*
G36*
X47020754Y85862614D02*
G01*
X47036543Y85846853D01*
X47098611Y85813031D01*
X47168889Y85818119D01*
X47213676Y85846959D01*
X47229126Y85862435D01*
X47231057Y85862954D01*
X47232472Y85861541D01*
X47232204Y85859911D01*
X47213303Y85831624D01*
X47202000Y85774801D01*
X47202000Y84500199D01*
X47213303Y84443376D01*
X47232322Y84414912D01*
X47232453Y84412916D01*
X47230790Y84411805D01*
X47229246Y84412386D01*
X47213457Y84428147D01*
X47151389Y84461969D01*
X47081111Y84456881D01*
X47036324Y84428041D01*
X47020874Y84412565D01*
X47018943Y84412046D01*
X47017528Y84413459D01*
X47017796Y84415089D01*
X47036697Y84443376D01*
X47048000Y84500199D01*
X47048000Y85774801D01*
X47036697Y85831624D01*
X47017678Y85860088D01*
X47017547Y85862084D01*
X47019210Y85863195D01*
X47020754Y85862614D01*
G37*
G36*
X45720754Y85862614D02*
G01*
X45736543Y85846853D01*
X45798611Y85813031D01*
X45868889Y85818119D01*
X45913676Y85846959D01*
X45929126Y85862435D01*
X45931057Y85862954D01*
X45932472Y85861541D01*
X45932204Y85859911D01*
X45913303Y85831624D01*
X45902000Y85774801D01*
X45902000Y84500199D01*
X45913303Y84443376D01*
X45932322Y84414912D01*
X45932453Y84412916D01*
X45930790Y84411805D01*
X45929246Y84412386D01*
X45913457Y84428147D01*
X45851389Y84461969D01*
X45781111Y84456881D01*
X45736324Y84428041D01*
X45720874Y84412565D01*
X45718943Y84412046D01*
X45717528Y84413459D01*
X45717796Y84415089D01*
X45736697Y84443376D01*
X45748000Y84500199D01*
X45748000Y85774801D01*
X45736697Y85831624D01*
X45717678Y85860088D01*
X45717547Y85862084D01*
X45719210Y85863195D01*
X45720754Y85862614D01*
G37*
G36*
X79368041Y86022250D02*
G01*
X79380314Y86014050D01*
X79447753Y85992933D01*
X79519700Y86014059D01*
X79531959Y86022250D01*
X79533955Y86022381D01*
X79535066Y86020718D01*
X79534733Y86019476D01*
X79511400Y85984556D01*
X79502000Y85937301D01*
X79502000Y84612699D01*
X79511400Y84565444D01*
X79534733Y84530524D01*
X79534864Y84528528D01*
X79533201Y84527417D01*
X79531959Y84527750D01*
X79519686Y84535950D01*
X79452247Y84557067D01*
X79380300Y84535941D01*
X79368041Y84527750D01*
X79366045Y84527619D01*
X79364934Y84529282D01*
X79365267Y84530524D01*
X79388600Y84565444D01*
X79398000Y84612699D01*
X79398000Y85937301D01*
X79388600Y85984556D01*
X79365267Y86019476D01*
X79365136Y86021472D01*
X79366799Y86022583D01*
X79368041Y86022250D01*
G37*
G36*
X78368041Y86022250D02*
G01*
X78380314Y86014050D01*
X78447753Y85992933D01*
X78519700Y86014059D01*
X78531959Y86022250D01*
X78533955Y86022381D01*
X78535066Y86020718D01*
X78534733Y86019476D01*
X78511400Y85984556D01*
X78502000Y85937301D01*
X78502000Y84612699D01*
X78511400Y84565444D01*
X78534733Y84530524D01*
X78534864Y84528528D01*
X78533201Y84527417D01*
X78531959Y84527750D01*
X78519686Y84535950D01*
X78452247Y84557067D01*
X78380300Y84535941D01*
X78368041Y84527750D01*
X78366045Y84527619D01*
X78364934Y84529282D01*
X78365267Y84530524D01*
X78388600Y84565444D01*
X78398000Y84612699D01*
X78398000Y85937301D01*
X78388600Y85984556D01*
X78365267Y86019476D01*
X78365136Y86021472D01*
X78366799Y86022583D01*
X78368041Y86022250D01*
G37*
G36*
X77868041Y86022250D02*
G01*
X77880314Y86014050D01*
X77947753Y85992933D01*
X78019700Y86014059D01*
X78031959Y86022250D01*
X78033955Y86022381D01*
X78035066Y86020718D01*
X78034733Y86019476D01*
X78011400Y85984556D01*
X78002000Y85937301D01*
X78002000Y84612699D01*
X78011400Y84565444D01*
X78034733Y84530524D01*
X78034864Y84528528D01*
X78033201Y84527417D01*
X78031959Y84527750D01*
X78019686Y84535950D01*
X77952247Y84557067D01*
X77880300Y84535941D01*
X77868041Y84527750D01*
X77866045Y84527619D01*
X77864934Y84529282D01*
X77865267Y84530524D01*
X77888600Y84565444D01*
X77898000Y84612699D01*
X77898000Y85937301D01*
X77888600Y85984556D01*
X77865267Y86019476D01*
X77865136Y86021472D01*
X77866799Y86022583D01*
X77868041Y86022250D01*
G37*
G36*
X74868041Y86022250D02*
G01*
X74880314Y86014050D01*
X74947753Y85992933D01*
X75019700Y86014059D01*
X75031959Y86022250D01*
X75033955Y86022381D01*
X75035066Y86020718D01*
X75034733Y86019476D01*
X75011400Y85984556D01*
X75002000Y85937301D01*
X75002000Y84612699D01*
X75011400Y84565444D01*
X75034733Y84530524D01*
X75034864Y84528528D01*
X75033201Y84527417D01*
X75031959Y84527750D01*
X75019686Y84535950D01*
X74952247Y84557067D01*
X74880300Y84535941D01*
X74868041Y84527750D01*
X74866045Y84527619D01*
X74864934Y84529282D01*
X74865267Y84530524D01*
X74888600Y84565444D01*
X74898000Y84612699D01*
X74898000Y85937301D01*
X74888600Y85984556D01*
X74865267Y86019476D01*
X74865136Y86021472D01*
X74866799Y86022583D01*
X74868041Y86022250D01*
G37*
G36*
X75368041Y86022250D02*
G01*
X75380314Y86014050D01*
X75447753Y85992933D01*
X75519700Y86014059D01*
X75531959Y86022250D01*
X75533955Y86022381D01*
X75535066Y86020718D01*
X75534733Y86019476D01*
X75511400Y85984556D01*
X75502000Y85937301D01*
X75502000Y84612699D01*
X75511400Y84565444D01*
X75534733Y84530524D01*
X75534864Y84528528D01*
X75533201Y84527417D01*
X75531959Y84527750D01*
X75519686Y84535950D01*
X75452247Y84557067D01*
X75380300Y84535941D01*
X75368041Y84527750D01*
X75366045Y84527619D01*
X75364934Y84529282D01*
X75365267Y84530524D01*
X75388600Y84565444D01*
X75398000Y84612699D01*
X75398000Y85937301D01*
X75388600Y85984556D01*
X75365267Y86019476D01*
X75365136Y86021472D01*
X75366799Y86022583D01*
X75368041Y86022250D01*
G37*
G36*
X78868041Y86022250D02*
G01*
X78880314Y86014050D01*
X78947753Y85992933D01*
X79019700Y86014059D01*
X79031959Y86022250D01*
X79033955Y86022381D01*
X79035066Y86020718D01*
X79034733Y86019476D01*
X79011400Y85984556D01*
X79002000Y85937301D01*
X79002000Y84612699D01*
X79011400Y84565444D01*
X79034733Y84530524D01*
X79034864Y84528528D01*
X79033201Y84527417D01*
X79031959Y84527750D01*
X79019686Y84535950D01*
X78952247Y84557067D01*
X78880300Y84535941D01*
X78868041Y84527750D01*
X78866045Y84527619D01*
X78864934Y84529282D01*
X78865267Y84530524D01*
X78888600Y84565444D01*
X78898000Y84612699D01*
X78898000Y85937301D01*
X78888600Y85984556D01*
X78865267Y86019476D01*
X78865136Y86021472D01*
X78866799Y86022583D01*
X78868041Y86022250D01*
G37*
G36*
X76868041Y86022250D02*
G01*
X76880314Y86014050D01*
X76947753Y85992933D01*
X77019700Y86014059D01*
X77031959Y86022250D01*
X77033955Y86022381D01*
X77035066Y86020718D01*
X77034733Y86019476D01*
X77011400Y85984556D01*
X77002000Y85937301D01*
X77002000Y84612699D01*
X77011400Y84565444D01*
X77034733Y84530524D01*
X77034864Y84528528D01*
X77033201Y84527417D01*
X77031959Y84527750D01*
X77019686Y84535950D01*
X76952247Y84557067D01*
X76880300Y84535941D01*
X76868041Y84527750D01*
X76866045Y84527619D01*
X76864934Y84529282D01*
X76865267Y84530524D01*
X76888600Y84565444D01*
X76898000Y84612699D01*
X76898000Y85937301D01*
X76888600Y85984556D01*
X76865267Y86019476D01*
X76865136Y86021472D01*
X76866799Y86022583D01*
X76868041Y86022250D01*
G37*
G36*
X76368041Y86022250D02*
G01*
X76380314Y86014050D01*
X76447753Y85992933D01*
X76519700Y86014059D01*
X76531959Y86022250D01*
X76533955Y86022381D01*
X76535066Y86020718D01*
X76534733Y86019476D01*
X76511400Y85984556D01*
X76502000Y85937301D01*
X76502000Y84612699D01*
X76511400Y84565444D01*
X76534733Y84530524D01*
X76534864Y84528528D01*
X76533201Y84527417D01*
X76531959Y84527750D01*
X76519686Y84535950D01*
X76452247Y84557067D01*
X76380300Y84535941D01*
X76368041Y84527750D01*
X76366045Y84527619D01*
X76364934Y84529282D01*
X76365267Y84530524D01*
X76388600Y84565444D01*
X76398000Y84612699D01*
X76398000Y85937301D01*
X76388600Y85984556D01*
X76365267Y86019476D01*
X76365136Y86021472D01*
X76366799Y86022583D01*
X76368041Y86022250D01*
G37*
G36*
X77368041Y86022250D02*
G01*
X77380314Y86014050D01*
X77447753Y85992933D01*
X77519700Y86014059D01*
X77531959Y86022250D01*
X77533955Y86022381D01*
X77535066Y86020718D01*
X77534733Y86019476D01*
X77511400Y85984556D01*
X77502000Y85937301D01*
X77502000Y84612699D01*
X77511400Y84565444D01*
X77534733Y84530524D01*
X77534864Y84528528D01*
X77533201Y84527417D01*
X77531959Y84527750D01*
X77519686Y84535950D01*
X77452247Y84557067D01*
X77380300Y84535941D01*
X77368041Y84527750D01*
X77366045Y84527619D01*
X77364934Y84529282D01*
X77365267Y84530524D01*
X77388600Y84565444D01*
X77398000Y84612699D01*
X77398000Y85937301D01*
X77388600Y85984556D01*
X77365267Y86019476D01*
X77365136Y86021472D01*
X77366799Y86022583D01*
X77368041Y86022250D01*
G37*
G36*
X74368041Y86022250D02*
G01*
X74380314Y86014050D01*
X74447753Y85992933D01*
X74519700Y86014059D01*
X74531959Y86022250D01*
X74533955Y86022381D01*
X74535066Y86020718D01*
X74534733Y86019476D01*
X74511400Y85984556D01*
X74502000Y85937301D01*
X74502000Y84612699D01*
X74511400Y84565444D01*
X74534733Y84530524D01*
X74534864Y84528528D01*
X74533201Y84527417D01*
X74531959Y84527750D01*
X74519686Y84535950D01*
X74452247Y84557067D01*
X74380300Y84535941D01*
X74368041Y84527750D01*
X74366045Y84527619D01*
X74364934Y84529282D01*
X74365267Y84530524D01*
X74388600Y84565444D01*
X74398000Y84612699D01*
X74398000Y85937301D01*
X74388600Y85984556D01*
X74365267Y86019476D01*
X74365136Y86021472D01*
X74366799Y86022583D01*
X74368041Y86022250D01*
G37*
G36*
X75868041Y86022250D02*
G01*
X75880314Y86014050D01*
X75947753Y85992933D01*
X76019700Y86014059D01*
X76031959Y86022250D01*
X76033955Y86022381D01*
X76035066Y86020718D01*
X76034733Y86019476D01*
X76011400Y85984556D01*
X76002000Y85937301D01*
X76002000Y84612699D01*
X76011400Y84565444D01*
X76034733Y84530524D01*
X76034864Y84528528D01*
X76033201Y84527417D01*
X76031959Y84527750D01*
X76019686Y84535950D01*
X75952247Y84557067D01*
X75880300Y84535941D01*
X75868041Y84527750D01*
X75866045Y84527619D01*
X75864934Y84529282D01*
X75865267Y84530524D01*
X75888600Y84565444D01*
X75898000Y84612699D01*
X75898000Y85937301D01*
X75888600Y85984556D01*
X75865267Y86019476D01*
X75865136Y86021472D01*
X75866799Y86022583D01*
X75868041Y86022250D01*
G37*
G36*
X46370754Y91587614D02*
G01*
X46386543Y91571853D01*
X46448611Y91538031D01*
X46518889Y91543119D01*
X46563676Y91571959D01*
X46579126Y91587435D01*
X46581057Y91587954D01*
X46582472Y91586541D01*
X46582204Y91584911D01*
X46563303Y91556624D01*
X46552000Y91499801D01*
X46552000Y90225199D01*
X46563303Y90168376D01*
X46582322Y90139912D01*
X46582453Y90137916D01*
X46580790Y90136805D01*
X46579246Y90137386D01*
X46563457Y90153147D01*
X46501389Y90186969D01*
X46431111Y90181881D01*
X46386324Y90153041D01*
X46370874Y90137565D01*
X46368943Y90137046D01*
X46367528Y90138459D01*
X46367796Y90140089D01*
X46386697Y90168376D01*
X46398000Y90225199D01*
X46398000Y91499801D01*
X46386697Y91556624D01*
X46367678Y91585088D01*
X46367547Y91587084D01*
X46369210Y91588195D01*
X46370754Y91587614D01*
G37*
G36*
X47020754Y91587614D02*
G01*
X47036543Y91571853D01*
X47098611Y91538031D01*
X47168889Y91543119D01*
X47213676Y91571959D01*
X47229126Y91587435D01*
X47231057Y91587954D01*
X47232472Y91586541D01*
X47232204Y91584911D01*
X47213303Y91556624D01*
X47202000Y91499801D01*
X47202000Y90225199D01*
X47213303Y90168376D01*
X47232322Y90139912D01*
X47232453Y90137916D01*
X47230790Y90136805D01*
X47229246Y90137386D01*
X47213457Y90153147D01*
X47151389Y90186969D01*
X47081111Y90181881D01*
X47036324Y90153041D01*
X47020874Y90137565D01*
X47018943Y90137046D01*
X47017528Y90138459D01*
X47017796Y90140089D01*
X47036697Y90168376D01*
X47048000Y90225199D01*
X47048000Y91499801D01*
X47036697Y91556624D01*
X47017678Y91585088D01*
X47017547Y91587084D01*
X47019210Y91588195D01*
X47020754Y91587614D01*
G37*
G36*
X45720754Y91587614D02*
G01*
X45736543Y91571853D01*
X45798611Y91538031D01*
X45868889Y91543119D01*
X45913676Y91571959D01*
X45929126Y91587435D01*
X45931057Y91587954D01*
X45932472Y91586541D01*
X45932204Y91584911D01*
X45913303Y91556624D01*
X45902000Y91499801D01*
X45902000Y90225199D01*
X45913303Y90168376D01*
X45932322Y90139912D01*
X45932453Y90137916D01*
X45930790Y90136805D01*
X45929246Y90137386D01*
X45913457Y90153147D01*
X45851389Y90186969D01*
X45781111Y90181881D01*
X45736324Y90153041D01*
X45720874Y90137565D01*
X45718943Y90137046D01*
X45717528Y90138459D01*
X45717796Y90140089D01*
X45736697Y90168376D01*
X45748000Y90225199D01*
X45748000Y91499801D01*
X45736697Y91556624D01*
X45717678Y91585088D01*
X45717547Y91587084D01*
X45719210Y91588195D01*
X45720754Y91587614D01*
G37*
G36*
X45070754Y91587614D02*
G01*
X45086543Y91571853D01*
X45148611Y91538031D01*
X45218889Y91543119D01*
X45263676Y91571959D01*
X45279126Y91587435D01*
X45281057Y91587954D01*
X45282472Y91586541D01*
X45282204Y91584911D01*
X45263303Y91556624D01*
X45252000Y91499801D01*
X45252000Y90225199D01*
X45263303Y90168376D01*
X45282322Y90139912D01*
X45282453Y90137916D01*
X45280790Y90136805D01*
X45279246Y90137386D01*
X45263457Y90153147D01*
X45201389Y90186969D01*
X45131111Y90181881D01*
X45086324Y90153041D01*
X45070874Y90137565D01*
X45068943Y90137046D01*
X45067528Y90138459D01*
X45067796Y90140089D01*
X45086697Y90168376D01*
X45098000Y90225199D01*
X45098000Y91499801D01*
X45086697Y91556624D01*
X45067678Y91585088D01*
X45067547Y91587084D01*
X45069210Y91588195D01*
X45070754Y91587614D01*
G37*
G36*
X44420754Y91587614D02*
G01*
X44436543Y91571853D01*
X44498611Y91538031D01*
X44568889Y91543119D01*
X44613676Y91571959D01*
X44629126Y91587435D01*
X44631057Y91587954D01*
X44632472Y91586541D01*
X44632204Y91584911D01*
X44613303Y91556624D01*
X44602000Y91499801D01*
X44602000Y90225199D01*
X44613303Y90168376D01*
X44632322Y90139912D01*
X44632453Y90137916D01*
X44630790Y90136805D01*
X44629246Y90137386D01*
X44613457Y90153147D01*
X44551389Y90186969D01*
X44481111Y90181881D01*
X44436324Y90153041D01*
X44420874Y90137565D01*
X44418943Y90137046D01*
X44417528Y90138459D01*
X44417796Y90140089D01*
X44436697Y90168376D01*
X44448000Y90225199D01*
X44448000Y91499801D01*
X44436697Y91556624D01*
X44417678Y91585088D01*
X44417547Y91587084D01*
X44419210Y91588195D01*
X44420754Y91587614D01*
G37*
G36*
X43770754Y91587614D02*
G01*
X43786543Y91571853D01*
X43848611Y91538031D01*
X43918889Y91543119D01*
X43963676Y91571959D01*
X43979126Y91587435D01*
X43981057Y91587954D01*
X43982472Y91586541D01*
X43982204Y91584911D01*
X43963303Y91556624D01*
X43952000Y91499801D01*
X43952000Y90225199D01*
X43963303Y90168376D01*
X43982322Y90139912D01*
X43982453Y90137916D01*
X43980790Y90136805D01*
X43979246Y90137386D01*
X43963457Y90153147D01*
X43901389Y90186969D01*
X43831111Y90181881D01*
X43786324Y90153041D01*
X43770874Y90137565D01*
X43768943Y90137046D01*
X43767528Y90138459D01*
X43767796Y90140089D01*
X43786697Y90168376D01*
X43798000Y90225199D01*
X43798000Y91499801D01*
X43786697Y91556624D01*
X43767678Y91585088D01*
X43767547Y91587084D01*
X43769210Y91588195D01*
X43770754Y91587614D01*
G37*
M02*
