%TF.GenerationSoftware,KiCad,Pcbnew,6.0.4-1.fc35*%
%TF.CreationDate,2022-04-29T14:23:32+05:30*%
%TF.ProjectId,8puter,38707574-6572-42e6-9b69-6361645f7063,rev?*%
%TF.SameCoordinates,PX63d9090PY80e2628*%
%TF.FileFunction,Legend,Top*%
%TF.FilePolarity,Positive*%
%FSLAX46Y46*%
G04 Gerber Fmt 4.6, Leading zero omitted, Abs format (unit mm)*
G04 Created by KiCad (PCBNEW 6.0.4-1.fc35) date 2022-04-29 14:23:32*
%MOMM*%
%LPD*%
G01*
G04 APERTURE LIST*
%ADD10C,1.500000*%
%ADD11C,0.120000*%
%ADD12C,0.260000*%
%ADD13C,0.500000*%
%ADD14C,0.200000*%
%TA.AperFunction,Profile*%
%ADD15C,0.050000*%
%TD*%
%ADD16C,0.150000*%
%ADD17C,0.100000*%
%ADD18C,0.625000*%
%ADD19C,0.300000*%
G04 APERTURE END LIST*
D10*
X80717459Y44004539D02*
G75*
G03*
X80717459Y44004539I-1899999J0D01*
G01*
D11*
X20050000Y4700000D02*
X22550000Y4700000D01*
D12*
X84030000Y64650000D02*
G75*
G03*
X84030000Y64650000I-130000J0D01*
G01*
X6782000Y57445000D02*
G75*
G03*
X6782000Y57445000I-130000J0D01*
G01*
X30432000Y16045000D02*
G75*
G03*
X30432000Y16045000I-130000J0D01*
G01*
X29132000Y83445000D02*
G75*
G03*
X29132000Y83445000I-130000J0D01*
G01*
D13*
X80439814Y41687560D02*
G75*
G03*
X76500544Y42382210I-1622314J2316940D01*
G01*
D12*
X39380000Y61550000D02*
G75*
G03*
X39380000Y61550000I-130000J0D01*
G01*
D11*
X81600000Y41513969D02*
X80810000Y41650000D01*
D14*
X80360000Y35490000D02*
X77920000Y35320000D01*
D11*
X69400000Y24750000D02*
X87925000Y24750000D01*
X87925000Y24750000D02*
X87925000Y12750000D01*
X87925000Y12750000D02*
X69400000Y12750000D01*
X69400000Y12750000D02*
X69400000Y24750000D01*
X22950000Y4700000D02*
X22950000Y4400000D01*
D12*
X75030000Y23300000D02*
G75*
G03*
X75030000Y23300000I-130000J0D01*
G01*
D11*
X19700000Y4700000D02*
X19700000Y4400000D01*
D14*
X81600017Y41513944D02*
G75*
G03*
X80895418Y46650000I-1667817J2387556D01*
G01*
D11*
X20050000Y4700000D02*
X19700000Y4700000D01*
D12*
X15232000Y16095000D02*
G75*
G03*
X15232000Y16095000I-130000J0D01*
G01*
X23182000Y60845000D02*
G75*
G03*
X23182000Y60845000I-130000J0D01*
G01*
D14*
X80895418Y46650000D02*
X79300000Y46940000D01*
D11*
X25450000Y4700000D02*
X22950000Y4700000D01*
D14*
X80375422Y35499989D02*
G75*
G03*
X81600000Y41513969I-1281522J3392611D01*
G01*
X78635947Y41060854D02*
G75*
G03*
X78381676Y36739289I397553J-2191654D01*
G01*
D11*
X22550000Y4700000D02*
X22550000Y4400000D01*
D10*
X80651064Y39080481D02*
G75*
G03*
X80651064Y39080481I-2701849J0D01*
G01*
D11*
X25450000Y4700000D02*
X25800000Y4700000D01*
X25800000Y4700000D02*
X25800000Y4400000D01*
D12*
X81930000Y71400000D02*
G75*
G03*
X81930000Y71400000I-130000J0D01*
G01*
X57802000Y71165000D02*
G75*
G03*
X57802000Y71165000I-130000J0D01*
G01*
D13*
X76500540Y42382220D02*
G75*
G03*
X80439775Y41687616I1448860J-3300620D01*
G01*
D14*
X79272006Y45051269D02*
G75*
G03*
X79520083Y42379286I480794J-1302869D01*
G01*
D15*
X100000000Y98000000D02*
X100000000Y2000000D01*
X2000000Y100000000D02*
G75*
G03*
X0Y98000000I0J-2000000D01*
G01*
X0Y2000000D02*
G75*
G03*
X2000000Y0I2000000J0D01*
G01*
X97985786Y0D02*
X2000000Y0D01*
X2000000Y100000000D02*
X98000000Y100000000D01*
X100000000Y98000000D02*
G75*
G03*
X98000000Y100000000I-2000000J0D01*
G01*
X0Y2000000D02*
X0Y98000000D01*
X97985786Y-50D02*
G75*
G03*
X100000000Y2000000I14J2014250D01*
G01*
D16*
X90538214Y29000000D02*
X90895357Y29000000D01*
X90466785Y28785715D02*
X90716785Y29535715D01*
X90966785Y28785715D01*
X91323928Y29214286D02*
X91252500Y29250000D01*
X91216785Y29285715D01*
X91181071Y29357143D01*
X91181071Y29392858D01*
X91216785Y29464286D01*
X91252500Y29500000D01*
X91323928Y29535715D01*
X91466785Y29535715D01*
X91538214Y29500000D01*
X91573928Y29464286D01*
X91609642Y29392858D01*
X91609642Y29357143D01*
X91573928Y29285715D01*
X91538214Y29250000D01*
X91466785Y29214286D01*
X91323928Y29214286D01*
X91252500Y29178572D01*
X91216785Y29142858D01*
X91181071Y29071429D01*
X91181071Y28928572D01*
X91216785Y28857143D01*
X91252500Y28821429D01*
X91323928Y28785715D01*
X91466785Y28785715D01*
X91538214Y28821429D01*
X91573928Y28857143D01*
X91609642Y28928572D01*
X91609642Y29071429D01*
X91573928Y29142858D01*
X91538214Y29178572D01*
X91466785Y29214286D01*
X96726071Y64360715D02*
X96726071Y65110715D01*
X97011785Y65110715D01*
X97083214Y65075000D01*
X97118928Y65039286D01*
X97154642Y64967858D01*
X97154642Y64860715D01*
X97118928Y64789286D01*
X97083214Y64753572D01*
X97011785Y64717858D01*
X96726071Y64717858D01*
X97904642Y64432143D02*
X97868928Y64396429D01*
X97761785Y64360715D01*
X97690357Y64360715D01*
X97583214Y64396429D01*
X97511785Y64467858D01*
X97476071Y64539286D01*
X97440357Y64682143D01*
X97440357Y64789286D01*
X97476071Y64932143D01*
X97511785Y65003572D01*
X97583214Y65075000D01*
X97690357Y65110715D01*
X97761785Y65110715D01*
X97868928Y65075000D01*
X97904642Y65039286D01*
X98618928Y64360715D02*
X98190357Y64360715D01*
X98404642Y64360715D02*
X98404642Y65110715D01*
X98333214Y65003572D01*
X98261785Y64932143D01*
X98190357Y64896429D01*
X29926428Y78346072D02*
X29926428Y78096072D01*
X30319285Y78096072D02*
X29569285Y78096072D01*
X29569285Y78453215D01*
X29569285Y78738929D02*
X30176428Y78738929D01*
X30247857Y78774643D01*
X30283571Y78810358D01*
X30319285Y78881786D01*
X30319285Y79024643D01*
X30283571Y79096072D01*
X30247857Y79131786D01*
X30176428Y79167500D01*
X29569285Y79167500D01*
X30319285Y79881786D02*
X30319285Y79524643D01*
X29569285Y79524643D01*
X30319285Y80488929D02*
X30319285Y80131786D01*
X29569285Y80131786D01*
X96726071Y58360715D02*
X96726071Y59110715D01*
X97011785Y59110715D01*
X97083214Y59075000D01*
X97118928Y59039286D01*
X97154642Y58967858D01*
X97154642Y58860715D01*
X97118928Y58789286D01*
X97083214Y58753572D01*
X97011785Y58717858D01*
X96726071Y58717858D01*
X97904642Y58432143D02*
X97868928Y58396429D01*
X97761785Y58360715D01*
X97690357Y58360715D01*
X97583214Y58396429D01*
X97511785Y58467858D01*
X97476071Y58539286D01*
X97440357Y58682143D01*
X97440357Y58789286D01*
X97476071Y58932143D01*
X97511785Y59003572D01*
X97583214Y59075000D01*
X97690357Y59110715D01*
X97761785Y59110715D01*
X97868928Y59075000D01*
X97904642Y59039286D01*
X98547500Y58860715D02*
X98547500Y58360715D01*
X98368928Y59146429D02*
X98190357Y58610715D01*
X98654642Y58610715D01*
X97018928Y55175000D02*
X96947500Y55210715D01*
X96840357Y55210715D01*
X96733214Y55175000D01*
X96661785Y55103572D01*
X96626071Y55032143D01*
X96590357Y54889286D01*
X96590357Y54782143D01*
X96626071Y54639286D01*
X96661785Y54567858D01*
X96733214Y54496429D01*
X96840357Y54460715D01*
X96911785Y54460715D01*
X97018928Y54496429D01*
X97054642Y54532143D01*
X97054642Y54782143D01*
X96911785Y54782143D01*
X97376071Y54460715D02*
X97376071Y55210715D01*
X97804642Y54460715D01*
X97804642Y55210715D01*
X98161785Y54460715D02*
X98161785Y55210715D01*
X98340357Y55210715D01*
X98447500Y55175000D01*
X98518928Y55103572D01*
X98554642Y55032143D01*
X98590357Y54889286D01*
X98590357Y54782143D01*
X98554642Y54639286D01*
X98518928Y54567858D01*
X98447500Y54496429D01*
X98340357Y54460715D01*
X98161785Y54460715D01*
X96776071Y40810715D02*
X96776071Y41560715D01*
X96954642Y41560715D01*
X97061785Y41525000D01*
X97133214Y41453572D01*
X97168928Y41382143D01*
X97204642Y41239286D01*
X97204642Y41132143D01*
X97168928Y40989286D01*
X97133214Y40917858D01*
X97061785Y40846429D01*
X96954642Y40810715D01*
X96776071Y40810715D01*
X97490357Y41489286D02*
X97526071Y41525000D01*
X97597500Y41560715D01*
X97776071Y41560715D01*
X97847500Y41525000D01*
X97883214Y41489286D01*
X97918928Y41417858D01*
X97918928Y41346429D01*
X97883214Y41239286D01*
X97454642Y40810715D01*
X97918928Y40810715D01*
X89798928Y23000000D02*
X90156071Y23000000D01*
X89727500Y22785715D02*
X89977500Y23535715D01*
X90227500Y22785715D01*
X90870357Y22785715D02*
X90441785Y22785715D01*
X90656071Y22785715D02*
X90656071Y23535715D01*
X90584642Y23428572D01*
X90513214Y23357143D01*
X90441785Y23321429D01*
X91584642Y22785715D02*
X91156071Y22785715D01*
X91370357Y22785715D02*
X91370357Y23535715D01*
X91298928Y23428572D01*
X91227500Y23357143D01*
X91156071Y23321429D01*
X28283571Y78060358D02*
X28319285Y78167500D01*
X28319285Y78346072D01*
X28283571Y78417500D01*
X28247857Y78453215D01*
X28176428Y78488929D01*
X28105000Y78488929D01*
X28033571Y78453215D01*
X27997857Y78417500D01*
X27962142Y78346072D01*
X27926428Y78203215D01*
X27890714Y78131786D01*
X27855000Y78096072D01*
X27783571Y78060358D01*
X27712142Y78060358D01*
X27640714Y78096072D01*
X27605000Y78131786D01*
X27569285Y78203215D01*
X27569285Y78381786D01*
X27605000Y78488929D01*
X27569285Y78703215D02*
X27569285Y79131786D01*
X28319285Y78917500D02*
X27569285Y78917500D01*
X27926428Y79381786D02*
X27926428Y79631786D01*
X28319285Y79738929D02*
X28319285Y79381786D01*
X27569285Y79381786D01*
X27569285Y79738929D01*
X28319285Y80060358D02*
X27569285Y80060358D01*
X27569285Y80346072D01*
X27605000Y80417500D01*
X27640714Y80453215D01*
X27712142Y80488929D01*
X27819285Y80488929D01*
X27890714Y80453215D01*
X27926428Y80417500D01*
X27962142Y80346072D01*
X27962142Y80060358D01*
D17*
X3454047Y47204286D02*
X3835000Y47204286D01*
X3644523Y47013810D02*
X3644523Y47394762D01*
X4025476Y47513810D02*
X4335000Y47513810D01*
X4168333Y47323334D01*
X4239761Y47323334D01*
X4287380Y47299524D01*
X4311190Y47275715D01*
X4335000Y47228096D01*
X4335000Y47109048D01*
X4311190Y47061429D01*
X4287380Y47037620D01*
X4239761Y47013810D01*
X4096904Y47013810D01*
X4049285Y47037620D01*
X4025476Y47061429D01*
X4477857Y47513810D02*
X4644523Y47013810D01*
X4811190Y47513810D01*
X4930238Y47513810D02*
X5239761Y47513810D01*
X5073095Y47323334D01*
X5144523Y47323334D01*
X5192142Y47299524D01*
X5215952Y47275715D01*
X5239761Y47228096D01*
X5239761Y47109048D01*
X5215952Y47061429D01*
X5192142Y47037620D01*
X5144523Y47013810D01*
X5001666Y47013810D01*
X4954047Y47037620D01*
X4930238Y47061429D01*
D16*
X89798928Y16975000D02*
X90156071Y16975000D01*
X89727500Y16760715D02*
X89977500Y17510715D01*
X90227500Y16760715D01*
X90870357Y16760715D02*
X90441785Y16760715D01*
X90656071Y16760715D02*
X90656071Y17510715D01*
X90584642Y17403572D01*
X90513214Y17332143D01*
X90441785Y17296429D01*
X91513214Y17260715D02*
X91513214Y16760715D01*
X91334642Y17546429D02*
X91156071Y17010715D01*
X91620357Y17010715D01*
X89823928Y24975000D02*
X90181071Y24975000D01*
X89752500Y24760715D02*
X90002500Y25510715D01*
X90252500Y24760715D01*
X90895357Y24760715D02*
X90466785Y24760715D01*
X90681071Y24760715D02*
X90681071Y25510715D01*
X90609642Y25403572D01*
X90538214Y25332143D01*
X90466785Y25296429D01*
X91359642Y25510715D02*
X91431071Y25510715D01*
X91502500Y25475000D01*
X91538214Y25439286D01*
X91573928Y25367858D01*
X91609642Y25225000D01*
X91609642Y25046429D01*
X91573928Y24903572D01*
X91538214Y24832143D01*
X91502500Y24796429D01*
X91431071Y24760715D01*
X91359642Y24760715D01*
X91288214Y24796429D01*
X91252500Y24832143D01*
X91216785Y24903572D01*
X91181071Y25046429D01*
X91181071Y25225000D01*
X91216785Y25367858D01*
X91252500Y25439286D01*
X91288214Y25475000D01*
X91359642Y25510715D01*
D17*
X25814285Y70226310D02*
X25814285Y70726310D01*
X26004761Y70726310D01*
X26052380Y70702500D01*
X26076190Y70678691D01*
X26100000Y70631072D01*
X26100000Y70559643D01*
X26076190Y70512024D01*
X26052380Y70488215D01*
X26004761Y70464405D01*
X25814285Y70464405D01*
X26409523Y70726310D02*
X26504761Y70726310D01*
X26552380Y70702500D01*
X26600000Y70654881D01*
X26623809Y70559643D01*
X26623809Y70392977D01*
X26600000Y70297739D01*
X26552380Y70250120D01*
X26504761Y70226310D01*
X26409523Y70226310D01*
X26361904Y70250120D01*
X26314285Y70297739D01*
X26290476Y70392977D01*
X26290476Y70559643D01*
X26314285Y70654881D01*
X26361904Y70702500D01*
X26409523Y70726310D01*
X26790476Y70726310D02*
X26909523Y70226310D01*
X27004761Y70583453D01*
X27100000Y70226310D01*
X27219047Y70726310D01*
X27409523Y70488215D02*
X27576190Y70488215D01*
X27647619Y70226310D02*
X27409523Y70226310D01*
X27409523Y70726310D01*
X27647619Y70726310D01*
X28147619Y70226310D02*
X27980952Y70464405D01*
X27861904Y70226310D02*
X27861904Y70726310D01*
X28052380Y70726310D01*
X28100000Y70702500D01*
X28123809Y70678691D01*
X28147619Y70631072D01*
X28147619Y70559643D01*
X28123809Y70512024D01*
X28100000Y70488215D01*
X28052380Y70464405D01*
X27861904Y70464405D01*
X28838095Y70726310D02*
X28933333Y70726310D01*
X28980952Y70702500D01*
X29028571Y70654881D01*
X29052380Y70559643D01*
X29052380Y70392977D01*
X29028571Y70297739D01*
X28980952Y70250120D01*
X28933333Y70226310D01*
X28838095Y70226310D01*
X28790476Y70250120D01*
X28742857Y70297739D01*
X28719047Y70392977D01*
X28719047Y70559643D01*
X28742857Y70654881D01*
X28790476Y70702500D01*
X28838095Y70726310D01*
X29433333Y70488215D02*
X29266666Y70488215D01*
X29266666Y70226310D02*
X29266666Y70726310D01*
X29504761Y70726310D01*
X29861904Y70488215D02*
X29695238Y70488215D01*
X29695238Y70226310D02*
X29695238Y70726310D01*
X29933333Y70726310D01*
X24909523Y69421310D02*
X24909523Y69921310D01*
X24909523Y69730834D02*
X24957142Y69754643D01*
X25052380Y69754643D01*
X25100000Y69730834D01*
X25123809Y69707024D01*
X25147619Y69659405D01*
X25147619Y69516548D01*
X25123809Y69468929D01*
X25100000Y69445120D01*
X25052380Y69421310D01*
X24957142Y69421310D01*
X24909523Y69445120D01*
X25552380Y69445120D02*
X25504761Y69421310D01*
X25409523Y69421310D01*
X25361904Y69445120D01*
X25338095Y69492739D01*
X25338095Y69683215D01*
X25361904Y69730834D01*
X25409523Y69754643D01*
X25504761Y69754643D01*
X25552380Y69730834D01*
X25576190Y69683215D01*
X25576190Y69635596D01*
X25338095Y69587977D01*
X25719047Y69754643D02*
X25909523Y69754643D01*
X25790476Y69421310D02*
X25790476Y69849881D01*
X25814285Y69897500D01*
X25861904Y69921310D01*
X25909523Y69921310D01*
X26147619Y69421310D02*
X26100000Y69445120D01*
X26076190Y69468929D01*
X26052380Y69516548D01*
X26052380Y69659405D01*
X26076190Y69707024D01*
X26100000Y69730834D01*
X26147619Y69754643D01*
X26219047Y69754643D01*
X26266666Y69730834D01*
X26290476Y69707024D01*
X26314285Y69659405D01*
X26314285Y69516548D01*
X26290476Y69468929D01*
X26266666Y69445120D01*
X26219047Y69421310D01*
X26147619Y69421310D01*
X26528571Y69421310D02*
X26528571Y69754643D01*
X26528571Y69659405D02*
X26552380Y69707024D01*
X26576190Y69730834D01*
X26623809Y69754643D01*
X26671428Y69754643D01*
X27028571Y69445120D02*
X26980952Y69421310D01*
X26885714Y69421310D01*
X26838095Y69445120D01*
X26814285Y69492739D01*
X26814285Y69683215D01*
X26838095Y69730834D01*
X26885714Y69754643D01*
X26980952Y69754643D01*
X27028571Y69730834D01*
X27052380Y69683215D01*
X27052380Y69635596D01*
X26814285Y69587977D01*
X27861904Y69445120D02*
X27814285Y69421310D01*
X27719047Y69421310D01*
X27671428Y69445120D01*
X27647619Y69468929D01*
X27623809Y69516548D01*
X27623809Y69659405D01*
X27647619Y69707024D01*
X27671428Y69730834D01*
X27719047Y69754643D01*
X27814285Y69754643D01*
X27861904Y69730834D01*
X28076190Y69421310D02*
X28076190Y69921310D01*
X28290476Y69421310D02*
X28290476Y69683215D01*
X28266666Y69730834D01*
X28219047Y69754643D01*
X28147619Y69754643D01*
X28100000Y69730834D01*
X28076190Y69707024D01*
X28742857Y69421310D02*
X28742857Y69683215D01*
X28719047Y69730834D01*
X28671428Y69754643D01*
X28576190Y69754643D01*
X28528571Y69730834D01*
X28742857Y69445120D02*
X28695238Y69421310D01*
X28576190Y69421310D01*
X28528571Y69445120D01*
X28504761Y69492739D01*
X28504761Y69540358D01*
X28528571Y69587977D01*
X28576190Y69611786D01*
X28695238Y69611786D01*
X28742857Y69635596D01*
X28980952Y69754643D02*
X28980952Y69421310D01*
X28980952Y69707024D02*
X29004761Y69730834D01*
X29052380Y69754643D01*
X29123809Y69754643D01*
X29171428Y69730834D01*
X29195238Y69683215D01*
X29195238Y69421310D01*
X29647619Y69754643D02*
X29647619Y69349881D01*
X29623809Y69302262D01*
X29600000Y69278453D01*
X29552380Y69254643D01*
X29480952Y69254643D01*
X29433333Y69278453D01*
X29647619Y69445120D02*
X29600000Y69421310D01*
X29504761Y69421310D01*
X29457142Y69445120D01*
X29433333Y69468929D01*
X29409523Y69516548D01*
X29409523Y69659405D01*
X29433333Y69707024D01*
X29457142Y69730834D01*
X29504761Y69754643D01*
X29600000Y69754643D01*
X29647619Y69730834D01*
X29885714Y69421310D02*
X29885714Y69754643D01*
X29885714Y69921310D02*
X29861904Y69897500D01*
X29885714Y69873691D01*
X29909523Y69897500D01*
X29885714Y69921310D01*
X29885714Y69873691D01*
X30123809Y69754643D02*
X30123809Y69421310D01*
X30123809Y69707024D02*
X30147619Y69730834D01*
X30195238Y69754643D01*
X30266666Y69754643D01*
X30314285Y69730834D01*
X30338095Y69683215D01*
X30338095Y69421310D01*
X30790476Y69754643D02*
X30790476Y69349881D01*
X30766666Y69302262D01*
X30742857Y69278453D01*
X30695238Y69254643D01*
X30623809Y69254643D01*
X30576190Y69278453D01*
X30790476Y69445120D02*
X30742857Y69421310D01*
X30647619Y69421310D01*
X30600000Y69445120D01*
X30576190Y69468929D01*
X30552380Y69516548D01*
X30552380Y69659405D01*
X30576190Y69707024D01*
X30600000Y69730834D01*
X30647619Y69754643D01*
X30742857Y69754643D01*
X30790476Y69730834D01*
D16*
X76550928Y78550000D02*
X76479500Y78585715D01*
X76372357Y78585715D01*
X76265214Y78550000D01*
X76193785Y78478572D01*
X76158071Y78407143D01*
X76122357Y78264286D01*
X76122357Y78157143D01*
X76158071Y78014286D01*
X76193785Y77942858D01*
X76265214Y77871429D01*
X76372357Y77835715D01*
X76443785Y77835715D01*
X76550928Y77871429D01*
X76586642Y77907143D01*
X76586642Y78157143D01*
X76443785Y78157143D01*
X76908071Y77835715D02*
X76908071Y78585715D01*
X77336642Y77835715D01*
X77336642Y78585715D01*
X77693785Y77835715D02*
X77693785Y78585715D01*
X77872357Y78585715D01*
X77979500Y78550000D01*
X78050928Y78478572D01*
X78086642Y78407143D01*
X78122357Y78264286D01*
X78122357Y78157143D01*
X78086642Y78014286D01*
X78050928Y77942858D01*
X77979500Y77871429D01*
X77872357Y77835715D01*
X77693785Y77835715D01*
X89798928Y20975000D02*
X90156071Y20975000D01*
X89727500Y20760715D02*
X89977500Y21510715D01*
X90227500Y20760715D01*
X90870357Y20760715D02*
X90441785Y20760715D01*
X90656071Y20760715D02*
X90656071Y21510715D01*
X90584642Y21403572D01*
X90513214Y21332143D01*
X90441785Y21296429D01*
X91156071Y21439286D02*
X91191785Y21475000D01*
X91263214Y21510715D01*
X91441785Y21510715D01*
X91513214Y21475000D01*
X91548928Y21439286D01*
X91584642Y21367858D01*
X91584642Y21296429D01*
X91548928Y21189286D01*
X91120357Y20760715D01*
X91584642Y20760715D01*
X96776071Y42810715D02*
X96776071Y43560715D01*
X96954642Y43560715D01*
X97061785Y43525000D01*
X97133214Y43453572D01*
X97168928Y43382143D01*
X97204642Y43239286D01*
X97204642Y43132143D01*
X97168928Y42989286D01*
X97133214Y42917858D01*
X97061785Y42846429D01*
X96954642Y42810715D01*
X96776071Y42810715D01*
X97918928Y42810715D02*
X97490357Y42810715D01*
X97704642Y42810715D02*
X97704642Y43560715D01*
X97633214Y43453572D01*
X97561785Y43382143D01*
X97490357Y43346429D01*
D17*
X26410238Y2250120D02*
X26481666Y2226310D01*
X26600714Y2226310D01*
X26648333Y2250120D01*
X26672142Y2273929D01*
X26695952Y2321548D01*
X26695952Y2369167D01*
X26672142Y2416786D01*
X26648333Y2440596D01*
X26600714Y2464405D01*
X26505476Y2488215D01*
X26457857Y2512024D01*
X26434047Y2535834D01*
X26410238Y2583453D01*
X26410238Y2631072D01*
X26434047Y2678691D01*
X26457857Y2702500D01*
X26505476Y2726310D01*
X26624523Y2726310D01*
X26695952Y2702500D01*
X26910238Y2226310D02*
X26910238Y2726310D01*
X27124523Y2226310D02*
X27124523Y2488215D01*
X27100714Y2535834D01*
X27053095Y2559643D01*
X26981666Y2559643D01*
X26934047Y2535834D01*
X26910238Y2512024D01*
X27362619Y2226310D02*
X27362619Y2559643D01*
X27362619Y2726310D02*
X27338809Y2702500D01*
X27362619Y2678691D01*
X27386428Y2702500D01*
X27362619Y2726310D01*
X27362619Y2678691D01*
X27529285Y2559643D02*
X27719761Y2559643D01*
X27600714Y2226310D02*
X27600714Y2654881D01*
X27624523Y2702500D01*
X27672142Y2726310D01*
X27719761Y2726310D01*
X27815000Y2559643D02*
X28005476Y2559643D01*
X27886428Y2726310D02*
X27886428Y2297739D01*
X27910238Y2250120D01*
X27957857Y2226310D01*
X28005476Y2226310D01*
X28553095Y2559643D02*
X28553095Y2131072D01*
X28529285Y2083453D01*
X28481666Y2059643D01*
X28457857Y2059643D01*
X28553095Y2726310D02*
X28529285Y2702500D01*
X28553095Y2678691D01*
X28576904Y2702500D01*
X28553095Y2726310D01*
X28553095Y2678691D01*
X29005476Y2559643D02*
X29005476Y2226310D01*
X28791190Y2559643D02*
X28791190Y2297739D01*
X28815000Y2250120D01*
X28862619Y2226310D01*
X28934047Y2226310D01*
X28981666Y2250120D01*
X29005476Y2273929D01*
X29243571Y2226310D02*
X29243571Y2559643D01*
X29243571Y2512024D02*
X29267380Y2535834D01*
X29315000Y2559643D01*
X29386428Y2559643D01*
X29434047Y2535834D01*
X29457857Y2488215D01*
X29457857Y2226310D01*
X29457857Y2488215D02*
X29481666Y2535834D01*
X29529285Y2559643D01*
X29600714Y2559643D01*
X29648333Y2535834D01*
X29672142Y2488215D01*
X29672142Y2226310D01*
X29910238Y2559643D02*
X29910238Y2059643D01*
X29910238Y2535834D02*
X29957857Y2559643D01*
X30053095Y2559643D01*
X30100714Y2535834D01*
X30124523Y2512024D01*
X30148333Y2464405D01*
X30148333Y2321548D01*
X30124523Y2273929D01*
X30100714Y2250120D01*
X30053095Y2226310D01*
X29957857Y2226310D01*
X29910238Y2250120D01*
X30553095Y2250120D02*
X30505476Y2226310D01*
X30410238Y2226310D01*
X30362619Y2250120D01*
X30338809Y2297739D01*
X30338809Y2488215D01*
X30362619Y2535834D01*
X30410238Y2559643D01*
X30505476Y2559643D01*
X30553095Y2535834D01*
X30576904Y2488215D01*
X30576904Y2440596D01*
X30338809Y2392977D01*
X30791190Y2226310D02*
X30791190Y2559643D01*
X30791190Y2464405D02*
X30815000Y2512024D01*
X30838809Y2535834D01*
X30886428Y2559643D01*
X30934047Y2559643D01*
X31410238Y2559643D02*
X31600714Y2559643D01*
X31481666Y2726310D02*
X31481666Y2297739D01*
X31505476Y2250120D01*
X31553095Y2226310D01*
X31600714Y2226310D01*
X31838809Y2226310D02*
X31791190Y2250120D01*
X31767380Y2273929D01*
X31743571Y2321548D01*
X31743571Y2464405D01*
X31767380Y2512024D01*
X31791190Y2535834D01*
X31838809Y2559643D01*
X31910238Y2559643D01*
X31957857Y2535834D01*
X31981666Y2512024D01*
X32005476Y2464405D01*
X32005476Y2321548D01*
X31981666Y2273929D01*
X31957857Y2250120D01*
X31910238Y2226310D01*
X31838809Y2226310D01*
X32553095Y2726310D02*
X32672142Y2226310D01*
X32767380Y2583453D01*
X32862619Y2226310D01*
X32981666Y2726310D01*
X33457857Y2226310D02*
X33291190Y2464405D01*
X33172142Y2226310D02*
X33172142Y2726310D01*
X33362619Y2726310D01*
X33410238Y2702500D01*
X33434047Y2678691D01*
X33457857Y2631072D01*
X33457857Y2559643D01*
X33434047Y2512024D01*
X33410238Y2488215D01*
X33362619Y2464405D01*
X33172142Y2464405D01*
X26362619Y1754643D02*
X26553095Y1754643D01*
X26434047Y1921310D02*
X26434047Y1492739D01*
X26457857Y1445120D01*
X26505476Y1421310D01*
X26553095Y1421310D01*
X26791190Y1421310D02*
X26743571Y1445120D01*
X26719761Y1468929D01*
X26695952Y1516548D01*
X26695952Y1659405D01*
X26719761Y1707024D01*
X26743571Y1730834D01*
X26791190Y1754643D01*
X26862619Y1754643D01*
X26910238Y1730834D01*
X26934047Y1707024D01*
X26957857Y1659405D01*
X26957857Y1516548D01*
X26934047Y1468929D01*
X26910238Y1445120D01*
X26862619Y1421310D01*
X26791190Y1421310D01*
X27743571Y1445120D02*
X27695952Y1421310D01*
X27600714Y1421310D01*
X27553095Y1445120D01*
X27529285Y1492739D01*
X27529285Y1683215D01*
X27553095Y1730834D01*
X27600714Y1754643D01*
X27695952Y1754643D01*
X27743571Y1730834D01*
X27767380Y1683215D01*
X27767380Y1635596D01*
X27529285Y1587977D01*
X27981666Y1754643D02*
X27981666Y1421310D01*
X27981666Y1707024D02*
X28005476Y1730834D01*
X28053095Y1754643D01*
X28124523Y1754643D01*
X28172142Y1730834D01*
X28195952Y1683215D01*
X28195952Y1421310D01*
X28648333Y1421310D02*
X28648333Y1683215D01*
X28624523Y1730834D01*
X28576904Y1754643D01*
X28481666Y1754643D01*
X28434047Y1730834D01*
X28648333Y1445120D02*
X28600714Y1421310D01*
X28481666Y1421310D01*
X28434047Y1445120D01*
X28410238Y1492739D01*
X28410238Y1540358D01*
X28434047Y1587977D01*
X28481666Y1611786D01*
X28600714Y1611786D01*
X28648333Y1635596D01*
X28886428Y1421310D02*
X28886428Y1921310D01*
X28886428Y1730834D02*
X28934047Y1754643D01*
X29029285Y1754643D01*
X29076904Y1730834D01*
X29100714Y1707024D01*
X29124523Y1659405D01*
X29124523Y1516548D01*
X29100714Y1468929D01*
X29076904Y1445120D01*
X29029285Y1421310D01*
X28934047Y1421310D01*
X28886428Y1445120D01*
X29410238Y1421310D02*
X29362619Y1445120D01*
X29338809Y1492739D01*
X29338809Y1921310D01*
X29791190Y1445120D02*
X29743571Y1421310D01*
X29648333Y1421310D01*
X29600714Y1445120D01*
X29576904Y1492739D01*
X29576904Y1683215D01*
X29600714Y1730834D01*
X29648333Y1754643D01*
X29743571Y1754643D01*
X29791190Y1730834D01*
X29815000Y1683215D01*
X29815000Y1635596D01*
X29576904Y1587977D01*
X30695952Y1421310D02*
X30529285Y1659405D01*
X30410238Y1421310D02*
X30410238Y1921310D01*
X30600714Y1921310D01*
X30648333Y1897500D01*
X30672142Y1873691D01*
X30695952Y1826072D01*
X30695952Y1754643D01*
X30672142Y1707024D01*
X30648333Y1683215D01*
X30600714Y1659405D01*
X30410238Y1659405D01*
X31005476Y1921310D02*
X31100714Y1921310D01*
X31148333Y1897500D01*
X31195952Y1849881D01*
X31219761Y1754643D01*
X31219761Y1587977D01*
X31195952Y1492739D01*
X31148333Y1445120D01*
X31100714Y1421310D01*
X31005476Y1421310D01*
X30957857Y1445120D01*
X30910238Y1492739D01*
X30886428Y1587977D01*
X30886428Y1754643D01*
X30910238Y1849881D01*
X30957857Y1897500D01*
X31005476Y1921310D01*
X31434047Y1421310D02*
X31434047Y1921310D01*
X31600714Y1564167D01*
X31767380Y1921310D01*
X31767380Y1421310D01*
X32386428Y1421310D02*
X32386428Y1754643D01*
X32386428Y1659405D02*
X32410238Y1707024D01*
X32434047Y1730834D01*
X32481666Y1754643D01*
X32529285Y1754643D01*
X32886428Y1445120D02*
X32838809Y1421310D01*
X32743571Y1421310D01*
X32695952Y1445120D01*
X32672142Y1492739D01*
X32672142Y1683215D01*
X32695952Y1730834D01*
X32743571Y1754643D01*
X32838809Y1754643D01*
X32886428Y1730834D01*
X32910238Y1683215D01*
X32910238Y1635596D01*
X32672142Y1587977D01*
X33076904Y1754643D02*
X33172142Y1421310D01*
X33267380Y1659405D01*
X33362619Y1421310D01*
X33457857Y1754643D01*
X33648333Y1421310D02*
X33648333Y1754643D01*
X33648333Y1659405D02*
X33672142Y1707024D01*
X33695952Y1730834D01*
X33743571Y1754643D01*
X33791190Y1754643D01*
X33957857Y1421310D02*
X33957857Y1754643D01*
X33957857Y1921310D02*
X33934047Y1897500D01*
X33957857Y1873691D01*
X33981666Y1897500D01*
X33957857Y1921310D01*
X33957857Y1873691D01*
X34124523Y1754643D02*
X34315000Y1754643D01*
X34195952Y1921310D02*
X34195952Y1492739D01*
X34219761Y1445120D01*
X34267380Y1421310D01*
X34315000Y1421310D01*
X34672142Y1445120D02*
X34624523Y1421310D01*
X34529285Y1421310D01*
X34481666Y1445120D01*
X34457857Y1492739D01*
X34457857Y1683215D01*
X34481666Y1730834D01*
X34529285Y1754643D01*
X34624523Y1754643D01*
X34672142Y1730834D01*
X34695952Y1683215D01*
X34695952Y1635596D01*
X34457857Y1587977D01*
X34910238Y1468929D02*
X34934047Y1445120D01*
X34910238Y1421310D01*
X34886428Y1445120D01*
X34910238Y1468929D01*
X34910238Y1421310D01*
D16*
X96776071Y44810715D02*
X96776071Y45560715D01*
X96954642Y45560715D01*
X97061785Y45525000D01*
X97133214Y45453572D01*
X97168928Y45382143D01*
X97204642Y45239286D01*
X97204642Y45132143D01*
X97168928Y44989286D01*
X97133214Y44917858D01*
X97061785Y44846429D01*
X96954642Y44810715D01*
X96776071Y44810715D01*
X97668928Y45560715D02*
X97740357Y45560715D01*
X97811785Y45525000D01*
X97847500Y45489286D01*
X97883214Y45417858D01*
X97918928Y45275000D01*
X97918928Y45096429D01*
X97883214Y44953572D01*
X97847500Y44882143D01*
X97811785Y44846429D01*
X97740357Y44810715D01*
X97668928Y44810715D01*
X97597500Y44846429D01*
X97561785Y44882143D01*
X97526071Y44953572D01*
X97490357Y45096429D01*
X97490357Y45275000D01*
X97526071Y45417858D01*
X97561785Y45489286D01*
X97597500Y45525000D01*
X97668928Y45560715D01*
X90538214Y40975000D02*
X90895357Y40975000D01*
X90466785Y40760715D02*
X90716785Y41510715D01*
X90966785Y40760715D01*
X91181071Y41439286D02*
X91216785Y41475000D01*
X91288214Y41510715D01*
X91466785Y41510715D01*
X91538214Y41475000D01*
X91573928Y41439286D01*
X91609642Y41367858D01*
X91609642Y41296429D01*
X91573928Y41189286D01*
X91145357Y40760715D01*
X91609642Y40760715D01*
X21039285Y5060715D02*
X20789285Y5417858D01*
X20610714Y5060715D02*
X20610714Y5810715D01*
X20896428Y5810715D01*
X20967857Y5775000D01*
X21003571Y5739286D01*
X21039285Y5667858D01*
X21039285Y5560715D01*
X21003571Y5489286D01*
X20967857Y5453572D01*
X20896428Y5417858D01*
X20610714Y5417858D01*
X21503571Y5810715D02*
X21646428Y5810715D01*
X21717857Y5775000D01*
X21789285Y5703572D01*
X21825000Y5560715D01*
X21825000Y5310715D01*
X21789285Y5167858D01*
X21717857Y5096429D01*
X21646428Y5060715D01*
X21503571Y5060715D01*
X21432142Y5096429D01*
X21360714Y5167858D01*
X21325000Y5310715D01*
X21325000Y5560715D01*
X21360714Y5703572D01*
X21432142Y5775000D01*
X21503571Y5810715D01*
X96626071Y68696429D02*
X97197500Y68696429D01*
X96911785Y68410715D02*
X96911785Y68982143D01*
X97911785Y69160715D02*
X97554642Y69160715D01*
X97518928Y68803572D01*
X97554642Y68839286D01*
X97626071Y68875000D01*
X97804642Y68875000D01*
X97876071Y68839286D01*
X97911785Y68803572D01*
X97947500Y68732143D01*
X97947500Y68553572D01*
X97911785Y68482143D01*
X97876071Y68446429D01*
X97804642Y68410715D01*
X97626071Y68410715D01*
X97554642Y68446429D01*
X97518928Y68482143D01*
X98161785Y69160715D02*
X98411785Y68410715D01*
X98661785Y69160715D01*
D14*
X76768095Y20847620D02*
X76768095Y21847620D01*
X77101428Y21133334D01*
X77434761Y21847620D01*
X77434761Y20847620D01*
X77910952Y21371429D02*
X78244285Y21371429D01*
X78387142Y20847620D02*
X77910952Y20847620D01*
X77910952Y21847620D01*
X78387142Y21847620D01*
X78815714Y20847620D02*
X78815714Y21847620D01*
X79149047Y21133334D01*
X79482380Y21847620D01*
X79482380Y20847620D01*
X80149047Y21847620D02*
X80339523Y21847620D01*
X80434761Y21800000D01*
X80530000Y21704762D01*
X80577619Y21514286D01*
X80577619Y21180953D01*
X80530000Y20990477D01*
X80434761Y20895239D01*
X80339523Y20847620D01*
X80149047Y20847620D01*
X80053809Y20895239D01*
X79958571Y20990477D01*
X79910952Y21180953D01*
X79910952Y21514286D01*
X79958571Y21704762D01*
X80053809Y21800000D01*
X80149047Y21847620D01*
X81577619Y20847620D02*
X81244285Y21323810D01*
X81006190Y20847620D02*
X81006190Y21847620D01*
X81387142Y21847620D01*
X81482380Y21800000D01*
X81530000Y21752381D01*
X81577619Y21657143D01*
X81577619Y21514286D01*
X81530000Y21419048D01*
X81482380Y21371429D01*
X81387142Y21323810D01*
X81006190Y21323810D01*
X82196666Y21323810D02*
X82196666Y20847620D01*
X81863333Y21847620D02*
X82196666Y21323810D01*
X82530000Y21847620D01*
X83625238Y20847620D02*
X83625238Y21847620D01*
X83958571Y21133334D01*
X84291904Y21847620D01*
X84291904Y20847620D01*
X84720476Y21133334D02*
X85196666Y21133334D01*
X84625238Y20847620D02*
X84958571Y21847620D01*
X85291904Y20847620D01*
X85625238Y20847620D02*
X85625238Y21847620D01*
X86006190Y21847620D01*
X86101428Y21800000D01*
X86149047Y21752381D01*
X86196666Y21657143D01*
X86196666Y21514286D01*
X86149047Y21419048D01*
X86101428Y21371429D01*
X86006190Y21323810D01*
X85625238Y21323810D01*
D18*
X73177604Y33135715D02*
X72865104Y30635715D01*
X73162723Y33016667D02*
X73487127Y33135715D01*
X74106175Y33135715D01*
X74400818Y33016667D01*
X74540699Y32897620D01*
X74665699Y32659524D01*
X74576413Y31945239D01*
X74391889Y31707143D01*
X74222247Y31588096D01*
X73897842Y31469048D01*
X73278794Y31469048D01*
X72984151Y31588096D01*
X77510937Y33135715D02*
X77302604Y31469048D01*
X76118080Y33135715D02*
X75954389Y31826191D01*
X76079389Y31588096D01*
X76374032Y31469048D01*
X76838318Y31469048D01*
X77162723Y31588096D01*
X77332366Y31707143D01*
X78594270Y33135715D02*
X79832366Y33135715D01*
X79162723Y33969048D02*
X78894866Y31826191D01*
X79019866Y31588096D01*
X79314508Y31469048D01*
X79624032Y31469048D01*
X81960342Y31588096D02*
X81635937Y31469048D01*
X81016889Y31469048D01*
X80722247Y31588096D01*
X80597247Y31826191D01*
X80716294Y32778572D01*
X80900818Y33016667D01*
X81225223Y33135715D01*
X81844270Y33135715D01*
X82138913Y33016667D01*
X82263913Y32778572D01*
X82234151Y32540477D01*
X80656770Y32302381D01*
X83493080Y31469048D02*
X83701413Y33135715D01*
X83641889Y32659524D02*
X83826413Y32897620D01*
X83996056Y33016667D01*
X84320461Y33135715D01*
X84629985Y33135715D01*
D16*
X97204642Y14760715D02*
X96954642Y15117858D01*
X96776071Y14760715D02*
X96776071Y15510715D01*
X97061785Y15510715D01*
X97133214Y15475000D01*
X97168928Y15439286D01*
X97204642Y15367858D01*
X97204642Y15260715D01*
X97168928Y15189286D01*
X97133214Y15153572D01*
X97061785Y15117858D01*
X96776071Y15117858D01*
X97526071Y14760715D02*
X97526071Y15510715D01*
X97704642Y15510715D01*
X97811785Y15475000D01*
X97883214Y15403572D01*
X97918928Y15332143D01*
X97954642Y15189286D01*
X97954642Y15082143D01*
X97918928Y14939286D01*
X97883214Y14867858D01*
X97811785Y14796429D01*
X97704642Y14760715D01*
X97526071Y14760715D01*
X98418928Y15117858D02*
X98418928Y14760715D01*
X98168928Y15510715D02*
X98418928Y15117858D01*
X98668928Y15510715D01*
X96776071Y38810715D02*
X96776071Y39560715D01*
X96954642Y39560715D01*
X97061785Y39525000D01*
X97133214Y39453572D01*
X97168928Y39382143D01*
X97204642Y39239286D01*
X97204642Y39132143D01*
X97168928Y38989286D01*
X97133214Y38917858D01*
X97061785Y38846429D01*
X96954642Y38810715D01*
X96776071Y38810715D01*
X97454642Y39560715D02*
X97918928Y39560715D01*
X97668928Y39275000D01*
X97776071Y39275000D01*
X97847500Y39239286D01*
X97883214Y39203572D01*
X97918928Y39132143D01*
X97918928Y38953572D01*
X97883214Y38882143D01*
X97847500Y38846429D01*
X97776071Y38810715D01*
X97561785Y38810715D01*
X97490357Y38846429D01*
X97454642Y38882143D01*
X90538214Y38975000D02*
X90895357Y38975000D01*
X90466785Y38760715D02*
X90716785Y39510715D01*
X90966785Y38760715D01*
X91145357Y39510715D02*
X91609642Y39510715D01*
X91359642Y39225000D01*
X91466785Y39225000D01*
X91538214Y39189286D01*
X91573928Y39153572D01*
X91609642Y39082143D01*
X91609642Y38903572D01*
X91573928Y38832143D01*
X91538214Y38796429D01*
X91466785Y38760715D01*
X91252500Y38760715D01*
X91181071Y38796429D01*
X91145357Y38832143D01*
D17*
X3614047Y54893810D02*
X3614047Y55393810D01*
X3780714Y55036667D01*
X3947380Y55393810D01*
X3947380Y54893810D01*
X4280714Y55393810D02*
X4375952Y55393810D01*
X4423571Y55370000D01*
X4471190Y55322381D01*
X4495000Y55227143D01*
X4495000Y55060477D01*
X4471190Y54965239D01*
X4423571Y54917620D01*
X4375952Y54893810D01*
X4280714Y54893810D01*
X4233095Y54917620D01*
X4185476Y54965239D01*
X4161666Y55060477D01*
X4161666Y55227143D01*
X4185476Y55322381D01*
X4233095Y55370000D01*
X4280714Y55393810D01*
X4685476Y54917620D02*
X4756904Y54893810D01*
X4875952Y54893810D01*
X4923571Y54917620D01*
X4947380Y54941429D01*
X4971190Y54989048D01*
X4971190Y55036667D01*
X4947380Y55084286D01*
X4923571Y55108096D01*
X4875952Y55131905D01*
X4780714Y55155715D01*
X4733095Y55179524D01*
X4709285Y55203334D01*
X4685476Y55250953D01*
X4685476Y55298572D01*
X4709285Y55346191D01*
X4733095Y55370000D01*
X4780714Y55393810D01*
X4899761Y55393810D01*
X4971190Y55370000D01*
X5185476Y54893810D02*
X5185476Y55393810D01*
X1229285Y43976310D02*
X1324523Y43976310D01*
X1372142Y43952500D01*
X1419761Y43904881D01*
X1443571Y43809643D01*
X1443571Y43642977D01*
X1419761Y43547739D01*
X1372142Y43500120D01*
X1324523Y43476310D01*
X1229285Y43476310D01*
X1181666Y43500120D01*
X1134047Y43547739D01*
X1110238Y43642977D01*
X1110238Y43809643D01*
X1134047Y43904881D01*
X1181666Y43952500D01*
X1229285Y43976310D01*
X1657857Y43809643D02*
X1657857Y43476310D01*
X1657857Y43762024D02*
X1681666Y43785834D01*
X1729285Y43809643D01*
X1800714Y43809643D01*
X1848333Y43785834D01*
X1872142Y43738215D01*
X1872142Y43476310D01*
X2300714Y43500120D02*
X2253095Y43476310D01*
X2157857Y43476310D01*
X2110238Y43500120D01*
X2086428Y43547739D01*
X2086428Y43738215D01*
X2110238Y43785834D01*
X2157857Y43809643D01*
X2253095Y43809643D01*
X2300714Y43785834D01*
X2324523Y43738215D01*
X2324523Y43690596D01*
X2086428Y43642977D01*
X3134047Y43476310D02*
X3134047Y43976310D01*
X3134047Y43500120D02*
X3086428Y43476310D01*
X2991190Y43476310D01*
X2943571Y43500120D01*
X2919761Y43523929D01*
X2895952Y43571548D01*
X2895952Y43714405D01*
X2919761Y43762024D01*
X2943571Y43785834D01*
X2991190Y43809643D01*
X3086428Y43809643D01*
X3134047Y43785834D01*
X3562619Y43500120D02*
X3515000Y43476310D01*
X3419761Y43476310D01*
X3372142Y43500120D01*
X3348333Y43547739D01*
X3348333Y43738215D01*
X3372142Y43785834D01*
X3419761Y43809643D01*
X3515000Y43809643D01*
X3562619Y43785834D01*
X3586428Y43738215D01*
X3586428Y43690596D01*
X3348333Y43642977D01*
X3753095Y43809643D02*
X3872142Y43476310D01*
X3991190Y43809643D01*
X4181666Y43476310D02*
X4181666Y43809643D01*
X4181666Y43976310D02*
X4157857Y43952500D01*
X4181666Y43928691D01*
X4205476Y43952500D01*
X4181666Y43976310D01*
X4181666Y43928691D01*
X4634047Y43500120D02*
X4586428Y43476310D01*
X4491190Y43476310D01*
X4443571Y43500120D01*
X4419761Y43523929D01*
X4395952Y43571548D01*
X4395952Y43714405D01*
X4419761Y43762024D01*
X4443571Y43785834D01*
X4491190Y43809643D01*
X4586428Y43809643D01*
X4634047Y43785834D01*
X5038809Y43500120D02*
X4991190Y43476310D01*
X4895952Y43476310D01*
X4848333Y43500120D01*
X4824523Y43547739D01*
X4824523Y43738215D01*
X4848333Y43785834D01*
X4895952Y43809643D01*
X4991190Y43809643D01*
X5038809Y43785834D01*
X5062619Y43738215D01*
X5062619Y43690596D01*
X4824523Y43642977D01*
X1348333Y42671310D02*
X1348333Y42933215D01*
X1324523Y42980834D01*
X1276904Y43004643D01*
X1181666Y43004643D01*
X1134047Y42980834D01*
X1348333Y42695120D02*
X1300714Y42671310D01*
X1181666Y42671310D01*
X1134047Y42695120D01*
X1110238Y42742739D01*
X1110238Y42790358D01*
X1134047Y42837977D01*
X1181666Y42861786D01*
X1300714Y42861786D01*
X1348333Y42885596D01*
X1515000Y43004643D02*
X1705476Y43004643D01*
X1586428Y43171310D02*
X1586428Y42742739D01*
X1610238Y42695120D01*
X1657857Y42671310D01*
X1705476Y42671310D01*
X2467380Y42671310D02*
X2467380Y42933215D01*
X2443571Y42980834D01*
X2395952Y43004643D01*
X2300714Y43004643D01*
X2253095Y42980834D01*
X2467380Y42695120D02*
X2419761Y42671310D01*
X2300714Y42671310D01*
X2253095Y42695120D01*
X2229285Y42742739D01*
X2229285Y42790358D01*
X2253095Y42837977D01*
X2300714Y42861786D01*
X2419761Y42861786D01*
X2467380Y42885596D01*
X3015000Y43004643D02*
X3205476Y43004643D01*
X3086428Y43171310D02*
X3086428Y42742739D01*
X3110238Y42695120D01*
X3157857Y42671310D01*
X3205476Y42671310D01*
X3372142Y42671310D02*
X3372142Y43004643D01*
X3372142Y43171310D02*
X3348333Y43147500D01*
X3372142Y43123691D01*
X3395952Y43147500D01*
X3372142Y43171310D01*
X3372142Y43123691D01*
X3610238Y42671310D02*
X3610238Y43004643D01*
X3610238Y42957024D02*
X3634047Y42980834D01*
X3681666Y43004643D01*
X3753095Y43004643D01*
X3800714Y42980834D01*
X3824523Y42933215D01*
X3824523Y42671310D01*
X3824523Y42933215D02*
X3848333Y42980834D01*
X3895952Y43004643D01*
X3967380Y43004643D01*
X4015000Y42980834D01*
X4038809Y42933215D01*
X4038809Y42671310D01*
X4467380Y42695120D02*
X4419761Y42671310D01*
X4324523Y42671310D01*
X4276904Y42695120D01*
X4253095Y42742739D01*
X4253095Y42933215D01*
X4276904Y42980834D01*
X4324523Y43004643D01*
X4419761Y43004643D01*
X4467380Y42980834D01*
X4491190Y42933215D01*
X4491190Y42885596D01*
X4253095Y42837977D01*
D16*
X89568785Y54460715D02*
X89568785Y55210715D01*
X89854500Y55210715D01*
X89925928Y55175000D01*
X89961642Y55139286D01*
X89997357Y55067858D01*
X89997357Y54960715D01*
X89961642Y54889286D01*
X89925928Y54853572D01*
X89854500Y54817858D01*
X89568785Y54817858D01*
X90318785Y54460715D02*
X90318785Y55210715D01*
X90497357Y55210715D01*
X90604500Y55175000D01*
X90675928Y55103572D01*
X90711642Y55032143D01*
X90747357Y54889286D01*
X90747357Y54782143D01*
X90711642Y54639286D01*
X90675928Y54567858D01*
X90604500Y54496429D01*
X90497357Y54460715D01*
X90318785Y54460715D01*
X90997357Y55210715D02*
X91497357Y55210715D01*
X91175928Y54460715D01*
X97204642Y20760715D02*
X96954642Y21117858D01*
X96776071Y20760715D02*
X96776071Y21510715D01*
X97061785Y21510715D01*
X97133214Y21475000D01*
X97168928Y21439286D01*
X97204642Y21367858D01*
X97204642Y21260715D01*
X97168928Y21189286D01*
X97133214Y21153572D01*
X97061785Y21117858D01*
X96776071Y21117858D01*
X97347500Y21722500D02*
X98204642Y21722500D01*
X97454642Y21510715D02*
X97633214Y20760715D01*
X97776071Y21296429D01*
X97918928Y20760715D01*
X98097500Y21510715D01*
X89568785Y56460715D02*
X89568785Y57210715D01*
X89854500Y57210715D01*
X89925928Y57175000D01*
X89961642Y57139286D01*
X89997357Y57067858D01*
X89997357Y56960715D01*
X89961642Y56889286D01*
X89925928Y56853572D01*
X89854500Y56817858D01*
X89568785Y56817858D01*
X90318785Y56460715D02*
X90318785Y57210715D01*
X90497357Y57210715D01*
X90604500Y57175000D01*
X90675928Y57103572D01*
X90711642Y57032143D01*
X90747357Y56889286D01*
X90747357Y56782143D01*
X90711642Y56639286D01*
X90675928Y56567858D01*
X90604500Y56496429D01*
X90497357Y56460715D01*
X90318785Y56460715D01*
X91390214Y57210715D02*
X91247357Y57210715D01*
X91175928Y57175000D01*
X91140214Y57139286D01*
X91068785Y57032143D01*
X91033071Y56889286D01*
X91033071Y56603572D01*
X91068785Y56532143D01*
X91104500Y56496429D01*
X91175928Y56460715D01*
X91318785Y56460715D01*
X91390214Y56496429D01*
X91425928Y56532143D01*
X91461642Y56603572D01*
X91461642Y56782143D01*
X91425928Y56853572D01*
X91390214Y56889286D01*
X91318785Y56925000D01*
X91175928Y56925000D01*
X91104500Y56889286D01*
X91068785Y56853572D01*
X91033071Y56782143D01*
X89568785Y64460715D02*
X89568785Y65210715D01*
X89854500Y65210715D01*
X89925928Y65175000D01*
X89961642Y65139286D01*
X89997357Y65067858D01*
X89997357Y64960715D01*
X89961642Y64889286D01*
X89925928Y64853572D01*
X89854500Y64817858D01*
X89568785Y64817858D01*
X90318785Y64460715D02*
X90318785Y65210715D01*
X90497357Y65210715D01*
X90604500Y65175000D01*
X90675928Y65103572D01*
X90711642Y65032143D01*
X90747357Y64889286D01*
X90747357Y64782143D01*
X90711642Y64639286D01*
X90675928Y64567858D01*
X90604500Y64496429D01*
X90497357Y64460715D01*
X90318785Y64460715D01*
X91033071Y65139286D02*
X91068785Y65175000D01*
X91140214Y65210715D01*
X91318785Y65210715D01*
X91390214Y65175000D01*
X91425928Y65139286D01*
X91461642Y65067858D01*
X91461642Y64996429D01*
X91425928Y64889286D01*
X90997357Y64460715D01*
X91461642Y64460715D01*
X97226642Y22807143D02*
X97190928Y22771429D01*
X97083785Y22735715D01*
X97012357Y22735715D01*
X96905214Y22771429D01*
X96833785Y22842858D01*
X96798071Y22914286D01*
X96762357Y23057143D01*
X96762357Y23164286D01*
X96798071Y23307143D01*
X96833785Y23378572D01*
X96905214Y23450000D01*
X97012357Y23485715D01*
X97083785Y23485715D01*
X97190928Y23450000D01*
X97226642Y23414286D01*
X97905214Y22735715D02*
X97548071Y22735715D01*
X97548071Y23485715D01*
X98155214Y22735715D02*
X98155214Y23485715D01*
X98583785Y22735715D02*
X98262357Y23164286D01*
X98583785Y23485715D02*
X98155214Y23057143D01*
X96726071Y60360715D02*
X96726071Y61110715D01*
X97011785Y61110715D01*
X97083214Y61075000D01*
X97118928Y61039286D01*
X97154642Y60967858D01*
X97154642Y60860715D01*
X97118928Y60789286D01*
X97083214Y60753572D01*
X97011785Y60717858D01*
X96726071Y60717858D01*
X97904642Y60432143D02*
X97868928Y60396429D01*
X97761785Y60360715D01*
X97690357Y60360715D01*
X97583214Y60396429D01*
X97511785Y60467858D01*
X97476071Y60539286D01*
X97440357Y60682143D01*
X97440357Y60789286D01*
X97476071Y60932143D01*
X97511785Y61003572D01*
X97583214Y61075000D01*
X97690357Y61110715D01*
X97761785Y61110715D01*
X97868928Y61075000D01*
X97904642Y61039286D01*
X98154642Y61110715D02*
X98618928Y61110715D01*
X98368928Y60825000D01*
X98476071Y60825000D01*
X98547500Y60789286D01*
X98583214Y60753572D01*
X98618928Y60682143D01*
X98618928Y60503572D01*
X98583214Y60432143D01*
X98547500Y60396429D01*
X98476071Y60360715D01*
X98261785Y60360715D01*
X98190357Y60396429D01*
X98154642Y60432143D01*
X97026071Y19053572D02*
X97133214Y19017858D01*
X97168928Y18982143D01*
X97204642Y18910715D01*
X97204642Y18803572D01*
X97168928Y18732143D01*
X97133214Y18696429D01*
X97061785Y18660715D01*
X96776071Y18660715D01*
X96776071Y19410715D01*
X97026071Y19410715D01*
X97097500Y19375000D01*
X97133214Y19339286D01*
X97168928Y19267858D01*
X97168928Y19196429D01*
X97133214Y19125000D01*
X97097500Y19089286D01*
X97026071Y19053572D01*
X96776071Y19053572D01*
X97526071Y19053572D02*
X97776071Y19053572D01*
X97883214Y18660715D02*
X97526071Y18660715D01*
X97526071Y19410715D01*
X97883214Y19410715D01*
X96748071Y27001429D02*
X97319500Y27001429D01*
X97033785Y26715715D02*
X97033785Y27287143D01*
X98033785Y27465715D02*
X97676642Y27465715D01*
X97640928Y27108572D01*
X97676642Y27144286D01*
X97748071Y27180000D01*
X97926642Y27180000D01*
X97998071Y27144286D01*
X98033785Y27108572D01*
X98069500Y27037143D01*
X98069500Y26858572D01*
X98033785Y26787143D01*
X97998071Y26751429D01*
X97926642Y26715715D01*
X97748071Y26715715D01*
X97676642Y26751429D01*
X97640928Y26787143D01*
X98283785Y27465715D02*
X98533785Y26715715D01*
X98783785Y27465715D01*
X90538214Y42975000D02*
X90895357Y42975000D01*
X90466785Y42760715D02*
X90716785Y43510715D01*
X90966785Y42760715D01*
X91609642Y42760715D02*
X91181071Y42760715D01*
X91395357Y42760715D02*
X91395357Y43510715D01*
X91323928Y43403572D01*
X91252500Y43332143D01*
X91181071Y43296429D01*
X76158071Y73835715D02*
X76158071Y74585715D01*
X76443785Y74585715D01*
X76515214Y74550000D01*
X76550928Y74514286D01*
X76586642Y74442858D01*
X76586642Y74335715D01*
X76550928Y74264286D01*
X76515214Y74228572D01*
X76443785Y74192858D01*
X76158071Y74192858D01*
X77300928Y74550000D02*
X77229500Y74585715D01*
X77122357Y74585715D01*
X77015214Y74550000D01*
X76943785Y74478572D01*
X76908071Y74407143D01*
X76872357Y74264286D01*
X76872357Y74157143D01*
X76908071Y74014286D01*
X76943785Y73942858D01*
X77015214Y73871429D01*
X77122357Y73835715D01*
X77193785Y73835715D01*
X77300928Y73871429D01*
X77336642Y73907143D01*
X77336642Y74157143D01*
X77193785Y74157143D01*
X78086642Y73907143D02*
X78050928Y73871429D01*
X77943785Y73835715D01*
X77872357Y73835715D01*
X77765214Y73871429D01*
X77693785Y73942858D01*
X77658071Y74014286D01*
X77622357Y74157143D01*
X77622357Y74264286D01*
X77658071Y74407143D01*
X77693785Y74478572D01*
X77765214Y74550000D01*
X77872357Y74585715D01*
X77943785Y74585715D01*
X78050928Y74550000D01*
X78086642Y74514286D01*
D17*
X3899761Y48941429D02*
X3875952Y48917620D01*
X3804523Y48893810D01*
X3756904Y48893810D01*
X3685476Y48917620D01*
X3637857Y48965239D01*
X3614047Y49012858D01*
X3590238Y49108096D01*
X3590238Y49179524D01*
X3614047Y49274762D01*
X3637857Y49322381D01*
X3685476Y49370000D01*
X3756904Y49393810D01*
X3804523Y49393810D01*
X3875952Y49370000D01*
X3899761Y49346191D01*
X4090238Y48917620D02*
X4161666Y48893810D01*
X4280714Y48893810D01*
X4328333Y48917620D01*
X4352142Y48941429D01*
X4375952Y48989048D01*
X4375952Y49036667D01*
X4352142Y49084286D01*
X4328333Y49108096D01*
X4280714Y49131905D01*
X4185476Y49155715D01*
X4137857Y49179524D01*
X4114047Y49203334D01*
X4090238Y49250953D01*
X4090238Y49298572D01*
X4114047Y49346191D01*
X4137857Y49370000D01*
X4185476Y49393810D01*
X4304523Y49393810D01*
X4375952Y49370000D01*
D16*
X90538214Y27000000D02*
X90895357Y27000000D01*
X90466785Y26785715D02*
X90716785Y27535715D01*
X90966785Y26785715D01*
X91252500Y26785715D02*
X91395357Y26785715D01*
X91466785Y26821429D01*
X91502500Y26857143D01*
X91573928Y26964286D01*
X91609642Y27107143D01*
X91609642Y27392858D01*
X91573928Y27464286D01*
X91538214Y27500000D01*
X91466785Y27535715D01*
X91323928Y27535715D01*
X91252500Y27500000D01*
X91216785Y27464286D01*
X91181071Y27392858D01*
X91181071Y27214286D01*
X91216785Y27142858D01*
X91252500Y27107143D01*
X91323928Y27071429D01*
X91466785Y27071429D01*
X91538214Y27107143D01*
X91573928Y27142858D01*
X91609642Y27214286D01*
X23653571Y5810715D02*
X23832142Y5060715D01*
X23975000Y5596429D01*
X24117857Y5060715D01*
X24296428Y5810715D01*
X25010714Y5060715D02*
X24760714Y5417858D01*
X24582142Y5060715D02*
X24582142Y5810715D01*
X24867857Y5810715D01*
X24939285Y5775000D01*
X24975000Y5739286D01*
X25010714Y5667858D01*
X25010714Y5560715D01*
X24975000Y5489286D01*
X24939285Y5453572D01*
X24867857Y5417858D01*
X24582142Y5417858D01*
X75979500Y82797500D02*
X76729500Y82797500D01*
X76586642Y81907143D02*
X76550928Y81871429D01*
X76443785Y81835715D01*
X76372357Y81835715D01*
X76265214Y81871429D01*
X76193785Y81942858D01*
X76158071Y82014286D01*
X76122357Y82157143D01*
X76122357Y82264286D01*
X76158071Y82407143D01*
X76193785Y82478572D01*
X76265214Y82550000D01*
X76372357Y82585715D01*
X76443785Y82585715D01*
X76550928Y82550000D01*
X76586642Y82514286D01*
X76729500Y82797500D02*
X77336642Y82797500D01*
X77265214Y81835715D02*
X76908071Y81835715D01*
X76908071Y82585715D01*
X77336642Y82797500D02*
X78086642Y82797500D01*
X77943785Y81835715D02*
X77693785Y82192858D01*
X77515214Y81835715D02*
X77515214Y82585715D01*
X77800928Y82585715D01*
X77872357Y82550000D01*
X77908071Y82514286D01*
X77943785Y82442858D01*
X77943785Y82335715D01*
X77908071Y82264286D01*
X77872357Y82228572D01*
X77800928Y82192858D01*
X77515214Y82192858D01*
X90488214Y34975000D02*
X90845357Y34975000D01*
X90416785Y34760715D02*
X90666785Y35510715D01*
X90916785Y34760715D01*
X91523928Y35510715D02*
X91166785Y35510715D01*
X91131071Y35153572D01*
X91166785Y35189286D01*
X91238214Y35225000D01*
X91416785Y35225000D01*
X91488214Y35189286D01*
X91523928Y35153572D01*
X91559642Y35082143D01*
X91559642Y34903572D01*
X91523928Y34832143D01*
X91488214Y34796429D01*
X91416785Y34760715D01*
X91238214Y34760715D01*
X91166785Y34796429D01*
X91131071Y34832143D01*
X90538214Y36975000D02*
X90895357Y36975000D01*
X90466785Y36760715D02*
X90716785Y37510715D01*
X90966785Y36760715D01*
X91538214Y37260715D02*
X91538214Y36760715D01*
X91359642Y37546429D02*
X91181071Y37010715D01*
X91645357Y37010715D01*
D17*
X77011190Y19383810D02*
X76794523Y19621905D01*
X76639761Y19383810D02*
X76639761Y19883810D01*
X76887380Y19883810D01*
X76949285Y19860000D01*
X76980238Y19836191D01*
X77011190Y19788572D01*
X77011190Y19717143D01*
X76980238Y19669524D01*
X76949285Y19645715D01*
X76887380Y19621905D01*
X76639761Y19621905D01*
X77258809Y19526667D02*
X77568333Y19526667D01*
X77196904Y19383810D02*
X77413571Y19883810D01*
X77630238Y19383810D01*
X77846904Y19383810D02*
X77846904Y19883810D01*
X78063571Y19526667D01*
X78280238Y19883810D01*
X78280238Y19383810D01*
X76639761Y18578810D02*
X76639761Y19078810D01*
X76887380Y19078810D01*
X76949285Y19055000D01*
X76980238Y19031191D01*
X77011190Y18983572D01*
X77011190Y18912143D01*
X76980238Y18864524D01*
X76949285Y18840715D01*
X76887380Y18816905D01*
X76639761Y18816905D01*
X77661190Y18578810D02*
X77444523Y18816905D01*
X77289761Y18578810D02*
X77289761Y19078810D01*
X77537380Y19078810D01*
X77599285Y19055000D01*
X77630238Y19031191D01*
X77661190Y18983572D01*
X77661190Y18912143D01*
X77630238Y18864524D01*
X77599285Y18840715D01*
X77537380Y18816905D01*
X77289761Y18816905D01*
X77939761Y18578810D02*
X77939761Y19078810D01*
X78187380Y19078810D01*
X78249285Y19055000D01*
X78280238Y19031191D01*
X78311190Y18983572D01*
X78311190Y18912143D01*
X78280238Y18864524D01*
X78249285Y18840715D01*
X78187380Y18816905D01*
X77939761Y18816905D01*
X76980238Y17797620D02*
X77073095Y17773810D01*
X77227857Y17773810D01*
X77289761Y17797620D01*
X77320714Y17821429D01*
X77351666Y17869048D01*
X77351666Y17916667D01*
X77320714Y17964286D01*
X77289761Y17988096D01*
X77227857Y18011905D01*
X77104047Y18035715D01*
X77042142Y18059524D01*
X77011190Y18083334D01*
X76980238Y18130953D01*
X76980238Y18178572D01*
X77011190Y18226191D01*
X77042142Y18250000D01*
X77104047Y18273810D01*
X77258809Y18273810D01*
X77351666Y18250000D01*
X77630238Y17773810D02*
X77630238Y18273810D01*
X77877857Y18273810D01*
X77939761Y18250000D01*
X77970714Y18226191D01*
X78001666Y18178572D01*
X78001666Y18107143D01*
X77970714Y18059524D01*
X77939761Y18035715D01*
X77877857Y18011905D01*
X77630238Y18011905D01*
X78280238Y17773810D02*
X78280238Y18273810D01*
X76980238Y17468810D02*
X77196904Y16968810D01*
X77413571Y17468810D01*
X77630238Y16968810D02*
X77630238Y17468810D01*
X77939761Y16968810D02*
X77939761Y17468810D01*
X78094523Y17468810D01*
X78187380Y17445000D01*
X78249285Y17397381D01*
X78280238Y17349762D01*
X78311190Y17254524D01*
X78311190Y17183096D01*
X78280238Y17087858D01*
X78249285Y17040239D01*
X78187380Y16992620D01*
X78094523Y16968810D01*
X77939761Y16968810D01*
X76887380Y16163810D02*
X76670714Y16401905D01*
X76515952Y16163810D02*
X76515952Y16663810D01*
X76763571Y16663810D01*
X76825476Y16640000D01*
X76856428Y16616191D01*
X76887380Y16568572D01*
X76887380Y16497143D01*
X76856428Y16449524D01*
X76825476Y16425715D01*
X76763571Y16401905D01*
X76515952Y16401905D01*
X77289761Y16663810D02*
X77413571Y16663810D01*
X77475476Y16640000D01*
X77537380Y16592381D01*
X77568333Y16497143D01*
X77568333Y16330477D01*
X77537380Y16235239D01*
X77475476Y16187620D01*
X77413571Y16163810D01*
X77289761Y16163810D01*
X77227857Y16187620D01*
X77165952Y16235239D01*
X77135000Y16330477D01*
X77135000Y16497143D01*
X77165952Y16592381D01*
X77227857Y16640000D01*
X77289761Y16663810D01*
X77846904Y16163810D02*
X77846904Y16663810D01*
X78063571Y16306667D01*
X78280238Y16663810D01*
X78280238Y16163810D01*
D16*
X90538214Y44975000D02*
X90895357Y44975000D01*
X90466785Y44760715D02*
X90716785Y45510715D01*
X90966785Y44760715D01*
X91359642Y45510715D02*
X91431071Y45510715D01*
X91502500Y45475000D01*
X91538214Y45439286D01*
X91573928Y45367858D01*
X91609642Y45225000D01*
X91609642Y45046429D01*
X91573928Y44903572D01*
X91538214Y44832143D01*
X91502500Y44796429D01*
X91431071Y44760715D01*
X91359642Y44760715D01*
X91288214Y44796429D01*
X91252500Y44832143D01*
X91216785Y44903572D01*
X91181071Y45046429D01*
X91181071Y45225000D01*
X91216785Y45367858D01*
X91252500Y45439286D01*
X91288214Y45475000D01*
X91359642Y45510715D01*
D17*
X3614047Y50893810D02*
X3614047Y51393810D01*
X3780714Y51036667D01*
X3947380Y51393810D01*
X3947380Y50893810D01*
X4185476Y50893810D02*
X4185476Y51393810D01*
X4399761Y50917620D02*
X4471190Y50893810D01*
X4590238Y50893810D01*
X4637857Y50917620D01*
X4661666Y50941429D01*
X4685476Y50989048D01*
X4685476Y51036667D01*
X4661666Y51084286D01*
X4637857Y51108096D01*
X4590238Y51131905D01*
X4495000Y51155715D01*
X4447380Y51179524D01*
X4423571Y51203334D01*
X4399761Y51250953D01*
X4399761Y51298572D01*
X4423571Y51346191D01*
X4447380Y51370000D01*
X4495000Y51393810D01*
X4614047Y51393810D01*
X4685476Y51370000D01*
X4995000Y51393810D02*
X5090238Y51393810D01*
X5137857Y51370000D01*
X5185476Y51322381D01*
X5209285Y51227143D01*
X5209285Y51060477D01*
X5185476Y50965239D01*
X5137857Y50917620D01*
X5090238Y50893810D01*
X4995000Y50893810D01*
X4947380Y50917620D01*
X4899761Y50965239D01*
X4875952Y51060477D01*
X4875952Y51227143D01*
X4899761Y51322381D01*
X4947380Y51370000D01*
X4995000Y51393810D01*
D16*
X90538214Y33000000D02*
X90895357Y33000000D01*
X90466785Y32785715D02*
X90716785Y33535715D01*
X90966785Y32785715D01*
X91538214Y33535715D02*
X91395357Y33535715D01*
X91323928Y33500000D01*
X91288214Y33464286D01*
X91216785Y33357143D01*
X91181071Y33214286D01*
X91181071Y32928572D01*
X91216785Y32857143D01*
X91252500Y32821429D01*
X91323928Y32785715D01*
X91466785Y32785715D01*
X91538214Y32821429D01*
X91573928Y32857143D01*
X91609642Y32928572D01*
X91609642Y33107143D01*
X91573928Y33178572D01*
X91538214Y33214286D01*
X91466785Y33250000D01*
X91323928Y33250000D01*
X91252500Y33214286D01*
X91216785Y33178572D01*
X91181071Y33107143D01*
X76158071Y75835715D02*
X76158071Y76585715D01*
X76443785Y76585715D01*
X76515214Y76550000D01*
X76550928Y76514286D01*
X76586642Y76442858D01*
X76586642Y76335715D01*
X76550928Y76264286D01*
X76515214Y76228572D01*
X76443785Y76192858D01*
X76158071Y76192858D01*
X77300928Y76550000D02*
X77229500Y76585715D01*
X77122357Y76585715D01*
X77015214Y76550000D01*
X76943785Y76478572D01*
X76908071Y76407143D01*
X76872357Y76264286D01*
X76872357Y76157143D01*
X76908071Y76014286D01*
X76943785Y75942858D01*
X77015214Y75871429D01*
X77122357Y75835715D01*
X77193785Y75835715D01*
X77300928Y75871429D01*
X77336642Y75907143D01*
X77336642Y76157143D01*
X77193785Y76157143D01*
X77658071Y75835715D02*
X77658071Y76585715D01*
X77836642Y76585715D01*
X77943785Y76550000D01*
X78015214Y76478572D01*
X78050928Y76407143D01*
X78086642Y76264286D01*
X78086642Y76157143D01*
X78050928Y76014286D01*
X78015214Y75942858D01*
X77943785Y75871429D01*
X77836642Y75835715D01*
X77658071Y75835715D01*
X96597500Y17722500D02*
X96954642Y17722500D01*
X96776071Y16760715D02*
X96776071Y17510715D01*
X96954642Y17722500D02*
X97704642Y17722500D01*
X97561785Y16760715D02*
X97311785Y17117858D01*
X97133214Y16760715D02*
X97133214Y17510715D01*
X97418928Y17510715D01*
X97490357Y17475000D01*
X97526071Y17439286D01*
X97561785Y17367858D01*
X97561785Y17260715D01*
X97526071Y17189286D01*
X97490357Y17153572D01*
X97418928Y17117858D01*
X97133214Y17117858D01*
X97704642Y17722500D02*
X98490357Y17722500D01*
X98383214Y16689286D02*
X98311785Y16725000D01*
X98240357Y16796429D01*
X98133214Y16903572D01*
X98061785Y16939286D01*
X97990357Y16939286D01*
X98026071Y16760715D02*
X97954642Y16796429D01*
X97883214Y16867858D01*
X97847500Y17010715D01*
X97847500Y17260715D01*
X97883214Y17403572D01*
X97954642Y17475000D01*
X98026071Y17510715D01*
X98168928Y17510715D01*
X98240357Y17475000D01*
X98311785Y17403572D01*
X98347500Y17260715D01*
X98347500Y17010715D01*
X98311785Y16867858D01*
X98240357Y16796429D01*
X98168928Y16760715D01*
X98026071Y16760715D01*
X89773928Y18975000D02*
X90131071Y18975000D01*
X89702500Y18760715D02*
X89952500Y19510715D01*
X90202500Y18760715D01*
X90845357Y18760715D02*
X90416785Y18760715D01*
X90631071Y18760715D02*
X90631071Y19510715D01*
X90559642Y19403572D01*
X90488214Y19332143D01*
X90416785Y19296429D01*
X91095357Y19510715D02*
X91559642Y19510715D01*
X91309642Y19225000D01*
X91416785Y19225000D01*
X91488214Y19189286D01*
X91523928Y19153572D01*
X91559642Y19082143D01*
X91559642Y18903572D01*
X91523928Y18832143D01*
X91488214Y18796429D01*
X91416785Y18760715D01*
X91202500Y18760715D01*
X91131071Y18796429D01*
X91095357Y18832143D01*
X89568785Y58460715D02*
X89568785Y59210715D01*
X89854500Y59210715D01*
X89925928Y59175000D01*
X89961642Y59139286D01*
X89997357Y59067858D01*
X89997357Y58960715D01*
X89961642Y58889286D01*
X89925928Y58853572D01*
X89854500Y58817858D01*
X89568785Y58817858D01*
X90318785Y58460715D02*
X90318785Y59210715D01*
X90497357Y59210715D01*
X90604500Y59175000D01*
X90675928Y59103572D01*
X90711642Y59032143D01*
X90747357Y58889286D01*
X90747357Y58782143D01*
X90711642Y58639286D01*
X90675928Y58567858D01*
X90604500Y58496429D01*
X90497357Y58460715D01*
X90318785Y58460715D01*
X91425928Y59210715D02*
X91068785Y59210715D01*
X91033071Y58853572D01*
X91068785Y58889286D01*
X91140214Y58925000D01*
X91318785Y58925000D01*
X91390214Y58889286D01*
X91425928Y58853572D01*
X91461642Y58782143D01*
X91461642Y58603572D01*
X91425928Y58532143D01*
X91390214Y58496429D01*
X91318785Y58460715D01*
X91140214Y58460715D01*
X91068785Y58496429D01*
X91033071Y58532143D01*
X97140928Y29480000D02*
X97069500Y29515715D01*
X96962357Y29515715D01*
X96855214Y29480000D01*
X96783785Y29408572D01*
X96748071Y29337143D01*
X96712357Y29194286D01*
X96712357Y29087143D01*
X96748071Y28944286D01*
X96783785Y28872858D01*
X96855214Y28801429D01*
X96962357Y28765715D01*
X97033785Y28765715D01*
X97140928Y28801429D01*
X97176642Y28837143D01*
X97176642Y29087143D01*
X97033785Y29087143D01*
X97498071Y28765715D02*
X97498071Y29515715D01*
X97926642Y28765715D01*
X97926642Y29515715D01*
X98283785Y28765715D02*
X98283785Y29515715D01*
X98462357Y29515715D01*
X98569500Y29480000D01*
X98640928Y29408572D01*
X98676642Y29337143D01*
X98712357Y29194286D01*
X98712357Y29087143D01*
X98676642Y28944286D01*
X98640928Y28872858D01*
X98569500Y28801429D01*
X98462357Y28765715D01*
X98283785Y28765715D01*
X25926428Y78096072D02*
X25926428Y78346072D01*
X26319285Y78453215D02*
X26319285Y78096072D01*
X25569285Y78096072D01*
X25569285Y78453215D01*
X25569285Y78703215D02*
X26319285Y79203215D01*
X25569285Y79203215D02*
X26319285Y78703215D01*
X25569285Y79381786D02*
X25569285Y79810358D01*
X26319285Y79596072D02*
X25569285Y79596072D01*
X89798928Y14975000D02*
X90156071Y14975000D01*
X89727500Y14760715D02*
X89977500Y15510715D01*
X90227500Y14760715D01*
X90870357Y14760715D02*
X90441785Y14760715D01*
X90656071Y14760715D02*
X90656071Y15510715D01*
X90584642Y15403572D01*
X90513214Y15332143D01*
X90441785Y15296429D01*
X91548928Y15510715D02*
X91191785Y15510715D01*
X91156071Y15153572D01*
X91191785Y15189286D01*
X91263214Y15225000D01*
X91441785Y15225000D01*
X91513214Y15189286D01*
X91548928Y15153572D01*
X91584642Y15082143D01*
X91584642Y14903572D01*
X91548928Y14832143D01*
X91513214Y14796429D01*
X91441785Y14760715D01*
X91263214Y14760715D01*
X91191785Y14796429D01*
X91156071Y14832143D01*
X96726071Y56460715D02*
X96726071Y57210715D01*
X97011785Y57210715D01*
X97083214Y57175000D01*
X97118928Y57139286D01*
X97154642Y57067858D01*
X97154642Y56960715D01*
X97118928Y56889286D01*
X97083214Y56853572D01*
X97011785Y56817858D01*
X96726071Y56817858D01*
X97904642Y56532143D02*
X97868928Y56496429D01*
X97761785Y56460715D01*
X97690357Y56460715D01*
X97583214Y56496429D01*
X97511785Y56567858D01*
X97476071Y56639286D01*
X97440357Y56782143D01*
X97440357Y56889286D01*
X97476071Y57032143D01*
X97511785Y57103572D01*
X97583214Y57175000D01*
X97690357Y57210715D01*
X97761785Y57210715D01*
X97868928Y57175000D01*
X97904642Y57139286D01*
X98583214Y57210715D02*
X98226071Y57210715D01*
X98190357Y56853572D01*
X98226071Y56889286D01*
X98297500Y56925000D01*
X98476071Y56925000D01*
X98547500Y56889286D01*
X98583214Y56853572D01*
X98618928Y56782143D01*
X98618928Y56603572D01*
X98583214Y56532143D01*
X98547500Y56496429D01*
X98476071Y56460715D01*
X98297500Y56460715D01*
X98226071Y56496429D01*
X98190357Y56532143D01*
X89566785Y68460715D02*
X89566785Y69210715D01*
X89852500Y69210715D01*
X89923928Y69175000D01*
X89959642Y69139286D01*
X89995357Y69067858D01*
X89995357Y68960715D01*
X89959642Y68889286D01*
X89923928Y68853572D01*
X89852500Y68817858D01*
X89566785Y68817858D01*
X90316785Y68460715D02*
X90316785Y69210715D01*
X90495357Y69210715D01*
X90602500Y69175000D01*
X90673928Y69103572D01*
X90709642Y69032143D01*
X90745357Y68889286D01*
X90745357Y68782143D01*
X90709642Y68639286D01*
X90673928Y68567858D01*
X90602500Y68496429D01*
X90495357Y68460715D01*
X90316785Y68460715D01*
X91209642Y69210715D02*
X91281071Y69210715D01*
X91352500Y69175000D01*
X91388214Y69139286D01*
X91423928Y69067858D01*
X91459642Y68925000D01*
X91459642Y68746429D01*
X91423928Y68603572D01*
X91388214Y68532143D01*
X91352500Y68496429D01*
X91281071Y68460715D01*
X91209642Y68460715D01*
X91138214Y68496429D01*
X91102500Y68532143D01*
X91066785Y68603572D01*
X91031071Y68746429D01*
X91031071Y68925000D01*
X91066785Y69067858D01*
X91102500Y69139286D01*
X91138214Y69175000D01*
X91209642Y69210715D01*
X76086642Y80585715D02*
X76550928Y80585715D01*
X76300928Y80300000D01*
X76408071Y80300000D01*
X76479500Y80264286D01*
X76515214Y80228572D01*
X76550928Y80157143D01*
X76550928Y79978572D01*
X76515214Y79907143D01*
X76479500Y79871429D01*
X76408071Y79835715D01*
X76193785Y79835715D01*
X76122357Y79871429D01*
X76086642Y79907143D01*
X76765214Y80585715D02*
X77015214Y79835715D01*
X77265214Y80585715D01*
X77443785Y80585715D02*
X77908071Y80585715D01*
X77658071Y80300000D01*
X77765214Y80300000D01*
X77836642Y80264286D01*
X77872357Y80228572D01*
X77908071Y80157143D01*
X77908071Y79978572D01*
X77872357Y79907143D01*
X77836642Y79871429D01*
X77765214Y79835715D01*
X77550928Y79835715D01*
X77479500Y79871429D01*
X77443785Y79907143D01*
X96726071Y34810715D02*
X96726071Y35560715D01*
X96904642Y35560715D01*
X97011785Y35525000D01*
X97083214Y35453572D01*
X97118928Y35382143D01*
X97154642Y35239286D01*
X97154642Y35132143D01*
X97118928Y34989286D01*
X97083214Y34917858D01*
X97011785Y34846429D01*
X96904642Y34810715D01*
X96726071Y34810715D01*
X97833214Y35560715D02*
X97476071Y35560715D01*
X97440357Y35203572D01*
X97476071Y35239286D01*
X97547500Y35275000D01*
X97726071Y35275000D01*
X97797500Y35239286D01*
X97833214Y35203572D01*
X97868928Y35132143D01*
X97868928Y34953572D01*
X97833214Y34882143D01*
X97797500Y34846429D01*
X97726071Y34810715D01*
X97547500Y34810715D01*
X97476071Y34846429D01*
X97440357Y34882143D01*
X89568785Y66460715D02*
X89568785Y67210715D01*
X89854500Y67210715D01*
X89925928Y67175000D01*
X89961642Y67139286D01*
X89997357Y67067858D01*
X89997357Y66960715D01*
X89961642Y66889286D01*
X89925928Y66853572D01*
X89854500Y66817858D01*
X89568785Y66817858D01*
X90318785Y66460715D02*
X90318785Y67210715D01*
X90497357Y67210715D01*
X90604500Y67175000D01*
X90675928Y67103572D01*
X90711642Y67032143D01*
X90747357Y66889286D01*
X90747357Y66782143D01*
X90711642Y66639286D01*
X90675928Y66567858D01*
X90604500Y66496429D01*
X90497357Y66460715D01*
X90318785Y66460715D01*
X91461642Y66460715D02*
X91033071Y66460715D01*
X91247357Y66460715D02*
X91247357Y67210715D01*
X91175928Y67103572D01*
X91104500Y67032143D01*
X91033071Y66996429D01*
X96776071Y30810715D02*
X96776071Y31560715D01*
X96954642Y31560715D01*
X97061785Y31525000D01*
X97133214Y31453572D01*
X97168928Y31382143D01*
X97204642Y31239286D01*
X97204642Y31132143D01*
X97168928Y30989286D01*
X97133214Y30917858D01*
X97061785Y30846429D01*
X96954642Y30810715D01*
X96776071Y30810715D01*
X97454642Y31560715D02*
X97954642Y31560715D01*
X97633214Y30810715D01*
X96726071Y62360715D02*
X96726071Y63110715D01*
X97011785Y63110715D01*
X97083214Y63075000D01*
X97118928Y63039286D01*
X97154642Y62967858D01*
X97154642Y62860715D01*
X97118928Y62789286D01*
X97083214Y62753572D01*
X97011785Y62717858D01*
X96726071Y62717858D01*
X97904642Y62432143D02*
X97868928Y62396429D01*
X97761785Y62360715D01*
X97690357Y62360715D01*
X97583214Y62396429D01*
X97511785Y62467858D01*
X97476071Y62539286D01*
X97440357Y62682143D01*
X97440357Y62789286D01*
X97476071Y62932143D01*
X97511785Y63003572D01*
X97583214Y63075000D01*
X97690357Y63110715D01*
X97761785Y63110715D01*
X97868928Y63075000D01*
X97904642Y63039286D01*
X98190357Y63039286D02*
X98226071Y63075000D01*
X98297500Y63110715D01*
X98476071Y63110715D01*
X98547500Y63075000D01*
X98583214Y63039286D01*
X98618928Y62967858D01*
X98618928Y62896429D01*
X98583214Y62789286D01*
X98154642Y62360715D01*
X98618928Y62360715D01*
X89568785Y60460715D02*
X89568785Y61210715D01*
X89854500Y61210715D01*
X89925928Y61175000D01*
X89961642Y61139286D01*
X89997357Y61067858D01*
X89997357Y60960715D01*
X89961642Y60889286D01*
X89925928Y60853572D01*
X89854500Y60817858D01*
X89568785Y60817858D01*
X90318785Y60460715D02*
X90318785Y61210715D01*
X90497357Y61210715D01*
X90604500Y61175000D01*
X90675928Y61103572D01*
X90711642Y61032143D01*
X90747357Y60889286D01*
X90747357Y60782143D01*
X90711642Y60639286D01*
X90675928Y60567858D01*
X90604500Y60496429D01*
X90497357Y60460715D01*
X90318785Y60460715D01*
X91390214Y60960715D02*
X91390214Y60460715D01*
X91211642Y61246429D02*
X91033071Y60710715D01*
X91497357Y60710715D01*
X69916904Y28652620D02*
X69916904Y29652620D01*
X69916904Y29176429D02*
X70402619Y29176429D01*
X70402619Y28652620D02*
X70402619Y29652620D01*
X70928809Y28652620D02*
X70847857Y28700239D01*
X70807380Y28747858D01*
X70766904Y28843096D01*
X70766904Y29128810D01*
X70807380Y29224048D01*
X70847857Y29271667D01*
X70928809Y29319286D01*
X71050238Y29319286D01*
X71131190Y29271667D01*
X71171666Y29224048D01*
X71212142Y29128810D01*
X71212142Y28843096D01*
X71171666Y28747858D01*
X71131190Y28700239D01*
X71050238Y28652620D01*
X70928809Y28652620D01*
X71576428Y28652620D02*
X71576428Y29319286D01*
X71576428Y29224048D02*
X71616904Y29271667D01*
X71697857Y29319286D01*
X71819285Y29319286D01*
X71900238Y29271667D01*
X71940714Y29176429D01*
X71940714Y28652620D01*
X71940714Y29176429D02*
X71981190Y29271667D01*
X72062142Y29319286D01*
X72183571Y29319286D01*
X72264523Y29271667D01*
X72305000Y29176429D01*
X72305000Y28652620D01*
X73033571Y28700239D02*
X72952619Y28652620D01*
X72790714Y28652620D01*
X72709761Y28700239D01*
X72669285Y28795477D01*
X72669285Y29176429D01*
X72709761Y29271667D01*
X72790714Y29319286D01*
X72952619Y29319286D01*
X73033571Y29271667D01*
X73074047Y29176429D01*
X73074047Y29081191D01*
X72669285Y28985953D01*
X73438333Y28652620D02*
X73438333Y29652620D01*
X73438333Y29271667D02*
X73519285Y29319286D01*
X73681190Y29319286D01*
X73762142Y29271667D01*
X73802619Y29224048D01*
X73843095Y29128810D01*
X73843095Y28843096D01*
X73802619Y28747858D01*
X73762142Y28700239D01*
X73681190Y28652620D01*
X73519285Y28652620D01*
X73438333Y28700239D01*
X74207380Y28652620D02*
X74207380Y29319286D01*
X74207380Y29128810D02*
X74247857Y29224048D01*
X74288333Y29271667D01*
X74369285Y29319286D01*
X74450238Y29319286D01*
X75057380Y28700239D02*
X74976428Y28652620D01*
X74814523Y28652620D01*
X74733571Y28700239D01*
X74693095Y28795477D01*
X74693095Y29176429D01*
X74733571Y29271667D01*
X74814523Y29319286D01*
X74976428Y29319286D01*
X75057380Y29271667D01*
X75097857Y29176429D01*
X75097857Y29081191D01*
X74693095Y28985953D01*
X75381190Y29319286D02*
X75543095Y28652620D01*
X75705000Y29128810D01*
X75866904Y28652620D01*
X76028809Y29319286D01*
X77121666Y29224048D02*
X77040714Y29271667D01*
X77000238Y29319286D01*
X76959761Y29414524D01*
X76959761Y29462143D01*
X77000238Y29557381D01*
X77040714Y29605000D01*
X77121666Y29652620D01*
X77283571Y29652620D01*
X77364523Y29605000D01*
X77405000Y29557381D01*
X77445476Y29462143D01*
X77445476Y29414524D01*
X77405000Y29319286D01*
X77364523Y29271667D01*
X77283571Y29224048D01*
X77121666Y29224048D01*
X77040714Y29176429D01*
X77000238Y29128810D01*
X76959761Y29033572D01*
X76959761Y28843096D01*
X77000238Y28747858D01*
X77040714Y28700239D01*
X77121666Y28652620D01*
X77283571Y28652620D01*
X77364523Y28700239D01*
X77405000Y28747858D01*
X77445476Y28843096D01*
X77445476Y29033572D01*
X77405000Y29128810D01*
X77364523Y29176429D01*
X77283571Y29224048D01*
X77809761Y29033572D02*
X78457380Y29033572D01*
X78862142Y28652620D02*
X78862142Y29652620D01*
X78862142Y29271667D02*
X78943095Y29319286D01*
X79105000Y29319286D01*
X79185952Y29271667D01*
X79226428Y29224048D01*
X79266904Y29128810D01*
X79266904Y28843096D01*
X79226428Y28747858D01*
X79185952Y28700239D01*
X79105000Y28652620D01*
X78943095Y28652620D01*
X78862142Y28700239D01*
X79631190Y28652620D02*
X79631190Y29319286D01*
X79631190Y29652620D02*
X79590714Y29605000D01*
X79631190Y29557381D01*
X79671666Y29605000D01*
X79631190Y29652620D01*
X79631190Y29557381D01*
X79914523Y29319286D02*
X80238333Y29319286D01*
X80035952Y29652620D02*
X80035952Y28795477D01*
X80076428Y28700239D01*
X80157380Y28652620D01*
X80238333Y28652620D01*
X81655000Y28747858D02*
X81614523Y28700239D01*
X81493095Y28652620D01*
X81412142Y28652620D01*
X81290714Y28700239D01*
X81209761Y28795477D01*
X81169285Y28890715D01*
X81128809Y29081191D01*
X81128809Y29224048D01*
X81169285Y29414524D01*
X81209761Y29509762D01*
X81290714Y29605000D01*
X81412142Y29652620D01*
X81493095Y29652620D01*
X81614523Y29605000D01*
X81655000Y29557381D01*
X82140714Y28652620D02*
X82059761Y28700239D01*
X82019285Y28747858D01*
X81978809Y28843096D01*
X81978809Y29128810D01*
X82019285Y29224048D01*
X82059761Y29271667D01*
X82140714Y29319286D01*
X82262142Y29319286D01*
X82343095Y29271667D01*
X82383571Y29224048D01*
X82424047Y29128810D01*
X82424047Y28843096D01*
X82383571Y28747858D01*
X82343095Y28700239D01*
X82262142Y28652620D01*
X82140714Y28652620D01*
X82788333Y28652620D02*
X82788333Y29319286D01*
X82788333Y29224048D02*
X82828809Y29271667D01*
X82909761Y29319286D01*
X83031190Y29319286D01*
X83112142Y29271667D01*
X83152619Y29176429D01*
X83152619Y28652620D01*
X83152619Y29176429D02*
X83193095Y29271667D01*
X83274047Y29319286D01*
X83395476Y29319286D01*
X83476428Y29271667D01*
X83516904Y29176429D01*
X83516904Y28652620D01*
X83921666Y29319286D02*
X83921666Y28319286D01*
X83921666Y29271667D02*
X84002619Y29319286D01*
X84164523Y29319286D01*
X84245476Y29271667D01*
X84285952Y29224048D01*
X84326428Y29128810D01*
X84326428Y28843096D01*
X84285952Y28747858D01*
X84245476Y28700239D01*
X84164523Y28652620D01*
X84002619Y28652620D01*
X83921666Y28700239D01*
X85055000Y29319286D02*
X85055000Y28652620D01*
X84690714Y29319286D02*
X84690714Y28795477D01*
X84731190Y28700239D01*
X84812142Y28652620D01*
X84933571Y28652620D01*
X85014523Y28700239D01*
X85055000Y28747858D01*
X85338333Y29319286D02*
X85662142Y29319286D01*
X85459761Y29652620D02*
X85459761Y28795477D01*
X85500238Y28700239D01*
X85581190Y28652620D01*
X85662142Y28652620D01*
X86269285Y28700239D02*
X86188333Y28652620D01*
X86026428Y28652620D01*
X85945476Y28700239D01*
X85905000Y28795477D01*
X85905000Y29176429D01*
X85945476Y29271667D01*
X86026428Y29319286D01*
X86188333Y29319286D01*
X86269285Y29271667D01*
X86309761Y29176429D01*
X86309761Y29081191D01*
X85905000Y28985953D01*
X86674047Y28652620D02*
X86674047Y29319286D01*
X86674047Y29128810D02*
X86714523Y29224048D01*
X86755000Y29271667D01*
X86835952Y29319286D01*
X86916904Y29319286D01*
X72912142Y27566429D02*
X73033571Y27518810D01*
X73074047Y27471191D01*
X73114523Y27375953D01*
X73114523Y27233096D01*
X73074047Y27137858D01*
X73033571Y27090239D01*
X72952619Y27042620D01*
X72628809Y27042620D01*
X72628809Y28042620D01*
X72912142Y28042620D01*
X72993095Y27995000D01*
X73033571Y27947381D01*
X73074047Y27852143D01*
X73074047Y27756905D01*
X73033571Y27661667D01*
X72993095Y27614048D01*
X72912142Y27566429D01*
X72628809Y27566429D01*
X73843095Y27042620D02*
X73843095Y27566429D01*
X73802619Y27661667D01*
X73721666Y27709286D01*
X73559761Y27709286D01*
X73478809Y27661667D01*
X73843095Y27090239D02*
X73762142Y27042620D01*
X73559761Y27042620D01*
X73478809Y27090239D01*
X73438333Y27185477D01*
X73438333Y27280715D01*
X73478809Y27375953D01*
X73559761Y27423572D01*
X73762142Y27423572D01*
X73843095Y27471191D01*
X74207380Y27090239D02*
X74288333Y27042620D01*
X74450238Y27042620D01*
X74531190Y27090239D01*
X74571666Y27185477D01*
X74571666Y27233096D01*
X74531190Y27328334D01*
X74450238Y27375953D01*
X74328809Y27375953D01*
X74247857Y27423572D01*
X74207380Y27518810D01*
X74207380Y27566429D01*
X74247857Y27661667D01*
X74328809Y27709286D01*
X74450238Y27709286D01*
X74531190Y27661667D01*
X75259761Y27090239D02*
X75178809Y27042620D01*
X75016904Y27042620D01*
X74935952Y27090239D01*
X74895476Y27185477D01*
X74895476Y27566429D01*
X74935952Y27661667D01*
X75016904Y27709286D01*
X75178809Y27709286D01*
X75259761Y27661667D01*
X75300238Y27566429D01*
X75300238Y27471191D01*
X74895476Y27375953D01*
X76028809Y27042620D02*
X76028809Y28042620D01*
X76028809Y27090239D02*
X75947857Y27042620D01*
X75785952Y27042620D01*
X75705000Y27090239D01*
X75664523Y27137858D01*
X75624047Y27233096D01*
X75624047Y27518810D01*
X75664523Y27614048D01*
X75705000Y27661667D01*
X75785952Y27709286D01*
X75947857Y27709286D01*
X76028809Y27661667D01*
X77202619Y27042620D02*
X77121666Y27090239D01*
X77081190Y27137858D01*
X77040714Y27233096D01*
X77040714Y27518810D01*
X77081190Y27614048D01*
X77121666Y27661667D01*
X77202619Y27709286D01*
X77324047Y27709286D01*
X77405000Y27661667D01*
X77445476Y27614048D01*
X77485952Y27518810D01*
X77485952Y27233096D01*
X77445476Y27137858D01*
X77405000Y27090239D01*
X77324047Y27042620D01*
X77202619Y27042620D01*
X77850238Y27709286D02*
X77850238Y27042620D01*
X77850238Y27614048D02*
X77890714Y27661667D01*
X77971666Y27709286D01*
X78093095Y27709286D01*
X78174047Y27661667D01*
X78214523Y27566429D01*
X78214523Y27042620D01*
X79145476Y27709286D02*
X79469285Y27709286D01*
X79266904Y28042620D02*
X79266904Y27185477D01*
X79307380Y27090239D01*
X79388333Y27042620D01*
X79469285Y27042620D01*
X79752619Y27042620D02*
X79752619Y28042620D01*
X80116904Y27042620D02*
X80116904Y27566429D01*
X80076428Y27661667D01*
X79995476Y27709286D01*
X79874047Y27709286D01*
X79793095Y27661667D01*
X79752619Y27614048D01*
X80845476Y27090239D02*
X80764523Y27042620D01*
X80602619Y27042620D01*
X80521666Y27090239D01*
X80481190Y27185477D01*
X80481190Y27566429D01*
X80521666Y27661667D01*
X80602619Y27709286D01*
X80764523Y27709286D01*
X80845476Y27661667D01*
X80885952Y27566429D01*
X80885952Y27471191D01*
X80481190Y27375953D01*
X82262142Y28042620D02*
X82100238Y28042620D01*
X82019285Y27995000D01*
X81978809Y27947381D01*
X81897857Y27804524D01*
X81857380Y27614048D01*
X81857380Y27233096D01*
X81897857Y27137858D01*
X81938333Y27090239D01*
X82019285Y27042620D01*
X82181190Y27042620D01*
X82262142Y27090239D01*
X82302619Y27137858D01*
X82343095Y27233096D01*
X82343095Y27471191D01*
X82302619Y27566429D01*
X82262142Y27614048D01*
X82181190Y27661667D01*
X82019285Y27661667D01*
X81938333Y27614048D01*
X81897857Y27566429D01*
X81857380Y27471191D01*
X83112142Y28042620D02*
X82707380Y28042620D01*
X82666904Y27566429D01*
X82707380Y27614048D01*
X82788333Y27661667D01*
X82990714Y27661667D01*
X83071666Y27614048D01*
X83112142Y27566429D01*
X83152619Y27471191D01*
X83152619Y27233096D01*
X83112142Y27137858D01*
X83071666Y27090239D01*
X82990714Y27042620D01*
X82788333Y27042620D01*
X82707380Y27090239D01*
X82666904Y27137858D01*
X83678809Y28042620D02*
X83759761Y28042620D01*
X83840714Y27995000D01*
X83881190Y27947381D01*
X83921666Y27852143D01*
X83962142Y27661667D01*
X83962142Y27423572D01*
X83921666Y27233096D01*
X83881190Y27137858D01*
X83840714Y27090239D01*
X83759761Y27042620D01*
X83678809Y27042620D01*
X83597857Y27090239D01*
X83557380Y27137858D01*
X83516904Y27233096D01*
X83476428Y27423572D01*
X83476428Y27661667D01*
X83516904Y27852143D01*
X83557380Y27947381D01*
X83597857Y27995000D01*
X83678809Y28042620D01*
X84285952Y27947381D02*
X84326428Y27995000D01*
X84407380Y28042620D01*
X84609761Y28042620D01*
X84690714Y27995000D01*
X84731190Y27947381D01*
X84771666Y27852143D01*
X84771666Y27756905D01*
X84731190Y27614048D01*
X84245476Y27042620D01*
X84771666Y27042620D01*
X96776071Y32835715D02*
X96776071Y33585715D01*
X96954642Y33585715D01*
X97061785Y33550000D01*
X97133214Y33478572D01*
X97168928Y33407143D01*
X97204642Y33264286D01*
X97204642Y33157143D01*
X97168928Y33014286D01*
X97133214Y32942858D01*
X97061785Y32871429D01*
X96954642Y32835715D01*
X96776071Y32835715D01*
X97847500Y33585715D02*
X97704642Y33585715D01*
X97633214Y33550000D01*
X97597500Y33514286D01*
X97526071Y33407143D01*
X97490357Y33264286D01*
X97490357Y32978572D01*
X97526071Y32907143D01*
X97561785Y32871429D01*
X97633214Y32835715D01*
X97776071Y32835715D01*
X97847500Y32871429D01*
X97883214Y32907143D01*
X97918928Y32978572D01*
X97918928Y33157143D01*
X97883214Y33228572D01*
X97847500Y33264286D01*
X97776071Y33300000D01*
X97633214Y33300000D01*
X97561785Y33264286D01*
X97526071Y33228572D01*
X97490357Y33157143D01*
D17*
X79088809Y19407620D02*
X79181666Y19383810D01*
X79336428Y19383810D01*
X79398333Y19407620D01*
X79429285Y19431429D01*
X79460238Y19479048D01*
X79460238Y19526667D01*
X79429285Y19574286D01*
X79398333Y19598096D01*
X79336428Y19621905D01*
X79212619Y19645715D01*
X79150714Y19669524D01*
X79119761Y19693334D01*
X79088809Y19740953D01*
X79088809Y19788572D01*
X79119761Y19836191D01*
X79150714Y19860000D01*
X79212619Y19883810D01*
X79367380Y19883810D01*
X79460238Y19860000D01*
X79274523Y19955239D02*
X79274523Y19312381D01*
X79862619Y19883810D02*
X79924523Y19883810D01*
X79986428Y19860000D01*
X80017380Y19836191D01*
X80048333Y19788572D01*
X80079285Y19693334D01*
X80079285Y19574286D01*
X80048333Y19479048D01*
X80017380Y19431429D01*
X79986428Y19407620D01*
X79924523Y19383810D01*
X79862619Y19383810D01*
X79800714Y19407620D01*
X79769761Y19431429D01*
X79738809Y19479048D01*
X79707857Y19574286D01*
X79707857Y19693334D01*
X79738809Y19788572D01*
X79769761Y19836191D01*
X79800714Y19860000D01*
X79862619Y19883810D01*
X80481666Y19883810D02*
X80543571Y19883810D01*
X80605476Y19860000D01*
X80636428Y19836191D01*
X80667380Y19788572D01*
X80698333Y19693334D01*
X80698333Y19574286D01*
X80667380Y19479048D01*
X80636428Y19431429D01*
X80605476Y19407620D01*
X80543571Y19383810D01*
X80481666Y19383810D01*
X80419761Y19407620D01*
X80388809Y19431429D01*
X80357857Y19479048D01*
X80326904Y19574286D01*
X80326904Y19693334D01*
X80357857Y19788572D01*
X80388809Y19836191D01*
X80419761Y19860000D01*
X80481666Y19883810D01*
X81100714Y19883810D02*
X81162619Y19883810D01*
X81224523Y19860000D01*
X81255476Y19836191D01*
X81286428Y19788572D01*
X81317380Y19693334D01*
X81317380Y19574286D01*
X81286428Y19479048D01*
X81255476Y19431429D01*
X81224523Y19407620D01*
X81162619Y19383810D01*
X81100714Y19383810D01*
X81038809Y19407620D01*
X81007857Y19431429D01*
X80976904Y19479048D01*
X80945952Y19574286D01*
X80945952Y19693334D01*
X80976904Y19788572D01*
X81007857Y19836191D01*
X81038809Y19860000D01*
X81100714Y19883810D01*
X81719761Y19883810D02*
X81781666Y19883810D01*
X81843571Y19860000D01*
X81874523Y19836191D01*
X81905476Y19788572D01*
X81936428Y19693334D01*
X81936428Y19574286D01*
X81905476Y19479048D01*
X81874523Y19431429D01*
X81843571Y19407620D01*
X81781666Y19383810D01*
X81719761Y19383810D01*
X81657857Y19407620D01*
X81626904Y19431429D01*
X81595952Y19479048D01*
X81565000Y19574286D01*
X81565000Y19693334D01*
X81595952Y19788572D01*
X81626904Y19836191D01*
X81657857Y19860000D01*
X81719761Y19883810D01*
X82710238Y19574286D02*
X83205476Y19574286D01*
X83979285Y19407620D02*
X84072142Y19383810D01*
X84226904Y19383810D01*
X84288809Y19407620D01*
X84319761Y19431429D01*
X84350714Y19479048D01*
X84350714Y19526667D01*
X84319761Y19574286D01*
X84288809Y19598096D01*
X84226904Y19621905D01*
X84103095Y19645715D01*
X84041190Y19669524D01*
X84010238Y19693334D01*
X83979285Y19740953D01*
X83979285Y19788572D01*
X84010238Y19836191D01*
X84041190Y19860000D01*
X84103095Y19883810D01*
X84257857Y19883810D01*
X84350714Y19860000D01*
X84165000Y19955239D02*
X84165000Y19312381D01*
X84567380Y19883810D02*
X84969761Y19883810D01*
X84753095Y19693334D01*
X84845952Y19693334D01*
X84907857Y19669524D01*
X84938809Y19645715D01*
X84969761Y19598096D01*
X84969761Y19479048D01*
X84938809Y19431429D01*
X84907857Y19407620D01*
X84845952Y19383810D01*
X84660238Y19383810D01*
X84598333Y19407620D01*
X84567380Y19431429D01*
X85465000Y19645715D02*
X85248333Y19645715D01*
X85248333Y19383810D02*
X85248333Y19883810D01*
X85557857Y19883810D01*
X86022142Y19645715D02*
X85805476Y19645715D01*
X85805476Y19383810D02*
X85805476Y19883810D01*
X86115000Y19883810D01*
X86579285Y19645715D02*
X86362619Y19645715D01*
X86362619Y19383810D02*
X86362619Y19883810D01*
X86672142Y19883810D01*
X79088809Y18602620D02*
X79181666Y18578810D01*
X79336428Y18578810D01*
X79398333Y18602620D01*
X79429285Y18626429D01*
X79460238Y18674048D01*
X79460238Y18721667D01*
X79429285Y18769286D01*
X79398333Y18793096D01*
X79336428Y18816905D01*
X79212619Y18840715D01*
X79150714Y18864524D01*
X79119761Y18888334D01*
X79088809Y18935953D01*
X79088809Y18983572D01*
X79119761Y19031191D01*
X79150714Y19055000D01*
X79212619Y19078810D01*
X79367380Y19078810D01*
X79460238Y19055000D01*
X79274523Y19150239D02*
X79274523Y18507381D01*
X80017380Y19078810D02*
X79893571Y19078810D01*
X79831666Y19055000D01*
X79800714Y19031191D01*
X79738809Y18959762D01*
X79707857Y18864524D01*
X79707857Y18674048D01*
X79738809Y18626429D01*
X79769761Y18602620D01*
X79831666Y18578810D01*
X79955476Y18578810D01*
X80017380Y18602620D01*
X80048333Y18626429D01*
X80079285Y18674048D01*
X80079285Y18793096D01*
X80048333Y18840715D01*
X80017380Y18864524D01*
X79955476Y18888334D01*
X79831666Y18888334D01*
X79769761Y18864524D01*
X79738809Y18840715D01*
X79707857Y18793096D01*
X80481666Y19078810D02*
X80543571Y19078810D01*
X80605476Y19055000D01*
X80636428Y19031191D01*
X80667380Y18983572D01*
X80698333Y18888334D01*
X80698333Y18769286D01*
X80667380Y18674048D01*
X80636428Y18626429D01*
X80605476Y18602620D01*
X80543571Y18578810D01*
X80481666Y18578810D01*
X80419761Y18602620D01*
X80388809Y18626429D01*
X80357857Y18674048D01*
X80326904Y18769286D01*
X80326904Y18888334D01*
X80357857Y18983572D01*
X80388809Y19031191D01*
X80419761Y19055000D01*
X80481666Y19078810D01*
X81100714Y19078810D02*
X81162619Y19078810D01*
X81224523Y19055000D01*
X81255476Y19031191D01*
X81286428Y18983572D01*
X81317380Y18888334D01*
X81317380Y18769286D01*
X81286428Y18674048D01*
X81255476Y18626429D01*
X81224523Y18602620D01*
X81162619Y18578810D01*
X81100714Y18578810D01*
X81038809Y18602620D01*
X81007857Y18626429D01*
X80976904Y18674048D01*
X80945952Y18769286D01*
X80945952Y18888334D01*
X80976904Y18983572D01*
X81007857Y19031191D01*
X81038809Y19055000D01*
X81100714Y19078810D01*
X81719761Y19078810D02*
X81781666Y19078810D01*
X81843571Y19055000D01*
X81874523Y19031191D01*
X81905476Y18983572D01*
X81936428Y18888334D01*
X81936428Y18769286D01*
X81905476Y18674048D01*
X81874523Y18626429D01*
X81843571Y18602620D01*
X81781666Y18578810D01*
X81719761Y18578810D01*
X81657857Y18602620D01*
X81626904Y18626429D01*
X81595952Y18674048D01*
X81565000Y18769286D01*
X81565000Y18888334D01*
X81595952Y18983572D01*
X81626904Y19031191D01*
X81657857Y19055000D01*
X81719761Y19078810D01*
X82710238Y18769286D02*
X83205476Y18769286D01*
X83979285Y18602620D02*
X84072142Y18578810D01*
X84226904Y18578810D01*
X84288809Y18602620D01*
X84319761Y18626429D01*
X84350714Y18674048D01*
X84350714Y18721667D01*
X84319761Y18769286D01*
X84288809Y18793096D01*
X84226904Y18816905D01*
X84103095Y18840715D01*
X84041190Y18864524D01*
X84010238Y18888334D01*
X83979285Y18935953D01*
X83979285Y18983572D01*
X84010238Y19031191D01*
X84041190Y19055000D01*
X84103095Y19078810D01*
X84257857Y19078810D01*
X84350714Y19055000D01*
X84165000Y19150239D02*
X84165000Y18507381D01*
X84907857Y19078810D02*
X84784047Y19078810D01*
X84722142Y19055000D01*
X84691190Y19031191D01*
X84629285Y18959762D01*
X84598333Y18864524D01*
X84598333Y18674048D01*
X84629285Y18626429D01*
X84660238Y18602620D01*
X84722142Y18578810D01*
X84845952Y18578810D01*
X84907857Y18602620D01*
X84938809Y18626429D01*
X84969761Y18674048D01*
X84969761Y18793096D01*
X84938809Y18840715D01*
X84907857Y18864524D01*
X84845952Y18888334D01*
X84722142Y18888334D01*
X84660238Y18864524D01*
X84629285Y18840715D01*
X84598333Y18793096D01*
X85372142Y19078810D02*
X85434047Y19078810D01*
X85495952Y19055000D01*
X85526904Y19031191D01*
X85557857Y18983572D01*
X85588809Y18888334D01*
X85588809Y18769286D01*
X85557857Y18674048D01*
X85526904Y18626429D01*
X85495952Y18602620D01*
X85434047Y18578810D01*
X85372142Y18578810D01*
X85310238Y18602620D01*
X85279285Y18626429D01*
X85248333Y18674048D01*
X85217380Y18769286D01*
X85217380Y18888334D01*
X85248333Y18983572D01*
X85279285Y19031191D01*
X85310238Y19055000D01*
X85372142Y19078810D01*
X85991190Y19078810D02*
X86053095Y19078810D01*
X86115000Y19055000D01*
X86145952Y19031191D01*
X86176904Y18983572D01*
X86207857Y18888334D01*
X86207857Y18769286D01*
X86176904Y18674048D01*
X86145952Y18626429D01*
X86115000Y18602620D01*
X86053095Y18578810D01*
X85991190Y18578810D01*
X85929285Y18602620D01*
X85898333Y18626429D01*
X85867380Y18674048D01*
X85836428Y18769286D01*
X85836428Y18888334D01*
X85867380Y18983572D01*
X85898333Y19031191D01*
X85929285Y19055000D01*
X85991190Y19078810D01*
X86703095Y18840715D02*
X86486428Y18840715D01*
X86486428Y18578810D02*
X86486428Y19078810D01*
X86795952Y19078810D01*
X79088809Y17797620D02*
X79181666Y17773810D01*
X79336428Y17773810D01*
X79398333Y17797620D01*
X79429285Y17821429D01*
X79460238Y17869048D01*
X79460238Y17916667D01*
X79429285Y17964286D01*
X79398333Y17988096D01*
X79336428Y18011905D01*
X79212619Y18035715D01*
X79150714Y18059524D01*
X79119761Y18083334D01*
X79088809Y18130953D01*
X79088809Y18178572D01*
X79119761Y18226191D01*
X79150714Y18250000D01*
X79212619Y18273810D01*
X79367380Y18273810D01*
X79460238Y18250000D01*
X79274523Y18345239D02*
X79274523Y17702381D01*
X80048333Y18273810D02*
X79738809Y18273810D01*
X79707857Y18035715D01*
X79738809Y18059524D01*
X79800714Y18083334D01*
X79955476Y18083334D01*
X80017380Y18059524D01*
X80048333Y18035715D01*
X80079285Y17988096D01*
X80079285Y17869048D01*
X80048333Y17821429D01*
X80017380Y17797620D01*
X79955476Y17773810D01*
X79800714Y17773810D01*
X79738809Y17797620D01*
X79707857Y17821429D01*
X80481666Y18273810D02*
X80543571Y18273810D01*
X80605476Y18250000D01*
X80636428Y18226191D01*
X80667380Y18178572D01*
X80698333Y18083334D01*
X80698333Y17964286D01*
X80667380Y17869048D01*
X80636428Y17821429D01*
X80605476Y17797620D01*
X80543571Y17773810D01*
X80481666Y17773810D01*
X80419761Y17797620D01*
X80388809Y17821429D01*
X80357857Y17869048D01*
X80326904Y17964286D01*
X80326904Y18083334D01*
X80357857Y18178572D01*
X80388809Y18226191D01*
X80419761Y18250000D01*
X80481666Y18273810D01*
X81100714Y18273810D02*
X81162619Y18273810D01*
X81224523Y18250000D01*
X81255476Y18226191D01*
X81286428Y18178572D01*
X81317380Y18083334D01*
X81317380Y17964286D01*
X81286428Y17869048D01*
X81255476Y17821429D01*
X81224523Y17797620D01*
X81162619Y17773810D01*
X81100714Y17773810D01*
X81038809Y17797620D01*
X81007857Y17821429D01*
X80976904Y17869048D01*
X80945952Y17964286D01*
X80945952Y18083334D01*
X80976904Y18178572D01*
X81007857Y18226191D01*
X81038809Y18250000D01*
X81100714Y18273810D01*
X81719761Y18273810D02*
X81781666Y18273810D01*
X81843571Y18250000D01*
X81874523Y18226191D01*
X81905476Y18178572D01*
X81936428Y18083334D01*
X81936428Y17964286D01*
X81905476Y17869048D01*
X81874523Y17821429D01*
X81843571Y17797620D01*
X81781666Y17773810D01*
X81719761Y17773810D01*
X81657857Y17797620D01*
X81626904Y17821429D01*
X81595952Y17869048D01*
X81565000Y17964286D01*
X81565000Y18083334D01*
X81595952Y18178572D01*
X81626904Y18226191D01*
X81657857Y18250000D01*
X81719761Y18273810D01*
X82710238Y17964286D02*
X83205476Y17964286D01*
X83979285Y17797620D02*
X84072142Y17773810D01*
X84226904Y17773810D01*
X84288809Y17797620D01*
X84319761Y17821429D01*
X84350714Y17869048D01*
X84350714Y17916667D01*
X84319761Y17964286D01*
X84288809Y17988096D01*
X84226904Y18011905D01*
X84103095Y18035715D01*
X84041190Y18059524D01*
X84010238Y18083334D01*
X83979285Y18130953D01*
X83979285Y18178572D01*
X84010238Y18226191D01*
X84041190Y18250000D01*
X84103095Y18273810D01*
X84257857Y18273810D01*
X84350714Y18250000D01*
X84165000Y18345239D02*
X84165000Y17702381D01*
X84938809Y18273810D02*
X84629285Y18273810D01*
X84598333Y18035715D01*
X84629285Y18059524D01*
X84691190Y18083334D01*
X84845952Y18083334D01*
X84907857Y18059524D01*
X84938809Y18035715D01*
X84969761Y17988096D01*
X84969761Y17869048D01*
X84938809Y17821429D01*
X84907857Y17797620D01*
X84845952Y17773810D01*
X84691190Y17773810D01*
X84629285Y17797620D01*
X84598333Y17821429D01*
X85372142Y18273810D02*
X85434047Y18273810D01*
X85495952Y18250000D01*
X85526904Y18226191D01*
X85557857Y18178572D01*
X85588809Y18083334D01*
X85588809Y17964286D01*
X85557857Y17869048D01*
X85526904Y17821429D01*
X85495952Y17797620D01*
X85434047Y17773810D01*
X85372142Y17773810D01*
X85310238Y17797620D01*
X85279285Y17821429D01*
X85248333Y17869048D01*
X85217380Y17964286D01*
X85217380Y18083334D01*
X85248333Y18178572D01*
X85279285Y18226191D01*
X85310238Y18250000D01*
X85372142Y18273810D01*
X85991190Y18273810D02*
X86053095Y18273810D01*
X86115000Y18250000D01*
X86145952Y18226191D01*
X86176904Y18178572D01*
X86207857Y18083334D01*
X86207857Y17964286D01*
X86176904Y17869048D01*
X86145952Y17821429D01*
X86115000Y17797620D01*
X86053095Y17773810D01*
X85991190Y17773810D01*
X85929285Y17797620D01*
X85898333Y17821429D01*
X85867380Y17869048D01*
X85836428Y17964286D01*
X85836428Y18083334D01*
X85867380Y18178572D01*
X85898333Y18226191D01*
X85929285Y18250000D01*
X85991190Y18273810D01*
X86703095Y18035715D02*
X86486428Y18035715D01*
X86486428Y17773810D02*
X86486428Y18273810D01*
X86795952Y18273810D01*
X79088809Y16992620D02*
X79181666Y16968810D01*
X79336428Y16968810D01*
X79398333Y16992620D01*
X79429285Y17016429D01*
X79460238Y17064048D01*
X79460238Y17111667D01*
X79429285Y17159286D01*
X79398333Y17183096D01*
X79336428Y17206905D01*
X79212619Y17230715D01*
X79150714Y17254524D01*
X79119761Y17278334D01*
X79088809Y17325953D01*
X79088809Y17373572D01*
X79119761Y17421191D01*
X79150714Y17445000D01*
X79212619Y17468810D01*
X79367380Y17468810D01*
X79460238Y17445000D01*
X79274523Y17540239D02*
X79274523Y16897381D01*
X80017380Y17302143D02*
X80017380Y16968810D01*
X79862619Y17492620D02*
X79707857Y17135477D01*
X80110238Y17135477D01*
X80450714Y17254524D02*
X80388809Y17278334D01*
X80357857Y17302143D01*
X80326904Y17349762D01*
X80326904Y17373572D01*
X80357857Y17421191D01*
X80388809Y17445000D01*
X80450714Y17468810D01*
X80574523Y17468810D01*
X80636428Y17445000D01*
X80667380Y17421191D01*
X80698333Y17373572D01*
X80698333Y17349762D01*
X80667380Y17302143D01*
X80636428Y17278334D01*
X80574523Y17254524D01*
X80450714Y17254524D01*
X80388809Y17230715D01*
X80357857Y17206905D01*
X80326904Y17159286D01*
X80326904Y17064048D01*
X80357857Y17016429D01*
X80388809Y16992620D01*
X80450714Y16968810D01*
X80574523Y16968810D01*
X80636428Y16992620D01*
X80667380Y17016429D01*
X80698333Y17064048D01*
X80698333Y17159286D01*
X80667380Y17206905D01*
X80636428Y17230715D01*
X80574523Y17254524D01*
X81100714Y17468810D02*
X81162619Y17468810D01*
X81224523Y17445000D01*
X81255476Y17421191D01*
X81286428Y17373572D01*
X81317380Y17278334D01*
X81317380Y17159286D01*
X81286428Y17064048D01*
X81255476Y17016429D01*
X81224523Y16992620D01*
X81162619Y16968810D01*
X81100714Y16968810D01*
X81038809Y16992620D01*
X81007857Y17016429D01*
X80976904Y17064048D01*
X80945952Y17159286D01*
X80945952Y17278334D01*
X80976904Y17373572D01*
X81007857Y17421191D01*
X81038809Y17445000D01*
X81100714Y17468810D01*
X81719761Y17468810D02*
X81781666Y17468810D01*
X81843571Y17445000D01*
X81874523Y17421191D01*
X81905476Y17373572D01*
X81936428Y17278334D01*
X81936428Y17159286D01*
X81905476Y17064048D01*
X81874523Y17016429D01*
X81843571Y16992620D01*
X81781666Y16968810D01*
X81719761Y16968810D01*
X81657857Y16992620D01*
X81626904Y17016429D01*
X81595952Y17064048D01*
X81565000Y17159286D01*
X81565000Y17278334D01*
X81595952Y17373572D01*
X81626904Y17421191D01*
X81657857Y17445000D01*
X81719761Y17468810D01*
X82710238Y17159286D02*
X83205476Y17159286D01*
X83979285Y16992620D02*
X84072142Y16968810D01*
X84226904Y16968810D01*
X84288809Y16992620D01*
X84319761Y17016429D01*
X84350714Y17064048D01*
X84350714Y17111667D01*
X84319761Y17159286D01*
X84288809Y17183096D01*
X84226904Y17206905D01*
X84103095Y17230715D01*
X84041190Y17254524D01*
X84010238Y17278334D01*
X83979285Y17325953D01*
X83979285Y17373572D01*
X84010238Y17421191D01*
X84041190Y17445000D01*
X84103095Y17468810D01*
X84257857Y17468810D01*
X84350714Y17445000D01*
X84165000Y17540239D02*
X84165000Y16897381D01*
X84907857Y17302143D02*
X84907857Y16968810D01*
X84753095Y17492620D02*
X84598333Y17135477D01*
X85000714Y17135477D01*
X85341190Y17254524D02*
X85279285Y17278334D01*
X85248333Y17302143D01*
X85217380Y17349762D01*
X85217380Y17373572D01*
X85248333Y17421191D01*
X85279285Y17445000D01*
X85341190Y17468810D01*
X85465000Y17468810D01*
X85526904Y17445000D01*
X85557857Y17421191D01*
X85588809Y17373572D01*
X85588809Y17349762D01*
X85557857Y17302143D01*
X85526904Y17278334D01*
X85465000Y17254524D01*
X85341190Y17254524D01*
X85279285Y17230715D01*
X85248333Y17206905D01*
X85217380Y17159286D01*
X85217380Y17064048D01*
X85248333Y17016429D01*
X85279285Y16992620D01*
X85341190Y16968810D01*
X85465000Y16968810D01*
X85526904Y16992620D01*
X85557857Y17016429D01*
X85588809Y17064048D01*
X85588809Y17159286D01*
X85557857Y17206905D01*
X85526904Y17230715D01*
X85465000Y17254524D01*
X85991190Y17468810D02*
X86053095Y17468810D01*
X86115000Y17445000D01*
X86145952Y17421191D01*
X86176904Y17373572D01*
X86207857Y17278334D01*
X86207857Y17159286D01*
X86176904Y17064048D01*
X86145952Y17016429D01*
X86115000Y16992620D01*
X86053095Y16968810D01*
X85991190Y16968810D01*
X85929285Y16992620D01*
X85898333Y17016429D01*
X85867380Y17064048D01*
X85836428Y17159286D01*
X85836428Y17278334D01*
X85867380Y17373572D01*
X85898333Y17421191D01*
X85929285Y17445000D01*
X85991190Y17468810D01*
X86703095Y17230715D02*
X86486428Y17230715D01*
X86486428Y16968810D02*
X86486428Y17468810D01*
X86795952Y17468810D01*
X79088809Y16187620D02*
X79181666Y16163810D01*
X79336428Y16163810D01*
X79398333Y16187620D01*
X79429285Y16211429D01*
X79460238Y16259048D01*
X79460238Y16306667D01*
X79429285Y16354286D01*
X79398333Y16378096D01*
X79336428Y16401905D01*
X79212619Y16425715D01*
X79150714Y16449524D01*
X79119761Y16473334D01*
X79088809Y16520953D01*
X79088809Y16568572D01*
X79119761Y16616191D01*
X79150714Y16640000D01*
X79212619Y16663810D01*
X79367380Y16663810D01*
X79460238Y16640000D01*
X79274523Y16735239D02*
X79274523Y16092381D01*
X79831666Y16449524D02*
X79769761Y16473334D01*
X79738809Y16497143D01*
X79707857Y16544762D01*
X79707857Y16568572D01*
X79738809Y16616191D01*
X79769761Y16640000D01*
X79831666Y16663810D01*
X79955476Y16663810D01*
X80017380Y16640000D01*
X80048333Y16616191D01*
X80079285Y16568572D01*
X80079285Y16544762D01*
X80048333Y16497143D01*
X80017380Y16473334D01*
X79955476Y16449524D01*
X79831666Y16449524D01*
X79769761Y16425715D01*
X79738809Y16401905D01*
X79707857Y16354286D01*
X79707857Y16259048D01*
X79738809Y16211429D01*
X79769761Y16187620D01*
X79831666Y16163810D01*
X79955476Y16163810D01*
X80017380Y16187620D01*
X80048333Y16211429D01*
X80079285Y16259048D01*
X80079285Y16354286D01*
X80048333Y16401905D01*
X80017380Y16425715D01*
X79955476Y16449524D01*
X80481666Y16663810D02*
X80543571Y16663810D01*
X80605476Y16640000D01*
X80636428Y16616191D01*
X80667380Y16568572D01*
X80698333Y16473334D01*
X80698333Y16354286D01*
X80667380Y16259048D01*
X80636428Y16211429D01*
X80605476Y16187620D01*
X80543571Y16163810D01*
X80481666Y16163810D01*
X80419761Y16187620D01*
X80388809Y16211429D01*
X80357857Y16259048D01*
X80326904Y16354286D01*
X80326904Y16473334D01*
X80357857Y16568572D01*
X80388809Y16616191D01*
X80419761Y16640000D01*
X80481666Y16663810D01*
X81100714Y16663810D02*
X81162619Y16663810D01*
X81224523Y16640000D01*
X81255476Y16616191D01*
X81286428Y16568572D01*
X81317380Y16473334D01*
X81317380Y16354286D01*
X81286428Y16259048D01*
X81255476Y16211429D01*
X81224523Y16187620D01*
X81162619Y16163810D01*
X81100714Y16163810D01*
X81038809Y16187620D01*
X81007857Y16211429D01*
X80976904Y16259048D01*
X80945952Y16354286D01*
X80945952Y16473334D01*
X80976904Y16568572D01*
X81007857Y16616191D01*
X81038809Y16640000D01*
X81100714Y16663810D01*
X81719761Y16663810D02*
X81781666Y16663810D01*
X81843571Y16640000D01*
X81874523Y16616191D01*
X81905476Y16568572D01*
X81936428Y16473334D01*
X81936428Y16354286D01*
X81905476Y16259048D01*
X81874523Y16211429D01*
X81843571Y16187620D01*
X81781666Y16163810D01*
X81719761Y16163810D01*
X81657857Y16187620D01*
X81626904Y16211429D01*
X81595952Y16259048D01*
X81565000Y16354286D01*
X81565000Y16473334D01*
X81595952Y16568572D01*
X81626904Y16616191D01*
X81657857Y16640000D01*
X81719761Y16663810D01*
X82710238Y16354286D02*
X83205476Y16354286D01*
X83979285Y16187620D02*
X84072142Y16163810D01*
X84226904Y16163810D01*
X84288809Y16187620D01*
X84319761Y16211429D01*
X84350714Y16259048D01*
X84350714Y16306667D01*
X84319761Y16354286D01*
X84288809Y16378096D01*
X84226904Y16401905D01*
X84103095Y16425715D01*
X84041190Y16449524D01*
X84010238Y16473334D01*
X83979285Y16520953D01*
X83979285Y16568572D01*
X84010238Y16616191D01*
X84041190Y16640000D01*
X84103095Y16663810D01*
X84257857Y16663810D01*
X84350714Y16640000D01*
X84165000Y16735239D02*
X84165000Y16092381D01*
X84845952Y16425715D02*
X84629285Y16425715D01*
X84629285Y16163810D02*
X84629285Y16663810D01*
X84938809Y16663810D01*
X85403095Y16425715D02*
X85186428Y16425715D01*
X85186428Y16163810D02*
X85186428Y16663810D01*
X85495952Y16663810D01*
X85960238Y16425715D02*
X85743571Y16425715D01*
X85743571Y16163810D02*
X85743571Y16663810D01*
X86053095Y16663810D01*
X86517380Y16425715D02*
X86300714Y16425715D01*
X86300714Y16163810D02*
X86300714Y16663810D01*
X86610238Y16663810D01*
D16*
X90538214Y30975000D02*
X90895357Y30975000D01*
X90466785Y30760715D02*
X90716785Y31510715D01*
X90966785Y30760715D01*
X91145357Y31510715D02*
X91645357Y31510715D01*
X91323928Y30760715D01*
X96776071Y36810715D02*
X96776071Y37560715D01*
X96954642Y37560715D01*
X97061785Y37525000D01*
X97133214Y37453572D01*
X97168928Y37382143D01*
X97204642Y37239286D01*
X97204642Y37132143D01*
X97168928Y36989286D01*
X97133214Y36917858D01*
X97061785Y36846429D01*
X96954642Y36810715D01*
X96776071Y36810715D01*
X97847500Y37310715D02*
X97847500Y36810715D01*
X97668928Y37596429D02*
X97490357Y37060715D01*
X97954642Y37060715D01*
D17*
X3875952Y57370000D02*
X3828333Y57393810D01*
X3756904Y57393810D01*
X3685476Y57370000D01*
X3637857Y57322381D01*
X3614047Y57274762D01*
X3590238Y57179524D01*
X3590238Y57108096D01*
X3614047Y57012858D01*
X3637857Y56965239D01*
X3685476Y56917620D01*
X3756904Y56893810D01*
X3804523Y56893810D01*
X3875952Y56917620D01*
X3899761Y56941429D01*
X3899761Y57108096D01*
X3804523Y57108096D01*
X4114047Y56893810D02*
X4114047Y57393810D01*
X4399761Y56893810D01*
X4399761Y57393810D01*
X4637857Y56893810D02*
X4637857Y57393810D01*
X4756904Y57393810D01*
X4828333Y57370000D01*
X4875952Y57322381D01*
X4899761Y57274762D01*
X4923571Y57179524D01*
X4923571Y57108096D01*
X4899761Y57012858D01*
X4875952Y56965239D01*
X4828333Y56917620D01*
X4756904Y56893810D01*
X4637857Y56893810D01*
D16*
X96726071Y66360715D02*
X96726071Y67110715D01*
X97011785Y67110715D01*
X97083214Y67075000D01*
X97118928Y67039286D01*
X97154642Y66967858D01*
X97154642Y66860715D01*
X97118928Y66789286D01*
X97083214Y66753572D01*
X97011785Y66717858D01*
X96726071Y66717858D01*
X97904642Y66432143D02*
X97868928Y66396429D01*
X97761785Y66360715D01*
X97690357Y66360715D01*
X97583214Y66396429D01*
X97511785Y66467858D01*
X97476071Y66539286D01*
X97440357Y66682143D01*
X97440357Y66789286D01*
X97476071Y66932143D01*
X97511785Y67003572D01*
X97583214Y67075000D01*
X97690357Y67110715D01*
X97761785Y67110715D01*
X97868928Y67075000D01*
X97904642Y67039286D01*
X98368928Y67110715D02*
X98440357Y67110715D01*
X98511785Y67075000D01*
X98547500Y67039286D01*
X98583214Y66967858D01*
X98618928Y66825000D01*
X98618928Y66646429D01*
X98583214Y66503572D01*
X98547500Y66432143D01*
X98511785Y66396429D01*
X98440357Y66360715D01*
X98368928Y66360715D01*
X98297500Y66396429D01*
X98261785Y66432143D01*
X98226071Y66503572D01*
X98190357Y66646429D01*
X98190357Y66825000D01*
X98226071Y66967858D01*
X98261785Y67039286D01*
X98297500Y67075000D01*
X98368928Y67110715D01*
D17*
X3590238Y52917620D02*
X3661666Y52893810D01*
X3780714Y52893810D01*
X3828333Y52917620D01*
X3852142Y52941429D01*
X3875952Y52989048D01*
X3875952Y53036667D01*
X3852142Y53084286D01*
X3828333Y53108096D01*
X3780714Y53131905D01*
X3685476Y53155715D01*
X3637857Y53179524D01*
X3614047Y53203334D01*
X3590238Y53250953D01*
X3590238Y53298572D01*
X3614047Y53346191D01*
X3637857Y53370000D01*
X3685476Y53393810D01*
X3804523Y53393810D01*
X3875952Y53370000D01*
X4375952Y52941429D02*
X4352142Y52917620D01*
X4280714Y52893810D01*
X4233095Y52893810D01*
X4161666Y52917620D01*
X4114047Y52965239D01*
X4090238Y53012858D01*
X4066428Y53108096D01*
X4066428Y53179524D01*
X4090238Y53274762D01*
X4114047Y53322381D01*
X4161666Y53370000D01*
X4233095Y53393810D01*
X4280714Y53393810D01*
X4352142Y53370000D01*
X4375952Y53346191D01*
X4828333Y52893810D02*
X4590238Y52893810D01*
X4590238Y53393810D01*
X4995000Y52893810D02*
X4995000Y53393810D01*
X5280714Y52893810D02*
X5066428Y53179524D01*
X5280714Y53393810D02*
X4995000Y53108096D01*
D16*
X89568785Y62460715D02*
X89568785Y63210715D01*
X89854500Y63210715D01*
X89925928Y63175000D01*
X89961642Y63139286D01*
X89997357Y63067858D01*
X89997357Y62960715D01*
X89961642Y62889286D01*
X89925928Y62853572D01*
X89854500Y62817858D01*
X89568785Y62817858D01*
X90318785Y62460715D02*
X90318785Y63210715D01*
X90497357Y63210715D01*
X90604500Y63175000D01*
X90675928Y63103572D01*
X90711642Y63032143D01*
X90747357Y62889286D01*
X90747357Y62782143D01*
X90711642Y62639286D01*
X90675928Y62567858D01*
X90604500Y62496429D01*
X90497357Y62460715D01*
X90318785Y62460715D01*
X90997357Y63210715D02*
X91461642Y63210715D01*
X91211642Y62925000D01*
X91318785Y62925000D01*
X91390214Y62889286D01*
X91425928Y62853572D01*
X91461642Y62782143D01*
X91461642Y62603572D01*
X91425928Y62532143D01*
X91390214Y62496429D01*
X91318785Y62460715D01*
X91104500Y62460715D01*
X91033071Y62496429D01*
X90997357Y62532143D01*
D17*
X20587714Y76057143D02*
X20552000Y76021429D01*
X20444857Y75985715D01*
X20373428Y75985715D01*
X20266285Y76021429D01*
X20194857Y76092858D01*
X20159142Y76164286D01*
X20123428Y76307143D01*
X20123428Y76414286D01*
X20159142Y76557143D01*
X20194857Y76628572D01*
X20266285Y76700000D01*
X20373428Y76735715D01*
X20444857Y76735715D01*
X20552000Y76700000D01*
X20587714Y76664286D01*
X21266285Y75985715D02*
X20909142Y75985715D01*
X20909142Y76735715D01*
X21659142Y76735715D02*
X21802000Y76735715D01*
X21873428Y76700000D01*
X21944857Y76628572D01*
X21980571Y76485715D01*
X21980571Y76235715D01*
X21944857Y76092858D01*
X21873428Y76021429D01*
X21802000Y75985715D01*
X21659142Y75985715D01*
X21587714Y76021429D01*
X21516285Y76092858D01*
X21480571Y76235715D01*
X21480571Y76485715D01*
X21516285Y76628572D01*
X21587714Y76700000D01*
X21659142Y76735715D01*
X22730571Y76057143D02*
X22694857Y76021429D01*
X22587714Y75985715D01*
X22516285Y75985715D01*
X22409142Y76021429D01*
X22337714Y76092858D01*
X22302000Y76164286D01*
X22266285Y76307143D01*
X22266285Y76414286D01*
X22302000Y76557143D01*
X22337714Y76628572D01*
X22409142Y76700000D01*
X22516285Y76735715D01*
X22587714Y76735715D01*
X22694857Y76700000D01*
X22730571Y76664286D01*
X23052000Y75985715D02*
X23052000Y76735715D01*
X23480571Y75985715D02*
X23159142Y76414286D01*
X23480571Y76735715D02*
X23052000Y76307143D01*
D11*
X24392000Y74215000D02*
X21802000Y74215000D01*
X24392000Y74215000D02*
X23265496Y74801421D01*
X24392000Y74215000D02*
X23265496Y73628579D01*
X21802000Y74215000D02*
X21802000Y75646250D01*
D16*
%TO.C,*%
%TO.C,C15*%
X16197142Y12472858D02*
X16149523Y12425239D01*
X16006666Y12377620D01*
X15911428Y12377620D01*
X15768571Y12425239D01*
X15673333Y12520477D01*
X15625714Y12615715D01*
X15578095Y12806191D01*
X15578095Y12949048D01*
X15625714Y13139524D01*
X15673333Y13234762D01*
X15768571Y13330000D01*
X15911428Y13377620D01*
X16006666Y13377620D01*
X16149523Y13330000D01*
X16197142Y13282381D01*
X17149523Y12377620D02*
X16578095Y12377620D01*
X16863809Y12377620D02*
X16863809Y13377620D01*
X16768571Y13234762D01*
X16673333Y13139524D01*
X16578095Y13091905D01*
X18054285Y13377620D02*
X17578095Y13377620D01*
X17530476Y12901429D01*
X17578095Y12949048D01*
X17673333Y12996667D01*
X17911428Y12996667D01*
X18006666Y12949048D01*
X18054285Y12901429D01*
X18101904Y12806191D01*
X18101904Y12568096D01*
X18054285Y12472858D01*
X18006666Y12425239D01*
X17911428Y12377620D01*
X17673333Y12377620D01*
X17578095Y12425239D01*
X17530476Y12472858D01*
%TO.C,R30*%
X35124642Y79897620D02*
X34791309Y80373810D01*
X34553214Y79897620D02*
X34553214Y80897620D01*
X34934166Y80897620D01*
X35029404Y80850000D01*
X35077023Y80802381D01*
X35124642Y80707143D01*
X35124642Y80564286D01*
X35077023Y80469048D01*
X35029404Y80421429D01*
X34934166Y80373810D01*
X34553214Y80373810D01*
X35457976Y80897620D02*
X36077023Y80897620D01*
X35743690Y80516667D01*
X35886547Y80516667D01*
X35981785Y80469048D01*
X36029404Y80421429D01*
X36077023Y80326191D01*
X36077023Y80088096D01*
X36029404Y79992858D01*
X35981785Y79945239D01*
X35886547Y79897620D01*
X35600833Y79897620D01*
X35505595Y79945239D01*
X35457976Y79992858D01*
X36696071Y80897620D02*
X36791309Y80897620D01*
X36886547Y80850000D01*
X36934166Y80802381D01*
X36981785Y80707143D01*
X37029404Y80516667D01*
X37029404Y80278572D01*
X36981785Y80088096D01*
X36934166Y79992858D01*
X36886547Y79945239D01*
X36791309Y79897620D01*
X36696071Y79897620D01*
X36600833Y79945239D01*
X36553214Y79992858D01*
X36505595Y80088096D01*
X36457976Y80278572D01*
X36457976Y80516667D01*
X36505595Y80707143D01*
X36553214Y80802381D01*
X36600833Y80850000D01*
X36696071Y80897620D01*
%TO.C,R22*%
X33457142Y15347620D02*
X33123809Y15823810D01*
X32885714Y15347620D02*
X32885714Y16347620D01*
X33266666Y16347620D01*
X33361904Y16300000D01*
X33409523Y16252381D01*
X33457142Y16157143D01*
X33457142Y16014286D01*
X33409523Y15919048D01*
X33361904Y15871429D01*
X33266666Y15823810D01*
X32885714Y15823810D01*
X33838095Y16252381D02*
X33885714Y16300000D01*
X33980952Y16347620D01*
X34219047Y16347620D01*
X34314285Y16300000D01*
X34361904Y16252381D01*
X34409523Y16157143D01*
X34409523Y16061905D01*
X34361904Y15919048D01*
X33790476Y15347620D01*
X34409523Y15347620D01*
X34790476Y16252381D02*
X34838095Y16300000D01*
X34933333Y16347620D01*
X35171428Y16347620D01*
X35266666Y16300000D01*
X35314285Y16252381D01*
X35361904Y16157143D01*
X35361904Y16061905D01*
X35314285Y15919048D01*
X34742857Y15347620D01*
X35361904Y15347620D01*
%TO.C,SDCARD1*%
X14582261Y64429524D02*
X14629880Y64572381D01*
X14629880Y64810477D01*
X14582261Y64905715D01*
X14534642Y64953334D01*
X14439404Y65000953D01*
X14344166Y65000953D01*
X14248928Y64953334D01*
X14201309Y64905715D01*
X14153690Y64810477D01*
X14106071Y64620000D01*
X14058452Y64524762D01*
X14010833Y64477143D01*
X13915595Y64429524D01*
X13820357Y64429524D01*
X13725119Y64477143D01*
X13677500Y64524762D01*
X13629880Y64620000D01*
X13629880Y64858096D01*
X13677500Y65000953D01*
X14629880Y65429524D02*
X13629880Y65429524D01*
X13629880Y65667620D01*
X13677500Y65810477D01*
X13772738Y65905715D01*
X13867976Y65953334D01*
X14058452Y66000953D01*
X14201309Y66000953D01*
X14391785Y65953334D01*
X14487023Y65905715D01*
X14582261Y65810477D01*
X14629880Y65667620D01*
X14629880Y65429524D01*
X14534642Y67000953D02*
X14582261Y66953334D01*
X14629880Y66810477D01*
X14629880Y66715239D01*
X14582261Y66572381D01*
X14487023Y66477143D01*
X14391785Y66429524D01*
X14201309Y66381905D01*
X14058452Y66381905D01*
X13867976Y66429524D01*
X13772738Y66477143D01*
X13677500Y66572381D01*
X13629880Y66715239D01*
X13629880Y66810477D01*
X13677500Y66953334D01*
X13725119Y67000953D01*
X14344166Y67381905D02*
X14344166Y67858096D01*
X14629880Y67286667D02*
X13629880Y67620000D01*
X14629880Y67953334D01*
X14629880Y68858096D02*
X14153690Y68524762D01*
X14629880Y68286667D02*
X13629880Y68286667D01*
X13629880Y68667620D01*
X13677500Y68762858D01*
X13725119Y68810477D01*
X13820357Y68858096D01*
X13963214Y68858096D01*
X14058452Y68810477D01*
X14106071Y68762858D01*
X14153690Y68667620D01*
X14153690Y68286667D01*
X14629880Y69286667D02*
X13629880Y69286667D01*
X13629880Y69524762D01*
X13677500Y69667620D01*
X13772738Y69762858D01*
X13867976Y69810477D01*
X14058452Y69858096D01*
X14201309Y69858096D01*
X14391785Y69810477D01*
X14487023Y69762858D01*
X14582261Y69667620D01*
X14629880Y69524762D01*
X14629880Y69286667D01*
X14629880Y70810477D02*
X14629880Y70239048D01*
X14629880Y70524762D02*
X13629880Y70524762D01*
X13772738Y70429524D01*
X13867976Y70334286D01*
X13915595Y70239048D01*
%TO.C,RESET_SW1*%
X44047071Y68391834D02*
X43713737Y68868024D01*
X43475642Y68391834D02*
X43475642Y69391834D01*
X43856594Y69391834D01*
X43951833Y69344214D01*
X43999452Y69296595D01*
X44047071Y69201357D01*
X44047071Y69058500D01*
X43999452Y68963262D01*
X43951833Y68915643D01*
X43856594Y68868024D01*
X43475642Y68868024D01*
X44475642Y68915643D02*
X44808975Y68915643D01*
X44951833Y68391834D02*
X44475642Y68391834D01*
X44475642Y69391834D01*
X44951833Y69391834D01*
X45332785Y68439453D02*
X45475642Y68391834D01*
X45713737Y68391834D01*
X45808975Y68439453D01*
X45856594Y68487072D01*
X45904214Y68582310D01*
X45904214Y68677548D01*
X45856594Y68772786D01*
X45808975Y68820405D01*
X45713737Y68868024D01*
X45523261Y68915643D01*
X45428023Y68963262D01*
X45380404Y69010881D01*
X45332785Y69106119D01*
X45332785Y69201357D01*
X45380404Y69296595D01*
X45428023Y69344214D01*
X45523261Y69391834D01*
X45761356Y69391834D01*
X45904214Y69344214D01*
X46332785Y68915643D02*
X46666118Y68915643D01*
X46808975Y68391834D02*
X46332785Y68391834D01*
X46332785Y69391834D01*
X46808975Y69391834D01*
X47094690Y69391834D02*
X47666118Y69391834D01*
X47380404Y68391834D02*
X47380404Y69391834D01*
X47761356Y68296595D02*
X48523261Y68296595D01*
X48713737Y68439453D02*
X48856594Y68391834D01*
X49094690Y68391834D01*
X49189928Y68439453D01*
X49237547Y68487072D01*
X49285166Y68582310D01*
X49285166Y68677548D01*
X49237547Y68772786D01*
X49189928Y68820405D01*
X49094690Y68868024D01*
X48904214Y68915643D01*
X48808975Y68963262D01*
X48761356Y69010881D01*
X48713737Y69106119D01*
X48713737Y69201357D01*
X48761356Y69296595D01*
X48808975Y69344214D01*
X48904214Y69391834D01*
X49142309Y69391834D01*
X49285166Y69344214D01*
X49618499Y69391834D02*
X49856594Y68391834D01*
X50047071Y69106119D01*
X50237547Y68391834D01*
X50475642Y69391834D01*
X51380404Y68391834D02*
X50808975Y68391834D01*
X51094690Y68391834D02*
X51094690Y69391834D01*
X50999452Y69248976D01*
X50904214Y69153738D01*
X50808975Y69106119D01*
%TO.C,ROM1*%
X22738095Y13947620D02*
X22404761Y14423810D01*
X22166666Y13947620D02*
X22166666Y14947620D01*
X22547619Y14947620D01*
X22642857Y14900000D01*
X22690476Y14852381D01*
X22738095Y14757143D01*
X22738095Y14614286D01*
X22690476Y14519048D01*
X22642857Y14471429D01*
X22547619Y14423810D01*
X22166666Y14423810D01*
X23357142Y14947620D02*
X23547619Y14947620D01*
X23642857Y14900000D01*
X23738095Y14804762D01*
X23785714Y14614286D01*
X23785714Y14280953D01*
X23738095Y14090477D01*
X23642857Y13995239D01*
X23547619Y13947620D01*
X23357142Y13947620D01*
X23261904Y13995239D01*
X23166666Y14090477D01*
X23119047Y14280953D01*
X23119047Y14614286D01*
X23166666Y14804762D01*
X23261904Y14900000D01*
X23357142Y14947620D01*
X24214285Y13947620D02*
X24214285Y14947620D01*
X24547619Y14233334D01*
X24880952Y14947620D01*
X24880952Y13947620D01*
X25880952Y13947620D02*
X25309523Y13947620D01*
X25595238Y13947620D02*
X25595238Y14947620D01*
X25500000Y14804762D01*
X25404761Y14709524D01*
X25309523Y14661905D01*
%TO.C,U6*%
X49438100Y82847632D02*
X49438100Y82038108D01*
X49485719Y81942870D01*
X49533338Y81895251D01*
X49628576Y81847632D01*
X49819052Y81847632D01*
X49914290Y81895251D01*
X49961909Y81942870D01*
X50009528Y82038108D01*
X50009528Y82847632D01*
X50914290Y82847632D02*
X50723814Y82847632D01*
X50628576Y82800012D01*
X50580957Y82752393D01*
X50485719Y82609536D01*
X50438100Y82419060D01*
X50438100Y82038108D01*
X50485719Y81942870D01*
X50533338Y81895251D01*
X50628576Y81847632D01*
X50819052Y81847632D01*
X50914290Y81895251D01*
X50961909Y81942870D01*
X51009528Y82038108D01*
X51009528Y82276203D01*
X50961909Y82371441D01*
X50914290Y82419060D01*
X50819052Y82466679D01*
X50628576Y82466679D01*
X50533338Y82419060D01*
X50485719Y82371441D01*
X50438100Y82276203D01*
%TO.C,ROM_WRITE1*%
X27007023Y3247620D02*
X26673690Y3723810D01*
X26435595Y3247620D02*
X26435595Y4247620D01*
X26816547Y4247620D01*
X26911785Y4200000D01*
X26959404Y4152381D01*
X27007023Y4057143D01*
X27007023Y3914286D01*
X26959404Y3819048D01*
X26911785Y3771429D01*
X26816547Y3723810D01*
X26435595Y3723810D01*
X27626071Y4247620D02*
X27816547Y4247620D01*
X27911785Y4200000D01*
X28007023Y4104762D01*
X28054642Y3914286D01*
X28054642Y3580953D01*
X28007023Y3390477D01*
X27911785Y3295239D01*
X27816547Y3247620D01*
X27626071Y3247620D01*
X27530833Y3295239D01*
X27435595Y3390477D01*
X27387976Y3580953D01*
X27387976Y3914286D01*
X27435595Y4104762D01*
X27530833Y4200000D01*
X27626071Y4247620D01*
X28483214Y3247620D02*
X28483214Y4247620D01*
X28816547Y3533334D01*
X29149880Y4247620D01*
X29149880Y3247620D01*
X29387976Y3152381D02*
X30149880Y3152381D01*
X30292738Y4247620D02*
X30530833Y3247620D01*
X30721309Y3961905D01*
X30911785Y3247620D01*
X31149880Y4247620D01*
X32102261Y3247620D02*
X31768928Y3723810D01*
X31530833Y3247620D02*
X31530833Y4247620D01*
X31911785Y4247620D01*
X32007023Y4200000D01*
X32054642Y4152381D01*
X32102261Y4057143D01*
X32102261Y3914286D01*
X32054642Y3819048D01*
X32007023Y3771429D01*
X31911785Y3723810D01*
X31530833Y3723810D01*
X32530833Y3247620D02*
X32530833Y4247620D01*
X32864166Y4247620D02*
X33435595Y4247620D01*
X33149880Y3247620D02*
X33149880Y4247620D01*
X33768928Y3771429D02*
X34102261Y3771429D01*
X34245119Y3247620D02*
X33768928Y3247620D01*
X33768928Y4247620D01*
X34245119Y4247620D01*
X35197500Y3247620D02*
X34626071Y3247620D01*
X34911785Y3247620D02*
X34911785Y4247620D01*
X34816547Y4104762D01*
X34721309Y4009524D01*
X34626071Y3961905D01*
%TO.C,R28*%
X57452380Y7269643D02*
X56976190Y6936310D01*
X57452380Y6698215D02*
X56452380Y6698215D01*
X56452380Y7079167D01*
X56500000Y7174405D01*
X56547619Y7222024D01*
X56642857Y7269643D01*
X56785714Y7269643D01*
X56880952Y7222024D01*
X56928571Y7174405D01*
X56976190Y7079167D01*
X56976190Y6698215D01*
X56547619Y7650596D02*
X56500000Y7698215D01*
X56452380Y7793453D01*
X56452380Y8031548D01*
X56500000Y8126786D01*
X56547619Y8174405D01*
X56642857Y8222024D01*
X56738095Y8222024D01*
X56880952Y8174405D01*
X57452380Y7602977D01*
X57452380Y8222024D01*
X56880952Y8793453D02*
X56833333Y8698215D01*
X56785714Y8650596D01*
X56690476Y8602977D01*
X56642857Y8602977D01*
X56547619Y8650596D01*
X56500000Y8698215D01*
X56452380Y8793453D01*
X56452380Y8983929D01*
X56500000Y9079167D01*
X56547619Y9126786D01*
X56642857Y9174405D01*
X56690476Y9174405D01*
X56785714Y9126786D01*
X56833333Y9079167D01*
X56880952Y8983929D01*
X56880952Y8793453D01*
X56928571Y8698215D01*
X56976190Y8650596D01*
X57071428Y8602977D01*
X57261904Y8602977D01*
X57357142Y8650596D01*
X57404761Y8698215D01*
X57452380Y8793453D01*
X57452380Y8983929D01*
X57404761Y9079167D01*
X57357142Y9126786D01*
X57261904Y9174405D01*
X57071428Y9174405D01*
X56976190Y9126786D01*
X56928571Y9079167D01*
X56880952Y8983929D01*
%TO.C,R16*%
X33457142Y30747620D02*
X33123809Y31223810D01*
X32885714Y30747620D02*
X32885714Y31747620D01*
X33266666Y31747620D01*
X33361904Y31700000D01*
X33409523Y31652381D01*
X33457142Y31557143D01*
X33457142Y31414286D01*
X33409523Y31319048D01*
X33361904Y31271429D01*
X33266666Y31223810D01*
X32885714Y31223810D01*
X34409523Y30747620D02*
X33838095Y30747620D01*
X34123809Y30747620D02*
X34123809Y31747620D01*
X34028571Y31604762D01*
X33933333Y31509524D01*
X33838095Y31461905D01*
X35266666Y31747620D02*
X35076190Y31747620D01*
X34980952Y31700000D01*
X34933333Y31652381D01*
X34838095Y31509524D01*
X34790476Y31319048D01*
X34790476Y30938096D01*
X34838095Y30842858D01*
X34885714Y30795239D01*
X34980952Y30747620D01*
X35171428Y30747620D01*
X35266666Y30795239D01*
X35314285Y30842858D01*
X35361904Y30938096D01*
X35361904Y31176191D01*
X35314285Y31271429D01*
X35266666Y31319048D01*
X35171428Y31366667D01*
X34980952Y31366667D01*
X34885714Y31319048D01*
X34838095Y31271429D01*
X34790476Y31176191D01*
%TO.C,R13*%
X33457142Y38347620D02*
X33123809Y38823810D01*
X32885714Y38347620D02*
X32885714Y39347620D01*
X33266666Y39347620D01*
X33361904Y39300000D01*
X33409523Y39252381D01*
X33457142Y39157143D01*
X33457142Y39014286D01*
X33409523Y38919048D01*
X33361904Y38871429D01*
X33266666Y38823810D01*
X32885714Y38823810D01*
X34409523Y38347620D02*
X33838095Y38347620D01*
X34123809Y38347620D02*
X34123809Y39347620D01*
X34028571Y39204762D01*
X33933333Y39109524D01*
X33838095Y39061905D01*
X34742857Y39347620D02*
X35361904Y39347620D01*
X35028571Y38966667D01*
X35171428Y38966667D01*
X35266666Y38919048D01*
X35314285Y38871429D01*
X35361904Y38776191D01*
X35361904Y38538096D01*
X35314285Y38442858D01*
X35266666Y38395239D01*
X35171428Y38347620D01*
X34885714Y38347620D01*
X34790476Y38395239D01*
X34742857Y38442858D01*
%TO.C,CPU1*%
X53009528Y63597870D02*
X52961909Y63550251D01*
X52819052Y63502632D01*
X52723814Y63502632D01*
X52580957Y63550251D01*
X52485719Y63645489D01*
X52438100Y63740727D01*
X52390481Y63931203D01*
X52390481Y64074060D01*
X52438100Y64264536D01*
X52485719Y64359774D01*
X52580957Y64455012D01*
X52723814Y64502632D01*
X52819052Y64502632D01*
X52961909Y64455012D01*
X53009528Y64407393D01*
X53438100Y63502632D02*
X53438100Y64502632D01*
X53819052Y64502632D01*
X53914290Y64455012D01*
X53961909Y64407393D01*
X54009528Y64312155D01*
X54009528Y64169298D01*
X53961909Y64074060D01*
X53914290Y64026441D01*
X53819052Y63978822D01*
X53438100Y63978822D01*
X54438100Y64502632D02*
X54438100Y63693108D01*
X54485719Y63597870D01*
X54533338Y63550251D01*
X54628576Y63502632D01*
X54819052Y63502632D01*
X54914290Y63550251D01*
X54961909Y63597870D01*
X55009528Y63693108D01*
X55009528Y64502632D01*
X56009528Y63502632D02*
X55438100Y63502632D01*
X55723814Y63502632D02*
X55723814Y64502632D01*
X55628576Y64359774D01*
X55533338Y64264536D01*
X55438100Y64216917D01*
%TO.C,R32*%
X68411285Y85650358D02*
X68054142Y85400358D01*
X68411285Y85221786D02*
X67661285Y85221786D01*
X67661285Y85507500D01*
X67697000Y85578929D01*
X67732714Y85614643D01*
X67804142Y85650358D01*
X67911285Y85650358D01*
X67982714Y85614643D01*
X68018428Y85578929D01*
X68054142Y85507500D01*
X68054142Y85221786D01*
X67661285Y85900358D02*
X67661285Y86364643D01*
X67947000Y86114643D01*
X67947000Y86221786D01*
X67982714Y86293215D01*
X68018428Y86328929D01*
X68089857Y86364643D01*
X68268428Y86364643D01*
X68339857Y86328929D01*
X68375571Y86293215D01*
X68411285Y86221786D01*
X68411285Y86007500D01*
X68375571Y85936072D01*
X68339857Y85900358D01*
X67732714Y86650358D02*
X67697000Y86686072D01*
X67661285Y86757500D01*
X67661285Y86936072D01*
X67697000Y87007500D01*
X67732714Y87043215D01*
X67804142Y87078929D01*
X67875571Y87078929D01*
X67982714Y87043215D01*
X68411285Y86614643D01*
X68411285Y87078929D01*
%TO.C,R11*%
X9302380Y38577143D02*
X8826190Y38243810D01*
X9302380Y38005715D02*
X8302380Y38005715D01*
X8302380Y38386667D01*
X8350000Y38481905D01*
X8397619Y38529524D01*
X8492857Y38577143D01*
X8635714Y38577143D01*
X8730952Y38529524D01*
X8778571Y38481905D01*
X8826190Y38386667D01*
X8826190Y38005715D01*
X9302380Y39529524D02*
X9302380Y38958096D01*
X9302380Y39243810D02*
X8302380Y39243810D01*
X8445238Y39148572D01*
X8540476Y39053334D01*
X8588095Y38958096D01*
X9302380Y40481905D02*
X9302380Y39910477D01*
X9302380Y40196191D02*
X8302380Y40196191D01*
X8445238Y40100953D01*
X8540476Y40005715D01*
X8588095Y39910477D01*
%TO.C,C8*%
X16075333Y97347858D02*
X16027714Y97300239D01*
X15884857Y97252620D01*
X15789619Y97252620D01*
X15646761Y97300239D01*
X15551523Y97395477D01*
X15503904Y97490715D01*
X15456285Y97681191D01*
X15456285Y97824048D01*
X15503904Y98014524D01*
X15551523Y98109762D01*
X15646761Y98205000D01*
X15789619Y98252620D01*
X15884857Y98252620D01*
X16027714Y98205000D01*
X16075333Y98157381D01*
X16646761Y97824048D02*
X16551523Y97871667D01*
X16503904Y97919286D01*
X16456285Y98014524D01*
X16456285Y98062143D01*
X16503904Y98157381D01*
X16551523Y98205000D01*
X16646761Y98252620D01*
X16837238Y98252620D01*
X16932476Y98205000D01*
X16980095Y98157381D01*
X17027714Y98062143D01*
X17027714Y98014524D01*
X16980095Y97919286D01*
X16932476Y97871667D01*
X16837238Y97824048D01*
X16646761Y97824048D01*
X16551523Y97776429D01*
X16503904Y97728810D01*
X16456285Y97633572D01*
X16456285Y97443096D01*
X16503904Y97347858D01*
X16551523Y97300239D01*
X16646761Y97252620D01*
X16837238Y97252620D01*
X16932476Y97300239D01*
X16980095Y97347858D01*
X17027714Y97443096D01*
X17027714Y97633572D01*
X16980095Y97728810D01*
X16932476Y97776429D01*
X16837238Y97824048D01*
%TO.C,C2*%
X35637552Y44997084D02*
X35589933Y44949465D01*
X35447076Y44901846D01*
X35351838Y44901846D01*
X35208980Y44949465D01*
X35113742Y45044703D01*
X35066123Y45139941D01*
X35018504Y45330417D01*
X35018504Y45473274D01*
X35066123Y45663750D01*
X35113742Y45758988D01*
X35208980Y45854226D01*
X35351838Y45901846D01*
X35447076Y45901846D01*
X35589933Y45854226D01*
X35637552Y45806607D01*
X36018504Y45806607D02*
X36066123Y45854226D01*
X36161361Y45901846D01*
X36399457Y45901846D01*
X36494695Y45854226D01*
X36542314Y45806607D01*
X36589933Y45711369D01*
X36589933Y45616131D01*
X36542314Y45473274D01*
X35970885Y44901846D01*
X36589933Y44901846D01*
%TO.C,C9*%
X30883333Y95269108D02*
X30835714Y95221489D01*
X30692857Y95173870D01*
X30597619Y95173870D01*
X30454761Y95221489D01*
X30359523Y95316727D01*
X30311904Y95411965D01*
X30264285Y95602441D01*
X30264285Y95745298D01*
X30311904Y95935774D01*
X30359523Y96031012D01*
X30454761Y96126250D01*
X30597619Y96173870D01*
X30692857Y96173870D01*
X30835714Y96126250D01*
X30883333Y96078631D01*
X31359523Y95173870D02*
X31550000Y95173870D01*
X31645238Y95221489D01*
X31692857Y95269108D01*
X31788095Y95411965D01*
X31835714Y95602441D01*
X31835714Y95983393D01*
X31788095Y96078631D01*
X31740476Y96126250D01*
X31645238Y96173870D01*
X31454761Y96173870D01*
X31359523Y96126250D01*
X31311904Y96078631D01*
X31264285Y95983393D01*
X31264285Y95745298D01*
X31311904Y95650060D01*
X31359523Y95602441D01*
X31454761Y95554822D01*
X31645238Y95554822D01*
X31740476Y95602441D01*
X31788095Y95650060D01*
X31835714Y95745298D01*
%TO.C,R19*%
X33457142Y23047620D02*
X33123809Y23523810D01*
X32885714Y23047620D02*
X32885714Y24047620D01*
X33266666Y24047620D01*
X33361904Y24000000D01*
X33409523Y23952381D01*
X33457142Y23857143D01*
X33457142Y23714286D01*
X33409523Y23619048D01*
X33361904Y23571429D01*
X33266666Y23523810D01*
X32885714Y23523810D01*
X34409523Y23047620D02*
X33838095Y23047620D01*
X34123809Y23047620D02*
X34123809Y24047620D01*
X34028571Y23904762D01*
X33933333Y23809524D01*
X33838095Y23761905D01*
X34885714Y23047620D02*
X35076190Y23047620D01*
X35171428Y23095239D01*
X35219047Y23142858D01*
X35314285Y23285715D01*
X35361904Y23476191D01*
X35361904Y23857143D01*
X35314285Y23952381D01*
X35266666Y24000000D01*
X35171428Y24047620D01*
X34980952Y24047620D01*
X34885714Y24000000D01*
X34838095Y23952381D01*
X34790476Y23857143D01*
X34790476Y23619048D01*
X34838095Y23523810D01*
X34885714Y23476191D01*
X34980952Y23428572D01*
X35171428Y23428572D01*
X35266666Y23476191D01*
X35314285Y23523810D01*
X35361904Y23619048D01*
%TO.C,C21*%
X71757142Y64257143D02*
X71804761Y64209524D01*
X71852380Y64066667D01*
X71852380Y63971429D01*
X71804761Y63828572D01*
X71709523Y63733334D01*
X71614285Y63685715D01*
X71423809Y63638096D01*
X71280952Y63638096D01*
X71090476Y63685715D01*
X70995238Y63733334D01*
X70900000Y63828572D01*
X70852380Y63971429D01*
X70852380Y64066667D01*
X70900000Y64209524D01*
X70947619Y64257143D01*
X70947619Y64638096D02*
X70900000Y64685715D01*
X70852380Y64780953D01*
X70852380Y65019048D01*
X70900000Y65114286D01*
X70947619Y65161905D01*
X71042857Y65209524D01*
X71138095Y65209524D01*
X71280952Y65161905D01*
X71852380Y64590477D01*
X71852380Y65209524D01*
X71852380Y66161905D02*
X71852380Y65590477D01*
X71852380Y65876191D02*
X70852380Y65876191D01*
X70995238Y65780953D01*
X71090476Y65685715D01*
X71138095Y65590477D01*
%TO.C,REG2*%
X53602380Y85580953D02*
X53126190Y85247620D01*
X53602380Y85009524D02*
X52602380Y85009524D01*
X52602380Y85390477D01*
X52650000Y85485715D01*
X52697619Y85533334D01*
X52792857Y85580953D01*
X52935714Y85580953D01*
X53030952Y85533334D01*
X53078571Y85485715D01*
X53126190Y85390477D01*
X53126190Y85009524D01*
X53078571Y86009524D02*
X53078571Y86342858D01*
X53602380Y86485715D02*
X53602380Y86009524D01*
X52602380Y86009524D01*
X52602380Y86485715D01*
X52650000Y87438096D02*
X52602380Y87342858D01*
X52602380Y87200000D01*
X52650000Y87057143D01*
X52745238Y86961905D01*
X52840476Y86914286D01*
X53030952Y86866667D01*
X53173809Y86866667D01*
X53364285Y86914286D01*
X53459523Y86961905D01*
X53554761Y87057143D01*
X53602380Y87200000D01*
X53602380Y87295239D01*
X53554761Y87438096D01*
X53507142Y87485715D01*
X53173809Y87485715D01*
X53173809Y87295239D01*
X52697619Y87866667D02*
X52650000Y87914286D01*
X52602380Y88009524D01*
X52602380Y88247620D01*
X52650000Y88342858D01*
X52697619Y88390477D01*
X52792857Y88438096D01*
X52888095Y88438096D01*
X53030952Y88390477D01*
X53602380Y87819048D01*
X53602380Y88438096D01*
%TO.C,PERIPHERAL1*%
X89463904Y51792620D02*
X89463904Y52792620D01*
X89844857Y52792620D01*
X89940095Y52745000D01*
X89987714Y52697381D01*
X90035333Y52602143D01*
X90035333Y52459286D01*
X89987714Y52364048D01*
X89940095Y52316429D01*
X89844857Y52268810D01*
X89463904Y52268810D01*
X90463904Y52316429D02*
X90797238Y52316429D01*
X90940095Y51792620D02*
X90463904Y51792620D01*
X90463904Y52792620D01*
X90940095Y52792620D01*
X91940095Y51792620D02*
X91606761Y52268810D01*
X91368666Y51792620D02*
X91368666Y52792620D01*
X91749619Y52792620D01*
X91844857Y52745000D01*
X91892476Y52697381D01*
X91940095Y52602143D01*
X91940095Y52459286D01*
X91892476Y52364048D01*
X91844857Y52316429D01*
X91749619Y52268810D01*
X91368666Y52268810D01*
X92368666Y51792620D02*
X92368666Y52792620D01*
X92844857Y51792620D02*
X92844857Y52792620D01*
X93225809Y52792620D01*
X93321047Y52745000D01*
X93368666Y52697381D01*
X93416285Y52602143D01*
X93416285Y52459286D01*
X93368666Y52364048D01*
X93321047Y52316429D01*
X93225809Y52268810D01*
X92844857Y52268810D01*
X93844857Y51792620D02*
X93844857Y52792620D01*
X93844857Y52316429D02*
X94416285Y52316429D01*
X94416285Y51792620D02*
X94416285Y52792620D01*
X94892476Y52316429D02*
X95225809Y52316429D01*
X95368666Y51792620D02*
X94892476Y51792620D01*
X94892476Y52792620D01*
X95368666Y52792620D01*
X96368666Y51792620D02*
X96035333Y52268810D01*
X95797238Y51792620D02*
X95797238Y52792620D01*
X96178190Y52792620D01*
X96273428Y52745000D01*
X96321047Y52697381D01*
X96368666Y52602143D01*
X96368666Y52459286D01*
X96321047Y52364048D01*
X96273428Y52316429D01*
X96178190Y52268810D01*
X95797238Y52268810D01*
X96749619Y52078334D02*
X97225809Y52078334D01*
X96654380Y51792620D02*
X96987714Y52792620D01*
X97321047Y51792620D01*
X98130571Y51792620D02*
X97654380Y51792620D01*
X97654380Y52792620D01*
X98987714Y51792620D02*
X98416285Y51792620D01*
X98702000Y51792620D02*
X98702000Y52792620D01*
X98606761Y52649762D01*
X98511523Y52554524D01*
X98416285Y52506905D01*
%TO.C,SERC1*%
X15275714Y59645239D02*
X15418571Y59597620D01*
X15656666Y59597620D01*
X15751904Y59645239D01*
X15799523Y59692858D01*
X15847142Y59788096D01*
X15847142Y59883334D01*
X15799523Y59978572D01*
X15751904Y60026191D01*
X15656666Y60073810D01*
X15466190Y60121429D01*
X15370952Y60169048D01*
X15323333Y60216667D01*
X15275714Y60311905D01*
X15275714Y60407143D01*
X15323333Y60502381D01*
X15370952Y60550000D01*
X15466190Y60597620D01*
X15704285Y60597620D01*
X15847142Y60550000D01*
X16275714Y60121429D02*
X16609047Y60121429D01*
X16751904Y59597620D02*
X16275714Y59597620D01*
X16275714Y60597620D01*
X16751904Y60597620D01*
X17751904Y59597620D02*
X17418571Y60073810D01*
X17180476Y59597620D02*
X17180476Y60597620D01*
X17561428Y60597620D01*
X17656666Y60550000D01*
X17704285Y60502381D01*
X17751904Y60407143D01*
X17751904Y60264286D01*
X17704285Y60169048D01*
X17656666Y60121429D01*
X17561428Y60073810D01*
X17180476Y60073810D01*
X18751904Y59692858D02*
X18704285Y59645239D01*
X18561428Y59597620D01*
X18466190Y59597620D01*
X18323333Y59645239D01*
X18228095Y59740477D01*
X18180476Y59835715D01*
X18132857Y60026191D01*
X18132857Y60169048D01*
X18180476Y60359524D01*
X18228095Y60454762D01*
X18323333Y60550000D01*
X18466190Y60597620D01*
X18561428Y60597620D01*
X18704285Y60550000D01*
X18751904Y60502381D01*
X19704285Y59597620D02*
X19132857Y59597620D01*
X19418571Y59597620D02*
X19418571Y60597620D01*
X19323333Y60454762D01*
X19228095Y60359524D01*
X19132857Y60311905D01*
%TO.C,R34*%
X61881285Y85650358D02*
X61524142Y85400358D01*
X61881285Y85221786D02*
X61131285Y85221786D01*
X61131285Y85507500D01*
X61167000Y85578929D01*
X61202714Y85614643D01*
X61274142Y85650358D01*
X61381285Y85650358D01*
X61452714Y85614643D01*
X61488428Y85578929D01*
X61524142Y85507500D01*
X61524142Y85221786D01*
X61131285Y85900358D02*
X61131285Y86364643D01*
X61417000Y86114643D01*
X61417000Y86221786D01*
X61452714Y86293215D01*
X61488428Y86328929D01*
X61559857Y86364643D01*
X61738428Y86364643D01*
X61809857Y86328929D01*
X61845571Y86293215D01*
X61881285Y86221786D01*
X61881285Y86007500D01*
X61845571Y85936072D01*
X61809857Y85900358D01*
X61381285Y87007500D02*
X61881285Y87007500D01*
X61095571Y86828929D02*
X61631285Y86650358D01*
X61631285Y87114643D01*
%TO.C,PROG1*%
X72280095Y71162620D02*
X72280095Y72162620D01*
X72661047Y72162620D01*
X72756285Y72115000D01*
X72803904Y72067381D01*
X72851523Y71972143D01*
X72851523Y71829286D01*
X72803904Y71734048D01*
X72756285Y71686429D01*
X72661047Y71638810D01*
X72280095Y71638810D01*
X73851523Y71162620D02*
X73518190Y71638810D01*
X73280095Y71162620D02*
X73280095Y72162620D01*
X73661047Y72162620D01*
X73756285Y72115000D01*
X73803904Y72067381D01*
X73851523Y71972143D01*
X73851523Y71829286D01*
X73803904Y71734048D01*
X73756285Y71686429D01*
X73661047Y71638810D01*
X73280095Y71638810D01*
X74470571Y72162620D02*
X74661047Y72162620D01*
X74756285Y72115000D01*
X74851523Y72019762D01*
X74899142Y71829286D01*
X74899142Y71495953D01*
X74851523Y71305477D01*
X74756285Y71210239D01*
X74661047Y71162620D01*
X74470571Y71162620D01*
X74375333Y71210239D01*
X74280095Y71305477D01*
X74232476Y71495953D01*
X74232476Y71829286D01*
X74280095Y72019762D01*
X74375333Y72115000D01*
X74470571Y72162620D01*
X75851523Y72115000D02*
X75756285Y72162620D01*
X75613428Y72162620D01*
X75470571Y72115000D01*
X75375333Y72019762D01*
X75327714Y71924524D01*
X75280095Y71734048D01*
X75280095Y71591191D01*
X75327714Y71400715D01*
X75375333Y71305477D01*
X75470571Y71210239D01*
X75613428Y71162620D01*
X75708666Y71162620D01*
X75851523Y71210239D01*
X75899142Y71257858D01*
X75899142Y71591191D01*
X75708666Y71591191D01*
X76851523Y71162620D02*
X76280095Y71162620D01*
X76565809Y71162620D02*
X76565809Y72162620D01*
X76470571Y72019762D01*
X76375333Y71924524D01*
X76280095Y71876905D01*
%TO.C,C16*%
X937142Y12472858D02*
X889523Y12425239D01*
X746666Y12377620D01*
X651428Y12377620D01*
X508571Y12425239D01*
X413333Y12520477D01*
X365714Y12615715D01*
X318095Y12806191D01*
X318095Y12949048D01*
X365714Y13139524D01*
X413333Y13234762D01*
X508571Y13330000D01*
X651428Y13377620D01*
X746666Y13377620D01*
X889523Y13330000D01*
X937142Y13282381D01*
X1889523Y12377620D02*
X1318095Y12377620D01*
X1603809Y12377620D02*
X1603809Y13377620D01*
X1508571Y13234762D01*
X1413333Y13139524D01*
X1318095Y13091905D01*
X2746666Y13377620D02*
X2556190Y13377620D01*
X2460952Y13330000D01*
X2413333Y13282381D01*
X2318095Y13139524D01*
X2270476Y12949048D01*
X2270476Y12568096D01*
X2318095Y12472858D01*
X2365714Y12425239D01*
X2460952Y12377620D01*
X2651428Y12377620D01*
X2746666Y12425239D01*
X2794285Y12472858D01*
X2841904Y12568096D01*
X2841904Y12806191D01*
X2794285Y12901429D01*
X2746666Y12949048D01*
X2651428Y12996667D01*
X2460952Y12996667D01*
X2365714Y12949048D01*
X2318095Y12901429D01*
X2270476Y12806191D01*
%TO.C,C17*%
X19439142Y97367858D02*
X19391523Y97320239D01*
X19248666Y97272620D01*
X19153428Y97272620D01*
X19010571Y97320239D01*
X18915333Y97415477D01*
X18867714Y97510715D01*
X18820095Y97701191D01*
X18820095Y97844048D01*
X18867714Y98034524D01*
X18915333Y98129762D01*
X19010571Y98225000D01*
X19153428Y98272620D01*
X19248666Y98272620D01*
X19391523Y98225000D01*
X19439142Y98177381D01*
X20391523Y97272620D02*
X19820095Y97272620D01*
X20105809Y97272620D02*
X20105809Y98272620D01*
X20010571Y98129762D01*
X19915333Y98034524D01*
X19820095Y97986905D01*
X20724857Y98272620D02*
X21391523Y98272620D01*
X20962952Y97272620D01*
%TO.C,C3*%
X17007142Y78123334D02*
X17054761Y78075715D01*
X17102380Y77932858D01*
X17102380Y77837620D01*
X17054761Y77694762D01*
X16959523Y77599524D01*
X16864285Y77551905D01*
X16673809Y77504286D01*
X16530952Y77504286D01*
X16340476Y77551905D01*
X16245238Y77599524D01*
X16150000Y77694762D01*
X16102380Y77837620D01*
X16102380Y77932858D01*
X16150000Y78075715D01*
X16197619Y78123334D01*
X16102380Y78456667D02*
X16102380Y79075715D01*
X16483333Y78742381D01*
X16483333Y78885239D01*
X16530952Y78980477D01*
X16578571Y79028096D01*
X16673809Y79075715D01*
X16911904Y79075715D01*
X17007142Y79028096D01*
X17054761Y78980477D01*
X17102380Y78885239D01*
X17102380Y78599524D01*
X17054761Y78504286D01*
X17007142Y78456667D01*
%TO.C,PRP1*%
X78061904Y65247620D02*
X78061904Y66247620D01*
X78442857Y66247620D01*
X78538095Y66200000D01*
X78585714Y66152381D01*
X78633333Y66057143D01*
X78633333Y65914286D01*
X78585714Y65819048D01*
X78538095Y65771429D01*
X78442857Y65723810D01*
X78061904Y65723810D01*
X79633333Y65247620D02*
X79300000Y65723810D01*
X79061904Y65247620D02*
X79061904Y66247620D01*
X79442857Y66247620D01*
X79538095Y66200000D01*
X79585714Y66152381D01*
X79633333Y66057143D01*
X79633333Y65914286D01*
X79585714Y65819048D01*
X79538095Y65771429D01*
X79442857Y65723810D01*
X79061904Y65723810D01*
X80061904Y65247620D02*
X80061904Y66247620D01*
X80442857Y66247620D01*
X80538095Y66200000D01*
X80585714Y66152381D01*
X80633333Y66057143D01*
X80633333Y65914286D01*
X80585714Y65819048D01*
X80538095Y65771429D01*
X80442857Y65723810D01*
X80061904Y65723810D01*
X81585714Y65247620D02*
X81014285Y65247620D01*
X81300000Y65247620D02*
X81300000Y66247620D01*
X81204761Y66104762D01*
X81109523Y66009524D01*
X81014285Y65961905D01*
%TO.C,R2*%
X16933333Y3647620D02*
X16600000Y4123810D01*
X16361904Y3647620D02*
X16361904Y4647620D01*
X16742857Y4647620D01*
X16838095Y4600000D01*
X16885714Y4552381D01*
X16933333Y4457143D01*
X16933333Y4314286D01*
X16885714Y4219048D01*
X16838095Y4171429D01*
X16742857Y4123810D01*
X16361904Y4123810D01*
X17314285Y4552381D02*
X17361904Y4600000D01*
X17457142Y4647620D01*
X17695238Y4647620D01*
X17790476Y4600000D01*
X17838095Y4552381D01*
X17885714Y4457143D01*
X17885714Y4361905D01*
X17838095Y4219048D01*
X17266666Y3647620D01*
X17885714Y3647620D01*
%TO.C,U1*%
X72138095Y14547620D02*
X72138095Y13738096D01*
X72185714Y13642858D01*
X72233333Y13595239D01*
X72328571Y13547620D01*
X72519047Y13547620D01*
X72614285Y13595239D01*
X72661904Y13642858D01*
X72709523Y13738096D01*
X72709523Y14547620D01*
X73709523Y13547620D02*
X73138095Y13547620D01*
X73423809Y13547620D02*
X73423809Y14547620D01*
X73328571Y14404762D01*
X73233333Y14309524D01*
X73138095Y14261905D01*
%TO.C,D1*%
X14721904Y74157620D02*
X14721904Y75157620D01*
X14960000Y75157620D01*
X15102857Y75110000D01*
X15198095Y75014762D01*
X15245714Y74919524D01*
X15293333Y74729048D01*
X15293333Y74586191D01*
X15245714Y74395715D01*
X15198095Y74300477D01*
X15102857Y74205239D01*
X14960000Y74157620D01*
X14721904Y74157620D01*
X16245714Y74157620D02*
X15674285Y74157620D01*
X15960000Y74157620D02*
X15960000Y75157620D01*
X15864761Y75014762D01*
X15769523Y74919524D01*
X15674285Y74871905D01*
%TO.C,R18*%
X33457142Y25647620D02*
X33123809Y26123810D01*
X32885714Y25647620D02*
X32885714Y26647620D01*
X33266666Y26647620D01*
X33361904Y26600000D01*
X33409523Y26552381D01*
X33457142Y26457143D01*
X33457142Y26314286D01*
X33409523Y26219048D01*
X33361904Y26171429D01*
X33266666Y26123810D01*
X32885714Y26123810D01*
X34409523Y25647620D02*
X33838095Y25647620D01*
X34123809Y25647620D02*
X34123809Y26647620D01*
X34028571Y26504762D01*
X33933333Y26409524D01*
X33838095Y26361905D01*
X34980952Y26219048D02*
X34885714Y26266667D01*
X34838095Y26314286D01*
X34790476Y26409524D01*
X34790476Y26457143D01*
X34838095Y26552381D01*
X34885714Y26600000D01*
X34980952Y26647620D01*
X35171428Y26647620D01*
X35266666Y26600000D01*
X35314285Y26552381D01*
X35361904Y26457143D01*
X35361904Y26409524D01*
X35314285Y26314286D01*
X35266666Y26266667D01*
X35171428Y26219048D01*
X34980952Y26219048D01*
X34885714Y26171429D01*
X34838095Y26123810D01*
X34790476Y26028572D01*
X34790476Y25838096D01*
X34838095Y25742858D01*
X34885714Y25695239D01*
X34980952Y25647620D01*
X35171428Y25647620D01*
X35266666Y25695239D01*
X35314285Y25742858D01*
X35361904Y25838096D01*
X35361904Y26028572D01*
X35314285Y26123810D01*
X35266666Y26171429D01*
X35171428Y26219048D01*
%TO.C,R6*%
X17268333Y37177620D02*
X16935000Y37653810D01*
X16696904Y37177620D02*
X16696904Y38177620D01*
X17077857Y38177620D01*
X17173095Y38130000D01*
X17220714Y38082381D01*
X17268333Y37987143D01*
X17268333Y37844286D01*
X17220714Y37749048D01*
X17173095Y37701429D01*
X17077857Y37653810D01*
X16696904Y37653810D01*
X18125476Y38177620D02*
X17935000Y38177620D01*
X17839761Y38130000D01*
X17792142Y38082381D01*
X17696904Y37939524D01*
X17649285Y37749048D01*
X17649285Y37368096D01*
X17696904Y37272858D01*
X17744523Y37225239D01*
X17839761Y37177620D01*
X18030238Y37177620D01*
X18125476Y37225239D01*
X18173095Y37272858D01*
X18220714Y37368096D01*
X18220714Y37606191D01*
X18173095Y37701429D01*
X18125476Y37749048D01*
X18030238Y37796667D01*
X17839761Y37796667D01*
X17744523Y37749048D01*
X17696904Y37701429D01*
X17649285Y37606191D01*
D19*
%TO.C,VGA1*%
X41430571Y92987858D02*
X42930571Y93487858D01*
X41430571Y93987858D01*
X41502000Y95273572D02*
X41430571Y95130715D01*
X41430571Y94916429D01*
X41502000Y94702143D01*
X41644857Y94559286D01*
X41787714Y94487858D01*
X42073428Y94416429D01*
X42287714Y94416429D01*
X42573428Y94487858D01*
X42716285Y94559286D01*
X42859142Y94702143D01*
X42930571Y94916429D01*
X42930571Y95059286D01*
X42859142Y95273572D01*
X42787714Y95345000D01*
X42287714Y95345000D01*
X42287714Y95059286D01*
X42502000Y95916429D02*
X42502000Y96630715D01*
X42930571Y95773572D02*
X41430571Y96273572D01*
X42930571Y96773572D01*
X42930571Y98059286D02*
X42930571Y97202143D01*
X42930571Y97630715D02*
X41430571Y97630715D01*
X41644857Y97487858D01*
X41787714Y97345000D01*
X41859142Y97202143D01*
D16*
%TO.C,R33*%
X64131285Y85650358D02*
X63774142Y85400358D01*
X64131285Y85221786D02*
X63381285Y85221786D01*
X63381285Y85507500D01*
X63417000Y85578929D01*
X63452714Y85614643D01*
X63524142Y85650358D01*
X63631285Y85650358D01*
X63702714Y85614643D01*
X63738428Y85578929D01*
X63774142Y85507500D01*
X63774142Y85221786D01*
X63381285Y85900358D02*
X63381285Y86364643D01*
X63667000Y86114643D01*
X63667000Y86221786D01*
X63702714Y86293215D01*
X63738428Y86328929D01*
X63809857Y86364643D01*
X63988428Y86364643D01*
X64059857Y86328929D01*
X64095571Y86293215D01*
X64131285Y86221786D01*
X64131285Y86007500D01*
X64095571Y85936072D01*
X64059857Y85900358D01*
X63381285Y86614643D02*
X63381285Y87078929D01*
X63667000Y86828929D01*
X63667000Y86936072D01*
X63702714Y87007500D01*
X63738428Y87043215D01*
X63809857Y87078929D01*
X63988428Y87078929D01*
X64059857Y87043215D01*
X64095571Y87007500D01*
X64131285Y86936072D01*
X64131285Y86721786D01*
X64095571Y86650358D01*
X64059857Y86614643D01*
%TO.C,R15*%
X33457142Y33247620D02*
X33123809Y33723810D01*
X32885714Y33247620D02*
X32885714Y34247620D01*
X33266666Y34247620D01*
X33361904Y34200000D01*
X33409523Y34152381D01*
X33457142Y34057143D01*
X33457142Y33914286D01*
X33409523Y33819048D01*
X33361904Y33771429D01*
X33266666Y33723810D01*
X32885714Y33723810D01*
X34409523Y33247620D02*
X33838095Y33247620D01*
X34123809Y33247620D02*
X34123809Y34247620D01*
X34028571Y34104762D01*
X33933333Y34009524D01*
X33838095Y33961905D01*
X35314285Y34247620D02*
X34838095Y34247620D01*
X34790476Y33771429D01*
X34838095Y33819048D01*
X34933333Y33866667D01*
X35171428Y33866667D01*
X35266666Y33819048D01*
X35314285Y33771429D01*
X35361904Y33676191D01*
X35361904Y33438096D01*
X35314285Y33342858D01*
X35266666Y33295239D01*
X35171428Y33247620D01*
X34933333Y33247620D01*
X34838095Y33295239D01*
X34790476Y33342858D01*
%TO.C,R4*%
X59801285Y86140000D02*
X59444142Y85890000D01*
X59801285Y85711429D02*
X59051285Y85711429D01*
X59051285Y85997143D01*
X59087000Y86068572D01*
X59122714Y86104286D01*
X59194142Y86140000D01*
X59301285Y86140000D01*
X59372714Y86104286D01*
X59408428Y86068572D01*
X59444142Y85997143D01*
X59444142Y85711429D01*
X59301285Y86782858D02*
X59801285Y86782858D01*
X59015571Y86604286D02*
X59551285Y86425715D01*
X59551285Y86890000D01*
%TO.C,SPI1*%
X1030000Y44445239D02*
X1172857Y44397620D01*
X1410952Y44397620D01*
X1506190Y44445239D01*
X1553809Y44492858D01*
X1601428Y44588096D01*
X1601428Y44683334D01*
X1553809Y44778572D01*
X1506190Y44826191D01*
X1410952Y44873810D01*
X1220476Y44921429D01*
X1125238Y44969048D01*
X1077619Y45016667D01*
X1030000Y45111905D01*
X1030000Y45207143D01*
X1077619Y45302381D01*
X1125238Y45350000D01*
X1220476Y45397620D01*
X1458571Y45397620D01*
X1601428Y45350000D01*
X2030000Y44397620D02*
X2030000Y45397620D01*
X2410952Y45397620D01*
X2506190Y45350000D01*
X2553809Y45302381D01*
X2601428Y45207143D01*
X2601428Y45064286D01*
X2553809Y44969048D01*
X2506190Y44921429D01*
X2410952Y44873810D01*
X2030000Y44873810D01*
X3030000Y44397620D02*
X3030000Y45397620D01*
X4030000Y44397620D02*
X3458571Y44397620D01*
X3744285Y44397620D02*
X3744285Y45397620D01*
X3649047Y45254762D01*
X3553809Y45159524D01*
X3458571Y45111905D01*
%TO.C,C4*%
X38407552Y45057084D02*
X38359933Y45009465D01*
X38217076Y44961846D01*
X38121838Y44961846D01*
X37978980Y45009465D01*
X37883742Y45104703D01*
X37836123Y45199941D01*
X37788504Y45390417D01*
X37788504Y45533274D01*
X37836123Y45723750D01*
X37883742Y45818988D01*
X37978980Y45914226D01*
X38121838Y45961846D01*
X38217076Y45961846D01*
X38359933Y45914226D01*
X38407552Y45866607D01*
X39264695Y45628512D02*
X39264695Y44961846D01*
X39026599Y46009465D02*
X38788504Y45295179D01*
X39407552Y45295179D01*
%TO.C,DEBUG1*%
X91485714Y46657620D02*
X91485714Y47657620D01*
X91723809Y47657620D01*
X91866666Y47610000D01*
X91961904Y47514762D01*
X92009523Y47419524D01*
X92057142Y47229048D01*
X92057142Y47086191D01*
X92009523Y46895715D01*
X91961904Y46800477D01*
X91866666Y46705239D01*
X91723809Y46657620D01*
X91485714Y46657620D01*
X92485714Y47181429D02*
X92819047Y47181429D01*
X92961904Y46657620D02*
X92485714Y46657620D01*
X92485714Y47657620D01*
X92961904Y47657620D01*
X93723809Y47181429D02*
X93866666Y47133810D01*
X93914285Y47086191D01*
X93961904Y46990953D01*
X93961904Y46848096D01*
X93914285Y46752858D01*
X93866666Y46705239D01*
X93771428Y46657620D01*
X93390476Y46657620D01*
X93390476Y47657620D01*
X93723809Y47657620D01*
X93819047Y47610000D01*
X93866666Y47562381D01*
X93914285Y47467143D01*
X93914285Y47371905D01*
X93866666Y47276667D01*
X93819047Y47229048D01*
X93723809Y47181429D01*
X93390476Y47181429D01*
X94390476Y47657620D02*
X94390476Y46848096D01*
X94438095Y46752858D01*
X94485714Y46705239D01*
X94580952Y46657620D01*
X94771428Y46657620D01*
X94866666Y46705239D01*
X94914285Y46752858D01*
X94961904Y46848096D01*
X94961904Y47657620D01*
X95961904Y47610000D02*
X95866666Y47657620D01*
X95723809Y47657620D01*
X95580952Y47610000D01*
X95485714Y47514762D01*
X95438095Y47419524D01*
X95390476Y47229048D01*
X95390476Y47086191D01*
X95438095Y46895715D01*
X95485714Y46800477D01*
X95580952Y46705239D01*
X95723809Y46657620D01*
X95819047Y46657620D01*
X95961904Y46705239D01*
X96009523Y46752858D01*
X96009523Y47086191D01*
X95819047Y47086191D01*
X96961904Y46657620D02*
X96390476Y46657620D01*
X96676190Y46657620D02*
X96676190Y47657620D01*
X96580952Y47514762D01*
X96485714Y47419524D01*
X96390476Y47371905D01*
%TO.C,U3*%
X21022380Y64315596D02*
X21831904Y64315596D01*
X21927142Y64363215D01*
X21974761Y64410834D01*
X22022380Y64506072D01*
X22022380Y64696548D01*
X21974761Y64791786D01*
X21927142Y64839405D01*
X21831904Y64887024D01*
X21022380Y64887024D01*
X21022380Y65267977D02*
X21022380Y65887024D01*
X21403333Y65553691D01*
X21403333Y65696548D01*
X21450952Y65791786D01*
X21498571Y65839405D01*
X21593809Y65887024D01*
X21831904Y65887024D01*
X21927142Y65839405D01*
X21974761Y65791786D01*
X22022380Y65696548D01*
X22022380Y65410834D01*
X21974761Y65315596D01*
X21927142Y65267977D01*
%TO.C,R27*%
X59752380Y7257143D02*
X59276190Y6923810D01*
X59752380Y6685715D02*
X58752380Y6685715D01*
X58752380Y7066667D01*
X58800000Y7161905D01*
X58847619Y7209524D01*
X58942857Y7257143D01*
X59085714Y7257143D01*
X59180952Y7209524D01*
X59228571Y7161905D01*
X59276190Y7066667D01*
X59276190Y6685715D01*
X58847619Y7638096D02*
X58800000Y7685715D01*
X58752380Y7780953D01*
X58752380Y8019048D01*
X58800000Y8114286D01*
X58847619Y8161905D01*
X58942857Y8209524D01*
X59038095Y8209524D01*
X59180952Y8161905D01*
X59752380Y7590477D01*
X59752380Y8209524D01*
X58752380Y8542858D02*
X58752380Y9209524D01*
X59752380Y8780953D01*
%TO.C,R23*%
X33457142Y12847620D02*
X33123809Y13323810D01*
X32885714Y12847620D02*
X32885714Y13847620D01*
X33266666Y13847620D01*
X33361904Y13800000D01*
X33409523Y13752381D01*
X33457142Y13657143D01*
X33457142Y13514286D01*
X33409523Y13419048D01*
X33361904Y13371429D01*
X33266666Y13323810D01*
X32885714Y13323810D01*
X33838095Y13752381D02*
X33885714Y13800000D01*
X33980952Y13847620D01*
X34219047Y13847620D01*
X34314285Y13800000D01*
X34361904Y13752381D01*
X34409523Y13657143D01*
X34409523Y13561905D01*
X34361904Y13419048D01*
X33790476Y12847620D01*
X34409523Y12847620D01*
X34742857Y13847620D02*
X35361904Y13847620D01*
X35028571Y13466667D01*
X35171428Y13466667D01*
X35266666Y13419048D01*
X35314285Y13371429D01*
X35361904Y13276191D01*
X35361904Y13038096D01*
X35314285Y12942858D01*
X35266666Y12895239D01*
X35171428Y12847620D01*
X34885714Y12847620D01*
X34790476Y12895239D01*
X34742857Y12942858D01*
%TO.C,R24*%
X33457142Y10047620D02*
X33123809Y10523810D01*
X32885714Y10047620D02*
X32885714Y11047620D01*
X33266666Y11047620D01*
X33361904Y11000000D01*
X33409523Y10952381D01*
X33457142Y10857143D01*
X33457142Y10714286D01*
X33409523Y10619048D01*
X33361904Y10571429D01*
X33266666Y10523810D01*
X32885714Y10523810D01*
X33838095Y10952381D02*
X33885714Y11000000D01*
X33980952Y11047620D01*
X34219047Y11047620D01*
X34314285Y11000000D01*
X34361904Y10952381D01*
X34409523Y10857143D01*
X34409523Y10761905D01*
X34361904Y10619048D01*
X33790476Y10047620D01*
X34409523Y10047620D01*
X35266666Y10714286D02*
X35266666Y10047620D01*
X35028571Y11095239D02*
X34790476Y10380953D01*
X35409523Y10380953D01*
%TO.C,USB1*%
X91904380Y74816905D02*
X92713904Y74816905D01*
X92809142Y74864524D01*
X92856761Y74912143D01*
X92904380Y75007381D01*
X92904380Y75197858D01*
X92856761Y75293096D01*
X92809142Y75340715D01*
X92713904Y75388334D01*
X91904380Y75388334D01*
X92856761Y75816905D02*
X92904380Y75959762D01*
X92904380Y76197858D01*
X92856761Y76293096D01*
X92809142Y76340715D01*
X92713904Y76388334D01*
X92618666Y76388334D01*
X92523428Y76340715D01*
X92475809Y76293096D01*
X92428190Y76197858D01*
X92380571Y76007381D01*
X92332952Y75912143D01*
X92285333Y75864524D01*
X92190095Y75816905D01*
X92094857Y75816905D01*
X91999619Y75864524D01*
X91952000Y75912143D01*
X91904380Y76007381D01*
X91904380Y76245477D01*
X91952000Y76388334D01*
X92380571Y77150239D02*
X92428190Y77293096D01*
X92475809Y77340715D01*
X92571047Y77388334D01*
X92713904Y77388334D01*
X92809142Y77340715D01*
X92856761Y77293096D01*
X92904380Y77197858D01*
X92904380Y76816905D01*
X91904380Y76816905D01*
X91904380Y77150239D01*
X91952000Y77245477D01*
X91999619Y77293096D01*
X92094857Y77340715D01*
X92190095Y77340715D01*
X92285333Y77293096D01*
X92332952Y77245477D01*
X92380571Y77150239D01*
X92380571Y76816905D01*
X92904380Y78340715D02*
X92904380Y77769286D01*
X92904380Y78055000D02*
X91904380Y78055000D01*
X92047238Y77959762D01*
X92142476Y77864524D01*
X92190095Y77769286D01*
%TO.C,C11*%
X41607142Y78842858D02*
X41559523Y78795239D01*
X41416666Y78747620D01*
X41321428Y78747620D01*
X41178571Y78795239D01*
X41083333Y78890477D01*
X41035714Y78985715D01*
X40988095Y79176191D01*
X40988095Y79319048D01*
X41035714Y79509524D01*
X41083333Y79604762D01*
X41178571Y79700000D01*
X41321428Y79747620D01*
X41416666Y79747620D01*
X41559523Y79700000D01*
X41607142Y79652381D01*
X42559523Y78747620D02*
X41988095Y78747620D01*
X42273809Y78747620D02*
X42273809Y79747620D01*
X42178571Y79604762D01*
X42083333Y79509524D01*
X41988095Y79461905D01*
X43511904Y78747620D02*
X42940476Y78747620D01*
X43226190Y78747620D02*
X43226190Y79747620D01*
X43130952Y79604762D01*
X43035714Y79509524D01*
X42940476Y79461905D01*
%TO.C,R17*%
X33457142Y28147620D02*
X33123809Y28623810D01*
X32885714Y28147620D02*
X32885714Y29147620D01*
X33266666Y29147620D01*
X33361904Y29100000D01*
X33409523Y29052381D01*
X33457142Y28957143D01*
X33457142Y28814286D01*
X33409523Y28719048D01*
X33361904Y28671429D01*
X33266666Y28623810D01*
X32885714Y28623810D01*
X34409523Y28147620D02*
X33838095Y28147620D01*
X34123809Y28147620D02*
X34123809Y29147620D01*
X34028571Y29004762D01*
X33933333Y28909524D01*
X33838095Y28861905D01*
X34742857Y29147620D02*
X35409523Y29147620D01*
X34980952Y28147620D01*
%TO.C,R1*%
X72071285Y88740000D02*
X71714142Y88490000D01*
X72071285Y88311429D02*
X71321285Y88311429D01*
X71321285Y88597143D01*
X71357000Y88668572D01*
X71392714Y88704286D01*
X71464142Y88740000D01*
X71571285Y88740000D01*
X71642714Y88704286D01*
X71678428Y88668572D01*
X71714142Y88597143D01*
X71714142Y88311429D01*
X72071285Y89454286D02*
X72071285Y89025715D01*
X72071285Y89240000D02*
X71321285Y89240000D01*
X71428428Y89168572D01*
X71499857Y89097143D01*
X71535571Y89025715D01*
%TO.C,R9*%
X4802380Y38553334D02*
X4326190Y38220000D01*
X4802380Y37981905D02*
X3802380Y37981905D01*
X3802380Y38362858D01*
X3850000Y38458096D01*
X3897619Y38505715D01*
X3992857Y38553334D01*
X4135714Y38553334D01*
X4230952Y38505715D01*
X4278571Y38458096D01*
X4326190Y38362858D01*
X4326190Y37981905D01*
X4802380Y39029524D02*
X4802380Y39220000D01*
X4754761Y39315239D01*
X4707142Y39362858D01*
X4564285Y39458096D01*
X4373809Y39505715D01*
X3992857Y39505715D01*
X3897619Y39458096D01*
X3850000Y39410477D01*
X3802380Y39315239D01*
X3802380Y39124762D01*
X3850000Y39029524D01*
X3897619Y38981905D01*
X3992857Y38934286D01*
X4230952Y38934286D01*
X4326190Y38981905D01*
X4373809Y39029524D01*
X4421428Y39124762D01*
X4421428Y39315239D01*
X4373809Y39410477D01*
X4326190Y39458096D01*
X4230952Y39505715D01*
%TO.C,R10*%
X7052380Y38577143D02*
X6576190Y38243810D01*
X7052380Y38005715D02*
X6052380Y38005715D01*
X6052380Y38386667D01*
X6100000Y38481905D01*
X6147619Y38529524D01*
X6242857Y38577143D01*
X6385714Y38577143D01*
X6480952Y38529524D01*
X6528571Y38481905D01*
X6576190Y38386667D01*
X6576190Y38005715D01*
X7052380Y39529524D02*
X7052380Y38958096D01*
X7052380Y39243810D02*
X6052380Y39243810D01*
X6195238Y39148572D01*
X6290476Y39053334D01*
X6338095Y38958096D01*
X6052380Y40148572D02*
X6052380Y40243810D01*
X6100000Y40339048D01*
X6147619Y40386667D01*
X6242857Y40434286D01*
X6433333Y40481905D01*
X6671428Y40481905D01*
X6861904Y40434286D01*
X6957142Y40386667D01*
X7004761Y40339048D01*
X7052380Y40243810D01*
X7052380Y40148572D01*
X7004761Y40053334D01*
X6957142Y40005715D01*
X6861904Y39958096D01*
X6671428Y39910477D01*
X6433333Y39910477D01*
X6242857Y39958096D01*
X6147619Y40005715D01*
X6100000Y40053334D01*
X6052380Y40148572D01*
%TO.C,R35*%
X70179142Y79472620D02*
X69845809Y79948810D01*
X69607714Y79472620D02*
X69607714Y80472620D01*
X69988666Y80472620D01*
X70083904Y80425000D01*
X70131523Y80377381D01*
X70179142Y80282143D01*
X70179142Y80139286D01*
X70131523Y80044048D01*
X70083904Y79996429D01*
X69988666Y79948810D01*
X69607714Y79948810D01*
X70512476Y80472620D02*
X71131523Y80472620D01*
X70798190Y80091667D01*
X70941047Y80091667D01*
X71036285Y80044048D01*
X71083904Y79996429D01*
X71131523Y79901191D01*
X71131523Y79663096D01*
X71083904Y79567858D01*
X71036285Y79520239D01*
X70941047Y79472620D01*
X70655333Y79472620D01*
X70560095Y79520239D01*
X70512476Y79567858D01*
X72036285Y80472620D02*
X71560095Y80472620D01*
X71512476Y79996429D01*
X71560095Y80044048D01*
X71655333Y80091667D01*
X71893428Y80091667D01*
X71988666Y80044048D01*
X72036285Y79996429D01*
X72083904Y79901191D01*
X72083904Y79663096D01*
X72036285Y79567858D01*
X71988666Y79520239D01*
X71893428Y79472620D01*
X71655333Y79472620D01*
X71560095Y79520239D01*
X71512476Y79567858D01*
%TO.C,R29*%
X14337142Y71747620D02*
X14003809Y72223810D01*
X13765714Y71747620D02*
X13765714Y72747620D01*
X14146666Y72747620D01*
X14241904Y72700000D01*
X14289523Y72652381D01*
X14337142Y72557143D01*
X14337142Y72414286D01*
X14289523Y72319048D01*
X14241904Y72271429D01*
X14146666Y72223810D01*
X13765714Y72223810D01*
X14718095Y72652381D02*
X14765714Y72700000D01*
X14860952Y72747620D01*
X15099047Y72747620D01*
X15194285Y72700000D01*
X15241904Y72652381D01*
X15289523Y72557143D01*
X15289523Y72461905D01*
X15241904Y72319048D01*
X14670476Y71747620D01*
X15289523Y71747620D01*
X15765714Y71747620D02*
X15956190Y71747620D01*
X16051428Y71795239D01*
X16099047Y71842858D01*
X16194285Y71985715D01*
X16241904Y72176191D01*
X16241904Y72557143D01*
X16194285Y72652381D01*
X16146666Y72700000D01*
X16051428Y72747620D01*
X15860952Y72747620D01*
X15765714Y72700000D01*
X15718095Y72652381D01*
X15670476Y72557143D01*
X15670476Y72319048D01*
X15718095Y72223810D01*
X15765714Y72176191D01*
X15860952Y72128572D01*
X16051428Y72128572D01*
X16146666Y72176191D01*
X16194285Y72223810D01*
X16241904Y72319048D01*
%TO.C,C6*%
X42083333Y90542858D02*
X42035714Y90495239D01*
X41892857Y90447620D01*
X41797619Y90447620D01*
X41654761Y90495239D01*
X41559523Y90590477D01*
X41511904Y90685715D01*
X41464285Y90876191D01*
X41464285Y91019048D01*
X41511904Y91209524D01*
X41559523Y91304762D01*
X41654761Y91400000D01*
X41797619Y91447620D01*
X41892857Y91447620D01*
X42035714Y91400000D01*
X42083333Y91352381D01*
X42940476Y91447620D02*
X42750000Y91447620D01*
X42654761Y91400000D01*
X42607142Y91352381D01*
X42511904Y91209524D01*
X42464285Y91019048D01*
X42464285Y90638096D01*
X42511904Y90542858D01*
X42559523Y90495239D01*
X42654761Y90447620D01*
X42845238Y90447620D01*
X42940476Y90495239D01*
X42988095Y90542858D01*
X43035714Y90638096D01*
X43035714Y90876191D01*
X42988095Y90971429D01*
X42940476Y91019048D01*
X42845238Y91066667D01*
X42654761Y91066667D01*
X42559523Y91019048D01*
X42511904Y90971429D01*
X42464285Y90876191D01*
%TO.C,C22*%
X80269142Y82977858D02*
X80221523Y82930239D01*
X80078666Y82882620D01*
X79983428Y82882620D01*
X79840571Y82930239D01*
X79745333Y83025477D01*
X79697714Y83120715D01*
X79650095Y83311191D01*
X79650095Y83454048D01*
X79697714Y83644524D01*
X79745333Y83739762D01*
X79840571Y83835000D01*
X79983428Y83882620D01*
X80078666Y83882620D01*
X80221523Y83835000D01*
X80269142Y83787381D01*
X80650095Y83787381D02*
X80697714Y83835000D01*
X80792952Y83882620D01*
X81031047Y83882620D01*
X81126285Y83835000D01*
X81173904Y83787381D01*
X81221523Y83692143D01*
X81221523Y83596905D01*
X81173904Y83454048D01*
X80602476Y82882620D01*
X81221523Y82882620D01*
X81602476Y83787381D02*
X81650095Y83835000D01*
X81745333Y83882620D01*
X81983428Y83882620D01*
X82078666Y83835000D01*
X82126285Y83787381D01*
X82173904Y83692143D01*
X82173904Y83596905D01*
X82126285Y83454048D01*
X81554857Y82882620D01*
X82173904Y82882620D01*
%TO.C,R25*%
X64352380Y7257143D02*
X63876190Y6923810D01*
X64352380Y6685715D02*
X63352380Y6685715D01*
X63352380Y7066667D01*
X63400000Y7161905D01*
X63447619Y7209524D01*
X63542857Y7257143D01*
X63685714Y7257143D01*
X63780952Y7209524D01*
X63828571Y7161905D01*
X63876190Y7066667D01*
X63876190Y6685715D01*
X63447619Y7638096D02*
X63400000Y7685715D01*
X63352380Y7780953D01*
X63352380Y8019048D01*
X63400000Y8114286D01*
X63447619Y8161905D01*
X63542857Y8209524D01*
X63638095Y8209524D01*
X63780952Y8161905D01*
X64352380Y7590477D01*
X64352380Y8209524D01*
X63352380Y9114286D02*
X63352380Y8638096D01*
X63828571Y8590477D01*
X63780952Y8638096D01*
X63733333Y8733334D01*
X63733333Y8971429D01*
X63780952Y9066667D01*
X63828571Y9114286D01*
X63923809Y9161905D01*
X64161904Y9161905D01*
X64257142Y9114286D01*
X64304761Y9066667D01*
X64352380Y8971429D01*
X64352380Y8733334D01*
X64304761Y8638096D01*
X64257142Y8590477D01*
%TO.C,C18*%
X35087142Y89792858D02*
X35039523Y89745239D01*
X34896666Y89697620D01*
X34801428Y89697620D01*
X34658571Y89745239D01*
X34563333Y89840477D01*
X34515714Y89935715D01*
X34468095Y90126191D01*
X34468095Y90269048D01*
X34515714Y90459524D01*
X34563333Y90554762D01*
X34658571Y90650000D01*
X34801428Y90697620D01*
X34896666Y90697620D01*
X35039523Y90650000D01*
X35087142Y90602381D01*
X36039523Y89697620D02*
X35468095Y89697620D01*
X35753809Y89697620D02*
X35753809Y90697620D01*
X35658571Y90554762D01*
X35563333Y90459524D01*
X35468095Y90411905D01*
X36610952Y90269048D02*
X36515714Y90316667D01*
X36468095Y90364286D01*
X36420476Y90459524D01*
X36420476Y90507143D01*
X36468095Y90602381D01*
X36515714Y90650000D01*
X36610952Y90697620D01*
X36801428Y90697620D01*
X36896666Y90650000D01*
X36944285Y90602381D01*
X36991904Y90507143D01*
X36991904Y90459524D01*
X36944285Y90364286D01*
X36896666Y90316667D01*
X36801428Y90269048D01*
X36610952Y90269048D01*
X36515714Y90221429D01*
X36468095Y90173810D01*
X36420476Y90078572D01*
X36420476Y89888096D01*
X36468095Y89792858D01*
X36515714Y89745239D01*
X36610952Y89697620D01*
X36801428Y89697620D01*
X36896666Y89745239D01*
X36944285Y89792858D01*
X36991904Y89888096D01*
X36991904Y90078572D01*
X36944285Y90173810D01*
X36896666Y90221429D01*
X36801428Y90269048D01*
%TO.C,C13*%
X70196642Y75967858D02*
X70149023Y75920239D01*
X70006166Y75872620D01*
X69910928Y75872620D01*
X69768071Y75920239D01*
X69672833Y76015477D01*
X69625214Y76110715D01*
X69577595Y76301191D01*
X69577595Y76444048D01*
X69625214Y76634524D01*
X69672833Y76729762D01*
X69768071Y76825000D01*
X69910928Y76872620D01*
X70006166Y76872620D01*
X70149023Y76825000D01*
X70196642Y76777381D01*
X71149023Y75872620D02*
X70577595Y75872620D01*
X70863309Y75872620D02*
X70863309Y76872620D01*
X70768071Y76729762D01*
X70672833Y76634524D01*
X70577595Y76586905D01*
X71482357Y76872620D02*
X72101404Y76872620D01*
X71768071Y76491667D01*
X71910928Y76491667D01*
X72006166Y76444048D01*
X72053785Y76396429D01*
X72101404Y76301191D01*
X72101404Y76063096D01*
X72053785Y75967858D01*
X72006166Y75920239D01*
X71910928Y75872620D01*
X71625214Y75872620D01*
X71529976Y75920239D01*
X71482357Y75967858D01*
%TO.C,C14*%
X70186642Y82817858D02*
X70139023Y82770239D01*
X69996166Y82722620D01*
X69900928Y82722620D01*
X69758071Y82770239D01*
X69662833Y82865477D01*
X69615214Y82960715D01*
X69567595Y83151191D01*
X69567595Y83294048D01*
X69615214Y83484524D01*
X69662833Y83579762D01*
X69758071Y83675000D01*
X69900928Y83722620D01*
X69996166Y83722620D01*
X70139023Y83675000D01*
X70186642Y83627381D01*
X71139023Y82722620D02*
X70567595Y82722620D01*
X70853309Y82722620D02*
X70853309Y83722620D01*
X70758071Y83579762D01*
X70662833Y83484524D01*
X70567595Y83436905D01*
X71996166Y83389286D02*
X71996166Y82722620D01*
X71758071Y83770239D02*
X71519976Y83055953D01*
X72139023Y83055953D01*
%TO.C,RAM1*%
X7583333Y13942620D02*
X7250000Y14418810D01*
X7011904Y13942620D02*
X7011904Y14942620D01*
X7392857Y14942620D01*
X7488095Y14895000D01*
X7535714Y14847381D01*
X7583333Y14752143D01*
X7583333Y14609286D01*
X7535714Y14514048D01*
X7488095Y14466429D01*
X7392857Y14418810D01*
X7011904Y14418810D01*
X7964285Y14228334D02*
X8440476Y14228334D01*
X7869047Y13942620D02*
X8202380Y14942620D01*
X8535714Y13942620D01*
X8869047Y13942620D02*
X8869047Y14942620D01*
X9202380Y14228334D01*
X9535714Y14942620D01*
X9535714Y13942620D01*
X10535714Y13942620D02*
X9964285Y13942620D01*
X10250000Y13942620D02*
X10250000Y14942620D01*
X10154761Y14799762D01*
X10059523Y14704524D01*
X9964285Y14656905D01*
%TO.C,VIDEO1*%
X59118190Y71042620D02*
X59451523Y70042620D01*
X59784857Y71042620D01*
X60118190Y70042620D02*
X60118190Y71042620D01*
X60594380Y70042620D02*
X60594380Y71042620D01*
X60832476Y71042620D01*
X60975333Y70995000D01*
X61070571Y70899762D01*
X61118190Y70804524D01*
X61165809Y70614048D01*
X61165809Y70471191D01*
X61118190Y70280715D01*
X61070571Y70185477D01*
X60975333Y70090239D01*
X60832476Y70042620D01*
X60594380Y70042620D01*
X61594380Y70566429D02*
X61927714Y70566429D01*
X62070571Y70042620D02*
X61594380Y70042620D01*
X61594380Y71042620D01*
X62070571Y71042620D01*
X62689619Y71042620D02*
X62880095Y71042620D01*
X62975333Y70995000D01*
X63070571Y70899762D01*
X63118190Y70709286D01*
X63118190Y70375953D01*
X63070571Y70185477D01*
X62975333Y70090239D01*
X62880095Y70042620D01*
X62689619Y70042620D01*
X62594380Y70090239D01*
X62499142Y70185477D01*
X62451523Y70375953D01*
X62451523Y70709286D01*
X62499142Y70899762D01*
X62594380Y70995000D01*
X62689619Y71042620D01*
X64070571Y70042620D02*
X63499142Y70042620D01*
X63784857Y70042620D02*
X63784857Y71042620D01*
X63689619Y70899762D01*
X63594380Y70804524D01*
X63499142Y70756905D01*
%TO.C,J1*%
X7986666Y90907620D02*
X7986666Y90193334D01*
X7939047Y90050477D01*
X7843809Y89955239D01*
X7700952Y89907620D01*
X7605714Y89907620D01*
X8986666Y89907620D02*
X8415238Y89907620D01*
X8700952Y89907620D02*
X8700952Y90907620D01*
X8605714Y90764762D01*
X8510476Y90669524D01*
X8415238Y90621905D01*
%TO.C,STEP_SW1*%
X33876190Y68451013D02*
X34019047Y68403394D01*
X34257142Y68403394D01*
X34352380Y68451013D01*
X34400000Y68498632D01*
X34447619Y68593870D01*
X34447619Y68689108D01*
X34400000Y68784346D01*
X34352380Y68831965D01*
X34257142Y68879584D01*
X34066666Y68927203D01*
X33971428Y68974822D01*
X33923809Y69022441D01*
X33876190Y69117679D01*
X33876190Y69212917D01*
X33923809Y69308155D01*
X33971428Y69355774D01*
X34066666Y69403394D01*
X34304761Y69403394D01*
X34447619Y69355774D01*
X34733333Y69403394D02*
X35304761Y69403394D01*
X35019047Y68403394D02*
X35019047Y69403394D01*
X35638095Y68927203D02*
X35971428Y68927203D01*
X36114285Y68403394D02*
X35638095Y68403394D01*
X35638095Y69403394D01*
X36114285Y69403394D01*
X36542857Y68403394D02*
X36542857Y69403394D01*
X36923809Y69403394D01*
X37019047Y69355774D01*
X37066666Y69308155D01*
X37114285Y69212917D01*
X37114285Y69070060D01*
X37066666Y68974822D01*
X37019047Y68927203D01*
X36923809Y68879584D01*
X36542857Y68879584D01*
X37304761Y68308155D02*
X38066666Y68308155D01*
X38257142Y68451013D02*
X38400000Y68403394D01*
X38638095Y68403394D01*
X38733333Y68451013D01*
X38780952Y68498632D01*
X38828571Y68593870D01*
X38828571Y68689108D01*
X38780952Y68784346D01*
X38733333Y68831965D01*
X38638095Y68879584D01*
X38447619Y68927203D01*
X38352380Y68974822D01*
X38304761Y69022441D01*
X38257142Y69117679D01*
X38257142Y69212917D01*
X38304761Y69308155D01*
X38352380Y69355774D01*
X38447619Y69403394D01*
X38685714Y69403394D01*
X38828571Y69355774D01*
X39161904Y69403394D02*
X39400000Y68403394D01*
X39590476Y69117679D01*
X39780952Y68403394D01*
X40019047Y69403394D01*
X40923809Y68403394D02*
X40352380Y68403394D01*
X40638095Y68403394D02*
X40638095Y69403394D01*
X40542857Y69260536D01*
X40447619Y69165298D01*
X40352380Y69117679D01*
%TO.C,REG1*%
X3980952Y75627620D02*
X3647619Y76103810D01*
X3409523Y75627620D02*
X3409523Y76627620D01*
X3790476Y76627620D01*
X3885714Y76580000D01*
X3933333Y76532381D01*
X3980952Y76437143D01*
X3980952Y76294286D01*
X3933333Y76199048D01*
X3885714Y76151429D01*
X3790476Y76103810D01*
X3409523Y76103810D01*
X4409523Y76151429D02*
X4742857Y76151429D01*
X4885714Y75627620D02*
X4409523Y75627620D01*
X4409523Y76627620D01*
X4885714Y76627620D01*
X5838095Y76580000D02*
X5742857Y76627620D01*
X5600000Y76627620D01*
X5457142Y76580000D01*
X5361904Y76484762D01*
X5314285Y76389524D01*
X5266666Y76199048D01*
X5266666Y76056191D01*
X5314285Y75865715D01*
X5361904Y75770477D01*
X5457142Y75675239D01*
X5600000Y75627620D01*
X5695238Y75627620D01*
X5838095Y75675239D01*
X5885714Y75722858D01*
X5885714Y76056191D01*
X5695238Y76056191D01*
X6838095Y75627620D02*
X6266666Y75627620D01*
X6552380Y75627620D02*
X6552380Y76627620D01*
X6457142Y76484762D01*
X6361904Y76389524D01*
X6266666Y76341905D01*
%TO.C,R26*%
X62052380Y7257143D02*
X61576190Y6923810D01*
X62052380Y6685715D02*
X61052380Y6685715D01*
X61052380Y7066667D01*
X61100000Y7161905D01*
X61147619Y7209524D01*
X61242857Y7257143D01*
X61385714Y7257143D01*
X61480952Y7209524D01*
X61528571Y7161905D01*
X61576190Y7066667D01*
X61576190Y6685715D01*
X61147619Y7638096D02*
X61100000Y7685715D01*
X61052380Y7780953D01*
X61052380Y8019048D01*
X61100000Y8114286D01*
X61147619Y8161905D01*
X61242857Y8209524D01*
X61338095Y8209524D01*
X61480952Y8161905D01*
X62052380Y7590477D01*
X62052380Y8209524D01*
X61052380Y9066667D02*
X61052380Y8876191D01*
X61100000Y8780953D01*
X61147619Y8733334D01*
X61290476Y8638096D01*
X61480952Y8590477D01*
X61861904Y8590477D01*
X61957142Y8638096D01*
X62004761Y8685715D01*
X62052380Y8780953D01*
X62052380Y8971429D01*
X62004761Y9066667D01*
X61957142Y9114286D01*
X61861904Y9161905D01*
X61623809Y9161905D01*
X61528571Y9114286D01*
X61480952Y9066667D01*
X61433333Y8971429D01*
X61433333Y8780953D01*
X61480952Y8685715D01*
X61528571Y8638096D01*
X61623809Y8590477D01*
%TO.C,C7*%
X39947559Y90562858D02*
X39899940Y90515239D01*
X39757083Y90467620D01*
X39661845Y90467620D01*
X39518987Y90515239D01*
X39423749Y90610477D01*
X39376130Y90705715D01*
X39328511Y90896191D01*
X39328511Y91039048D01*
X39376130Y91229524D01*
X39423749Y91324762D01*
X39518987Y91420000D01*
X39661845Y91467620D01*
X39757083Y91467620D01*
X39899940Y91420000D01*
X39947559Y91372381D01*
X40280892Y91467620D02*
X40947559Y91467620D01*
X40518987Y90467620D01*
%TO.C,R20*%
X33457142Y20447620D02*
X33123809Y20923810D01*
X32885714Y20447620D02*
X32885714Y21447620D01*
X33266666Y21447620D01*
X33361904Y21400000D01*
X33409523Y21352381D01*
X33457142Y21257143D01*
X33457142Y21114286D01*
X33409523Y21019048D01*
X33361904Y20971429D01*
X33266666Y20923810D01*
X32885714Y20923810D01*
X33838095Y21352381D02*
X33885714Y21400000D01*
X33980952Y21447620D01*
X34219047Y21447620D01*
X34314285Y21400000D01*
X34361904Y21352381D01*
X34409523Y21257143D01*
X34409523Y21161905D01*
X34361904Y21019048D01*
X33790476Y20447620D01*
X34409523Y20447620D01*
X35028571Y21447620D02*
X35123809Y21447620D01*
X35219047Y21400000D01*
X35266666Y21352381D01*
X35314285Y21257143D01*
X35361904Y21066667D01*
X35361904Y20828572D01*
X35314285Y20638096D01*
X35266666Y20542858D01*
X35219047Y20495239D01*
X35123809Y20447620D01*
X35028571Y20447620D01*
X34933333Y20495239D01*
X34885714Y20542858D01*
X34838095Y20638096D01*
X34790476Y20828572D01*
X34790476Y21066667D01*
X34838095Y21257143D01*
X34885714Y21352381D01*
X34933333Y21400000D01*
X35028571Y21447620D01*
%TO.C,R3*%
X66151285Y86007500D02*
X65794142Y85757500D01*
X66151285Y85578929D02*
X65401285Y85578929D01*
X65401285Y85864643D01*
X65437000Y85936072D01*
X65472714Y85971786D01*
X65544142Y86007500D01*
X65651285Y86007500D01*
X65722714Y85971786D01*
X65758428Y85936072D01*
X65794142Y85864643D01*
X65794142Y85578929D01*
X65401285Y86257500D02*
X65401285Y86721786D01*
X65687000Y86471786D01*
X65687000Y86578929D01*
X65722714Y86650358D01*
X65758428Y86686072D01*
X65829857Y86721786D01*
X66008428Y86721786D01*
X66079857Y86686072D01*
X66115571Y86650358D01*
X66151285Y86578929D01*
X66151285Y86364643D01*
X66115571Y86293215D01*
X66079857Y86257500D01*
%TO.C,R14*%
X33457142Y35747620D02*
X33123809Y36223810D01*
X32885714Y35747620D02*
X32885714Y36747620D01*
X33266666Y36747620D01*
X33361904Y36700000D01*
X33409523Y36652381D01*
X33457142Y36557143D01*
X33457142Y36414286D01*
X33409523Y36319048D01*
X33361904Y36271429D01*
X33266666Y36223810D01*
X32885714Y36223810D01*
X34409523Y35747620D02*
X33838095Y35747620D01*
X34123809Y35747620D02*
X34123809Y36747620D01*
X34028571Y36604762D01*
X33933333Y36509524D01*
X33838095Y36461905D01*
X35266666Y36414286D02*
X35266666Y35747620D01*
X35028571Y36795239D02*
X34790476Y36080953D01*
X35409523Y36080953D01*
%TO.C,CS_SEL1*%
X25592857Y71469108D02*
X25545238Y71421489D01*
X25402380Y71373870D01*
X25307142Y71373870D01*
X25164285Y71421489D01*
X25069047Y71516727D01*
X25021428Y71611965D01*
X24973809Y71802441D01*
X24973809Y71945298D01*
X25021428Y72135774D01*
X25069047Y72231012D01*
X25164285Y72326250D01*
X25307142Y72373870D01*
X25402380Y72373870D01*
X25545238Y72326250D01*
X25592857Y72278631D01*
X25973809Y71421489D02*
X26116666Y71373870D01*
X26354761Y71373870D01*
X26450000Y71421489D01*
X26497619Y71469108D01*
X26545238Y71564346D01*
X26545238Y71659584D01*
X26497619Y71754822D01*
X26450000Y71802441D01*
X26354761Y71850060D01*
X26164285Y71897679D01*
X26069047Y71945298D01*
X26021428Y71992917D01*
X25973809Y72088155D01*
X25973809Y72183393D01*
X26021428Y72278631D01*
X26069047Y72326250D01*
X26164285Y72373870D01*
X26402380Y72373870D01*
X26545238Y72326250D01*
X26735714Y71278631D02*
X27497619Y71278631D01*
X27688095Y71421489D02*
X27830952Y71373870D01*
X28069047Y71373870D01*
X28164285Y71421489D01*
X28211904Y71469108D01*
X28259523Y71564346D01*
X28259523Y71659584D01*
X28211904Y71754822D01*
X28164285Y71802441D01*
X28069047Y71850060D01*
X27878571Y71897679D01*
X27783333Y71945298D01*
X27735714Y71992917D01*
X27688095Y72088155D01*
X27688095Y72183393D01*
X27735714Y72278631D01*
X27783333Y72326250D01*
X27878571Y72373870D01*
X28116666Y72373870D01*
X28259523Y72326250D01*
X28688095Y71897679D02*
X29021428Y71897679D01*
X29164285Y71373870D02*
X28688095Y71373870D01*
X28688095Y72373870D01*
X29164285Y72373870D01*
X30069047Y71373870D02*
X29592857Y71373870D01*
X29592857Y72373870D01*
X30926190Y71373870D02*
X30354761Y71373870D01*
X30640476Y71373870D02*
X30640476Y72373870D01*
X30545238Y72231012D01*
X30450000Y72135774D01*
X30354761Y72088155D01*
%TO.C,R8*%
X2524880Y38553334D02*
X2048690Y38220000D01*
X2524880Y37981905D02*
X1524880Y37981905D01*
X1524880Y38362858D01*
X1572500Y38458096D01*
X1620119Y38505715D01*
X1715357Y38553334D01*
X1858214Y38553334D01*
X1953452Y38505715D01*
X2001071Y38458096D01*
X2048690Y38362858D01*
X2048690Y37981905D01*
X1953452Y39124762D02*
X1905833Y39029524D01*
X1858214Y38981905D01*
X1762976Y38934286D01*
X1715357Y38934286D01*
X1620119Y38981905D01*
X1572500Y39029524D01*
X1524880Y39124762D01*
X1524880Y39315239D01*
X1572500Y39410477D01*
X1620119Y39458096D01*
X1715357Y39505715D01*
X1762976Y39505715D01*
X1858214Y39458096D01*
X1905833Y39410477D01*
X1953452Y39315239D01*
X1953452Y39124762D01*
X2001071Y39029524D01*
X2048690Y38981905D01*
X2143928Y38934286D01*
X2334404Y38934286D01*
X2429642Y38981905D01*
X2477261Y39029524D01*
X2524880Y39124762D01*
X2524880Y39315239D01*
X2477261Y39410477D01*
X2429642Y39458096D01*
X2334404Y39505715D01*
X2143928Y39505715D01*
X2048690Y39458096D01*
X2001071Y39410477D01*
X1953452Y39315239D01*
%TO.C,U2*%
X30188095Y83573870D02*
X30188095Y82764346D01*
X30235714Y82669108D01*
X30283333Y82621489D01*
X30378571Y82573870D01*
X30569047Y82573870D01*
X30664285Y82621489D01*
X30711904Y82669108D01*
X30759523Y82764346D01*
X30759523Y83573870D01*
X31188095Y83478631D02*
X31235714Y83526250D01*
X31330952Y83573870D01*
X31569047Y83573870D01*
X31664285Y83526250D01*
X31711904Y83478631D01*
X31759523Y83383393D01*
X31759523Y83288155D01*
X31711904Y83145298D01*
X31140476Y82573870D01*
X31759523Y82573870D01*
%TO.C,R21*%
X33457142Y17947620D02*
X33123809Y18423810D01*
X32885714Y17947620D02*
X32885714Y18947620D01*
X33266666Y18947620D01*
X33361904Y18900000D01*
X33409523Y18852381D01*
X33457142Y18757143D01*
X33457142Y18614286D01*
X33409523Y18519048D01*
X33361904Y18471429D01*
X33266666Y18423810D01*
X32885714Y18423810D01*
X33838095Y18852381D02*
X33885714Y18900000D01*
X33980952Y18947620D01*
X34219047Y18947620D01*
X34314285Y18900000D01*
X34361904Y18852381D01*
X34409523Y18757143D01*
X34409523Y18661905D01*
X34361904Y18519048D01*
X33790476Y17947620D01*
X34409523Y17947620D01*
X35361904Y17947620D02*
X34790476Y17947620D01*
X35076190Y17947620D02*
X35076190Y18947620D01*
X34980952Y18804762D01*
X34885714Y18709524D01*
X34790476Y18661905D01*
%TO.C,R5*%
X17268333Y39557620D02*
X16935000Y40033810D01*
X16696904Y39557620D02*
X16696904Y40557620D01*
X17077857Y40557620D01*
X17173095Y40510000D01*
X17220714Y40462381D01*
X17268333Y40367143D01*
X17268333Y40224286D01*
X17220714Y40129048D01*
X17173095Y40081429D01*
X17077857Y40033810D01*
X16696904Y40033810D01*
X18173095Y40557620D02*
X17696904Y40557620D01*
X17649285Y40081429D01*
X17696904Y40129048D01*
X17792142Y40176667D01*
X18030238Y40176667D01*
X18125476Y40129048D01*
X18173095Y40081429D01*
X18220714Y39986191D01*
X18220714Y39748096D01*
X18173095Y39652858D01*
X18125476Y39605239D01*
X18030238Y39557620D01*
X17792142Y39557620D01*
X17696904Y39605239D01*
X17649285Y39652858D01*
%TO.C,C12*%
X67469142Y68367858D02*
X67421523Y68320239D01*
X67278666Y68272620D01*
X67183428Y68272620D01*
X67040571Y68320239D01*
X66945333Y68415477D01*
X66897714Y68510715D01*
X66850095Y68701191D01*
X66850095Y68844048D01*
X66897714Y69034524D01*
X66945333Y69129762D01*
X67040571Y69225000D01*
X67183428Y69272620D01*
X67278666Y69272620D01*
X67421523Y69225000D01*
X67469142Y69177381D01*
X68421523Y68272620D02*
X67850095Y68272620D01*
X68135809Y68272620D02*
X68135809Y69272620D01*
X68040571Y69129762D01*
X67945333Y69034524D01*
X67850095Y68986905D01*
X68802476Y69177381D02*
X68850095Y69225000D01*
X68945333Y69272620D01*
X69183428Y69272620D01*
X69278666Y69225000D01*
X69326285Y69177381D01*
X69373904Y69082143D01*
X69373904Y68986905D01*
X69326285Y68844048D01*
X68754857Y68272620D01*
X69373904Y68272620D01*
%TO.C,R31*%
X35082142Y81937620D02*
X34748809Y82413810D01*
X34510714Y81937620D02*
X34510714Y82937620D01*
X34891666Y82937620D01*
X34986904Y82890000D01*
X35034523Y82842381D01*
X35082142Y82747143D01*
X35082142Y82604286D01*
X35034523Y82509048D01*
X34986904Y82461429D01*
X34891666Y82413810D01*
X34510714Y82413810D01*
X35415476Y82937620D02*
X36034523Y82937620D01*
X35701190Y82556667D01*
X35844047Y82556667D01*
X35939285Y82509048D01*
X35986904Y82461429D01*
X36034523Y82366191D01*
X36034523Y82128096D01*
X35986904Y82032858D01*
X35939285Y81985239D01*
X35844047Y81937620D01*
X35558333Y81937620D01*
X35463095Y81985239D01*
X35415476Y82032858D01*
X36986904Y81937620D02*
X36415476Y81937620D01*
X36701190Y81937620D02*
X36701190Y82937620D01*
X36605952Y82794762D01*
X36510714Y82699524D01*
X36415476Y82651905D01*
%TO.C,C10*%
X13257142Y42967858D02*
X13209523Y42920239D01*
X13066666Y42872620D01*
X12971428Y42872620D01*
X12828571Y42920239D01*
X12733333Y43015477D01*
X12685714Y43110715D01*
X12638095Y43301191D01*
X12638095Y43444048D01*
X12685714Y43634524D01*
X12733333Y43729762D01*
X12828571Y43825000D01*
X12971428Y43872620D01*
X13066666Y43872620D01*
X13209523Y43825000D01*
X13257142Y43777381D01*
X14209523Y42872620D02*
X13638095Y42872620D01*
X13923809Y42872620D02*
X13923809Y43872620D01*
X13828571Y43729762D01*
X13733333Y43634524D01*
X13638095Y43586905D01*
X14828571Y43872620D02*
X14923809Y43872620D01*
X15019047Y43825000D01*
X15066666Y43777381D01*
X15114285Y43682143D01*
X15161904Y43491667D01*
X15161904Y43253572D01*
X15114285Y43063096D01*
X15066666Y42967858D01*
X15019047Y42920239D01*
X14923809Y42872620D01*
X14828571Y42872620D01*
X14733333Y42920239D01*
X14685714Y42967858D01*
X14638095Y43063096D01*
X14590476Y43253572D01*
X14590476Y43491667D01*
X14638095Y43682143D01*
X14685714Y43777381D01*
X14733333Y43825000D01*
X14828571Y43872620D01*
%TO.C,C23*%
X57484142Y86994143D02*
X57531761Y86946524D01*
X57579380Y86803667D01*
X57579380Y86708429D01*
X57531761Y86565572D01*
X57436523Y86470334D01*
X57341285Y86422715D01*
X57150809Y86375096D01*
X57007952Y86375096D01*
X56817476Y86422715D01*
X56722238Y86470334D01*
X56627000Y86565572D01*
X56579380Y86708429D01*
X56579380Y86803667D01*
X56627000Y86946524D01*
X56674619Y86994143D01*
X56674619Y87375096D02*
X56627000Y87422715D01*
X56579380Y87517953D01*
X56579380Y87756048D01*
X56627000Y87851286D01*
X56674619Y87898905D01*
X56769857Y87946524D01*
X56865095Y87946524D01*
X57007952Y87898905D01*
X57579380Y87327477D01*
X57579380Y87946524D01*
X56579380Y88279858D02*
X56579380Y88898905D01*
X56960333Y88565572D01*
X56960333Y88708429D01*
X57007952Y88803667D01*
X57055571Y88851286D01*
X57150809Y88898905D01*
X57388904Y88898905D01*
X57484142Y88851286D01*
X57531761Y88803667D01*
X57579380Y88708429D01*
X57579380Y88422715D01*
X57531761Y88327477D01*
X57484142Y88279858D01*
D19*
%TO.C,USB_P1*%
X94010571Y86476429D02*
X95224857Y86476429D01*
X95367714Y86547858D01*
X95439142Y86619286D01*
X95510571Y86762143D01*
X95510571Y87047858D01*
X95439142Y87190715D01*
X95367714Y87262143D01*
X95224857Y87333572D01*
X94010571Y87333572D01*
X95439142Y87976429D02*
X95510571Y88190715D01*
X95510571Y88547858D01*
X95439142Y88690715D01*
X95367714Y88762143D01*
X95224857Y88833572D01*
X95082000Y88833572D01*
X94939142Y88762143D01*
X94867714Y88690715D01*
X94796285Y88547858D01*
X94724857Y88262143D01*
X94653428Y88119286D01*
X94582000Y88047858D01*
X94439142Y87976429D01*
X94296285Y87976429D01*
X94153428Y88047858D01*
X94082000Y88119286D01*
X94010571Y88262143D01*
X94010571Y88619286D01*
X94082000Y88833572D01*
X94724857Y89976429D02*
X94796285Y90190715D01*
X94867714Y90262143D01*
X95010571Y90333572D01*
X95224857Y90333572D01*
X95367714Y90262143D01*
X95439142Y90190715D01*
X95510571Y90047858D01*
X95510571Y89476429D01*
X94010571Y89476429D01*
X94010571Y89976429D01*
X94082000Y90119286D01*
X94153428Y90190715D01*
X94296285Y90262143D01*
X94439142Y90262143D01*
X94582000Y90190715D01*
X94653428Y90119286D01*
X94724857Y89976429D01*
X94724857Y89476429D01*
X95653428Y90619286D02*
X95653428Y91762143D01*
X95510571Y92119286D02*
X94010571Y92119286D01*
X94010571Y92690715D01*
X94082000Y92833572D01*
X94153428Y92905000D01*
X94296285Y92976429D01*
X94510571Y92976429D01*
X94653428Y92905000D01*
X94724857Y92833572D01*
X94796285Y92690715D01*
X94796285Y92119286D01*
X95510571Y94405000D02*
X95510571Y93547858D01*
X95510571Y93976429D02*
X94010571Y93976429D01*
X94224857Y93833572D01*
X94367714Y93690715D01*
X94439142Y93547858D01*
D16*
%TO.C,C1*%
X11593333Y84152858D02*
X11545714Y84105239D01*
X11402857Y84057620D01*
X11307619Y84057620D01*
X11164761Y84105239D01*
X11069523Y84200477D01*
X11021904Y84295715D01*
X10974285Y84486191D01*
X10974285Y84629048D01*
X11021904Y84819524D01*
X11069523Y84914762D01*
X11164761Y85010000D01*
X11307619Y85057620D01*
X11402857Y85057620D01*
X11545714Y85010000D01*
X11593333Y84962381D01*
X12545714Y84057620D02*
X11974285Y84057620D01*
X12260000Y84057620D02*
X12260000Y85057620D01*
X12164761Y84914762D01*
X12069523Y84819524D01*
X11974285Y84771905D01*
%TO.C,R7*%
X17268333Y34747620D02*
X16935000Y35223810D01*
X16696904Y34747620D02*
X16696904Y35747620D01*
X17077857Y35747620D01*
X17173095Y35700000D01*
X17220714Y35652381D01*
X17268333Y35557143D01*
X17268333Y35414286D01*
X17220714Y35319048D01*
X17173095Y35271429D01*
X17077857Y35223810D01*
X16696904Y35223810D01*
X17601666Y35747620D02*
X18268333Y35747620D01*
X17839761Y34747620D01*
%TO.C,R12*%
X11554880Y38577143D02*
X11078690Y38243810D01*
X11554880Y38005715D02*
X10554880Y38005715D01*
X10554880Y38386667D01*
X10602500Y38481905D01*
X10650119Y38529524D01*
X10745357Y38577143D01*
X10888214Y38577143D01*
X10983452Y38529524D01*
X11031071Y38481905D01*
X11078690Y38386667D01*
X11078690Y38005715D01*
X11554880Y39529524D02*
X11554880Y38958096D01*
X11554880Y39243810D02*
X10554880Y39243810D01*
X10697738Y39148572D01*
X10792976Y39053334D01*
X10840595Y38958096D01*
X10650119Y39910477D02*
X10602500Y39958096D01*
X10554880Y40053334D01*
X10554880Y40291429D01*
X10602500Y40386667D01*
X10650119Y40434286D01*
X10745357Y40481905D01*
X10840595Y40481905D01*
X10983452Y40434286D01*
X11554880Y39862858D01*
X11554880Y40481905D01*
%TO.C,C5*%
X42083333Y85442858D02*
X42035714Y85395239D01*
X41892857Y85347620D01*
X41797619Y85347620D01*
X41654761Y85395239D01*
X41559523Y85490477D01*
X41511904Y85585715D01*
X41464285Y85776191D01*
X41464285Y85919048D01*
X41511904Y86109524D01*
X41559523Y86204762D01*
X41654761Y86300000D01*
X41797619Y86347620D01*
X41892857Y86347620D01*
X42035714Y86300000D01*
X42083333Y86252381D01*
X42988095Y86347620D02*
X42511904Y86347620D01*
X42464285Y85871429D01*
X42511904Y85919048D01*
X42607142Y85966667D01*
X42845238Y85966667D01*
X42940476Y85919048D01*
X42988095Y85871429D01*
X43035714Y85776191D01*
X43035714Y85538096D01*
X42988095Y85442858D01*
X42940476Y85395239D01*
X42845238Y85347620D01*
X42607142Y85347620D01*
X42511904Y85395239D01*
X42464285Y85442858D01*
%TO.C,X1*%
X20210476Y80772620D02*
X20877142Y79772620D01*
X20877142Y80772620D02*
X20210476Y79772620D01*
X21781904Y79772620D02*
X21210476Y79772620D01*
X21496190Y79772620D02*
X21496190Y80772620D01*
X21400952Y80629762D01*
X21305714Y80534524D01*
X21210476Y80486905D01*
D11*
%TO.C,C15*%
X20038748Y12095000D02*
X20561252Y12095000D01*
X20038748Y13565000D02*
X20561252Y13565000D01*
%TO.C,R30*%
X35510436Y84911250D02*
X35964564Y84911250D01*
X35510436Y83441250D02*
X35964564Y83441250D01*
%TO.C,R22*%
X37514564Y16535000D02*
X37060436Y16535000D01*
X37514564Y15065000D02*
X37060436Y15065000D01*
%TO.C,SDCARD1*%
X12585000Y66530000D02*
X12585000Y70200000D01*
X11865000Y61550000D02*
X12585000Y61550000D01*
X8165000Y61550000D02*
X10465000Y61550000D01*
X12585000Y73730000D02*
X2765000Y73730000D01*
X2315000Y61550000D02*
X6765000Y61550000D01*
X12585000Y61550000D02*
X12585000Y64230000D01*
X12585000Y72500000D02*
X12585000Y73730000D01*
X945000Y63030000D02*
X945000Y63890000D01*
%TO.C,RESET_SW1*%
X44894214Y70144214D02*
X49394214Y70144214D01*
X49394214Y76644214D02*
X44894214Y76644214D01*
X50644214Y72644214D02*
X50644214Y74144214D01*
X43644214Y74144214D02*
X43644214Y72644214D01*
%TO.C,ROM1*%
X20140000Y33360000D02*
X20140000Y33115000D01*
X24000000Y33360000D02*
X20140000Y33360000D01*
X24000000Y33360000D02*
X27860000Y33360000D01*
X20140000Y15240000D02*
X20140000Y15485000D01*
X27860000Y15240000D02*
X27860000Y15485000D01*
X24000000Y15240000D02*
X20140000Y15240000D01*
X27860000Y15485000D02*
X29675000Y15485000D01*
X24000000Y15240000D02*
X27860000Y15240000D01*
X27860000Y33360000D02*
X27860000Y33115000D01*
%TO.C,U6*%
X51760005Y79250012D02*
X51760005Y80550012D01*
X48640005Y80550012D02*
X48640005Y78550012D01*
%TO.C,ROM_WRITE1*%
X21750000Y1790000D02*
X25810000Y1790000D01*
X25810000Y1790000D02*
X25810000Y3910000D01*
X21750000Y3910000D02*
X25810000Y3910000D01*
X19690000Y1790000D02*
X19690000Y2850000D01*
X20750000Y1790000D02*
X19690000Y1790000D01*
X21750000Y1790000D02*
X21750000Y3910000D01*
%TO.C,R28*%
X56265000Y4839564D02*
X56265000Y4385436D01*
X57735000Y4839564D02*
X57735000Y4385436D01*
%TO.C,R16*%
X37514564Y30465000D02*
X37060436Y30465000D01*
X37514564Y31935000D02*
X37060436Y31935000D01*
%TO.C,R13*%
X37514564Y38065000D02*
X37060436Y38065000D01*
X37514564Y39535000D02*
X37060436Y39535000D01*
%TO.C,CPU1*%
X65340005Y12035012D02*
X65340005Y62955012D01*
X53200005Y62955012D02*
X43060005Y62955012D01*
X65340005Y62955012D02*
X55200005Y62955012D01*
X43060005Y12035012D02*
X65340005Y12035012D01*
X43060005Y62955012D02*
X43060005Y12035012D01*
X53200005Y62955012D02*
G75*
G03*
X55200005Y62955012I1000000J0D01*
G01*
%TO.C,R32*%
X68817000Y89092064D02*
X68817000Y88637936D01*
X67347000Y89092064D02*
X67347000Y88637936D01*
%TO.C,R11*%
X9585000Y35692936D02*
X9585000Y36147064D01*
X8115000Y35692936D02*
X8115000Y36147064D01*
%TO.C,C8*%
X16503252Y96840000D02*
X15980748Y96840000D01*
X16503252Y95370000D02*
X15980748Y95370000D01*
%TO.C,C2*%
X35039219Y43135478D02*
X35039219Y42612974D01*
X36509219Y43135478D02*
X36509219Y42612974D01*
%TO.C,C9*%
X28315000Y95314998D02*
X28315000Y95837502D01*
X29785000Y95314998D02*
X29785000Y95837502D01*
%TO.C,R19*%
X37514564Y22765000D02*
X37060436Y22765000D01*
X37514564Y24235000D02*
X37060436Y24235000D01*
%TO.C,C21*%
X72135000Y61188748D02*
X72135000Y61711252D01*
X70665000Y61188748D02*
X70665000Y61711252D01*
%TO.C,REG2*%
X49960000Y90060000D02*
X49960000Y88800000D01*
X49960000Y83240000D02*
X49960000Y84500000D01*
X43950000Y90060000D02*
X49960000Y90060000D01*
X46200000Y83240000D02*
X49960000Y83240000D01*
%TO.C,PERIPHERAL1*%
X92140000Y53740000D02*
X96260000Y53740000D01*
X92140000Y68800000D02*
X92140000Y69860000D01*
X92140000Y67800000D02*
X92140000Y53740000D01*
X96260000Y69860000D02*
X96260000Y53740000D01*
X92140000Y69860000D02*
X93200000Y69860000D01*
X94200000Y67800000D02*
X94200000Y69860000D01*
X94200000Y69860000D02*
X96260000Y69860000D01*
X92140000Y67800000D02*
X94200000Y67800000D01*
D16*
%TO.C,SERC1*%
X7515000Y56850000D02*
X6240000Y56850000D01*
X7515000Y57425000D02*
X7515000Y56850000D01*
X7515000Y47075000D02*
X7515000Y47750000D01*
X17865000Y57425000D02*
X17865000Y56750000D01*
X17865000Y47075000D02*
X17865000Y47750000D01*
X17865000Y47075000D02*
X17190000Y47075000D01*
X7515000Y47075000D02*
X8190000Y47075000D01*
X7515000Y57425000D02*
X8190000Y57425000D01*
X17865000Y57425000D02*
X17190000Y57425000D01*
D11*
%TO.C,R34*%
X60817000Y89092064D02*
X60817000Y88637936D01*
X62287000Y89092064D02*
X62287000Y88637936D01*
%TO.C,PROG1*%
X73492000Y82245000D02*
X73492000Y83305000D01*
X73492000Y81245000D02*
X73492000Y73185000D01*
X73492000Y83305000D02*
X74552000Y83305000D01*
X73492000Y81245000D02*
X75612000Y81245000D01*
X73492000Y73185000D02*
X75612000Y73185000D01*
X75612000Y81245000D02*
X75612000Y73185000D01*
%TO.C,C16*%
X4688748Y12075000D02*
X5211252Y12075000D01*
X4688748Y13545000D02*
X5211252Y13545000D01*
%TO.C,C17*%
X19820748Y96840000D02*
X20343252Y96840000D01*
X19820748Y95370000D02*
X20343252Y95370000D01*
%TO.C,C3*%
X14275888Y77250000D02*
X14275888Y76043000D01*
X14595888Y77250000D02*
X14595888Y76255000D01*
X15195888Y79673000D02*
X15195888Y79330000D01*
X13394888Y77250000D02*
X13394888Y75740000D01*
X14155888Y77250000D02*
X14155888Y75980000D01*
X13354888Y80846000D02*
X13354888Y79330000D01*
X15235888Y77250000D02*
X15235888Y76971000D01*
X13074888Y80869000D02*
X13074888Y75711000D01*
X14755888Y77250000D02*
X14755888Y76389000D01*
X15595888Y78574000D02*
X15595888Y78006000D01*
X13354888Y77250000D02*
X13354888Y75734000D01*
X15555888Y78808000D02*
X15555888Y77772000D01*
X14235888Y77250000D02*
X14235888Y76022000D01*
X10440113Y80015000D02*
X10440113Y79515000D01*
X13514888Y77250000D02*
X13514888Y75762000D01*
X13274888Y80855000D02*
X13274888Y79330000D01*
X14435888Y80439000D02*
X14435888Y79330000D01*
X14035888Y80655000D02*
X14035888Y79330000D01*
X14715888Y77250000D02*
X14715888Y76353000D01*
X14555888Y77250000D02*
X14555888Y76225000D01*
X10190113Y79765000D02*
X10690113Y79765000D01*
X14595888Y80325000D02*
X14595888Y79330000D01*
X14675888Y77250000D02*
X14675888Y76319000D01*
X15275888Y77250000D02*
X15275888Y77039000D01*
X15115888Y77250000D02*
X15115888Y76790000D01*
X14115888Y77250000D02*
X14115888Y75961000D01*
X13955888Y80688000D02*
X13955888Y79330000D01*
X13875888Y80718000D02*
X13875888Y79330000D01*
X14195888Y77250000D02*
X14195888Y76000000D01*
X13554888Y80810000D02*
X13554888Y79330000D01*
X15275888Y79541000D02*
X15275888Y79330000D01*
X13434888Y77250000D02*
X13434888Y75747000D01*
X14395888Y77250000D02*
X14395888Y76115000D01*
X13995888Y80672000D02*
X13995888Y79330000D01*
X15035888Y79895000D02*
X15035888Y79330000D01*
X13274888Y77250000D02*
X13274888Y75725000D01*
X13674888Y80781000D02*
X13674888Y79330000D01*
X14835888Y80116000D02*
X14835888Y79330000D01*
X14755888Y80191000D02*
X14755888Y79330000D01*
X13474888Y77250000D02*
X13474888Y75754000D01*
X15475888Y79095000D02*
X15475888Y77485000D01*
X14675888Y80261000D02*
X14675888Y79330000D01*
X13114888Y80868000D02*
X13114888Y75712000D01*
X14075888Y77250000D02*
X14075888Y75942000D01*
X13674888Y77250000D02*
X13674888Y75799000D01*
X14275888Y80537000D02*
X14275888Y79330000D01*
X13715888Y80770000D02*
X13715888Y79330000D01*
X14195888Y80580000D02*
X14195888Y79330000D01*
X13594888Y80801000D02*
X13594888Y79330000D01*
X14955888Y79989000D02*
X14955888Y79330000D01*
X12994888Y80870000D02*
X12994888Y75710000D01*
X13234888Y80859000D02*
X13234888Y79330000D01*
X13394888Y80840000D02*
X13394888Y79330000D01*
X15195888Y77250000D02*
X15195888Y76907000D01*
X14035888Y77250000D02*
X14035888Y75925000D01*
X14235888Y80558000D02*
X14235888Y79330000D01*
X14475888Y77250000D02*
X14475888Y76168000D01*
X14955888Y77250000D02*
X14955888Y76591000D01*
X13795888Y80745000D02*
X13795888Y79330000D01*
X15075888Y79844000D02*
X15075888Y79330000D01*
X14315888Y80514000D02*
X14315888Y79330000D01*
X13594888Y77250000D02*
X13594888Y75779000D01*
X14315888Y77250000D02*
X14315888Y76066000D01*
X13875888Y77250000D02*
X13875888Y75862000D01*
X13955888Y77250000D02*
X13955888Y75892000D01*
X14635888Y77250000D02*
X14635888Y76286000D01*
X15355888Y79388000D02*
X15355888Y77192000D01*
X14555888Y80355000D02*
X14555888Y79330000D01*
X13995888Y77250000D02*
X13995888Y75908000D01*
X13314888Y77250000D02*
X13314888Y75729000D01*
X14835888Y77250000D02*
X14835888Y76464000D01*
X15435888Y79205000D02*
X15435888Y77375000D01*
X15075888Y77250000D02*
X15075888Y76736000D01*
X14795888Y77250000D02*
X14795888Y76426000D01*
X15035888Y77250000D02*
X15035888Y76685000D01*
X13835888Y80732000D02*
X13835888Y79330000D01*
X14355888Y77250000D02*
X14355888Y76090000D01*
X15315888Y79468000D02*
X15315888Y77112000D01*
X15235888Y79609000D02*
X15235888Y79330000D01*
X14475888Y80412000D02*
X14475888Y79330000D01*
X14915888Y77250000D02*
X14915888Y76547000D01*
X13755888Y77250000D02*
X13755888Y75822000D01*
X14915888Y80033000D02*
X14915888Y79330000D01*
X13154888Y80866000D02*
X13154888Y75714000D01*
X13434888Y80833000D02*
X13434888Y79330000D01*
X14395888Y80465000D02*
X14395888Y79330000D01*
X14515888Y77250000D02*
X14515888Y76195000D01*
X13034888Y80870000D02*
X13034888Y75710000D01*
X14995888Y79943000D02*
X14995888Y79330000D01*
X13634888Y80791000D02*
X13634888Y79330000D01*
X15515888Y78967000D02*
X15515888Y77613000D01*
X14355888Y80490000D02*
X14355888Y79330000D01*
X13795888Y77250000D02*
X13795888Y75835000D01*
X15395888Y79301000D02*
X15395888Y77279000D01*
X13234888Y77250000D02*
X13234888Y75721000D01*
X13554888Y77250000D02*
X13554888Y75770000D01*
X14875888Y80075000D02*
X14875888Y79330000D01*
X13634888Y77250000D02*
X13634888Y75789000D01*
X13514888Y80818000D02*
X13514888Y79330000D01*
X13194888Y80863000D02*
X13194888Y75717000D01*
X14795888Y80154000D02*
X14795888Y79330000D01*
X15115888Y79790000D02*
X15115888Y79330000D01*
X13915888Y80704000D02*
X13915888Y79330000D01*
X14715888Y80227000D02*
X14715888Y79330000D01*
X14635888Y80294000D02*
X14635888Y79330000D01*
X14435888Y77250000D02*
X14435888Y76141000D01*
X15155888Y77250000D02*
X15155888Y76847000D01*
X13835888Y77250000D02*
X13835888Y75848000D01*
X14515888Y80385000D02*
X14515888Y79330000D01*
X14115888Y80619000D02*
X14115888Y79330000D01*
X13755888Y80758000D02*
X13755888Y79330000D01*
X13915888Y77250000D02*
X13915888Y75876000D01*
X13314888Y80851000D02*
X13314888Y79330000D01*
X14075888Y80638000D02*
X14075888Y79330000D01*
X13474888Y80826000D02*
X13474888Y79330000D01*
X13715888Y77250000D02*
X13715888Y75810000D01*
X14155888Y80600000D02*
X14155888Y79330000D01*
X14875888Y77250000D02*
X14875888Y76505000D01*
X14995888Y77250000D02*
X14995888Y76637000D01*
X15155888Y79733000D02*
X15155888Y79330000D01*
X15614888Y78290000D02*
G75*
G03*
X15614888Y78290000I-2620000J0D01*
G01*
D16*
%TO.C,PRP1*%
X74725005Y52025012D02*
X74725005Y52700012D01*
X74725005Y52025012D02*
X75400005Y52025012D01*
X74725005Y62375012D02*
X74725005Y61700012D01*
X85075005Y52025012D02*
X84400005Y52025012D01*
X85075005Y62375012D02*
X84500005Y62375012D01*
X84500005Y62375012D02*
X84500005Y63650012D01*
X74725005Y62375012D02*
X75400005Y62375012D01*
X85075005Y52025012D02*
X85075005Y52700012D01*
X85075005Y62375012D02*
X85075005Y61700012D01*
D11*
%TO.C,R2*%
X16872936Y3035000D02*
X17327064Y3035000D01*
X16872936Y1565000D02*
X17327064Y1565000D01*
%TO.C,U1*%
X75560000Y18850000D02*
X75560000Y22450000D01*
X70340000Y18850000D02*
X70340000Y21050000D01*
X70340000Y18850000D02*
X70340000Y16650000D01*
X75560000Y18850000D02*
X75560000Y16650000D01*
%TO.C,D1*%
X19807500Y75570000D02*
X17122500Y75570000D01*
X19807500Y73650000D02*
X19807500Y75570000D01*
X17122500Y73650000D02*
X19807500Y73650000D01*
%TO.C,R18*%
X37514564Y26835000D02*
X37060436Y26835000D01*
X37514564Y25365000D02*
X37060436Y25365000D01*
%TO.C,R6*%
X14522064Y38345000D02*
X14067936Y38345000D01*
X14522064Y36875000D02*
X14067936Y36875000D01*
%TO.C,VGA1*%
X75100000Y99829669D02*
X75100000Y91229669D01*
X55050000Y90335331D02*
X55300000Y90768344D01*
X75100000Y91229669D02*
X44130000Y91229669D01*
X55550000Y90335331D02*
X55050000Y90335331D01*
X55300000Y90768344D02*
X55550000Y90335331D01*
X44130000Y91229669D02*
X44130000Y99829669D01*
%TO.C,R33*%
X63067000Y89092064D02*
X63067000Y88637936D01*
X64537000Y89092064D02*
X64537000Y88637936D01*
%TO.C,R15*%
X37514564Y34435000D02*
X37060436Y34435000D01*
X37514564Y32965000D02*
X37060436Y32965000D01*
%TO.C,R4*%
X60227000Y89092064D02*
X60227000Y88637936D01*
X58757000Y89092064D02*
X58757000Y88637936D01*
%TO.C,SPI1*%
X3160000Y48260000D02*
X1040000Y48260000D01*
X3160000Y46200000D02*
X2100000Y46200000D01*
X3160000Y48260000D02*
X3160000Y58320000D01*
X3160000Y58320000D02*
X1040000Y58320000D01*
X3160000Y47260000D02*
X3160000Y46200000D01*
X1040000Y48260000D02*
X1040000Y58320000D01*
%TO.C,C4*%
X37839219Y43135478D02*
X37839219Y42612974D01*
X39309219Y43135478D02*
X39309219Y42612974D01*
%TO.C,DEBUG1*%
X94200000Y46110000D02*
X96260000Y46110000D01*
X96260000Y46110000D02*
X96260000Y13990000D01*
X94200000Y44050000D02*
X94200000Y46110000D01*
X92140000Y45050000D02*
X92140000Y46110000D01*
X92140000Y44050000D02*
X94200000Y44050000D01*
X92140000Y46110000D02*
X93200000Y46110000D01*
X92140000Y44050000D02*
X92140000Y13990000D01*
X92140000Y13990000D02*
X96260000Y13990000D01*
%TO.C,U3*%
X22415000Y65077500D02*
X22415000Y67027500D01*
X22415000Y65077500D02*
X22415000Y61627500D01*
X31285000Y65077500D02*
X31285000Y63127500D01*
X31285000Y65077500D02*
X31285000Y67027500D01*
%TO.C,R27*%
X60035000Y4827064D02*
X60035000Y4372936D01*
X58565000Y4827064D02*
X58565000Y4372936D01*
%TO.C,R23*%
X37514564Y12565000D02*
X37060436Y12565000D01*
X37514564Y14035000D02*
X37060436Y14035000D01*
%TO.C,R24*%
X37514564Y11235000D02*
X37060436Y11235000D01*
X37514564Y9765000D02*
X37060436Y9765000D01*
D16*
%TO.C,USB1*%
X80725000Y73675000D02*
X81300000Y73675000D01*
X80725000Y79425000D02*
X81375000Y79425000D01*
X91375000Y79425000D02*
X90725000Y79425000D01*
X91375000Y73675000D02*
X90725000Y73675000D01*
X81300000Y73675000D02*
X81300000Y72075000D01*
X80725000Y73675000D02*
X80725000Y79425000D01*
X91375000Y73675000D02*
X91375000Y79425000D01*
D11*
%TO.C,C11*%
X45705471Y79935000D02*
X45182967Y79935000D01*
X45705471Y78465000D02*
X45182967Y78465000D01*
%TO.C,R17*%
X37514564Y29335000D02*
X37060436Y29335000D01*
X37514564Y27865000D02*
X37060436Y27865000D01*
%TO.C,R1*%
X69337000Y89092064D02*
X69337000Y88637936D01*
X70807000Y89092064D02*
X70807000Y88637936D01*
%TO.C,R9*%
X3615000Y35692936D02*
X3615000Y36147064D01*
X5085000Y35692936D02*
X5085000Y36147064D01*
%TO.C,R10*%
X5865000Y35692936D02*
X5865000Y36147064D01*
X7335000Y35692936D02*
X7335000Y36147064D01*
%TO.C,R35*%
X71056564Y82300000D02*
X70602436Y82300000D01*
X71056564Y80830000D02*
X70602436Y80830000D01*
%TO.C,R29*%
X18362064Y71465000D02*
X17907936Y71465000D01*
X18362064Y72935000D02*
X17907936Y72935000D01*
%TO.C,C6*%
X42979226Y88288748D02*
X42979226Y88811252D01*
X41509226Y88288748D02*
X41509226Y88811252D01*
%TO.C,C22*%
X78313252Y85500000D02*
X77790748Y85500000D01*
X78313252Y84030000D02*
X77790748Y84030000D01*
%TO.C,R25*%
X64635000Y4827064D02*
X64635000Y4372936D01*
X63165000Y4827064D02*
X63165000Y4372936D01*
%TO.C,C18*%
X35476248Y89111250D02*
X35998752Y89111250D01*
X35476248Y87641250D02*
X35998752Y87641250D01*
%TO.C,C13*%
X70568248Y78980000D02*
X71090752Y78980000D01*
X70568248Y77510000D02*
X71090752Y77510000D01*
%TO.C,C14*%
X70568248Y85530000D02*
X71090752Y85530000D01*
X70568248Y84060000D02*
X71090752Y84060000D01*
%TO.C,RAM1*%
X12610000Y33355000D02*
X12610000Y33110000D01*
X8750000Y15235000D02*
X12610000Y15235000D01*
X12610000Y15480000D02*
X14425000Y15480000D01*
X4890000Y15235000D02*
X4890000Y15480000D01*
X8750000Y33355000D02*
X12610000Y33355000D01*
X4890000Y33355000D02*
X4890000Y33110000D01*
X8750000Y33355000D02*
X4890000Y33355000D01*
X8750000Y15235000D02*
X4890000Y15235000D01*
X12610000Y15235000D02*
X12610000Y15480000D01*
D16*
%TO.C,VIDEO1*%
X56467000Y83430000D02*
X57142000Y83430000D01*
X66817000Y73080000D02*
X66142000Y73080000D01*
X57042000Y73080000D02*
X57042000Y71805000D01*
X66817000Y83430000D02*
X66142000Y83430000D01*
X56467000Y83430000D02*
X56467000Y82755000D01*
X56467000Y73080000D02*
X57042000Y73080000D01*
X66817000Y83430000D02*
X66817000Y82755000D01*
X66817000Y73080000D02*
X66817000Y73755000D01*
X56467000Y73080000D02*
X56467000Y73755000D01*
D11*
%TO.C,J1*%
X6020000Y86350000D02*
X3210000Y86350000D01*
X3210000Y86350000D02*
X3210000Y92410000D01*
X3210000Y96510000D02*
X3210000Y99570000D01*
X13430000Y92410000D02*
X13430000Y86350000D01*
X13430000Y86350000D02*
X10620000Y86350000D01*
X3210000Y99570000D02*
X13430000Y99570000D01*
X13430000Y99570000D02*
X13430000Y96510000D01*
X9320000Y86160000D02*
X7320000Y86160000D01*
%TO.C,STEP_SW1*%
X35000000Y70155774D02*
X39500000Y70155774D01*
X33750000Y74155774D02*
X33750000Y72655774D01*
X39500000Y76655774D02*
X35000000Y76655774D01*
X40750000Y72655774D02*
X40750000Y74155774D01*
%TO.C,REG1*%
X9200000Y77170000D02*
X3190000Y77170000D01*
X6950000Y83990000D02*
X3190000Y83990000D01*
X3190000Y83990000D02*
X3190000Y82730000D01*
X3190000Y77170000D02*
X3190000Y78430000D01*
%TO.C,R26*%
X60865000Y4827064D02*
X60865000Y4372936D01*
X62335000Y4827064D02*
X62335000Y4372936D01*
%TO.C,C7*%
X39365000Y88288748D02*
X39365000Y88811252D01*
X40835000Y88288748D02*
X40835000Y88811252D01*
%TO.C,R20*%
X37514564Y21635000D02*
X37060436Y21635000D01*
X37514564Y20165000D02*
X37060436Y20165000D01*
%TO.C,R3*%
X66557000Y89092064D02*
X66557000Y88637936D01*
X65087000Y89092064D02*
X65087000Y88637936D01*
%TO.C,R14*%
X37514564Y36935000D02*
X37060436Y36935000D01*
X37514564Y35465000D02*
X37060436Y35465000D01*
%TO.C,CS_SEL1*%
X31010000Y73266250D02*
X24890000Y73266250D01*
X28950000Y77386250D02*
X24890000Y77386250D01*
X28950000Y75326250D02*
X31010000Y75326250D01*
X29950000Y77386250D02*
X31010000Y77386250D01*
X28950000Y77386250D02*
X28950000Y75326250D01*
X24890000Y77386250D02*
X24890000Y73266250D01*
X31010000Y75326250D02*
X31010000Y73266250D01*
X31010000Y77386250D02*
X31010000Y76326250D01*
%TO.C,R8*%
X2807500Y35692936D02*
X2807500Y36147064D01*
X1337500Y35692936D02*
X1337500Y36147064D01*
%TO.C,U2*%
X28340000Y87826250D02*
X28340000Y84226250D01*
X33560000Y87826250D02*
X33560000Y85626250D01*
X28340000Y87826250D02*
X28340000Y90026250D01*
X33560000Y87826250D02*
X33560000Y90026250D01*
%TO.C,R21*%
X37514564Y17665000D02*
X37060436Y17665000D01*
X37514564Y19135000D02*
X37060436Y19135000D01*
%TO.C,R5*%
X14522064Y39255000D02*
X14067936Y39255000D01*
X14522064Y40725000D02*
X14067936Y40725000D01*
%TO.C,C12*%
X67850748Y71100000D02*
X68373252Y71100000D01*
X67850748Y69630000D02*
X68373252Y69630000D01*
%TO.C,R31*%
X35964564Y87011250D02*
X35510436Y87011250D01*
X35964564Y85541250D02*
X35510436Y85541250D01*
%TO.C,C10*%
X9878748Y44085000D02*
X10401252Y44085000D01*
X9878748Y42615000D02*
X10401252Y42615000D01*
%TO.C,C23*%
X54657000Y87373748D02*
X54657000Y87896252D01*
X56127000Y87373748D02*
X56127000Y87896252D01*
%TO.C,USB_P1*%
X78240000Y92190000D02*
X78240000Y100300000D01*
X92330000Y100300000D02*
X92330000Y100820000D01*
X78240000Y86600000D02*
X78240000Y88670000D01*
X91560000Y100300000D02*
X92330000Y100300000D01*
X91560000Y86600000D02*
X91560000Y88670000D01*
X87570000Y86610000D02*
X86750000Y86610000D01*
X85070000Y86610000D02*
X84730000Y86610000D01*
X80550000Y86600000D02*
X78240000Y86600000D01*
X77470000Y100820000D02*
X77470000Y100300000D01*
X91560000Y100300000D02*
X91560000Y92190000D01*
X89250000Y85310000D02*
X89250000Y86600000D01*
X83050000Y86610000D02*
X82230000Y86610000D01*
X92330000Y100820000D02*
X77470000Y100820000D01*
X77470000Y100300000D02*
X78240000Y100300000D01*
X91560000Y86600000D02*
X89250000Y86600000D01*
%TO.C,C1*%
X11488748Y82175000D02*
X12011252Y82175000D01*
X11488748Y83645000D02*
X12011252Y83645000D01*
%TO.C,R7*%
X14522064Y35915000D02*
X14067936Y35915000D01*
X14522064Y34445000D02*
X14067936Y34445000D01*
%TO.C,R12*%
X10367500Y35692936D02*
X10367500Y36147064D01*
X11837500Y35692936D02*
X11837500Y36147064D01*
%TO.C,C5*%
X41515000Y83711252D02*
X41515000Y83188748D01*
X42985000Y83711252D02*
X42985000Y83188748D01*
%TO.C,X1*%
X14570000Y93500000D02*
X14570000Y81350000D01*
X26720000Y94250000D02*
X15320000Y94250000D01*
X14570000Y81350000D02*
X26720000Y81350000D01*
X27470000Y82100000D02*
X27470000Y93500000D01*
X26720000Y81350000D02*
G75*
G03*
X27470000Y82100000I0J750000D01*
G01*
X27470000Y93500000D02*
G75*
G03*
X26720000Y94250000I-750000J0D01*
G01*
X15320000Y94250000D02*
G75*
G03*
X14570000Y93500000I0J-750000D01*
G01*
%TD*%
M02*
