%TF.GenerationSoftware,KiCad,Pcbnew,6.0.4-1.fc35*%
%TF.CreationDate,2022-04-29T14:23:32+05:30*%
%TF.ProjectId,8puter,38707574-6572-42e6-9b69-6361645f7063,rev?*%
%TF.SameCoordinates,PX63d9090PY80e2628*%
%TF.FileFunction,Paste,Top*%
%TF.FilePolarity,Positive*%
%FSLAX46Y46*%
G04 Gerber Fmt 4.6, Leading zero omitted, Abs format (unit mm)*
G04 Created by KiCad (PCBNEW 6.0.4-1.fc35) date 2022-04-29 14:23:32*
%MOMM*%
%LPD*%
G01*
G04 APERTURE LIST*
G04 Aperture macros list*
%AMRoundRect*
0 Rectangle with rounded corners*
0 $1 Rounding radius*
0 $2 $3 $4 $5 $6 $7 $8 $9 X,Y pos of 4 corners*
0 Add a 4 corners polygon primitive as box body*
4,1,4,$2,$3,$4,$5,$6,$7,$8,$9,$2,$3,0*
0 Add four circle primitives for the rounded corners*
1,1,$1+$1,$2,$3*
1,1,$1+$1,$4,$5*
1,1,$1+$1,$6,$7*
1,1,$1+$1,$8,$9*
0 Add four rect primitives between the rounded corners*
20,1,$1+$1,$2,$3,$4,$5,0*
20,1,$1+$1,$4,$5,$6,$7,0*
20,1,$1+$1,$6,$7,$8,$9,0*
20,1,$1+$1,$8,$9,$2,$3,0*%
G04 Aperture macros list end*
%TA.AperFunction,Profile*%
%ADD10C,0.050000*%
%TD*%
%ADD11RoundRect,0.250000X-0.250000X-0.475000X0.250000X-0.475000X0.250000X0.475000X-0.250000X0.475000X0*%
%ADD12RoundRect,0.250000X-0.262500X-0.450000X0.262500X-0.450000X0.262500X0.450000X-0.262500X0.450000X0*%
%ADD13RoundRect,0.250000X0.262500X0.450000X-0.262500X0.450000X-0.262500X-0.450000X0.262500X-0.450000X0*%
%ADD14R,1.100000X0.850000*%
%ADD15R,1.100000X0.750000*%
%ADD16R,1.000000X1.200000*%
%ADD17R,1.800000X1.170000*%
%ADD18R,1.350000X1.900000*%
%ADD19R,1.350000X1.550000*%
%ADD20RoundRect,0.150000X0.875000X0.150000X-0.875000X0.150000X-0.875000X-0.150000X0.875000X-0.150000X0*%
%ADD21R,1.000000X0.700000*%
%ADD22R,0.600000X0.700000*%
%ADD23RoundRect,0.250000X-0.450000X0.262500X-0.450000X-0.262500X0.450000X-0.262500X0.450000X0.262500X0*%
%ADD24RoundRect,0.250000X0.450000X-0.262500X0.450000X0.262500X-0.450000X0.262500X-0.450000X-0.262500X0*%
%ADD25RoundRect,0.250000X0.250000X0.475000X-0.250000X0.475000X-0.250000X-0.475000X0.250000X-0.475000X0*%
%ADD26RoundRect,0.250000X-0.475000X0.250000X-0.475000X-0.250000X0.475000X-0.250000X0.475000X0.250000X0*%
%ADD27RoundRect,0.250000X0.475000X-0.250000X0.475000X0.250000X-0.475000X0.250000X-0.475000X-0.250000X0*%
%ADD28R,2.000000X1.500000*%
%ADD29R,2.000000X3.800000*%
%ADD30R,1.500000X0.520000*%
%ADD31R,0.520000X1.500000*%
%ADD32RoundRect,0.100000X-0.100000X0.637500X-0.100000X-0.637500X0.100000X-0.637500X0.100000X0.637500X0*%
%ADD33RoundRect,0.243750X0.243750X0.456250X-0.243750X0.456250X-0.243750X-0.456250X0.243750X-0.456250X0*%
%ADD34RoundRect,0.150000X0.150000X-0.825000X0.150000X0.825000X-0.150000X0.825000X-0.150000X-0.825000X0*%
%ADD35R,0.450000X1.750000*%
%ADD36R,0.550000X1.500000*%
%ADD37R,1.500000X0.550000*%
%ADD38RoundRect,0.100000X0.100000X-0.637500X0.100000X0.637500X-0.100000X0.637500X-0.100000X-0.637500X0*%
%ADD39R,1.250000X3.000000*%
G04 APERTURE END LIST*
D10*
X100000000Y98000000D02*
X100000000Y2000000D01*
X2000000Y100000000D02*
G75*
G03*
X0Y98000000I0J-2000000D01*
G01*
X0Y2000000D02*
G75*
G03*
X2000000Y0I2000000J0D01*
G01*
X97985786Y0D02*
X2000000Y0D01*
X2000000Y100000000D02*
X98000000Y100000000D01*
X100000000Y98000000D02*
G75*
G03*
X98000000Y100000000I-2000000J0D01*
G01*
X0Y2000000D02*
X0Y98000000D01*
X97985786Y-50D02*
G75*
G03*
X100000000Y2000000I14J2014250D01*
G01*
D11*
%TO.C,C15*%
X19350000Y12830000D03*
X21250000Y12830000D03*
%TD*%
D12*
%TO.C,R30*%
X34825000Y84176250D03*
X36650000Y84176250D03*
%TD*%
D13*
%TO.C,R22*%
X38200000Y15800000D03*
X36375000Y15800000D03*
%TD*%
D14*
%TO.C,SDCARD1*%
X1315000Y64515000D03*
X1315000Y65615000D03*
X1315000Y66715000D03*
X1315000Y67815000D03*
X1315000Y68915000D03*
X1315000Y70015000D03*
X1315000Y71115000D03*
D15*
X1315000Y72165000D03*
D16*
X7465000Y61880000D03*
X11165000Y61880000D03*
D17*
X1665000Y73375000D03*
D18*
X12140000Y71350000D03*
D19*
X1440000Y62055000D03*
D18*
X12140000Y65380000D03*
%TD*%
D20*
%TO.C,ROM1*%
X28650000Y16045000D03*
X28650000Y17315000D03*
X28650000Y18585000D03*
X28650000Y19855000D03*
X28650000Y21125000D03*
X28650000Y22395000D03*
X28650000Y23665000D03*
X28650000Y24935000D03*
X28650000Y26205000D03*
X28650000Y27475000D03*
X28650000Y28745000D03*
X28650000Y30015000D03*
X28650000Y31285000D03*
X28650000Y32555000D03*
X19350000Y32555000D03*
X19350000Y31285000D03*
X19350000Y30015000D03*
X19350000Y28745000D03*
X19350000Y27475000D03*
X19350000Y26205000D03*
X19350000Y24935000D03*
X19350000Y23665000D03*
X19350000Y22395000D03*
X19350000Y21125000D03*
X19350000Y19855000D03*
X19350000Y18585000D03*
X19350000Y17315000D03*
X19350000Y16045000D03*
%TD*%
D21*
%TO.C,U6*%
X49450005Y78900012D03*
D22*
X51150005Y78900012D03*
X51150005Y80900012D03*
X49250005Y80900012D03*
%TD*%
D23*
%TO.C,R28*%
X57000000Y5525000D03*
X57000000Y3700000D03*
%TD*%
D13*
%TO.C,R16*%
X38200000Y31200000D03*
X36375000Y31200000D03*
%TD*%
%TO.C,R13*%
X38200000Y38800000D03*
X36375000Y38800000D03*
%TD*%
D23*
%TO.C,R32*%
X68082000Y87952500D03*
X68082000Y89777500D03*
%TD*%
D24*
%TO.C,R11*%
X8850000Y35007500D03*
X8850000Y36832500D03*
%TD*%
D25*
%TO.C,C8*%
X17192000Y96105000D03*
X15292000Y96105000D03*
%TD*%
D26*
%TO.C,C2*%
X35774219Y43824226D03*
X35774219Y41924226D03*
%TD*%
D27*
%TO.C,C9*%
X29050000Y94626250D03*
X29050000Y96526250D03*
%TD*%
D13*
%TO.C,R19*%
X38200000Y23500000D03*
X36375000Y23500000D03*
%TD*%
D27*
%TO.C,C21*%
X71400000Y60500000D03*
X71400000Y62400000D03*
%TD*%
D28*
%TO.C,REG2*%
X44900000Y88950000D03*
D29*
X51200000Y86650000D03*
D28*
X44900000Y86650000D03*
X44900000Y84350000D03*
%TD*%
D30*
%TO.C,SERC1*%
X6640000Y56250000D03*
X6640000Y55450000D03*
X6640000Y54650000D03*
X6640000Y53850000D03*
X6640000Y53050000D03*
X6640000Y52250000D03*
X6640000Y51450000D03*
X6640000Y50650000D03*
X6640000Y49850000D03*
X6640000Y49050000D03*
X6640000Y48250000D03*
D31*
X8690000Y46200000D03*
X9490000Y46200000D03*
X10290000Y46200000D03*
X11090000Y46200000D03*
X11890000Y46200000D03*
X12690000Y46200000D03*
X13490000Y46200000D03*
X14290000Y46200000D03*
X15090000Y46200000D03*
X15890000Y46200000D03*
X16690000Y46200000D03*
D30*
X18740000Y48250000D03*
X18740000Y49050000D03*
X18740000Y49850000D03*
X18740000Y50650000D03*
X18740000Y51450000D03*
X18740000Y52250000D03*
X18740000Y53050000D03*
X18740000Y53850000D03*
X18740000Y54650000D03*
X18740000Y55450000D03*
X18740000Y56250000D03*
D31*
X16690000Y58300000D03*
X15890000Y58300000D03*
X15090000Y58300000D03*
X14290000Y58300000D03*
X13490000Y58300000D03*
X12690000Y58300000D03*
X11890000Y58300000D03*
X11090000Y58300000D03*
X10290000Y58300000D03*
X9490000Y58300000D03*
X8690000Y58300000D03*
%TD*%
D23*
%TO.C,R34*%
X61552000Y87952500D03*
X61552000Y89777500D03*
%TD*%
D11*
%TO.C,C16*%
X4000000Y12810000D03*
X5900000Y12810000D03*
%TD*%
%TO.C,C17*%
X19132000Y96105000D03*
X21032000Y96105000D03*
%TD*%
D31*
%TO.C,PRP1*%
X83900005Y63250012D03*
X83100005Y63250012D03*
X82300005Y63250012D03*
X81500005Y63250012D03*
X80700005Y63250012D03*
X79900005Y63250012D03*
X79100005Y63250012D03*
X78300005Y63250012D03*
X77500005Y63250012D03*
X76700005Y63250012D03*
X75900005Y63250012D03*
D30*
X73850005Y61200012D03*
X73850005Y60400012D03*
X73850005Y59600012D03*
X73850005Y58800012D03*
X73850005Y58000012D03*
X73850005Y57200012D03*
X73850005Y56400012D03*
X73850005Y55600012D03*
X73850005Y54800012D03*
X73850005Y54000012D03*
X73850005Y53200012D03*
D31*
X75900005Y51150012D03*
X76700005Y51150012D03*
X77500005Y51150012D03*
X78300005Y51150012D03*
X79100005Y51150012D03*
X79900005Y51150012D03*
X80700005Y51150012D03*
X81500005Y51150012D03*
X82300005Y51150012D03*
X83100005Y51150012D03*
X83900005Y51150012D03*
D30*
X85950005Y53200012D03*
X85950005Y54000012D03*
X85950005Y54800012D03*
X85950005Y55600012D03*
X85950005Y56400012D03*
X85950005Y57200012D03*
X85950005Y58000012D03*
X85950005Y58800012D03*
X85950005Y59600012D03*
X85950005Y60400012D03*
X85950005Y61200012D03*
%TD*%
D12*
%TO.C,R2*%
X16187500Y2300000D03*
X18012500Y2300000D03*
%TD*%
D32*
%TO.C,U1*%
X74900000Y21712500D03*
X74250000Y21712500D03*
X73600000Y21712500D03*
X72950000Y21712500D03*
X72300000Y21712500D03*
X71650000Y21712500D03*
X71000000Y21712500D03*
X71000000Y15987500D03*
X71650000Y15987500D03*
X72300000Y15987500D03*
X72950000Y15987500D03*
X73600000Y15987500D03*
X74250000Y15987500D03*
X74900000Y15987500D03*
%TD*%
D33*
%TO.C,D1*%
X19060000Y74610000D03*
X17185000Y74610000D03*
%TD*%
D13*
%TO.C,R18*%
X38200000Y26100000D03*
X36375000Y26100000D03*
%TD*%
%TO.C,R6*%
X15207500Y37610000D03*
X13382500Y37610000D03*
%TD*%
D23*
%TO.C,R33*%
X63802000Y87952500D03*
X63802000Y89777500D03*
%TD*%
D13*
%TO.C,R15*%
X38200000Y33700000D03*
X36375000Y33700000D03*
%TD*%
D23*
%TO.C,R4*%
X59492000Y87952500D03*
X59492000Y89777500D03*
%TD*%
D26*
%TO.C,C4*%
X38574219Y43824226D03*
X38574219Y41924226D03*
%TD*%
D34*
%TO.C,U3*%
X23040000Y62602500D03*
X24310000Y62602500D03*
X25580000Y62602500D03*
X26850000Y62602500D03*
X28120000Y62602500D03*
X29390000Y62602500D03*
X30660000Y62602500D03*
X30660000Y67552500D03*
X29390000Y67552500D03*
X28120000Y67552500D03*
X26850000Y67552500D03*
X25580000Y67552500D03*
X24310000Y67552500D03*
X23040000Y67552500D03*
%TD*%
D23*
%TO.C,R27*%
X59300000Y5512500D03*
X59300000Y3687500D03*
%TD*%
D13*
%TO.C,R23*%
X38200000Y13300000D03*
X36375000Y13300000D03*
%TD*%
%TO.C,R24*%
X38200000Y10500000D03*
X36375000Y10500000D03*
%TD*%
D35*
%TO.C,USB1*%
X81825000Y72950000D03*
X82475000Y72950000D03*
X83125000Y72950000D03*
X83775000Y72950000D03*
X84425000Y72950000D03*
X85075000Y72950000D03*
X85725000Y72950000D03*
X86375000Y72950000D03*
X87025000Y72950000D03*
X87675000Y72950000D03*
X88325000Y72950000D03*
X88975000Y72950000D03*
X89625000Y72950000D03*
X90275000Y72950000D03*
X90275000Y80150000D03*
X89625000Y80150000D03*
X88975000Y80150000D03*
X88325000Y80150000D03*
X87675000Y80150000D03*
X87025000Y80150000D03*
X86375000Y80150000D03*
X85725000Y80150000D03*
X85075000Y80150000D03*
X84425000Y80150000D03*
X83775000Y80150000D03*
X83125000Y80150000D03*
X82475000Y80150000D03*
X81825000Y80150000D03*
%TD*%
D25*
%TO.C,C11*%
X46394219Y79200000D03*
X44494219Y79200000D03*
%TD*%
D13*
%TO.C,R17*%
X38200000Y28600000D03*
X36375000Y28600000D03*
%TD*%
D23*
%TO.C,R1*%
X70072000Y87952500D03*
X70072000Y89777500D03*
%TD*%
D24*
%TO.C,R9*%
X4350000Y35007500D03*
X4350000Y36832500D03*
%TD*%
%TO.C,R10*%
X6600000Y35007500D03*
X6600000Y36832500D03*
%TD*%
D13*
%TO.C,R35*%
X69917000Y81565000D03*
X71742000Y81565000D03*
%TD*%
%TO.C,R29*%
X19047500Y72200000D03*
X17222500Y72200000D03*
%TD*%
D27*
%TO.C,C6*%
X42244226Y87600000D03*
X42244226Y89500000D03*
%TD*%
D25*
%TO.C,C22*%
X79002000Y84765000D03*
X77102000Y84765000D03*
%TD*%
D23*
%TO.C,R25*%
X63900000Y5512500D03*
X63900000Y3687500D03*
%TD*%
D11*
%TO.C,C18*%
X34787500Y88376250D03*
X36687500Y88376250D03*
%TD*%
%TO.C,C13*%
X71779500Y78245000D03*
X69879500Y78245000D03*
%TD*%
%TO.C,C14*%
X71779500Y84795000D03*
X69879500Y84795000D03*
%TD*%
D20*
%TO.C,RAM1*%
X13400000Y16040000D03*
X13400000Y17310000D03*
X13400000Y18580000D03*
X13400000Y19850000D03*
X13400000Y21120000D03*
X13400000Y22390000D03*
X13400000Y23660000D03*
X13400000Y24930000D03*
X13400000Y26200000D03*
X13400000Y27470000D03*
X13400000Y28740000D03*
X13400000Y30010000D03*
X13400000Y31280000D03*
X13400000Y32550000D03*
X4100000Y32550000D03*
X4100000Y31280000D03*
X4100000Y30010000D03*
X4100000Y28740000D03*
X4100000Y27470000D03*
X4100000Y26200000D03*
X4100000Y24930000D03*
X4100000Y23660000D03*
X4100000Y22390000D03*
X4100000Y21120000D03*
X4100000Y19850000D03*
X4100000Y18580000D03*
X4100000Y17310000D03*
X4100000Y16040000D03*
%TD*%
D36*
%TO.C,VIDEO1*%
X57642000Y72555000D03*
X58442000Y72555000D03*
X59242000Y72555000D03*
X60042000Y72555000D03*
X60842000Y72555000D03*
X61642000Y72555000D03*
X62442000Y72555000D03*
X63242000Y72555000D03*
X64042000Y72555000D03*
X64842000Y72555000D03*
X65642000Y72555000D03*
D37*
X67342000Y74255000D03*
X67342000Y75055000D03*
X67342000Y75855000D03*
X67342000Y76655000D03*
X67342000Y77455000D03*
X67342000Y78255000D03*
X67342000Y79055000D03*
X67342000Y79855000D03*
X67342000Y80655000D03*
X67342000Y81455000D03*
X67342000Y82255000D03*
D36*
X65642000Y83955000D03*
X64842000Y83955000D03*
X64042000Y83955000D03*
X63242000Y83955000D03*
X62442000Y83955000D03*
X61642000Y83955000D03*
X60842000Y83955000D03*
X60042000Y83955000D03*
X59242000Y83955000D03*
X58442000Y83955000D03*
X57642000Y83955000D03*
D37*
X55942000Y82255000D03*
X55942000Y81455000D03*
X55942000Y80655000D03*
X55942000Y79855000D03*
X55942000Y79055000D03*
X55942000Y78255000D03*
X55942000Y77455000D03*
X55942000Y76655000D03*
X55942000Y75855000D03*
X55942000Y75055000D03*
X55942000Y74255000D03*
%TD*%
D28*
%TO.C,REG1*%
X8250000Y78280000D03*
D29*
X1950000Y80580000D03*
D28*
X8250000Y80580000D03*
X8250000Y82880000D03*
%TD*%
D23*
%TO.C,R26*%
X61600000Y5512500D03*
X61600000Y3687500D03*
%TD*%
D27*
%TO.C,C7*%
X40100000Y87600000D03*
X40100000Y89500000D03*
%TD*%
D13*
%TO.C,R20*%
X38200000Y20900000D03*
X36375000Y20900000D03*
%TD*%
D23*
%TO.C,R3*%
X65822000Y87952500D03*
X65822000Y89777500D03*
%TD*%
D13*
%TO.C,R14*%
X38200000Y36200000D03*
X36375000Y36200000D03*
%TD*%
D24*
%TO.C,R8*%
X2072500Y35007500D03*
X2072500Y36832500D03*
%TD*%
D38*
%TO.C,U2*%
X29000000Y84963750D03*
X29650000Y84963750D03*
X30300000Y84963750D03*
X30950000Y84963750D03*
X31600000Y84963750D03*
X32250000Y84963750D03*
X32900000Y84963750D03*
X32900000Y90688750D03*
X32250000Y90688750D03*
X31600000Y90688750D03*
X30950000Y90688750D03*
X30300000Y90688750D03*
X29650000Y90688750D03*
X29000000Y90688750D03*
%TD*%
D13*
%TO.C,R21*%
X38200000Y18400000D03*
X36375000Y18400000D03*
%TD*%
%TO.C,R5*%
X15207500Y39990000D03*
X13382500Y39990000D03*
%TD*%
D11*
%TO.C,C12*%
X67162000Y70365000D03*
X69062000Y70365000D03*
%TD*%
D13*
%TO.C,R31*%
X36650000Y86276250D03*
X34825000Y86276250D03*
%TD*%
D11*
%TO.C,C10*%
X9190000Y43350000D03*
X11090000Y43350000D03*
%TD*%
D27*
%TO.C,C23*%
X55392000Y86685000D03*
X55392000Y88585000D03*
%TD*%
D39*
%TO.C,USB_P1*%
X88400000Y86750000D03*
X85900000Y86750000D03*
X83900000Y86750000D03*
X81400000Y86750000D03*
%TD*%
D11*
%TO.C,C1*%
X10800000Y82910000D03*
X12700000Y82910000D03*
%TD*%
D13*
%TO.C,R7*%
X15207500Y35180000D03*
X13382500Y35180000D03*
%TD*%
D24*
%TO.C,R12*%
X11102500Y35007500D03*
X11102500Y36832500D03*
%TD*%
D26*
%TO.C,C5*%
X42250000Y84400000D03*
X42250000Y82500000D03*
%TD*%
M02*
