%TF.GenerationSoftware,KiCad,Pcbnew,6.0.4-1.fc35*%
%TF.CreationDate,2022-04-27T17:33:22+05:30*%
%TF.ProjectId,8puter,38707574-6572-42e6-9b69-6361645f7063,rev?*%
%TF.SameCoordinates,PX5496c90PY8113368*%
%TF.FileFunction,Plated,1,2,PTH,Mixed*%
%TF.FilePolarity,Positive*%
%FSLAX46Y46*%
G04 Gerber Fmt 4.6, Leading zero omitted, Abs format (unit mm)*
G04 Created by KiCad (PCBNEW 6.0.4-1.fc35) date 2022-04-27 17:33:22*
%MOMM*%
%LPD*%
G01*
G04 APERTURE LIST*
%TA.AperFunction,ViaDrill*%
%ADD10C,0.300000*%
%TD*%
%TA.AperFunction,ViaDrill*%
%ADD11C,0.400000*%
%TD*%
%TA.AperFunction,ComponentDrill*%
%ADD12C,0.800000*%
%TD*%
G04 aperture for slot hole*
%TA.AperFunction,ComponentDrill*%
%ADD13O,1.000000X2.500000*%
%TD*%
G04 aperture for slot hole*
%TA.AperFunction,ComponentDrill*%
%ADD14O,2.300000X1.000000*%
%TD*%
G04 aperture for slot hole*
%TA.AperFunction,ComponentDrill*%
%ADD15O,3.000000X1.000000*%
%TD*%
%TA.AperFunction,ComponentDrill*%
%ADD16C,1.000000*%
%TD*%
%TA.AperFunction,ComponentDrill*%
%ADD17C,1.100000*%
%TD*%
%TA.AperFunction,ComponentDrill*%
%ADD18C,2.300000*%
%TD*%
%TA.AperFunction,ComponentDrill*%
%ADD19C,3.200000*%
%TD*%
G04 APERTURE END LIST*
D10*
X2700000Y68800000D03*
X6800000Y7000000D03*
X7250000Y8350000D03*
X7700000Y72100000D03*
X8300000Y69895000D03*
X8900000Y67700000D03*
X9495000Y66595000D03*
X14000005Y7750012D03*
X14850005Y11200012D03*
X15700005Y10505012D03*
X16500005Y9200012D03*
X17150005Y9850012D03*
X18400000Y78000000D03*
X18400000Y73000000D03*
X22200000Y51200000D03*
X22700000Y76400000D03*
X24000000Y74425500D03*
X25250005Y6950012D03*
X25300000Y68600000D03*
X26100000Y68300000D03*
X26500000Y76400000D03*
X26700005Y5675500D03*
X28500000Y54250000D03*
X29250000Y50400000D03*
X30100000Y67300000D03*
X30100000Y55000000D03*
X30900000Y68800000D03*
X30900000Y51200000D03*
X31700000Y68200000D03*
X31700000Y65900000D03*
X31700000Y65000000D03*
X31700000Y64100000D03*
X31700000Y63100000D03*
X31700000Y61600000D03*
X31700000Y60100000D03*
X32500000Y67600000D03*
X32500000Y62400000D03*
X32500000Y60800000D03*
X32500000Y59500000D03*
X36400000Y65800000D03*
X37300000Y62400000D03*
X37500005Y7600012D03*
X38000000Y61600000D03*
X38150005Y11150012D03*
X38600000Y60800000D03*
X39000005Y10455012D03*
X39200000Y60100000D03*
X39800000Y59500000D03*
X39800005Y9150012D03*
X40300005Y64300000D03*
X40450005Y9800012D03*
X41000005Y63700000D03*
X41700000Y92900000D03*
X41700005Y63100000D03*
X44600000Y83200000D03*
X44800000Y88400000D03*
X46975500Y65800000D03*
X47100005Y8350012D03*
X47500000Y92900000D03*
X47500000Y67600000D03*
X47650005Y6950012D03*
X48100000Y68200000D03*
X48700000Y90800000D03*
X48700000Y68800000D03*
X50524219Y52524226D03*
X68300000Y83400000D03*
X68650000Y79100000D03*
X68650000Y69725000D03*
X68700000Y61825000D03*
X69500000Y74520000D03*
X69500000Y54224226D03*
X70150005Y21200012D03*
X70150005Y11150012D03*
X71545005Y18645012D03*
X71545005Y10455012D03*
X72700005Y64800012D03*
X72845005Y16105012D03*
X72850005Y9800012D03*
X73700005Y65400012D03*
X74000005Y13550012D03*
X74000005Y9150012D03*
X74700005Y66000012D03*
X75000000Y81300000D03*
X75600000Y8900000D03*
X75700005Y66600012D03*
X76500005Y67100012D03*
X76800005Y8400012D03*
X77500005Y67700012D03*
X77600000Y78900000D03*
X77650005Y7700012D03*
X77700000Y89000000D03*
X78199500Y81200000D03*
X78400005Y68400012D03*
X78500000Y79700000D03*
X79200005Y69000012D03*
X79900000Y7000000D03*
X80000005Y59300012D03*
X80350000Y75399500D03*
X80450000Y71950000D03*
X84200000Y86200000D03*
X85000000Y25000000D03*
X85750000Y63850000D03*
X87000000Y13950000D03*
X87200000Y54200000D03*
X87524219Y56600012D03*
X87650000Y20200000D03*
X87650000Y17700000D03*
X88300005Y57400012D03*
X89850005Y26250012D03*
X91850005Y28850012D03*
X92000000Y25400000D03*
X92100000Y5675489D03*
X92700000Y61000000D03*
X92700005Y31350012D03*
X92900000Y5100000D03*
X93500000Y60375500D03*
X93500005Y33900012D03*
X94300000Y59700000D03*
X94300005Y36450012D03*
X95100000Y59125500D03*
X95900000Y58551000D03*
X95900005Y38950012D03*
X96700005Y41500012D03*
X97500000Y57976500D03*
X97500005Y44050012D03*
X97850500Y71200000D03*
X98300000Y65500000D03*
X98300000Y57200000D03*
X98500000Y68200000D03*
X99100000Y69900000D03*
X99100000Y66400000D03*
X99900000Y67300000D03*
X99900005Y37700012D03*
X100400000Y84534126D03*
X100400000Y70600000D03*
X101100000Y77500000D03*
X101100000Y65500000D03*
X101400000Y84534126D03*
X101900000Y40300000D03*
X102075000Y10275000D03*
X102975500Y67300000D03*
X103000000Y42700000D03*
X103600000Y65300000D03*
X103675500Y78700000D03*
X103900000Y45300012D03*
X104224500Y68200000D03*
X104900000Y69100000D03*
X105450000Y19250000D03*
X105450000Y15650000D03*
X105600000Y84225000D03*
X105600000Y69900000D03*
X106050000Y16450000D03*
X106300000Y83600000D03*
X106300000Y70600000D03*
X107100000Y71200000D03*
X108100000Y73200000D03*
X113500000Y77500000D03*
X113650000Y46600000D03*
X114300000Y47300000D03*
D11*
X6100000Y71000000D03*
X6100000Y62900000D03*
X26900000Y53100000D03*
X27250000Y88700000D03*
X27250000Y87600000D03*
X30700000Y88700000D03*
X30700000Y87600000D03*
X49850000Y81300000D03*
X54150000Y81300000D03*
X87000000Y24250000D03*
X87400005Y59000012D03*
X90900000Y4200000D03*
X93000000Y24250000D03*
X95000000Y82500000D03*
X99600000Y56300000D03*
X99800000Y75200000D03*
X108900000Y8950000D03*
X108900000Y7850000D03*
X108900000Y6750000D03*
X114100000Y8950000D03*
X114100000Y7850000D03*
X114100000Y6750000D03*
D12*
%TO.C,SPI1*%
X5500000Y58100000D03*
%TO.C,C3*%
X7500000Y84100000D03*
X7500000Y81600000D03*
%TO.C,SPI1*%
X7500000Y58100000D03*
%TO.C,RAM1*%
X7660005Y47320012D03*
X7660005Y44780012D03*
X7660005Y42240012D03*
X7660005Y39700012D03*
X7660005Y37160012D03*
X7660005Y34620012D03*
X7660005Y32080012D03*
X7660005Y29540012D03*
X7660005Y27000012D03*
X7660005Y24460012D03*
X7660005Y21920012D03*
X7660005Y19380012D03*
X7660005Y16840012D03*
X7660005Y14300012D03*
%TO.C,SPI1*%
X9500000Y58100000D03*
X11500000Y58100000D03*
X13500000Y58100000D03*
X15500000Y58100000D03*
%TO.C,RAM1*%
X22900005Y47320012D03*
X22900005Y44780012D03*
X22900005Y42240012D03*
X22900005Y39700012D03*
X22900005Y37160012D03*
X22900005Y34620012D03*
X22900005Y32080012D03*
X22900005Y29540012D03*
X22900005Y27000012D03*
X22900005Y24460012D03*
X22900005Y21920012D03*
X22900005Y19380012D03*
X22900005Y16840012D03*
X22900005Y14300012D03*
%TO.C,ROM1*%
X29785005Y47295012D03*
X29785005Y44755012D03*
X29785005Y42215012D03*
X29785005Y39675012D03*
X29785005Y37135012D03*
X29785005Y34595012D03*
X29785005Y32055012D03*
X29785005Y29515012D03*
X29785005Y26975012D03*
X29785005Y24435012D03*
X29785005Y21895012D03*
X29785005Y19355012D03*
X29785005Y16815012D03*
X29785005Y14275012D03*
%TO.C,X1*%
X31690000Y91810000D03*
X31690000Y84190000D03*
X39310000Y91810000D03*
X39310000Y84190000D03*
%TO.C,CS_SEL1*%
X40500000Y76500000D03*
X40500000Y74500000D03*
X42500000Y76500000D03*
X42500000Y74500000D03*
X44500000Y76500000D03*
X44500000Y74500000D03*
%TO.C,ROM1*%
X45025005Y47295012D03*
X45025005Y44755012D03*
X45025005Y42215012D03*
X45025005Y39675012D03*
X45025005Y37135012D03*
X45025005Y34595012D03*
X45025005Y32055012D03*
X45025005Y29515012D03*
X45025005Y26975012D03*
X45025005Y24435012D03*
X45025005Y21895012D03*
X45025005Y19355012D03*
X45025005Y16815012D03*
X45025005Y14275012D03*
%TO.C,CPU1*%
X57500005Y61825012D03*
X57500005Y59285012D03*
X57500005Y56745012D03*
X57500005Y54205012D03*
X57500005Y51665012D03*
X57500005Y49125012D03*
X57500005Y46585012D03*
X57500005Y44045012D03*
X57500005Y41505012D03*
X57500005Y38965012D03*
X57500005Y36425012D03*
X57500005Y33885012D03*
X57500005Y31345012D03*
X57500005Y28805012D03*
X57500005Y26265012D03*
X57500005Y23725012D03*
X57500005Y21185012D03*
X57500005Y18645012D03*
X57500005Y16105012D03*
X57500005Y13565012D03*
X82900005Y61825012D03*
X82900005Y59285012D03*
X82900005Y56745012D03*
X82900005Y54205012D03*
X82900005Y51665012D03*
X82900005Y49125012D03*
X82900005Y46585012D03*
X82900005Y44045012D03*
X82900005Y41505012D03*
X82900005Y38965012D03*
X82900005Y36425012D03*
X82900005Y33885012D03*
X82900005Y31345012D03*
X82900005Y28805012D03*
X82900005Y26265012D03*
X82900005Y23725012D03*
X82900005Y21185012D03*
X82900005Y18645012D03*
X82900005Y16105012D03*
X82900005Y13565012D03*
%TO.C,SWD_H1*%
X86400000Y86300000D03*
X86400000Y84300000D03*
X86400000Y82300000D03*
X86400000Y80300000D03*
%TO.C,PERIPHERAL1*%
X109200000Y69000000D03*
X109200000Y67000000D03*
X109200000Y65000000D03*
X109200000Y63000000D03*
X109200000Y61000000D03*
X109200000Y59000000D03*
X109200000Y57000000D03*
X109200000Y55000000D03*
%TO.C,DEBUG1*%
X109200000Y45250000D03*
X109200000Y43250000D03*
X109200000Y41250000D03*
X109200000Y39250000D03*
X109200000Y37250000D03*
X109200000Y35250000D03*
X109200000Y33250000D03*
X109200000Y31250000D03*
X109200000Y29250000D03*
X109200000Y27250000D03*
X109200000Y25250000D03*
X109200000Y23250000D03*
X109200000Y21250000D03*
X109200000Y19250000D03*
X109200000Y17250000D03*
X109200000Y15250000D03*
%TO.C,PERIPHERAL1*%
X111200000Y69000000D03*
X111200000Y67000000D03*
X111200000Y65000000D03*
X111200000Y63000000D03*
X111200000Y61000000D03*
X111200000Y59000000D03*
X111200000Y57000000D03*
X111200000Y55000000D03*
%TO.C,DEBUG1*%
X111200000Y45250000D03*
X111200000Y43250000D03*
X111200000Y41250000D03*
X111200000Y39250000D03*
X111200000Y37250000D03*
X111200000Y35250000D03*
X111200000Y33250000D03*
X111200000Y31250000D03*
X111200000Y29250000D03*
X111200000Y27250000D03*
X111200000Y25250000D03*
X111200000Y23250000D03*
X111200000Y21250000D03*
X111200000Y19250000D03*
X111200000Y17250000D03*
X111200000Y15250000D03*
D13*
%TO.C,J1*%
X8400000Y94600000D03*
D14*
X12900000Y93600000D03*
D15*
X12900000Y87600000D03*
D13*
X17400000Y94600000D03*
D16*
%TO.C,VGA1*%
X70155000Y95079669D03*
X71300000Y97059669D03*
X71300000Y93099669D03*
X72445000Y95079669D03*
X73590000Y97059669D03*
X73590000Y93099669D03*
X74735000Y95079669D03*
X75880000Y97059669D03*
X75880000Y93099669D03*
X77025000Y95079669D03*
X78170000Y97059669D03*
X78170000Y93099669D03*
X79315000Y95079669D03*
X80460000Y97059669D03*
X80460000Y93099669D03*
D17*
%TO.C,STEP_SW1*%
X50000000Y76500000D03*
X50000000Y72000000D03*
X56500000Y76500000D03*
X56500000Y72000000D03*
%TO.C,RESET_SW1*%
X59894219Y76594226D03*
X59894219Y72094226D03*
X66394219Y76594226D03*
X66394219Y72094226D03*
D18*
%TO.C,USB_P1*%
X94330000Y90630000D03*
X107470000Y90630000D03*
D19*
%TO.C,VGA1*%
X63115000Y95149669D03*
X88115000Y95149669D03*
M02*
