%TF.GenerationSoftware,KiCad,Pcbnew,6.0.4-1.fc35*%
%TF.CreationDate,2022-04-22T01:22:06+05:30*%
%TF.ProjectId,8puter,38707574-6572-42e6-9b69-6361645f7063,rev?*%
%TF.SameCoordinates,PX5496c90PY8113368*%
%TF.FileFunction,Soldermask,Bot*%
%TF.FilePolarity,Negative*%
%FSLAX46Y46*%
G04 Gerber Fmt 4.6, Leading zero omitted, Abs format (unit mm)*
G04 Created by KiCad (PCBNEW 6.0.4-1.fc35) date 2022-04-22 01:22:06*
%MOMM*%
%LPD*%
G01*
G04 APERTURE LIST*
G04 Aperture macros list*
%AMRoundRect*
0 Rectangle with rounded corners*
0 $1 Rounding radius*
0 $2 $3 $4 $5 $6 $7 $8 $9 X,Y pos of 4 corners*
0 Add a 4 corners polygon primitive as box body*
4,1,4,$2,$3,$4,$5,$6,$7,$8,$9,$2,$3,0*
0 Add four circle primitives for the rounded corners*
1,1,$1+$1,$2,$3*
1,1,$1+$1,$4,$5*
1,1,$1+$1,$6,$7*
1,1,$1+$1,$8,$9*
0 Add four rect primitives between the rounded corners*
20,1,$1+$1,$2,$3,$4,$5,0*
20,1,$1+$1,$4,$5,$6,$7,0*
20,1,$1+$1,$6,$7,$8,$9,0*
20,1,$1+$1,$8,$9,$2,$3,0*%
G04 Aperture macros list end*
%ADD10RoundRect,0.050000X0.675000X0.675000X-0.675000X0.675000X-0.675000X-0.675000X0.675000X-0.675000X0*%
%ADD11O,1.450000X1.450000*%
%ADD12C,2.100000*%
%ADD13RoundRect,0.050000X1.200000X0.800000X-1.200000X0.800000X-1.200000X-0.800000X1.200000X-0.800000X0*%
%ADD14O,2.500000X1.700000*%
%ADD15RoundRect,0.050000X-1.200000X-0.800000X1.200000X-0.800000X1.200000X0.800000X-1.200000X0.800000X0*%
%ADD16RoundRect,0.050000X-0.850000X-0.850000X0.850000X-0.850000X0.850000X0.850000X-0.850000X0.850000X0*%
%ADD17O,1.800000X1.800000*%
%ADD18RoundRect,0.050000X-0.675000X-0.675000X0.675000X-0.675000X0.675000X0.675000X-0.675000X0.675000X0*%
%ADD19C,1.500000*%
%ADD20O,1.500000X1.500000*%
%ADD21RoundRect,0.050000X-0.800000X0.800000X-0.800000X-0.800000X0.800000X-0.800000X0.800000X0.800000X0*%
%ADD22C,1.700000*%
%ADD23RoundRect,0.050000X0.800000X0.800000X-0.800000X0.800000X-0.800000X-0.800000X0.800000X-0.800000X0*%
%ADD24C,4.100000*%
%ADD25O,2.100000X3.600000*%
%ADD26O,3.400000X2.100000*%
%ADD27RoundRect,0.050000X2.000000X1.000000X-2.000000X1.000000X-2.000000X-1.000000X2.000000X-1.000000X0*%
%ADD28RoundRect,0.050000X-0.675000X0.675000X-0.675000X-0.675000X0.675000X-0.675000X0.675000X0.675000X0*%
%ADD29C,3.100000*%
%ADD30C,1.600000*%
%ADD31RoundRect,0.050000X-0.800000X-0.800000X0.800000X-0.800000X0.800000X0.800000X-0.800000X0.800000X0*%
G04 APERTURE END LIST*
D10*
%TO.C,JTAG1*%
X95900000Y15900000D03*
D11*
X95900000Y17900000D03*
X95900000Y19900000D03*
X95900000Y21900000D03*
X95900000Y23900000D03*
%TD*%
D12*
%TO.C,RESET_SW1*%
X66394219Y72094226D03*
X59894219Y72094226D03*
X66394219Y76594226D03*
X59894219Y76594226D03*
%TD*%
D13*
%TO.C,ROM1*%
X45025005Y14275012D03*
D14*
X45025005Y16815012D03*
X45025005Y19355012D03*
X45025005Y21895012D03*
X45025005Y24435012D03*
X45025005Y26975012D03*
X45025005Y29515012D03*
X45025005Y32055012D03*
X45025005Y34595012D03*
X45025005Y37135012D03*
X45025005Y39675012D03*
X45025005Y42215012D03*
X45025005Y44755012D03*
X45025005Y47295012D03*
X29785005Y47295012D03*
X29785005Y44755012D03*
X29785005Y42215012D03*
X29785005Y39675012D03*
X29785005Y37135012D03*
X29785005Y34595012D03*
X29785005Y32055012D03*
X29785005Y29515012D03*
X29785005Y26975012D03*
X29785005Y24435012D03*
X29785005Y21895012D03*
X29785005Y19355012D03*
X29785005Y16815012D03*
X29785005Y14275012D03*
%TD*%
D15*
%TO.C,CPU1*%
X57500005Y61825012D03*
D14*
X57500005Y59285012D03*
X57500005Y56745012D03*
X57500005Y54205012D03*
X57500005Y51665012D03*
X57500005Y49125012D03*
X57500005Y46585012D03*
X57500005Y44045012D03*
X57500005Y41505012D03*
X57500005Y38965012D03*
X57500005Y36425012D03*
X57500005Y33885012D03*
X57500005Y31345012D03*
X57500005Y28805012D03*
X57500005Y26265012D03*
X57500005Y23725012D03*
X57500005Y21185012D03*
X57500005Y18645012D03*
X57500005Y16105012D03*
X57500005Y13565012D03*
X82900005Y13565012D03*
X82900005Y16105012D03*
X82900005Y18645012D03*
X82900005Y21185012D03*
X82900005Y23725012D03*
X82900005Y26265012D03*
X82900005Y28805012D03*
X82900005Y31345012D03*
X82900005Y33885012D03*
X82900005Y36425012D03*
X82900005Y38965012D03*
X82900005Y41505012D03*
X82900005Y44045012D03*
X82900005Y46585012D03*
X82900005Y49125012D03*
X82900005Y51665012D03*
X82900005Y54205012D03*
X82900005Y56745012D03*
X82900005Y59285012D03*
X82900005Y61825012D03*
%TD*%
D16*
%TO.C,SERIAL1*%
X6825000Y74975000D03*
D17*
X9365000Y74975000D03*
X6825000Y72435000D03*
X9365000Y72435000D03*
X6825000Y69895000D03*
X9365000Y69895000D03*
X6825000Y67355000D03*
X9365000Y67355000D03*
X6825000Y64815000D03*
X9365000Y64815000D03*
%TD*%
D18*
%TO.C,PERIPHERAL1*%
X109200000Y69000000D03*
D11*
X111200000Y69000000D03*
X109200000Y67000000D03*
X111200000Y67000000D03*
X109200000Y65000000D03*
X111200000Y65000000D03*
X109200000Y63000000D03*
X111200000Y63000000D03*
X109200000Y61000000D03*
X111200000Y61000000D03*
X109200000Y59000000D03*
X111200000Y59000000D03*
X109200000Y57000000D03*
X111200000Y57000000D03*
X109200000Y55000000D03*
X111200000Y55000000D03*
%TD*%
D19*
%TO.C,R4*%
X27710000Y59900000D03*
D20*
X20090000Y59900000D03*
%TD*%
D21*
%TO.C,C3*%
X7500000Y84100000D03*
D22*
X7500000Y81600000D03*
%TD*%
%TO.C,VGA1*%
X80460000Y97059669D03*
X78170000Y97059669D03*
X75880000Y97059669D03*
X73590000Y97059669D03*
X71300000Y97059669D03*
X79315000Y95079669D03*
X77025000Y95079669D03*
X74735000Y95079669D03*
X72445000Y95079669D03*
X70155000Y95079669D03*
X80460000Y93099669D03*
X78170000Y93099669D03*
X75880000Y93099669D03*
X73590000Y93099669D03*
D23*
X71300000Y93099669D03*
D24*
X63115000Y95149669D03*
X88115000Y95149669D03*
%TD*%
D18*
%TO.C,DEBUG1*%
X109200000Y45250000D03*
D11*
X111200000Y45250000D03*
X109200000Y43250000D03*
X111200000Y43250000D03*
X109200000Y41250000D03*
X111200000Y41250000D03*
X109200000Y39250000D03*
X111200000Y39250000D03*
X109200000Y37250000D03*
X111200000Y37250000D03*
X109200000Y35250000D03*
X111200000Y35250000D03*
X109200000Y33250000D03*
X111200000Y33250000D03*
X109200000Y31250000D03*
X111200000Y31250000D03*
X109200000Y29250000D03*
X111200000Y29250000D03*
X109200000Y27250000D03*
X111200000Y27250000D03*
X109200000Y25250000D03*
X111200000Y25250000D03*
X109200000Y23250000D03*
X111200000Y23250000D03*
X109200000Y21250000D03*
X111200000Y21250000D03*
X109200000Y19250000D03*
X111200000Y19250000D03*
X109200000Y17250000D03*
X111200000Y17250000D03*
X109200000Y15250000D03*
X111200000Y15250000D03*
%TD*%
D18*
%TO.C,SWD_H1*%
X86400000Y86300000D03*
D11*
X86400000Y84300000D03*
X86400000Y82300000D03*
X86400000Y80300000D03*
%TD*%
D13*
%TO.C,RAM1*%
X22900005Y14300012D03*
D14*
X22900005Y16840012D03*
X22900005Y19380012D03*
X22900005Y21920012D03*
X22900005Y24460012D03*
X22900005Y27000012D03*
X22900005Y29540012D03*
X22900005Y32080012D03*
X22900005Y34620012D03*
X22900005Y37160012D03*
X22900005Y39700012D03*
X22900005Y42240012D03*
X22900005Y44780012D03*
X22900005Y47320012D03*
X7660005Y47320012D03*
X7660005Y44780012D03*
X7660005Y42240012D03*
X7660005Y39700012D03*
X7660005Y37160012D03*
X7660005Y34620012D03*
X7660005Y32080012D03*
X7660005Y29540012D03*
X7660005Y27000012D03*
X7660005Y24460012D03*
X7660005Y21920012D03*
X7660005Y19380012D03*
X7660005Y16840012D03*
X7660005Y14300012D03*
%TD*%
D25*
%TO.C,J1*%
X8400000Y94600000D03*
X17400000Y94600000D03*
D26*
X12900000Y93600000D03*
D27*
X12900000Y87600000D03*
D22*
X12900000Y96600000D03*
%TD*%
D12*
%TO.C,STEP_SW1*%
X56500000Y76500000D03*
X50000000Y76500000D03*
X50000000Y72000000D03*
X56500000Y72000000D03*
%TD*%
D28*
%TO.C,CS_SEL1*%
X44500000Y76500000D03*
D11*
X44500000Y74500000D03*
X42500000Y76500000D03*
X42500000Y74500000D03*
X40500000Y76500000D03*
X40500000Y74500000D03*
%TD*%
D29*
%TO.C,USB_P1*%
X94330000Y90630000D03*
X107470000Y90630000D03*
%TD*%
D30*
%TO.C,Y1*%
X22850000Y55800000D03*
X27730000Y55800000D03*
%TD*%
D31*
%TO.C,X1*%
X31690000Y84190000D03*
D22*
X39310000Y84190000D03*
X39310000Y91810000D03*
X31690000Y91810000D03*
%TD*%
M02*
