%FSLAX45Y45*%
G04 Gerber Fmt 4.5, Leading zero omitted, Abs format (unit mm)*
G04 Created by KiCad (PCBNEW 6.0.4-1.fc35) date 2022-04-29 14:23:34*
%MOMM*%
%LPD*%
G01*
G04 APERTURE LIST*
%TA.AperFunction,Profile*%
%ADD10C,0.050000*%
%TD*%
%ADD11C,0.200000*%
%ADD12C,0.160000*%
G04 APERTURE END LIST*
D10*
X10000000Y9800000D02*
X10000000Y200000D01*
X200000Y10000000D02*
G75*
G03*
X0Y9800000I0J-200000D01*
G01*
X0Y200000D02*
G75*
G03*
X200000Y0I200000J0D01*
G01*
X9798579Y0D02*
X200000Y0D01*
X200000Y10000000D02*
X9800000Y10000000D01*
X10000000Y9800000D02*
G75*
G03*
X9800000Y10000000I-200000J0D01*
G01*
X0Y200000D02*
X0Y9800000D01*
X9798579Y-5D02*
G75*
G03*
X10000000Y200000I1J201425D01*
G01*
D11*
D12*
X752000Y9726000D02*
X912000Y9566000D01*
X912000Y9726000D02*
X752000Y9566000D01*
D11*
X255119Y-312976D02*
X255119Y-112976D01*
X302738Y-112976D01*
X331310Y-122500D01*
X350357Y-141548D01*
X359881Y-160595D01*
X369405Y-198690D01*
X369405Y-227262D01*
X359881Y-265357D01*
X350357Y-284405D01*
X331310Y-303452D01*
X302738Y-312976D01*
X255119Y-312976D01*
X455119Y-312976D02*
X455119Y-179643D01*
X455119Y-217738D02*
X464643Y-198690D01*
X474167Y-189167D01*
X493214Y-179643D01*
X512262Y-179643D01*
X578929Y-312976D02*
X578929Y-179643D01*
X578929Y-112976D02*
X569405Y-122500D01*
X578929Y-132024D01*
X588452Y-122500D01*
X578929Y-112976D01*
X578929Y-132024D01*
X702738Y-312976D02*
X683690Y-303452D01*
X674167Y-284405D01*
X674167Y-112976D01*
X807500Y-312976D02*
X788452Y-303452D01*
X778928Y-284405D01*
X778928Y-112976D01*
X1036071Y-312976D02*
X1036071Y-112976D01*
X1102738Y-255833D01*
X1169405Y-112976D01*
X1169405Y-312976D01*
X1350357Y-312976D02*
X1350357Y-208214D01*
X1340833Y-189167D01*
X1321786Y-179643D01*
X1283690Y-179643D01*
X1264643Y-189167D01*
X1350357Y-303452D02*
X1331310Y-312976D01*
X1283690Y-312976D01*
X1264643Y-303452D01*
X1255119Y-284405D01*
X1255119Y-265357D01*
X1264643Y-246309D01*
X1283690Y-236786D01*
X1331310Y-236786D01*
X1350357Y-227262D01*
X1445595Y-179643D02*
X1445595Y-379643D01*
X1445595Y-189167D02*
X1464643Y-179643D01*
X1502738Y-179643D01*
X1521786Y-189167D01*
X1531309Y-198690D01*
X1540833Y-217738D01*
X1540833Y-274881D01*
X1531309Y-293929D01*
X1521786Y-303452D01*
X1502738Y-312976D01*
X1464643Y-312976D01*
X1445595Y-303452D01*
X1626548Y-293929D02*
X1636071Y-303452D01*
X1626548Y-312976D01*
X1617024Y-303452D01*
X1626548Y-293929D01*
X1626548Y-312976D01*
X1626548Y-189167D02*
X1636071Y-198690D01*
X1626548Y-208214D01*
X1617024Y-198690D01*
X1626548Y-189167D01*
X1626548Y-208214D01*
D12*
X-162500Y-562500D02*
X-2500Y-722500D01*
X-2500Y-562500D02*
X-162500Y-722500D01*
D11*
X359881Y-732976D02*
X245595Y-732976D01*
X302738Y-732976D02*
X302738Y-532976D01*
X283690Y-561548D01*
X264643Y-580595D01*
X245595Y-590119D01*
X445595Y-713928D02*
X455119Y-723452D01*
X445595Y-732976D01*
X436071Y-723452D01*
X445595Y-713928D01*
X445595Y-732976D01*
X626548Y-532976D02*
X588452Y-532976D01*
X569405Y-542500D01*
X559881Y-552024D01*
X540833Y-580595D01*
X531310Y-618690D01*
X531310Y-694881D01*
X540833Y-713928D01*
X550357Y-723452D01*
X569405Y-732976D01*
X607500Y-732976D01*
X626548Y-723452D01*
X636071Y-713928D01*
X645595Y-694881D01*
X645595Y-647262D01*
X636071Y-628214D01*
X626548Y-618690D01*
X607500Y-609167D01*
X569405Y-609167D01*
X550357Y-618690D01*
X540833Y-628214D01*
X531310Y-647262D01*
X769405Y-532976D02*
X788452Y-532976D01*
X807500Y-542500D01*
X817024Y-552024D01*
X826548Y-571071D01*
X836071Y-609167D01*
X836071Y-656786D01*
X826548Y-694881D01*
X817024Y-713928D01*
X807500Y-723452D01*
X788452Y-732976D01*
X769405Y-732976D01*
X750357Y-723452D01*
X740833Y-713928D01*
X731309Y-694881D01*
X721786Y-656786D01*
X721786Y-609167D01*
X731309Y-571071D01*
X740833Y-552024D01*
X750357Y-542500D01*
X769405Y-532976D01*
X959881Y-532976D02*
X978928Y-532976D01*
X997976Y-542500D01*
X1007500Y-552024D01*
X1017024Y-571071D01*
X1026548Y-609167D01*
X1026548Y-656786D01*
X1017024Y-694881D01*
X1007500Y-713928D01*
X997976Y-723452D01*
X978928Y-732976D01*
X959881Y-732976D01*
X940833Y-723452D01*
X931309Y-713928D01*
X921786Y-694881D01*
X912262Y-656786D01*
X912262Y-609167D01*
X921786Y-571071D01*
X931309Y-552024D01*
X940833Y-542500D01*
X959881Y-532976D01*
X1112262Y-732976D02*
X1112262Y-599643D01*
X1112262Y-618690D02*
X1121786Y-609167D01*
X1140833Y-599643D01*
X1169405Y-599643D01*
X1188452Y-609167D01*
X1197976Y-628214D01*
X1197976Y-732976D01*
X1197976Y-628214D02*
X1207500Y-609167D01*
X1226548Y-599643D01*
X1255119Y-599643D01*
X1274167Y-609167D01*
X1283690Y-628214D01*
X1283690Y-732976D01*
X1378929Y-732976D02*
X1378929Y-599643D01*
X1378929Y-618690D02*
X1388452Y-609167D01*
X1407500Y-599643D01*
X1436071Y-599643D01*
X1455119Y-609167D01*
X1464643Y-628214D01*
X1464643Y-732976D01*
X1464643Y-628214D02*
X1474167Y-609167D01*
X1493214Y-599643D01*
X1521786Y-599643D01*
X1540833Y-609167D01*
X1550357Y-628214D01*
X1550357Y-732976D01*
X1940833Y-523452D02*
X1769405Y-780595D01*
X2197976Y-532976D02*
X2217024Y-532976D01*
X2236071Y-542500D01*
X2245595Y-552024D01*
X2255119Y-571071D01*
X2264643Y-609167D01*
X2264643Y-656786D01*
X2255119Y-694881D01*
X2245595Y-713928D01*
X2236071Y-723452D01*
X2217024Y-732976D01*
X2197976Y-732976D01*
X2178929Y-723452D01*
X2169405Y-713928D01*
X2159881Y-694881D01*
X2150357Y-656786D01*
X2150357Y-609167D01*
X2159881Y-571071D01*
X2169405Y-552024D01*
X2178929Y-542500D01*
X2197976Y-532976D01*
X2350357Y-713928D02*
X2359881Y-723452D01*
X2350357Y-732976D01*
X2340833Y-723452D01*
X2350357Y-713928D01*
X2350357Y-732976D01*
X2483690Y-532976D02*
X2502738Y-532976D01*
X2521786Y-542500D01*
X2531310Y-552024D01*
X2540833Y-571071D01*
X2550357Y-609167D01*
X2550357Y-656786D01*
X2540833Y-694881D01*
X2531310Y-713928D01*
X2521786Y-723452D01*
X2502738Y-732976D01*
X2483690Y-732976D01*
X2464643Y-723452D01*
X2455119Y-713928D01*
X2445595Y-694881D01*
X2436071Y-656786D01*
X2436071Y-609167D01*
X2445595Y-571071D01*
X2455119Y-552024D01*
X2464643Y-542500D01*
X2483690Y-532976D01*
X2721786Y-532976D02*
X2683690Y-532976D01*
X2664643Y-542500D01*
X2655119Y-552024D01*
X2636071Y-580595D01*
X2626548Y-618690D01*
X2626548Y-694881D01*
X2636071Y-713928D01*
X2645595Y-723452D01*
X2664643Y-732976D01*
X2702738Y-732976D01*
X2721786Y-723452D01*
X2731310Y-713928D01*
X2740833Y-694881D01*
X2740833Y-647262D01*
X2731310Y-628214D01*
X2721786Y-618690D01*
X2702738Y-609167D01*
X2664643Y-609167D01*
X2645595Y-618690D01*
X2636071Y-628214D01*
X2626548Y-647262D01*
X2807500Y-532976D02*
X2931309Y-532976D01*
X2864643Y-609167D01*
X2893214Y-609167D01*
X2912262Y-618690D01*
X2921786Y-628214D01*
X2931309Y-647262D01*
X2931309Y-694881D01*
X2921786Y-713928D01*
X2912262Y-723452D01*
X2893214Y-732976D01*
X2836071Y-732976D01*
X2817024Y-723452D01*
X2807500Y-713928D01*
X3055119Y-532976D02*
X3074167Y-532976D01*
X3093214Y-542500D01*
X3102738Y-552024D01*
X3112262Y-571071D01*
X3121786Y-609167D01*
X3121786Y-656786D01*
X3112262Y-694881D01*
X3102738Y-713928D01*
X3093214Y-723452D01*
X3074167Y-732976D01*
X3055119Y-732976D01*
X3036071Y-723452D01*
X3026548Y-713928D01*
X3017024Y-694881D01*
X3007500Y-656786D01*
X3007500Y-609167D01*
X3017024Y-571071D01*
X3026548Y-552024D01*
X3036071Y-542500D01*
X3055119Y-532976D01*
X3197976Y-532976D02*
X3197976Y-571071D01*
X3274167Y-532976D02*
X3274167Y-571071D01*
X3569405Y-809167D02*
X3559881Y-799643D01*
X3540833Y-771071D01*
X3531309Y-752024D01*
X3521786Y-723452D01*
X3512262Y-675833D01*
X3512262Y-637738D01*
X3521786Y-590119D01*
X3531309Y-561548D01*
X3540833Y-542500D01*
X3559881Y-513928D01*
X3569405Y-504405D01*
X3750357Y-732976D02*
X3636071Y-732976D01*
X3693214Y-732976D02*
X3693214Y-532976D01*
X3674167Y-561548D01*
X3655119Y-580595D01*
X3636071Y-590119D01*
X3988452Y-732976D02*
X3988452Y-532976D01*
X4074167Y-732976D02*
X4074167Y-628214D01*
X4064643Y-609167D01*
X4045595Y-599643D01*
X4017024Y-599643D01*
X3997976Y-609167D01*
X3988452Y-618690D01*
X4197976Y-732976D02*
X4178928Y-723452D01*
X4169405Y-713928D01*
X4159881Y-694881D01*
X4159881Y-637738D01*
X4169405Y-618690D01*
X4178928Y-609167D01*
X4197976Y-599643D01*
X4226548Y-599643D01*
X4245595Y-609167D01*
X4255119Y-618690D01*
X4264643Y-637738D01*
X4264643Y-694881D01*
X4255119Y-713928D01*
X4245595Y-723452D01*
X4226548Y-732976D01*
X4197976Y-732976D01*
X4378929Y-732976D02*
X4359881Y-723452D01*
X4350357Y-704405D01*
X4350357Y-532976D01*
X4531310Y-723452D02*
X4512262Y-732976D01*
X4474167Y-732976D01*
X4455119Y-723452D01*
X4445595Y-704405D01*
X4445595Y-628214D01*
X4455119Y-609167D01*
X4474167Y-599643D01*
X4512262Y-599643D01*
X4531310Y-609167D01*
X4540833Y-628214D01*
X4540833Y-647262D01*
X4445595Y-666310D01*
X4607500Y-809167D02*
X4617024Y-799643D01*
X4636071Y-771071D01*
X4645595Y-752024D01*
X4655119Y-723452D01*
X4664643Y-675833D01*
X4664643Y-637738D01*
X4655119Y-590119D01*
X4645595Y-561548D01*
X4636071Y-542500D01*
X4617024Y-513928D01*
X4607500Y-504405D01*
X4969405Y-809167D02*
X4959881Y-799643D01*
X4940833Y-771071D01*
X4931310Y-752024D01*
X4921786Y-723452D01*
X4912262Y-675833D01*
X4912262Y-637738D01*
X4921786Y-590119D01*
X4931310Y-561548D01*
X4940833Y-542500D01*
X4959881Y-513928D01*
X4969405Y-504405D01*
X5045595Y-599643D02*
X5045595Y-732976D01*
X5045595Y-618690D02*
X5055119Y-609167D01*
X5074167Y-599643D01*
X5102738Y-599643D01*
X5121786Y-609167D01*
X5131310Y-628214D01*
X5131310Y-732976D01*
X5255119Y-732976D02*
X5236071Y-723452D01*
X5226548Y-713928D01*
X5217024Y-694881D01*
X5217024Y-637738D01*
X5226548Y-618690D01*
X5236071Y-609167D01*
X5255119Y-599643D01*
X5283690Y-599643D01*
X5302738Y-609167D01*
X5312262Y-618690D01*
X5321786Y-637738D01*
X5321786Y-694881D01*
X5312262Y-713928D01*
X5302738Y-723452D01*
X5283690Y-732976D01*
X5255119Y-732976D01*
X5378929Y-599643D02*
X5455119Y-599643D01*
X5407500Y-532976D02*
X5407500Y-704405D01*
X5417024Y-723452D01*
X5436071Y-732976D01*
X5455119Y-732976D01*
X5674167Y-599643D02*
X5674167Y-799643D01*
X5674167Y-609167D02*
X5693214Y-599643D01*
X5731309Y-599643D01*
X5750357Y-609167D01*
X5759881Y-618690D01*
X5769405Y-637738D01*
X5769405Y-694881D01*
X5759881Y-713928D01*
X5750357Y-723452D01*
X5731309Y-732976D01*
X5693214Y-732976D01*
X5674167Y-723452D01*
X5883690Y-732976D02*
X5864643Y-723452D01*
X5855119Y-704405D01*
X5855119Y-532976D01*
X6045595Y-732976D02*
X6045595Y-628214D01*
X6036071Y-609167D01*
X6017024Y-599643D01*
X5978928Y-599643D01*
X5959881Y-609167D01*
X6045595Y-723452D02*
X6026548Y-732976D01*
X5978928Y-732976D01*
X5959881Y-723452D01*
X5950357Y-704405D01*
X5950357Y-685357D01*
X5959881Y-666310D01*
X5978928Y-656786D01*
X6026548Y-656786D01*
X6045595Y-647262D01*
X6112262Y-599643D02*
X6188452Y-599643D01*
X6140833Y-532976D02*
X6140833Y-704405D01*
X6150357Y-723452D01*
X6169405Y-732976D01*
X6188452Y-732976D01*
X6331309Y-723452D02*
X6312262Y-732976D01*
X6274167Y-732976D01*
X6255119Y-723452D01*
X6245595Y-704405D01*
X6245595Y-628214D01*
X6255119Y-609167D01*
X6274167Y-599643D01*
X6312262Y-599643D01*
X6331309Y-609167D01*
X6340833Y-628214D01*
X6340833Y-647262D01*
X6245595Y-666310D01*
X6512262Y-732976D02*
X6512262Y-532976D01*
X6512262Y-723452D02*
X6493214Y-732976D01*
X6455119Y-732976D01*
X6436071Y-723452D01*
X6426548Y-713928D01*
X6417024Y-694881D01*
X6417024Y-637738D01*
X6426548Y-618690D01*
X6436071Y-609167D01*
X6455119Y-599643D01*
X6493214Y-599643D01*
X6512262Y-609167D01*
X6588452Y-809167D02*
X6597976Y-799643D01*
X6617024Y-771071D01*
X6626548Y-752024D01*
X6636071Y-723452D01*
X6645595Y-675833D01*
X6645595Y-637738D01*
X6636071Y-590119D01*
X6626548Y-561548D01*
X6617024Y-542500D01*
X6597976Y-513928D01*
X6588452Y-504405D01*
M02*
