%TF.GenerationSoftware,KiCad,Pcbnew,6.0.4-1.fc35*%
%TF.CreationDate,2022-04-27T17:33:16+05:30*%
%TF.ProjectId,8puter,38707574-6572-42e6-9b69-6361645f7063,rev?*%
%TF.SameCoordinates,PX5496c90PY8113368*%
%TF.FileFunction,Legend,Bot*%
%TF.FilePolarity,Positive*%
%FSLAX46Y46*%
G04 Gerber Fmt 4.6, Leading zero omitted, Abs format (unit mm)*
G04 Created by KiCad (PCBNEW 6.0.4-1.fc35) date 2022-04-27 17:33:16*
%MOMM*%
%LPD*%
G01*
G04 APERTURE LIST*
%ADD10C,0.125000*%
%ADD11C,0.250000*%
%ADD12C,0.150000*%
%ADD13C,0.120000*%
G04 APERTURE END LIST*
D10*
X67464285Y6371965D02*
X67464285Y7121965D01*
X67285714Y7121965D01*
X67178571Y7086250D01*
X67107142Y7014822D01*
X67071428Y6943393D01*
X67035714Y6800536D01*
X67035714Y6693393D01*
X67071428Y6550536D01*
X67107142Y6479108D01*
X67178571Y6407679D01*
X67285714Y6371965D01*
X67464285Y6371965D01*
X66428571Y6407679D02*
X66500000Y6371965D01*
X66642857Y6371965D01*
X66714285Y6407679D01*
X66750000Y6479108D01*
X66750000Y6764822D01*
X66714285Y6836250D01*
X66642857Y6871965D01*
X66500000Y6871965D01*
X66428571Y6836250D01*
X66392857Y6764822D01*
X66392857Y6693393D01*
X66750000Y6621965D01*
X66107142Y6407679D02*
X66035714Y6371965D01*
X65892857Y6371965D01*
X65821428Y6407679D01*
X65785714Y6479108D01*
X65785714Y6514822D01*
X65821428Y6586250D01*
X65892857Y6621965D01*
X66000000Y6621965D01*
X66071428Y6657679D01*
X66107142Y6729108D01*
X66107142Y6764822D01*
X66071428Y6836250D01*
X66000000Y6871965D01*
X65892857Y6871965D01*
X65821428Y6836250D01*
X65464285Y6371965D02*
X65464285Y6871965D01*
X65464285Y7121965D02*
X65500000Y7086250D01*
X65464285Y7050536D01*
X65428571Y7086250D01*
X65464285Y7121965D01*
X65464285Y7050536D01*
X64785714Y6871965D02*
X64785714Y6264822D01*
X64821428Y6193393D01*
X64857142Y6157679D01*
X64928571Y6121965D01*
X65035714Y6121965D01*
X65107142Y6157679D01*
X64785714Y6407679D02*
X64857142Y6371965D01*
X65000000Y6371965D01*
X65071428Y6407679D01*
X65107142Y6443393D01*
X65142857Y6514822D01*
X65142857Y6729108D01*
X65107142Y6800536D01*
X65071428Y6836250D01*
X65000000Y6871965D01*
X64857142Y6871965D01*
X64785714Y6836250D01*
X64428571Y6871965D02*
X64428571Y6371965D01*
X64428571Y6800536D02*
X64392857Y6836250D01*
X64321428Y6871965D01*
X64214285Y6871965D01*
X64142857Y6836250D01*
X64107142Y6764822D01*
X64107142Y6371965D01*
X63178571Y6371965D02*
X63178571Y7121965D01*
X63178571Y6836250D02*
X63107142Y6871965D01*
X62964285Y6871965D01*
X62892857Y6836250D01*
X62857142Y6800536D01*
X62821428Y6729108D01*
X62821428Y6514822D01*
X62857142Y6443393D01*
X62892857Y6407679D01*
X62964285Y6371965D01*
X63107142Y6371965D01*
X63178571Y6407679D01*
X62571428Y6871965D02*
X62392857Y6371965D01*
X62214285Y6871965D02*
X62392857Y6371965D01*
X62464285Y6193393D01*
X62500000Y6157679D01*
X62571428Y6121965D01*
X61392857Y6586250D02*
X61035714Y6586250D01*
X61464285Y6371965D02*
X61214285Y7121965D01*
X60964285Y6371965D01*
X60607142Y6371965D02*
X60678571Y6407679D01*
X60714285Y6479108D01*
X60714285Y7121965D01*
X60321428Y6371965D02*
X60321428Y6871965D01*
X60321428Y7121965D02*
X60357142Y7086250D01*
X60321428Y7050536D01*
X60285714Y7086250D01*
X60321428Y7121965D01*
X60321428Y7050536D01*
X60000000Y6407679D02*
X59928571Y6371965D01*
X59785714Y6371965D01*
X59714285Y6407679D01*
X59678571Y6479108D01*
X59678571Y6514822D01*
X59714285Y6586250D01*
X59785714Y6621965D01*
X59892857Y6621965D01*
X59964285Y6657679D01*
X60000000Y6729108D01*
X60000000Y6764822D01*
X59964285Y6836250D01*
X59892857Y6871965D01*
X59785714Y6871965D01*
X59714285Y6836250D01*
X59035714Y6371965D02*
X59035714Y6764822D01*
X59071428Y6836250D01*
X59142857Y6871965D01*
X59285714Y6871965D01*
X59357142Y6836250D01*
X59035714Y6407679D02*
X59107142Y6371965D01*
X59285714Y6371965D01*
X59357142Y6407679D01*
X59392857Y6479108D01*
X59392857Y6550536D01*
X59357142Y6621965D01*
X59285714Y6657679D01*
X59107142Y6657679D01*
X59035714Y6693393D01*
X58678571Y6371965D02*
X58678571Y6871965D01*
X58678571Y6800536D02*
X58642857Y6836250D01*
X58571428Y6871965D01*
X58464285Y6871965D01*
X58392857Y6836250D01*
X58357142Y6764822D01*
X58357142Y6371965D01*
X58357142Y6764822D02*
X58321428Y6836250D01*
X58250000Y6871965D01*
X58142857Y6871965D01*
X58071428Y6836250D01*
X58035714Y6764822D01*
X58035714Y6371965D01*
X57357142Y6371965D02*
X57357142Y6764822D01*
X57392857Y6836250D01*
X57464285Y6871965D01*
X57607142Y6871965D01*
X57678571Y6836250D01*
X57357142Y6407679D02*
X57428571Y6371965D01*
X57607142Y6371965D01*
X57678571Y6407679D01*
X57714285Y6479108D01*
X57714285Y6550536D01*
X57678571Y6621965D01*
X57607142Y6657679D01*
X57428571Y6657679D01*
X57357142Y6693393D01*
X57000000Y6371965D02*
X57000000Y6871965D01*
X57000000Y6729108D02*
X56964285Y6800536D01*
X56928571Y6836250D01*
X56857142Y6871965D01*
X56785714Y6871965D01*
X55964285Y6371965D02*
X55964285Y7121965D01*
X55964285Y6764822D02*
X55535714Y6764822D01*
X55535714Y6371965D02*
X55535714Y7121965D01*
X54857142Y6871965D02*
X54857142Y6371965D01*
X55178571Y6871965D02*
X55178571Y6479108D01*
X55142857Y6407679D01*
X55071428Y6371965D01*
X54964285Y6371965D01*
X54892857Y6407679D01*
X54857142Y6443393D01*
X54535714Y6407679D02*
X54464285Y6371965D01*
X54321428Y6371965D01*
X54250000Y6407679D01*
X54214285Y6479108D01*
X54214285Y6514822D01*
X54250000Y6586250D01*
X54321428Y6621965D01*
X54428571Y6621965D01*
X54500000Y6657679D01*
X54535714Y6729108D01*
X54535714Y6764822D01*
X54500000Y6836250D01*
X54428571Y6871965D01*
X54321428Y6871965D01*
X54250000Y6836250D01*
X53571428Y6371965D02*
X53571428Y6764822D01*
X53607142Y6836250D01*
X53678571Y6871965D01*
X53821428Y6871965D01*
X53892857Y6836250D01*
X53571428Y6407679D02*
X53642857Y6371965D01*
X53821428Y6371965D01*
X53892857Y6407679D01*
X53928571Y6479108D01*
X53928571Y6550536D01*
X53892857Y6621965D01*
X53821428Y6657679D01*
X53642857Y6657679D01*
X53571428Y6693393D01*
X53214285Y6371965D02*
X53214285Y6871965D01*
X53214285Y7121965D02*
X53250000Y7086250D01*
X53214285Y7050536D01*
X53178571Y7086250D01*
X53214285Y7121965D01*
X53214285Y7050536D01*
X52857142Y6871965D02*
X52857142Y6371965D01*
X52857142Y6800536D02*
X52821428Y6836250D01*
X52750000Y6871965D01*
X52642857Y6871965D01*
X52571428Y6836250D01*
X52535714Y6764822D01*
X52535714Y6371965D01*
X66910714Y4456965D02*
X66910714Y3849822D01*
X66946428Y3778393D01*
X66982142Y3742679D01*
X67053571Y3706965D01*
X67160714Y3706965D01*
X67232142Y3742679D01*
X66910714Y3992679D02*
X66982142Y3956965D01*
X67125000Y3956965D01*
X67196428Y3992679D01*
X67232142Y4028393D01*
X67267857Y4099822D01*
X67267857Y4314108D01*
X67232142Y4385536D01*
X67196428Y4421250D01*
X67125000Y4456965D01*
X66982142Y4456965D01*
X66910714Y4421250D01*
X66553571Y3956965D02*
X66553571Y4456965D01*
X66553571Y4706965D02*
X66589285Y4671250D01*
X66553571Y4635536D01*
X66517857Y4671250D01*
X66553571Y4706965D01*
X66553571Y4635536D01*
X66303571Y4456965D02*
X66017857Y4456965D01*
X66196428Y4706965D02*
X66196428Y4064108D01*
X66160714Y3992679D01*
X66089285Y3956965D01*
X66017857Y3956965D01*
X65767857Y3956965D02*
X65767857Y4706965D01*
X65446428Y3956965D02*
X65446428Y4349822D01*
X65482142Y4421250D01*
X65553571Y4456965D01*
X65660714Y4456965D01*
X65732142Y4421250D01*
X65767857Y4385536D01*
X64767857Y4456965D02*
X64767857Y3956965D01*
X65089285Y4456965D02*
X65089285Y4064108D01*
X65053571Y3992679D01*
X64982142Y3956965D01*
X64875000Y3956965D01*
X64803571Y3992679D01*
X64767857Y4028393D01*
X64410714Y3956965D02*
X64410714Y4706965D01*
X64410714Y4421250D02*
X64339285Y4456965D01*
X64196428Y4456965D01*
X64125000Y4421250D01*
X64089285Y4385536D01*
X64053571Y4314108D01*
X64053571Y4099822D01*
X64089285Y4028393D01*
X64125000Y3992679D01*
X64196428Y3956965D01*
X64339285Y3956965D01*
X64410714Y3992679D01*
X63732142Y4028393D02*
X63696428Y3992679D01*
X63732142Y3956965D01*
X63767857Y3992679D01*
X63732142Y4028393D01*
X63732142Y3956965D01*
X63053571Y3992679D02*
X63125000Y3956965D01*
X63267857Y3956965D01*
X63339285Y3992679D01*
X63375000Y4028393D01*
X63410714Y4099822D01*
X63410714Y4314108D01*
X63375000Y4385536D01*
X63339285Y4421250D01*
X63267857Y4456965D01*
X63125000Y4456965D01*
X63053571Y4421250D01*
X62625000Y3956965D02*
X62696428Y3992679D01*
X62732142Y4028393D01*
X62767857Y4099822D01*
X62767857Y4314108D01*
X62732142Y4385536D01*
X62696428Y4421250D01*
X62625000Y4456965D01*
X62517857Y4456965D01*
X62446428Y4421250D01*
X62410714Y4385536D01*
X62375000Y4314108D01*
X62375000Y4099822D01*
X62410714Y4028393D01*
X62446428Y3992679D01*
X62517857Y3956965D01*
X62625000Y3956965D01*
X62053571Y3956965D02*
X62053571Y4456965D01*
X62053571Y4385536D02*
X62017857Y4421250D01*
X61946428Y4456965D01*
X61839285Y4456965D01*
X61767857Y4421250D01*
X61732142Y4349822D01*
X61732142Y3956965D01*
X61732142Y4349822D02*
X61696428Y4421250D01*
X61625000Y4456965D01*
X61517857Y4456965D01*
X61446428Y4421250D01*
X61410714Y4349822D01*
X61410714Y3956965D01*
X60517857Y4742679D02*
X61160714Y3778393D01*
X60339285Y4456965D02*
X59946428Y4456965D01*
X60339285Y3956965D01*
X59946428Y3956965D01*
X59660714Y3956965D02*
X59660714Y4456965D01*
X59660714Y4314108D02*
X59625000Y4385536D01*
X59589285Y4421250D01*
X59517857Y4456965D01*
X59446428Y4456965D01*
X59303571Y4456965D02*
X59017857Y4456965D01*
X59196428Y4706965D02*
X59196428Y4064108D01*
X59160714Y3992679D01*
X59089285Y3956965D01*
X59017857Y3956965D01*
X58767857Y3956965D02*
X58767857Y4706965D01*
X58446428Y3956965D02*
X58446428Y4349822D01*
X58482142Y4421250D01*
X58553571Y4456965D01*
X58660714Y4456965D01*
X58732142Y4421250D01*
X58767857Y4385536D01*
X58160714Y3956965D02*
X57767857Y4456965D01*
X58160714Y4456965D02*
X57767857Y3956965D01*
X57482142Y4456965D02*
X57482142Y3956965D01*
X57482142Y4385536D02*
X57446428Y4421250D01*
X57375000Y4456965D01*
X57267857Y4456965D01*
X57196428Y4421250D01*
X57160714Y4349822D01*
X57160714Y3956965D01*
X56267857Y4742679D02*
X56910714Y3778393D01*
X55910714Y4385536D02*
X55982142Y4421250D01*
X56017857Y4456965D01*
X56053571Y4528393D01*
X56053571Y4564108D01*
X56017857Y4635536D01*
X55982142Y4671250D01*
X55910714Y4706965D01*
X55767857Y4706965D01*
X55696428Y4671250D01*
X55660714Y4635536D01*
X55625000Y4564108D01*
X55625000Y4528393D01*
X55660714Y4456965D01*
X55696428Y4421250D01*
X55767857Y4385536D01*
X55910714Y4385536D01*
X55982142Y4349822D01*
X56017857Y4314108D01*
X56053571Y4242679D01*
X56053571Y4099822D01*
X56017857Y4028393D01*
X55982142Y3992679D01*
X55910714Y3956965D01*
X55767857Y3956965D01*
X55696428Y3992679D01*
X55660714Y4028393D01*
X55625000Y4099822D01*
X55625000Y4242679D01*
X55660714Y4314108D01*
X55696428Y4349822D01*
X55767857Y4385536D01*
X55303571Y4456965D02*
X55303571Y3706965D01*
X55303571Y4421250D02*
X55232142Y4456965D01*
X55089285Y4456965D01*
X55017857Y4421250D01*
X54982142Y4385536D01*
X54946428Y4314108D01*
X54946428Y4099822D01*
X54982142Y4028393D01*
X55017857Y3992679D01*
X55089285Y3956965D01*
X55232142Y3956965D01*
X55303571Y3992679D01*
X54303571Y4456965D02*
X54303571Y3956965D01*
X54625000Y4456965D02*
X54625000Y4064108D01*
X54589285Y3992679D01*
X54517857Y3956965D01*
X54410714Y3956965D01*
X54339285Y3992679D01*
X54303571Y4028393D01*
X54053571Y4456965D02*
X53767857Y4456965D01*
X53946428Y4706965D02*
X53946428Y4064108D01*
X53910714Y3992679D01*
X53839285Y3956965D01*
X53767857Y3956965D01*
X53232142Y3992679D02*
X53303571Y3956965D01*
X53446428Y3956965D01*
X53517857Y3992679D01*
X53553571Y4064108D01*
X53553571Y4349822D01*
X53517857Y4421250D01*
X53446428Y4456965D01*
X53303571Y4456965D01*
X53232142Y4421250D01*
X53196428Y4349822D01*
X53196428Y4278393D01*
X53553571Y4206965D01*
X52875000Y3956965D02*
X52875000Y4456965D01*
X52875000Y4314108D02*
X52839285Y4385536D01*
X52803571Y4421250D01*
X52732142Y4456965D01*
X52660714Y4456965D01*
X64732142Y3463750D02*
X64803571Y3499465D01*
X64910714Y3499465D01*
X65017857Y3463750D01*
X65089285Y3392322D01*
X65125000Y3320893D01*
X65160714Y3178036D01*
X65160714Y3070893D01*
X65125000Y2928036D01*
X65089285Y2856608D01*
X65017857Y2785179D01*
X64910714Y2749465D01*
X64839285Y2749465D01*
X64732142Y2785179D01*
X64696428Y2820893D01*
X64696428Y3070893D01*
X64839285Y3070893D01*
X64375000Y2749465D02*
X64375000Y3499465D01*
X64089285Y3499465D01*
X64017857Y3463750D01*
X63982142Y3428036D01*
X63946428Y3356608D01*
X63946428Y3249465D01*
X63982142Y3178036D01*
X64017857Y3142322D01*
X64089285Y3106608D01*
X64375000Y3106608D01*
X63267857Y2749465D02*
X63625000Y2749465D01*
X63625000Y3499465D01*
X63017857Y3035179D02*
X62446428Y3035179D01*
X62160714Y3499465D02*
X61696428Y3499465D01*
X61946428Y3213750D01*
X61839285Y3213750D01*
X61767857Y3178036D01*
X61732142Y3142322D01*
X61696428Y3070893D01*
X61696428Y2892322D01*
X61732142Y2820893D01*
X61767857Y2785179D01*
X61839285Y2749465D01*
X62053571Y2749465D01*
X62125000Y2785179D01*
X62160714Y2820893D01*
X61375000Y2820893D02*
X61339285Y2785179D01*
X61375000Y2749465D01*
X61410714Y2785179D01*
X61375000Y2820893D01*
X61375000Y2749465D01*
X60875000Y3499465D02*
X60803571Y3499465D01*
X60732142Y3463750D01*
X60696428Y3428036D01*
X60660714Y3356608D01*
X60625000Y3213750D01*
X60625000Y3035179D01*
X60660714Y2892322D01*
X60696428Y2820893D01*
X60732142Y2785179D01*
X60803571Y2749465D01*
X60875000Y2749465D01*
X60946428Y2785179D01*
X60982142Y2820893D01*
X61017857Y2892322D01*
X61053571Y3035179D01*
X61053571Y3213750D01*
X61017857Y3356608D01*
X60982142Y3428036D01*
X60946428Y3463750D01*
X60875000Y3499465D01*
X59767857Y2963750D02*
X59410714Y2963750D01*
X59839285Y2749465D02*
X59589285Y3499465D01*
X59339285Y2749465D01*
X59089285Y3249465D02*
X59089285Y2499465D01*
X59089285Y3213750D02*
X59017857Y3249465D01*
X58875000Y3249465D01*
X58803571Y3213750D01*
X58767857Y3178036D01*
X58732142Y3106608D01*
X58732142Y2892322D01*
X58767857Y2820893D01*
X58803571Y2785179D01*
X58875000Y2749465D01*
X59017857Y2749465D01*
X59089285Y2785179D01*
X58410714Y2749465D02*
X58410714Y3249465D01*
X58410714Y3106608D02*
X58375000Y3178036D01*
X58339285Y3213750D01*
X58267857Y3249465D01*
X58196428Y3249465D01*
X57410714Y3428036D02*
X57375000Y3463750D01*
X57303571Y3499465D01*
X57125000Y3499465D01*
X57053571Y3463750D01*
X57017857Y3428036D01*
X56982142Y3356608D01*
X56982142Y3285179D01*
X57017857Y3178036D01*
X57446428Y2749465D01*
X56982142Y2749465D01*
X56517857Y3499465D02*
X56446428Y3499465D01*
X56375000Y3463750D01*
X56339285Y3428036D01*
X56303571Y3356608D01*
X56267857Y3213750D01*
X56267857Y3035179D01*
X56303571Y2892322D01*
X56339285Y2820893D01*
X56375000Y2785179D01*
X56446428Y2749465D01*
X56517857Y2749465D01*
X56589285Y2785179D01*
X56625000Y2820893D01*
X56660714Y2892322D01*
X56696428Y3035179D01*
X56696428Y3213750D01*
X56660714Y3356608D01*
X56625000Y3428036D01*
X56589285Y3463750D01*
X56517857Y3499465D01*
X55982142Y3428036D02*
X55946428Y3463750D01*
X55875000Y3499465D01*
X55696428Y3499465D01*
X55625000Y3463750D01*
X55589285Y3428036D01*
X55553571Y3356608D01*
X55553571Y3285179D01*
X55589285Y3178036D01*
X56017857Y2749465D01*
X55553571Y2749465D01*
X55267857Y3428036D02*
X55232142Y3463750D01*
X55160714Y3499465D01*
X54982142Y3499465D01*
X54910714Y3463750D01*
X54875000Y3428036D01*
X54839285Y3356608D01*
X54839285Y3285179D01*
X54875000Y3178036D01*
X55303571Y2749465D01*
X54839285Y2749465D01*
D11*
X68864285Y8548810D02*
X68983333Y8608334D01*
X69042857Y8667858D01*
X69102380Y8786905D01*
X69102380Y8846429D01*
X69042857Y8965477D01*
X68983333Y9025000D01*
X68864285Y9084524D01*
X68626190Y9084524D01*
X68507142Y9025000D01*
X68447619Y8965477D01*
X68388095Y8846429D01*
X68388095Y8786905D01*
X68447619Y8667858D01*
X68507142Y8608334D01*
X68626190Y8548810D01*
X68864285Y8548810D01*
X68983333Y8489286D01*
X69042857Y8429762D01*
X69102380Y8310715D01*
X69102380Y8072620D01*
X69042857Y7953572D01*
X68983333Y7894048D01*
X68864285Y7834524D01*
X68626190Y7834524D01*
X68507142Y7894048D01*
X68447619Y7953572D01*
X68388095Y8072620D01*
X68388095Y8310715D01*
X68447619Y8429762D01*
X68507142Y8489286D01*
X68626190Y8548810D01*
X67852380Y8667858D02*
X67852380Y7417858D01*
X67852380Y8608334D02*
X67733333Y8667858D01*
X67495238Y8667858D01*
X67376190Y8608334D01*
X67316666Y8548810D01*
X67257142Y8429762D01*
X67257142Y8072620D01*
X67316666Y7953572D01*
X67376190Y7894048D01*
X67495238Y7834524D01*
X67733333Y7834524D01*
X67852380Y7894048D01*
X66185714Y8667858D02*
X66185714Y7834524D01*
X66721428Y8667858D02*
X66721428Y8013096D01*
X66661904Y7894048D01*
X66542857Y7834524D01*
X66364285Y7834524D01*
X66245238Y7894048D01*
X66185714Y7953572D01*
X65769047Y8667858D02*
X65292857Y8667858D01*
X65590476Y9084524D02*
X65590476Y8013096D01*
X65530952Y7894048D01*
X65411904Y7834524D01*
X65292857Y7834524D01*
X64400000Y7894048D02*
X64519047Y7834524D01*
X64757142Y7834524D01*
X64876190Y7894048D01*
X64935714Y8013096D01*
X64935714Y8489286D01*
X64876190Y8608334D01*
X64757142Y8667858D01*
X64519047Y8667858D01*
X64400000Y8608334D01*
X64340476Y8489286D01*
X64340476Y8370239D01*
X64935714Y8251191D01*
X63804761Y7834524D02*
X63804761Y8667858D01*
X63804761Y8429762D02*
X63745238Y8548810D01*
X63685714Y8608334D01*
X63566666Y8667858D01*
X63447619Y8667858D01*
X61364285Y7834524D02*
X61780952Y8429762D01*
X62078571Y7834524D02*
X62078571Y9084524D01*
X61602380Y9084524D01*
X61483333Y9025000D01*
X61423809Y8965477D01*
X61364285Y8846429D01*
X61364285Y8667858D01*
X61423809Y8548810D01*
X61483333Y8489286D01*
X61602380Y8429762D01*
X62078571Y8429762D01*
X60352380Y7894048D02*
X60471428Y7834524D01*
X60709523Y7834524D01*
X60828571Y7894048D01*
X60888095Y8013096D01*
X60888095Y8489286D01*
X60828571Y8608334D01*
X60709523Y8667858D01*
X60471428Y8667858D01*
X60352380Y8608334D01*
X60292857Y8489286D01*
X60292857Y8370239D01*
X60888095Y8251191D01*
X59876190Y8667858D02*
X59578571Y7834524D01*
X59280952Y8667858D01*
X58804761Y7834524D02*
X58804761Y8667858D01*
X58804761Y9084524D02*
X58864285Y9025000D01*
X58804761Y8965477D01*
X58745238Y9025000D01*
X58804761Y9084524D01*
X58804761Y8965477D01*
X58269047Y7894048D02*
X58150000Y7834524D01*
X57911904Y7834524D01*
X57792857Y7894048D01*
X57733333Y8013096D01*
X57733333Y8072620D01*
X57792857Y8191667D01*
X57911904Y8251191D01*
X58090476Y8251191D01*
X58209523Y8310715D01*
X58269047Y8429762D01*
X58269047Y8489286D01*
X58209523Y8608334D01*
X58090476Y8667858D01*
X57911904Y8667858D01*
X57792857Y8608334D01*
X57197619Y7834524D02*
X57197619Y8667858D01*
X57197619Y9084524D02*
X57257142Y9025000D01*
X57197619Y8965477D01*
X57138095Y9025000D01*
X57197619Y9084524D01*
X57197619Y8965477D01*
X56423809Y7834524D02*
X56542857Y7894048D01*
X56602380Y7953572D01*
X56661904Y8072620D01*
X56661904Y8429762D01*
X56602380Y8548810D01*
X56542857Y8608334D01*
X56423809Y8667858D01*
X56245238Y8667858D01*
X56126190Y8608334D01*
X56066666Y8548810D01*
X56007142Y8429762D01*
X56007142Y8072620D01*
X56066666Y7953572D01*
X56126190Y7894048D01*
X56245238Y7834524D01*
X56423809Y7834524D01*
X55471428Y8667858D02*
X55471428Y7834524D01*
X55471428Y8548810D02*
X55411904Y8608334D01*
X55292857Y8667858D01*
X55114285Y8667858D01*
X54995238Y8608334D01*
X54935714Y8489286D01*
X54935714Y7834524D01*
X52733333Y7834524D02*
X53447619Y7834524D01*
X53090476Y7834524D02*
X53090476Y9084524D01*
X53209523Y8905953D01*
X53328571Y8786905D01*
X53447619Y8727381D01*
X52197619Y7953572D02*
X52138095Y7894048D01*
X52197619Y7834524D01*
X52257142Y7894048D01*
X52197619Y7953572D01*
X52197619Y7834524D01*
X51364285Y9084524D02*
X51245238Y9084524D01*
X51126190Y9025000D01*
X51066666Y8965477D01*
X51007142Y8846429D01*
X50947619Y8608334D01*
X50947619Y8310715D01*
X51007142Y8072620D01*
X51066666Y7953572D01*
X51126190Y7894048D01*
X51245238Y7834524D01*
X51364285Y7834524D01*
X51483333Y7894048D01*
X51542857Y7953572D01*
X51602380Y8072620D01*
X51661904Y8310715D01*
X51661904Y8608334D01*
X51602380Y8846429D01*
X51542857Y8965477D01*
X51483333Y9025000D01*
X51364285Y9084524D01*
D12*
X63985714Y43978572D02*
X63223809Y43978572D01*
X63604761Y43597620D02*
X63604761Y44359524D01*
X62271428Y44597620D02*
X62747619Y44597620D01*
X62795238Y44121429D01*
X62747619Y44169048D01*
X62652380Y44216667D01*
X62414285Y44216667D01*
X62319047Y44169048D01*
X62271428Y44121429D01*
X62223809Y44026191D01*
X62223809Y43788096D01*
X62271428Y43692858D01*
X62319047Y43645239D01*
X62414285Y43597620D01*
X62652380Y43597620D01*
X62747619Y43645239D01*
X62795238Y43692858D01*
X61938095Y44597620D02*
X61604761Y43597620D01*
X61271428Y44597620D01*
D13*
X58940000Y44050000D02*
X59650000Y44050000D01*
X58940000Y44050000D02*
X60066504Y43463579D01*
X58940000Y44050000D02*
X60066504Y44636421D01*
X59650000Y44050000D02*
X60601191Y44050000D01*
D12*
X36285714Y14178572D02*
X35523809Y14178572D01*
X35904761Y13797620D02*
X35904761Y14559524D01*
X34571428Y14797620D02*
X35047619Y14797620D01*
X35095238Y14321429D01*
X35047619Y14369048D01*
X34952380Y14416667D01*
X34714285Y14416667D01*
X34619047Y14369048D01*
X34571428Y14321429D01*
X34523809Y14226191D01*
X34523809Y13988096D01*
X34571428Y13892858D01*
X34619047Y13845239D01*
X34714285Y13797620D01*
X34952380Y13797620D01*
X35047619Y13845239D01*
X35095238Y13892858D01*
X34238095Y14797620D02*
X33904761Y13797620D01*
X33571428Y14797620D01*
D13*
X31240000Y14250000D02*
X31950000Y14250000D01*
X31240000Y14250000D02*
X32366504Y13663579D01*
X31240000Y14250000D02*
X32366504Y14836421D01*
X31950000Y14250000D02*
X32901191Y14250000D01*
D12*
X40411904Y47750000D02*
X40507142Y47797620D01*
X40650000Y47797620D01*
X40792857Y47750000D01*
X40888095Y47654762D01*
X40935714Y47559524D01*
X40983333Y47369048D01*
X40983333Y47226191D01*
X40935714Y47035715D01*
X40888095Y46940477D01*
X40792857Y46845239D01*
X40650000Y46797620D01*
X40554761Y46797620D01*
X40411904Y46845239D01*
X40364285Y46892858D01*
X40364285Y47226191D01*
X40554761Y47226191D01*
X39935714Y46797620D02*
X39935714Y47797620D01*
X39364285Y46797620D01*
X39364285Y47797620D01*
X38888095Y46797620D02*
X38888095Y47797620D01*
X38650000Y47797620D01*
X38507142Y47750000D01*
X38411904Y47654762D01*
X38364285Y47559524D01*
X38316666Y47369048D01*
X38316666Y47226191D01*
X38364285Y47035715D01*
X38411904Y46940477D01*
X38507142Y46845239D01*
X38650000Y46797620D01*
X38888095Y46797620D01*
D13*
X43600000Y47250000D02*
X41748810Y47250000D01*
X43600000Y47250000D02*
X42473496Y47836421D01*
X43600000Y47250000D02*
X42473496Y46663579D01*
D12*
X78211904Y14100000D02*
X78307142Y14147620D01*
X78450000Y14147620D01*
X78592857Y14100000D01*
X78688095Y14004762D01*
X78735714Y13909524D01*
X78783333Y13719048D01*
X78783333Y13576191D01*
X78735714Y13385715D01*
X78688095Y13290477D01*
X78592857Y13195239D01*
X78450000Y13147620D01*
X78354761Y13147620D01*
X78211904Y13195239D01*
X78164285Y13242858D01*
X78164285Y13576191D01*
X78354761Y13576191D01*
X77735714Y13147620D02*
X77735714Y14147620D01*
X77164285Y13147620D01*
X77164285Y14147620D01*
X76688095Y13147620D02*
X76688095Y14147620D01*
X76450000Y14147620D01*
X76307142Y14100000D01*
X76211904Y14004762D01*
X76164285Y13909524D01*
X76116666Y13719048D01*
X76116666Y13576191D01*
X76164285Y13385715D01*
X76211904Y13290477D01*
X76307142Y13195239D01*
X76450000Y13147620D01*
X76688095Y13147620D01*
D13*
X81400000Y13600000D02*
X79548810Y13600000D01*
X81400000Y13600000D02*
X80273496Y14186421D01*
X81400000Y13600000D02*
X80273496Y13013579D01*
D12*
X18261904Y47800000D02*
X18357142Y47847620D01*
X18500000Y47847620D01*
X18642857Y47800000D01*
X18738095Y47704762D01*
X18785714Y47609524D01*
X18833333Y47419048D01*
X18833333Y47276191D01*
X18785714Y47085715D01*
X18738095Y46990477D01*
X18642857Y46895239D01*
X18500000Y46847620D01*
X18404761Y46847620D01*
X18261904Y46895239D01*
X18214285Y46942858D01*
X18214285Y47276191D01*
X18404761Y47276191D01*
X17785714Y46847620D02*
X17785714Y47847620D01*
X17214285Y46847620D01*
X17214285Y47847620D01*
X16738095Y46847620D02*
X16738095Y47847620D01*
X16500000Y47847620D01*
X16357142Y47800000D01*
X16261904Y47704762D01*
X16214285Y47609524D01*
X16166666Y47419048D01*
X16166666Y47276191D01*
X16214285Y47085715D01*
X16261904Y46990477D01*
X16357142Y46895239D01*
X16500000Y46847620D01*
X16738095Y46847620D01*
D13*
X21450000Y47300000D02*
X19598810Y47300000D01*
X21450000Y47300000D02*
X20323496Y47886421D01*
X21450000Y47300000D02*
X20323496Y46713579D01*
D12*
X76700000Y76928572D02*
X75938095Y76928572D01*
X76319047Y76547620D02*
X76319047Y77309524D01*
X75557142Y77547620D02*
X74938095Y77547620D01*
X75271428Y77166667D01*
X75128571Y77166667D01*
X75033333Y77119048D01*
X74985714Y77071429D01*
X74938095Y76976191D01*
X74938095Y76738096D01*
X74985714Y76642858D01*
X75033333Y76595239D01*
X75128571Y76547620D01*
X75414285Y76547620D01*
X75509523Y76595239D01*
X75557142Y76642858D01*
X74509523Y76642858D02*
X74461904Y76595239D01*
X74509523Y76547620D01*
X74557142Y76595239D01*
X74509523Y76642858D01*
X74509523Y76547620D01*
X74128571Y77547620D02*
X73509523Y77547620D01*
X73842857Y77166667D01*
X73700000Y77166667D01*
X73604761Y77119048D01*
X73557142Y77071429D01*
X73509523Y76976191D01*
X73509523Y76738096D01*
X73557142Y76642858D01*
X73604761Y76595239D01*
X73700000Y76547620D01*
X73985714Y76547620D01*
X74080952Y76595239D01*
X74128571Y76642858D01*
X73223809Y77547620D02*
X72890476Y76547620D01*
X72557142Y77547620D01*
D13*
X80046447Y75753553D02*
X78800000Y77000000D01*
X80046447Y75753553D02*
X79664551Y76964774D01*
X80046447Y75753553D02*
X78835226Y76135449D01*
X78800000Y77000000D02*
X77513095Y77000000D01*
D12*
X102261904Y91100000D02*
X102357142Y91147620D01*
X102500000Y91147620D01*
X102642857Y91100000D01*
X102738095Y91004762D01*
X102785714Y90909524D01*
X102833333Y90719048D01*
X102833333Y90576191D01*
X102785714Y90385715D01*
X102738095Y90290477D01*
X102642857Y90195239D01*
X102500000Y90147620D01*
X102404761Y90147620D01*
X102261904Y90195239D01*
X102214285Y90242858D01*
X102214285Y90576191D01*
X102404761Y90576191D01*
X101785714Y90147620D02*
X101785714Y91147620D01*
X101214285Y90147620D01*
X101214285Y91147620D01*
X100738095Y90147620D02*
X100738095Y91147620D01*
X100500000Y91147620D01*
X100357142Y91100000D01*
X100261904Y91004762D01*
X100214285Y90909524D01*
X100166666Y90719048D01*
X100166666Y90576191D01*
X100214285Y90385715D01*
X100261904Y90290477D01*
X100357142Y90195239D01*
X100500000Y90147620D01*
X100738095Y90147620D01*
D13*
X105700000Y90600000D02*
X103598810Y90600000D01*
X105700000Y90600000D02*
X104573496Y91186421D01*
X105700000Y90600000D02*
X104573496Y90013579D01*
D12*
X98861904Y22600000D02*
X98957142Y22647620D01*
X99100000Y22647620D01*
X99242857Y22600000D01*
X99338095Y22504762D01*
X99385714Y22409524D01*
X99433333Y22219048D01*
X99433333Y22076191D01*
X99385714Y21885715D01*
X99338095Y21790477D01*
X99242857Y21695239D01*
X99100000Y21647620D01*
X99004761Y21647620D01*
X98861904Y21695239D01*
X98814285Y21742858D01*
X98814285Y22076191D01*
X99004761Y22076191D01*
X98385714Y21647620D02*
X98385714Y22647620D01*
X97814285Y21647620D01*
X97814285Y22647620D01*
X97338095Y21647620D02*
X97338095Y22647620D01*
X97100000Y22647620D01*
X96957142Y22600000D01*
X96861904Y22504762D01*
X96814285Y22409524D01*
X96766666Y22219048D01*
X96766666Y22076191D01*
X96814285Y21885715D01*
X96861904Y21790477D01*
X96957142Y21695239D01*
X97100000Y21647620D01*
X97338095Y21647620D01*
D13*
X93329901Y23774280D02*
X94800000Y22100000D01*
X93329901Y23774280D02*
X93632509Y22540859D01*
X93329901Y23774280D02*
X94513830Y23314701D01*
X94800000Y22100000D02*
X96001191Y22100000D01*
D12*
X59561904Y81800000D02*
X59657142Y81847620D01*
X59800000Y81847620D01*
X59942857Y81800000D01*
X60038095Y81704762D01*
X60085714Y81609524D01*
X60133333Y81419048D01*
X60133333Y81276191D01*
X60085714Y81085715D01*
X60038095Y80990477D01*
X59942857Y80895239D01*
X59800000Y80847620D01*
X59704761Y80847620D01*
X59561904Y80895239D01*
X59514285Y80942858D01*
X59514285Y81276191D01*
X59704761Y81276191D01*
X59085714Y80847620D02*
X59085714Y81847620D01*
X58514285Y80847620D01*
X58514285Y81847620D01*
X58038095Y80847620D02*
X58038095Y81847620D01*
X57800000Y81847620D01*
X57657142Y81800000D01*
X57561904Y81704762D01*
X57514285Y81609524D01*
X57466666Y81419048D01*
X57466666Y81276191D01*
X57514285Y81085715D01*
X57561904Y80990477D01*
X57657142Y80895239D01*
X57800000Y80847620D01*
X58038095Y80847620D01*
D13*
X54700000Y81300000D02*
X56701191Y81300000D01*
X54700000Y81300000D02*
X55826504Y80713579D01*
X54700000Y81300000D02*
X55826504Y81886421D01*
D12*
X23100000Y55028572D02*
X22338095Y55028572D01*
X22719047Y54647620D02*
X22719047Y55409524D01*
X21957142Y55647620D02*
X21338095Y55647620D01*
X21671428Y55266667D01*
X21528571Y55266667D01*
X21433333Y55219048D01*
X21385714Y55171429D01*
X21338095Y55076191D01*
X21338095Y54838096D01*
X21385714Y54742858D01*
X21433333Y54695239D01*
X21528571Y54647620D01*
X21814285Y54647620D01*
X21909523Y54695239D01*
X21957142Y54742858D01*
X20909523Y54742858D02*
X20861904Y54695239D01*
X20909523Y54647620D01*
X20957142Y54695239D01*
X20909523Y54742858D01*
X20909523Y54647620D01*
X20528571Y55647620D02*
X19909523Y55647620D01*
X20242857Y55266667D01*
X20100000Y55266667D01*
X20004761Y55219048D01*
X19957142Y55171429D01*
X19909523Y55076191D01*
X19909523Y54838096D01*
X19957142Y54742858D01*
X20004761Y54695239D01*
X20100000Y54647620D01*
X20385714Y54647620D01*
X20480952Y54695239D01*
X20528571Y54742858D01*
X19623809Y55647620D02*
X19290476Y54647620D01*
X18957142Y55647620D01*
D13*
X15827350Y56933975D02*
X17050000Y55100000D01*
X15827350Y56933975D02*
X15964290Y55671380D01*
X15827350Y56933975D02*
X16940153Y56321955D01*
X17050000Y55100000D02*
X18286905Y55100000D01*
D12*
X14235714Y14228572D02*
X13473809Y14228572D01*
X13854761Y13847620D02*
X13854761Y14609524D01*
X12521428Y14847620D02*
X12997619Y14847620D01*
X13045238Y14371429D01*
X12997619Y14419048D01*
X12902380Y14466667D01*
X12664285Y14466667D01*
X12569047Y14419048D01*
X12521428Y14371429D01*
X12473809Y14276191D01*
X12473809Y14038096D01*
X12521428Y13942858D01*
X12569047Y13895239D01*
X12664285Y13847620D01*
X12902380Y13847620D01*
X12997619Y13895239D01*
X13045238Y13942858D01*
X12188095Y14847620D02*
X11854761Y13847620D01*
X11521428Y14847620D01*
D13*
X9089849Y14317709D02*
X9810000Y14300000D01*
X9089849Y14317709D02*
X10201597Y13703773D01*
X9089849Y14317709D02*
X10230428Y14876260D01*
X9810000Y14300000D02*
X10851191Y14300000D01*
M02*
