M48
; DRILL file {KiCad 6.0.4-1.fc35} date Friday 22 April 2022 02:51:17 PM
; FORMAT={-:-/ absolute / inch / decimal}
; #@! TF.CreationDate,2022-04-22T14:51:17+05:30
; #@! TF.GenerationSoftware,Kicad,Pcbnew,6.0.4-1.fc35
; #@! TF.FileFunction,Plated,1,2,PTH
FMAT,2
INCH
; #@! TA.AperFunction,Plated,PTH,ViaDrill
T1C0.0118
; #@! TA.AperFunction,Plated,PTH,ViaDrill
T2C0.0157
; #@! TA.AperFunction,Plated,PTH,ComponentDrill
T3C0.0276
; #@! TA.AperFunction,Plated,PTH,ComponentDrill
T4C0.0315
; #@! TA.AperFunction,Plated,PTH,ComponentDrill
T5C0.0394
; #@! TA.AperFunction,Plated,PTH,ComponentDrill
T6C0.0433
; #@! TA.AperFunction,Plated,PTH,ComponentDrill
T7C0.0906
; #@! TA.AperFunction,Plated,PTH,ComponentDrill
T8C0.1260
%
G90
G05
T1
X0.2677Y0.2756
X0.2953Y0.3031
X0.5512Y0.3051
X0.5551Y2.7717
X0.5846Y0.4409
X0.5906Y2.7913
X0.6181Y0.4136
X0.6496Y0.3622
X0.6752Y0.3878
X0.7165Y2.6841
X0.7598Y2.6978
X0.7717Y0.1762
X0.8346Y2.0354
X0.8465Y2.9094
X0.9321Y2.7165
X0.9331Y2.9961
X0.9616Y2.6929
X0.9657Y2.8571
X0.9671Y2.6093
X0.9724Y0.3287
X0.9803Y2.6654
X0.9941Y0.2736
X0.997Y2.9429
X0.997Y2.5886
X1.0285Y2.876
X1.0285Y2.5689
X1.0512Y0.2234
X1.06Y2.5443
X1.0846Y0.251
X1.0915Y2.5217
X1.122Y2.874
X1.1772Y2.4173
X1.2384Y2.7687
X1.3071Y1.9843
X1.3888Y2.5246
X1.4134Y2.0354
X1.4685Y2.6425
X1.4764Y0.2992
X1.4961Y2.622
X1.502Y0.439
X1.5197Y2.5984
X1.5354Y0.4116
X1.5433Y2.5748
X1.5669Y2.5512
X1.5669Y0.3602
X1.5866Y2.7165
X1.5925Y0.3858
X1.6142Y2.6929
X1.6417Y3.6575
X1.6417Y2.6654
X1.7559Y3.2756
X1.7638Y3.4803
X1.8504Y2.4843
X1.8543Y0.3287
X1.8701Y3.6575
X1.876Y0.2736
X1.8898Y2.4606
X1.9173Y3.5748
X1.9891Y2.0679
X2.1417Y2.4173
X2.6535Y2.5236
X2.7244Y3.185
X2.7618Y0.8346
X2.7618Y0.439
X2.7687Y2.1348
X2.773Y2.745
X2.8167Y0.7341
X2.8167Y0.4116
X2.8189Y2.4331
X2.8622Y2.5512
X2.8679Y0.6341
X2.8681Y0.3858
X2.9016Y2.5748
X2.9134Y0.5335
X2.9134Y0.3602
X2.9409Y2.5984
X2.9528Y3.2008
X2.9764Y0.378
X2.9803Y2.622
X3.0118Y2.6417
X3.0236Y0.3307
X3.0512Y2.6654
X3.0551Y3.1063
X3.0571Y0.3032
X3.0591Y3.5039
X3.0787Y3.1969
X3.0866Y2.6929
X3.0906Y3.1378
X3.1142Y2.9134
X3.1181Y2.7165
X3.1378Y2.9685
X3.1457Y0.2756
X3.1496Y2.3346
X3.315Y3.3937
X3.376Y0.748
X3.378Y2.4843
X3.4291Y0.9961
X3.4458Y2.2283
X3.4685Y0.6299
X3.4705Y0.9587
X3.4764Y2.2598
X3.4764Y2.1339
X3.4803Y0.8504
X3.4823Y0.1752
X3.5374Y2.5433
X3.5374Y1.0335
X3.5512Y0.25
X3.5591Y0.811
X3.5591Y0.6654
X3.5689Y0.9587
X3.5827Y1.0157
X3.5906Y0.6299
X3.6161Y1.1358
X3.6181Y2.5669
X3.6181Y0.6654
X3.6496Y2.5906
X3.6496Y1.2343
X3.6713Y0.8819
X3.6811Y2.6122
X3.6811Y1.3346
X3.689Y0.2008
X3.7126Y2.6368
X3.7126Y1.435
X3.7283Y0.2283
X3.7441Y2.6614
X3.7756Y2.6929
X3.7756Y1.5335
X3.8071Y1.6339
X3.8386Y2.7165
X3.8386Y1.7343
X3.8701Y2.3858
X3.876Y2.6142
X3.8996Y2.6634
X3.9331Y1.4843
X3.939Y1.0138
X3.9547Y2.6939
X3.9567Y3.3281
X3.9803Y3.0748
X3.9843Y2.5433
X3.9901Y3.3281
X4.0039Y3.0315
X4.0118Y1.5866
X4.0187Y0.4045
X4.0354Y2.5906
X4.0551Y1.6811
X4.063Y3.0827
X4.0661Y2.5648
X4.0906Y1.7835
X4.1063Y2.6299
X4.1516Y0.7579
X4.1516Y0.6161
X4.1575Y3.3159
X4.1752Y0.6476
X4.185Y3.2825
X4.441Y2.8189
X4.4646Y2.8543
X4.5354Y2.8189
T2
X0.3937Y2.3583
X0.5925Y2.687
X1.0591Y3.5512
X1.0591Y3.5079
X1.189Y3.5276
X1.189Y3.4843
X1.3858Y3.6772
X1.4094Y3.8071
X1.4291Y3.6772
X1.4528Y3.8071
X1.8898Y3.2008
X2.0787Y3.7953
X2.0787Y3.685
X2.2283Y3.2008
X3.315Y3.2992
X3.4409Y2.3228
X3.7205Y3.248
X3.815Y2.2205
X3.9291Y2.9606
X3.9291Y2.2598
X3.9291Y0.2087
X4.2913Y0.4409
X4.2913Y0.3976
X4.2913Y0.3543
X4.311Y1.9291
X4.378Y1.9291
X4.4961Y0.4409
X4.4961Y0.3976
X4.4961Y0.3543
T3
X0.7909Y2.3583
X1.0909Y2.3583
T4
X0.2953Y3.311
X0.2953Y3.2126
X0.3016Y1.863
X0.3016Y1.763
X0.3016Y1.663
X0.3016Y1.563
X0.3016Y1.463
X0.3016Y1.363
X0.3016Y1.263
X0.3016Y1.163
X0.3016Y1.063
X0.3016Y0.963
X0.3016Y0.863
X0.3016Y0.763
X0.3016Y0.663
X0.3016Y0.563
X0.8996Y2.1969
X0.9016Y1.863
X0.9016Y1.763
X0.9016Y1.663
X0.9016Y1.563
X0.9016Y1.463
X0.9016Y1.363
X0.9016Y1.263
X0.9016Y1.163
X0.9016Y1.063
X0.9016Y0.963
X0.9016Y0.863
X0.9016Y0.763
X0.9016Y0.663
X0.9016Y0.563
X1.0917Y2.1969
X1.1726Y1.862
X1.1726Y1.762
X1.1726Y1.662
X1.1726Y1.562
X1.1726Y1.462
X1.1726Y1.362
X1.1726Y1.262
X1.1726Y1.162
X1.1726Y1.062
X1.1726Y0.962
X1.1726Y0.862
X1.1726Y0.762
X1.1726Y0.662
X1.1726Y0.562
X1.2476Y3.6146
X1.2476Y3.3146
X1.5476Y3.6146
X1.5476Y3.3146
X1.5945Y3.0118
X1.5945Y2.9331
X1.6732Y3.0118
X1.6732Y2.9331
X1.752Y3.0118
X1.752Y2.9331
X1.7726Y1.862
X1.7726Y1.762
X1.7726Y1.662
X1.7726Y1.562
X1.7726Y1.462
X1.7726Y1.362
X1.7726Y1.262
X1.7726Y1.162
X1.7726Y1.062
X1.7726Y0.962
X1.7726Y0.862
X1.7726Y0.762
X1.7726Y0.662
X1.7726Y0.562
X2.2638Y2.4341
X2.2638Y2.3341
X2.2638Y2.2341
X2.2638Y2.1341
X2.2638Y2.0341
X2.2638Y1.9341
X2.2638Y1.8341
X2.2638Y1.7341
X2.2638Y1.6341
X2.2638Y1.5341
X2.2638Y1.4341
X2.2638Y1.3341
X2.2638Y1.2341
X2.2638Y1.1341
X2.2638Y1.0341
X2.2638Y0.9341
X2.2638Y0.8341
X2.2638Y0.7341
X2.2638Y0.6341
X2.2638Y0.5341
X3.2638Y2.4341
X3.2638Y2.3341
X3.2638Y2.2341
X3.2638Y2.1341
X3.2638Y2.0341
X3.2638Y1.9341
X3.2638Y1.8341
X3.2638Y1.7341
X3.2638Y1.6341
X3.2638Y1.5341
X3.2638Y1.4341
X3.2638Y1.3341
X3.2638Y1.2341
X3.2638Y1.1341
X3.2638Y1.0341
X3.2638Y0.9341
X3.2638Y0.8341
X3.2638Y0.7341
X3.2638Y0.6341
X3.2638Y0.5341
X3.4016Y3.3976
X3.4016Y3.3189
X3.4016Y3.2402
X3.4016Y3.1614
X3.7677Y0.9409
X3.7677Y0.8622
X3.7677Y0.7835
X3.7677Y0.7047
X3.7677Y0.626
X4.2992Y2.7165
X4.2992Y2.6378
X4.2992Y2.5591
X4.2992Y2.4803
X4.2992Y2.4016
X4.2992Y2.3228
X4.2992Y2.2441
X4.2992Y2.1654
X4.2992Y1.7815
X4.2992Y1.7028
X4.2992Y1.624
X4.2992Y1.5453
X4.2992Y1.4665
X4.2992Y1.3878
X4.2992Y1.3091
X4.2992Y1.2303
X4.2992Y1.1516
X4.2992Y1.0728
X4.2992Y0.9941
X4.2992Y0.9154
X4.2992Y0.8366
X4.2992Y0.7579
X4.2992Y0.6791
X4.2992Y0.6004
X4.378Y2.7165
X4.378Y2.6378
X4.378Y2.5591
X4.378Y2.4803
X4.378Y2.4016
X4.378Y2.3228
X4.378Y2.2441
X4.378Y2.1654
X4.378Y1.7815
X4.378Y1.7028
X4.378Y1.624
X4.378Y1.5453
X4.378Y1.4665
X4.378Y1.3878
X4.378Y1.3091
X4.378Y1.2303
X4.378Y1.1516
X4.378Y1.0728
X4.378Y0.9941
X4.378Y0.9154
X4.378Y0.8366
X4.378Y0.7579
X4.378Y0.6791
X4.378Y0.6004
T5
X0.2687Y2.9518
X0.2687Y2.8518
X0.2687Y2.7518
X0.2687Y2.6518
X0.2687Y2.5518
X0.3687Y2.9518
X0.3687Y2.8518
X0.3687Y2.7518
X0.3687Y2.6518
X0.3687Y2.5518
X2.762Y3.7433
X2.8071Y3.8212
X2.8071Y3.6653
X2.8522Y3.7433
X2.8972Y3.8212
X2.8972Y3.6653
X2.9423Y3.7433
X2.9874Y3.8212
X2.9874Y3.6653
X3.0325Y3.7433
X3.0776Y3.8212
X3.0776Y3.6653
X3.1226Y3.7433
X3.1677Y3.8212
X3.1677Y3.6653
T6
X1.9685Y3.0118
X1.9685Y2.8346
X2.2244Y3.0118
X2.2244Y2.8346
X2.358Y3.0155
X2.358Y2.8384
X2.6139Y3.0155
X2.6139Y2.8384
T7
X3.7138Y3.5681
X4.2311Y3.5681
T8
X2.4848Y3.746
X3.4691Y3.746
T5
G00X0.3307Y3.6949
M15
G01X0.3307Y3.7539
M16
G05
G00X0.5335Y3.685
M15
G01X0.4823Y3.685
M16
G05
G00X0.5472Y3.4488
M15
G01X0.4685Y3.4488
M16
G05
G00X0.685Y3.6949
M15
G01X0.685Y3.7539
M16
G05
T0
M30
