%TF.GenerationSoftware,KiCad,Pcbnew,6.0.4-1.fc35*%
%TF.CreationDate,2022-04-29T14:23:32+05:30*%
%TF.ProjectId,8puter,38707574-6572-42e6-9b69-6361645f7063,rev?*%
%TF.SameCoordinates,PX63d9090PY80e2628*%
%TF.FileFunction,Soldermask,Top*%
%TF.FilePolarity,Negative*%
%FSLAX46Y46*%
G04 Gerber Fmt 4.6, Leading zero omitted, Abs format (unit mm)*
G04 Created by KiCad (PCBNEW 6.0.4-1.fc35) date 2022-04-29 14:23:32*
%MOMM*%
%LPD*%
G01*
G04 APERTURE LIST*
G04 Aperture macros list*
%AMRoundRect*
0 Rectangle with rounded corners*
0 $1 Rounding radius*
0 $2 $3 $4 $5 $6 $7 $8 $9 X,Y pos of 4 corners*
0 Add a 4 corners polygon primitive as box body*
4,1,4,$2,$3,$4,$5,$6,$7,$8,$9,$2,$3,0*
0 Add four circle primitives for the rounded corners*
1,1,$1+$1,$2,$3*
1,1,$1+$1,$4,$5*
1,1,$1+$1,$6,$7*
1,1,$1+$1,$8,$9*
0 Add four rect primitives between the rounded corners*
20,1,$1+$1,$2,$3,$4,$5,0*
20,1,$1+$1,$4,$5,$6,$7,0*
20,1,$1+$1,$6,$7,$8,$9,0*
20,1,$1+$1,$8,$9,$2,$3,0*%
G04 Aperture macros list end*
%TA.AperFunction,Profile*%
%ADD10C,0.050000*%
%TD*%
%ADD11C,3.100000*%
%ADD12RoundRect,0.300000X-0.250000X-0.475000X0.250000X-0.475000X0.250000X0.475000X-0.250000X0.475000X0*%
%ADD13RoundRect,0.300000X-0.262500X-0.450000X0.262500X-0.450000X0.262500X0.450000X-0.262500X0.450000X0*%
%ADD14RoundRect,0.300000X0.262500X0.450000X-0.262500X0.450000X-0.262500X-0.450000X0.262500X-0.450000X0*%
%ADD15RoundRect,0.050000X0.550000X-0.425000X0.550000X0.425000X-0.550000X0.425000X-0.550000X-0.425000X0*%
%ADD16RoundRect,0.050000X0.550000X-0.375000X0.550000X0.375000X-0.550000X0.375000X-0.550000X-0.375000X0*%
%ADD17RoundRect,0.050000X0.500000X-0.600000X0.500000X0.600000X-0.500000X0.600000X-0.500000X-0.600000X0*%
%ADD18RoundRect,0.050000X0.900000X-0.585000X0.900000X0.585000X-0.900000X0.585000X-0.900000X-0.585000X0*%
%ADD19RoundRect,0.050000X0.675000X-0.950000X0.675000X0.950000X-0.675000X0.950000X-0.675000X-0.950000X0*%
%ADD20RoundRect,0.050000X0.675000X-0.775000X0.675000X0.775000X-0.675000X0.775000X-0.675000X-0.775000X0*%
%ADD21C,2.100000*%
%ADD22RoundRect,0.200000X0.875000X0.150000X-0.875000X0.150000X-0.875000X-0.150000X0.875000X-0.150000X0*%
%ADD23RoundRect,0.050000X0.500000X-0.350000X0.500000X0.350000X-0.500000X0.350000X-0.500000X-0.350000X0*%
%ADD24RoundRect,0.050000X0.300000X-0.350000X0.300000X0.350000X-0.300000X0.350000X-0.300000X-0.350000X0*%
%ADD25RoundRect,0.050000X0.675000X-0.675000X0.675000X0.675000X-0.675000X0.675000X-0.675000X-0.675000X0*%
%ADD26O,1.450000X1.450000*%
%ADD27RoundRect,0.300000X-0.450000X0.262500X-0.450000X-0.262500X0.450000X-0.262500X0.450000X0.262500X0*%
%ADD28RoundRect,0.050000X-1.200000X-0.800000X1.200000X-0.800000X1.200000X0.800000X-1.200000X0.800000X0*%
%ADD29O,2.500000X1.700000*%
%ADD30RoundRect,0.300000X0.450000X-0.262500X0.450000X0.262500X-0.450000X0.262500X-0.450000X-0.262500X0*%
%ADD31RoundRect,0.300000X0.250000X0.475000X-0.250000X0.475000X-0.250000X-0.475000X0.250000X-0.475000X0*%
%ADD32RoundRect,0.300000X-0.475000X0.250000X-0.475000X-0.250000X0.475000X-0.250000X0.475000X0.250000X0*%
%ADD33RoundRect,0.300000X0.475000X-0.250000X0.475000X0.250000X-0.475000X0.250000X-0.475000X-0.250000X0*%
%ADD34RoundRect,0.050000X-1.000000X-0.750000X1.000000X-0.750000X1.000000X0.750000X-1.000000X0.750000X0*%
%ADD35RoundRect,0.050000X-1.000000X-1.900000X1.000000X-1.900000X1.000000X1.900000X-1.000000X1.900000X0*%
%ADD36RoundRect,0.050000X-0.675000X-0.675000X0.675000X-0.675000X0.675000X0.675000X-0.675000X0.675000X0*%
%ADD37RoundRect,0.050000X-0.750000X-0.260000X0.750000X-0.260000X0.750000X0.260000X-0.750000X0.260000X0*%
%ADD38RoundRect,0.050000X-0.260000X-0.750000X0.260000X-0.750000X0.260000X0.750000X-0.260000X0.750000X0*%
%ADD39RoundRect,0.050000X-0.800000X-0.800000X0.800000X-0.800000X0.800000X0.800000X-0.800000X0.800000X0*%
%ADD40C,1.700000*%
%ADD41RoundRect,0.050000X-0.260000X0.750000X-0.260000X-0.750000X0.260000X-0.750000X0.260000X0.750000X0*%
%ADD42RoundRect,0.050000X-0.750000X0.260000X-0.750000X-0.260000X0.750000X-0.260000X0.750000X0.260000X0*%
%ADD43RoundRect,0.150000X-0.100000X0.637500X-0.100000X-0.637500X0.100000X-0.637500X0.100000X0.637500X0*%
%ADD44RoundRect,0.293750X0.243750X0.456250X-0.243750X0.456250X-0.243750X-0.456250X0.243750X-0.456250X0*%
%ADD45C,4.100000*%
%ADD46RoundRect,0.050000X0.800000X0.800000X-0.800000X0.800000X-0.800000X-0.800000X0.800000X-0.800000X0*%
%ADD47RoundRect,0.050000X0.675000X0.675000X-0.675000X0.675000X-0.675000X-0.675000X0.675000X-0.675000X0*%
%ADD48RoundRect,0.200000X0.150000X-0.825000X0.150000X0.825000X-0.150000X0.825000X-0.150000X-0.825000X0*%
%ADD49RoundRect,0.050000X0.225000X-0.875000X0.225000X0.875000X-0.225000X0.875000X-0.225000X-0.875000X0*%
%ADD50RoundRect,0.050000X0.275000X-0.750000X0.275000X0.750000X-0.275000X0.750000X-0.275000X-0.750000X0*%
%ADD51RoundRect,0.050000X0.750000X0.275000X-0.750000X0.275000X-0.750000X-0.275000X0.750000X-0.275000X0*%
%ADD52RoundRect,0.050000X2.000000X1.000000X-2.000000X1.000000X-2.000000X-1.000000X2.000000X-1.000000X0*%
%ADD53O,3.400000X2.100000*%
%ADD54O,2.100000X3.600000*%
%ADD55RoundRect,0.050000X1.000000X0.750000X-1.000000X0.750000X-1.000000X-0.750000X1.000000X-0.750000X0*%
%ADD56RoundRect,0.050000X1.000000X1.900000X-1.000000X1.900000X-1.000000X-1.900000X1.000000X-1.900000X0*%
%ADD57RoundRect,0.050000X-0.675000X0.675000X-0.675000X-0.675000X0.675000X-0.675000X0.675000X0.675000X0*%
%ADD58RoundRect,0.150000X0.100000X-0.637500X0.100000X0.637500X-0.100000X0.637500X-0.100000X-0.637500X0*%
%ADD59RoundRect,0.050000X0.625000X1.500000X-0.625000X1.500000X-0.625000X-1.500000X0.625000X-1.500000X0*%
G04 APERTURE END LIST*
D10*
X100000000Y98000000D02*
X100000000Y2000000D01*
X2000000Y100000000D02*
G75*
G03*
X0Y98000000I0J-2000000D01*
G01*
X0Y2000000D02*
G75*
G03*
X2000000Y0I2000000J0D01*
G01*
X97985786Y0D02*
X2000000Y0D01*
X2000000Y100000000D02*
X98000000Y100000000D01*
X100000000Y98000000D02*
G75*
G03*
X98000000Y100000000I-2000000J0D01*
G01*
X0Y2000000D02*
X0Y98000000D01*
X97985786Y-50D02*
G75*
G03*
X100000000Y2000000I14J2014250D01*
G01*
X100000000Y98000000D02*
X100000000Y2000000D01*
X2000000Y100000000D02*
G75*
G03*
X0Y98000000I0J-2000000D01*
G01*
X0Y2000000D02*
G75*
G03*
X2000000Y0I2000000J0D01*
G01*
X97985786Y0D02*
X2000000Y0D01*
X2000000Y100000000D02*
X98000000Y100000000D01*
X100000000Y98000000D02*
G75*
G03*
X98000000Y100000000I-2000000J0D01*
G01*
X0Y2000000D02*
X0Y98000000D01*
X97985786Y-50D02*
G75*
G03*
X100000000Y2000000I14J2014250D01*
G01*
D11*
%TO.C,*%
X39532000Y96985000D03*
%TD*%
%TO.C,*%
X96792000Y96945000D03*
%TD*%
%TO.C,*%
X3192000Y3065000D03*
%TD*%
%TO.C,*%
X96782000Y3055000D03*
%TD*%
D12*
%TO.C,C15*%
X19350000Y12830000D03*
X21250000Y12830000D03*
%TD*%
D13*
%TO.C,R30*%
X34825000Y84176250D03*
X36650000Y84176250D03*
%TD*%
D14*
%TO.C,R22*%
X38200000Y15800000D03*
X36375000Y15800000D03*
%TD*%
D15*
%TO.C,SDCARD1*%
X1315000Y64515000D03*
X1315000Y65615000D03*
X1315000Y66715000D03*
X1315000Y67815000D03*
X1315000Y68915000D03*
X1315000Y70015000D03*
X1315000Y71115000D03*
D16*
X1315000Y72165000D03*
D17*
X7465000Y61880000D03*
X11165000Y61880000D03*
D18*
X1665000Y73375000D03*
D19*
X12140000Y71350000D03*
D20*
X1440000Y62055000D03*
D19*
X12140000Y65380000D03*
%TD*%
D21*
%TO.C,RESET_SW1*%
X43894214Y75644214D03*
X50394214Y75644214D03*
X43894214Y71144214D03*
X50394214Y71144214D03*
%TD*%
D22*
%TO.C,ROM1*%
X28650000Y16045000D03*
X28650000Y17315000D03*
X28650000Y18585000D03*
X28650000Y19855000D03*
X28650000Y21125000D03*
X28650000Y22395000D03*
X28650000Y23665000D03*
X28650000Y24935000D03*
X28650000Y26205000D03*
X28650000Y27475000D03*
X28650000Y28745000D03*
X28650000Y30015000D03*
X28650000Y31285000D03*
X28650000Y32555000D03*
X19350000Y32555000D03*
X19350000Y31285000D03*
X19350000Y30015000D03*
X19350000Y28745000D03*
X19350000Y27475000D03*
X19350000Y26205000D03*
X19350000Y24935000D03*
X19350000Y23665000D03*
X19350000Y22395000D03*
X19350000Y21125000D03*
X19350000Y19855000D03*
X19350000Y18585000D03*
X19350000Y17315000D03*
X19350000Y16045000D03*
%TD*%
D23*
%TO.C,U6*%
X49450005Y78900012D03*
D24*
X51150005Y78900012D03*
X51150005Y80900012D03*
X49250005Y80900012D03*
%TD*%
D25*
%TO.C,ROM_WRITE1*%
X20750000Y2850000D03*
D26*
X22750000Y2850000D03*
X24750000Y2850000D03*
%TD*%
D27*
%TO.C,R28*%
X57000000Y5525000D03*
X57000000Y3700000D03*
%TD*%
D14*
%TO.C,R16*%
X38200000Y31200000D03*
X36375000Y31200000D03*
%TD*%
%TO.C,R13*%
X38200000Y38800000D03*
X36375000Y38800000D03*
%TD*%
D28*
%TO.C,CPU1*%
X41500005Y61625012D03*
D29*
X41500005Y59085012D03*
X41500005Y56545012D03*
X41500005Y54005012D03*
X41500005Y51465012D03*
X41500005Y48925012D03*
X41500005Y46385012D03*
X41500005Y43845012D03*
X41500005Y41305012D03*
X41500005Y38765012D03*
X41500005Y36225012D03*
X41500005Y33685012D03*
X41500005Y31145012D03*
X41500005Y28605012D03*
X41500005Y26065012D03*
X41500005Y23525012D03*
X41500005Y20985012D03*
X41500005Y18445012D03*
X41500005Y15905012D03*
X41500005Y13365012D03*
X66900005Y13365012D03*
X66900005Y15905012D03*
X66900005Y18445012D03*
X66900005Y20985012D03*
X66900005Y23525012D03*
X66900005Y26065012D03*
X66900005Y28605012D03*
X66900005Y31145012D03*
X66900005Y33685012D03*
X66900005Y36225012D03*
X66900005Y38765012D03*
X66900005Y41305012D03*
X66900005Y43845012D03*
X66900005Y46385012D03*
X66900005Y48925012D03*
X66900005Y51465012D03*
X66900005Y54005012D03*
X66900005Y56545012D03*
X66900005Y59085012D03*
X66900005Y61625012D03*
%TD*%
D27*
%TO.C,R32*%
X68082000Y87952500D03*
X68082000Y89777500D03*
%TD*%
D30*
%TO.C,R11*%
X8850000Y35007500D03*
X8850000Y36832500D03*
%TD*%
D31*
%TO.C,C8*%
X17192000Y96105000D03*
X15292000Y96105000D03*
%TD*%
D32*
%TO.C,C2*%
X35774219Y43824226D03*
X35774219Y41924226D03*
%TD*%
D33*
%TO.C,C9*%
X29050000Y94626250D03*
X29050000Y96526250D03*
%TD*%
D14*
%TO.C,R19*%
X38200000Y23500000D03*
X36375000Y23500000D03*
%TD*%
D33*
%TO.C,C21*%
X71400000Y60500000D03*
X71400000Y62400000D03*
%TD*%
D34*
%TO.C,REG2*%
X44900000Y88950000D03*
D35*
X51200000Y86650000D03*
D34*
X44900000Y86650000D03*
X44900000Y84350000D03*
%TD*%
D36*
%TO.C,PERIPHERAL1*%
X93200000Y68800000D03*
D26*
X95200000Y68800000D03*
X93200000Y66800000D03*
X95200000Y66800000D03*
X93200000Y64800000D03*
X95200000Y64800000D03*
X93200000Y62800000D03*
X95200000Y62800000D03*
X93200000Y60800000D03*
X95200000Y60800000D03*
X93200000Y58800000D03*
X95200000Y58800000D03*
X93200000Y56800000D03*
X95200000Y56800000D03*
X93200000Y54800000D03*
X95200000Y54800000D03*
%TD*%
D37*
%TO.C,SERC1*%
X6640000Y56250000D03*
X6640000Y55450000D03*
X6640000Y54650000D03*
X6640000Y53850000D03*
X6640000Y53050000D03*
X6640000Y52250000D03*
X6640000Y51450000D03*
X6640000Y50650000D03*
X6640000Y49850000D03*
X6640000Y49050000D03*
X6640000Y48250000D03*
D38*
X8690000Y46200000D03*
X9490000Y46200000D03*
X10290000Y46200000D03*
X11090000Y46200000D03*
X11890000Y46200000D03*
X12690000Y46200000D03*
X13490000Y46200000D03*
X14290000Y46200000D03*
X15090000Y46200000D03*
X15890000Y46200000D03*
X16690000Y46200000D03*
D37*
X18740000Y48250000D03*
X18740000Y49050000D03*
X18740000Y49850000D03*
X18740000Y50650000D03*
X18740000Y51450000D03*
X18740000Y52250000D03*
X18740000Y53050000D03*
X18740000Y53850000D03*
X18740000Y54650000D03*
X18740000Y55450000D03*
X18740000Y56250000D03*
D38*
X16690000Y58300000D03*
X15890000Y58300000D03*
X15090000Y58300000D03*
X14290000Y58300000D03*
X13490000Y58300000D03*
X12690000Y58300000D03*
X11890000Y58300000D03*
X11090000Y58300000D03*
X10290000Y58300000D03*
X9490000Y58300000D03*
X8690000Y58300000D03*
%TD*%
D27*
%TO.C,R34*%
X61552000Y87952500D03*
X61552000Y89777500D03*
%TD*%
D36*
%TO.C,PROG1*%
X74552000Y82245000D03*
D26*
X74552000Y80245000D03*
X74552000Y78245000D03*
X74552000Y76245000D03*
X74552000Y74245000D03*
%TD*%
D12*
%TO.C,C16*%
X4000000Y12810000D03*
X5900000Y12810000D03*
%TD*%
%TO.C,C17*%
X19132000Y96105000D03*
X21032000Y96105000D03*
%TD*%
D39*
%TO.C,C3*%
X11744888Y78290000D03*
D40*
X14244888Y78290000D03*
%TD*%
D41*
%TO.C,PRP1*%
X83900005Y63250012D03*
X83100005Y63250012D03*
X82300005Y63250012D03*
X81500005Y63250012D03*
X80700005Y63250012D03*
X79900005Y63250012D03*
X79100005Y63250012D03*
X78300005Y63250012D03*
X77500005Y63250012D03*
X76700005Y63250012D03*
X75900005Y63250012D03*
D42*
X73850005Y61200012D03*
X73850005Y60400012D03*
X73850005Y59600012D03*
X73850005Y58800012D03*
X73850005Y58000012D03*
X73850005Y57200012D03*
X73850005Y56400012D03*
X73850005Y55600012D03*
X73850005Y54800012D03*
X73850005Y54000012D03*
X73850005Y53200012D03*
D41*
X75900005Y51150012D03*
X76700005Y51150012D03*
X77500005Y51150012D03*
X78300005Y51150012D03*
X79100005Y51150012D03*
X79900005Y51150012D03*
X80700005Y51150012D03*
X81500005Y51150012D03*
X82300005Y51150012D03*
X83100005Y51150012D03*
X83900005Y51150012D03*
D42*
X85950005Y53200012D03*
X85950005Y54000012D03*
X85950005Y54800012D03*
X85950005Y55600012D03*
X85950005Y56400012D03*
X85950005Y57200012D03*
X85950005Y58000012D03*
X85950005Y58800012D03*
X85950005Y59600012D03*
X85950005Y60400012D03*
X85950005Y61200012D03*
%TD*%
D13*
%TO.C,R2*%
X16187500Y2300000D03*
X18012500Y2300000D03*
%TD*%
D43*
%TO.C,U1*%
X74900000Y21712500D03*
X74250000Y21712500D03*
X73600000Y21712500D03*
X72950000Y21712500D03*
X72300000Y21712500D03*
X71650000Y21712500D03*
X71000000Y21712500D03*
X71000000Y15987500D03*
X71650000Y15987500D03*
X72300000Y15987500D03*
X72950000Y15987500D03*
X73600000Y15987500D03*
X74250000Y15987500D03*
X74900000Y15987500D03*
%TD*%
D44*
%TO.C,D1*%
X19060000Y74610000D03*
X17185000Y74610000D03*
%TD*%
D14*
%TO.C,R18*%
X38200000Y26100000D03*
X36375000Y26100000D03*
%TD*%
%TO.C,R6*%
X15207500Y37610000D03*
X13382500Y37610000D03*
%TD*%
D45*
%TO.C,VGA1*%
X72115000Y94949669D03*
X47115000Y94949669D03*
D46*
X55300000Y92899669D03*
D40*
X57590000Y92899669D03*
X59880000Y92899669D03*
X62170000Y92899669D03*
X64460000Y92899669D03*
X54155000Y94879669D03*
X56445000Y94879669D03*
X58735000Y94879669D03*
X61025000Y94879669D03*
X63315000Y94879669D03*
X55300000Y96859669D03*
X57590000Y96859669D03*
X59880000Y96859669D03*
X62170000Y96859669D03*
X64460000Y96859669D03*
%TD*%
D27*
%TO.C,R33*%
X63802000Y87952500D03*
X63802000Y89777500D03*
%TD*%
D14*
%TO.C,R15*%
X38200000Y33700000D03*
X36375000Y33700000D03*
%TD*%
D27*
%TO.C,R4*%
X59492000Y87952500D03*
X59492000Y89777500D03*
%TD*%
D47*
%TO.C,SPI1*%
X2100000Y47260000D03*
D26*
X2100000Y49260000D03*
X2100000Y51260000D03*
X2100000Y53260000D03*
X2100000Y55260000D03*
X2100000Y57260000D03*
%TD*%
D32*
%TO.C,C4*%
X38574219Y43824226D03*
X38574219Y41924226D03*
%TD*%
D36*
%TO.C,DEBUG1*%
X93200000Y45050000D03*
D26*
X95200000Y45050000D03*
X93200000Y43050000D03*
X95200000Y43050000D03*
X93200000Y41050000D03*
X95200000Y41050000D03*
X93200000Y39050000D03*
X95200000Y39050000D03*
X93200000Y37050000D03*
X95200000Y37050000D03*
X93200000Y35050000D03*
X95200000Y35050000D03*
X93200000Y33050000D03*
X95200000Y33050000D03*
X93200000Y31050000D03*
X95200000Y31050000D03*
X93200000Y29050000D03*
X95200000Y29050000D03*
X93200000Y27050000D03*
X95200000Y27050000D03*
X93200000Y25050000D03*
X95200000Y25050000D03*
X93200000Y23050000D03*
X95200000Y23050000D03*
X93200000Y21050000D03*
X95200000Y21050000D03*
X93200000Y19050000D03*
X95200000Y19050000D03*
X93200000Y17050000D03*
X95200000Y17050000D03*
X93200000Y15050000D03*
X95200000Y15050000D03*
%TD*%
D48*
%TO.C,U3*%
X23040000Y62602500D03*
X24310000Y62602500D03*
X25580000Y62602500D03*
X26850000Y62602500D03*
X28120000Y62602500D03*
X29390000Y62602500D03*
X30660000Y62602500D03*
X30660000Y67552500D03*
X29390000Y67552500D03*
X28120000Y67552500D03*
X26850000Y67552500D03*
X25580000Y67552500D03*
X24310000Y67552500D03*
X23040000Y67552500D03*
%TD*%
D27*
%TO.C,R27*%
X59300000Y5512500D03*
X59300000Y3687500D03*
%TD*%
D14*
%TO.C,R23*%
X38200000Y13300000D03*
X36375000Y13300000D03*
%TD*%
%TO.C,R24*%
X38200000Y10500000D03*
X36375000Y10500000D03*
%TD*%
D49*
%TO.C,USB1*%
X81825000Y72950000D03*
X82475000Y72950000D03*
X83125000Y72950000D03*
X83775000Y72950000D03*
X84425000Y72950000D03*
X85075000Y72950000D03*
X85725000Y72950000D03*
X86375000Y72950000D03*
X87025000Y72950000D03*
X87675000Y72950000D03*
X88325000Y72950000D03*
X88975000Y72950000D03*
X89625000Y72950000D03*
X90275000Y72950000D03*
X90275000Y80150000D03*
X89625000Y80150000D03*
X88975000Y80150000D03*
X88325000Y80150000D03*
X87675000Y80150000D03*
X87025000Y80150000D03*
X86375000Y80150000D03*
X85725000Y80150000D03*
X85075000Y80150000D03*
X84425000Y80150000D03*
X83775000Y80150000D03*
X83125000Y80150000D03*
X82475000Y80150000D03*
X81825000Y80150000D03*
%TD*%
D31*
%TO.C,C11*%
X46394219Y79200000D03*
X44494219Y79200000D03*
%TD*%
D14*
%TO.C,R17*%
X38200000Y28600000D03*
X36375000Y28600000D03*
%TD*%
D27*
%TO.C,R1*%
X70072000Y87952500D03*
X70072000Y89777500D03*
%TD*%
D30*
%TO.C,R9*%
X4350000Y35007500D03*
X4350000Y36832500D03*
%TD*%
%TO.C,R10*%
X6600000Y35007500D03*
X6600000Y36832500D03*
%TD*%
D14*
%TO.C,R35*%
X69917000Y81565000D03*
X71742000Y81565000D03*
%TD*%
%TO.C,R29*%
X19047500Y72200000D03*
X17222500Y72200000D03*
%TD*%
D33*
%TO.C,C6*%
X42244226Y87600000D03*
X42244226Y89500000D03*
%TD*%
D31*
%TO.C,C22*%
X79002000Y84765000D03*
X77102000Y84765000D03*
%TD*%
D27*
%TO.C,R25*%
X63900000Y5512500D03*
X63900000Y3687500D03*
%TD*%
D12*
%TO.C,C18*%
X34787500Y88376250D03*
X36687500Y88376250D03*
%TD*%
%TO.C,C13*%
X71779500Y78245000D03*
X69879500Y78245000D03*
%TD*%
%TO.C,C14*%
X71779500Y84795000D03*
X69879500Y84795000D03*
%TD*%
D22*
%TO.C,RAM1*%
X13400000Y16040000D03*
X13400000Y17310000D03*
X13400000Y18580000D03*
X13400000Y19850000D03*
X13400000Y21120000D03*
X13400000Y22390000D03*
X13400000Y23660000D03*
X13400000Y24930000D03*
X13400000Y26200000D03*
X13400000Y27470000D03*
X13400000Y28740000D03*
X13400000Y30010000D03*
X13400000Y31280000D03*
X13400000Y32550000D03*
X4100000Y32550000D03*
X4100000Y31280000D03*
X4100000Y30010000D03*
X4100000Y28740000D03*
X4100000Y27470000D03*
X4100000Y26200000D03*
X4100000Y24930000D03*
X4100000Y23660000D03*
X4100000Y22390000D03*
X4100000Y21120000D03*
X4100000Y19850000D03*
X4100000Y18580000D03*
X4100000Y17310000D03*
X4100000Y16040000D03*
%TD*%
D50*
%TO.C,VIDEO1*%
X57642000Y72555000D03*
X58442000Y72555000D03*
X59242000Y72555000D03*
X60042000Y72555000D03*
X60842000Y72555000D03*
X61642000Y72555000D03*
X62442000Y72555000D03*
X63242000Y72555000D03*
X64042000Y72555000D03*
X64842000Y72555000D03*
X65642000Y72555000D03*
D51*
X67342000Y74255000D03*
X67342000Y75055000D03*
X67342000Y75855000D03*
X67342000Y76655000D03*
X67342000Y77455000D03*
X67342000Y78255000D03*
X67342000Y79055000D03*
X67342000Y79855000D03*
X67342000Y80655000D03*
X67342000Y81455000D03*
X67342000Y82255000D03*
D50*
X65642000Y83955000D03*
X64842000Y83955000D03*
X64042000Y83955000D03*
X63242000Y83955000D03*
X62442000Y83955000D03*
X61642000Y83955000D03*
X60842000Y83955000D03*
X60042000Y83955000D03*
X59242000Y83955000D03*
X58442000Y83955000D03*
X57642000Y83955000D03*
D51*
X55942000Y82255000D03*
X55942000Y81455000D03*
X55942000Y80655000D03*
X55942000Y79855000D03*
X55942000Y79055000D03*
X55942000Y78255000D03*
X55942000Y77455000D03*
X55942000Y76655000D03*
X55942000Y75855000D03*
X55942000Y75055000D03*
X55942000Y74255000D03*
%TD*%
D40*
%TO.C,J1*%
X8320000Y96460000D03*
D52*
X8320000Y87460000D03*
D53*
X8320000Y93460000D03*
D54*
X12820000Y94460000D03*
X3820000Y94460000D03*
%TD*%
D21*
%TO.C,STEP_SW1*%
X40500000Y71155774D03*
X34000000Y71155774D03*
X34000000Y75655774D03*
X40500000Y75655774D03*
%TD*%
D55*
%TO.C,REG1*%
X8250000Y78280000D03*
D56*
X1950000Y80580000D03*
D55*
X8250000Y80580000D03*
X8250000Y82880000D03*
%TD*%
D27*
%TO.C,R26*%
X61600000Y5512500D03*
X61600000Y3687500D03*
%TD*%
D33*
%TO.C,C7*%
X40100000Y87600000D03*
X40100000Y89500000D03*
%TD*%
D14*
%TO.C,R20*%
X38200000Y20900000D03*
X36375000Y20900000D03*
%TD*%
D27*
%TO.C,R3*%
X65822000Y87952500D03*
X65822000Y89777500D03*
%TD*%
D14*
%TO.C,R14*%
X38200000Y36200000D03*
X36375000Y36200000D03*
%TD*%
D57*
%TO.C,CS_SEL1*%
X29950000Y76326250D03*
D26*
X29950000Y74326250D03*
X27950000Y76326250D03*
X27950000Y74326250D03*
X25950000Y76326250D03*
X25950000Y74326250D03*
%TD*%
D30*
%TO.C,R8*%
X2072500Y35007500D03*
X2072500Y36832500D03*
%TD*%
D58*
%TO.C,U2*%
X29000000Y84963750D03*
X29650000Y84963750D03*
X30300000Y84963750D03*
X30950000Y84963750D03*
X31600000Y84963750D03*
X32250000Y84963750D03*
X32900000Y84963750D03*
X32900000Y90688750D03*
X32250000Y90688750D03*
X31600000Y90688750D03*
X30950000Y90688750D03*
X30300000Y90688750D03*
X29650000Y90688750D03*
X29000000Y90688750D03*
%TD*%
D14*
%TO.C,R21*%
X38200000Y18400000D03*
X36375000Y18400000D03*
%TD*%
%TO.C,R5*%
X15207500Y39990000D03*
X13382500Y39990000D03*
%TD*%
D12*
%TO.C,C12*%
X67162000Y70365000D03*
X69062000Y70365000D03*
%TD*%
D14*
%TO.C,R31*%
X36650000Y86276250D03*
X34825000Y86276250D03*
%TD*%
D12*
%TO.C,C10*%
X9190000Y43350000D03*
X11090000Y43350000D03*
%TD*%
D33*
%TO.C,C23*%
X55392000Y86685000D03*
X55392000Y88585000D03*
%TD*%
D59*
%TO.C,USB_P1*%
X88400000Y86750000D03*
X85900000Y86750000D03*
X83900000Y86750000D03*
X81400000Y86750000D03*
D11*
X78330000Y90430000D03*
X91470000Y90430000D03*
%TD*%
D12*
%TO.C,C1*%
X10800000Y82910000D03*
X12700000Y82910000D03*
%TD*%
D14*
%TO.C,R7*%
X15207500Y35180000D03*
X13382500Y35180000D03*
%TD*%
D30*
%TO.C,R12*%
X11102500Y35007500D03*
X11102500Y36832500D03*
%TD*%
D32*
%TO.C,C5*%
X42250000Y84400000D03*
X42250000Y82500000D03*
%TD*%
D39*
%TO.C,X1*%
X17210000Y83990000D03*
D40*
X24830000Y83990000D03*
X24830000Y91610000D03*
X17210000Y91610000D03*
%TD*%
G36*
X74470754Y16712614D02*
G01*
X74486543Y16696853D01*
X74548611Y16663031D01*
X74618889Y16668119D01*
X74663676Y16696959D01*
X74679126Y16712435D01*
X74681057Y16712954D01*
X74682472Y16711541D01*
X74682204Y16709911D01*
X74663303Y16681624D01*
X74652000Y16624801D01*
X74652000Y15350199D01*
X74663303Y15293376D01*
X74682322Y15264912D01*
X74682453Y15262916D01*
X74680790Y15261805D01*
X74679246Y15262386D01*
X74663457Y15278147D01*
X74601389Y15311969D01*
X74531111Y15306881D01*
X74486324Y15278041D01*
X74470874Y15262565D01*
X74468943Y15262046D01*
X74467528Y15263459D01*
X74467796Y15265089D01*
X74486697Y15293376D01*
X74498000Y15350199D01*
X74498000Y16624801D01*
X74486697Y16681624D01*
X74467678Y16710088D01*
X74467547Y16712084D01*
X74469210Y16713195D01*
X74470754Y16712614D01*
G37*
G36*
X73820754Y16712614D02*
G01*
X73836543Y16696853D01*
X73898611Y16663031D01*
X73968889Y16668119D01*
X74013676Y16696959D01*
X74029126Y16712435D01*
X74031057Y16712954D01*
X74032472Y16711541D01*
X74032204Y16709911D01*
X74013303Y16681624D01*
X74002000Y16624801D01*
X74002000Y15350199D01*
X74013303Y15293376D01*
X74032322Y15264912D01*
X74032453Y15262916D01*
X74030790Y15261805D01*
X74029246Y15262386D01*
X74013457Y15278147D01*
X73951389Y15311969D01*
X73881111Y15306881D01*
X73836324Y15278041D01*
X73820874Y15262565D01*
X73818943Y15262046D01*
X73817528Y15263459D01*
X73817796Y15265089D01*
X73836697Y15293376D01*
X73848000Y15350199D01*
X73848000Y16624801D01*
X73836697Y16681624D01*
X73817678Y16710088D01*
X73817547Y16712084D01*
X73819210Y16713195D01*
X73820754Y16712614D01*
G37*
G36*
X73170754Y16712614D02*
G01*
X73186543Y16696853D01*
X73248611Y16663031D01*
X73318889Y16668119D01*
X73363676Y16696959D01*
X73379126Y16712435D01*
X73381057Y16712954D01*
X73382472Y16711541D01*
X73382204Y16709911D01*
X73363303Y16681624D01*
X73352000Y16624801D01*
X73352000Y15350199D01*
X73363303Y15293376D01*
X73382322Y15264912D01*
X73382453Y15262916D01*
X73380790Y15261805D01*
X73379246Y15262386D01*
X73363457Y15278147D01*
X73301389Y15311969D01*
X73231111Y15306881D01*
X73186324Y15278041D01*
X73170874Y15262565D01*
X73168943Y15262046D01*
X73167528Y15263459D01*
X73167796Y15265089D01*
X73186697Y15293376D01*
X73198000Y15350199D01*
X73198000Y16624801D01*
X73186697Y16681624D01*
X73167678Y16710088D01*
X73167547Y16712084D01*
X73169210Y16713195D01*
X73170754Y16712614D01*
G37*
G36*
X71220754Y16712614D02*
G01*
X71236543Y16696853D01*
X71298611Y16663031D01*
X71368889Y16668119D01*
X71413676Y16696959D01*
X71429126Y16712435D01*
X71431057Y16712954D01*
X71432472Y16711541D01*
X71432204Y16709911D01*
X71413303Y16681624D01*
X71402000Y16624801D01*
X71402000Y15350199D01*
X71413303Y15293376D01*
X71432322Y15264912D01*
X71432453Y15262916D01*
X71430790Y15261805D01*
X71429246Y15262386D01*
X71413457Y15278147D01*
X71351389Y15311969D01*
X71281111Y15306881D01*
X71236324Y15278041D01*
X71220874Y15262565D01*
X71218943Y15262046D01*
X71217528Y15263459D01*
X71217796Y15265089D01*
X71236697Y15293376D01*
X71248000Y15350199D01*
X71248000Y16624801D01*
X71236697Y16681624D01*
X71217678Y16710088D01*
X71217547Y16712084D01*
X71219210Y16713195D01*
X71220754Y16712614D01*
G37*
G36*
X72520754Y16712614D02*
G01*
X72536543Y16696853D01*
X72598611Y16663031D01*
X72668889Y16668119D01*
X72713676Y16696959D01*
X72729126Y16712435D01*
X72731057Y16712954D01*
X72732472Y16711541D01*
X72732204Y16709911D01*
X72713303Y16681624D01*
X72702000Y16624801D01*
X72702000Y15350199D01*
X72713303Y15293376D01*
X72732322Y15264912D01*
X72732453Y15262916D01*
X72730790Y15261805D01*
X72729246Y15262386D01*
X72713457Y15278147D01*
X72651389Y15311969D01*
X72581111Y15306881D01*
X72536324Y15278041D01*
X72520874Y15262565D01*
X72518943Y15262046D01*
X72517528Y15263459D01*
X72517796Y15265089D01*
X72536697Y15293376D01*
X72548000Y15350199D01*
X72548000Y16624801D01*
X72536697Y16681624D01*
X72517678Y16710088D01*
X72517547Y16712084D01*
X72519210Y16713195D01*
X72520754Y16712614D01*
G37*
G36*
X71870754Y16712614D02*
G01*
X71886543Y16696853D01*
X71948611Y16663031D01*
X72018889Y16668119D01*
X72063676Y16696959D01*
X72079126Y16712435D01*
X72081057Y16712954D01*
X72082472Y16711541D01*
X72082204Y16709911D01*
X72063303Y16681624D01*
X72052000Y16624801D01*
X72052000Y15350199D01*
X72063303Y15293376D01*
X72082322Y15264912D01*
X72082453Y15262916D01*
X72080790Y15261805D01*
X72079246Y15262386D01*
X72063457Y15278147D01*
X72001389Y15311969D01*
X71931111Y15306881D01*
X71886324Y15278041D01*
X71870874Y15262565D01*
X71868943Y15262046D01*
X71867528Y15263459D01*
X71867796Y15265089D01*
X71886697Y15293376D01*
X71898000Y15350199D01*
X71898000Y16624801D01*
X71886697Y16681624D01*
X71867678Y16710088D01*
X71867547Y16712084D01*
X71869210Y16713195D01*
X71870754Y16712614D01*
G37*
G36*
X73170754Y22437614D02*
G01*
X73186543Y22421853D01*
X73248611Y22388031D01*
X73318889Y22393119D01*
X73363676Y22421959D01*
X73379126Y22437435D01*
X73381057Y22437954D01*
X73382472Y22436541D01*
X73382204Y22434911D01*
X73363303Y22406624D01*
X73352000Y22349801D01*
X73352000Y21075199D01*
X73363303Y21018376D01*
X73382322Y20989912D01*
X73382453Y20987916D01*
X73380790Y20986805D01*
X73379246Y20987386D01*
X73363457Y21003147D01*
X73301389Y21036969D01*
X73231111Y21031881D01*
X73186324Y21003041D01*
X73170874Y20987565D01*
X73168943Y20987046D01*
X73167528Y20988459D01*
X73167796Y20990089D01*
X73186697Y21018376D01*
X73198000Y21075199D01*
X73198000Y22349801D01*
X73186697Y22406624D01*
X73167678Y22435088D01*
X73167547Y22437084D01*
X73169210Y22438195D01*
X73170754Y22437614D01*
G37*
G36*
X74470754Y22437614D02*
G01*
X74486543Y22421853D01*
X74548611Y22388031D01*
X74618889Y22393119D01*
X74663676Y22421959D01*
X74679126Y22437435D01*
X74681057Y22437954D01*
X74682472Y22436541D01*
X74682204Y22434911D01*
X74663303Y22406624D01*
X74652000Y22349801D01*
X74652000Y21075199D01*
X74663303Y21018376D01*
X74682322Y20989912D01*
X74682453Y20987916D01*
X74680790Y20986805D01*
X74679246Y20987386D01*
X74663457Y21003147D01*
X74601389Y21036969D01*
X74531111Y21031881D01*
X74486324Y21003041D01*
X74470874Y20987565D01*
X74468943Y20987046D01*
X74467528Y20988459D01*
X74467796Y20990089D01*
X74486697Y21018376D01*
X74498000Y21075199D01*
X74498000Y22349801D01*
X74486697Y22406624D01*
X74467678Y22435088D01*
X74467547Y22437084D01*
X74469210Y22438195D01*
X74470754Y22437614D01*
G37*
G36*
X73820754Y22437614D02*
G01*
X73836543Y22421853D01*
X73898611Y22388031D01*
X73968889Y22393119D01*
X74013676Y22421959D01*
X74029126Y22437435D01*
X74031057Y22437954D01*
X74032472Y22436541D01*
X74032204Y22434911D01*
X74013303Y22406624D01*
X74002000Y22349801D01*
X74002000Y21075199D01*
X74013303Y21018376D01*
X74032322Y20989912D01*
X74032453Y20987916D01*
X74030790Y20986805D01*
X74029246Y20987386D01*
X74013457Y21003147D01*
X73951389Y21036969D01*
X73881111Y21031881D01*
X73836324Y21003041D01*
X73820874Y20987565D01*
X73818943Y20987046D01*
X73817528Y20988459D01*
X73817796Y20990089D01*
X73836697Y21018376D01*
X73848000Y21075199D01*
X73848000Y22349801D01*
X73836697Y22406624D01*
X73817678Y22435088D01*
X73817547Y22437084D01*
X73819210Y22438195D01*
X73820754Y22437614D01*
G37*
G36*
X72520754Y22437614D02*
G01*
X72536543Y22421853D01*
X72598611Y22388031D01*
X72668889Y22393119D01*
X72713676Y22421959D01*
X72729126Y22437435D01*
X72731057Y22437954D01*
X72732472Y22436541D01*
X72732204Y22434911D01*
X72713303Y22406624D01*
X72702000Y22349801D01*
X72702000Y21075199D01*
X72713303Y21018376D01*
X72732322Y20989912D01*
X72732453Y20987916D01*
X72730790Y20986805D01*
X72729246Y20987386D01*
X72713457Y21003147D01*
X72651389Y21036969D01*
X72581111Y21031881D01*
X72536324Y21003041D01*
X72520874Y20987565D01*
X72518943Y20987046D01*
X72517528Y20988459D01*
X72517796Y20990089D01*
X72536697Y21018376D01*
X72548000Y21075199D01*
X72548000Y22349801D01*
X72536697Y22406624D01*
X72517678Y22435088D01*
X72517547Y22437084D01*
X72519210Y22438195D01*
X72520754Y22437614D01*
G37*
G36*
X71870754Y22437614D02*
G01*
X71886543Y22421853D01*
X71948611Y22388031D01*
X72018889Y22393119D01*
X72063676Y22421959D01*
X72079126Y22437435D01*
X72081057Y22437954D01*
X72082472Y22436541D01*
X72082204Y22434911D01*
X72063303Y22406624D01*
X72052000Y22349801D01*
X72052000Y21075199D01*
X72063303Y21018376D01*
X72082322Y20989912D01*
X72082453Y20987916D01*
X72080790Y20986805D01*
X72079246Y20987386D01*
X72063457Y21003147D01*
X72001389Y21036969D01*
X71931111Y21031881D01*
X71886324Y21003041D01*
X71870874Y20987565D01*
X71868943Y20987046D01*
X71867528Y20988459D01*
X71867796Y20990089D01*
X71886697Y21018376D01*
X71898000Y21075199D01*
X71898000Y22349801D01*
X71886697Y22406624D01*
X71867678Y22435088D01*
X71867547Y22437084D01*
X71869210Y22438195D01*
X71870754Y22437614D01*
G37*
G36*
X71220754Y22437614D02*
G01*
X71236543Y22421853D01*
X71298611Y22388031D01*
X71368889Y22393119D01*
X71413676Y22421959D01*
X71429126Y22437435D01*
X71431057Y22437954D01*
X71432472Y22436541D01*
X71432204Y22434911D01*
X71413303Y22406624D01*
X71402000Y22349801D01*
X71402000Y21075199D01*
X71413303Y21018376D01*
X71432322Y20989912D01*
X71432453Y20987916D01*
X71430790Y20986805D01*
X71429246Y20987386D01*
X71413457Y21003147D01*
X71351389Y21036969D01*
X71281111Y21031881D01*
X71236324Y21003041D01*
X71220874Y20987565D01*
X71218943Y20987046D01*
X71217528Y20988459D01*
X71217796Y20990089D01*
X71236697Y21018376D01*
X71248000Y21075199D01*
X71248000Y22349801D01*
X71236697Y22406624D01*
X71217678Y22435088D01*
X71217547Y22437084D01*
X71219210Y22438195D01*
X71220754Y22437614D01*
G37*
G36*
X10592334Y46978366D02*
G01*
X10640147Y46938408D01*
X10709981Y46929636D01*
X10773628Y46960088D01*
X10782204Y46969984D01*
X10784094Y46970638D01*
X10785605Y46969328D01*
X10785677Y46968284D01*
X10782000Y46949801D01*
X10782000Y45450199D01*
X10785691Y45431645D01*
X10790612Y45424280D01*
X10790743Y45422284D01*
X10789080Y45421173D01*
X10787666Y45421634D01*
X10739853Y45461592D01*
X10670019Y45470364D01*
X10606372Y45439912D01*
X10597796Y45430016D01*
X10595906Y45429362D01*
X10594395Y45430672D01*
X10594323Y45431716D01*
X10598000Y45450199D01*
X10598000Y46949801D01*
X10594309Y46968355D01*
X10589388Y46975720D01*
X10589257Y46977716D01*
X10590920Y46978827D01*
X10592334Y46978366D01*
G37*
G36*
X8992334Y46978366D02*
G01*
X9040147Y46938408D01*
X9109981Y46929636D01*
X9173628Y46960088D01*
X9182204Y46969984D01*
X9184094Y46970638D01*
X9185605Y46969328D01*
X9185677Y46968284D01*
X9182000Y46949801D01*
X9182000Y45450199D01*
X9185691Y45431645D01*
X9190612Y45424280D01*
X9190743Y45422284D01*
X9189080Y45421173D01*
X9187666Y45421634D01*
X9139853Y45461592D01*
X9070019Y45470364D01*
X9006372Y45439912D01*
X8997796Y45430016D01*
X8995906Y45429362D01*
X8994395Y45430672D01*
X8994323Y45431716D01*
X8998000Y45450199D01*
X8998000Y46949801D01*
X8994309Y46968355D01*
X8989388Y46975720D01*
X8989257Y46977716D01*
X8990920Y46978827D01*
X8992334Y46978366D01*
G37*
G36*
X9792334Y46978366D02*
G01*
X9840147Y46938408D01*
X9909981Y46929636D01*
X9973628Y46960088D01*
X9982204Y46969984D01*
X9984094Y46970638D01*
X9985605Y46969328D01*
X9985677Y46968284D01*
X9982000Y46949801D01*
X9982000Y45450199D01*
X9985691Y45431645D01*
X9990612Y45424280D01*
X9990743Y45422284D01*
X9989080Y45421173D01*
X9987666Y45421634D01*
X9939853Y45461592D01*
X9870019Y45470364D01*
X9806372Y45439912D01*
X9797796Y45430016D01*
X9795906Y45429362D01*
X9794395Y45430672D01*
X9794323Y45431716D01*
X9798000Y45450199D01*
X9798000Y46949801D01*
X9794309Y46968355D01*
X9789388Y46975720D01*
X9789257Y46977716D01*
X9790920Y46978827D01*
X9792334Y46978366D01*
G37*
G36*
X11392334Y46978366D02*
G01*
X11440147Y46938408D01*
X11509981Y46929636D01*
X11573628Y46960088D01*
X11582204Y46969984D01*
X11584094Y46970638D01*
X11585605Y46969328D01*
X11585677Y46968284D01*
X11582000Y46949801D01*
X11582000Y45450199D01*
X11585691Y45431645D01*
X11590612Y45424280D01*
X11590743Y45422284D01*
X11589080Y45421173D01*
X11587666Y45421634D01*
X11539853Y45461592D01*
X11470019Y45470364D01*
X11406372Y45439912D01*
X11397796Y45430016D01*
X11395906Y45429362D01*
X11394395Y45430672D01*
X11394323Y45431716D01*
X11398000Y45450199D01*
X11398000Y46949801D01*
X11394309Y46968355D01*
X11389388Y46975720D01*
X11389257Y46977716D01*
X11390920Y46978827D01*
X11392334Y46978366D01*
G37*
G36*
X12192334Y46978366D02*
G01*
X12240147Y46938408D01*
X12309981Y46929636D01*
X12373628Y46960088D01*
X12382204Y46969984D01*
X12384094Y46970638D01*
X12385605Y46969328D01*
X12385677Y46968284D01*
X12382000Y46949801D01*
X12382000Y45450199D01*
X12385691Y45431645D01*
X12390612Y45424280D01*
X12390743Y45422284D01*
X12389080Y45421173D01*
X12387666Y45421634D01*
X12339853Y45461592D01*
X12270019Y45470364D01*
X12206372Y45439912D01*
X12197796Y45430016D01*
X12195906Y45429362D01*
X12194395Y45430672D01*
X12194323Y45431716D01*
X12198000Y45450199D01*
X12198000Y46949801D01*
X12194309Y46968355D01*
X12189388Y46975720D01*
X12189257Y46977716D01*
X12190920Y46978827D01*
X12192334Y46978366D01*
G37*
G36*
X12992334Y46978366D02*
G01*
X13040147Y46938408D01*
X13109981Y46929636D01*
X13173628Y46960088D01*
X13182204Y46969984D01*
X13184094Y46970638D01*
X13185605Y46969328D01*
X13185677Y46968284D01*
X13182000Y46949801D01*
X13182000Y45450199D01*
X13185691Y45431645D01*
X13190612Y45424280D01*
X13190743Y45422284D01*
X13189080Y45421173D01*
X13187666Y45421634D01*
X13139853Y45461592D01*
X13070019Y45470364D01*
X13006372Y45439912D01*
X12997796Y45430016D01*
X12995906Y45429362D01*
X12994395Y45430672D01*
X12994323Y45431716D01*
X12998000Y45450199D01*
X12998000Y46949801D01*
X12994309Y46968355D01*
X12989388Y46975720D01*
X12989257Y46977716D01*
X12990920Y46978827D01*
X12992334Y46978366D01*
G37*
G36*
X13792334Y46978366D02*
G01*
X13840147Y46938408D01*
X13909981Y46929636D01*
X13973628Y46960088D01*
X13982204Y46969984D01*
X13984094Y46970638D01*
X13985605Y46969328D01*
X13985677Y46968284D01*
X13982000Y46949801D01*
X13982000Y45450199D01*
X13985691Y45431645D01*
X13990612Y45424280D01*
X13990743Y45422284D01*
X13989080Y45421173D01*
X13987666Y45421634D01*
X13939853Y45461592D01*
X13870019Y45470364D01*
X13806372Y45439912D01*
X13797796Y45430016D01*
X13795906Y45429362D01*
X13794395Y45430672D01*
X13794323Y45431716D01*
X13798000Y45450199D01*
X13798000Y46949801D01*
X13794309Y46968355D01*
X13789388Y46975720D01*
X13789257Y46977716D01*
X13790920Y46978827D01*
X13792334Y46978366D01*
G37*
G36*
X14592334Y46978366D02*
G01*
X14640147Y46938408D01*
X14709981Y46929636D01*
X14773628Y46960088D01*
X14782204Y46969984D01*
X14784094Y46970638D01*
X14785605Y46969328D01*
X14785677Y46968284D01*
X14782000Y46949801D01*
X14782000Y45450199D01*
X14785691Y45431645D01*
X14790612Y45424280D01*
X14790743Y45422284D01*
X14789080Y45421173D01*
X14787666Y45421634D01*
X14739853Y45461592D01*
X14670019Y45470364D01*
X14606372Y45439912D01*
X14597796Y45430016D01*
X14595906Y45429362D01*
X14594395Y45430672D01*
X14594323Y45431716D01*
X14598000Y45450199D01*
X14598000Y46949801D01*
X14594309Y46968355D01*
X14589388Y46975720D01*
X14589257Y46977716D01*
X14590920Y46978827D01*
X14592334Y46978366D01*
G37*
G36*
X16192334Y46978366D02*
G01*
X16240147Y46938408D01*
X16309981Y46929636D01*
X16373628Y46960088D01*
X16382204Y46969984D01*
X16384094Y46970638D01*
X16385605Y46969328D01*
X16385677Y46968284D01*
X16382000Y46949801D01*
X16382000Y45450199D01*
X16385691Y45431645D01*
X16390612Y45424280D01*
X16390743Y45422284D01*
X16389080Y45421173D01*
X16387666Y45421634D01*
X16339853Y45461592D01*
X16270019Y45470364D01*
X16206372Y45439912D01*
X16197796Y45430016D01*
X16195906Y45429362D01*
X16194395Y45430672D01*
X16194323Y45431716D01*
X16198000Y45450199D01*
X16198000Y46949801D01*
X16194309Y46968355D01*
X16189388Y46975720D01*
X16189257Y46977716D01*
X16190920Y46978827D01*
X16192334Y46978366D01*
G37*
G36*
X15392334Y46978366D02*
G01*
X15440147Y46938408D01*
X15509981Y46929636D01*
X15573628Y46960088D01*
X15582204Y46969984D01*
X15584094Y46970638D01*
X15585605Y46969328D01*
X15585677Y46968284D01*
X15582000Y46949801D01*
X15582000Y45450199D01*
X15585691Y45431645D01*
X15590612Y45424280D01*
X15590743Y45422284D01*
X15589080Y45421173D01*
X15587666Y45421634D01*
X15539853Y45461592D01*
X15470019Y45470364D01*
X15406372Y45439912D01*
X15397796Y45430016D01*
X15395906Y45429362D01*
X15394395Y45430672D01*
X15394323Y45431716D01*
X15398000Y45450199D01*
X15398000Y46949801D01*
X15394309Y46968355D01*
X15389388Y46975720D01*
X15389257Y46977716D01*
X15390920Y46978827D01*
X15392334Y46978366D01*
G37*
G36*
X19518827Y48749080D02*
G01*
X19518366Y48747666D01*
X19478408Y48699853D01*
X19469636Y48630019D01*
X19500088Y48566372D01*
X19509984Y48557796D01*
X19510638Y48555906D01*
X19509328Y48554395D01*
X19508284Y48554323D01*
X19489801Y48558000D01*
X17990199Y48558000D01*
X17971645Y48554309D01*
X17964280Y48549388D01*
X17962284Y48549257D01*
X17961173Y48550920D01*
X17961634Y48552334D01*
X18001592Y48600147D01*
X18010364Y48669981D01*
X17979912Y48733628D01*
X17970016Y48742204D01*
X17969362Y48744094D01*
X17970672Y48745605D01*
X17971716Y48745677D01*
X17990199Y48742000D01*
X19489801Y48742000D01*
X19508355Y48745691D01*
X19515720Y48750612D01*
X19517716Y48750743D01*
X19518827Y48749080D01*
G37*
G36*
X7418827Y48749080D02*
G01*
X7418366Y48747666D01*
X7378408Y48699853D01*
X7369636Y48630019D01*
X7400088Y48566372D01*
X7409984Y48557796D01*
X7410638Y48555906D01*
X7409328Y48554395D01*
X7408284Y48554323D01*
X7389801Y48558000D01*
X5890199Y48558000D01*
X5871645Y48554309D01*
X5864280Y48549388D01*
X5862284Y48549257D01*
X5861173Y48550920D01*
X5861634Y48552334D01*
X5901592Y48600147D01*
X5910364Y48669981D01*
X5879912Y48733628D01*
X5870016Y48742204D01*
X5869362Y48744094D01*
X5870672Y48745605D01*
X5871716Y48745677D01*
X5890199Y48742000D01*
X7389801Y48742000D01*
X7408355Y48745691D01*
X7415720Y48750612D01*
X7417716Y48750743D01*
X7418827Y48749080D01*
G37*
G36*
X7418827Y49549080D02*
G01*
X7418366Y49547666D01*
X7378408Y49499853D01*
X7369636Y49430019D01*
X7400088Y49366372D01*
X7409984Y49357796D01*
X7410638Y49355906D01*
X7409328Y49354395D01*
X7408284Y49354323D01*
X7389801Y49358000D01*
X5890199Y49358000D01*
X5871645Y49354309D01*
X5864280Y49349388D01*
X5862284Y49349257D01*
X5861173Y49350920D01*
X5861634Y49352334D01*
X5901592Y49400147D01*
X5910364Y49469981D01*
X5879912Y49533628D01*
X5870016Y49542204D01*
X5869362Y49544094D01*
X5870672Y49545605D01*
X5871716Y49545677D01*
X5890199Y49542000D01*
X7389801Y49542000D01*
X7408355Y49545691D01*
X7415720Y49550612D01*
X7417716Y49550743D01*
X7418827Y49549080D01*
G37*
G36*
X19518827Y49549080D02*
G01*
X19518366Y49547666D01*
X19478408Y49499853D01*
X19469636Y49430019D01*
X19500088Y49366372D01*
X19509984Y49357796D01*
X19510638Y49355906D01*
X19509328Y49354395D01*
X19508284Y49354323D01*
X19489801Y49358000D01*
X17990199Y49358000D01*
X17971645Y49354309D01*
X17964280Y49349388D01*
X17962284Y49349257D01*
X17961173Y49350920D01*
X17961634Y49352334D01*
X18001592Y49400147D01*
X18010364Y49469981D01*
X17979912Y49533628D01*
X17970016Y49542204D01*
X17969362Y49544094D01*
X17970672Y49545605D01*
X17971716Y49545677D01*
X17990199Y49542000D01*
X19489801Y49542000D01*
X19508355Y49545691D01*
X19515720Y49550612D01*
X19517716Y49550743D01*
X19518827Y49549080D01*
G37*
G36*
X19518827Y50349080D02*
G01*
X19518366Y50347666D01*
X19478408Y50299853D01*
X19469636Y50230019D01*
X19500088Y50166372D01*
X19509984Y50157796D01*
X19510638Y50155906D01*
X19509328Y50154395D01*
X19508284Y50154323D01*
X19489801Y50158000D01*
X17990199Y50158000D01*
X17971645Y50154309D01*
X17964280Y50149388D01*
X17962284Y50149257D01*
X17961173Y50150920D01*
X17961634Y50152334D01*
X18001592Y50200147D01*
X18010364Y50269981D01*
X17979912Y50333628D01*
X17970016Y50342204D01*
X17969362Y50344094D01*
X17970672Y50345605D01*
X17971716Y50345677D01*
X17990199Y50342000D01*
X19489801Y50342000D01*
X19508355Y50345691D01*
X19515720Y50350612D01*
X19517716Y50350743D01*
X19518827Y50349080D01*
G37*
G36*
X7418827Y50349080D02*
G01*
X7418366Y50347666D01*
X7378408Y50299853D01*
X7369636Y50230019D01*
X7400088Y50166372D01*
X7409984Y50157796D01*
X7410638Y50155906D01*
X7409328Y50154395D01*
X7408284Y50154323D01*
X7389801Y50158000D01*
X5890199Y50158000D01*
X5871645Y50154309D01*
X5864280Y50149388D01*
X5862284Y50149257D01*
X5861173Y50150920D01*
X5861634Y50152334D01*
X5901592Y50200147D01*
X5910364Y50269981D01*
X5879912Y50333628D01*
X5870016Y50342204D01*
X5869362Y50344094D01*
X5870672Y50345605D01*
X5871716Y50345677D01*
X5890199Y50342000D01*
X7389801Y50342000D01*
X7408355Y50345691D01*
X7415720Y50350612D01*
X7417716Y50350743D01*
X7418827Y50349080D01*
G37*
G36*
X77802339Y51928378D02*
G01*
X77850152Y51888420D01*
X77919986Y51879648D01*
X77983633Y51910100D01*
X77992209Y51919996D01*
X77994099Y51920650D01*
X77995610Y51919340D01*
X77995682Y51918296D01*
X77992005Y51899813D01*
X77992005Y50400211D01*
X77995696Y50381657D01*
X78000617Y50374292D01*
X78000748Y50372296D01*
X77999085Y50371185D01*
X77997671Y50371646D01*
X77949858Y50411604D01*
X77880024Y50420376D01*
X77816377Y50389924D01*
X77807801Y50380028D01*
X77805911Y50379374D01*
X77804400Y50380684D01*
X77804328Y50381728D01*
X77808005Y50400211D01*
X77808005Y51899813D01*
X77804314Y51918367D01*
X77799393Y51925732D01*
X77799262Y51927728D01*
X77800925Y51928839D01*
X77802339Y51928378D01*
G37*
G36*
X77002339Y51928378D02*
G01*
X77050152Y51888420D01*
X77119986Y51879648D01*
X77183633Y51910100D01*
X77192209Y51919996D01*
X77194099Y51920650D01*
X77195610Y51919340D01*
X77195682Y51918296D01*
X77192005Y51899813D01*
X77192005Y50400211D01*
X77195696Y50381657D01*
X77200617Y50374292D01*
X77200748Y50372296D01*
X77199085Y50371185D01*
X77197671Y50371646D01*
X77149858Y50411604D01*
X77080024Y50420376D01*
X77016377Y50389924D01*
X77007801Y50380028D01*
X77005911Y50379374D01*
X77004400Y50380684D01*
X77004328Y50381728D01*
X77008005Y50400211D01*
X77008005Y51899813D01*
X77004314Y51918367D01*
X76999393Y51925732D01*
X76999262Y51927728D01*
X77000925Y51928839D01*
X77002339Y51928378D01*
G37*
G36*
X78602339Y51928378D02*
G01*
X78650152Y51888420D01*
X78719986Y51879648D01*
X78783633Y51910100D01*
X78792209Y51919996D01*
X78794099Y51920650D01*
X78795610Y51919340D01*
X78795682Y51918296D01*
X78792005Y51899813D01*
X78792005Y50400211D01*
X78795696Y50381657D01*
X78800617Y50374292D01*
X78800748Y50372296D01*
X78799085Y50371185D01*
X78797671Y50371646D01*
X78749858Y50411604D01*
X78680024Y50420376D01*
X78616377Y50389924D01*
X78607801Y50380028D01*
X78605911Y50379374D01*
X78604400Y50380684D01*
X78604328Y50381728D01*
X78608005Y50400211D01*
X78608005Y51899813D01*
X78604314Y51918367D01*
X78599393Y51925732D01*
X78599262Y51927728D01*
X78600925Y51928839D01*
X78602339Y51928378D01*
G37*
G36*
X82602339Y51928378D02*
G01*
X82650152Y51888420D01*
X82719986Y51879648D01*
X82783633Y51910100D01*
X82792209Y51919996D01*
X82794099Y51920650D01*
X82795610Y51919340D01*
X82795682Y51918296D01*
X82792005Y51899813D01*
X82792005Y50400211D01*
X82795696Y50381657D01*
X82800617Y50374292D01*
X82800748Y50372296D01*
X82799085Y50371185D01*
X82797671Y50371646D01*
X82749858Y50411604D01*
X82680024Y50420376D01*
X82616377Y50389924D01*
X82607801Y50380028D01*
X82605911Y50379374D01*
X82604400Y50380684D01*
X82604328Y50381728D01*
X82608005Y50400211D01*
X82608005Y51899813D01*
X82604314Y51918367D01*
X82599393Y51925732D01*
X82599262Y51927728D01*
X82600925Y51928839D01*
X82602339Y51928378D01*
G37*
G36*
X76202339Y51928378D02*
G01*
X76250152Y51888420D01*
X76319986Y51879648D01*
X76383633Y51910100D01*
X76392209Y51919996D01*
X76394099Y51920650D01*
X76395610Y51919340D01*
X76395682Y51918296D01*
X76392005Y51899813D01*
X76392005Y50400211D01*
X76395696Y50381657D01*
X76400617Y50374292D01*
X76400748Y50372296D01*
X76399085Y50371185D01*
X76397671Y50371646D01*
X76349858Y50411604D01*
X76280024Y50420376D01*
X76216377Y50389924D01*
X76207801Y50380028D01*
X76205911Y50379374D01*
X76204400Y50380684D01*
X76204328Y50381728D01*
X76208005Y50400211D01*
X76208005Y51899813D01*
X76204314Y51918367D01*
X76199393Y51925732D01*
X76199262Y51927728D01*
X76200925Y51928839D01*
X76202339Y51928378D01*
G37*
G36*
X81802339Y51928378D02*
G01*
X81850152Y51888420D01*
X81919986Y51879648D01*
X81983633Y51910100D01*
X81992209Y51919996D01*
X81994099Y51920650D01*
X81995610Y51919340D01*
X81995682Y51918296D01*
X81992005Y51899813D01*
X81992005Y50400211D01*
X81995696Y50381657D01*
X82000617Y50374292D01*
X82000748Y50372296D01*
X81999085Y50371185D01*
X81997671Y50371646D01*
X81949858Y50411604D01*
X81880024Y50420376D01*
X81816377Y50389924D01*
X81807801Y50380028D01*
X81805911Y50379374D01*
X81804400Y50380684D01*
X81804328Y50381728D01*
X81808005Y50400211D01*
X81808005Y51899813D01*
X81804314Y51918367D01*
X81799393Y51925732D01*
X81799262Y51927728D01*
X81800925Y51928839D01*
X81802339Y51928378D01*
G37*
G36*
X80202339Y51928378D02*
G01*
X80250152Y51888420D01*
X80319986Y51879648D01*
X80383633Y51910100D01*
X80392209Y51919996D01*
X80394099Y51920650D01*
X80395610Y51919340D01*
X80395682Y51918296D01*
X80392005Y51899813D01*
X80392005Y50400211D01*
X80395696Y50381657D01*
X80400617Y50374292D01*
X80400748Y50372296D01*
X80399085Y50371185D01*
X80397671Y50371646D01*
X80349858Y50411604D01*
X80280024Y50420376D01*
X80216377Y50389924D01*
X80207801Y50380028D01*
X80205911Y50379374D01*
X80204400Y50380684D01*
X80204328Y50381728D01*
X80208005Y50400211D01*
X80208005Y51899813D01*
X80204314Y51918367D01*
X80199393Y51925732D01*
X80199262Y51927728D01*
X80200925Y51928839D01*
X80202339Y51928378D01*
G37*
G36*
X79402339Y51928378D02*
G01*
X79450152Y51888420D01*
X79519986Y51879648D01*
X79583633Y51910100D01*
X79592209Y51919996D01*
X79594099Y51920650D01*
X79595610Y51919340D01*
X79595682Y51918296D01*
X79592005Y51899813D01*
X79592005Y50400211D01*
X79595696Y50381657D01*
X79600617Y50374292D01*
X79600748Y50372296D01*
X79599085Y50371185D01*
X79597671Y50371646D01*
X79549858Y50411604D01*
X79480024Y50420376D01*
X79416377Y50389924D01*
X79407801Y50380028D01*
X79405911Y50379374D01*
X79404400Y50380684D01*
X79404328Y50381728D01*
X79408005Y50400211D01*
X79408005Y51899813D01*
X79404314Y51918367D01*
X79399393Y51925732D01*
X79399262Y51927728D01*
X79400925Y51928839D01*
X79402339Y51928378D01*
G37*
G36*
X81002339Y51928378D02*
G01*
X81050152Y51888420D01*
X81119986Y51879648D01*
X81183633Y51910100D01*
X81192209Y51919996D01*
X81194099Y51920650D01*
X81195610Y51919340D01*
X81195682Y51918296D01*
X81192005Y51899813D01*
X81192005Y50400211D01*
X81195696Y50381657D01*
X81200617Y50374292D01*
X81200748Y50372296D01*
X81199085Y50371185D01*
X81197671Y50371646D01*
X81149858Y50411604D01*
X81080024Y50420376D01*
X81016377Y50389924D01*
X81007801Y50380028D01*
X81005911Y50379374D01*
X81004400Y50380684D01*
X81004328Y50381728D01*
X81008005Y50400211D01*
X81008005Y51899813D01*
X81004314Y51918367D01*
X80999393Y51925732D01*
X80999262Y51927728D01*
X81000925Y51928839D01*
X81002339Y51928378D01*
G37*
G36*
X83402339Y51928378D02*
G01*
X83450152Y51888420D01*
X83519986Y51879648D01*
X83583633Y51910100D01*
X83592209Y51919996D01*
X83594099Y51920650D01*
X83595610Y51919340D01*
X83595682Y51918296D01*
X83592005Y51899813D01*
X83592005Y50400211D01*
X83595696Y50381657D01*
X83600617Y50374292D01*
X83600748Y50372296D01*
X83599085Y50371185D01*
X83597671Y50371646D01*
X83549858Y50411604D01*
X83480024Y50420376D01*
X83416377Y50389924D01*
X83407801Y50380028D01*
X83405911Y50379374D01*
X83404400Y50380684D01*
X83404328Y50381728D01*
X83408005Y50400211D01*
X83408005Y51899813D01*
X83404314Y51918367D01*
X83399393Y51925732D01*
X83399262Y51927728D01*
X83400925Y51928839D01*
X83402339Y51928378D01*
G37*
G36*
X7418827Y51149080D02*
G01*
X7418366Y51147666D01*
X7378408Y51099853D01*
X7369636Y51030019D01*
X7400088Y50966372D01*
X7409984Y50957796D01*
X7410638Y50955906D01*
X7409328Y50954395D01*
X7408284Y50954323D01*
X7389801Y50958000D01*
X5890199Y50958000D01*
X5871645Y50954309D01*
X5864280Y50949388D01*
X5862284Y50949257D01*
X5861173Y50950920D01*
X5861634Y50952334D01*
X5901592Y51000147D01*
X5910364Y51069981D01*
X5879912Y51133628D01*
X5870016Y51142204D01*
X5869362Y51144094D01*
X5870672Y51145605D01*
X5871716Y51145677D01*
X5890199Y51142000D01*
X7389801Y51142000D01*
X7408355Y51145691D01*
X7415720Y51150612D01*
X7417716Y51150743D01*
X7418827Y51149080D01*
G37*
G36*
X19518827Y51149080D02*
G01*
X19518366Y51147666D01*
X19478408Y51099853D01*
X19469636Y51030019D01*
X19500088Y50966372D01*
X19509984Y50957796D01*
X19510638Y50955906D01*
X19509328Y50954395D01*
X19508284Y50954323D01*
X19489801Y50958000D01*
X17990199Y50958000D01*
X17971645Y50954309D01*
X17964280Y50949388D01*
X17962284Y50949257D01*
X17961173Y50950920D01*
X17961634Y50952334D01*
X18001592Y51000147D01*
X18010364Y51069981D01*
X17979912Y51133628D01*
X17970016Y51142204D01*
X17969362Y51144094D01*
X17970672Y51145605D01*
X17971716Y51145677D01*
X17990199Y51142000D01*
X19489801Y51142000D01*
X19508355Y51145691D01*
X19515720Y51150612D01*
X19517716Y51150743D01*
X19518827Y51149080D01*
G37*
G36*
X7418827Y51949080D02*
G01*
X7418366Y51947666D01*
X7378408Y51899853D01*
X7369636Y51830019D01*
X7400088Y51766372D01*
X7409984Y51757796D01*
X7410638Y51755906D01*
X7409328Y51754395D01*
X7408284Y51754323D01*
X7389801Y51758000D01*
X5890199Y51758000D01*
X5871645Y51754309D01*
X5864280Y51749388D01*
X5862284Y51749257D01*
X5861173Y51750920D01*
X5861634Y51752334D01*
X5901592Y51800147D01*
X5910364Y51869981D01*
X5879912Y51933628D01*
X5870016Y51942204D01*
X5869362Y51944094D01*
X5870672Y51945605D01*
X5871716Y51945677D01*
X5890199Y51942000D01*
X7389801Y51942000D01*
X7408355Y51945691D01*
X7415720Y51950612D01*
X7417716Y51950743D01*
X7418827Y51949080D01*
G37*
G36*
X19518827Y51949080D02*
G01*
X19518366Y51947666D01*
X19478408Y51899853D01*
X19469636Y51830019D01*
X19500088Y51766372D01*
X19509984Y51757796D01*
X19510638Y51755906D01*
X19509328Y51754395D01*
X19508284Y51754323D01*
X19489801Y51758000D01*
X17990199Y51758000D01*
X17971645Y51754309D01*
X17964280Y51749388D01*
X17962284Y51749257D01*
X17961173Y51750920D01*
X17961634Y51752334D01*
X18001592Y51800147D01*
X18010364Y51869981D01*
X17979912Y51933628D01*
X17970016Y51942204D01*
X17969362Y51944094D01*
X17970672Y51945605D01*
X17971716Y51945677D01*
X17990199Y51942000D01*
X19489801Y51942000D01*
X19508355Y51945691D01*
X19515720Y51950612D01*
X19517716Y51950743D01*
X19518827Y51949080D01*
G37*
G36*
X19518827Y52749080D02*
G01*
X19518366Y52747666D01*
X19478408Y52699853D01*
X19469636Y52630019D01*
X19500088Y52566372D01*
X19509984Y52557796D01*
X19510638Y52555906D01*
X19509328Y52554395D01*
X19508284Y52554323D01*
X19489801Y52558000D01*
X17990199Y52558000D01*
X17971645Y52554309D01*
X17964280Y52549388D01*
X17962284Y52549257D01*
X17961173Y52550920D01*
X17961634Y52552334D01*
X18001592Y52600147D01*
X18010364Y52669981D01*
X17979912Y52733628D01*
X17970016Y52742204D01*
X17969362Y52744094D01*
X17970672Y52745605D01*
X17971716Y52745677D01*
X17990199Y52742000D01*
X19489801Y52742000D01*
X19508355Y52745691D01*
X19515720Y52750612D01*
X19517716Y52750743D01*
X19518827Y52749080D01*
G37*
G36*
X7418827Y52749080D02*
G01*
X7418366Y52747666D01*
X7378408Y52699853D01*
X7369636Y52630019D01*
X7400088Y52566372D01*
X7409984Y52557796D01*
X7410638Y52555906D01*
X7409328Y52554395D01*
X7408284Y52554323D01*
X7389801Y52558000D01*
X5890199Y52558000D01*
X5871645Y52554309D01*
X5864280Y52549388D01*
X5862284Y52549257D01*
X5861173Y52550920D01*
X5861634Y52552334D01*
X5901592Y52600147D01*
X5910364Y52669981D01*
X5879912Y52733628D01*
X5870016Y52742204D01*
X5869362Y52744094D01*
X5870672Y52745605D01*
X5871716Y52745677D01*
X5890199Y52742000D01*
X7389801Y52742000D01*
X7408355Y52745691D01*
X7415720Y52750612D01*
X7417716Y52750743D01*
X7418827Y52749080D01*
G37*
G36*
X7418827Y53549080D02*
G01*
X7418366Y53547666D01*
X7378408Y53499853D01*
X7369636Y53430019D01*
X7400088Y53366372D01*
X7409984Y53357796D01*
X7410638Y53355906D01*
X7409328Y53354395D01*
X7408284Y53354323D01*
X7389801Y53358000D01*
X5890199Y53358000D01*
X5871645Y53354309D01*
X5864280Y53349388D01*
X5862284Y53349257D01*
X5861173Y53350920D01*
X5861634Y53352334D01*
X5901592Y53400147D01*
X5910364Y53469981D01*
X5879912Y53533628D01*
X5870016Y53542204D01*
X5869362Y53544094D01*
X5870672Y53545605D01*
X5871716Y53545677D01*
X5890199Y53542000D01*
X7389801Y53542000D01*
X7408355Y53545691D01*
X7415720Y53550612D01*
X7417716Y53550743D01*
X7418827Y53549080D01*
G37*
G36*
X19518827Y53549080D02*
G01*
X19518366Y53547666D01*
X19478408Y53499853D01*
X19469636Y53430019D01*
X19500088Y53366372D01*
X19509984Y53357796D01*
X19510638Y53355906D01*
X19509328Y53354395D01*
X19508284Y53354323D01*
X19489801Y53358000D01*
X17990199Y53358000D01*
X17971645Y53354309D01*
X17964280Y53349388D01*
X17962284Y53349257D01*
X17961173Y53350920D01*
X17961634Y53352334D01*
X18001592Y53400147D01*
X18010364Y53469981D01*
X17979912Y53533628D01*
X17970016Y53542204D01*
X17969362Y53544094D01*
X17970672Y53545605D01*
X17971716Y53545677D01*
X17990199Y53542000D01*
X19489801Y53542000D01*
X19508355Y53545691D01*
X19515720Y53550612D01*
X19517716Y53550743D01*
X19518827Y53549080D01*
G37*
G36*
X86728832Y53699092D02*
G01*
X86728371Y53697678D01*
X86688413Y53649865D01*
X86679641Y53580031D01*
X86710093Y53516384D01*
X86719989Y53507808D01*
X86720643Y53505918D01*
X86719333Y53504407D01*
X86718289Y53504335D01*
X86699806Y53508012D01*
X85200204Y53508012D01*
X85181650Y53504321D01*
X85174285Y53499400D01*
X85172289Y53499269D01*
X85171178Y53500932D01*
X85171639Y53502346D01*
X85211597Y53550159D01*
X85220369Y53619993D01*
X85189917Y53683640D01*
X85180021Y53692216D01*
X85179367Y53694106D01*
X85180677Y53695617D01*
X85181721Y53695689D01*
X85200204Y53692012D01*
X86699806Y53692012D01*
X86718360Y53695703D01*
X86725725Y53700624D01*
X86727721Y53700755D01*
X86728832Y53699092D01*
G37*
G36*
X74628832Y53699092D02*
G01*
X74628371Y53697678D01*
X74588413Y53649865D01*
X74579641Y53580031D01*
X74610093Y53516384D01*
X74619989Y53507808D01*
X74620643Y53505918D01*
X74619333Y53504407D01*
X74618289Y53504335D01*
X74599806Y53508012D01*
X73100204Y53508012D01*
X73081650Y53504321D01*
X73074285Y53499400D01*
X73072289Y53499269D01*
X73071178Y53500932D01*
X73071639Y53502346D01*
X73111597Y53550159D01*
X73120369Y53619993D01*
X73089917Y53683640D01*
X73080021Y53692216D01*
X73079367Y53694106D01*
X73080677Y53695617D01*
X73081721Y53695689D01*
X73100204Y53692012D01*
X74599806Y53692012D01*
X74618360Y53695703D01*
X74625725Y53700624D01*
X74627721Y53700755D01*
X74628832Y53699092D01*
G37*
G36*
X7418827Y54349080D02*
G01*
X7418366Y54347666D01*
X7378408Y54299853D01*
X7369636Y54230019D01*
X7400088Y54166372D01*
X7409984Y54157796D01*
X7410638Y54155906D01*
X7409328Y54154395D01*
X7408284Y54154323D01*
X7389801Y54158000D01*
X5890199Y54158000D01*
X5871645Y54154309D01*
X5864280Y54149388D01*
X5862284Y54149257D01*
X5861173Y54150920D01*
X5861634Y54152334D01*
X5901592Y54200147D01*
X5910364Y54269981D01*
X5879912Y54333628D01*
X5870016Y54342204D01*
X5869362Y54344094D01*
X5870672Y54345605D01*
X5871716Y54345677D01*
X5890199Y54342000D01*
X7389801Y54342000D01*
X7408355Y54345691D01*
X7415720Y54350612D01*
X7417716Y54350743D01*
X7418827Y54349080D01*
G37*
G36*
X19518827Y54349080D02*
G01*
X19518366Y54347666D01*
X19478408Y54299853D01*
X19469636Y54230019D01*
X19500088Y54166372D01*
X19509984Y54157796D01*
X19510638Y54155906D01*
X19509328Y54154395D01*
X19508284Y54154323D01*
X19489801Y54158000D01*
X17990199Y54158000D01*
X17971645Y54154309D01*
X17964280Y54149388D01*
X17962284Y54149257D01*
X17961173Y54150920D01*
X17961634Y54152334D01*
X18001592Y54200147D01*
X18010364Y54269981D01*
X17979912Y54333628D01*
X17970016Y54342204D01*
X17969362Y54344094D01*
X17970672Y54345605D01*
X17971716Y54345677D01*
X17990199Y54342000D01*
X19489801Y54342000D01*
X19508355Y54345691D01*
X19515720Y54350612D01*
X19517716Y54350743D01*
X19518827Y54349080D01*
G37*
G36*
X86728832Y54499092D02*
G01*
X86728371Y54497678D01*
X86688413Y54449865D01*
X86679641Y54380031D01*
X86710093Y54316384D01*
X86719989Y54307808D01*
X86720643Y54305918D01*
X86719333Y54304407D01*
X86718289Y54304335D01*
X86699806Y54308012D01*
X85200204Y54308012D01*
X85181650Y54304321D01*
X85174285Y54299400D01*
X85172289Y54299269D01*
X85171178Y54300932D01*
X85171639Y54302346D01*
X85211597Y54350159D01*
X85220369Y54419993D01*
X85189917Y54483640D01*
X85180021Y54492216D01*
X85179367Y54494106D01*
X85180677Y54495617D01*
X85181721Y54495689D01*
X85200204Y54492012D01*
X86699806Y54492012D01*
X86718360Y54495703D01*
X86725725Y54500624D01*
X86727721Y54500755D01*
X86728832Y54499092D01*
G37*
G36*
X74628832Y54499092D02*
G01*
X74628371Y54497678D01*
X74588413Y54449865D01*
X74579641Y54380031D01*
X74610093Y54316384D01*
X74619989Y54307808D01*
X74620643Y54305918D01*
X74619333Y54304407D01*
X74618289Y54304335D01*
X74599806Y54308012D01*
X73100204Y54308012D01*
X73081650Y54304321D01*
X73074285Y54299400D01*
X73072289Y54299269D01*
X73071178Y54300932D01*
X73071639Y54302346D01*
X73111597Y54350159D01*
X73120369Y54419993D01*
X73089917Y54483640D01*
X73080021Y54492216D01*
X73079367Y54494106D01*
X73080677Y54495617D01*
X73081721Y54495689D01*
X73100204Y54492012D01*
X74599806Y54492012D01*
X74618360Y54495703D01*
X74625725Y54500624D01*
X74627721Y54500755D01*
X74628832Y54499092D01*
G37*
G36*
X19518827Y55149080D02*
G01*
X19518366Y55147666D01*
X19478408Y55099853D01*
X19469636Y55030019D01*
X19500088Y54966372D01*
X19509984Y54957796D01*
X19510638Y54955906D01*
X19509328Y54954395D01*
X19508284Y54954323D01*
X19489801Y54958000D01*
X17990199Y54958000D01*
X17971645Y54954309D01*
X17964280Y54949388D01*
X17962284Y54949257D01*
X17961173Y54950920D01*
X17961634Y54952334D01*
X18001592Y55000147D01*
X18010364Y55069981D01*
X17979912Y55133628D01*
X17970016Y55142204D01*
X17969362Y55144094D01*
X17970672Y55145605D01*
X17971716Y55145677D01*
X17990199Y55142000D01*
X19489801Y55142000D01*
X19508355Y55145691D01*
X19515720Y55150612D01*
X19517716Y55150743D01*
X19518827Y55149080D01*
G37*
G36*
X7418827Y55149080D02*
G01*
X7418366Y55147666D01*
X7378408Y55099853D01*
X7369636Y55030019D01*
X7400088Y54966372D01*
X7409984Y54957796D01*
X7410638Y54955906D01*
X7409328Y54954395D01*
X7408284Y54954323D01*
X7389801Y54958000D01*
X5890199Y54958000D01*
X5871645Y54954309D01*
X5864280Y54949388D01*
X5862284Y54949257D01*
X5861173Y54950920D01*
X5861634Y54952334D01*
X5901592Y55000147D01*
X5910364Y55069981D01*
X5879912Y55133628D01*
X5870016Y55142204D01*
X5869362Y55144094D01*
X5870672Y55145605D01*
X5871716Y55145677D01*
X5890199Y55142000D01*
X7389801Y55142000D01*
X7408355Y55145691D01*
X7415720Y55150612D01*
X7417716Y55150743D01*
X7418827Y55149080D01*
G37*
G36*
X74628832Y55299092D02*
G01*
X74628371Y55297678D01*
X74588413Y55249865D01*
X74579641Y55180031D01*
X74610093Y55116384D01*
X74619989Y55107808D01*
X74620643Y55105918D01*
X74619333Y55104407D01*
X74618289Y55104335D01*
X74599806Y55108012D01*
X73100204Y55108012D01*
X73081650Y55104321D01*
X73074285Y55099400D01*
X73072289Y55099269D01*
X73071178Y55100932D01*
X73071639Y55102346D01*
X73111597Y55150159D01*
X73120369Y55219993D01*
X73089917Y55283640D01*
X73080021Y55292216D01*
X73079367Y55294106D01*
X73080677Y55295617D01*
X73081721Y55295689D01*
X73100204Y55292012D01*
X74599806Y55292012D01*
X74618360Y55295703D01*
X74625725Y55300624D01*
X74627721Y55300755D01*
X74628832Y55299092D01*
G37*
G36*
X86728832Y55299092D02*
G01*
X86728371Y55297678D01*
X86688413Y55249865D01*
X86679641Y55180031D01*
X86710093Y55116384D01*
X86719989Y55107808D01*
X86720643Y55105918D01*
X86719333Y55104407D01*
X86718289Y55104335D01*
X86699806Y55108012D01*
X85200204Y55108012D01*
X85181650Y55104321D01*
X85174285Y55099400D01*
X85172289Y55099269D01*
X85171178Y55100932D01*
X85171639Y55102346D01*
X85211597Y55150159D01*
X85220369Y55219993D01*
X85189917Y55283640D01*
X85180021Y55292216D01*
X85179367Y55294106D01*
X85180677Y55295617D01*
X85181721Y55295689D01*
X85200204Y55292012D01*
X86699806Y55292012D01*
X86718360Y55295703D01*
X86725725Y55300624D01*
X86727721Y55300755D01*
X86728832Y55299092D01*
G37*
G36*
X19518827Y55949080D02*
G01*
X19518366Y55947666D01*
X19478408Y55899853D01*
X19469636Y55830019D01*
X19500088Y55766372D01*
X19509984Y55757796D01*
X19510638Y55755906D01*
X19509328Y55754395D01*
X19508284Y55754323D01*
X19489801Y55758000D01*
X17990199Y55758000D01*
X17971645Y55754309D01*
X17964280Y55749388D01*
X17962284Y55749257D01*
X17961173Y55750920D01*
X17961634Y55752334D01*
X18001592Y55800147D01*
X18010364Y55869981D01*
X17979912Y55933628D01*
X17970016Y55942204D01*
X17969362Y55944094D01*
X17970672Y55945605D01*
X17971716Y55945677D01*
X17990199Y55942000D01*
X19489801Y55942000D01*
X19508355Y55945691D01*
X19515720Y55950612D01*
X19517716Y55950743D01*
X19518827Y55949080D01*
G37*
G36*
X7418827Y55949080D02*
G01*
X7418366Y55947666D01*
X7378408Y55899853D01*
X7369636Y55830019D01*
X7400088Y55766372D01*
X7409984Y55757796D01*
X7410638Y55755906D01*
X7409328Y55754395D01*
X7408284Y55754323D01*
X7389801Y55758000D01*
X5890199Y55758000D01*
X5871645Y55754309D01*
X5864280Y55749388D01*
X5862284Y55749257D01*
X5861173Y55750920D01*
X5861634Y55752334D01*
X5901592Y55800147D01*
X5910364Y55869981D01*
X5879912Y55933628D01*
X5870016Y55942204D01*
X5869362Y55944094D01*
X5870672Y55945605D01*
X5871716Y55945677D01*
X5890199Y55942000D01*
X7389801Y55942000D01*
X7408355Y55945691D01*
X7415720Y55950612D01*
X7417716Y55950743D01*
X7418827Y55949080D01*
G37*
G36*
X86728832Y56099092D02*
G01*
X86728371Y56097678D01*
X86688413Y56049865D01*
X86679641Y55980031D01*
X86710093Y55916384D01*
X86719989Y55907808D01*
X86720643Y55905918D01*
X86719333Y55904407D01*
X86718289Y55904335D01*
X86699806Y55908012D01*
X85200204Y55908012D01*
X85181650Y55904321D01*
X85174285Y55899400D01*
X85172289Y55899269D01*
X85171178Y55900932D01*
X85171639Y55902346D01*
X85211597Y55950159D01*
X85220369Y56019993D01*
X85189917Y56083640D01*
X85180021Y56092216D01*
X85179367Y56094106D01*
X85180677Y56095617D01*
X85181721Y56095689D01*
X85200204Y56092012D01*
X86699806Y56092012D01*
X86718360Y56095703D01*
X86725725Y56100624D01*
X86727721Y56100755D01*
X86728832Y56099092D01*
G37*
G36*
X74628832Y56099092D02*
G01*
X74628371Y56097678D01*
X74588413Y56049865D01*
X74579641Y55980031D01*
X74610093Y55916384D01*
X74619989Y55907808D01*
X74620643Y55905918D01*
X74619333Y55904407D01*
X74618289Y55904335D01*
X74599806Y55908012D01*
X73100204Y55908012D01*
X73081650Y55904321D01*
X73074285Y55899400D01*
X73072289Y55899269D01*
X73071178Y55900932D01*
X73071639Y55902346D01*
X73111597Y55950159D01*
X73120369Y56019993D01*
X73089917Y56083640D01*
X73080021Y56092216D01*
X73079367Y56094106D01*
X73080677Y56095617D01*
X73081721Y56095689D01*
X73100204Y56092012D01*
X74599806Y56092012D01*
X74618360Y56095703D01*
X74625725Y56100624D01*
X74627721Y56100755D01*
X74628832Y56099092D01*
G37*
G36*
X86728832Y56899092D02*
G01*
X86728371Y56897678D01*
X86688413Y56849865D01*
X86679641Y56780031D01*
X86710093Y56716384D01*
X86719989Y56707808D01*
X86720643Y56705918D01*
X86719333Y56704407D01*
X86718289Y56704335D01*
X86699806Y56708012D01*
X85200204Y56708012D01*
X85181650Y56704321D01*
X85174285Y56699400D01*
X85172289Y56699269D01*
X85171178Y56700932D01*
X85171639Y56702346D01*
X85211597Y56750159D01*
X85220369Y56819993D01*
X85189917Y56883640D01*
X85180021Y56892216D01*
X85179367Y56894106D01*
X85180677Y56895617D01*
X85181721Y56895689D01*
X85200204Y56892012D01*
X86699806Y56892012D01*
X86718360Y56895703D01*
X86725725Y56900624D01*
X86727721Y56900755D01*
X86728832Y56899092D01*
G37*
G36*
X74628832Y56899092D02*
G01*
X74628371Y56897678D01*
X74588413Y56849865D01*
X74579641Y56780031D01*
X74610093Y56716384D01*
X74619989Y56707808D01*
X74620643Y56705918D01*
X74619333Y56704407D01*
X74618289Y56704335D01*
X74599806Y56708012D01*
X73100204Y56708012D01*
X73081650Y56704321D01*
X73074285Y56699400D01*
X73072289Y56699269D01*
X73071178Y56700932D01*
X73071639Y56702346D01*
X73111597Y56750159D01*
X73120369Y56819993D01*
X73089917Y56883640D01*
X73080021Y56892216D01*
X73079367Y56894106D01*
X73080677Y56895617D01*
X73081721Y56895689D01*
X73100204Y56892012D01*
X74599806Y56892012D01*
X74618360Y56895703D01*
X74625725Y56900624D01*
X74627721Y56900755D01*
X74628832Y56899092D01*
G37*
G36*
X86728832Y57699092D02*
G01*
X86728371Y57697678D01*
X86688413Y57649865D01*
X86679641Y57580031D01*
X86710093Y57516384D01*
X86719989Y57507808D01*
X86720643Y57505918D01*
X86719333Y57504407D01*
X86718289Y57504335D01*
X86699806Y57508012D01*
X85200204Y57508012D01*
X85181650Y57504321D01*
X85174285Y57499400D01*
X85172289Y57499269D01*
X85171178Y57500932D01*
X85171639Y57502346D01*
X85211597Y57550159D01*
X85220369Y57619993D01*
X85189917Y57683640D01*
X85180021Y57692216D01*
X85179367Y57694106D01*
X85180677Y57695617D01*
X85181721Y57695689D01*
X85200204Y57692012D01*
X86699806Y57692012D01*
X86718360Y57695703D01*
X86725725Y57700624D01*
X86727721Y57700755D01*
X86728832Y57699092D01*
G37*
G36*
X74628832Y57699092D02*
G01*
X74628371Y57697678D01*
X74588413Y57649865D01*
X74579641Y57580031D01*
X74610093Y57516384D01*
X74619989Y57507808D01*
X74620643Y57505918D01*
X74619333Y57504407D01*
X74618289Y57504335D01*
X74599806Y57508012D01*
X73100204Y57508012D01*
X73081650Y57504321D01*
X73074285Y57499400D01*
X73072289Y57499269D01*
X73071178Y57500932D01*
X73071639Y57502346D01*
X73111597Y57550159D01*
X73120369Y57619993D01*
X73089917Y57683640D01*
X73080021Y57692216D01*
X73079367Y57694106D01*
X73080677Y57695617D01*
X73081721Y57695689D01*
X73100204Y57692012D01*
X74599806Y57692012D01*
X74618360Y57695703D01*
X74625725Y57700624D01*
X74627721Y57700755D01*
X74628832Y57699092D01*
G37*
G36*
X11392334Y59078366D02*
G01*
X11440147Y59038408D01*
X11509981Y59029636D01*
X11573628Y59060088D01*
X11582204Y59069984D01*
X11584094Y59070638D01*
X11585605Y59069328D01*
X11585677Y59068284D01*
X11582000Y59049801D01*
X11582000Y57550199D01*
X11585691Y57531645D01*
X11590612Y57524280D01*
X11590743Y57522284D01*
X11589080Y57521173D01*
X11587666Y57521634D01*
X11539853Y57561592D01*
X11470019Y57570364D01*
X11406372Y57539912D01*
X11397796Y57530016D01*
X11395906Y57529362D01*
X11394395Y57530672D01*
X11394323Y57531716D01*
X11398000Y57550199D01*
X11398000Y59049801D01*
X11394309Y59068355D01*
X11389388Y59075720D01*
X11389257Y59077716D01*
X11390920Y59078827D01*
X11392334Y59078366D01*
G37*
G36*
X16192334Y59078366D02*
G01*
X16240147Y59038408D01*
X16309981Y59029636D01*
X16373628Y59060088D01*
X16382204Y59069984D01*
X16384094Y59070638D01*
X16385605Y59069328D01*
X16385677Y59068284D01*
X16382000Y59049801D01*
X16382000Y57550199D01*
X16385691Y57531645D01*
X16390612Y57524280D01*
X16390743Y57522284D01*
X16389080Y57521173D01*
X16387666Y57521634D01*
X16339853Y57561592D01*
X16270019Y57570364D01*
X16206372Y57539912D01*
X16197796Y57530016D01*
X16195906Y57529362D01*
X16194395Y57530672D01*
X16194323Y57531716D01*
X16198000Y57550199D01*
X16198000Y59049801D01*
X16194309Y59068355D01*
X16189388Y59075720D01*
X16189257Y59077716D01*
X16190920Y59078827D01*
X16192334Y59078366D01*
G37*
G36*
X9792334Y59078366D02*
G01*
X9840147Y59038408D01*
X9909981Y59029636D01*
X9973628Y59060088D01*
X9982204Y59069984D01*
X9984094Y59070638D01*
X9985605Y59069328D01*
X9985677Y59068284D01*
X9982000Y59049801D01*
X9982000Y57550199D01*
X9985691Y57531645D01*
X9990612Y57524280D01*
X9990743Y57522284D01*
X9989080Y57521173D01*
X9987666Y57521634D01*
X9939853Y57561592D01*
X9870019Y57570364D01*
X9806372Y57539912D01*
X9797796Y57530016D01*
X9795906Y57529362D01*
X9794395Y57530672D01*
X9794323Y57531716D01*
X9798000Y57550199D01*
X9798000Y59049801D01*
X9794309Y59068355D01*
X9789388Y59075720D01*
X9789257Y59077716D01*
X9790920Y59078827D01*
X9792334Y59078366D01*
G37*
G36*
X12992334Y59078366D02*
G01*
X13040147Y59038408D01*
X13109981Y59029636D01*
X13173628Y59060088D01*
X13182204Y59069984D01*
X13184094Y59070638D01*
X13185605Y59069328D01*
X13185677Y59068284D01*
X13182000Y59049801D01*
X13182000Y57550199D01*
X13185691Y57531645D01*
X13190612Y57524280D01*
X13190743Y57522284D01*
X13189080Y57521173D01*
X13187666Y57521634D01*
X13139853Y57561592D01*
X13070019Y57570364D01*
X13006372Y57539912D01*
X12997796Y57530016D01*
X12995906Y57529362D01*
X12994395Y57530672D01*
X12994323Y57531716D01*
X12998000Y57550199D01*
X12998000Y59049801D01*
X12994309Y59068355D01*
X12989388Y59075720D01*
X12989257Y59077716D01*
X12990920Y59078827D01*
X12992334Y59078366D01*
G37*
G36*
X12192334Y59078366D02*
G01*
X12240147Y59038408D01*
X12309981Y59029636D01*
X12373628Y59060088D01*
X12382204Y59069984D01*
X12384094Y59070638D01*
X12385605Y59069328D01*
X12385677Y59068284D01*
X12382000Y59049801D01*
X12382000Y57550199D01*
X12385691Y57531645D01*
X12390612Y57524280D01*
X12390743Y57522284D01*
X12389080Y57521173D01*
X12387666Y57521634D01*
X12339853Y57561592D01*
X12270019Y57570364D01*
X12206372Y57539912D01*
X12197796Y57530016D01*
X12195906Y57529362D01*
X12194395Y57530672D01*
X12194323Y57531716D01*
X12198000Y57550199D01*
X12198000Y59049801D01*
X12194309Y59068355D01*
X12189388Y59075720D01*
X12189257Y59077716D01*
X12190920Y59078827D01*
X12192334Y59078366D01*
G37*
G36*
X13792334Y59078366D02*
G01*
X13840147Y59038408D01*
X13909981Y59029636D01*
X13973628Y59060088D01*
X13982204Y59069984D01*
X13984094Y59070638D01*
X13985605Y59069328D01*
X13985677Y59068284D01*
X13982000Y59049801D01*
X13982000Y57550199D01*
X13985691Y57531645D01*
X13990612Y57524280D01*
X13990743Y57522284D01*
X13989080Y57521173D01*
X13987666Y57521634D01*
X13939853Y57561592D01*
X13870019Y57570364D01*
X13806372Y57539912D01*
X13797796Y57530016D01*
X13795906Y57529362D01*
X13794395Y57530672D01*
X13794323Y57531716D01*
X13798000Y57550199D01*
X13798000Y59049801D01*
X13794309Y59068355D01*
X13789388Y59075720D01*
X13789257Y59077716D01*
X13790920Y59078827D01*
X13792334Y59078366D01*
G37*
G36*
X8992334Y59078366D02*
G01*
X9040147Y59038408D01*
X9109981Y59029636D01*
X9173628Y59060088D01*
X9182204Y59069984D01*
X9184094Y59070638D01*
X9185605Y59069328D01*
X9185677Y59068284D01*
X9182000Y59049801D01*
X9182000Y57550199D01*
X9185691Y57531645D01*
X9190612Y57524280D01*
X9190743Y57522284D01*
X9189080Y57521173D01*
X9187666Y57521634D01*
X9139853Y57561592D01*
X9070019Y57570364D01*
X9006372Y57539912D01*
X8997796Y57530016D01*
X8995906Y57529362D01*
X8994395Y57530672D01*
X8994323Y57531716D01*
X8998000Y57550199D01*
X8998000Y59049801D01*
X8994309Y59068355D01*
X8989388Y59075720D01*
X8989257Y59077716D01*
X8990920Y59078827D01*
X8992334Y59078366D01*
G37*
G36*
X14592334Y59078366D02*
G01*
X14640147Y59038408D01*
X14709981Y59029636D01*
X14773628Y59060088D01*
X14782204Y59069984D01*
X14784094Y59070638D01*
X14785605Y59069328D01*
X14785677Y59068284D01*
X14782000Y59049801D01*
X14782000Y57550199D01*
X14785691Y57531645D01*
X14790612Y57524280D01*
X14790743Y57522284D01*
X14789080Y57521173D01*
X14787666Y57521634D01*
X14739853Y57561592D01*
X14670019Y57570364D01*
X14606372Y57539912D01*
X14597796Y57530016D01*
X14595906Y57529362D01*
X14594395Y57530672D01*
X14594323Y57531716D01*
X14598000Y57550199D01*
X14598000Y59049801D01*
X14594309Y59068355D01*
X14589388Y59075720D01*
X14589257Y59077716D01*
X14590920Y59078827D01*
X14592334Y59078366D01*
G37*
G36*
X10592334Y59078366D02*
G01*
X10640147Y59038408D01*
X10709981Y59029636D01*
X10773628Y59060088D01*
X10782204Y59069984D01*
X10784094Y59070638D01*
X10785605Y59069328D01*
X10785677Y59068284D01*
X10782000Y59049801D01*
X10782000Y57550199D01*
X10785691Y57531645D01*
X10790612Y57524280D01*
X10790743Y57522284D01*
X10789080Y57521173D01*
X10787666Y57521634D01*
X10739853Y57561592D01*
X10670019Y57570364D01*
X10606372Y57539912D01*
X10597796Y57530016D01*
X10595906Y57529362D01*
X10594395Y57530672D01*
X10594323Y57531716D01*
X10598000Y57550199D01*
X10598000Y59049801D01*
X10594309Y59068355D01*
X10589388Y59075720D01*
X10589257Y59077716D01*
X10590920Y59078827D01*
X10592334Y59078366D01*
G37*
G36*
X15392334Y59078366D02*
G01*
X15440147Y59038408D01*
X15509981Y59029636D01*
X15573628Y59060088D01*
X15582204Y59069984D01*
X15584094Y59070638D01*
X15585605Y59069328D01*
X15585677Y59068284D01*
X15582000Y59049801D01*
X15582000Y57550199D01*
X15585691Y57531645D01*
X15590612Y57524280D01*
X15590743Y57522284D01*
X15589080Y57521173D01*
X15587666Y57521634D01*
X15539853Y57561592D01*
X15470019Y57570364D01*
X15406372Y57539912D01*
X15397796Y57530016D01*
X15395906Y57529362D01*
X15394395Y57530672D01*
X15394323Y57531716D01*
X15398000Y57550199D01*
X15398000Y59049801D01*
X15394309Y59068355D01*
X15389388Y59075720D01*
X15389257Y59077716D01*
X15390920Y59078827D01*
X15392334Y59078366D01*
G37*
G36*
X86728832Y58499092D02*
G01*
X86728371Y58497678D01*
X86688413Y58449865D01*
X86679641Y58380031D01*
X86710093Y58316384D01*
X86719989Y58307808D01*
X86720643Y58305918D01*
X86719333Y58304407D01*
X86718289Y58304335D01*
X86699806Y58308012D01*
X85200204Y58308012D01*
X85181650Y58304321D01*
X85174285Y58299400D01*
X85172289Y58299269D01*
X85171178Y58300932D01*
X85171639Y58302346D01*
X85211597Y58350159D01*
X85220369Y58419993D01*
X85189917Y58483640D01*
X85180021Y58492216D01*
X85179367Y58494106D01*
X85180677Y58495617D01*
X85181721Y58495689D01*
X85200204Y58492012D01*
X86699806Y58492012D01*
X86718360Y58495703D01*
X86725725Y58500624D01*
X86727721Y58500755D01*
X86728832Y58499092D01*
G37*
G36*
X74628832Y58499092D02*
G01*
X74628371Y58497678D01*
X74588413Y58449865D01*
X74579641Y58380031D01*
X74610093Y58316384D01*
X74619989Y58307808D01*
X74620643Y58305918D01*
X74619333Y58304407D01*
X74618289Y58304335D01*
X74599806Y58308012D01*
X73100204Y58308012D01*
X73081650Y58304321D01*
X73074285Y58299400D01*
X73072289Y58299269D01*
X73071178Y58300932D01*
X73071639Y58302346D01*
X73111597Y58350159D01*
X73120369Y58419993D01*
X73089917Y58483640D01*
X73080021Y58492216D01*
X73079367Y58494106D01*
X73080677Y58495617D01*
X73081721Y58495689D01*
X73100204Y58492012D01*
X74599806Y58492012D01*
X74618360Y58495703D01*
X74625725Y58500624D01*
X74627721Y58500755D01*
X74628832Y58499092D01*
G37*
G36*
X74628832Y59299092D02*
G01*
X74628371Y59297678D01*
X74588413Y59249865D01*
X74579641Y59180031D01*
X74610093Y59116384D01*
X74619989Y59107808D01*
X74620643Y59105918D01*
X74619333Y59104407D01*
X74618289Y59104335D01*
X74599806Y59108012D01*
X73100204Y59108012D01*
X73081650Y59104321D01*
X73074285Y59099400D01*
X73072289Y59099269D01*
X73071178Y59100932D01*
X73071639Y59102346D01*
X73111597Y59150159D01*
X73120369Y59219993D01*
X73089917Y59283640D01*
X73080021Y59292216D01*
X73079367Y59294106D01*
X73080677Y59295617D01*
X73081721Y59295689D01*
X73100204Y59292012D01*
X74599806Y59292012D01*
X74618360Y59295703D01*
X74625725Y59300624D01*
X74627721Y59300755D01*
X74628832Y59299092D01*
G37*
G36*
X86728832Y59299092D02*
G01*
X86728371Y59297678D01*
X86688413Y59249865D01*
X86679641Y59180031D01*
X86710093Y59116384D01*
X86719989Y59107808D01*
X86720643Y59105918D01*
X86719333Y59104407D01*
X86718289Y59104335D01*
X86699806Y59108012D01*
X85200204Y59108012D01*
X85181650Y59104321D01*
X85174285Y59099400D01*
X85172289Y59099269D01*
X85171178Y59100932D01*
X85171639Y59102346D01*
X85211597Y59150159D01*
X85220369Y59219993D01*
X85189917Y59283640D01*
X85180021Y59292216D01*
X85179367Y59294106D01*
X85180677Y59295617D01*
X85181721Y59295689D01*
X85200204Y59292012D01*
X86699806Y59292012D01*
X86718360Y59295703D01*
X86725725Y59300624D01*
X86727721Y59300755D01*
X86728832Y59299092D01*
G37*
G36*
X86728832Y60099092D02*
G01*
X86728371Y60097678D01*
X86688413Y60049865D01*
X86679641Y59980031D01*
X86710093Y59916384D01*
X86719989Y59907808D01*
X86720643Y59905918D01*
X86719333Y59904407D01*
X86718289Y59904335D01*
X86699806Y59908012D01*
X85200204Y59908012D01*
X85181650Y59904321D01*
X85174285Y59899400D01*
X85172289Y59899269D01*
X85171178Y59900932D01*
X85171639Y59902346D01*
X85211597Y59950159D01*
X85220369Y60019993D01*
X85189917Y60083640D01*
X85180021Y60092216D01*
X85179367Y60094106D01*
X85180677Y60095617D01*
X85181721Y60095689D01*
X85200204Y60092012D01*
X86699806Y60092012D01*
X86718360Y60095703D01*
X86725725Y60100624D01*
X86727721Y60100755D01*
X86728832Y60099092D01*
G37*
G36*
X74628832Y60099092D02*
G01*
X74628371Y60097678D01*
X74588413Y60049865D01*
X74579641Y59980031D01*
X74610093Y59916384D01*
X74619989Y59907808D01*
X74620643Y59905918D01*
X74619333Y59904407D01*
X74618289Y59904335D01*
X74599806Y59908012D01*
X73100204Y59908012D01*
X73081650Y59904321D01*
X73074285Y59899400D01*
X73072289Y59899269D01*
X73071178Y59900932D01*
X73071639Y59902346D01*
X73111597Y59950159D01*
X73120369Y60019993D01*
X73089917Y60083640D01*
X73080021Y60092216D01*
X73079367Y60094106D01*
X73080677Y60095617D01*
X73081721Y60095689D01*
X73100204Y60092012D01*
X74599806Y60092012D01*
X74618360Y60095703D01*
X74625725Y60100624D01*
X74627721Y60100755D01*
X74628832Y60099092D01*
G37*
G36*
X74628832Y60899092D02*
G01*
X74628371Y60897678D01*
X74588413Y60849865D01*
X74579641Y60780031D01*
X74610093Y60716384D01*
X74619989Y60707808D01*
X74620643Y60705918D01*
X74619333Y60704407D01*
X74618289Y60704335D01*
X74599806Y60708012D01*
X73100204Y60708012D01*
X73081650Y60704321D01*
X73074285Y60699400D01*
X73072289Y60699269D01*
X73071178Y60700932D01*
X73071639Y60702346D01*
X73111597Y60750159D01*
X73120369Y60819993D01*
X73089917Y60883640D01*
X73080021Y60892216D01*
X73079367Y60894106D01*
X73080677Y60895617D01*
X73081721Y60895689D01*
X73100204Y60892012D01*
X74599806Y60892012D01*
X74618360Y60895703D01*
X74625725Y60900624D01*
X74627721Y60900755D01*
X74628832Y60899092D01*
G37*
G36*
X86728832Y60899092D02*
G01*
X86728371Y60897678D01*
X86688413Y60849865D01*
X86679641Y60780031D01*
X86710093Y60716384D01*
X86719989Y60707808D01*
X86720643Y60705918D01*
X86719333Y60704407D01*
X86718289Y60704335D01*
X86699806Y60708012D01*
X85200204Y60708012D01*
X85181650Y60704321D01*
X85174285Y60699400D01*
X85172289Y60699269D01*
X85171178Y60700932D01*
X85171639Y60702346D01*
X85211597Y60750159D01*
X85220369Y60819993D01*
X85189917Y60883640D01*
X85180021Y60892216D01*
X85179367Y60894106D01*
X85180677Y60895617D01*
X85181721Y60895689D01*
X85200204Y60892012D01*
X86699806Y60892012D01*
X86718360Y60895703D01*
X86725725Y60900624D01*
X86727721Y60900755D01*
X86728832Y60899092D01*
G37*
G36*
X79402339Y64028378D02*
G01*
X79450152Y63988420D01*
X79519986Y63979648D01*
X79583633Y64010100D01*
X79592209Y64019996D01*
X79594099Y64020650D01*
X79595610Y64019340D01*
X79595682Y64018296D01*
X79592005Y63999813D01*
X79592005Y62500211D01*
X79595696Y62481657D01*
X79600617Y62474292D01*
X79600748Y62472296D01*
X79599085Y62471185D01*
X79597671Y62471646D01*
X79549858Y62511604D01*
X79480024Y62520376D01*
X79416377Y62489924D01*
X79407801Y62480028D01*
X79405911Y62479374D01*
X79404400Y62480684D01*
X79404328Y62481728D01*
X79408005Y62500211D01*
X79408005Y63999813D01*
X79404314Y64018367D01*
X79399393Y64025732D01*
X79399262Y64027728D01*
X79400925Y64028839D01*
X79402339Y64028378D01*
G37*
G36*
X76202339Y64028378D02*
G01*
X76250152Y63988420D01*
X76319986Y63979648D01*
X76383633Y64010100D01*
X76392209Y64019996D01*
X76394099Y64020650D01*
X76395610Y64019340D01*
X76395682Y64018296D01*
X76392005Y63999813D01*
X76392005Y62500211D01*
X76395696Y62481657D01*
X76400617Y62474292D01*
X76400748Y62472296D01*
X76399085Y62471185D01*
X76397671Y62471646D01*
X76349858Y62511604D01*
X76280024Y62520376D01*
X76216377Y62489924D01*
X76207801Y62480028D01*
X76205911Y62479374D01*
X76204400Y62480684D01*
X76204328Y62481728D01*
X76208005Y62500211D01*
X76208005Y63999813D01*
X76204314Y64018367D01*
X76199393Y64025732D01*
X76199262Y64027728D01*
X76200925Y64028839D01*
X76202339Y64028378D01*
G37*
G36*
X81002339Y64028378D02*
G01*
X81050152Y63988420D01*
X81119986Y63979648D01*
X81183633Y64010100D01*
X81192209Y64019996D01*
X81194099Y64020650D01*
X81195610Y64019340D01*
X81195682Y64018296D01*
X81192005Y63999813D01*
X81192005Y62500211D01*
X81195696Y62481657D01*
X81200617Y62474292D01*
X81200748Y62472296D01*
X81199085Y62471185D01*
X81197671Y62471646D01*
X81149858Y62511604D01*
X81080024Y62520376D01*
X81016377Y62489924D01*
X81007801Y62480028D01*
X81005911Y62479374D01*
X81004400Y62480684D01*
X81004328Y62481728D01*
X81008005Y62500211D01*
X81008005Y63999813D01*
X81004314Y64018367D01*
X80999393Y64025732D01*
X80999262Y64027728D01*
X81000925Y64028839D01*
X81002339Y64028378D01*
G37*
G36*
X82602339Y64028378D02*
G01*
X82650152Y63988420D01*
X82719986Y63979648D01*
X82783633Y64010100D01*
X82792209Y64019996D01*
X82794099Y64020650D01*
X82795610Y64019340D01*
X82795682Y64018296D01*
X82792005Y63999813D01*
X82792005Y62500211D01*
X82795696Y62481657D01*
X82800617Y62474292D01*
X82800748Y62472296D01*
X82799085Y62471185D01*
X82797671Y62471646D01*
X82749858Y62511604D01*
X82680024Y62520376D01*
X82616377Y62489924D01*
X82607801Y62480028D01*
X82605911Y62479374D01*
X82604400Y62480684D01*
X82604328Y62481728D01*
X82608005Y62500211D01*
X82608005Y63999813D01*
X82604314Y64018367D01*
X82599393Y64025732D01*
X82599262Y64027728D01*
X82600925Y64028839D01*
X82602339Y64028378D01*
G37*
G36*
X77002339Y64028378D02*
G01*
X77050152Y63988420D01*
X77119986Y63979648D01*
X77183633Y64010100D01*
X77192209Y64019996D01*
X77194099Y64020650D01*
X77195610Y64019340D01*
X77195682Y64018296D01*
X77192005Y63999813D01*
X77192005Y62500211D01*
X77195696Y62481657D01*
X77200617Y62474292D01*
X77200748Y62472296D01*
X77199085Y62471185D01*
X77197671Y62471646D01*
X77149858Y62511604D01*
X77080024Y62520376D01*
X77016377Y62489924D01*
X77007801Y62480028D01*
X77005911Y62479374D01*
X77004400Y62480684D01*
X77004328Y62481728D01*
X77008005Y62500211D01*
X77008005Y63999813D01*
X77004314Y64018367D01*
X76999393Y64025732D01*
X76999262Y64027728D01*
X77000925Y64028839D01*
X77002339Y64028378D01*
G37*
G36*
X78602339Y64028378D02*
G01*
X78650152Y63988420D01*
X78719986Y63979648D01*
X78783633Y64010100D01*
X78792209Y64019996D01*
X78794099Y64020650D01*
X78795610Y64019340D01*
X78795682Y64018296D01*
X78792005Y63999813D01*
X78792005Y62500211D01*
X78795696Y62481657D01*
X78800617Y62474292D01*
X78800748Y62472296D01*
X78799085Y62471185D01*
X78797671Y62471646D01*
X78749858Y62511604D01*
X78680024Y62520376D01*
X78616377Y62489924D01*
X78607801Y62480028D01*
X78605911Y62479374D01*
X78604400Y62480684D01*
X78604328Y62481728D01*
X78608005Y62500211D01*
X78608005Y63999813D01*
X78604314Y64018367D01*
X78599393Y64025732D01*
X78599262Y64027728D01*
X78600925Y64028839D01*
X78602339Y64028378D01*
G37*
G36*
X81802339Y64028378D02*
G01*
X81850152Y63988420D01*
X81919986Y63979648D01*
X81983633Y64010100D01*
X81992209Y64019996D01*
X81994099Y64020650D01*
X81995610Y64019340D01*
X81995682Y64018296D01*
X81992005Y63999813D01*
X81992005Y62500211D01*
X81995696Y62481657D01*
X82000617Y62474292D01*
X82000748Y62472296D01*
X81999085Y62471185D01*
X81997671Y62471646D01*
X81949858Y62511604D01*
X81880024Y62520376D01*
X81816377Y62489924D01*
X81807801Y62480028D01*
X81805911Y62479374D01*
X81804400Y62480684D01*
X81804328Y62481728D01*
X81808005Y62500211D01*
X81808005Y63999813D01*
X81804314Y64018367D01*
X81799393Y64025732D01*
X81799262Y64027728D01*
X81800925Y64028839D01*
X81802339Y64028378D01*
G37*
G36*
X77802339Y64028378D02*
G01*
X77850152Y63988420D01*
X77919986Y63979648D01*
X77983633Y64010100D01*
X77992209Y64019996D01*
X77994099Y64020650D01*
X77995610Y64019340D01*
X77995682Y64018296D01*
X77992005Y63999813D01*
X77992005Y62500211D01*
X77995696Y62481657D01*
X78000617Y62474292D01*
X78000748Y62472296D01*
X77999085Y62471185D01*
X77997671Y62471646D01*
X77949858Y62511604D01*
X77880024Y62520376D01*
X77816377Y62489924D01*
X77807801Y62480028D01*
X77805911Y62479374D01*
X77804400Y62480684D01*
X77804328Y62481728D01*
X77808005Y62500211D01*
X77808005Y63999813D01*
X77804314Y64018367D01*
X77799393Y64025732D01*
X77799262Y64027728D01*
X77800925Y64028839D01*
X77802339Y64028378D01*
G37*
G36*
X83402339Y64028378D02*
G01*
X83450152Y63988420D01*
X83519986Y63979648D01*
X83583633Y64010100D01*
X83592209Y64019996D01*
X83594099Y64020650D01*
X83595610Y64019340D01*
X83595682Y64018296D01*
X83592005Y63999813D01*
X83592005Y62500211D01*
X83595696Y62481657D01*
X83600617Y62474292D01*
X83600748Y62472296D01*
X83599085Y62471185D01*
X83597671Y62471646D01*
X83549858Y62511604D01*
X83480024Y62520376D01*
X83416377Y62489924D01*
X83407801Y62480028D01*
X83405911Y62479374D01*
X83404400Y62480684D01*
X83404328Y62481728D01*
X83408005Y62500211D01*
X83408005Y63999813D01*
X83404314Y64018367D01*
X83399393Y64025732D01*
X83399262Y64027728D01*
X83400925Y64028839D01*
X83402339Y64028378D01*
G37*
G36*
X80202339Y64028378D02*
G01*
X80250152Y63988420D01*
X80319986Y63979648D01*
X80383633Y64010100D01*
X80392209Y64019996D01*
X80394099Y64020650D01*
X80395610Y64019340D01*
X80395682Y64018296D01*
X80392005Y63999813D01*
X80392005Y62500211D01*
X80395696Y62481657D01*
X80400617Y62474292D01*
X80400748Y62472296D01*
X80399085Y62471185D01*
X80397671Y62471646D01*
X80349858Y62511604D01*
X80280024Y62520376D01*
X80216377Y62489924D01*
X80207801Y62480028D01*
X80205911Y62479374D01*
X80204400Y62480684D01*
X80204328Y62481728D01*
X80208005Y62500211D01*
X80208005Y63999813D01*
X80204314Y64018367D01*
X80199393Y64025732D01*
X80199262Y64027728D01*
X80200925Y64028839D01*
X80202339Y64028378D01*
G37*
G36*
X736057Y65152766D02*
G01*
X746645Y65145691D01*
X765199Y65142000D01*
X1864801Y65142000D01*
X1883355Y65145691D01*
X1893943Y65152766D01*
X1895939Y65152897D01*
X1897050Y65151234D01*
X1896717Y65149992D01*
X1886491Y65134687D01*
X1865373Y65067248D01*
X1886500Y64995299D01*
X1896717Y64980008D01*
X1896848Y64978012D01*
X1895185Y64976901D01*
X1893943Y64977234D01*
X1883355Y64984309D01*
X1864801Y64988000D01*
X765199Y64988000D01*
X746645Y64984309D01*
X736057Y64977234D01*
X734061Y64977103D01*
X732950Y64978766D01*
X733283Y64980008D01*
X743509Y64995313D01*
X764627Y65062752D01*
X743500Y65134701D01*
X733283Y65149992D01*
X733152Y65151988D01*
X734815Y65153099D01*
X736057Y65152766D01*
G37*
G36*
X736057Y66252766D02*
G01*
X746645Y66245691D01*
X765199Y66242000D01*
X1864801Y66242000D01*
X1883355Y66245691D01*
X1893943Y66252766D01*
X1895939Y66252897D01*
X1897050Y66251234D01*
X1896717Y66249992D01*
X1886491Y66234687D01*
X1865373Y66167248D01*
X1886500Y66095299D01*
X1896717Y66080008D01*
X1896848Y66078012D01*
X1895185Y66076901D01*
X1893943Y66077234D01*
X1883355Y66084309D01*
X1864801Y66088000D01*
X765199Y66088000D01*
X746645Y66084309D01*
X736057Y66077234D01*
X734061Y66077103D01*
X732950Y66078766D01*
X733283Y66080008D01*
X743509Y66095313D01*
X764627Y66162752D01*
X743500Y66234701D01*
X733283Y66249992D01*
X733152Y66251988D01*
X734815Y66253099D01*
X736057Y66252766D01*
G37*
G36*
X736057Y67352766D02*
G01*
X746645Y67345691D01*
X765199Y67342000D01*
X1864801Y67342000D01*
X1883355Y67345691D01*
X1893943Y67352766D01*
X1895939Y67352897D01*
X1897050Y67351234D01*
X1896717Y67349992D01*
X1886491Y67334687D01*
X1865373Y67267248D01*
X1886500Y67195299D01*
X1896717Y67180008D01*
X1896848Y67178012D01*
X1895185Y67176901D01*
X1893943Y67177234D01*
X1883355Y67184309D01*
X1864801Y67188000D01*
X765199Y67188000D01*
X746645Y67184309D01*
X736057Y67177234D01*
X734061Y67177103D01*
X732950Y67178766D01*
X733283Y67180008D01*
X743509Y67195313D01*
X764627Y67262752D01*
X743500Y67334701D01*
X733283Y67349992D01*
X733152Y67351988D01*
X734815Y67353099D01*
X736057Y67352766D01*
G37*
G36*
X736057Y68452766D02*
G01*
X746645Y68445691D01*
X765199Y68442000D01*
X1864801Y68442000D01*
X1883355Y68445691D01*
X1893943Y68452766D01*
X1895939Y68452897D01*
X1897050Y68451234D01*
X1896717Y68449992D01*
X1886491Y68434687D01*
X1865373Y68367248D01*
X1886500Y68295299D01*
X1896717Y68280008D01*
X1896848Y68278012D01*
X1895185Y68276901D01*
X1893943Y68277234D01*
X1883355Y68284309D01*
X1864801Y68288000D01*
X765199Y68288000D01*
X746645Y68284309D01*
X736057Y68277234D01*
X734061Y68277103D01*
X732950Y68278766D01*
X733283Y68280008D01*
X743509Y68295313D01*
X764627Y68362752D01*
X743500Y68434701D01*
X733283Y68449992D01*
X733152Y68451988D01*
X734815Y68453099D01*
X736057Y68452766D01*
G37*
G36*
X736057Y69552766D02*
G01*
X746645Y69545691D01*
X765199Y69542000D01*
X1864801Y69542000D01*
X1883355Y69545691D01*
X1893943Y69552766D01*
X1895939Y69552897D01*
X1897050Y69551234D01*
X1896717Y69549992D01*
X1886491Y69534687D01*
X1865373Y69467248D01*
X1886500Y69395299D01*
X1896717Y69380008D01*
X1896848Y69378012D01*
X1895185Y69376901D01*
X1893943Y69377234D01*
X1883355Y69384309D01*
X1864801Y69388000D01*
X765199Y69388000D01*
X746645Y69384309D01*
X736057Y69377234D01*
X734061Y69377103D01*
X732950Y69378766D01*
X733283Y69380008D01*
X743509Y69395313D01*
X764627Y69462752D01*
X743500Y69534701D01*
X733283Y69549992D01*
X733152Y69551988D01*
X734815Y69553099D01*
X736057Y69552766D01*
G37*
G36*
X736057Y70652766D02*
G01*
X746645Y70645691D01*
X765199Y70642000D01*
X1864801Y70642000D01*
X1883355Y70645691D01*
X1893943Y70652766D01*
X1895939Y70652897D01*
X1897050Y70651234D01*
X1896717Y70649992D01*
X1886491Y70634687D01*
X1865373Y70567248D01*
X1886500Y70495299D01*
X1896717Y70480008D01*
X1896848Y70478012D01*
X1895185Y70476901D01*
X1893943Y70477234D01*
X1883355Y70484309D01*
X1864801Y70488000D01*
X765199Y70488000D01*
X746645Y70484309D01*
X736057Y70477234D01*
X734061Y70477103D01*
X732950Y70478766D01*
X733283Y70480008D01*
X743509Y70495313D01*
X764627Y70562752D01*
X743500Y70634701D01*
X733283Y70649992D01*
X733152Y70651988D01*
X734815Y70653099D01*
X736057Y70652766D01*
G37*
G36*
X736057Y71752766D02*
G01*
X746645Y71745691D01*
X765199Y71742000D01*
X1864801Y71742000D01*
X1883355Y71745691D01*
X1893943Y71752766D01*
X1895939Y71752897D01*
X1897050Y71751234D01*
X1896717Y71749992D01*
X1886491Y71734687D01*
X1865373Y71667248D01*
X1886500Y71595299D01*
X1896717Y71580008D01*
X1896848Y71578012D01*
X1895185Y71576901D01*
X1893943Y71577234D01*
X1883355Y71584309D01*
X1864801Y71588000D01*
X765199Y71588000D01*
X746645Y71584309D01*
X736057Y71577234D01*
X734061Y71577103D01*
X732950Y71578766D01*
X733283Y71580008D01*
X743509Y71595313D01*
X764627Y71662752D01*
X743500Y71734701D01*
X733283Y71749992D01*
X733152Y71751988D01*
X734815Y71753099D01*
X736057Y71752766D01*
G37*
G36*
X57957008Y73336717D02*
G01*
X57972313Y73326491D01*
X58039752Y73305373D01*
X58111701Y73326500D01*
X58126992Y73336717D01*
X58128988Y73336848D01*
X58130099Y73335185D01*
X58129766Y73333943D01*
X58122691Y73323355D01*
X58119000Y73304801D01*
X58119000Y71805199D01*
X58122691Y71786645D01*
X58129766Y71776057D01*
X58129897Y71774061D01*
X58128234Y71772950D01*
X58126992Y71773283D01*
X58111687Y71783509D01*
X58044248Y71804627D01*
X57972299Y71783500D01*
X57957008Y71773283D01*
X57955012Y71773152D01*
X57953901Y71774815D01*
X57954234Y71776057D01*
X57961309Y71786645D01*
X57965000Y71805199D01*
X57965000Y73304801D01*
X57961309Y73323355D01*
X57954234Y73333943D01*
X57954103Y73335939D01*
X57955766Y73337050D01*
X57957008Y73336717D01*
G37*
G36*
X59557008Y73336717D02*
G01*
X59572313Y73326491D01*
X59639752Y73305373D01*
X59711701Y73326500D01*
X59726992Y73336717D01*
X59728988Y73336848D01*
X59730099Y73335185D01*
X59729766Y73333943D01*
X59722691Y73323355D01*
X59719000Y73304801D01*
X59719000Y71805199D01*
X59722691Y71786645D01*
X59729766Y71776057D01*
X59729897Y71774061D01*
X59728234Y71772950D01*
X59726992Y71773283D01*
X59711687Y71783509D01*
X59644248Y71804627D01*
X59572299Y71783500D01*
X59557008Y71773283D01*
X59555012Y71773152D01*
X59553901Y71774815D01*
X59554234Y71776057D01*
X59561309Y71786645D01*
X59565000Y71805199D01*
X59565000Y73304801D01*
X59561309Y73323355D01*
X59554234Y73333943D01*
X59554103Y73335939D01*
X59555766Y73337050D01*
X59557008Y73336717D01*
G37*
G36*
X61957008Y73336717D02*
G01*
X61972313Y73326491D01*
X62039752Y73305373D01*
X62111701Y73326500D01*
X62126992Y73336717D01*
X62128988Y73336848D01*
X62130099Y73335185D01*
X62129766Y73333943D01*
X62122691Y73323355D01*
X62119000Y73304801D01*
X62119000Y71805199D01*
X62122691Y71786645D01*
X62129766Y71776057D01*
X62129897Y71774061D01*
X62128234Y71772950D01*
X62126992Y71773283D01*
X62111687Y71783509D01*
X62044248Y71804627D01*
X61972299Y71783500D01*
X61957008Y71773283D01*
X61955012Y71773152D01*
X61953901Y71774815D01*
X61954234Y71776057D01*
X61961309Y71786645D01*
X61965000Y71805199D01*
X61965000Y73304801D01*
X61961309Y73323355D01*
X61954234Y73333943D01*
X61954103Y73335939D01*
X61955766Y73337050D01*
X61957008Y73336717D01*
G37*
G36*
X58757008Y73336717D02*
G01*
X58772313Y73326491D01*
X58839752Y73305373D01*
X58911701Y73326500D01*
X58926992Y73336717D01*
X58928988Y73336848D01*
X58930099Y73335185D01*
X58929766Y73333943D01*
X58922691Y73323355D01*
X58919000Y73304801D01*
X58919000Y71805199D01*
X58922691Y71786645D01*
X58929766Y71776057D01*
X58929897Y71774061D01*
X58928234Y71772950D01*
X58926992Y71773283D01*
X58911687Y71783509D01*
X58844248Y71804627D01*
X58772299Y71783500D01*
X58757008Y71773283D01*
X58755012Y71773152D01*
X58753901Y71774815D01*
X58754234Y71776057D01*
X58761309Y71786645D01*
X58765000Y71805199D01*
X58765000Y73304801D01*
X58761309Y73323355D01*
X58754234Y73333943D01*
X58754103Y73335939D01*
X58755766Y73337050D01*
X58757008Y73336717D01*
G37*
G36*
X60357008Y73336717D02*
G01*
X60372313Y73326491D01*
X60439752Y73305373D01*
X60511701Y73326500D01*
X60526992Y73336717D01*
X60528988Y73336848D01*
X60530099Y73335185D01*
X60529766Y73333943D01*
X60522691Y73323355D01*
X60519000Y73304801D01*
X60519000Y71805199D01*
X60522691Y71786645D01*
X60529766Y71776057D01*
X60529897Y71774061D01*
X60528234Y71772950D01*
X60526992Y71773283D01*
X60511687Y71783509D01*
X60444248Y71804627D01*
X60372299Y71783500D01*
X60357008Y71773283D01*
X60355012Y71773152D01*
X60353901Y71774815D01*
X60354234Y71776057D01*
X60361309Y71786645D01*
X60365000Y71805199D01*
X60365000Y73304801D01*
X60361309Y73323355D01*
X60354234Y73333943D01*
X60354103Y73335939D01*
X60355766Y73337050D01*
X60357008Y73336717D01*
G37*
G36*
X64357008Y73336717D02*
G01*
X64372313Y73326491D01*
X64439752Y73305373D01*
X64511701Y73326500D01*
X64526992Y73336717D01*
X64528988Y73336848D01*
X64530099Y73335185D01*
X64529766Y73333943D01*
X64522691Y73323355D01*
X64519000Y73304801D01*
X64519000Y71805199D01*
X64522691Y71786645D01*
X64529766Y71776057D01*
X64529897Y71774061D01*
X64528234Y71772950D01*
X64526992Y71773283D01*
X64511687Y71783509D01*
X64444248Y71804627D01*
X64372299Y71783500D01*
X64357008Y71773283D01*
X64355012Y71773152D01*
X64353901Y71774815D01*
X64354234Y71776057D01*
X64361309Y71786645D01*
X64365000Y71805199D01*
X64365000Y73304801D01*
X64361309Y73323355D01*
X64354234Y73333943D01*
X64354103Y73335939D01*
X64355766Y73337050D01*
X64357008Y73336717D01*
G37*
G36*
X61157008Y73336717D02*
G01*
X61172313Y73326491D01*
X61239752Y73305373D01*
X61311701Y73326500D01*
X61326992Y73336717D01*
X61328988Y73336848D01*
X61330099Y73335185D01*
X61329766Y73333943D01*
X61322691Y73323355D01*
X61319000Y73304801D01*
X61319000Y71805199D01*
X61322691Y71786645D01*
X61329766Y71776057D01*
X61329897Y71774061D01*
X61328234Y71772950D01*
X61326992Y71773283D01*
X61311687Y71783509D01*
X61244248Y71804627D01*
X61172299Y71783500D01*
X61157008Y71773283D01*
X61155012Y71773152D01*
X61153901Y71774815D01*
X61154234Y71776057D01*
X61161309Y71786645D01*
X61165000Y71805199D01*
X61165000Y73304801D01*
X61161309Y73323355D01*
X61154234Y73333943D01*
X61154103Y73335939D01*
X61155766Y73337050D01*
X61157008Y73336717D01*
G37*
G36*
X63557008Y73336717D02*
G01*
X63572313Y73326491D01*
X63639752Y73305373D01*
X63711701Y73326500D01*
X63726992Y73336717D01*
X63728988Y73336848D01*
X63730099Y73335185D01*
X63729766Y73333943D01*
X63722691Y73323355D01*
X63719000Y73304801D01*
X63719000Y71805199D01*
X63722691Y71786645D01*
X63729766Y71776057D01*
X63729897Y71774061D01*
X63728234Y71772950D01*
X63726992Y71773283D01*
X63711687Y71783509D01*
X63644248Y71804627D01*
X63572299Y71783500D01*
X63557008Y71773283D01*
X63555012Y71773152D01*
X63553901Y71774815D01*
X63554234Y71776057D01*
X63561309Y71786645D01*
X63565000Y71805199D01*
X63565000Y73304801D01*
X63561309Y73323355D01*
X63554234Y73333943D01*
X63554103Y73335939D01*
X63555766Y73337050D01*
X63557008Y73336717D01*
G37*
G36*
X62757008Y73336717D02*
G01*
X62772313Y73326491D01*
X62839752Y73305373D01*
X62911701Y73326500D01*
X62926992Y73336717D01*
X62928988Y73336848D01*
X62930099Y73335185D01*
X62929766Y73333943D01*
X62922691Y73323355D01*
X62919000Y73304801D01*
X62919000Y71805199D01*
X62922691Y71786645D01*
X62929766Y71776057D01*
X62929897Y71774061D01*
X62928234Y71772950D01*
X62926992Y71773283D01*
X62911687Y71783509D01*
X62844248Y71804627D01*
X62772299Y71783500D01*
X62757008Y71773283D01*
X62755012Y71773152D01*
X62753901Y71774815D01*
X62754234Y71776057D01*
X62761309Y71786645D01*
X62765000Y71805199D01*
X62765000Y73304801D01*
X62761309Y73323355D01*
X62754234Y73333943D01*
X62754103Y73335939D01*
X62755766Y73337050D01*
X62757008Y73336717D01*
G37*
G36*
X65157008Y73336717D02*
G01*
X65172313Y73326491D01*
X65239752Y73305373D01*
X65311701Y73326500D01*
X65326992Y73336717D01*
X65328988Y73336848D01*
X65330099Y73335185D01*
X65329766Y73333943D01*
X65322691Y73323355D01*
X65319000Y73304801D01*
X65319000Y71805199D01*
X65322691Y71786645D01*
X65329766Y71776057D01*
X65329897Y71774061D01*
X65328234Y71772950D01*
X65326992Y71773283D01*
X65311687Y71783509D01*
X65244248Y71804627D01*
X65172299Y71783500D01*
X65157008Y71773283D01*
X65155012Y71773152D01*
X65153901Y71774815D01*
X65154234Y71776057D01*
X65161309Y71786645D01*
X65165000Y71805199D01*
X65165000Y73304801D01*
X65161309Y73323355D01*
X65154234Y73333943D01*
X65154103Y73335939D01*
X65155766Y73337050D01*
X65157008Y73336717D01*
G37*
G36*
X82865427Y73860907D02*
G01*
X82865991Y73858988D01*
X82865710Y73858349D01*
X82855691Y73843355D01*
X82852000Y73824801D01*
X82852000Y72075199D01*
X82855691Y72056645D01*
X82865603Y72041811D01*
X82865734Y72039815D01*
X82864071Y72038704D01*
X82863342Y72038791D01*
X82802247Y72057922D01*
X82736516Y72038621D01*
X82734573Y72039093D01*
X82734009Y72041012D01*
X82734290Y72041651D01*
X82744309Y72056645D01*
X82748000Y72075199D01*
X82748000Y73824801D01*
X82744309Y73843355D01*
X82734397Y73858189D01*
X82734266Y73860185D01*
X82735929Y73861296D01*
X82736658Y73861209D01*
X82797753Y73842078D01*
X82863484Y73861379D01*
X82865427Y73860907D01*
G37*
G36*
X88065427Y73860907D02*
G01*
X88065991Y73858988D01*
X88065710Y73858349D01*
X88055691Y73843355D01*
X88052000Y73824801D01*
X88052000Y72075199D01*
X88055691Y72056645D01*
X88065603Y72041811D01*
X88065734Y72039815D01*
X88064071Y72038704D01*
X88063342Y72038791D01*
X88002247Y72057922D01*
X87936516Y72038621D01*
X87934573Y72039093D01*
X87934009Y72041012D01*
X87934290Y72041651D01*
X87944309Y72056645D01*
X87948000Y72075199D01*
X87948000Y73824801D01*
X87944309Y73843355D01*
X87934397Y73858189D01*
X87934266Y73860185D01*
X87935929Y73861296D01*
X87936658Y73861209D01*
X87997753Y73842078D01*
X88063484Y73861379D01*
X88065427Y73860907D01*
G37*
G36*
X84815427Y73860907D02*
G01*
X84815991Y73858988D01*
X84815710Y73858349D01*
X84805691Y73843355D01*
X84802000Y73824801D01*
X84802000Y72075199D01*
X84805691Y72056645D01*
X84815603Y72041811D01*
X84815734Y72039815D01*
X84814071Y72038704D01*
X84813342Y72038791D01*
X84752247Y72057922D01*
X84686516Y72038621D01*
X84684573Y72039093D01*
X84684009Y72041012D01*
X84684290Y72041651D01*
X84694309Y72056645D01*
X84698000Y72075199D01*
X84698000Y73824801D01*
X84694309Y73843355D01*
X84684397Y73858189D01*
X84684266Y73860185D01*
X84685929Y73861296D01*
X84686658Y73861209D01*
X84747753Y73842078D01*
X84813484Y73861379D01*
X84815427Y73860907D01*
G37*
G36*
X89365427Y73860907D02*
G01*
X89365991Y73858988D01*
X89365710Y73858349D01*
X89355691Y73843355D01*
X89352000Y73824801D01*
X89352000Y72075199D01*
X89355691Y72056645D01*
X89365603Y72041811D01*
X89365734Y72039815D01*
X89364071Y72038704D01*
X89363342Y72038791D01*
X89302247Y72057922D01*
X89236516Y72038621D01*
X89234573Y72039093D01*
X89234009Y72041012D01*
X89234290Y72041651D01*
X89244309Y72056645D01*
X89248000Y72075199D01*
X89248000Y73824801D01*
X89244309Y73843355D01*
X89234397Y73858189D01*
X89234266Y73860185D01*
X89235929Y73861296D01*
X89236658Y73861209D01*
X89297753Y73842078D01*
X89363484Y73861379D01*
X89365427Y73860907D01*
G37*
G36*
X83515427Y73860907D02*
G01*
X83515991Y73858988D01*
X83515710Y73858349D01*
X83505691Y73843355D01*
X83502000Y73824801D01*
X83502000Y72075199D01*
X83505691Y72056645D01*
X83515603Y72041811D01*
X83515734Y72039815D01*
X83514071Y72038704D01*
X83513342Y72038791D01*
X83452247Y72057922D01*
X83386516Y72038621D01*
X83384573Y72039093D01*
X83384009Y72041012D01*
X83384290Y72041651D01*
X83394309Y72056645D01*
X83398000Y72075199D01*
X83398000Y73824801D01*
X83394309Y73843355D01*
X83384397Y73858189D01*
X83384266Y73860185D01*
X83385929Y73861296D01*
X83386658Y73861209D01*
X83447753Y73842078D01*
X83513484Y73861379D01*
X83515427Y73860907D01*
G37*
G36*
X87415427Y73860907D02*
G01*
X87415991Y73858988D01*
X87415710Y73858349D01*
X87405691Y73843355D01*
X87402000Y73824801D01*
X87402000Y72075199D01*
X87405691Y72056645D01*
X87415603Y72041811D01*
X87415734Y72039815D01*
X87414071Y72038704D01*
X87413342Y72038791D01*
X87352247Y72057922D01*
X87286516Y72038621D01*
X87284573Y72039093D01*
X87284009Y72041012D01*
X87284290Y72041651D01*
X87294309Y72056645D01*
X87298000Y72075199D01*
X87298000Y73824801D01*
X87294309Y73843355D01*
X87284397Y73858189D01*
X87284266Y73860185D01*
X87285929Y73861296D01*
X87286658Y73861209D01*
X87347753Y73842078D01*
X87413484Y73861379D01*
X87415427Y73860907D01*
G37*
G36*
X84165427Y73860907D02*
G01*
X84165991Y73858988D01*
X84165710Y73858349D01*
X84155691Y73843355D01*
X84152000Y73824801D01*
X84152000Y72075199D01*
X84155691Y72056645D01*
X84165603Y72041811D01*
X84165734Y72039815D01*
X84164071Y72038704D01*
X84163342Y72038791D01*
X84102247Y72057922D01*
X84036516Y72038621D01*
X84034573Y72039093D01*
X84034009Y72041012D01*
X84034290Y72041651D01*
X84044309Y72056645D01*
X84048000Y72075199D01*
X84048000Y73824801D01*
X84044309Y73843355D01*
X84034397Y73858189D01*
X84034266Y73860185D01*
X84035929Y73861296D01*
X84036658Y73861209D01*
X84097753Y73842078D01*
X84163484Y73861379D01*
X84165427Y73860907D01*
G37*
G36*
X82215427Y73860907D02*
G01*
X82215991Y73858988D01*
X82215710Y73858349D01*
X82205691Y73843355D01*
X82202000Y73824801D01*
X82202000Y72075199D01*
X82205691Y72056645D01*
X82215603Y72041811D01*
X82215734Y72039815D01*
X82214071Y72038704D01*
X82213342Y72038791D01*
X82152247Y72057922D01*
X82086516Y72038621D01*
X82084573Y72039093D01*
X82084009Y72041012D01*
X82084290Y72041651D01*
X82094309Y72056645D01*
X82098000Y72075199D01*
X82098000Y73824801D01*
X82094309Y73843355D01*
X82084397Y73858189D01*
X82084266Y73860185D01*
X82085929Y73861296D01*
X82086658Y73861209D01*
X82147753Y73842078D01*
X82213484Y73861379D01*
X82215427Y73860907D01*
G37*
G36*
X85465427Y73860907D02*
G01*
X85465991Y73858988D01*
X85465710Y73858349D01*
X85455691Y73843355D01*
X85452000Y73824801D01*
X85452000Y72075199D01*
X85455691Y72056645D01*
X85465603Y72041811D01*
X85465734Y72039815D01*
X85464071Y72038704D01*
X85463342Y72038791D01*
X85402247Y72057922D01*
X85336516Y72038621D01*
X85334573Y72039093D01*
X85334009Y72041012D01*
X85334290Y72041651D01*
X85344309Y72056645D01*
X85348000Y72075199D01*
X85348000Y73824801D01*
X85344309Y73843355D01*
X85334397Y73858189D01*
X85334266Y73860185D01*
X85335929Y73861296D01*
X85336658Y73861209D01*
X85397753Y73842078D01*
X85463484Y73861379D01*
X85465427Y73860907D01*
G37*
G36*
X86765427Y73860907D02*
G01*
X86765991Y73858988D01*
X86765710Y73858349D01*
X86755691Y73843355D01*
X86752000Y73824801D01*
X86752000Y72075199D01*
X86755691Y72056645D01*
X86765603Y72041811D01*
X86765734Y72039815D01*
X86764071Y72038704D01*
X86763342Y72038791D01*
X86702247Y72057922D01*
X86636516Y72038621D01*
X86634573Y72039093D01*
X86634009Y72041012D01*
X86634290Y72041651D01*
X86644309Y72056645D01*
X86648000Y72075199D01*
X86648000Y73824801D01*
X86644309Y73843355D01*
X86634397Y73858189D01*
X86634266Y73860185D01*
X86635929Y73861296D01*
X86636658Y73861209D01*
X86697753Y73842078D01*
X86763484Y73861379D01*
X86765427Y73860907D01*
G37*
G36*
X90015427Y73860907D02*
G01*
X90015991Y73858988D01*
X90015710Y73858349D01*
X90005691Y73843355D01*
X90002000Y73824801D01*
X90002000Y72075199D01*
X90005691Y72056645D01*
X90015603Y72041811D01*
X90015734Y72039815D01*
X90014071Y72038704D01*
X90013342Y72038791D01*
X89952247Y72057922D01*
X89886516Y72038621D01*
X89884573Y72039093D01*
X89884009Y72041012D01*
X89884290Y72041651D01*
X89894309Y72056645D01*
X89898000Y72075199D01*
X89898000Y73824801D01*
X89894309Y73843355D01*
X89884397Y73858189D01*
X89884266Y73860185D01*
X89885929Y73861296D01*
X89886658Y73861209D01*
X89947753Y73842078D01*
X90013484Y73861379D01*
X90015427Y73860907D01*
G37*
G36*
X88715427Y73860907D02*
G01*
X88715991Y73858988D01*
X88715710Y73858349D01*
X88705691Y73843355D01*
X88702000Y73824801D01*
X88702000Y72075199D01*
X88705691Y72056645D01*
X88715603Y72041811D01*
X88715734Y72039815D01*
X88714071Y72038704D01*
X88713342Y72038791D01*
X88652247Y72057922D01*
X88586516Y72038621D01*
X88584573Y72039093D01*
X88584009Y72041012D01*
X88584290Y72041651D01*
X88594309Y72056645D01*
X88598000Y72075199D01*
X88598000Y73824801D01*
X88594309Y73843355D01*
X88584397Y73858189D01*
X88584266Y73860185D01*
X88585929Y73861296D01*
X88586658Y73861209D01*
X88647753Y73842078D01*
X88713484Y73861379D01*
X88715427Y73860907D01*
G37*
G36*
X86115427Y73860907D02*
G01*
X86115991Y73858988D01*
X86115710Y73858349D01*
X86105691Y73843355D01*
X86102000Y73824801D01*
X86102000Y72075199D01*
X86105691Y72056645D01*
X86115603Y72041811D01*
X86115734Y72039815D01*
X86114071Y72038704D01*
X86113342Y72038791D01*
X86052247Y72057922D01*
X85986516Y72038621D01*
X85984573Y72039093D01*
X85984009Y72041012D01*
X85984290Y72041651D01*
X85994309Y72056645D01*
X85998000Y72075199D01*
X85998000Y73824801D01*
X85994309Y73843355D01*
X85984397Y73858189D01*
X85984266Y73860185D01*
X85985929Y73861296D01*
X85986658Y73861209D01*
X86047753Y73842078D01*
X86113484Y73861379D01*
X86115427Y73860907D01*
G37*
G36*
X736057Y72752766D02*
G01*
X746645Y72745691D01*
X765199Y72742000D01*
X2025004Y72742000D01*
X2026736Y72741000D01*
X2026736Y72739000D01*
X2025567Y72738081D01*
X1957474Y72718087D01*
X1911381Y72664893D01*
X1901355Y72595158D01*
X1905922Y72583238D01*
X1906016Y72582912D01*
X1909613Y72564826D01*
X1908970Y72562932D01*
X1907008Y72562542D01*
X1905988Y72563325D01*
X1898913Y72573913D01*
X1883355Y72584309D01*
X1864801Y72588000D01*
X765199Y72588000D01*
X746645Y72584309D01*
X736057Y72577234D01*
X734061Y72577103D01*
X732950Y72578766D01*
X733283Y72580008D01*
X743509Y72595313D01*
X764627Y72662752D01*
X743500Y72734701D01*
X733283Y72749992D01*
X733152Y72751988D01*
X734815Y72753099D01*
X736057Y72752766D01*
G37*
G36*
X66563057Y74742766D02*
G01*
X66573645Y74735691D01*
X66592199Y74732000D01*
X68091801Y74732000D01*
X68110355Y74735691D01*
X68120943Y74742766D01*
X68122939Y74742897D01*
X68124050Y74741234D01*
X68123717Y74739992D01*
X68113491Y74724687D01*
X68092373Y74657248D01*
X68113500Y74585299D01*
X68123717Y74570008D01*
X68123848Y74568012D01*
X68122185Y74566901D01*
X68120943Y74567234D01*
X68110355Y74574309D01*
X68091801Y74578000D01*
X66592199Y74578000D01*
X66573645Y74574309D01*
X66563057Y74567234D01*
X66561061Y74567103D01*
X66559950Y74568766D01*
X66560283Y74570008D01*
X66570509Y74585313D01*
X66591627Y74652752D01*
X66570500Y74724701D01*
X66560283Y74739992D01*
X66560152Y74741988D01*
X66561815Y74743099D01*
X66563057Y74742766D01*
G37*
G36*
X55163057Y74742766D02*
G01*
X55173645Y74735691D01*
X55192199Y74732000D01*
X56691801Y74732000D01*
X56710355Y74735691D01*
X56720943Y74742766D01*
X56722939Y74742897D01*
X56724050Y74741234D01*
X56723717Y74739992D01*
X56713491Y74724687D01*
X56692373Y74657248D01*
X56713500Y74585299D01*
X56723717Y74570008D01*
X56723848Y74568012D01*
X56722185Y74566901D01*
X56720943Y74567234D01*
X56710355Y74574309D01*
X56691801Y74578000D01*
X55192199Y74578000D01*
X55173645Y74574309D01*
X55163057Y74567234D01*
X55161061Y74567103D01*
X55159950Y74568766D01*
X55160283Y74570008D01*
X55170509Y74585313D01*
X55191627Y74652752D01*
X55170500Y74724701D01*
X55160283Y74739992D01*
X55160152Y74741988D01*
X55161815Y74743099D01*
X55163057Y74742766D01*
G37*
G36*
X66563057Y75542766D02*
G01*
X66573645Y75535691D01*
X66592199Y75532000D01*
X68091801Y75532000D01*
X68110355Y75535691D01*
X68120943Y75542766D01*
X68122939Y75542897D01*
X68124050Y75541234D01*
X68123717Y75539992D01*
X68113491Y75524687D01*
X68092373Y75457248D01*
X68113500Y75385299D01*
X68123717Y75370008D01*
X68123848Y75368012D01*
X68122185Y75366901D01*
X68120943Y75367234D01*
X68110355Y75374309D01*
X68091801Y75378000D01*
X66592199Y75378000D01*
X66573645Y75374309D01*
X66563057Y75367234D01*
X66561061Y75367103D01*
X66559950Y75368766D01*
X66560283Y75370008D01*
X66570509Y75385313D01*
X66591627Y75452752D01*
X66570500Y75524701D01*
X66560283Y75539992D01*
X66560152Y75541988D01*
X66561815Y75543099D01*
X66563057Y75542766D01*
G37*
G36*
X55163057Y75542766D02*
G01*
X55173645Y75535691D01*
X55192199Y75532000D01*
X56691801Y75532000D01*
X56710355Y75535691D01*
X56720943Y75542766D01*
X56722939Y75542897D01*
X56724050Y75541234D01*
X56723717Y75539992D01*
X56713491Y75524687D01*
X56692373Y75457248D01*
X56713500Y75385299D01*
X56723717Y75370008D01*
X56723848Y75368012D01*
X56722185Y75366901D01*
X56720943Y75367234D01*
X56710355Y75374309D01*
X56691801Y75378000D01*
X55192199Y75378000D01*
X55173645Y75374309D01*
X55163057Y75367234D01*
X55161061Y75367103D01*
X55159950Y75368766D01*
X55160283Y75370008D01*
X55170509Y75385313D01*
X55191627Y75452752D01*
X55170500Y75524701D01*
X55160283Y75539992D01*
X55160152Y75541988D01*
X55161815Y75543099D01*
X55163057Y75542766D01*
G37*
G36*
X55163057Y76342766D02*
G01*
X55173645Y76335691D01*
X55192199Y76332000D01*
X56691801Y76332000D01*
X56710355Y76335691D01*
X56720943Y76342766D01*
X56722939Y76342897D01*
X56724050Y76341234D01*
X56723717Y76339992D01*
X56713491Y76324687D01*
X56692373Y76257248D01*
X56713500Y76185299D01*
X56723717Y76170008D01*
X56723848Y76168012D01*
X56722185Y76166901D01*
X56720943Y76167234D01*
X56710355Y76174309D01*
X56691801Y76178000D01*
X55192199Y76178000D01*
X55173645Y76174309D01*
X55163057Y76167234D01*
X55161061Y76167103D01*
X55159950Y76168766D01*
X55160283Y76170008D01*
X55170509Y76185313D01*
X55191627Y76252752D01*
X55170500Y76324701D01*
X55160283Y76339992D01*
X55160152Y76341988D01*
X55161815Y76343099D01*
X55163057Y76342766D01*
G37*
G36*
X66563057Y76342766D02*
G01*
X66573645Y76335691D01*
X66592199Y76332000D01*
X68091801Y76332000D01*
X68110355Y76335691D01*
X68120943Y76342766D01*
X68122939Y76342897D01*
X68124050Y76341234D01*
X68123717Y76339992D01*
X68113491Y76324687D01*
X68092373Y76257248D01*
X68113500Y76185299D01*
X68123717Y76170008D01*
X68123848Y76168012D01*
X68122185Y76166901D01*
X68120943Y76167234D01*
X68110355Y76174309D01*
X68091801Y76178000D01*
X66592199Y76178000D01*
X66573645Y76174309D01*
X66563057Y76167234D01*
X66561061Y76167103D01*
X66559950Y76168766D01*
X66560283Y76170008D01*
X66570509Y76185313D01*
X66591627Y76252752D01*
X66570500Y76324701D01*
X66560283Y76339992D01*
X66560152Y76341988D01*
X66561815Y76343099D01*
X66563057Y76342766D01*
G37*
G36*
X55163057Y77142766D02*
G01*
X55173645Y77135691D01*
X55192199Y77132000D01*
X56691801Y77132000D01*
X56710355Y77135691D01*
X56720943Y77142766D01*
X56722939Y77142897D01*
X56724050Y77141234D01*
X56723717Y77139992D01*
X56713491Y77124687D01*
X56692373Y77057248D01*
X56713500Y76985299D01*
X56723717Y76970008D01*
X56723848Y76968012D01*
X56722185Y76966901D01*
X56720943Y76967234D01*
X56710355Y76974309D01*
X56691801Y76978000D01*
X55192199Y76978000D01*
X55173645Y76974309D01*
X55163057Y76967234D01*
X55161061Y76967103D01*
X55159950Y76968766D01*
X55160283Y76970008D01*
X55170509Y76985313D01*
X55191627Y77052752D01*
X55170500Y77124701D01*
X55160283Y77139992D01*
X55160152Y77141988D01*
X55161815Y77143099D01*
X55163057Y77142766D01*
G37*
G36*
X66563057Y77142766D02*
G01*
X66573645Y77135691D01*
X66592199Y77132000D01*
X68091801Y77132000D01*
X68110355Y77135691D01*
X68120943Y77142766D01*
X68122939Y77142897D01*
X68124050Y77141234D01*
X68123717Y77139992D01*
X68113491Y77124687D01*
X68092373Y77057248D01*
X68113500Y76985299D01*
X68123717Y76970008D01*
X68123848Y76968012D01*
X68122185Y76966901D01*
X68120943Y76967234D01*
X68110355Y76974309D01*
X68091801Y76978000D01*
X66592199Y76978000D01*
X66573645Y76974309D01*
X66563057Y76967234D01*
X66561061Y76967103D01*
X66559950Y76968766D01*
X66560283Y76970008D01*
X66570509Y76985313D01*
X66591627Y77052752D01*
X66570500Y77124701D01*
X66560283Y77139992D01*
X66560152Y77141988D01*
X66561815Y77143099D01*
X66563057Y77142766D01*
G37*
G36*
X55163057Y77942766D02*
G01*
X55173645Y77935691D01*
X55192199Y77932000D01*
X56691801Y77932000D01*
X56710355Y77935691D01*
X56720943Y77942766D01*
X56722939Y77942897D01*
X56724050Y77941234D01*
X56723717Y77939992D01*
X56713491Y77924687D01*
X56692373Y77857248D01*
X56713500Y77785299D01*
X56723717Y77770008D01*
X56723848Y77768012D01*
X56722185Y77766901D01*
X56720943Y77767234D01*
X56710355Y77774309D01*
X56691801Y77778000D01*
X55192199Y77778000D01*
X55173645Y77774309D01*
X55163057Y77767234D01*
X55161061Y77767103D01*
X55159950Y77768766D01*
X55160283Y77770008D01*
X55170509Y77785313D01*
X55191627Y77852752D01*
X55170500Y77924701D01*
X55160283Y77939992D01*
X55160152Y77941988D01*
X55161815Y77943099D01*
X55163057Y77942766D01*
G37*
G36*
X66563057Y77942766D02*
G01*
X66573645Y77935691D01*
X66592199Y77932000D01*
X68091801Y77932000D01*
X68110355Y77935691D01*
X68120943Y77942766D01*
X68122939Y77942897D01*
X68124050Y77941234D01*
X68123717Y77939992D01*
X68113491Y77924687D01*
X68092373Y77857248D01*
X68113500Y77785299D01*
X68123717Y77770008D01*
X68123848Y77768012D01*
X68122185Y77766901D01*
X68120943Y77767234D01*
X68110355Y77774309D01*
X68091801Y77778000D01*
X66592199Y77778000D01*
X66573645Y77774309D01*
X66563057Y77767234D01*
X66561061Y77767103D01*
X66559950Y77768766D01*
X66560283Y77770008D01*
X66570509Y77785313D01*
X66591627Y77852752D01*
X66570500Y77924701D01*
X66560283Y77939992D01*
X66560152Y77941988D01*
X66561815Y77943099D01*
X66563057Y77942766D01*
G37*
G36*
X66563057Y78742766D02*
G01*
X66573645Y78735691D01*
X66592199Y78732000D01*
X68091801Y78732000D01*
X68110355Y78735691D01*
X68120943Y78742766D01*
X68122939Y78742897D01*
X68124050Y78741234D01*
X68123717Y78739992D01*
X68113491Y78724687D01*
X68092373Y78657248D01*
X68113500Y78585299D01*
X68123717Y78570008D01*
X68123848Y78568012D01*
X68122185Y78566901D01*
X68120943Y78567234D01*
X68110355Y78574309D01*
X68091801Y78578000D01*
X66592199Y78578000D01*
X66573645Y78574309D01*
X66563057Y78567234D01*
X66561061Y78567103D01*
X66559950Y78568766D01*
X66560283Y78570008D01*
X66570509Y78585313D01*
X66591627Y78652752D01*
X66570500Y78724701D01*
X66560283Y78739992D01*
X66560152Y78741988D01*
X66561815Y78743099D01*
X66563057Y78742766D01*
G37*
G36*
X55163057Y78742766D02*
G01*
X55173645Y78735691D01*
X55192199Y78732000D01*
X56691801Y78732000D01*
X56710355Y78735691D01*
X56720943Y78742766D01*
X56722939Y78742897D01*
X56724050Y78741234D01*
X56723717Y78739992D01*
X56713491Y78724687D01*
X56692373Y78657248D01*
X56713500Y78585299D01*
X56723717Y78570008D01*
X56723848Y78568012D01*
X56722185Y78566901D01*
X56720943Y78567234D01*
X56710355Y78574309D01*
X56691801Y78578000D01*
X55192199Y78578000D01*
X55173645Y78574309D01*
X55163057Y78567234D01*
X55161061Y78567103D01*
X55159950Y78568766D01*
X55160283Y78570008D01*
X55170509Y78585313D01*
X55191627Y78652752D01*
X55170500Y78724701D01*
X55160283Y78739992D01*
X55160152Y78741988D01*
X55161815Y78743099D01*
X55163057Y78742766D01*
G37*
G36*
X82865427Y81060907D02*
G01*
X82865991Y81058988D01*
X82865710Y81058349D01*
X82855691Y81043355D01*
X82852000Y81024801D01*
X82852000Y79275199D01*
X82855691Y79256645D01*
X82865603Y79241811D01*
X82865734Y79239815D01*
X82864071Y79238704D01*
X82863342Y79238791D01*
X82802247Y79257922D01*
X82736516Y79238621D01*
X82734573Y79239093D01*
X82734009Y79241012D01*
X82734290Y79241651D01*
X82744309Y79256645D01*
X82748000Y79275199D01*
X82748000Y81024801D01*
X82744309Y81043355D01*
X82734397Y81058189D01*
X82734266Y81060185D01*
X82735929Y81061296D01*
X82736658Y81061209D01*
X82797753Y81042078D01*
X82863484Y81061379D01*
X82865427Y81060907D01*
G37*
G36*
X88715427Y81060907D02*
G01*
X88715991Y81058988D01*
X88715710Y81058349D01*
X88705691Y81043355D01*
X88702000Y81024801D01*
X88702000Y79275199D01*
X88705691Y79256645D01*
X88715603Y79241811D01*
X88715734Y79239815D01*
X88714071Y79238704D01*
X88713342Y79238791D01*
X88652247Y79257922D01*
X88586516Y79238621D01*
X88584573Y79239093D01*
X88584009Y79241012D01*
X88584290Y79241651D01*
X88594309Y79256645D01*
X88598000Y79275199D01*
X88598000Y81024801D01*
X88594309Y81043355D01*
X88584397Y81058189D01*
X88584266Y81060185D01*
X88585929Y81061296D01*
X88586658Y81061209D01*
X88647753Y81042078D01*
X88713484Y81061379D01*
X88715427Y81060907D01*
G37*
G36*
X87415427Y81060907D02*
G01*
X87415991Y81058988D01*
X87415710Y81058349D01*
X87405691Y81043355D01*
X87402000Y81024801D01*
X87402000Y79275199D01*
X87405691Y79256645D01*
X87415603Y79241811D01*
X87415734Y79239815D01*
X87414071Y79238704D01*
X87413342Y79238791D01*
X87352247Y79257922D01*
X87286516Y79238621D01*
X87284573Y79239093D01*
X87284009Y79241012D01*
X87284290Y79241651D01*
X87294309Y79256645D01*
X87298000Y79275199D01*
X87298000Y81024801D01*
X87294309Y81043355D01*
X87284397Y81058189D01*
X87284266Y81060185D01*
X87285929Y81061296D01*
X87286658Y81061209D01*
X87347753Y81042078D01*
X87413484Y81061379D01*
X87415427Y81060907D01*
G37*
G36*
X85465427Y81060907D02*
G01*
X85465991Y81058988D01*
X85465710Y81058349D01*
X85455691Y81043355D01*
X85452000Y81024801D01*
X85452000Y79275199D01*
X85455691Y79256645D01*
X85465603Y79241811D01*
X85465734Y79239815D01*
X85464071Y79238704D01*
X85463342Y79238791D01*
X85402247Y79257922D01*
X85336516Y79238621D01*
X85334573Y79239093D01*
X85334009Y79241012D01*
X85334290Y79241651D01*
X85344309Y79256645D01*
X85348000Y79275199D01*
X85348000Y81024801D01*
X85344309Y81043355D01*
X85334397Y81058189D01*
X85334266Y81060185D01*
X85335929Y81061296D01*
X85336658Y81061209D01*
X85397753Y81042078D01*
X85463484Y81061379D01*
X85465427Y81060907D01*
G37*
G36*
X86115427Y81060907D02*
G01*
X86115991Y81058988D01*
X86115710Y81058349D01*
X86105691Y81043355D01*
X86102000Y81024801D01*
X86102000Y79275199D01*
X86105691Y79256645D01*
X86115603Y79241811D01*
X86115734Y79239815D01*
X86114071Y79238704D01*
X86113342Y79238791D01*
X86052247Y79257922D01*
X85986516Y79238621D01*
X85984573Y79239093D01*
X85984009Y79241012D01*
X85984290Y79241651D01*
X85994309Y79256645D01*
X85998000Y79275199D01*
X85998000Y81024801D01*
X85994309Y81043355D01*
X85984397Y81058189D01*
X85984266Y81060185D01*
X85985929Y81061296D01*
X85986658Y81061209D01*
X86047753Y81042078D01*
X86113484Y81061379D01*
X86115427Y81060907D01*
G37*
G36*
X90015427Y81060907D02*
G01*
X90015991Y81058988D01*
X90015710Y81058349D01*
X90005691Y81043355D01*
X90002000Y81024801D01*
X90002000Y79275199D01*
X90005691Y79256645D01*
X90015603Y79241811D01*
X90015734Y79239815D01*
X90014071Y79238704D01*
X90013342Y79238791D01*
X89952247Y79257922D01*
X89886516Y79238621D01*
X89884573Y79239093D01*
X89884009Y79241012D01*
X89884290Y79241651D01*
X89894309Y79256645D01*
X89898000Y79275199D01*
X89898000Y81024801D01*
X89894309Y81043355D01*
X89884397Y81058189D01*
X89884266Y81060185D01*
X89885929Y81061296D01*
X89886658Y81061209D01*
X89947753Y81042078D01*
X90013484Y81061379D01*
X90015427Y81060907D01*
G37*
G36*
X84815427Y81060907D02*
G01*
X84815991Y81058988D01*
X84815710Y81058349D01*
X84805691Y81043355D01*
X84802000Y81024801D01*
X84802000Y79275199D01*
X84805691Y79256645D01*
X84815603Y79241811D01*
X84815734Y79239815D01*
X84814071Y79238704D01*
X84813342Y79238791D01*
X84752247Y79257922D01*
X84686516Y79238621D01*
X84684573Y79239093D01*
X84684009Y79241012D01*
X84684290Y79241651D01*
X84694309Y79256645D01*
X84698000Y79275199D01*
X84698000Y81024801D01*
X84694309Y81043355D01*
X84684397Y81058189D01*
X84684266Y81060185D01*
X84685929Y81061296D01*
X84686658Y81061209D01*
X84747753Y81042078D01*
X84813484Y81061379D01*
X84815427Y81060907D01*
G37*
G36*
X88065427Y81060907D02*
G01*
X88065991Y81058988D01*
X88065710Y81058349D01*
X88055691Y81043355D01*
X88052000Y81024801D01*
X88052000Y79275199D01*
X88055691Y79256645D01*
X88065603Y79241811D01*
X88065734Y79239815D01*
X88064071Y79238704D01*
X88063342Y79238791D01*
X88002247Y79257922D01*
X87936516Y79238621D01*
X87934573Y79239093D01*
X87934009Y79241012D01*
X87934290Y79241651D01*
X87944309Y79256645D01*
X87948000Y79275199D01*
X87948000Y81024801D01*
X87944309Y81043355D01*
X87934397Y81058189D01*
X87934266Y81060185D01*
X87935929Y81061296D01*
X87936658Y81061209D01*
X87997753Y81042078D01*
X88063484Y81061379D01*
X88065427Y81060907D01*
G37*
G36*
X89365427Y81060907D02*
G01*
X89365991Y81058988D01*
X89365710Y81058349D01*
X89355691Y81043355D01*
X89352000Y81024801D01*
X89352000Y79275199D01*
X89355691Y79256645D01*
X89365603Y79241811D01*
X89365734Y79239815D01*
X89364071Y79238704D01*
X89363342Y79238791D01*
X89302247Y79257922D01*
X89236516Y79238621D01*
X89234573Y79239093D01*
X89234009Y79241012D01*
X89234290Y79241651D01*
X89244309Y79256645D01*
X89248000Y79275199D01*
X89248000Y81024801D01*
X89244309Y81043355D01*
X89234397Y81058189D01*
X89234266Y81060185D01*
X89235929Y81061296D01*
X89236658Y81061209D01*
X89297753Y81042078D01*
X89363484Y81061379D01*
X89365427Y81060907D01*
G37*
G36*
X84165427Y81060907D02*
G01*
X84165991Y81058988D01*
X84165710Y81058349D01*
X84155691Y81043355D01*
X84152000Y81024801D01*
X84152000Y79275199D01*
X84155691Y79256645D01*
X84165603Y79241811D01*
X84165734Y79239815D01*
X84164071Y79238704D01*
X84163342Y79238791D01*
X84102247Y79257922D01*
X84036516Y79238621D01*
X84034573Y79239093D01*
X84034009Y79241012D01*
X84034290Y79241651D01*
X84044309Y79256645D01*
X84048000Y79275199D01*
X84048000Y81024801D01*
X84044309Y81043355D01*
X84034397Y81058189D01*
X84034266Y81060185D01*
X84035929Y81061296D01*
X84036658Y81061209D01*
X84097753Y81042078D01*
X84163484Y81061379D01*
X84165427Y81060907D01*
G37*
G36*
X82215427Y81060907D02*
G01*
X82215991Y81058988D01*
X82215710Y81058349D01*
X82205691Y81043355D01*
X82202000Y81024801D01*
X82202000Y79275199D01*
X82205691Y79256645D01*
X82215603Y79241811D01*
X82215734Y79239815D01*
X82214071Y79238704D01*
X82213342Y79238791D01*
X82152247Y79257922D01*
X82086516Y79238621D01*
X82084573Y79239093D01*
X82084009Y79241012D01*
X82084290Y79241651D01*
X82094309Y79256645D01*
X82098000Y79275199D01*
X82098000Y81024801D01*
X82094309Y81043355D01*
X82084397Y81058189D01*
X82084266Y81060185D01*
X82085929Y81061296D01*
X82086658Y81061209D01*
X82147753Y81042078D01*
X82213484Y81061379D01*
X82215427Y81060907D01*
G37*
G36*
X83515427Y81060907D02*
G01*
X83515991Y81058988D01*
X83515710Y81058349D01*
X83505691Y81043355D01*
X83502000Y81024801D01*
X83502000Y79275199D01*
X83505691Y79256645D01*
X83515603Y79241811D01*
X83515734Y79239815D01*
X83514071Y79238704D01*
X83513342Y79238791D01*
X83452247Y79257922D01*
X83386516Y79238621D01*
X83384573Y79239093D01*
X83384009Y79241012D01*
X83384290Y79241651D01*
X83394309Y79256645D01*
X83398000Y79275199D01*
X83398000Y81024801D01*
X83394309Y81043355D01*
X83384397Y81058189D01*
X83384266Y81060185D01*
X83385929Y81061296D01*
X83386658Y81061209D01*
X83447753Y81042078D01*
X83513484Y81061379D01*
X83515427Y81060907D01*
G37*
G36*
X86765427Y81060907D02*
G01*
X86765991Y81058988D01*
X86765710Y81058349D01*
X86755691Y81043355D01*
X86752000Y81024801D01*
X86752000Y79275199D01*
X86755691Y79256645D01*
X86765603Y79241811D01*
X86765734Y79239815D01*
X86764071Y79238704D01*
X86763342Y79238791D01*
X86702247Y79257922D01*
X86636516Y79238621D01*
X86634573Y79239093D01*
X86634009Y79241012D01*
X86634290Y79241651D01*
X86644309Y79256645D01*
X86648000Y79275199D01*
X86648000Y81024801D01*
X86644309Y81043355D01*
X86634397Y81058189D01*
X86634266Y81060185D01*
X86635929Y81061296D01*
X86636658Y81061209D01*
X86697753Y81042078D01*
X86763484Y81061379D01*
X86765427Y81060907D01*
G37*
G36*
X55163057Y79542766D02*
G01*
X55173645Y79535691D01*
X55192199Y79532000D01*
X56691801Y79532000D01*
X56710355Y79535691D01*
X56720943Y79542766D01*
X56722939Y79542897D01*
X56724050Y79541234D01*
X56723717Y79539992D01*
X56713491Y79524687D01*
X56692373Y79457248D01*
X56713500Y79385299D01*
X56723717Y79370008D01*
X56723848Y79368012D01*
X56722185Y79366901D01*
X56720943Y79367234D01*
X56710355Y79374309D01*
X56691801Y79378000D01*
X55192199Y79378000D01*
X55173645Y79374309D01*
X55163057Y79367234D01*
X55161061Y79367103D01*
X55159950Y79368766D01*
X55160283Y79370008D01*
X55170509Y79385313D01*
X55191627Y79452752D01*
X55170500Y79524701D01*
X55160283Y79539992D01*
X55160152Y79541988D01*
X55161815Y79543099D01*
X55163057Y79542766D01*
G37*
G36*
X66563057Y79542766D02*
G01*
X66573645Y79535691D01*
X66592199Y79532000D01*
X68091801Y79532000D01*
X68110355Y79535691D01*
X68120943Y79542766D01*
X68122939Y79542897D01*
X68124050Y79541234D01*
X68123717Y79539992D01*
X68113491Y79524687D01*
X68092373Y79457248D01*
X68113500Y79385299D01*
X68123717Y79370008D01*
X68123848Y79368012D01*
X68122185Y79366901D01*
X68120943Y79367234D01*
X68110355Y79374309D01*
X68091801Y79378000D01*
X66592199Y79378000D01*
X66573645Y79374309D01*
X66563057Y79367234D01*
X66561061Y79367103D01*
X66559950Y79368766D01*
X66560283Y79370008D01*
X66570509Y79385313D01*
X66591627Y79452752D01*
X66570500Y79524701D01*
X66560283Y79539992D01*
X66560152Y79541988D01*
X66561815Y79543099D01*
X66563057Y79542766D01*
G37*
G36*
X66563057Y80342766D02*
G01*
X66573645Y80335691D01*
X66592199Y80332000D01*
X68091801Y80332000D01*
X68110355Y80335691D01*
X68120943Y80342766D01*
X68122939Y80342897D01*
X68124050Y80341234D01*
X68123717Y80339992D01*
X68113491Y80324687D01*
X68092373Y80257248D01*
X68113500Y80185299D01*
X68123717Y80170008D01*
X68123848Y80168012D01*
X68122185Y80166901D01*
X68120943Y80167234D01*
X68110355Y80174309D01*
X68091801Y80178000D01*
X66592199Y80178000D01*
X66573645Y80174309D01*
X66563057Y80167234D01*
X66561061Y80167103D01*
X66559950Y80168766D01*
X66560283Y80170008D01*
X66570509Y80185313D01*
X66591627Y80252752D01*
X66570500Y80324701D01*
X66560283Y80339992D01*
X66560152Y80341988D01*
X66561815Y80343099D01*
X66563057Y80342766D01*
G37*
G36*
X55163057Y80342766D02*
G01*
X55173645Y80335691D01*
X55192199Y80332000D01*
X56691801Y80332000D01*
X56710355Y80335691D01*
X56720943Y80342766D01*
X56722939Y80342897D01*
X56724050Y80341234D01*
X56723717Y80339992D01*
X56713491Y80324687D01*
X56692373Y80257248D01*
X56713500Y80185299D01*
X56723717Y80170008D01*
X56723848Y80168012D01*
X56722185Y80166901D01*
X56720943Y80167234D01*
X56710355Y80174309D01*
X56691801Y80178000D01*
X55192199Y80178000D01*
X55173645Y80174309D01*
X55163057Y80167234D01*
X55161061Y80167103D01*
X55159950Y80168766D01*
X55160283Y80170008D01*
X55170509Y80185313D01*
X55191627Y80252752D01*
X55170500Y80324701D01*
X55160283Y80339992D01*
X55160152Y80341988D01*
X55161815Y80343099D01*
X55163057Y80342766D01*
G37*
G36*
X55163057Y81142766D02*
G01*
X55173645Y81135691D01*
X55192199Y81132000D01*
X56691801Y81132000D01*
X56710355Y81135691D01*
X56720943Y81142766D01*
X56722939Y81142897D01*
X56724050Y81141234D01*
X56723717Y81139992D01*
X56713491Y81124687D01*
X56692373Y81057248D01*
X56713500Y80985299D01*
X56723717Y80970008D01*
X56723848Y80968012D01*
X56722185Y80966901D01*
X56720943Y80967234D01*
X56710355Y80974309D01*
X56691801Y80978000D01*
X55192199Y80978000D01*
X55173645Y80974309D01*
X55163057Y80967234D01*
X55161061Y80967103D01*
X55159950Y80968766D01*
X55160283Y80970008D01*
X55170509Y80985313D01*
X55191627Y81052752D01*
X55170500Y81124701D01*
X55160283Y81139992D01*
X55160152Y81141988D01*
X55161815Y81143099D01*
X55163057Y81142766D01*
G37*
G36*
X66563057Y81142766D02*
G01*
X66573645Y81135691D01*
X66592199Y81132000D01*
X68091801Y81132000D01*
X68110355Y81135691D01*
X68120943Y81142766D01*
X68122939Y81142897D01*
X68124050Y81141234D01*
X68123717Y81139992D01*
X68113491Y81124687D01*
X68092373Y81057248D01*
X68113500Y80985299D01*
X68123717Y80970008D01*
X68123848Y80968012D01*
X68122185Y80966901D01*
X68120943Y80967234D01*
X68110355Y80974309D01*
X68091801Y80978000D01*
X66592199Y80978000D01*
X66573645Y80974309D01*
X66563057Y80967234D01*
X66561061Y80967103D01*
X66559950Y80968766D01*
X66560283Y80970008D01*
X66570509Y80985313D01*
X66591627Y81052752D01*
X66570500Y81124701D01*
X66560283Y81139992D01*
X66560152Y81141988D01*
X66561815Y81143099D01*
X66563057Y81142766D01*
G37*
G36*
X66563057Y81942766D02*
G01*
X66573645Y81935691D01*
X66592199Y81932000D01*
X68091801Y81932000D01*
X68110355Y81935691D01*
X68120943Y81942766D01*
X68122939Y81942897D01*
X68124050Y81941234D01*
X68123717Y81939992D01*
X68113491Y81924687D01*
X68092373Y81857248D01*
X68113500Y81785299D01*
X68123717Y81770008D01*
X68123848Y81768012D01*
X68122185Y81766901D01*
X68120943Y81767234D01*
X68110355Y81774309D01*
X68091801Y81778000D01*
X66592199Y81778000D01*
X66573645Y81774309D01*
X66563057Y81767234D01*
X66561061Y81767103D01*
X66559950Y81768766D01*
X66560283Y81770008D01*
X66570509Y81785313D01*
X66591627Y81852752D01*
X66570500Y81924701D01*
X66560283Y81939992D01*
X66560152Y81941988D01*
X66561815Y81943099D01*
X66563057Y81942766D01*
G37*
G36*
X55163057Y81942766D02*
G01*
X55173645Y81935691D01*
X55192199Y81932000D01*
X56691801Y81932000D01*
X56710355Y81935691D01*
X56720943Y81942766D01*
X56722939Y81942897D01*
X56724050Y81941234D01*
X56723717Y81939992D01*
X56713491Y81924687D01*
X56692373Y81857248D01*
X56713500Y81785299D01*
X56723717Y81770008D01*
X56723848Y81768012D01*
X56722185Y81766901D01*
X56720943Y81767234D01*
X56710355Y81774309D01*
X56691801Y81778000D01*
X55192199Y81778000D01*
X55173645Y81774309D01*
X55163057Y81767234D01*
X55161061Y81767103D01*
X55159950Y81768766D01*
X55160283Y81770008D01*
X55170509Y81785313D01*
X55191627Y81852752D01*
X55170500Y81924701D01*
X55160283Y81939992D01*
X55160152Y81941988D01*
X55161815Y81943099D01*
X55163057Y81942766D01*
G37*
G36*
X64357008Y84736717D02*
G01*
X64372313Y84726491D01*
X64439752Y84705373D01*
X64511701Y84726500D01*
X64526992Y84736717D01*
X64528988Y84736848D01*
X64530099Y84735185D01*
X64529766Y84733943D01*
X64522691Y84723355D01*
X64519000Y84704801D01*
X64519000Y83205199D01*
X64522691Y83186645D01*
X64529766Y83176057D01*
X64529897Y83174061D01*
X64528234Y83172950D01*
X64526992Y83173283D01*
X64511687Y83183509D01*
X64444248Y83204627D01*
X64372299Y83183500D01*
X64357008Y83173283D01*
X64355012Y83173152D01*
X64353901Y83174815D01*
X64354234Y83176057D01*
X64361309Y83186645D01*
X64365000Y83205199D01*
X64365000Y84704801D01*
X64361309Y84723355D01*
X64354234Y84733943D01*
X64354103Y84735939D01*
X64355766Y84737050D01*
X64357008Y84736717D01*
G37*
G36*
X65157008Y84736717D02*
G01*
X65172313Y84726491D01*
X65239752Y84705373D01*
X65311701Y84726500D01*
X65326992Y84736717D01*
X65328988Y84736848D01*
X65330099Y84735185D01*
X65329766Y84733943D01*
X65322691Y84723355D01*
X65319000Y84704801D01*
X65319000Y83205199D01*
X65322691Y83186645D01*
X65329766Y83176057D01*
X65329897Y83174061D01*
X65328234Y83172950D01*
X65326992Y83173283D01*
X65311687Y83183509D01*
X65244248Y83204627D01*
X65172299Y83183500D01*
X65157008Y83173283D01*
X65155012Y83173152D01*
X65153901Y83174815D01*
X65154234Y83176057D01*
X65161309Y83186645D01*
X65165000Y83205199D01*
X65165000Y84704801D01*
X65161309Y84723355D01*
X65154234Y84733943D01*
X65154103Y84735939D01*
X65155766Y84737050D01*
X65157008Y84736717D01*
G37*
G36*
X60357008Y84736717D02*
G01*
X60372313Y84726491D01*
X60439752Y84705373D01*
X60511701Y84726500D01*
X60526992Y84736717D01*
X60528988Y84736848D01*
X60530099Y84735185D01*
X60529766Y84733943D01*
X60522691Y84723355D01*
X60519000Y84704801D01*
X60519000Y83205199D01*
X60522691Y83186645D01*
X60529766Y83176057D01*
X60529897Y83174061D01*
X60528234Y83172950D01*
X60526992Y83173283D01*
X60511687Y83183509D01*
X60444248Y83204627D01*
X60372299Y83183500D01*
X60357008Y83173283D01*
X60355012Y83173152D01*
X60353901Y83174815D01*
X60354234Y83176057D01*
X60361309Y83186645D01*
X60365000Y83205199D01*
X60365000Y84704801D01*
X60361309Y84723355D01*
X60354234Y84733943D01*
X60354103Y84735939D01*
X60355766Y84737050D01*
X60357008Y84736717D01*
G37*
G36*
X59557008Y84736717D02*
G01*
X59572313Y84726491D01*
X59639752Y84705373D01*
X59711701Y84726500D01*
X59726992Y84736717D01*
X59728988Y84736848D01*
X59730099Y84735185D01*
X59729766Y84733943D01*
X59722691Y84723355D01*
X59719000Y84704801D01*
X59719000Y83205199D01*
X59722691Y83186645D01*
X59729766Y83176057D01*
X59729897Y83174061D01*
X59728234Y83172950D01*
X59726992Y83173283D01*
X59711687Y83183509D01*
X59644248Y83204627D01*
X59572299Y83183500D01*
X59557008Y83173283D01*
X59555012Y83173152D01*
X59553901Y83174815D01*
X59554234Y83176057D01*
X59561309Y83186645D01*
X59565000Y83205199D01*
X59565000Y84704801D01*
X59561309Y84723355D01*
X59554234Y84733943D01*
X59554103Y84735939D01*
X59555766Y84737050D01*
X59557008Y84736717D01*
G37*
G36*
X61957008Y84736717D02*
G01*
X61972313Y84726491D01*
X62039752Y84705373D01*
X62111701Y84726500D01*
X62126992Y84736717D01*
X62128988Y84736848D01*
X62130099Y84735185D01*
X62129766Y84733943D01*
X62122691Y84723355D01*
X62119000Y84704801D01*
X62119000Y83205199D01*
X62122691Y83186645D01*
X62129766Y83176057D01*
X62129897Y83174061D01*
X62128234Y83172950D01*
X62126992Y83173283D01*
X62111687Y83183509D01*
X62044248Y83204627D01*
X61972299Y83183500D01*
X61957008Y83173283D01*
X61955012Y83173152D01*
X61953901Y83174815D01*
X61954234Y83176057D01*
X61961309Y83186645D01*
X61965000Y83205199D01*
X61965000Y84704801D01*
X61961309Y84723355D01*
X61954234Y84733943D01*
X61954103Y84735939D01*
X61955766Y84737050D01*
X61957008Y84736717D01*
G37*
G36*
X58757008Y84736717D02*
G01*
X58772313Y84726491D01*
X58839752Y84705373D01*
X58911701Y84726500D01*
X58926992Y84736717D01*
X58928988Y84736848D01*
X58930099Y84735185D01*
X58929766Y84733943D01*
X58922691Y84723355D01*
X58919000Y84704801D01*
X58919000Y83205199D01*
X58922691Y83186645D01*
X58929766Y83176057D01*
X58929897Y83174061D01*
X58928234Y83172950D01*
X58926992Y83173283D01*
X58911687Y83183509D01*
X58844248Y83204627D01*
X58772299Y83183500D01*
X58757008Y83173283D01*
X58755012Y83173152D01*
X58753901Y83174815D01*
X58754234Y83176057D01*
X58761309Y83186645D01*
X58765000Y83205199D01*
X58765000Y84704801D01*
X58761309Y84723355D01*
X58754234Y84733943D01*
X58754103Y84735939D01*
X58755766Y84737050D01*
X58757008Y84736717D01*
G37*
G36*
X57957008Y84736717D02*
G01*
X57972313Y84726491D01*
X58039752Y84705373D01*
X58111701Y84726500D01*
X58126992Y84736717D01*
X58128988Y84736848D01*
X58130099Y84735185D01*
X58129766Y84733943D01*
X58122691Y84723355D01*
X58119000Y84704801D01*
X58119000Y83205199D01*
X58122691Y83186645D01*
X58129766Y83176057D01*
X58129897Y83174061D01*
X58128234Y83172950D01*
X58126992Y83173283D01*
X58111687Y83183509D01*
X58044248Y83204627D01*
X57972299Y83183500D01*
X57957008Y83173283D01*
X57955012Y83173152D01*
X57953901Y83174815D01*
X57954234Y83176057D01*
X57961309Y83186645D01*
X57965000Y83205199D01*
X57965000Y84704801D01*
X57961309Y84723355D01*
X57954234Y84733943D01*
X57954103Y84735939D01*
X57955766Y84737050D01*
X57957008Y84736717D01*
G37*
G36*
X62757008Y84736717D02*
G01*
X62772313Y84726491D01*
X62839752Y84705373D01*
X62911701Y84726500D01*
X62926992Y84736717D01*
X62928988Y84736848D01*
X62930099Y84735185D01*
X62929766Y84733943D01*
X62922691Y84723355D01*
X62919000Y84704801D01*
X62919000Y83205199D01*
X62922691Y83186645D01*
X62929766Y83176057D01*
X62929897Y83174061D01*
X62928234Y83172950D01*
X62926992Y83173283D01*
X62911687Y83183509D01*
X62844248Y83204627D01*
X62772299Y83183500D01*
X62757008Y83173283D01*
X62755012Y83173152D01*
X62753901Y83174815D01*
X62754234Y83176057D01*
X62761309Y83186645D01*
X62765000Y83205199D01*
X62765000Y84704801D01*
X62761309Y84723355D01*
X62754234Y84733943D01*
X62754103Y84735939D01*
X62755766Y84737050D01*
X62757008Y84736717D01*
G37*
G36*
X61157008Y84736717D02*
G01*
X61172313Y84726491D01*
X61239752Y84705373D01*
X61311701Y84726500D01*
X61326992Y84736717D01*
X61328988Y84736848D01*
X61330099Y84735185D01*
X61329766Y84733943D01*
X61322691Y84723355D01*
X61319000Y84704801D01*
X61319000Y83205199D01*
X61322691Y83186645D01*
X61329766Y83176057D01*
X61329897Y83174061D01*
X61328234Y83172950D01*
X61326992Y83173283D01*
X61311687Y83183509D01*
X61244248Y83204627D01*
X61172299Y83183500D01*
X61157008Y83173283D01*
X61155012Y83173152D01*
X61153901Y83174815D01*
X61154234Y83176057D01*
X61161309Y83186645D01*
X61165000Y83205199D01*
X61165000Y84704801D01*
X61161309Y84723355D01*
X61154234Y84733943D01*
X61154103Y84735939D01*
X61155766Y84737050D01*
X61157008Y84736717D01*
G37*
G36*
X63557008Y84736717D02*
G01*
X63572313Y84726491D01*
X63639752Y84705373D01*
X63711701Y84726500D01*
X63726992Y84736717D01*
X63728988Y84736848D01*
X63730099Y84735185D01*
X63729766Y84733943D01*
X63722691Y84723355D01*
X63719000Y84704801D01*
X63719000Y83205199D01*
X63722691Y83186645D01*
X63729766Y83176057D01*
X63729897Y83174061D01*
X63728234Y83172950D01*
X63726992Y83173283D01*
X63711687Y83183509D01*
X63644248Y83204627D01*
X63572299Y83183500D01*
X63557008Y83173283D01*
X63555012Y83173152D01*
X63553901Y83174815D01*
X63554234Y83176057D01*
X63561309Y83186645D01*
X63565000Y83205199D01*
X63565000Y84704801D01*
X63561309Y84723355D01*
X63554234Y84733943D01*
X63554103Y84735939D01*
X63555766Y84737050D01*
X63557008Y84736717D01*
G37*
G36*
X30520754Y85688864D02*
G01*
X30536543Y85673103D01*
X30598611Y85639281D01*
X30668889Y85644369D01*
X30713676Y85673209D01*
X30729126Y85688685D01*
X30731057Y85689204D01*
X30732472Y85687791D01*
X30732204Y85686161D01*
X30713303Y85657874D01*
X30702000Y85601051D01*
X30702000Y84326449D01*
X30713303Y84269626D01*
X30732322Y84241162D01*
X30732453Y84239166D01*
X30730790Y84238055D01*
X30729246Y84238636D01*
X30713457Y84254397D01*
X30651389Y84288219D01*
X30581111Y84283131D01*
X30536324Y84254291D01*
X30520874Y84238815D01*
X30518943Y84238296D01*
X30517528Y84239709D01*
X30517796Y84241339D01*
X30536697Y84269626D01*
X30548000Y84326449D01*
X30548000Y85601051D01*
X30536697Y85657874D01*
X30517678Y85686338D01*
X30517547Y85688334D01*
X30519210Y85689445D01*
X30520754Y85688864D01*
G37*
G36*
X31170754Y85688864D02*
G01*
X31186543Y85673103D01*
X31248611Y85639281D01*
X31318889Y85644369D01*
X31363676Y85673209D01*
X31379126Y85688685D01*
X31381057Y85689204D01*
X31382472Y85687791D01*
X31382204Y85686161D01*
X31363303Y85657874D01*
X31352000Y85601051D01*
X31352000Y84326449D01*
X31363303Y84269626D01*
X31382322Y84241162D01*
X31382453Y84239166D01*
X31380790Y84238055D01*
X31379246Y84238636D01*
X31363457Y84254397D01*
X31301389Y84288219D01*
X31231111Y84283131D01*
X31186324Y84254291D01*
X31170874Y84238815D01*
X31168943Y84238296D01*
X31167528Y84239709D01*
X31167796Y84241339D01*
X31186697Y84269626D01*
X31198000Y84326449D01*
X31198000Y85601051D01*
X31186697Y85657874D01*
X31167678Y85686338D01*
X31167547Y85688334D01*
X31169210Y85689445D01*
X31170754Y85688864D01*
G37*
G36*
X32470754Y85688864D02*
G01*
X32486543Y85673103D01*
X32548611Y85639281D01*
X32618889Y85644369D01*
X32663676Y85673209D01*
X32679126Y85688685D01*
X32681057Y85689204D01*
X32682472Y85687791D01*
X32682204Y85686161D01*
X32663303Y85657874D01*
X32652000Y85601051D01*
X32652000Y84326449D01*
X32663303Y84269626D01*
X32682322Y84241162D01*
X32682453Y84239166D01*
X32680790Y84238055D01*
X32679246Y84238636D01*
X32663457Y84254397D01*
X32601389Y84288219D01*
X32531111Y84283131D01*
X32486324Y84254291D01*
X32470874Y84238815D01*
X32468943Y84238296D01*
X32467528Y84239709D01*
X32467796Y84241339D01*
X32486697Y84269626D01*
X32498000Y84326449D01*
X32498000Y85601051D01*
X32486697Y85657874D01*
X32467678Y85686338D01*
X32467547Y85688334D01*
X32469210Y85689445D01*
X32470754Y85688864D01*
G37*
G36*
X31820754Y85688864D02*
G01*
X31836543Y85673103D01*
X31898611Y85639281D01*
X31968889Y85644369D01*
X32013676Y85673209D01*
X32029126Y85688685D01*
X32031057Y85689204D01*
X32032472Y85687791D01*
X32032204Y85686161D01*
X32013303Y85657874D01*
X32002000Y85601051D01*
X32002000Y84326449D01*
X32013303Y84269626D01*
X32032322Y84241162D01*
X32032453Y84239166D01*
X32030790Y84238055D01*
X32029246Y84238636D01*
X32013457Y84254397D01*
X31951389Y84288219D01*
X31881111Y84283131D01*
X31836324Y84254291D01*
X31820874Y84238815D01*
X31818943Y84238296D01*
X31817528Y84239709D01*
X31817796Y84241339D01*
X31836697Y84269626D01*
X31848000Y84326449D01*
X31848000Y85601051D01*
X31836697Y85657874D01*
X31817678Y85686338D01*
X31817547Y85688334D01*
X31819210Y85689445D01*
X31820754Y85688864D01*
G37*
G36*
X29870754Y85688864D02*
G01*
X29886543Y85673103D01*
X29948611Y85639281D01*
X30018889Y85644369D01*
X30063676Y85673209D01*
X30079126Y85688685D01*
X30081057Y85689204D01*
X30082472Y85687791D01*
X30082204Y85686161D01*
X30063303Y85657874D01*
X30052000Y85601051D01*
X30052000Y84326449D01*
X30063303Y84269626D01*
X30082322Y84241162D01*
X30082453Y84239166D01*
X30080790Y84238055D01*
X30079246Y84238636D01*
X30063457Y84254397D01*
X30001389Y84288219D01*
X29931111Y84283131D01*
X29886324Y84254291D01*
X29870874Y84238815D01*
X29868943Y84238296D01*
X29867528Y84239709D01*
X29867796Y84241339D01*
X29886697Y84269626D01*
X29898000Y84326449D01*
X29898000Y85601051D01*
X29886697Y85657874D01*
X29867678Y85686338D01*
X29867547Y85688334D01*
X29869210Y85689445D01*
X29870754Y85688864D01*
G37*
G36*
X29220754Y85688864D02*
G01*
X29236543Y85673103D01*
X29298611Y85639281D01*
X29368889Y85644369D01*
X29413676Y85673209D01*
X29429126Y85688685D01*
X29431057Y85689204D01*
X29432472Y85687791D01*
X29432204Y85686161D01*
X29413303Y85657874D01*
X29402000Y85601051D01*
X29402000Y84326449D01*
X29413303Y84269626D01*
X29432322Y84241162D01*
X29432453Y84239166D01*
X29430790Y84238055D01*
X29429246Y84238636D01*
X29413457Y84254397D01*
X29351389Y84288219D01*
X29281111Y84283131D01*
X29236324Y84254291D01*
X29220874Y84238815D01*
X29218943Y84238296D01*
X29217528Y84239709D01*
X29217796Y84241339D01*
X29236697Y84269626D01*
X29248000Y84326449D01*
X29248000Y85601051D01*
X29236697Y85657874D01*
X29217678Y85686338D01*
X29217547Y85688334D01*
X29219210Y85689445D01*
X29220754Y85688864D01*
G37*
G36*
X29220754Y91413864D02*
G01*
X29236543Y91398103D01*
X29298611Y91364281D01*
X29368889Y91369369D01*
X29413676Y91398209D01*
X29429126Y91413685D01*
X29431057Y91414204D01*
X29432472Y91412791D01*
X29432204Y91411161D01*
X29413303Y91382874D01*
X29402000Y91326051D01*
X29402000Y90051449D01*
X29413303Y89994626D01*
X29432322Y89966162D01*
X29432453Y89964166D01*
X29430790Y89963055D01*
X29429246Y89963636D01*
X29413457Y89979397D01*
X29351389Y90013219D01*
X29281111Y90008131D01*
X29236324Y89979291D01*
X29220874Y89963815D01*
X29218943Y89963296D01*
X29217528Y89964709D01*
X29217796Y89966339D01*
X29236697Y89994626D01*
X29248000Y90051449D01*
X29248000Y91326051D01*
X29236697Y91382874D01*
X29217678Y91411338D01*
X29217547Y91413334D01*
X29219210Y91414445D01*
X29220754Y91413864D01*
G37*
G36*
X31820754Y91413864D02*
G01*
X31836543Y91398103D01*
X31898611Y91364281D01*
X31968889Y91369369D01*
X32013676Y91398209D01*
X32029126Y91413685D01*
X32031057Y91414204D01*
X32032472Y91412791D01*
X32032204Y91411161D01*
X32013303Y91382874D01*
X32002000Y91326051D01*
X32002000Y90051449D01*
X32013303Y89994626D01*
X32032322Y89966162D01*
X32032453Y89964166D01*
X32030790Y89963055D01*
X32029246Y89963636D01*
X32013457Y89979397D01*
X31951389Y90013219D01*
X31881111Y90008131D01*
X31836324Y89979291D01*
X31820874Y89963815D01*
X31818943Y89963296D01*
X31817528Y89964709D01*
X31817796Y89966339D01*
X31836697Y89994626D01*
X31848000Y90051449D01*
X31848000Y91326051D01*
X31836697Y91382874D01*
X31817678Y91411338D01*
X31817547Y91413334D01*
X31819210Y91414445D01*
X31820754Y91413864D01*
G37*
G36*
X32470754Y91413864D02*
G01*
X32486543Y91398103D01*
X32548611Y91364281D01*
X32618889Y91369369D01*
X32663676Y91398209D01*
X32679126Y91413685D01*
X32681057Y91414204D01*
X32682472Y91412791D01*
X32682204Y91411161D01*
X32663303Y91382874D01*
X32652000Y91326051D01*
X32652000Y90051449D01*
X32663303Y89994626D01*
X32682322Y89966162D01*
X32682453Y89964166D01*
X32680790Y89963055D01*
X32679246Y89963636D01*
X32663457Y89979397D01*
X32601389Y90013219D01*
X32531111Y90008131D01*
X32486324Y89979291D01*
X32470874Y89963815D01*
X32468943Y89963296D01*
X32467528Y89964709D01*
X32467796Y89966339D01*
X32486697Y89994626D01*
X32498000Y90051449D01*
X32498000Y91326051D01*
X32486697Y91382874D01*
X32467678Y91411338D01*
X32467547Y91413334D01*
X32469210Y91414445D01*
X32470754Y91413864D01*
G37*
G36*
X31170754Y91413864D02*
G01*
X31186543Y91398103D01*
X31248611Y91364281D01*
X31318889Y91369369D01*
X31363676Y91398209D01*
X31379126Y91413685D01*
X31381057Y91414204D01*
X31382472Y91412791D01*
X31382204Y91411161D01*
X31363303Y91382874D01*
X31352000Y91326051D01*
X31352000Y90051449D01*
X31363303Y89994626D01*
X31382322Y89966162D01*
X31382453Y89964166D01*
X31380790Y89963055D01*
X31379246Y89963636D01*
X31363457Y89979397D01*
X31301389Y90013219D01*
X31231111Y90008131D01*
X31186324Y89979291D01*
X31170874Y89963815D01*
X31168943Y89963296D01*
X31167528Y89964709D01*
X31167796Y89966339D01*
X31186697Y89994626D01*
X31198000Y90051449D01*
X31198000Y91326051D01*
X31186697Y91382874D01*
X31167678Y91411338D01*
X31167547Y91413334D01*
X31169210Y91414445D01*
X31170754Y91413864D01*
G37*
G36*
X29870754Y91413864D02*
G01*
X29886543Y91398103D01*
X29948611Y91364281D01*
X30018889Y91369369D01*
X30063676Y91398209D01*
X30079126Y91413685D01*
X30081057Y91414204D01*
X30082472Y91412791D01*
X30082204Y91411161D01*
X30063303Y91382874D01*
X30052000Y91326051D01*
X30052000Y90051449D01*
X30063303Y89994626D01*
X30082322Y89966162D01*
X30082453Y89964166D01*
X30080790Y89963055D01*
X30079246Y89963636D01*
X30063457Y89979397D01*
X30001389Y90013219D01*
X29931111Y90008131D01*
X29886324Y89979291D01*
X29870874Y89963815D01*
X29868943Y89963296D01*
X29867528Y89964709D01*
X29867796Y89966339D01*
X29886697Y89994626D01*
X29898000Y90051449D01*
X29898000Y91326051D01*
X29886697Y91382874D01*
X29867678Y91411338D01*
X29867547Y91413334D01*
X29869210Y91414445D01*
X29870754Y91413864D01*
G37*
G36*
X30520754Y91413864D02*
G01*
X30536543Y91398103D01*
X30598611Y91364281D01*
X30668889Y91369369D01*
X30713676Y91398209D01*
X30729126Y91413685D01*
X30731057Y91414204D01*
X30732472Y91412791D01*
X30732204Y91411161D01*
X30713303Y91382874D01*
X30702000Y91326051D01*
X30702000Y90051449D01*
X30713303Y89994626D01*
X30732322Y89966162D01*
X30732453Y89964166D01*
X30730790Y89963055D01*
X30729246Y89963636D01*
X30713457Y89979397D01*
X30651389Y90013219D01*
X30581111Y90008131D01*
X30536324Y89979291D01*
X30520874Y89963815D01*
X30518943Y89963296D01*
X30517528Y89964709D01*
X30517796Y89966339D01*
X30536697Y89994626D01*
X30548000Y90051449D01*
X30548000Y91326051D01*
X30536697Y91382874D01*
X30517678Y91411338D01*
X30517547Y91413334D01*
X30519210Y91414445D01*
X30520754Y91413864D01*
G37*
M02*
