%TF.GenerationSoftware,KiCad,Pcbnew,6.0.4-1.fc35*%
%TF.CreationDate,2022-04-29T14:23:32+05:30*%
%TF.ProjectId,8puter,38707574-6572-42e6-9b69-6361645f7063,rev?*%
%TF.SameCoordinates,PX63d9090PY80e2628*%
%TF.FileFunction,Soldermask,Bot*%
%TF.FilePolarity,Negative*%
%FSLAX46Y46*%
G04 Gerber Fmt 4.6, Leading zero omitted, Abs format (unit mm)*
G04 Created by KiCad (PCBNEW 6.0.4-1.fc35) date 2022-04-29 14:23:32*
%MOMM*%
%LPD*%
G01*
G04 APERTURE LIST*
G04 Aperture macros list*
%AMRoundRect*
0 Rectangle with rounded corners*
0 $1 Rounding radius*
0 $2 $3 $4 $5 $6 $7 $8 $9 X,Y pos of 4 corners*
0 Add a 4 corners polygon primitive as box body*
4,1,4,$2,$3,$4,$5,$6,$7,$8,$9,$2,$3,0*
0 Add four circle primitives for the rounded corners*
1,1,$1+$1,$2,$3*
1,1,$1+$1,$4,$5*
1,1,$1+$1,$6,$7*
1,1,$1+$1,$8,$9*
0 Add four rect primitives between the rounded corners*
20,1,$1+$1,$2,$3,$4,$5,0*
20,1,$1+$1,$4,$5,$6,$7,0*
20,1,$1+$1,$6,$7,$8,$9,0*
20,1,$1+$1,$8,$9,$2,$3,0*%
G04 Aperture macros list end*
%TA.AperFunction,Profile*%
%ADD10C,0.050000*%
%TD*%
%ADD11C,3.100000*%
%ADD12C,2.100000*%
%ADD13RoundRect,0.050000X0.675000X-0.675000X0.675000X0.675000X-0.675000X0.675000X-0.675000X-0.675000X0*%
%ADD14O,1.450000X1.450000*%
%ADD15RoundRect,0.050000X-1.200000X-0.800000X1.200000X-0.800000X1.200000X0.800000X-1.200000X0.800000X0*%
%ADD16O,2.500000X1.700000*%
%ADD17RoundRect,0.050000X-0.675000X-0.675000X0.675000X-0.675000X0.675000X0.675000X-0.675000X0.675000X0*%
%ADD18RoundRect,0.050000X-0.800000X-0.800000X0.800000X-0.800000X0.800000X0.800000X-0.800000X0.800000X0*%
%ADD19C,1.700000*%
%ADD20C,4.100000*%
%ADD21RoundRect,0.050000X0.800000X0.800000X-0.800000X0.800000X-0.800000X-0.800000X0.800000X-0.800000X0*%
%ADD22RoundRect,0.050000X0.675000X0.675000X-0.675000X0.675000X-0.675000X-0.675000X0.675000X-0.675000X0*%
%ADD23RoundRect,0.050000X2.000000X1.000000X-2.000000X1.000000X-2.000000X-1.000000X2.000000X-1.000000X0*%
%ADD24O,3.400000X2.100000*%
%ADD25O,2.100000X3.600000*%
%ADD26RoundRect,0.050000X-0.675000X0.675000X-0.675000X-0.675000X0.675000X-0.675000X0.675000X0.675000X0*%
G04 APERTURE END LIST*
D10*
X100000000Y98000000D02*
X100000000Y2000000D01*
X2000000Y100000000D02*
G75*
G03*
X0Y98000000I0J-2000000D01*
G01*
X0Y2000000D02*
G75*
G03*
X2000000Y0I2000000J0D01*
G01*
X97985786Y0D02*
X2000000Y0D01*
X2000000Y100000000D02*
X98000000Y100000000D01*
X100000000Y98000000D02*
G75*
G03*
X98000000Y100000000I-2000000J0D01*
G01*
X0Y2000000D02*
X0Y98000000D01*
X97985786Y-50D02*
G75*
G03*
X100000000Y2000000I14J2014250D01*
G01*
X100000000Y98000000D02*
X100000000Y2000000D01*
X2000000Y100000000D02*
G75*
G03*
X0Y98000000I0J-2000000D01*
G01*
X0Y2000000D02*
G75*
G03*
X2000000Y0I2000000J0D01*
G01*
X97985786Y0D02*
X2000000Y0D01*
X2000000Y100000000D02*
X98000000Y100000000D01*
X100000000Y98000000D02*
G75*
G03*
X98000000Y100000000I-2000000J0D01*
G01*
X0Y2000000D02*
X0Y98000000D01*
X97985786Y-50D02*
G75*
G03*
X100000000Y2000000I14J2014250D01*
G01*
D11*
%TO.C,*%
X39532000Y96985000D03*
%TD*%
%TO.C,*%
X96792000Y96945000D03*
%TD*%
%TO.C,*%
X3192000Y3065000D03*
%TD*%
%TO.C,*%
X96782000Y3055000D03*
%TD*%
D12*
%TO.C,RESET_SW1*%
X43894214Y75644214D03*
X50394214Y75644214D03*
X43894214Y71144214D03*
X50394214Y71144214D03*
%TD*%
D13*
%TO.C,ROM_WRITE1*%
X20750000Y2850000D03*
D14*
X22750000Y2850000D03*
X24750000Y2850000D03*
%TD*%
D15*
%TO.C,CPU1*%
X41500005Y61625012D03*
D16*
X41500005Y59085012D03*
X41500005Y56545012D03*
X41500005Y54005012D03*
X41500005Y51465012D03*
X41500005Y48925012D03*
X41500005Y46385012D03*
X41500005Y43845012D03*
X41500005Y41305012D03*
X41500005Y38765012D03*
X41500005Y36225012D03*
X41500005Y33685012D03*
X41500005Y31145012D03*
X41500005Y28605012D03*
X41500005Y26065012D03*
X41500005Y23525012D03*
X41500005Y20985012D03*
X41500005Y18445012D03*
X41500005Y15905012D03*
X41500005Y13365012D03*
X66900005Y13365012D03*
X66900005Y15905012D03*
X66900005Y18445012D03*
X66900005Y20985012D03*
X66900005Y23525012D03*
X66900005Y26065012D03*
X66900005Y28605012D03*
X66900005Y31145012D03*
X66900005Y33685012D03*
X66900005Y36225012D03*
X66900005Y38765012D03*
X66900005Y41305012D03*
X66900005Y43845012D03*
X66900005Y46385012D03*
X66900005Y48925012D03*
X66900005Y51465012D03*
X66900005Y54005012D03*
X66900005Y56545012D03*
X66900005Y59085012D03*
X66900005Y61625012D03*
%TD*%
D17*
%TO.C,PERIPHERAL1*%
X93200000Y68800000D03*
D14*
X95200000Y68800000D03*
X93200000Y66800000D03*
X95200000Y66800000D03*
X93200000Y64800000D03*
X95200000Y64800000D03*
X93200000Y62800000D03*
X95200000Y62800000D03*
X93200000Y60800000D03*
X95200000Y60800000D03*
X93200000Y58800000D03*
X95200000Y58800000D03*
X93200000Y56800000D03*
X95200000Y56800000D03*
X93200000Y54800000D03*
X95200000Y54800000D03*
%TD*%
D17*
%TO.C,PROG1*%
X74552000Y82245000D03*
D14*
X74552000Y80245000D03*
X74552000Y78245000D03*
X74552000Y76245000D03*
X74552000Y74245000D03*
%TD*%
D18*
%TO.C,C3*%
X11744888Y78290000D03*
D19*
X14244888Y78290000D03*
%TD*%
D20*
%TO.C,VGA1*%
X72115000Y94949669D03*
X47115000Y94949669D03*
D21*
X55300000Y92899669D03*
D19*
X57590000Y92899669D03*
X59880000Y92899669D03*
X62170000Y92899669D03*
X64460000Y92899669D03*
X54155000Y94879669D03*
X56445000Y94879669D03*
X58735000Y94879669D03*
X61025000Y94879669D03*
X63315000Y94879669D03*
X55300000Y96859669D03*
X57590000Y96859669D03*
X59880000Y96859669D03*
X62170000Y96859669D03*
X64460000Y96859669D03*
%TD*%
D22*
%TO.C,SPI1*%
X2100000Y47260000D03*
D14*
X2100000Y49260000D03*
X2100000Y51260000D03*
X2100000Y53260000D03*
X2100000Y55260000D03*
X2100000Y57260000D03*
%TD*%
D17*
%TO.C,DEBUG1*%
X93200000Y45050000D03*
D14*
X95200000Y45050000D03*
X93200000Y43050000D03*
X95200000Y43050000D03*
X93200000Y41050000D03*
X95200000Y41050000D03*
X93200000Y39050000D03*
X95200000Y39050000D03*
X93200000Y37050000D03*
X95200000Y37050000D03*
X93200000Y35050000D03*
X95200000Y35050000D03*
X93200000Y33050000D03*
X95200000Y33050000D03*
X93200000Y31050000D03*
X95200000Y31050000D03*
X93200000Y29050000D03*
X95200000Y29050000D03*
X93200000Y27050000D03*
X95200000Y27050000D03*
X93200000Y25050000D03*
X95200000Y25050000D03*
X93200000Y23050000D03*
X95200000Y23050000D03*
X93200000Y21050000D03*
X95200000Y21050000D03*
X93200000Y19050000D03*
X95200000Y19050000D03*
X93200000Y17050000D03*
X95200000Y17050000D03*
X93200000Y15050000D03*
X95200000Y15050000D03*
%TD*%
D19*
%TO.C,J1*%
X8320000Y96460000D03*
D23*
X8320000Y87460000D03*
D24*
X8320000Y93460000D03*
D25*
X12820000Y94460000D03*
X3820000Y94460000D03*
%TD*%
D12*
%TO.C,STEP_SW1*%
X40500000Y71155774D03*
X34000000Y71155774D03*
X34000000Y75655774D03*
X40500000Y75655774D03*
%TD*%
D26*
%TO.C,CS_SEL1*%
X29950000Y76326250D03*
D14*
X29950000Y74326250D03*
X27950000Y76326250D03*
X27950000Y74326250D03*
X25950000Y76326250D03*
X25950000Y74326250D03*
%TD*%
D11*
%TO.C,USB_P1*%
X78330000Y90430000D03*
X91470000Y90430000D03*
%TD*%
D18*
%TO.C,X1*%
X17210000Y83990000D03*
D19*
X24830000Y83990000D03*
X24830000Y91610000D03*
X17210000Y91610000D03*
%TD*%
M02*
