%TF.GenerationSoftware,KiCad,Pcbnew,6.0.4-1.fc35*%
%TF.CreationDate,2022-04-27T17:33:17+05:30*%
%TF.ProjectId,8puter,38707574-6572-42e6-9b69-6361645f7063,rev?*%
%TF.SameCoordinates,PX5496c90PY8113368*%
%TF.FileFunction,OtherDrawing,Comment*%
%FSLAX46Y46*%
G04 Gerber Fmt 4.6, Leading zero omitted, Abs format (unit mm)*
G04 Created by KiCad (PCBNEW 6.0.4-1.fc35) date 2022-04-27 17:33:17*
%MOMM*%
%LPD*%
G01*
G04 APERTURE LIST*
%ADD10C,0.150000*%
%ADD11C,0.100000*%
G04 APERTURE END LIST*
D10*
X55476190Y-1702380D02*
X54904761Y-1702380D01*
X55190476Y-1702380D02*
X55190476Y-702380D01*
X55095238Y-845238D01*
X55000000Y-940476D01*
X54904761Y-988095D01*
X55857142Y-797619D02*
X55904761Y-750000D01*
X56000000Y-702380D01*
X56238095Y-702380D01*
X56333333Y-750000D01*
X56380952Y-797619D01*
X56428571Y-892857D01*
X56428571Y-988095D01*
X56380952Y-1130952D01*
X55809523Y-1702380D01*
X56428571Y-1702380D01*
X57047619Y-702380D02*
X57142857Y-702380D01*
X57238095Y-750000D01*
X57285714Y-797619D01*
X57333333Y-892857D01*
X57380952Y-1083333D01*
X57380952Y-1321428D01*
X57333333Y-1511904D01*
X57285714Y-1607142D01*
X57238095Y-1654761D01*
X57142857Y-1702380D01*
X57047619Y-1702380D01*
X56952380Y-1654761D01*
X56904761Y-1607142D01*
X56857142Y-1511904D01*
X56809523Y-1321428D01*
X56809523Y-1083333D01*
X56857142Y-892857D01*
X56904761Y-797619D01*
X56952380Y-750000D01*
X57047619Y-702380D01*
X57809523Y-1607142D02*
X57857142Y-1654761D01*
X57809523Y-1702380D01*
X57761904Y-1654761D01*
X57809523Y-1607142D01*
X57809523Y-1702380D01*
X58476190Y-702380D02*
X58571428Y-702380D01*
X58666666Y-750000D01*
X58714285Y-797619D01*
X58761904Y-892857D01*
X58809523Y-1083333D01*
X58809523Y-1321428D01*
X58761904Y-1511904D01*
X58714285Y-1607142D01*
X58666666Y-1654761D01*
X58571428Y-1702380D01*
X58476190Y-1702380D01*
X58380952Y-1654761D01*
X58333333Y-1607142D01*
X58285714Y-1511904D01*
X58238095Y-1321428D01*
X58238095Y-1083333D01*
X58285714Y-892857D01*
X58333333Y-797619D01*
X58380952Y-750000D01*
X58476190Y-702380D01*
X59428571Y-702380D02*
X59523809Y-702380D01*
X59619047Y-750000D01*
X59666666Y-797619D01*
X59714285Y-892857D01*
X59761904Y-1083333D01*
X59761904Y-1321428D01*
X59714285Y-1511904D01*
X59666666Y-1607142D01*
X59619047Y-1654761D01*
X59523809Y-1702380D01*
X59428571Y-1702380D01*
X59333333Y-1654761D01*
X59285714Y-1607142D01*
X59238095Y-1511904D01*
X59190476Y-1321428D01*
X59190476Y-1083333D01*
X59238095Y-892857D01*
X59285714Y-797619D01*
X59333333Y-750000D01*
X59428571Y-702380D01*
X60380952Y-702380D02*
X60476190Y-702380D01*
X60571428Y-750000D01*
X60619047Y-797619D01*
X60666666Y-892857D01*
X60714285Y-1083333D01*
X60714285Y-1321428D01*
X60666666Y-1511904D01*
X60619047Y-1607142D01*
X60571428Y-1654761D01*
X60476190Y-1702380D01*
X60380952Y-1702380D01*
X60285714Y-1654761D01*
X60238095Y-1607142D01*
X60190476Y-1511904D01*
X60142857Y-1321428D01*
X60142857Y-1083333D01*
X60190476Y-892857D01*
X60238095Y-797619D01*
X60285714Y-750000D01*
X60380952Y-702380D01*
X61333333Y-702380D02*
X61428571Y-702380D01*
X61523809Y-750000D01*
X61571428Y-797619D01*
X61619047Y-892857D01*
X61666666Y-1083333D01*
X61666666Y-1321428D01*
X61619047Y-1511904D01*
X61571428Y-1607142D01*
X61523809Y-1654761D01*
X61428571Y-1702380D01*
X61333333Y-1702380D01*
X61238095Y-1654761D01*
X61190476Y-1607142D01*
X61142857Y-1511904D01*
X61095238Y-1321428D01*
X61095238Y-1083333D01*
X61142857Y-892857D01*
X61190476Y-797619D01*
X61238095Y-750000D01*
X61333333Y-702380D01*
X62857142Y-1702380D02*
X62857142Y-1035714D01*
X62857142Y-1130952D02*
X62904761Y-1083333D01*
X63000000Y-1035714D01*
X63142857Y-1035714D01*
X63238095Y-1083333D01*
X63285714Y-1178571D01*
X63285714Y-1702380D01*
X63285714Y-1178571D02*
X63333333Y-1083333D01*
X63428571Y-1035714D01*
X63571428Y-1035714D01*
X63666666Y-1083333D01*
X63714285Y-1178571D01*
X63714285Y-1702380D01*
X64190476Y-1702380D02*
X64190476Y-1035714D01*
X64190476Y-1130952D02*
X64238095Y-1083333D01*
X64333333Y-1035714D01*
X64476190Y-1035714D01*
X64571428Y-1083333D01*
X64619047Y-1178571D01*
X64619047Y-1702380D01*
X64619047Y-1178571D02*
X64666666Y-1083333D01*
X64761904Y-1035714D01*
X64904761Y-1035714D01*
X65000000Y-1083333D01*
X65047619Y-1178571D01*
X65047619Y-1702380D01*
D11*
X0Y-500000D02*
X0Y-2986420D01*
X120000000Y-2986420D02*
X120000000Y-500000D01*
X0Y-2400000D02*
X120000000Y-2400000D01*
X0Y-2400000D02*
X120000000Y-2400000D01*
X0Y-2400000D02*
X1126504Y-2986421D01*
X0Y-2400000D02*
X1126504Y-1813579D01*
X120000000Y-2400000D02*
X118873496Y-1813579D01*
X120000000Y-2400000D02*
X118873496Y-2986421D01*
D10*
X121702380Y45576191D02*
X121702380Y45004762D01*
X121702380Y45290477D02*
X120702380Y45290477D01*
X120845238Y45195239D01*
X120940476Y45100000D01*
X120988095Y45004762D01*
X120702380Y46195239D02*
X120702380Y46290477D01*
X120750000Y46385715D01*
X120797619Y46433334D01*
X120892857Y46480953D01*
X121083333Y46528572D01*
X121321428Y46528572D01*
X121511904Y46480953D01*
X121607142Y46433334D01*
X121654761Y46385715D01*
X121702380Y46290477D01*
X121702380Y46195239D01*
X121654761Y46100000D01*
X121607142Y46052381D01*
X121511904Y46004762D01*
X121321428Y45957143D01*
X121083333Y45957143D01*
X120892857Y46004762D01*
X120797619Y46052381D01*
X120750000Y46100000D01*
X120702380Y46195239D01*
X120702380Y47147620D02*
X120702380Y47242858D01*
X120750000Y47338096D01*
X120797619Y47385715D01*
X120892857Y47433334D01*
X121083333Y47480953D01*
X121321428Y47480953D01*
X121511904Y47433334D01*
X121607142Y47385715D01*
X121654761Y47338096D01*
X121702380Y47242858D01*
X121702380Y47147620D01*
X121654761Y47052381D01*
X121607142Y47004762D01*
X121511904Y46957143D01*
X121321428Y46909524D01*
X121083333Y46909524D01*
X120892857Y46957143D01*
X120797619Y47004762D01*
X120750000Y47052381D01*
X120702380Y47147620D01*
X121607142Y47909524D02*
X121654761Y47957143D01*
X121702380Y47909524D01*
X121654761Y47861905D01*
X121607142Y47909524D01*
X121702380Y47909524D01*
X120702380Y48576191D02*
X120702380Y48671429D01*
X120750000Y48766667D01*
X120797619Y48814286D01*
X120892857Y48861905D01*
X121083333Y48909524D01*
X121321428Y48909524D01*
X121511904Y48861905D01*
X121607142Y48814286D01*
X121654761Y48766667D01*
X121702380Y48671429D01*
X121702380Y48576191D01*
X121654761Y48480953D01*
X121607142Y48433334D01*
X121511904Y48385715D01*
X121321428Y48338096D01*
X121083333Y48338096D01*
X120892857Y48385715D01*
X120797619Y48433334D01*
X120750000Y48480953D01*
X120702380Y48576191D01*
X120702380Y49528572D02*
X120702380Y49623810D01*
X120750000Y49719048D01*
X120797619Y49766667D01*
X120892857Y49814286D01*
X121083333Y49861905D01*
X121321428Y49861905D01*
X121511904Y49814286D01*
X121607142Y49766667D01*
X121654761Y49719048D01*
X121702380Y49623810D01*
X121702380Y49528572D01*
X121654761Y49433334D01*
X121607142Y49385715D01*
X121511904Y49338096D01*
X121321428Y49290477D01*
X121083333Y49290477D01*
X120892857Y49338096D01*
X120797619Y49385715D01*
X120750000Y49433334D01*
X120702380Y49528572D01*
X120702380Y50480953D02*
X120702380Y50576191D01*
X120750000Y50671429D01*
X120797619Y50719048D01*
X120892857Y50766667D01*
X121083333Y50814286D01*
X121321428Y50814286D01*
X121511904Y50766667D01*
X121607142Y50719048D01*
X121654761Y50671429D01*
X121702380Y50576191D01*
X121702380Y50480953D01*
X121654761Y50385715D01*
X121607142Y50338096D01*
X121511904Y50290477D01*
X121321428Y50242858D01*
X121083333Y50242858D01*
X120892857Y50290477D01*
X120797619Y50338096D01*
X120750000Y50385715D01*
X120702380Y50480953D01*
X120702380Y51433334D02*
X120702380Y51528572D01*
X120750000Y51623810D01*
X120797619Y51671429D01*
X120892857Y51719048D01*
X121083333Y51766667D01*
X121321428Y51766667D01*
X121511904Y51719048D01*
X121607142Y51671429D01*
X121654761Y51623810D01*
X121702380Y51528572D01*
X121702380Y51433334D01*
X121654761Y51338096D01*
X121607142Y51290477D01*
X121511904Y51242858D01*
X121321428Y51195239D01*
X121083333Y51195239D01*
X120892857Y51242858D01*
X120797619Y51290477D01*
X120750000Y51338096D01*
X120702380Y51433334D01*
X121702380Y52957143D02*
X121035714Y52957143D01*
X121130952Y52957143D02*
X121083333Y53004762D01*
X121035714Y53100000D01*
X121035714Y53242858D01*
X121083333Y53338096D01*
X121178571Y53385715D01*
X121702380Y53385715D01*
X121178571Y53385715D02*
X121083333Y53433334D01*
X121035714Y53528572D01*
X121035714Y53671429D01*
X121083333Y53766667D01*
X121178571Y53814286D01*
X121702380Y53814286D01*
X121702380Y54290477D02*
X121035714Y54290477D01*
X121130952Y54290477D02*
X121083333Y54338096D01*
X121035714Y54433334D01*
X121035714Y54576191D01*
X121083333Y54671429D01*
X121178571Y54719048D01*
X121702380Y54719048D01*
X121178571Y54719048D02*
X121083333Y54766667D01*
X121035714Y54861905D01*
X121035714Y55004762D01*
X121083333Y55100000D01*
X121178571Y55147620D01*
X121702380Y55147620D01*
D11*
X120500000Y100100000D02*
X122986420Y100100000D01*
X122986420Y100000D02*
X120500000Y100000D01*
X122400000Y100100000D02*
X122400000Y100000D01*
X122400000Y100100000D02*
X122400000Y100000D01*
X122400000Y100100000D02*
X121813579Y98973496D01*
X122400000Y100100000D02*
X122986421Y98973496D01*
X122400000Y100000D02*
X122986421Y1226504D01*
X122400000Y100000D02*
X121813579Y1226504D01*
M02*
