%TF.GenerationSoftware,KiCad,Pcbnew,6.0.4-1.fc35*%
%TF.CreationDate,2022-04-27T17:33:16+05:30*%
%TF.ProjectId,8puter,38707574-6572-42e6-9b69-6361645f7063,rev?*%
%TF.SameCoordinates,PX5496c90PY8113368*%
%TF.FileFunction,Paste,Top*%
%TF.FilePolarity,Positive*%
%FSLAX46Y46*%
G04 Gerber Fmt 4.6, Leading zero omitted, Abs format (unit mm)*
G04 Created by KiCad (PCBNEW 6.0.4-1.fc35) date 2022-04-27 17:33:16*
%MOMM*%
%LPD*%
G01*
G04 APERTURE LIST*
G04 Aperture macros list*
%AMRoundRect*
0 Rectangle with rounded corners*
0 $1 Rounding radius*
0 $2 $3 $4 $5 $6 $7 $8 $9 X,Y pos of 4 corners*
0 Add a 4 corners polygon primitive as box body*
4,1,4,$2,$3,$4,$5,$6,$7,$8,$9,$2,$3,0*
0 Add four circle primitives for the rounded corners*
1,1,$1+$1,$2,$3*
1,1,$1+$1,$4,$5*
1,1,$1+$1,$6,$7*
1,1,$1+$1,$8,$9*
0 Add four rect primitives between the rounded corners*
20,1,$1+$1,$2,$3,$4,$5,0*
20,1,$1+$1,$4,$5,$6,$7,0*
20,1,$1+$1,$6,$7,$8,$9,0*
20,1,$1+$1,$8,$9,$2,$3,0*%
G04 Aperture macros list end*
%ADD10R,1.100000X0.850000*%
%ADD11R,1.100000X0.750000*%
%ADD12R,1.000000X1.200000*%
%ADD13R,1.800000X1.170000*%
%ADD14R,1.350000X1.900000*%
%ADD15R,1.350000X1.550000*%
%ADD16RoundRect,0.250000X-0.250000X-0.475000X0.250000X-0.475000X0.250000X0.475000X-0.250000X0.475000X0*%
%ADD17RoundRect,0.250000X-0.262500X-0.450000X0.262500X-0.450000X0.262500X0.450000X-0.262500X0.450000X0*%
%ADD18RoundRect,0.250000X0.262500X0.450000X-0.262500X0.450000X-0.262500X-0.450000X0.262500X-0.450000X0*%
%ADD19R,1.000000X0.700000*%
%ADD20R,0.600000X0.700000*%
%ADD21RoundRect,0.250000X-0.450000X0.262500X-0.450000X-0.262500X0.450000X-0.262500X0.450000X0.262500X0*%
%ADD22RoundRect,0.250000X0.450000X-0.262500X0.450000X0.262500X-0.450000X0.262500X-0.450000X-0.262500X0*%
%ADD23RoundRect,0.250000X-0.475000X0.250000X-0.475000X-0.250000X0.475000X-0.250000X0.475000X0.250000X0*%
%ADD24RoundRect,0.250000X0.475000X-0.250000X0.475000X0.250000X-0.475000X0.250000X-0.475000X-0.250000X0*%
%ADD25R,2.000000X1.500000*%
%ADD26R,2.000000X3.800000*%
%ADD27R,1.500000X0.520000*%
%ADD28R,0.520000X1.500000*%
%ADD29RoundRect,0.100000X-0.100000X0.637500X-0.100000X-0.637500X0.100000X-0.637500X0.100000X0.637500X0*%
%ADD30RoundRect,0.243750X-0.456250X0.243750X-0.456250X-0.243750X0.456250X-0.243750X0.456250X0.243750X0*%
%ADD31RoundRect,0.150000X0.150000X-0.825000X0.150000X0.825000X-0.150000X0.825000X-0.150000X-0.825000X0*%
%ADD32R,0.450000X1.750000*%
%ADD33RoundRect,0.250000X0.250000X0.475000X-0.250000X0.475000X-0.250000X-0.475000X0.250000X-0.475000X0*%
%ADD34RoundRect,0.075000X-0.662500X-0.075000X0.662500X-0.075000X0.662500X0.075000X-0.662500X0.075000X0*%
%ADD35RoundRect,0.075000X-0.075000X-0.662500X0.075000X-0.662500X0.075000X0.662500X-0.075000X0.662500X0*%
%ADD36R,1.500000X2.000000*%
%ADD37R,3.800000X2.000000*%
%ADD38RoundRect,0.100000X0.100000X-0.637500X0.100000X0.637500X-0.100000X0.637500X-0.100000X-0.637500X0*%
%ADD39R,1.250000X3.000000*%
G04 APERTURE END LIST*
D10*
%TO.C,SDCARD1*%
X1150000Y65495000D03*
X1150000Y66595000D03*
X1150000Y67695000D03*
X1150000Y68795000D03*
X1150000Y69895000D03*
X1150000Y70995000D03*
X1150000Y72095000D03*
D11*
X1150000Y73145000D03*
D12*
X7300000Y62860000D03*
X11000000Y62860000D03*
D13*
X1500000Y74355000D03*
D14*
X11975000Y72330000D03*
D15*
X1275000Y63035000D03*
D14*
X11975000Y66360000D03*
%TD*%
D16*
%TO.C,C15*%
X29814219Y10984226D03*
X31714219Y10984226D03*
%TD*%
D17*
%TO.C,R30*%
X49387500Y84350000D03*
X51212500Y84350000D03*
%TD*%
D18*
%TO.C,R22*%
X54300000Y16000000D03*
X52475000Y16000000D03*
%TD*%
D19*
%TO.C,U6*%
X65450005Y79100012D03*
D20*
X67150005Y79100012D03*
X67150005Y81100012D03*
X65250005Y81100012D03*
%TD*%
D21*
%TO.C,R28*%
X73000000Y5725000D03*
X73000000Y3900000D03*
%TD*%
D18*
%TO.C,R16*%
X54200000Y31400000D03*
X52375000Y31400000D03*
%TD*%
%TO.C,R13*%
X54100000Y39000000D03*
X52275000Y39000000D03*
%TD*%
D22*
%TO.C,R11*%
X12250000Y50775000D03*
X12250000Y52600000D03*
%TD*%
D16*
%TO.C,C8*%
X23050000Y93400000D03*
X24950000Y93400000D03*
%TD*%
D23*
%TO.C,C2*%
X51774219Y44024226D03*
X51774219Y42124226D03*
%TD*%
D24*
%TO.C,C9*%
X43600000Y94800000D03*
X43600000Y96700000D03*
%TD*%
D18*
%TO.C,R19*%
X54300000Y23700000D03*
X52475000Y23700000D03*
%TD*%
D24*
%TO.C,C21*%
X87400000Y60700000D03*
X87400000Y62600000D03*
%TD*%
D25*
%TO.C,REG2*%
X60900000Y89150000D03*
D26*
X67200000Y86850000D03*
D25*
X60900000Y86850000D03*
X60900000Y84550000D03*
%TD*%
D27*
%TO.C,SERC1*%
X22450000Y68000000D03*
X22450000Y67200000D03*
X22450000Y66400000D03*
X22450000Y65600000D03*
X22450000Y64800000D03*
X22450000Y64000000D03*
X22450000Y63200000D03*
X22450000Y62400000D03*
X22450000Y61600000D03*
X22450000Y60800000D03*
X22450000Y60000000D03*
D28*
X24500000Y57950000D03*
X25300000Y57950000D03*
X26100000Y57950000D03*
X26900000Y57950000D03*
X27700000Y57950000D03*
X28500000Y57950000D03*
X29300000Y57950000D03*
X30100000Y57950000D03*
X30900000Y57950000D03*
X31700000Y57950000D03*
X32500000Y57950000D03*
D27*
X34550000Y60000000D03*
X34550000Y60800000D03*
X34550000Y61600000D03*
X34550000Y62400000D03*
X34550000Y63200000D03*
X34550000Y64000000D03*
X34550000Y64800000D03*
X34550000Y65600000D03*
X34550000Y66400000D03*
X34550000Y67200000D03*
X34550000Y68000000D03*
D28*
X32500000Y70050000D03*
X31700000Y70050000D03*
X30900000Y70050000D03*
X30100000Y70050000D03*
X29300000Y70050000D03*
X28500000Y70050000D03*
X27700000Y70050000D03*
X26900000Y70050000D03*
X26100000Y70050000D03*
X25300000Y70050000D03*
X24500000Y70050000D03*
%TD*%
D16*
%TO.C,C16*%
X7594219Y11004226D03*
X9494219Y11004226D03*
%TD*%
%TO.C,C17*%
X23050000Y90800000D03*
X24950000Y90800000D03*
%TD*%
D28*
%TO.C,PRP1*%
X99900005Y63450012D03*
X99100005Y63450012D03*
X98300005Y63450012D03*
X97500005Y63450012D03*
X96700005Y63450012D03*
X95900005Y63450012D03*
X95100005Y63450012D03*
X94300005Y63450012D03*
X93500005Y63450012D03*
X92700005Y63450012D03*
X91900005Y63450012D03*
D27*
X89850005Y61400012D03*
X89850005Y60600012D03*
X89850005Y59800012D03*
X89850005Y59000012D03*
X89850005Y58200012D03*
X89850005Y57400012D03*
X89850005Y56600012D03*
X89850005Y55800012D03*
X89850005Y55000012D03*
X89850005Y54200012D03*
X89850005Y53400012D03*
D28*
X91900005Y51350012D03*
X92700005Y51350012D03*
X93500005Y51350012D03*
X94300005Y51350012D03*
X95100005Y51350012D03*
X95900005Y51350012D03*
X96700005Y51350012D03*
X97500005Y51350012D03*
X98300005Y51350012D03*
X99100005Y51350012D03*
X99900005Y51350012D03*
D27*
X101950005Y53400012D03*
X101950005Y54200012D03*
X101950005Y55000012D03*
X101950005Y55800012D03*
X101950005Y56600012D03*
X101950005Y57400012D03*
X101950005Y58200012D03*
X101950005Y59000012D03*
X101950005Y59800012D03*
X101950005Y60600012D03*
X101950005Y61400012D03*
%TD*%
D17*
%TO.C,R2*%
X29801719Y8284226D03*
X31626719Y8284226D03*
%TD*%
D29*
%TO.C,U1*%
X90900000Y21912500D03*
X90250000Y21912500D03*
X89600000Y21912500D03*
X88950000Y21912500D03*
X88300000Y21912500D03*
X87650000Y21912500D03*
X87000000Y21912500D03*
X87000000Y16187500D03*
X87650000Y16187500D03*
X88300000Y16187500D03*
X88950000Y16187500D03*
X89600000Y16187500D03*
X90250000Y16187500D03*
X90900000Y16187500D03*
%TD*%
D30*
%TO.C,D1*%
X11590000Y84837500D03*
X11590000Y82962500D03*
%TD*%
D18*
%TO.C,R18*%
X54300000Y26300000D03*
X52475000Y26300000D03*
%TD*%
D21*
%TO.C,R6*%
X25700000Y41112500D03*
X25700000Y39287500D03*
%TD*%
D18*
%TO.C,R15*%
X54200000Y33900000D03*
X52375000Y33900000D03*
%TD*%
D23*
%TO.C,C4*%
X54574219Y44024226D03*
X54574219Y42124226D03*
%TD*%
D31*
%TO.C,U3*%
X20190000Y73025000D03*
X21460000Y73025000D03*
X22730000Y73025000D03*
X24000000Y73025000D03*
X25270000Y73025000D03*
X26540000Y73025000D03*
X27810000Y73025000D03*
X27810000Y77975000D03*
X26540000Y77975000D03*
X25270000Y77975000D03*
X24000000Y77975000D03*
X22730000Y77975000D03*
X21460000Y77975000D03*
X20190000Y77975000D03*
%TD*%
D21*
%TO.C,R27*%
X75300000Y5712500D03*
X75300000Y3887500D03*
%TD*%
D18*
%TO.C,R23*%
X54300000Y13500000D03*
X52475000Y13500000D03*
%TD*%
%TO.C,R24*%
X54300000Y10700000D03*
X52475000Y10700000D03*
%TD*%
D32*
%TO.C,USB1*%
X97825000Y73150000D03*
X98475000Y73150000D03*
X99125000Y73150000D03*
X99775000Y73150000D03*
X100425000Y73150000D03*
X101075000Y73150000D03*
X101725000Y73150000D03*
X102375000Y73150000D03*
X103025000Y73150000D03*
X103675000Y73150000D03*
X104325000Y73150000D03*
X104975000Y73150000D03*
X105625000Y73150000D03*
X106275000Y73150000D03*
X106275000Y80350000D03*
X105625000Y80350000D03*
X104975000Y80350000D03*
X104325000Y80350000D03*
X103675000Y80350000D03*
X103025000Y80350000D03*
X102375000Y80350000D03*
X101725000Y80350000D03*
X101075000Y80350000D03*
X100425000Y80350000D03*
X99775000Y80350000D03*
X99125000Y80350000D03*
X98475000Y80350000D03*
X97825000Y80350000D03*
%TD*%
D33*
%TO.C,C11*%
X62394219Y79400000D03*
X60494219Y79400000D03*
%TD*%
D18*
%TO.C,R17*%
X54300000Y28800000D03*
X52475000Y28800000D03*
%TD*%
D22*
%TO.C,R9*%
X7750000Y50787500D03*
X7750000Y52612500D03*
%TD*%
%TO.C,R10*%
X10000000Y50787500D03*
X10000000Y52612500D03*
%TD*%
D21*
%TO.C,R29*%
X14000000Y84825000D03*
X14000000Y83000000D03*
%TD*%
D24*
%TO.C,C6*%
X58244226Y87800000D03*
X58244226Y89700000D03*
%TD*%
D33*
%TO.C,C22*%
X93150000Y80700000D03*
X95050000Y80700000D03*
%TD*%
D21*
%TO.C,R25*%
X79900000Y5712500D03*
X79900000Y3887500D03*
%TD*%
D16*
%TO.C,C18*%
X49337500Y88550000D03*
X51237500Y88550000D03*
%TD*%
D34*
%TO.C,VIDEO1*%
X72787500Y83862500D03*
X72787500Y83362500D03*
X72787500Y82862500D03*
X72787500Y82362500D03*
X72787500Y81862500D03*
X72787500Y81362500D03*
X72787500Y80862500D03*
X72787500Y80362500D03*
X72787500Y79862500D03*
X72787500Y79362500D03*
X72787500Y78862500D03*
X72787500Y78362500D03*
D35*
X74200000Y76950000D03*
X74700000Y76950000D03*
X75200000Y76950000D03*
X75700000Y76950000D03*
X76200000Y76950000D03*
X76700000Y76950000D03*
X77200000Y76950000D03*
X77700000Y76950000D03*
X78200000Y76950000D03*
X78700000Y76950000D03*
X79200000Y76950000D03*
X79700000Y76950000D03*
D34*
X81112500Y78362500D03*
X81112500Y78862500D03*
X81112500Y79362500D03*
X81112500Y79862500D03*
X81112500Y80362500D03*
X81112500Y80862500D03*
X81112500Y81362500D03*
X81112500Y81862500D03*
X81112500Y82362500D03*
X81112500Y82862500D03*
X81112500Y83362500D03*
X81112500Y83862500D03*
D35*
X79700000Y85275000D03*
X79200000Y85275000D03*
X78700000Y85275000D03*
X78200000Y85275000D03*
X77700000Y85275000D03*
X77200000Y85275000D03*
X76700000Y85275000D03*
X76200000Y85275000D03*
X75700000Y85275000D03*
X75200000Y85275000D03*
X74700000Y85275000D03*
X74200000Y85275000D03*
%TD*%
D36*
%TO.C,REG1*%
X25350000Y87600000D03*
D37*
X23050000Y81300000D03*
D36*
X23050000Y87600000D03*
X20750000Y87600000D03*
%TD*%
D21*
%TO.C,R26*%
X77600000Y5712500D03*
X77600000Y3887500D03*
%TD*%
D24*
%TO.C,C7*%
X56100000Y87800000D03*
X56100000Y89700000D03*
%TD*%
D18*
%TO.C,R20*%
X54300000Y21100000D03*
X52475000Y21100000D03*
%TD*%
%TO.C,R14*%
X54112500Y36400000D03*
X52287500Y36400000D03*
%TD*%
D22*
%TO.C,R8*%
X5400000Y50787500D03*
X5400000Y52612500D03*
%TD*%
D38*
%TO.C,U2*%
X43550000Y85137500D03*
X44200000Y85137500D03*
X44850000Y85137500D03*
X45500000Y85137500D03*
X46150000Y85137500D03*
X46800000Y85137500D03*
X47450000Y85137500D03*
X47450000Y90862500D03*
X46800000Y90862500D03*
X46150000Y90862500D03*
X45500000Y90862500D03*
X44850000Y90862500D03*
X44200000Y90862500D03*
X43550000Y90862500D03*
%TD*%
D18*
%TO.C,R21*%
X54300000Y18600000D03*
X52475000Y18600000D03*
%TD*%
D21*
%TO.C,R5*%
X25700000Y37500000D03*
X25700000Y35675000D03*
%TD*%
D18*
%TO.C,R31*%
X51200000Y86450000D03*
X49375000Y86450000D03*
%TD*%
D16*
%TO.C,C10*%
X25000000Y55100000D03*
X26900000Y55100000D03*
%TD*%
%TO.C,C23*%
X71400000Y89000000D03*
X73300000Y89000000D03*
%TD*%
D39*
%TO.C,USB_P1*%
X104400000Y86950000D03*
X101900000Y86950000D03*
X99900000Y86950000D03*
X97400000Y86950000D03*
%TD*%
D23*
%TO.C,C1*%
X16900000Y84800000D03*
X16900000Y82900000D03*
%TD*%
D21*
%TO.C,R7*%
X25700000Y44712500D03*
X25700000Y42887500D03*
%TD*%
D22*
%TO.C,R12*%
X14500000Y50787500D03*
X14500000Y52612500D03*
%TD*%
D23*
%TO.C,C5*%
X58250000Y84600000D03*
X58250000Y82700000D03*
%TD*%
M02*
