%FSLAX45Y45*%
G04 Gerber Fmt 4.5, Leading zero omitted, Abs format (unit mm)*
G04 Created by KiCad (PCBNEW 6.0.4-1.fc35) date 2022-04-22 23:34:49*
%MOMM*%
%LPD*%
G01*
G04 APERTURE LIST*
%TA.AperFunction,Profile*%
%ADD10C,0.050000*%
%TD*%
%ADD11C,0.200000*%
%ADD12C,0.030000*%
%ADD13C,0.040000*%
%ADD14C,0.070000*%
%ADD15C,0.080000*%
%ADD16C,0.100000*%
%ADD17C,0.110000*%
%ADD18C,0.230000*%
%ADD19C,0.320000*%
G04 APERTURE END LIST*
D10*
X199422Y10010580D02*
X11801000Y10011001D01*
X199422Y10010578D02*
G75*
G03*
X-578Y9810580I-2J-199998D01*
G01*
X-578Y9810000D02*
X-578Y209000D01*
X3Y209423D02*
G75*
G03*
X200000Y9423I199997J-3D01*
G01*
X12001001Y9811001D02*
G75*
G03*
X11801000Y10011001I-200001J-1D01*
G01*
X12001000Y210001D02*
X12001000Y9811001D01*
X11799579Y10001D02*
X200000Y9423D01*
X500000Y9600000D02*
G75*
G03*
X500000Y9600000I-100000J0D01*
G01*
X11700000Y400000D02*
G75*
G03*
X11700000Y400000I-100000J0D01*
G01*
X11700000Y9600000D02*
G75*
G03*
X11700000Y9600000I-100000J0D01*
G01*
X11799579Y10005D02*
G75*
G03*
X12001000Y210001I11J201415D01*
G01*
X500000Y400000D02*
G75*
G03*
X500000Y400000I-100000J0D01*
G01*
D11*
D12*
X665000Y715000D02*
X695000Y685000D01*
X695000Y715000D02*
X665000Y685000D01*
X735000Y785000D02*
X765000Y755000D01*
X765000Y785000D02*
X735000Y755000D01*
X1385001Y790001D02*
X1415000Y760001D01*
X1415000Y790001D02*
X1385001Y760001D01*
X1400000Y6980000D02*
X1430000Y6950000D01*
X1430000Y6980000D02*
X1400000Y6950000D01*
X1470000Y1135001D02*
X1500000Y1105001D01*
X1500000Y1135001D02*
X1470000Y1105001D01*
X1485000Y7105000D02*
X1515000Y7075000D01*
X1515000Y7105000D02*
X1485000Y7075000D01*
X1555000Y1065501D02*
X1585000Y1035501D01*
X1585000Y1065501D02*
X1555000Y1035501D01*
X1595000Y7410000D02*
X1625000Y7380000D01*
X1625000Y7410000D02*
X1595000Y7380000D01*
X1635000Y935001D02*
X1665000Y905001D01*
X1665000Y935001D02*
X1635000Y905001D01*
X1700000Y1000001D02*
X1730000Y970001D01*
X1730000Y1000001D02*
X1700000Y970001D01*
X1740000Y6950000D02*
X1770000Y6920000D01*
X1770000Y6950000D02*
X1740000Y6920000D01*
X1840000Y7080000D02*
X1870000Y7050000D01*
X1870000Y7080000D02*
X1840000Y7050000D01*
X1945000Y462649D02*
X1975000Y432649D01*
X1975000Y462649D02*
X1945000Y432649D01*
X2105000Y5185000D02*
X2135000Y5155000D01*
X2135000Y5185000D02*
X2105000Y5155000D01*
X2210000Y7787450D02*
X2240000Y7757450D01*
X2240000Y7787450D02*
X2210000Y7757450D01*
X2240000Y6915000D02*
X2270000Y6885000D01*
X2270000Y6915000D02*
X2240000Y6885000D01*
X2310000Y6850000D02*
X2340000Y6820000D01*
X2340000Y6850000D02*
X2310000Y6820000D01*
X2330000Y7570000D02*
X2360000Y7540000D01*
X2360000Y7570000D02*
X2330000Y7540000D01*
X2380000Y6785000D02*
X2410000Y6755000D01*
X2410000Y6785000D02*
X2380000Y6755000D01*
X2455000Y7725000D02*
X2485000Y7695000D01*
X2485000Y7725000D02*
X2455000Y7695000D01*
X2455000Y6725000D02*
X2485000Y6695000D01*
X2485000Y6725000D02*
X2455000Y6695000D01*
X2455001Y850001D02*
X2485001Y820001D01*
X2485001Y850001D02*
X2455001Y820001D01*
X2510001Y710001D02*
X2540001Y680001D01*
X2540001Y710001D02*
X2510001Y680001D01*
X2580000Y7650000D02*
X2610000Y7620000D01*
X2610000Y7650000D02*
X2580000Y7620000D01*
X2585000Y6674551D02*
X2615000Y6644551D01*
X2615000Y6674551D02*
X2585000Y6644551D01*
X2655001Y582550D02*
X2685001Y552550D01*
X2685001Y582550D02*
X2655001Y552550D01*
X2710000Y6615000D02*
X2740000Y6585000D01*
X2740000Y6615000D02*
X2710000Y6585000D01*
X2740001Y652551D02*
X2770001Y622551D01*
X2770001Y652551D02*
X2740001Y622551D01*
X2835000Y6550000D02*
X2865000Y6520000D01*
X2865000Y6550000D02*
X2835000Y6520000D01*
X2910000Y7170000D02*
X2940000Y7140000D01*
X2940000Y7170000D02*
X2910000Y7140000D01*
X2935000Y6470000D02*
X2965000Y6440000D01*
X2965000Y6470000D02*
X2935000Y6440000D01*
X2965000Y7570000D02*
X2995000Y7540000D01*
X2995000Y7570000D02*
X2965000Y7540000D01*
X3120000Y6155000D02*
X3150000Y6125000D01*
X3150000Y6155000D02*
X3120000Y6125000D01*
X3305000Y5055000D02*
X3335000Y5025000D01*
X3335000Y5055000D02*
X3305000Y5025000D01*
X3315000Y7210000D02*
X3345000Y7180000D01*
X3345000Y7210000D02*
X3315000Y7180000D01*
X3512472Y6427423D02*
X3542472Y6397423D01*
X3542472Y6427423D02*
X3512472Y6397423D01*
X3575000Y5185000D02*
X3605000Y5155000D01*
X3605000Y5185000D02*
X3575000Y5155000D01*
X3715000Y6727001D02*
X3745000Y6697001D01*
X3745000Y6727001D02*
X3715000Y6697001D01*
X3735000Y775001D02*
X3765000Y745001D01*
X3765000Y775001D02*
X3735000Y745001D01*
X3785000Y6675002D02*
X3815000Y6645002D01*
X3815000Y6675002D02*
X3785000Y6645002D01*
X3800000Y1130001D02*
X3830000Y1100001D01*
X3830000Y1130001D02*
X3800000Y1100001D01*
X3845000Y6615001D02*
X3875000Y6585001D01*
X3875000Y6615001D02*
X3845000Y6585001D01*
X3885000Y1060501D02*
X3915000Y1030501D01*
X3915000Y1060501D02*
X3885000Y1030501D01*
X3905000Y6555001D02*
X3935000Y6525001D01*
X3935000Y6555001D02*
X3905000Y6525001D01*
X3965000Y6495001D02*
X3995000Y6465001D01*
X3995000Y6495001D02*
X3965000Y6465001D01*
X3965000Y930001D02*
X3995000Y900001D01*
X3995000Y930001D02*
X3965000Y900001D01*
X4015000Y6915001D02*
X4045000Y6885001D01*
X4045000Y6915001D02*
X4015000Y6885001D01*
X4030000Y995001D02*
X4060000Y965001D01*
X4060000Y995001D02*
X4030000Y965001D01*
X4085000Y6855001D02*
X4115000Y6825001D01*
X4115000Y6855001D02*
X4085000Y6825001D01*
X4155000Y9305000D02*
X4185000Y9275000D01*
X4185000Y9305000D02*
X4155000Y9275000D01*
X4155000Y6785001D02*
X4185000Y6755001D01*
X4185000Y6785001D02*
X4155000Y6755001D01*
X4445000Y8335000D02*
X4475000Y8305000D01*
X4475000Y8335000D02*
X4445000Y8305000D01*
X4465000Y8855000D02*
X4495000Y8825000D01*
X4495000Y8855000D02*
X4465000Y8825000D01*
X4685001Y6325001D02*
X4715001Y6295001D01*
X4715001Y6325001D02*
X4685001Y6295001D01*
X4695001Y850001D02*
X4725001Y820001D01*
X4725001Y850001D02*
X4695001Y820001D01*
X4735000Y9305000D02*
X4765000Y9275000D01*
X4765000Y9305000D02*
X4735000Y9275000D01*
X4750001Y710001D02*
X4780001Y680001D01*
X4780001Y710001D02*
X4750001Y680001D01*
X4785001Y6265001D02*
X4815001Y6235001D01*
X4815001Y6265001D02*
X4785001Y6235001D01*
X4855000Y9095000D02*
X4885000Y9065000D01*
X4885000Y9095000D02*
X4855000Y9065000D01*
X5037422Y5267423D02*
X5067422Y5237423D01*
X5067422Y5267423D02*
X5037422Y5237423D01*
X5425001Y6155001D02*
X5455001Y6125001D01*
X5455001Y6155001D02*
X5425001Y6125001D01*
X6725000Y6425001D02*
X6755000Y6395001D01*
X6755000Y6425001D02*
X6725000Y6395001D01*
X6905000Y8105000D02*
X6935000Y8075000D01*
X6935000Y8105000D02*
X6905000Y8075000D01*
X7000000Y2135001D02*
X7030000Y2105001D01*
X7030000Y2135001D02*
X7000000Y2105001D01*
X7000000Y1130001D02*
X7030000Y1100001D01*
X7030000Y1130001D02*
X7000000Y1100001D01*
X7017422Y5437423D02*
X7047422Y5407423D01*
X7047422Y5437423D02*
X7017422Y5407423D01*
X7028422Y6987423D02*
X7058422Y6957423D01*
X7058422Y6987423D02*
X7028422Y6957423D01*
X7139500Y1879501D02*
X7169500Y1849501D01*
X7169500Y1879501D02*
X7139500Y1849501D01*
X7139500Y1060501D02*
X7169500Y1030501D01*
X7169500Y1060501D02*
X7139500Y1030501D01*
X7145000Y6195001D02*
X7175000Y6165001D01*
X7175000Y6195001D02*
X7145000Y6165001D01*
X7255000Y6495001D02*
X7285000Y6465001D01*
X7285000Y6495001D02*
X7255000Y6465001D01*
X7269500Y1625501D02*
X7299500Y1595501D01*
X7299500Y1625501D02*
X7269500Y1595501D01*
X7270000Y995001D02*
X7300000Y965001D01*
X7300000Y995001D02*
X7270000Y965001D01*
X7355000Y6555001D02*
X7385000Y6525001D01*
X7385000Y6555001D02*
X7355000Y6525001D01*
X7385000Y1370001D02*
X7415000Y1340001D01*
X7415000Y1370001D02*
X7385000Y1340001D01*
X7385000Y930001D02*
X7415000Y900001D01*
X7415000Y930001D02*
X7385000Y900001D01*
X7455000Y6615001D02*
X7485000Y6585001D01*
X7485000Y6615001D02*
X7455000Y6585001D01*
X7485000Y8145000D02*
X7515000Y8115000D01*
X7515000Y8145000D02*
X7485000Y8115000D01*
X7545000Y975000D02*
X7575000Y945000D01*
X7575000Y975000D02*
X7545000Y945000D01*
X7555000Y6675001D02*
X7585000Y6645001D01*
X7585000Y6675001D02*
X7555000Y6645001D01*
X7635000Y6725001D02*
X7665000Y6695001D01*
X7665000Y6725001D02*
X7635000Y6695001D01*
X7665000Y855001D02*
X7695000Y825001D01*
X7695000Y855001D02*
X7665000Y825001D01*
X7735000Y6785001D02*
X7765000Y6755001D01*
X7765000Y6785001D02*
X7735000Y6755001D01*
X7745000Y7905000D02*
X7775000Y7875000D01*
X7775000Y7905000D02*
X7745000Y7875000D01*
X7750000Y785001D02*
X7780000Y755001D01*
X7780000Y785001D02*
X7750000Y755001D01*
X7755000Y8915000D02*
X7785000Y8885000D01*
X7785000Y8915000D02*
X7755000Y8885000D01*
X7804950Y8135000D02*
X7834950Y8105000D01*
X7834950Y8135000D02*
X7804950Y8105000D01*
X7825000Y6855001D02*
X7855000Y6825001D01*
X7855000Y6855001D02*
X7825000Y6825001D01*
X7835000Y7985000D02*
X7865000Y7955000D01*
X7865000Y7985000D02*
X7835000Y7955000D01*
X7895000Y7415000D02*
X7925000Y7385000D01*
X7925000Y7415000D02*
X7895000Y7385000D01*
X7905000Y6915001D02*
X7935000Y6885001D01*
X7935000Y6915001D02*
X7905000Y6885001D01*
X7955000Y7555000D02*
X7985000Y7525000D01*
X7985000Y7555000D02*
X7955000Y7525000D01*
X7975000Y715000D02*
X8005000Y685000D01*
X8005000Y715000D02*
X7975000Y685000D01*
X7985000Y5945001D02*
X8015000Y5915001D01*
X8015000Y5945001D02*
X7985000Y5915001D01*
X8405000Y8635000D02*
X8435000Y8605000D01*
X8435000Y8635000D02*
X8405000Y8605000D01*
X8560001Y1915001D02*
X8590001Y1885001D01*
X8590001Y1915001D02*
X8560001Y1885001D01*
X8565001Y6325001D02*
X8595001Y6295001D01*
X8595001Y6325001D02*
X8565001Y6295001D01*
X8695001Y2545001D02*
X8725001Y2515001D01*
X8725001Y2545001D02*
X8695001Y2515001D01*
X8737422Y5675001D02*
X8767422Y5645001D01*
X8767422Y5675001D02*
X8737422Y5645001D01*
X8795001Y1615001D02*
X8825001Y1585001D01*
X8825001Y1615001D02*
X8795001Y1585001D01*
X8800001Y2450001D02*
X8830001Y2420001D01*
X8830001Y2450001D02*
X8800001Y2420001D01*
X8815001Y5755001D02*
X8845001Y5725001D01*
X8845001Y5755001D02*
X8815001Y5725001D01*
X8815001Y5435001D02*
X8845001Y5405001D01*
X8845001Y5435001D02*
X8815001Y5405001D01*
X8825000Y2175000D02*
X8855000Y2145000D01*
X8855000Y2175000D02*
X8825000Y2145000D01*
X8830000Y460000D02*
X8860000Y430000D01*
X8860000Y460000D02*
X8830000Y430000D01*
X8970000Y6475000D02*
X9000000Y6445000D01*
X9000000Y6475000D02*
X8970000Y6445000D01*
X8970001Y2640001D02*
X9000001Y2610001D01*
X9000001Y2640001D02*
X8970001Y2610001D01*
X9005000Y650000D02*
X9035000Y620000D01*
X9035000Y650000D02*
X9005000Y620000D01*
X9025000Y2075000D02*
X9055000Y2045000D01*
X9055000Y2075000D02*
X9025000Y2045000D01*
X9025001Y1705001D02*
X9055001Y1675001D01*
X9055001Y1705001D02*
X9025001Y1675001D01*
X9050001Y2450001D02*
X9080001Y2420001D01*
X9080001Y2450001D02*
X9050001Y2420001D01*
X9085001Y2595001D02*
X9115001Y2565001D01*
X9115001Y2595001D02*
X9085001Y2565001D01*
X9105000Y1615000D02*
X9135000Y1585000D01*
X9135000Y1615000D02*
X9105000Y1585000D01*
X9170001Y2900001D02*
X9200001Y2870001D01*
X9200001Y2900001D02*
X9170001Y2870001D01*
X9175000Y6535000D02*
X9205000Y6505000D01*
X9205000Y6535000D02*
X9175000Y6505000D01*
X9175000Y1705000D02*
X9205000Y1675000D01*
X9205000Y1705000D02*
X9175000Y1675000D01*
X9255000Y6595000D02*
X9285000Y6565000D01*
X9285000Y6595000D02*
X9255000Y6565000D01*
X9255001Y3150001D02*
X9285001Y3120001D01*
X9285001Y3150001D02*
X9255001Y3120001D01*
X9310001Y2255001D02*
X9340001Y2225001D01*
X9340001Y2255001D02*
X9310001Y2225001D01*
X9335000Y6650000D02*
X9365000Y6620000D01*
X9365000Y6650000D02*
X9335000Y6620000D01*
X9335001Y3405001D02*
X9365001Y3375001D01*
X9365001Y3405001D02*
X9335001Y3375001D01*
X9355000Y525000D02*
X9385000Y495000D01*
X9385000Y525000D02*
X9355000Y495000D01*
X9415000Y6712450D02*
X9445000Y6682450D01*
X9445000Y6712450D02*
X9415000Y6682450D01*
X9415001Y3660001D02*
X9445001Y3630001D01*
X9445001Y3660001D02*
X9415001Y3630001D01*
X9455000Y595000D02*
X9485000Y565000D01*
X9485000Y595000D02*
X9455000Y565000D01*
X9495000Y6775000D02*
X9525000Y6745000D01*
X9525000Y6775000D02*
X9495000Y6745000D01*
X9575000Y6855000D02*
X9605000Y6825000D01*
X9605000Y6855000D02*
X9575000Y6825000D01*
X9575001Y3910001D02*
X9605001Y3880001D01*
X9605001Y3910001D02*
X9575001Y3880001D01*
X9655001Y4165001D02*
X9685001Y4135001D01*
X9685001Y4165001D02*
X9655001Y4135001D01*
X9735000Y6915000D02*
X9765000Y6885000D01*
X9765000Y6915000D02*
X9735000Y6885000D01*
X9735001Y4420001D02*
X9765001Y4390001D01*
X9765001Y4420001D02*
X9735001Y4390001D01*
X9815001Y6075001D02*
X9845001Y6045001D01*
X9845001Y6075001D02*
X9815001Y6045001D01*
X9830000Y6655000D02*
X9860000Y6625000D01*
X9860000Y6655000D02*
X9830000Y6625000D01*
X9890000Y6780000D02*
X9920000Y6750000D01*
X9920000Y6780000D02*
X9890000Y6750000D01*
X9975001Y3785001D02*
X10005001Y3755001D01*
X10005001Y3785001D02*
X9975001Y3755001D01*
X9990001Y2590001D02*
X10020001Y2560001D01*
X10020001Y2590001D02*
X9990001Y2560001D01*
X10030000Y6857550D02*
X10060000Y6827550D01*
X10060000Y6857550D02*
X10030000Y6827550D01*
X10034922Y8468413D02*
X10064922Y8438413D01*
X10064922Y8468413D02*
X10034922Y8438413D01*
X10095000Y7825000D02*
X10125000Y7795000D01*
X10125000Y7825000D02*
X10095000Y7795000D01*
X10105000Y6475000D02*
X10135000Y6445000D01*
X10135000Y6475000D02*
X10105000Y6445000D01*
X10119922Y8468413D02*
X10149922Y8438413D01*
X10149922Y8468413D02*
X10119922Y8438413D01*
X10155000Y7715000D02*
X10185000Y7685000D01*
X10185000Y7715000D02*
X10155000Y7685000D01*
X10175000Y4045000D02*
X10205000Y4015000D01*
X10205000Y4045000D02*
X10175000Y4015000D01*
X10192500Y1042500D02*
X10222500Y1012500D01*
X10222500Y1042500D02*
X10192500Y1012500D01*
X10235000Y6595000D02*
X10265000Y6565000D01*
X10265000Y6595000D02*
X10235000Y6565000D01*
X10285000Y4285000D02*
X10315000Y4255000D01*
X10315000Y4285000D02*
X10285000Y4255000D01*
X10305000Y7845000D02*
X10335000Y7815000D01*
X10335000Y7845000D02*
X10305000Y7815000D01*
X10312982Y6529563D02*
X10342982Y6499563D01*
X10342982Y6529563D02*
X10312982Y6499563D01*
X10375000Y4545001D02*
X10405000Y4515001D01*
X10405000Y4545001D02*
X10375000Y4515001D01*
X10415000Y6695000D02*
X10445000Y6665000D01*
X10445000Y6695000D02*
X10415000Y6665000D01*
X10530000Y1940000D02*
X10560000Y1910000D01*
X10560000Y1940000D02*
X10530000Y1910000D01*
X10530000Y1580000D02*
X10560000Y1550000D01*
X10560000Y1580000D02*
X10530000Y1550000D01*
X10545000Y8437500D02*
X10575000Y8407500D01*
X10575000Y8437500D02*
X10545000Y8407500D01*
X10590000Y1660000D02*
X10620000Y1630000D01*
X10620000Y1660000D02*
X10590000Y1630000D01*
X10615000Y8352500D02*
X10645000Y8322500D01*
X10645000Y8352500D02*
X10615000Y8322500D01*
X11265050Y7175000D02*
X11295050Y7145000D01*
X11295050Y7175000D02*
X11265050Y7145000D01*
X11325050Y7265000D02*
X11355050Y7235000D01*
X11355050Y7265000D02*
X11325050Y7235000D01*
X11505000Y7175000D02*
X11535000Y7145000D01*
X11535000Y7175000D02*
X11505000Y7145000D01*
D13*
X1020000Y5990000D02*
G75*
G03*
X1020000Y5990000I-20000J0D01*
G01*
X1525000Y6825000D02*
G75*
G03*
X1525000Y6825000I-20000J0D01*
G01*
X2710000Y9020000D02*
G75*
G03*
X2710000Y9020000I-20000J0D01*
G01*
X2710000Y8910000D02*
G75*
G03*
X2710000Y8910000I-20000J0D01*
G01*
X3040000Y8960000D02*
G75*
G03*
X3040000Y8960000I-20000J0D01*
G01*
X3040000Y8850000D02*
G75*
G03*
X3040000Y8850000I-20000J0D01*
G01*
X3540000Y9340000D02*
G75*
G03*
X3540000Y9340000I-20000J0D01*
G01*
X3600000Y9670000D02*
G75*
G03*
X3600000Y9670000I-20000J0D01*
G01*
X3650000Y9340000D02*
G75*
G03*
X3650000Y9340000I-20000J0D01*
G01*
X3710000Y9670000D02*
G75*
G03*
X3710000Y9670000I-20000J0D01*
G01*
X5005000Y8130000D02*
G75*
G03*
X5005000Y8130000I-20000J0D01*
G01*
X5435000Y8130000D02*
G75*
G03*
X5435000Y8130000I-20000J0D01*
G01*
X8440000Y8380000D02*
G75*
G03*
X8440000Y8380000I-20000J0D01*
G01*
X8760001Y5900001D02*
G75*
G03*
X8760001Y5900001I-20000J0D01*
G01*
X9470000Y8250000D02*
G75*
G03*
X9470000Y8250000I-20000J0D01*
G01*
X9710000Y5640000D02*
G75*
G03*
X9710000Y5640000I-20000J0D01*
G01*
X10000000Y7520000D02*
G75*
G03*
X10000000Y7520000I-20000J0D01*
G01*
X10000000Y5740000D02*
G75*
G03*
X10000000Y5740000I-20000J0D01*
G01*
X10000000Y530000D02*
G75*
G03*
X10000000Y530000I-20000J0D01*
G01*
X10920000Y1120000D02*
G75*
G03*
X10920000Y1120000I-20000J0D01*
G01*
X10920000Y1010000D02*
G75*
G03*
X10920000Y1010000I-20000J0D01*
G01*
X10920000Y900000D02*
G75*
G03*
X10920000Y900000I-20000J0D01*
G01*
X10970000Y4900000D02*
G75*
G03*
X10970000Y4900000I-20000J0D01*
G01*
X11140000Y4900000D02*
G75*
G03*
X11140000Y4900000I-20000J0D01*
G01*
X11440000Y1120000D02*
G75*
G03*
X11440000Y1120000I-20000J0D01*
G01*
X11440000Y1010000D02*
G75*
G03*
X11440000Y1010000I-20000J0D01*
G01*
X11440000Y900000D02*
G75*
G03*
X11440000Y900000I-20000J0D01*
G01*
D14*
X2009000Y6025000D02*
X2009000Y5955000D01*
X1974000Y5990000D02*
X2044000Y5990000D01*
X2771000Y6025000D02*
X2771000Y5955000D01*
X2736000Y5990000D02*
X2806000Y5990000D01*
D15*
X778284Y8381715D02*
X778284Y8438285D01*
X721715Y8438285D01*
X721715Y8381715D01*
X778284Y8381715D01*
X778284Y8131715D02*
X778284Y8188284D01*
X721715Y8188284D01*
X721715Y8131715D01*
X778284Y8131715D01*
X794285Y4703717D02*
X794285Y4760286D01*
X737716Y4760286D01*
X737716Y4703717D01*
X794285Y4703717D01*
X794285Y4449717D02*
X794285Y4506286D01*
X737716Y4506286D01*
X737716Y4449717D01*
X794285Y4449717D01*
X794285Y4195717D02*
X794285Y4252286D01*
X737716Y4252286D01*
X737716Y4195717D01*
X794285Y4195717D01*
X794285Y3941717D02*
X794285Y3998286D01*
X737716Y3998286D01*
X737716Y3941717D01*
X794285Y3941717D01*
X794285Y3687717D02*
X794285Y3744286D01*
X737716Y3744286D01*
X737716Y3687717D01*
X794285Y3687717D01*
X794285Y3433717D02*
X794285Y3490286D01*
X737716Y3490286D01*
X737716Y3433717D01*
X794285Y3433717D01*
X794285Y3179717D02*
X794285Y3236286D01*
X737716Y3236286D01*
X737716Y3179717D01*
X794285Y3179717D01*
X794285Y2925717D02*
X794285Y2982286D01*
X737716Y2982286D01*
X737716Y2925717D01*
X794285Y2925717D01*
X794285Y2671717D02*
X794285Y2728286D01*
X737716Y2728286D01*
X737716Y2671717D01*
X794285Y2671717D01*
X794285Y2417717D02*
X794285Y2474286D01*
X737716Y2474286D01*
X737716Y2417717D01*
X794285Y2417717D01*
X794285Y2163717D02*
X794285Y2220286D01*
X737716Y2220286D01*
X737716Y2163717D01*
X794285Y2163717D01*
X794285Y1909717D02*
X794285Y1966286D01*
X737716Y1966286D01*
X737716Y1909717D01*
X794285Y1909717D01*
X794285Y1655717D02*
X794285Y1712286D01*
X737716Y1712286D01*
X737716Y1655717D01*
X794285Y1655717D01*
X794285Y1401717D02*
X794285Y1458286D01*
X737716Y1458286D01*
X737716Y1401717D01*
X794285Y1401717D01*
X2313285Y5551716D02*
X2313285Y5608284D01*
X2256716Y5608284D01*
X2256716Y5551716D01*
X2313285Y5551716D01*
X2318285Y4703717D02*
X2318285Y4760286D01*
X2261716Y4760286D01*
X2261716Y4703717D01*
X2318285Y4703717D01*
X2318285Y4449717D02*
X2318285Y4506286D01*
X2261716Y4506286D01*
X2261716Y4449717D01*
X2318285Y4449717D01*
X2318285Y4195717D02*
X2318285Y4252286D01*
X2261716Y4252286D01*
X2261716Y4195717D01*
X2318285Y4195717D01*
X2318285Y3941717D02*
X2318285Y3998286D01*
X2261716Y3998286D01*
X2261716Y3941717D01*
X2318285Y3941717D01*
X2318285Y3687717D02*
X2318285Y3744286D01*
X2261716Y3744286D01*
X2261716Y3687717D01*
X2318285Y3687717D01*
X2318285Y3433717D02*
X2318285Y3490286D01*
X2261716Y3490286D01*
X2261716Y3433717D01*
X2318285Y3433717D01*
X2318285Y3179717D02*
X2318285Y3236286D01*
X2261716Y3236286D01*
X2261716Y3179717D01*
X2318285Y3179717D01*
X2318285Y2925717D02*
X2318285Y2982286D01*
X2261716Y2982286D01*
X2261716Y2925717D01*
X2318285Y2925717D01*
X2318285Y2671717D02*
X2318285Y2728286D01*
X2261716Y2728286D01*
X2261716Y2671717D01*
X2318285Y2671717D01*
X2318285Y2417717D02*
X2318285Y2474286D01*
X2261716Y2474286D01*
X2261716Y2417717D01*
X2318285Y2417717D01*
X2318285Y2163717D02*
X2318285Y2220286D01*
X2261716Y2220286D01*
X2261716Y2163717D01*
X2318285Y2163717D01*
X2318285Y1909717D02*
X2318285Y1966286D01*
X2261716Y1966286D01*
X2261716Y1909717D01*
X2318285Y1909717D01*
X2318285Y1655717D02*
X2318285Y1712286D01*
X2261716Y1712286D01*
X2261716Y1655717D01*
X2318285Y1655717D01*
X2318285Y1401717D02*
X2318285Y1458286D01*
X2261716Y1458286D01*
X2261716Y1401717D01*
X2318285Y1401717D01*
X2801284Y5551716D02*
X2801284Y5608284D01*
X2744716Y5608284D01*
X2744716Y5551716D01*
X2801284Y5551716D01*
X3006785Y4701217D02*
X3006785Y4757786D01*
X2950216Y4757786D01*
X2950216Y4701217D01*
X3006785Y4701217D01*
X3006785Y4447217D02*
X3006785Y4503786D01*
X2950216Y4503786D01*
X2950216Y4447217D01*
X3006785Y4447217D01*
X3006785Y4193217D02*
X3006785Y4249786D01*
X2950216Y4249786D01*
X2950216Y4193217D01*
X3006785Y4193217D01*
X3006785Y3939217D02*
X3006785Y3995786D01*
X2950216Y3995786D01*
X2950216Y3939217D01*
X3006785Y3939217D01*
X3006785Y3685217D02*
X3006785Y3741786D01*
X2950216Y3741786D01*
X2950216Y3685217D01*
X3006785Y3685217D01*
X3006785Y3431217D02*
X3006785Y3487786D01*
X2950216Y3487786D01*
X2950216Y3431217D01*
X3006785Y3431217D01*
X3006785Y3177217D02*
X3006785Y3233786D01*
X2950216Y3233786D01*
X2950216Y3177217D01*
X3006785Y3177217D01*
X3006785Y2923217D02*
X3006785Y2979786D01*
X2950216Y2979786D01*
X2950216Y2923217D01*
X3006785Y2923217D01*
X3006785Y2669217D02*
X3006785Y2725786D01*
X2950216Y2725786D01*
X2950216Y2669217D01*
X3006785Y2669217D01*
X3006785Y2415217D02*
X3006785Y2471786D01*
X2950216Y2471786D01*
X2950216Y2415217D01*
X3006785Y2415217D01*
X3006785Y2161217D02*
X3006785Y2217786D01*
X2950216Y2217786D01*
X2950216Y2161217D01*
X3006785Y2161217D01*
X3006785Y1907217D02*
X3006785Y1963786D01*
X2950216Y1963786D01*
X2950216Y1907217D01*
X3006785Y1907217D01*
X3006785Y1653217D02*
X3006785Y1709786D01*
X2950216Y1709786D01*
X2950216Y1653217D01*
X3006785Y1653217D01*
X3006785Y1399217D02*
X3006785Y1455786D01*
X2950216Y1455786D01*
X2950216Y1399217D01*
X3006785Y1399217D01*
X3197284Y9152716D02*
X3197284Y9209285D01*
X3140715Y9209285D01*
X3140715Y9152716D01*
X3197284Y9152716D01*
X3197284Y8390716D02*
X3197284Y8447285D01*
X3140715Y8447285D01*
X3140715Y8390716D01*
X3197284Y8390716D01*
X3959284Y9152716D02*
X3959284Y9209285D01*
X3902715Y9209285D01*
X3902715Y9152716D01*
X3959284Y9152716D01*
X3959284Y8390716D02*
X3959284Y8447285D01*
X3902715Y8447285D01*
X3902715Y8390716D01*
X3959284Y8390716D01*
X4078284Y7621715D02*
X4078284Y7678284D01*
X4021715Y7678284D01*
X4021715Y7621715D01*
X4078284Y7621715D01*
X4078284Y7421715D02*
X4078284Y7478284D01*
X4021715Y7478284D01*
X4021715Y7421715D01*
X4078284Y7421715D01*
X4278285Y7621715D02*
X4278285Y7678284D01*
X4221716Y7678284D01*
X4221716Y7621715D01*
X4278285Y7621715D01*
X4278285Y7421715D02*
X4278285Y7478284D01*
X4221716Y7478284D01*
X4221716Y7421715D01*
X4278285Y7421715D01*
X4478285Y7621715D02*
X4478285Y7678284D01*
X4421716Y7678284D01*
X4421716Y7621715D01*
X4478285Y7621715D01*
X4478285Y7421715D02*
X4478285Y7478284D01*
X4421716Y7478284D01*
X4421716Y7421715D01*
X4478285Y7421715D01*
X4530785Y4701217D02*
X4530785Y4757786D01*
X4474216Y4757786D01*
X4474216Y4701217D01*
X4530785Y4701217D01*
X4530785Y4447217D02*
X4530785Y4503786D01*
X4474216Y4503786D01*
X4474216Y4447217D01*
X4530785Y4447217D01*
X4530785Y4193217D02*
X4530785Y4249786D01*
X4474216Y4249786D01*
X4474216Y4193217D01*
X4530785Y4193217D01*
X4530785Y3939217D02*
X4530785Y3995786D01*
X4474216Y3995786D01*
X4474216Y3939217D01*
X4530785Y3939217D01*
X4530785Y3685217D02*
X4530785Y3741786D01*
X4474216Y3741786D01*
X4474216Y3685217D01*
X4530785Y3685217D01*
X4530785Y3431217D02*
X4530785Y3487786D01*
X4474216Y3487786D01*
X4474216Y3431217D01*
X4530785Y3431217D01*
X4530785Y3177217D02*
X4530785Y3233786D01*
X4474216Y3233786D01*
X4474216Y3177217D01*
X4530785Y3177217D01*
X4530785Y2923217D02*
X4530785Y2979786D01*
X4474216Y2979786D01*
X4474216Y2923217D01*
X4530785Y2923217D01*
X4530785Y2669217D02*
X4530785Y2725786D01*
X4474216Y2725786D01*
X4474216Y2669217D01*
X4530785Y2669217D01*
X4530785Y2415217D02*
X4530785Y2471786D01*
X4474216Y2471786D01*
X4474216Y2415217D01*
X4530785Y2415217D01*
X4530785Y2161217D02*
X4530785Y2217786D01*
X4474216Y2217786D01*
X4474216Y2161217D01*
X4530785Y2161217D01*
X4530785Y1907217D02*
X4530785Y1963786D01*
X4474216Y1963786D01*
X4474216Y1907217D01*
X4530785Y1907217D01*
X4530785Y1653217D02*
X4530785Y1709786D01*
X4474216Y1709786D01*
X4474216Y1653217D01*
X4530785Y1653217D01*
X4530785Y1399217D02*
X4530785Y1455786D01*
X4474216Y1455786D01*
X4474216Y1399217D01*
X4530785Y1399217D01*
X5778285Y6154217D02*
X5778285Y6210786D01*
X5721716Y6210786D01*
X5721716Y6154217D01*
X5778285Y6154217D01*
X5778285Y5900217D02*
X5778285Y5956786D01*
X5721716Y5956786D01*
X5721716Y5900217D01*
X5778285Y5900217D01*
X5778285Y5646217D02*
X5778285Y5702786D01*
X5721716Y5702786D01*
X5721716Y5646217D01*
X5778285Y5646217D01*
X5778285Y5392217D02*
X5778285Y5448786D01*
X5721716Y5448786D01*
X5721716Y5392217D01*
X5778285Y5392217D01*
X5778285Y5138217D02*
X5778285Y5194786D01*
X5721716Y5194786D01*
X5721716Y5138217D01*
X5778285Y5138217D01*
X5778285Y4884217D02*
X5778285Y4940786D01*
X5721716Y4940786D01*
X5721716Y4884217D01*
X5778285Y4884217D01*
X5778285Y4630217D02*
X5778285Y4686786D01*
X5721716Y4686786D01*
X5721716Y4630217D01*
X5778285Y4630217D01*
X5778285Y4376217D02*
X5778285Y4432786D01*
X5721716Y4432786D01*
X5721716Y4376217D01*
X5778285Y4376217D01*
X5778285Y4122217D02*
X5778285Y4178786D01*
X5721716Y4178786D01*
X5721716Y4122217D01*
X5778285Y4122217D01*
X5778285Y3868217D02*
X5778285Y3924786D01*
X5721716Y3924786D01*
X5721716Y3868217D01*
X5778285Y3868217D01*
X5778285Y3614217D02*
X5778285Y3670786D01*
X5721716Y3670786D01*
X5721716Y3614217D01*
X5778285Y3614217D01*
X5778285Y3360217D02*
X5778285Y3416786D01*
X5721716Y3416786D01*
X5721716Y3360217D01*
X5778285Y3360217D01*
X5778285Y3106217D02*
X5778285Y3162786D01*
X5721716Y3162786D01*
X5721716Y3106217D01*
X5778285Y3106217D01*
X5778285Y2852217D02*
X5778285Y2908786D01*
X5721716Y2908786D01*
X5721716Y2852217D01*
X5778285Y2852217D01*
X5778285Y2598217D02*
X5778285Y2654786D01*
X5721716Y2654786D01*
X5721716Y2598217D01*
X5778285Y2598217D01*
X5778285Y2344217D02*
X5778285Y2400786D01*
X5721716Y2400786D01*
X5721716Y2344217D01*
X5778285Y2344217D01*
X5778285Y2090217D02*
X5778285Y2146786D01*
X5721716Y2146786D01*
X5721716Y2090217D01*
X5778285Y2090217D01*
X5778285Y1836217D02*
X5778285Y1892786D01*
X5721716Y1892786D01*
X5721716Y1836217D01*
X5778285Y1836217D01*
X5778285Y1582217D02*
X5778285Y1638786D01*
X5721716Y1638786D01*
X5721716Y1582217D01*
X5778285Y1582217D01*
X5778285Y1328217D02*
X5778285Y1384786D01*
X5721716Y1384786D01*
X5721716Y1328217D01*
X5778285Y1328217D01*
X8318285Y6154217D02*
X8318285Y6210786D01*
X8261716Y6210786D01*
X8261716Y6154217D01*
X8318285Y6154217D01*
X8318285Y5900217D02*
X8318285Y5956786D01*
X8261716Y5956786D01*
X8261716Y5900217D01*
X8318285Y5900217D01*
X8318285Y5646217D02*
X8318285Y5702786D01*
X8261716Y5702786D01*
X8261716Y5646217D01*
X8318285Y5646217D01*
X8318285Y5392217D02*
X8318285Y5448786D01*
X8261716Y5448786D01*
X8261716Y5392217D01*
X8318285Y5392217D01*
X8318285Y5138217D02*
X8318285Y5194786D01*
X8261716Y5194786D01*
X8261716Y5138217D01*
X8318285Y5138217D01*
X8318285Y4884217D02*
X8318285Y4940786D01*
X8261716Y4940786D01*
X8261716Y4884217D01*
X8318285Y4884217D01*
X8318285Y4630217D02*
X8318285Y4686786D01*
X8261716Y4686786D01*
X8261716Y4630217D01*
X8318285Y4630217D01*
X8318285Y4376217D02*
X8318285Y4432786D01*
X8261716Y4432786D01*
X8261716Y4376217D01*
X8318285Y4376217D01*
X8318285Y4122217D02*
X8318285Y4178786D01*
X8261716Y4178786D01*
X8261716Y4122217D01*
X8318285Y4122217D01*
X8318285Y3868217D02*
X8318285Y3924786D01*
X8261716Y3924786D01*
X8261716Y3868217D01*
X8318285Y3868217D01*
X8318285Y3614217D02*
X8318285Y3670786D01*
X8261716Y3670786D01*
X8261716Y3614217D01*
X8318285Y3614217D01*
X8318285Y3360217D02*
X8318285Y3416786D01*
X8261716Y3416786D01*
X8261716Y3360217D01*
X8318285Y3360217D01*
X8318285Y3106217D02*
X8318285Y3162786D01*
X8261716Y3162786D01*
X8261716Y3106217D01*
X8318285Y3106217D01*
X8318285Y2852217D02*
X8318285Y2908786D01*
X8261716Y2908786D01*
X8261716Y2852217D01*
X8318285Y2852217D01*
X8318285Y2598217D02*
X8318285Y2654786D01*
X8261716Y2654786D01*
X8261716Y2598217D01*
X8318285Y2598217D01*
X8318285Y2344217D02*
X8318285Y2400786D01*
X8261716Y2400786D01*
X8261716Y2344217D01*
X8318285Y2344217D01*
X8318285Y2090217D02*
X8318285Y2146786D01*
X8261716Y2146786D01*
X8261716Y2090217D01*
X8318285Y2090217D01*
X8318285Y1836217D02*
X8318285Y1892786D01*
X8261716Y1892786D01*
X8261716Y1836217D01*
X8318285Y1836217D01*
X8318285Y1582217D02*
X8318285Y1638786D01*
X8261716Y1638786D01*
X8261716Y1582217D01*
X8318285Y1582217D01*
X8318285Y1328217D02*
X8318285Y1384786D01*
X8261716Y1384786D01*
X8261716Y1328217D01*
X8318285Y1328217D01*
X8668285Y8601716D02*
X8668285Y8658285D01*
X8611716Y8658285D01*
X8611716Y8601716D01*
X8668285Y8601716D01*
X8668285Y8401716D02*
X8668285Y8458285D01*
X8611716Y8458285D01*
X8611716Y8401716D01*
X8668285Y8401716D01*
X8668285Y8201715D02*
X8668285Y8258284D01*
X8611716Y8258284D01*
X8611716Y8201715D01*
X8668285Y8201715D01*
X8668285Y8001715D02*
X8668285Y8058284D01*
X8611716Y8058284D01*
X8611716Y8001715D01*
X8668285Y8001715D01*
X9598285Y2361716D02*
X9598285Y2418285D01*
X9541716Y2418285D01*
X9541716Y2361716D01*
X9598285Y2361716D01*
X9598285Y2161716D02*
X9598285Y2218285D01*
X9541716Y2218285D01*
X9541716Y2161716D01*
X9598285Y2161716D01*
X9598285Y1961715D02*
X9598285Y2018284D01*
X9541716Y2018284D01*
X9541716Y1961715D01*
X9598285Y1961715D01*
X9598285Y1761715D02*
X9598285Y1818284D01*
X9541716Y1818284D01*
X9541716Y1761715D01*
X9598285Y1761715D01*
X9598285Y1561715D02*
X9598285Y1618284D01*
X9541716Y1618284D01*
X9541716Y1561715D01*
X9598285Y1561715D01*
X10948285Y6871715D02*
X10948285Y6928284D01*
X10891716Y6928284D01*
X10891716Y6871715D01*
X10948285Y6871715D01*
X10948285Y6671715D02*
X10948285Y6728284D01*
X10891716Y6728284D01*
X10891716Y6671715D01*
X10948285Y6671715D01*
X10948285Y6471715D02*
X10948285Y6528284D01*
X10891716Y6528284D01*
X10891716Y6471715D01*
X10948285Y6471715D01*
X10948285Y6271715D02*
X10948285Y6328284D01*
X10891716Y6328284D01*
X10891716Y6271715D01*
X10948285Y6271715D01*
X10948285Y6071715D02*
X10948285Y6128284D01*
X10891716Y6128284D01*
X10891716Y6071715D01*
X10948285Y6071715D01*
X10948285Y5871715D02*
X10948285Y5928284D01*
X10891716Y5928284D01*
X10891716Y5871715D01*
X10948285Y5871715D01*
X10948285Y5671715D02*
X10948285Y5728284D01*
X10891716Y5728284D01*
X10891716Y5671715D01*
X10948285Y5671715D01*
X10948285Y5471716D02*
X10948285Y5528285D01*
X10891716Y5528285D01*
X10891716Y5471716D01*
X10948285Y5471716D01*
X10948285Y4496716D02*
X10948285Y4553285D01*
X10891716Y4553285D01*
X10891716Y4496716D01*
X10948285Y4496716D01*
X10948285Y4296716D02*
X10948285Y4353285D01*
X10891716Y4353285D01*
X10891716Y4296716D01*
X10948285Y4296716D01*
X10948285Y4096715D02*
X10948285Y4153284D01*
X10891716Y4153284D01*
X10891716Y4096715D01*
X10948285Y4096715D01*
X10948285Y3896715D02*
X10948285Y3953284D01*
X10891716Y3953284D01*
X10891716Y3896715D01*
X10948285Y3896715D01*
X10948285Y3696715D02*
X10948285Y3753284D01*
X10891716Y3753284D01*
X10891716Y3696715D01*
X10948285Y3696715D01*
X10948285Y3496715D02*
X10948285Y3553284D01*
X10891716Y3553284D01*
X10891716Y3496715D01*
X10948285Y3496715D01*
X10948285Y3296715D02*
X10948285Y3353284D01*
X10891716Y3353284D01*
X10891716Y3296715D01*
X10948285Y3296715D01*
X10948285Y3096715D02*
X10948285Y3153284D01*
X10891716Y3153284D01*
X10891716Y3096715D01*
X10948285Y3096715D01*
X10948285Y2896715D02*
X10948285Y2953284D01*
X10891716Y2953284D01*
X10891716Y2896715D01*
X10948285Y2896715D01*
X10948285Y2696716D02*
X10948285Y2753285D01*
X10891716Y2753285D01*
X10891716Y2696716D01*
X10948285Y2696716D01*
X10948285Y2496716D02*
X10948285Y2553285D01*
X10891716Y2553285D01*
X10891716Y2496716D01*
X10948285Y2496716D01*
X10948285Y2296716D02*
X10948285Y2353285D01*
X10891716Y2353285D01*
X10891716Y2296716D01*
X10948285Y2296716D01*
X10948285Y2096715D02*
X10948285Y2153285D01*
X10891716Y2153285D01*
X10891716Y2096715D01*
X10948285Y2096715D01*
X10948285Y1896715D02*
X10948285Y1953284D01*
X10891716Y1953284D01*
X10891716Y1896715D01*
X10948285Y1896715D01*
X10948285Y1696715D02*
X10948285Y1753284D01*
X10891716Y1753284D01*
X10891716Y1696715D01*
X10948285Y1696715D01*
X10948285Y1496715D02*
X10948285Y1553284D01*
X10891716Y1553284D01*
X10891716Y1496715D01*
X10948285Y1496715D01*
X11148285Y6871715D02*
X11148285Y6928284D01*
X11091716Y6928284D01*
X11091716Y6871715D01*
X11148285Y6871715D01*
X11148285Y6671715D02*
X11148285Y6728284D01*
X11091716Y6728284D01*
X11091716Y6671715D01*
X11148285Y6671715D01*
X11148285Y6471715D02*
X11148285Y6528284D01*
X11091716Y6528284D01*
X11091716Y6471715D01*
X11148285Y6471715D01*
X11148285Y6271715D02*
X11148285Y6328284D01*
X11091716Y6328284D01*
X11091716Y6271715D01*
X11148285Y6271715D01*
X11148285Y6071715D02*
X11148285Y6128284D01*
X11091716Y6128284D01*
X11091716Y6071715D01*
X11148285Y6071715D01*
X11148285Y5871715D02*
X11148285Y5928284D01*
X11091716Y5928284D01*
X11091716Y5871715D01*
X11148285Y5871715D01*
X11148285Y5671715D02*
X11148285Y5728284D01*
X11091716Y5728284D01*
X11091716Y5671715D01*
X11148285Y5671715D01*
X11148285Y5471716D02*
X11148285Y5528285D01*
X11091716Y5528285D01*
X11091716Y5471716D01*
X11148285Y5471716D01*
X11148285Y4496716D02*
X11148285Y4553285D01*
X11091716Y4553285D01*
X11091716Y4496716D01*
X11148285Y4496716D01*
X11148285Y4296716D02*
X11148285Y4353285D01*
X11091716Y4353285D01*
X11091716Y4296716D01*
X11148285Y4296716D01*
X11148285Y4096715D02*
X11148285Y4153284D01*
X11091716Y4153284D01*
X11091716Y4096715D01*
X11148285Y4096715D01*
X11148285Y3896715D02*
X11148285Y3953284D01*
X11091716Y3953284D01*
X11091716Y3896715D01*
X11148285Y3896715D01*
X11148285Y3696715D02*
X11148285Y3753284D01*
X11091716Y3753284D01*
X11091716Y3696715D01*
X11148285Y3696715D01*
X11148285Y3496715D02*
X11148285Y3553284D01*
X11091716Y3553284D01*
X11091716Y3496715D01*
X11148285Y3496715D01*
X11148285Y3296715D02*
X11148285Y3353284D01*
X11091716Y3353284D01*
X11091716Y3296715D01*
X11148285Y3296715D01*
X11148285Y3096715D02*
X11148285Y3153284D01*
X11091716Y3153284D01*
X11091716Y3096715D01*
X11148285Y3096715D01*
X11148285Y2896715D02*
X11148285Y2953284D01*
X11091716Y2953284D01*
X11091716Y2896715D01*
X11148285Y2896715D01*
X11148285Y2696716D02*
X11148285Y2753285D01*
X11091716Y2753285D01*
X11091716Y2696716D01*
X11148285Y2696716D01*
X11148285Y2496716D02*
X11148285Y2553285D01*
X11091716Y2553285D01*
X11091716Y2496716D01*
X11148285Y2496716D01*
X11148285Y2296716D02*
X11148285Y2353285D01*
X11091716Y2353285D01*
X11091716Y2296716D01*
X11148285Y2296716D01*
X11148285Y2096715D02*
X11148285Y2153285D01*
X11091716Y2153285D01*
X11091716Y2096715D01*
X11148285Y2096715D01*
X11148285Y1896715D02*
X11148285Y1953284D01*
X11091716Y1953284D01*
X11091716Y1896715D01*
X11148285Y1896715D01*
X11148285Y1696715D02*
X11148285Y1753284D01*
X11091716Y1753284D01*
X11091716Y1696715D01*
X11148285Y1696715D01*
X11148285Y1496715D02*
X11148285Y1553284D01*
X11091716Y1553284D01*
X11091716Y1496715D01*
X11148285Y1496715D01*
D16*
X682500Y7447500D02*
X732500Y7497500D01*
X682500Y7547500D01*
X632500Y7497500D01*
X682500Y7447500D01*
X682500Y7193500D02*
X732500Y7243500D01*
X682500Y7293500D01*
X632500Y7243500D01*
X682500Y7193500D01*
X682500Y6939500D02*
X732500Y6989500D01*
X682500Y7039500D01*
X632500Y6989500D01*
X682500Y6939500D01*
X682500Y6685500D02*
X732500Y6735500D01*
X682500Y6785500D01*
X632500Y6735500D01*
X682500Y6685500D01*
X682500Y6431500D02*
X732500Y6481500D01*
X682500Y6531500D01*
X632500Y6481500D01*
X682500Y6431500D01*
X840000Y9410000D02*
X890000Y9460000D01*
X840000Y9510000D01*
X790000Y9460000D01*
X840000Y9410000D01*
D11*
X880000Y9385000D02*
X880000Y9535000D01*
X800000Y9385000D02*
X800000Y9535000D01*
X880000Y9535000D02*
G75*
G03*
X800000Y9535000I-40000J0D01*
G01*
X800000Y9385000D02*
G75*
G03*
X880000Y9385000I40000J0D01*
G01*
D16*
X936500Y7447500D02*
X986500Y7497500D01*
X936500Y7547500D01*
X886500Y7497500D01*
X936500Y7447500D01*
X936500Y7193500D02*
X986500Y7243500D01*
X936500Y7293500D01*
X886500Y7243500D01*
X936500Y7193500D01*
X936500Y6939500D02*
X986500Y6989500D01*
X936500Y7039500D01*
X886500Y6989500D01*
X936500Y6939500D01*
X936500Y6685500D02*
X986500Y6735500D01*
X936500Y6785500D01*
X886500Y6735500D01*
X936500Y6685500D01*
X936500Y6431500D02*
X986500Y6481500D01*
X936500Y6531500D01*
X886500Y6481500D01*
X936500Y6431500D01*
X1290000Y9310000D02*
X1340000Y9360000D01*
X1290000Y9410000D01*
X1240000Y9360000D01*
X1290000Y9310000D01*
D11*
X1355000Y9400000D02*
X1225000Y9400000D01*
X1355000Y9320000D02*
X1225000Y9320000D01*
X1225000Y9400000D02*
G75*
G03*
X1225000Y9320000I0J-40000D01*
G01*
X1355000Y9320000D02*
G75*
G03*
X1355000Y9400000I0J40000D01*
G01*
D16*
X1290000Y8710000D02*
X1340000Y8760000D01*
X1290000Y8810000D01*
X1240000Y8760000D01*
X1290000Y8710000D01*
D11*
X1390000Y8800000D02*
X1190000Y8800000D01*
X1390000Y8720000D02*
X1190000Y8720000D01*
X1190000Y8800000D02*
G75*
G03*
X1190000Y8720000I0J-40000D01*
G01*
X1390000Y8720000D02*
G75*
G03*
X1390000Y8800000I0J40000D01*
G01*
D16*
X1740000Y9410000D02*
X1790000Y9460000D01*
X1740000Y9510000D01*
X1690000Y9460000D01*
X1740000Y9410000D01*
D11*
X1780000Y9385000D02*
X1780000Y9535000D01*
X1700000Y9385000D02*
X1700000Y9535000D01*
X1780000Y9535000D02*
G75*
G03*
X1700000Y9535000I-40000J0D01*
G01*
X1700000Y9385000D02*
G75*
G03*
X1780000Y9385000I40000J0D01*
G01*
D16*
X7015500Y9457967D02*
X7065500Y9507967D01*
X7015500Y9557967D01*
X6965500Y9507967D01*
X7015500Y9457967D01*
X7130000Y9655967D02*
X7180000Y9705967D01*
X7130000Y9755967D01*
X7080000Y9705967D01*
X7130000Y9655967D01*
X7130000Y9259967D02*
X7180000Y9309967D01*
X7130000Y9359967D01*
X7080000Y9309967D01*
X7130000Y9259967D01*
X7244500Y9457967D02*
X7294500Y9507967D01*
X7244500Y9557967D01*
X7194500Y9507967D01*
X7244500Y9457967D01*
X7359000Y9655967D02*
X7409000Y9705967D01*
X7359000Y9755967D01*
X7309000Y9705967D01*
X7359000Y9655967D01*
X7359000Y9259967D02*
X7409000Y9309967D01*
X7359000Y9359967D01*
X7309000Y9309967D01*
X7359000Y9259967D01*
X7473500Y9457967D02*
X7523500Y9507967D01*
X7473500Y9557967D01*
X7423500Y9507967D01*
X7473500Y9457967D01*
X7588000Y9655967D02*
X7638000Y9705967D01*
X7588000Y9755967D01*
X7538000Y9705967D01*
X7588000Y9655967D01*
X7588000Y9259967D02*
X7638000Y9309967D01*
X7588000Y9359967D01*
X7538000Y9309967D01*
X7588000Y9259967D01*
X7702500Y9457967D02*
X7752500Y9507967D01*
X7702500Y9557967D01*
X7652500Y9507967D01*
X7702500Y9457967D01*
X7817000Y9655967D02*
X7867000Y9705967D01*
X7817000Y9755967D01*
X7767000Y9705967D01*
X7817000Y9655967D01*
X7817000Y9259967D02*
X7867000Y9309967D01*
X7817000Y9359967D01*
X7767000Y9309967D01*
X7817000Y9259967D01*
X7931500Y9457967D02*
X7981500Y9507967D01*
X7931500Y9557967D01*
X7881500Y9507967D01*
X7931500Y9457967D01*
X8046000Y9655967D02*
X8096000Y9705967D01*
X8046000Y9755967D01*
X7996000Y9705967D01*
X8046000Y9655967D01*
X8046000Y9259967D02*
X8096000Y9309967D01*
X8046000Y9359967D01*
X7996000Y9309967D01*
X8046000Y9259967D01*
D17*
X4945000Y7705000D02*
X5055000Y7595000D01*
X5055000Y7705000D02*
X4945000Y7595000D01*
X5055000Y7650000D02*
G75*
G03*
X5055000Y7650000I-55000J0D01*
G01*
X4945000Y7255000D02*
X5055000Y7145000D01*
X5055000Y7255000D02*
X4945000Y7145000D01*
X5055000Y7200000D02*
G75*
G03*
X5055000Y7200000I-55000J0D01*
G01*
X5595000Y7705000D02*
X5705000Y7595000D01*
X5705000Y7705000D02*
X5595000Y7595000D01*
X5705000Y7650000D02*
G75*
G03*
X5705000Y7650000I-55000J0D01*
G01*
X5595000Y7255000D02*
X5705000Y7145000D01*
X5705000Y7255000D02*
X5595000Y7145000D01*
X5705000Y7200000D02*
G75*
G03*
X5705000Y7200000I-55000J0D01*
G01*
X5934422Y7714423D02*
X6044422Y7604423D01*
X6044422Y7714423D02*
X5934422Y7604423D01*
X6044422Y7659423D02*
G75*
G03*
X6044422Y7659423I-55000J0D01*
G01*
X5934422Y7264423D02*
X6044422Y7154423D01*
X6044422Y7264423D02*
X5934422Y7154423D01*
X6044422Y7209423D02*
G75*
G03*
X6044422Y7209423I-55000J0D01*
G01*
X6584422Y7714423D02*
X6694422Y7604423D01*
X6694422Y7714423D02*
X6584422Y7604423D01*
X6694422Y7659423D02*
G75*
G03*
X6694422Y7659423I-55000J0D01*
G01*
X6584422Y7264423D02*
X6694422Y7154423D01*
X6694422Y7264423D02*
X6584422Y7154423D01*
X6694422Y7209423D02*
G75*
G03*
X6694422Y7209423I-55000J0D01*
G01*
D18*
X9318000Y9178000D02*
X9548000Y8948000D01*
X9548000Y9178000D02*
X9318000Y8948000D01*
X9433000Y9178000D02*
X9433000Y8948000D01*
X9318000Y9063000D02*
X9548000Y9063000D01*
X10632000Y9178000D02*
X10862000Y8948000D01*
X10862000Y9178000D02*
X10632000Y8948000D01*
X10747000Y9178000D02*
X10747000Y8948000D01*
X10632000Y9063000D02*
X10862000Y9063000D01*
D19*
X6151500Y9674967D02*
X6471500Y9354967D01*
X6471500Y9674967D02*
X6151500Y9354967D01*
X6424638Y9401829D02*
X6424638Y9628105D01*
X6198362Y9628105D01*
X6198362Y9401829D01*
X6424638Y9401829D01*
X8651500Y9674967D02*
X8971500Y9354967D01*
X8971500Y9674967D02*
X8651500Y9354967D01*
X8924638Y9401829D02*
X8924638Y9628105D01*
X8698362Y9628105D01*
X8698362Y9401829D01*
X8924638Y9401829D01*
D11*
X254541Y-303554D02*
X254541Y-103553D01*
X302160Y-103553D01*
X330731Y-113077D01*
X349779Y-132125D01*
X359303Y-151173D01*
X368827Y-189268D01*
X368827Y-217839D01*
X359303Y-255934D01*
X349779Y-274982D01*
X330731Y-294030D01*
X302160Y-303554D01*
X254541Y-303554D01*
X454541Y-303554D02*
X454541Y-170220D01*
X454541Y-208315D02*
X464065Y-189268D01*
X473588Y-179744D01*
X492636Y-170220D01*
X511684Y-170220D01*
X578350Y-303554D02*
X578350Y-170220D01*
X578350Y-103553D02*
X568827Y-113077D01*
X578350Y-122601D01*
X587874Y-113077D01*
X578350Y-103553D01*
X578350Y-122601D01*
X702160Y-303554D02*
X683112Y-294030D01*
X673589Y-274982D01*
X673589Y-103553D01*
X806922Y-303554D02*
X787874Y-294030D01*
X778350Y-274982D01*
X778350Y-103553D01*
X1035493Y-303554D02*
X1035493Y-103553D01*
X1102160Y-246411D01*
X1168827Y-103553D01*
X1168827Y-303554D01*
X1349779Y-303554D02*
X1349779Y-198792D01*
X1340255Y-179744D01*
X1321208Y-170220D01*
X1283112Y-170220D01*
X1264065Y-179744D01*
X1349779Y-294030D02*
X1330731Y-303554D01*
X1283112Y-303554D01*
X1264065Y-294030D01*
X1254541Y-274982D01*
X1254541Y-255934D01*
X1264065Y-236887D01*
X1283112Y-227363D01*
X1330731Y-227363D01*
X1349779Y-217839D01*
X1445017Y-170220D02*
X1445017Y-370220D01*
X1445017Y-179744D02*
X1464065Y-170220D01*
X1502160Y-170220D01*
X1521208Y-179744D01*
X1530731Y-189268D01*
X1540255Y-208315D01*
X1540255Y-265458D01*
X1530731Y-284506D01*
X1521208Y-294030D01*
X1502160Y-303554D01*
X1464065Y-303554D01*
X1445017Y-294030D01*
X1625969Y-284506D02*
X1635493Y-294030D01*
X1625969Y-303554D01*
X1616446Y-294030D01*
X1625969Y-284506D01*
X1625969Y-303554D01*
X1625969Y-179744D02*
X1635493Y-189268D01*
X1625969Y-198792D01*
X1616446Y-189268D01*
X1625969Y-179744D01*
X1625969Y-198792D01*
D12*
X-33078Y-618077D02*
X-3078Y-648077D01*
X-3078Y-618077D02*
X-33078Y-648077D01*
D11*
X292636Y-523553D02*
X311684Y-523553D01*
X330731Y-533077D01*
X340255Y-542601D01*
X349779Y-561649D01*
X359303Y-599744D01*
X359303Y-647363D01*
X349779Y-685458D01*
X340255Y-704506D01*
X330731Y-714030D01*
X311684Y-723553D01*
X292636Y-723553D01*
X273589Y-714030D01*
X264065Y-704506D01*
X254541Y-685458D01*
X245017Y-647363D01*
X245017Y-599744D01*
X254541Y-561649D01*
X264065Y-542601D01*
X273589Y-533077D01*
X292636Y-523553D01*
X445017Y-704506D02*
X454541Y-714030D01*
X445017Y-723553D01*
X435493Y-714030D01*
X445017Y-704506D01*
X445017Y-723553D01*
X521208Y-523553D02*
X645017Y-523553D01*
X578350Y-599744D01*
X606922Y-599744D01*
X625970Y-609268D01*
X635493Y-618792D01*
X645017Y-637839D01*
X645017Y-685458D01*
X635493Y-704506D01*
X625970Y-714030D01*
X606922Y-723553D01*
X549779Y-723553D01*
X530731Y-714030D01*
X521208Y-704506D01*
X768827Y-523553D02*
X787874Y-523553D01*
X806922Y-533077D01*
X816446Y-542601D01*
X825969Y-561649D01*
X835493Y-599744D01*
X835493Y-647363D01*
X825969Y-685458D01*
X816446Y-704506D01*
X806922Y-714030D01*
X787874Y-723553D01*
X768827Y-723553D01*
X749779Y-714030D01*
X740255Y-704506D01*
X730731Y-685458D01*
X721208Y-647363D01*
X721208Y-599744D01*
X730731Y-561649D01*
X740255Y-542601D01*
X749779Y-533077D01*
X768827Y-523553D01*
X959303Y-523553D02*
X978350Y-523553D01*
X997398Y-533077D01*
X1006922Y-542601D01*
X1016446Y-561649D01*
X1025969Y-599744D01*
X1025969Y-647363D01*
X1016446Y-685458D01*
X1006922Y-704506D01*
X997398Y-714030D01*
X978350Y-723553D01*
X959303Y-723553D01*
X940255Y-714030D01*
X930731Y-704506D01*
X921208Y-685458D01*
X911684Y-647363D01*
X911684Y-599744D01*
X921208Y-561649D01*
X930731Y-542601D01*
X940255Y-533077D01*
X959303Y-523553D01*
X1111684Y-723553D02*
X1111684Y-590220D01*
X1111684Y-609268D02*
X1121208Y-599744D01*
X1140255Y-590220D01*
X1168827Y-590220D01*
X1187874Y-599744D01*
X1197398Y-618792D01*
X1197398Y-723553D01*
X1197398Y-618792D02*
X1206922Y-599744D01*
X1225970Y-590220D01*
X1254541Y-590220D01*
X1273589Y-599744D01*
X1283112Y-618792D01*
X1283112Y-723553D01*
X1378350Y-723553D02*
X1378350Y-590220D01*
X1378350Y-609268D02*
X1387874Y-599744D01*
X1406922Y-590220D01*
X1435493Y-590220D01*
X1454541Y-599744D01*
X1464065Y-618792D01*
X1464065Y-723553D01*
X1464065Y-618792D02*
X1473588Y-599744D01*
X1492636Y-590220D01*
X1521208Y-590220D01*
X1540255Y-599744D01*
X1549779Y-618792D01*
X1549779Y-723553D01*
X1940255Y-514030D02*
X1768827Y-771173D01*
X2197398Y-523553D02*
X2216446Y-523553D01*
X2235493Y-533077D01*
X2245017Y-542601D01*
X2254541Y-561649D01*
X2264065Y-599744D01*
X2264065Y-647363D01*
X2254541Y-685458D01*
X2245017Y-704506D01*
X2235493Y-714030D01*
X2216446Y-723553D01*
X2197398Y-723553D01*
X2178350Y-714030D01*
X2168827Y-704506D01*
X2159303Y-685458D01*
X2149779Y-647363D01*
X2149779Y-599744D01*
X2159303Y-561649D01*
X2168827Y-542601D01*
X2178350Y-533077D01*
X2197398Y-523553D01*
X2349779Y-704506D02*
X2359303Y-714030D01*
X2349779Y-723553D01*
X2340255Y-714030D01*
X2349779Y-704506D01*
X2349779Y-723553D01*
X2483112Y-523553D02*
X2502160Y-523553D01*
X2521208Y-533077D01*
X2530731Y-542601D01*
X2540255Y-561649D01*
X2549779Y-599744D01*
X2549779Y-647363D01*
X2540255Y-685458D01*
X2530731Y-704506D01*
X2521208Y-714030D01*
X2502160Y-723553D01*
X2483112Y-723553D01*
X2464065Y-714030D01*
X2454541Y-704506D01*
X2445017Y-685458D01*
X2435493Y-647363D01*
X2435493Y-599744D01*
X2445017Y-561649D01*
X2454541Y-542601D01*
X2464065Y-533077D01*
X2483112Y-523553D01*
X2740255Y-723553D02*
X2625970Y-723553D01*
X2683112Y-723553D02*
X2683112Y-523553D01*
X2664065Y-552125D01*
X2645017Y-571173D01*
X2625970Y-580696D01*
X2930731Y-723553D02*
X2816446Y-723553D01*
X2873588Y-723553D02*
X2873588Y-523553D01*
X2854541Y-552125D01*
X2835493Y-571173D01*
X2816446Y-580696D01*
X3045017Y-609268D02*
X3025969Y-599744D01*
X3016446Y-590220D01*
X3006922Y-571173D01*
X3006922Y-561649D01*
X3016446Y-542601D01*
X3025969Y-533077D01*
X3045017Y-523553D01*
X3083112Y-523553D01*
X3102160Y-533077D01*
X3111684Y-542601D01*
X3121208Y-561649D01*
X3121208Y-571173D01*
X3111684Y-590220D01*
X3102160Y-599744D01*
X3083112Y-609268D01*
X3045017Y-609268D01*
X3025969Y-618792D01*
X3016446Y-628315D01*
X3006922Y-647363D01*
X3006922Y-685458D01*
X3016446Y-704506D01*
X3025969Y-714030D01*
X3045017Y-723553D01*
X3083112Y-723553D01*
X3102160Y-714030D01*
X3111684Y-704506D01*
X3121208Y-685458D01*
X3121208Y-647363D01*
X3111684Y-628315D01*
X3102160Y-618792D01*
X3083112Y-609268D01*
X3197398Y-523553D02*
X3197398Y-561649D01*
X3273588Y-523553D02*
X3273588Y-561649D01*
X3568827Y-799744D02*
X3559303Y-790220D01*
X3540255Y-761649D01*
X3530731Y-742601D01*
X3521208Y-714030D01*
X3511684Y-666411D01*
X3511684Y-628315D01*
X3521208Y-580696D01*
X3530731Y-552125D01*
X3540255Y-533077D01*
X3559303Y-504506D01*
X3568827Y-494982D01*
X3749779Y-723553D02*
X3635493Y-723553D01*
X3692636Y-723553D02*
X3692636Y-523553D01*
X3673588Y-552125D01*
X3654541Y-571173D01*
X3635493Y-580696D01*
X3930731Y-523553D02*
X3835493Y-523553D01*
X3825969Y-618792D01*
X3835493Y-609268D01*
X3854541Y-599744D01*
X3902160Y-599744D01*
X3921208Y-609268D01*
X3930731Y-618792D01*
X3940255Y-637839D01*
X3940255Y-685458D01*
X3930731Y-704506D01*
X3921208Y-714030D01*
X3902160Y-723553D01*
X3854541Y-723553D01*
X3835493Y-714030D01*
X3825969Y-704506D01*
X4054541Y-609268D02*
X4035493Y-599744D01*
X4025969Y-590220D01*
X4016446Y-571173D01*
X4016446Y-561649D01*
X4025969Y-542601D01*
X4035493Y-533077D01*
X4054541Y-523553D01*
X4092636Y-523553D01*
X4111684Y-533077D01*
X4121208Y-542601D01*
X4130731Y-561649D01*
X4130731Y-571173D01*
X4121208Y-590220D01*
X4111684Y-599744D01*
X4092636Y-609268D01*
X4054541Y-609268D01*
X4035493Y-618792D01*
X4025969Y-628315D01*
X4016446Y-647363D01*
X4016446Y-685458D01*
X4025969Y-704506D01*
X4035493Y-714030D01*
X4054541Y-723553D01*
X4092636Y-723553D01*
X4111684Y-714030D01*
X4121208Y-704506D01*
X4130731Y-685458D01*
X4130731Y-647363D01*
X4121208Y-628315D01*
X4111684Y-618792D01*
X4092636Y-609268D01*
X4368827Y-723553D02*
X4368827Y-523553D01*
X4454541Y-723553D02*
X4454541Y-618792D01*
X4445017Y-599744D01*
X4425970Y-590220D01*
X4397398Y-590220D01*
X4378350Y-599744D01*
X4368827Y-609268D01*
X4578350Y-723553D02*
X4559303Y-714030D01*
X4549779Y-704506D01*
X4540255Y-685458D01*
X4540255Y-628315D01*
X4549779Y-609268D01*
X4559303Y-599744D01*
X4578350Y-590220D01*
X4606922Y-590220D01*
X4625970Y-599744D01*
X4635493Y-609268D01*
X4645017Y-628315D01*
X4645017Y-685458D01*
X4635493Y-704506D01*
X4625970Y-714030D01*
X4606922Y-723553D01*
X4578350Y-723553D01*
X4759303Y-723553D02*
X4740255Y-714030D01*
X4730731Y-694982D01*
X4730731Y-523553D01*
X4911684Y-714030D02*
X4892636Y-723553D01*
X4854541Y-723553D01*
X4835493Y-714030D01*
X4825970Y-694982D01*
X4825970Y-618792D01*
X4835493Y-599744D01*
X4854541Y-590220D01*
X4892636Y-590220D01*
X4911684Y-599744D01*
X4921208Y-618792D01*
X4921208Y-637839D01*
X4825970Y-656887D01*
X4997398Y-714030D02*
X5016446Y-723553D01*
X5054541Y-723553D01*
X5073589Y-714030D01*
X5083112Y-694982D01*
X5083112Y-685458D01*
X5073589Y-666411D01*
X5054541Y-656887D01*
X5025970Y-656887D01*
X5006922Y-647363D01*
X4997398Y-628315D01*
X4997398Y-618792D01*
X5006922Y-599744D01*
X5025970Y-590220D01*
X5054541Y-590220D01*
X5073589Y-599744D01*
X5149779Y-799744D02*
X5159303Y-790220D01*
X5178350Y-761649D01*
X5187874Y-742601D01*
X5197398Y-714030D01*
X5206922Y-666411D01*
X5206922Y-628315D01*
X5197398Y-580696D01*
X5187874Y-552125D01*
X5178350Y-533077D01*
X5159303Y-504506D01*
X5149779Y-494982D01*
D13*
X-3078Y-897077D02*
G75*
G03*
X-3078Y-897077I-20000J0D01*
G01*
D11*
X292636Y-787553D02*
X311684Y-787553D01*
X330731Y-797077D01*
X340255Y-806601D01*
X349779Y-825649D01*
X359303Y-863744D01*
X359303Y-911363D01*
X349779Y-949458D01*
X340255Y-968506D01*
X330731Y-978030D01*
X311684Y-987553D01*
X292636Y-987553D01*
X273589Y-978030D01*
X264065Y-968506D01*
X254541Y-949458D01*
X245017Y-911363D01*
X245017Y-863744D01*
X254541Y-825649D01*
X264065Y-806601D01*
X273589Y-797077D01*
X292636Y-787553D01*
X445017Y-968506D02*
X454541Y-978030D01*
X445017Y-987553D01*
X435493Y-978030D01*
X445017Y-968506D01*
X445017Y-987553D01*
X625970Y-854220D02*
X625970Y-987553D01*
X578350Y-778030D02*
X530731Y-920887D01*
X654541Y-920887D01*
X768827Y-787553D02*
X787874Y-787553D01*
X806922Y-797077D01*
X816446Y-806601D01*
X825969Y-825649D01*
X835493Y-863744D01*
X835493Y-911363D01*
X825969Y-949458D01*
X816446Y-968506D01*
X806922Y-978030D01*
X787874Y-987553D01*
X768827Y-987553D01*
X749779Y-978030D01*
X740255Y-968506D01*
X730731Y-949458D01*
X721208Y-911363D01*
X721208Y-863744D01*
X730731Y-825649D01*
X740255Y-806601D01*
X749779Y-797077D01*
X768827Y-787553D01*
X959303Y-787553D02*
X978350Y-787553D01*
X997398Y-797077D01*
X1006922Y-806601D01*
X1016446Y-825649D01*
X1025969Y-863744D01*
X1025969Y-911363D01*
X1016446Y-949458D01*
X1006922Y-968506D01*
X997398Y-978030D01*
X978350Y-987553D01*
X959303Y-987553D01*
X940255Y-978030D01*
X930731Y-968506D01*
X921208Y-949458D01*
X911684Y-911363D01*
X911684Y-863744D01*
X921208Y-825649D01*
X930731Y-806601D01*
X940255Y-797077D01*
X959303Y-787553D01*
X1111684Y-987553D02*
X1111684Y-854220D01*
X1111684Y-873268D02*
X1121208Y-863744D01*
X1140255Y-854220D01*
X1168827Y-854220D01*
X1187874Y-863744D01*
X1197398Y-882792D01*
X1197398Y-987553D01*
X1197398Y-882792D02*
X1206922Y-863744D01*
X1225970Y-854220D01*
X1254541Y-854220D01*
X1273589Y-863744D01*
X1283112Y-882792D01*
X1283112Y-987553D01*
X1378350Y-987553D02*
X1378350Y-854220D01*
X1378350Y-873268D02*
X1387874Y-863744D01*
X1406922Y-854220D01*
X1435493Y-854220D01*
X1454541Y-863744D01*
X1464065Y-882792D01*
X1464065Y-987553D01*
X1464065Y-882792D02*
X1473588Y-863744D01*
X1492636Y-854220D01*
X1521208Y-854220D01*
X1540255Y-863744D01*
X1549779Y-882792D01*
X1549779Y-987553D01*
X1940255Y-778030D02*
X1768827Y-1035173D01*
X2197398Y-787553D02*
X2216446Y-787553D01*
X2235493Y-797077D01*
X2245017Y-806601D01*
X2254541Y-825649D01*
X2264065Y-863744D01*
X2264065Y-911363D01*
X2254541Y-949458D01*
X2245017Y-968506D01*
X2235493Y-978030D01*
X2216446Y-987553D01*
X2197398Y-987553D01*
X2178350Y-978030D01*
X2168827Y-968506D01*
X2159303Y-949458D01*
X2149779Y-911363D01*
X2149779Y-863744D01*
X2159303Y-825649D01*
X2168827Y-806601D01*
X2178350Y-797077D01*
X2197398Y-787553D01*
X2349779Y-968506D02*
X2359303Y-978030D01*
X2349779Y-987553D01*
X2340255Y-978030D01*
X2349779Y-968506D01*
X2349779Y-987553D01*
X2483112Y-787553D02*
X2502160Y-787553D01*
X2521208Y-797077D01*
X2530731Y-806601D01*
X2540255Y-825649D01*
X2549779Y-863744D01*
X2549779Y-911363D01*
X2540255Y-949458D01*
X2530731Y-968506D01*
X2521208Y-978030D01*
X2502160Y-987553D01*
X2483112Y-987553D01*
X2464065Y-978030D01*
X2454541Y-968506D01*
X2445017Y-949458D01*
X2435493Y-911363D01*
X2435493Y-863744D01*
X2445017Y-825649D01*
X2454541Y-806601D01*
X2464065Y-797077D01*
X2483112Y-787553D01*
X2740255Y-987553D02*
X2625970Y-987553D01*
X2683112Y-987553D02*
X2683112Y-787553D01*
X2664065Y-816125D01*
X2645017Y-835173D01*
X2625970Y-844696D01*
X2921208Y-787553D02*
X2825969Y-787553D01*
X2816446Y-882792D01*
X2825969Y-873268D01*
X2845017Y-863744D01*
X2892636Y-863744D01*
X2911684Y-873268D01*
X2921208Y-882792D01*
X2930731Y-901839D01*
X2930731Y-949458D01*
X2921208Y-968506D01*
X2911684Y-978030D01*
X2892636Y-987553D01*
X2845017Y-987553D01*
X2825969Y-978030D01*
X2816446Y-968506D01*
X2997398Y-787553D02*
X3130731Y-787553D01*
X3045017Y-987553D01*
X3197398Y-787553D02*
X3197398Y-825649D01*
X3273588Y-787553D02*
X3273588Y-825649D01*
X3568827Y-1063744D02*
X3559303Y-1054220D01*
X3540255Y-1025649D01*
X3530731Y-1006601D01*
X3521208Y-978030D01*
X3511684Y-930411D01*
X3511684Y-892315D01*
X3521208Y-844696D01*
X3530731Y-816125D01*
X3540255Y-797077D01*
X3559303Y-768506D01*
X3568827Y-758982D01*
X3635493Y-806601D02*
X3645017Y-797077D01*
X3664065Y-787553D01*
X3711684Y-787553D01*
X3730731Y-797077D01*
X3740255Y-806601D01*
X3749779Y-825649D01*
X3749779Y-844696D01*
X3740255Y-873268D01*
X3625969Y-987553D01*
X3749779Y-987553D01*
X3816446Y-787553D02*
X3949779Y-787553D01*
X3864065Y-987553D01*
X4178350Y-987553D02*
X4178350Y-787553D01*
X4264065Y-987553D02*
X4264065Y-882792D01*
X4254541Y-863744D01*
X4235493Y-854220D01*
X4206922Y-854220D01*
X4187874Y-863744D01*
X4178350Y-873268D01*
X4387874Y-987553D02*
X4368827Y-978030D01*
X4359303Y-968506D01*
X4349779Y-949458D01*
X4349779Y-892315D01*
X4359303Y-873268D01*
X4368827Y-863744D01*
X4387874Y-854220D01*
X4416446Y-854220D01*
X4435493Y-863744D01*
X4445017Y-873268D01*
X4454541Y-892315D01*
X4454541Y-949458D01*
X4445017Y-968506D01*
X4435493Y-978030D01*
X4416446Y-987553D01*
X4387874Y-987553D01*
X4568827Y-987553D02*
X4549779Y-978030D01*
X4540255Y-958982D01*
X4540255Y-787553D01*
X4721208Y-978030D02*
X4702160Y-987553D01*
X4664065Y-987553D01*
X4645017Y-978030D01*
X4635493Y-958982D01*
X4635493Y-882792D01*
X4645017Y-863744D01*
X4664065Y-854220D01*
X4702160Y-854220D01*
X4721208Y-863744D01*
X4730731Y-882792D01*
X4730731Y-901839D01*
X4635493Y-920887D01*
X4806922Y-978030D02*
X4825970Y-987553D01*
X4864065Y-987553D01*
X4883112Y-978030D01*
X4892636Y-958982D01*
X4892636Y-949458D01*
X4883112Y-930411D01*
X4864065Y-920887D01*
X4835493Y-920887D01*
X4816446Y-911363D01*
X4806922Y-892315D01*
X4806922Y-882792D01*
X4816446Y-863744D01*
X4835493Y-854220D01*
X4864065Y-854220D01*
X4883112Y-863744D01*
X4959303Y-1063744D02*
X4968827Y-1054220D01*
X4987874Y-1025649D01*
X4997398Y-1006601D01*
X5006922Y-978030D01*
X5016446Y-930411D01*
X5016446Y-892315D01*
X5006922Y-844696D01*
X4997398Y-816125D01*
X4987874Y-797077D01*
X4968827Y-768506D01*
X4959303Y-758982D01*
D14*
X-38078Y-1126077D02*
X-38078Y-1196077D01*
X-73078Y-1161077D02*
X-3078Y-1161077D01*
D11*
X292636Y-1051554D02*
X311684Y-1051554D01*
X330731Y-1061077D01*
X340255Y-1070601D01*
X349779Y-1089649D01*
X359303Y-1127744D01*
X359303Y-1175363D01*
X349779Y-1213458D01*
X340255Y-1232506D01*
X330731Y-1242030D01*
X311684Y-1251554D01*
X292636Y-1251554D01*
X273589Y-1242030D01*
X264065Y-1232506D01*
X254541Y-1213458D01*
X245017Y-1175363D01*
X245017Y-1127744D01*
X254541Y-1089649D01*
X264065Y-1070601D01*
X273589Y-1061077D01*
X292636Y-1051554D01*
X445017Y-1232506D02*
X454541Y-1242030D01*
X445017Y-1251554D01*
X435493Y-1242030D01*
X445017Y-1232506D01*
X445017Y-1251554D01*
X521208Y-1051554D02*
X654541Y-1051554D01*
X568827Y-1251554D01*
X768827Y-1051554D02*
X787874Y-1051554D01*
X806922Y-1061077D01*
X816446Y-1070601D01*
X825969Y-1089649D01*
X835493Y-1127744D01*
X835493Y-1175363D01*
X825969Y-1213458D01*
X816446Y-1232506D01*
X806922Y-1242030D01*
X787874Y-1251554D01*
X768827Y-1251554D01*
X749779Y-1242030D01*
X740255Y-1232506D01*
X730731Y-1213458D01*
X721208Y-1175363D01*
X721208Y-1127744D01*
X730731Y-1089649D01*
X740255Y-1070601D01*
X749779Y-1061077D01*
X768827Y-1051554D01*
X959303Y-1051554D02*
X978350Y-1051554D01*
X997398Y-1061077D01*
X1006922Y-1070601D01*
X1016446Y-1089649D01*
X1025969Y-1127744D01*
X1025969Y-1175363D01*
X1016446Y-1213458D01*
X1006922Y-1232506D01*
X997398Y-1242030D01*
X978350Y-1251554D01*
X959303Y-1251554D01*
X940255Y-1242030D01*
X930731Y-1232506D01*
X921208Y-1213458D01*
X911684Y-1175363D01*
X911684Y-1127744D01*
X921208Y-1089649D01*
X930731Y-1070601D01*
X940255Y-1061077D01*
X959303Y-1051554D01*
X1111684Y-1251554D02*
X1111684Y-1118220D01*
X1111684Y-1137268D02*
X1121208Y-1127744D01*
X1140255Y-1118220D01*
X1168827Y-1118220D01*
X1187874Y-1127744D01*
X1197398Y-1146792D01*
X1197398Y-1251554D01*
X1197398Y-1146792D02*
X1206922Y-1127744D01*
X1225970Y-1118220D01*
X1254541Y-1118220D01*
X1273589Y-1127744D01*
X1283112Y-1146792D01*
X1283112Y-1251554D01*
X1378350Y-1251554D02*
X1378350Y-1118220D01*
X1378350Y-1137268D02*
X1387874Y-1127744D01*
X1406922Y-1118220D01*
X1435493Y-1118220D01*
X1454541Y-1127744D01*
X1464065Y-1146792D01*
X1464065Y-1251554D01*
X1464065Y-1146792D02*
X1473588Y-1127744D01*
X1492636Y-1118220D01*
X1521208Y-1118220D01*
X1540255Y-1127744D01*
X1549779Y-1146792D01*
X1549779Y-1251554D01*
X1940255Y-1042030D02*
X1768827Y-1299173D01*
X2197398Y-1051554D02*
X2216446Y-1051554D01*
X2235493Y-1061077D01*
X2245017Y-1070601D01*
X2254541Y-1089649D01*
X2264065Y-1127744D01*
X2264065Y-1175363D01*
X2254541Y-1213458D01*
X2245017Y-1232506D01*
X2235493Y-1242030D01*
X2216446Y-1251554D01*
X2197398Y-1251554D01*
X2178350Y-1242030D01*
X2168827Y-1232506D01*
X2159303Y-1213458D01*
X2149779Y-1175363D01*
X2149779Y-1127744D01*
X2159303Y-1089649D01*
X2168827Y-1070601D01*
X2178350Y-1061077D01*
X2197398Y-1051554D01*
X2349779Y-1232506D02*
X2359303Y-1242030D01*
X2349779Y-1251554D01*
X2340255Y-1242030D01*
X2349779Y-1232506D01*
X2349779Y-1251554D01*
X2483112Y-1051554D02*
X2502160Y-1051554D01*
X2521208Y-1061077D01*
X2530731Y-1070601D01*
X2540255Y-1089649D01*
X2549779Y-1127744D01*
X2549779Y-1175363D01*
X2540255Y-1213458D01*
X2530731Y-1232506D01*
X2521208Y-1242030D01*
X2502160Y-1251554D01*
X2483112Y-1251554D01*
X2464065Y-1242030D01*
X2454541Y-1232506D01*
X2445017Y-1213458D01*
X2435493Y-1175363D01*
X2435493Y-1127744D01*
X2445017Y-1089649D01*
X2454541Y-1070601D01*
X2464065Y-1061077D01*
X2483112Y-1051554D01*
X2625970Y-1070601D02*
X2635493Y-1061077D01*
X2654541Y-1051554D01*
X2702160Y-1051554D01*
X2721208Y-1061077D01*
X2730731Y-1070601D01*
X2740255Y-1089649D01*
X2740255Y-1108696D01*
X2730731Y-1137268D01*
X2616446Y-1251554D01*
X2740255Y-1251554D01*
X2806922Y-1051554D02*
X2940255Y-1051554D01*
X2854541Y-1251554D01*
X3102160Y-1051554D02*
X3064065Y-1051554D01*
X3045017Y-1061077D01*
X3035493Y-1070601D01*
X3016446Y-1099173D01*
X3006922Y-1137268D01*
X3006922Y-1213458D01*
X3016446Y-1232506D01*
X3025969Y-1242030D01*
X3045017Y-1251554D01*
X3083112Y-1251554D01*
X3102160Y-1242030D01*
X3111684Y-1232506D01*
X3121208Y-1213458D01*
X3121208Y-1165839D01*
X3111684Y-1146792D01*
X3102160Y-1137268D01*
X3083112Y-1127744D01*
X3045017Y-1127744D01*
X3025969Y-1137268D01*
X3016446Y-1146792D01*
X3006922Y-1165839D01*
X3197398Y-1051554D02*
X3197398Y-1089649D01*
X3273588Y-1051554D02*
X3273588Y-1089649D01*
X3568827Y-1327744D02*
X3559303Y-1318220D01*
X3540255Y-1289649D01*
X3530731Y-1270601D01*
X3521208Y-1242030D01*
X3511684Y-1194411D01*
X3511684Y-1156315D01*
X3521208Y-1108696D01*
X3530731Y-1080125D01*
X3540255Y-1061077D01*
X3559303Y-1032506D01*
X3568827Y-1022982D01*
X3635493Y-1070601D02*
X3645017Y-1061077D01*
X3664065Y-1051554D01*
X3711684Y-1051554D01*
X3730731Y-1061077D01*
X3740255Y-1070601D01*
X3749779Y-1089649D01*
X3749779Y-1108696D01*
X3740255Y-1137268D01*
X3625969Y-1251554D01*
X3749779Y-1251554D01*
X3987874Y-1251554D02*
X3987874Y-1051554D01*
X4073588Y-1251554D02*
X4073588Y-1146792D01*
X4064065Y-1127744D01*
X4045017Y-1118220D01*
X4016446Y-1118220D01*
X3997398Y-1127744D01*
X3987874Y-1137268D01*
X4197398Y-1251554D02*
X4178350Y-1242030D01*
X4168827Y-1232506D01*
X4159303Y-1213458D01*
X4159303Y-1156315D01*
X4168827Y-1137268D01*
X4178350Y-1127744D01*
X4197398Y-1118220D01*
X4225970Y-1118220D01*
X4245017Y-1127744D01*
X4254541Y-1137268D01*
X4264065Y-1156315D01*
X4264065Y-1213458D01*
X4254541Y-1232506D01*
X4245017Y-1242030D01*
X4225970Y-1251554D01*
X4197398Y-1251554D01*
X4378350Y-1251554D02*
X4359303Y-1242030D01*
X4349779Y-1222982D01*
X4349779Y-1051554D01*
X4530731Y-1242030D02*
X4511684Y-1251554D01*
X4473589Y-1251554D01*
X4454541Y-1242030D01*
X4445017Y-1222982D01*
X4445017Y-1146792D01*
X4454541Y-1127744D01*
X4473589Y-1118220D01*
X4511684Y-1118220D01*
X4530731Y-1127744D01*
X4540255Y-1146792D01*
X4540255Y-1165839D01*
X4445017Y-1184887D01*
X4616446Y-1242030D02*
X4635493Y-1251554D01*
X4673589Y-1251554D01*
X4692636Y-1242030D01*
X4702160Y-1222982D01*
X4702160Y-1213458D01*
X4692636Y-1194411D01*
X4673589Y-1184887D01*
X4645017Y-1184887D01*
X4625970Y-1175363D01*
X4616446Y-1156315D01*
X4616446Y-1146792D01*
X4625970Y-1127744D01*
X4645017Y-1118220D01*
X4673589Y-1118220D01*
X4692636Y-1127744D01*
X4768827Y-1327744D02*
X4778350Y-1318220D01*
X4797398Y-1289649D01*
X4806922Y-1270601D01*
X4816446Y-1242030D01*
X4825970Y-1194411D01*
X4825970Y-1156315D01*
X4816446Y-1108696D01*
X4806922Y-1080125D01*
X4797398Y-1061077D01*
X4778350Y-1032506D01*
X4768827Y-1022982D01*
D15*
X-14794Y-1453362D02*
X-14794Y-1396793D01*
X-71363Y-1396793D01*
X-71363Y-1453362D01*
X-14794Y-1453362D01*
D11*
X292636Y-1315554D02*
X311684Y-1315554D01*
X330731Y-1325077D01*
X340255Y-1334601D01*
X349779Y-1353649D01*
X359303Y-1391744D01*
X359303Y-1439363D01*
X349779Y-1477458D01*
X340255Y-1496506D01*
X330731Y-1506030D01*
X311684Y-1515553D01*
X292636Y-1515553D01*
X273589Y-1506030D01*
X264065Y-1496506D01*
X254541Y-1477458D01*
X245017Y-1439363D01*
X245017Y-1391744D01*
X254541Y-1353649D01*
X264065Y-1334601D01*
X273589Y-1325077D01*
X292636Y-1315554D01*
X445017Y-1496506D02*
X454541Y-1506030D01*
X445017Y-1515553D01*
X435493Y-1506030D01*
X445017Y-1496506D01*
X445017Y-1515553D01*
X568827Y-1401268D02*
X549779Y-1391744D01*
X540255Y-1382220D01*
X530731Y-1363173D01*
X530731Y-1353649D01*
X540255Y-1334601D01*
X549779Y-1325077D01*
X568827Y-1315554D01*
X606922Y-1315554D01*
X625970Y-1325077D01*
X635493Y-1334601D01*
X645017Y-1353649D01*
X645017Y-1363173D01*
X635493Y-1382220D01*
X625970Y-1391744D01*
X606922Y-1401268D01*
X568827Y-1401268D01*
X549779Y-1410792D01*
X540255Y-1420315D01*
X530731Y-1439363D01*
X530731Y-1477458D01*
X540255Y-1496506D01*
X549779Y-1506030D01*
X568827Y-1515553D01*
X606922Y-1515553D01*
X625970Y-1506030D01*
X635493Y-1496506D01*
X645017Y-1477458D01*
X645017Y-1439363D01*
X635493Y-1420315D01*
X625970Y-1410792D01*
X606922Y-1401268D01*
X768827Y-1315554D02*
X787874Y-1315554D01*
X806922Y-1325077D01*
X816446Y-1334601D01*
X825969Y-1353649D01*
X835493Y-1391744D01*
X835493Y-1439363D01*
X825969Y-1477458D01*
X816446Y-1496506D01*
X806922Y-1506030D01*
X787874Y-1515553D01*
X768827Y-1515553D01*
X749779Y-1506030D01*
X740255Y-1496506D01*
X730731Y-1477458D01*
X721208Y-1439363D01*
X721208Y-1391744D01*
X730731Y-1353649D01*
X740255Y-1334601D01*
X749779Y-1325077D01*
X768827Y-1315554D01*
X959303Y-1315554D02*
X978350Y-1315554D01*
X997398Y-1325077D01*
X1006922Y-1334601D01*
X1016446Y-1353649D01*
X1025969Y-1391744D01*
X1025969Y-1439363D01*
X1016446Y-1477458D01*
X1006922Y-1496506D01*
X997398Y-1506030D01*
X978350Y-1515553D01*
X959303Y-1515553D01*
X940255Y-1506030D01*
X930731Y-1496506D01*
X921208Y-1477458D01*
X911684Y-1439363D01*
X911684Y-1391744D01*
X921208Y-1353649D01*
X930731Y-1334601D01*
X940255Y-1325077D01*
X959303Y-1315554D01*
X1111684Y-1515553D02*
X1111684Y-1382220D01*
X1111684Y-1401268D02*
X1121208Y-1391744D01*
X1140255Y-1382220D01*
X1168827Y-1382220D01*
X1187874Y-1391744D01*
X1197398Y-1410792D01*
X1197398Y-1515553D01*
X1197398Y-1410792D02*
X1206922Y-1391744D01*
X1225970Y-1382220D01*
X1254541Y-1382220D01*
X1273589Y-1391744D01*
X1283112Y-1410792D01*
X1283112Y-1515553D01*
X1378350Y-1515553D02*
X1378350Y-1382220D01*
X1378350Y-1401268D02*
X1387874Y-1391744D01*
X1406922Y-1382220D01*
X1435493Y-1382220D01*
X1454541Y-1391744D01*
X1464065Y-1410792D01*
X1464065Y-1515553D01*
X1464065Y-1410792D02*
X1473588Y-1391744D01*
X1492636Y-1382220D01*
X1521208Y-1382220D01*
X1540255Y-1391744D01*
X1549779Y-1410792D01*
X1549779Y-1515553D01*
X1940255Y-1306030D02*
X1768827Y-1563173D01*
X2197398Y-1315554D02*
X2216446Y-1315554D01*
X2235493Y-1325077D01*
X2245017Y-1334601D01*
X2254541Y-1353649D01*
X2264065Y-1391744D01*
X2264065Y-1439363D01*
X2254541Y-1477458D01*
X2245017Y-1496506D01*
X2235493Y-1506030D01*
X2216446Y-1515553D01*
X2197398Y-1515553D01*
X2178350Y-1506030D01*
X2168827Y-1496506D01*
X2159303Y-1477458D01*
X2149779Y-1439363D01*
X2149779Y-1391744D01*
X2159303Y-1353649D01*
X2168827Y-1334601D01*
X2178350Y-1325077D01*
X2197398Y-1315554D01*
X2349779Y-1496506D02*
X2359303Y-1506030D01*
X2349779Y-1515553D01*
X2340255Y-1506030D01*
X2349779Y-1496506D01*
X2349779Y-1515553D01*
X2483112Y-1315554D02*
X2502160Y-1315554D01*
X2521208Y-1325077D01*
X2530731Y-1334601D01*
X2540255Y-1353649D01*
X2549779Y-1391744D01*
X2549779Y-1439363D01*
X2540255Y-1477458D01*
X2530731Y-1496506D01*
X2521208Y-1506030D01*
X2502160Y-1515553D01*
X2483112Y-1515553D01*
X2464065Y-1506030D01*
X2454541Y-1496506D01*
X2445017Y-1477458D01*
X2435493Y-1439363D01*
X2435493Y-1391744D01*
X2445017Y-1353649D01*
X2454541Y-1334601D01*
X2464065Y-1325077D01*
X2483112Y-1315554D01*
X2616446Y-1315554D02*
X2740255Y-1315554D01*
X2673589Y-1391744D01*
X2702160Y-1391744D01*
X2721208Y-1401268D01*
X2730731Y-1410792D01*
X2740255Y-1429839D01*
X2740255Y-1477458D01*
X2730731Y-1496506D01*
X2721208Y-1506030D01*
X2702160Y-1515553D01*
X2645017Y-1515553D01*
X2625970Y-1506030D01*
X2616446Y-1496506D01*
X2930731Y-1515553D02*
X2816446Y-1515553D01*
X2873588Y-1515553D02*
X2873588Y-1315554D01*
X2854541Y-1344125D01*
X2835493Y-1363173D01*
X2816446Y-1372696D01*
X3111684Y-1315554D02*
X3016446Y-1315554D01*
X3006922Y-1410792D01*
X3016446Y-1401268D01*
X3035493Y-1391744D01*
X3083112Y-1391744D01*
X3102160Y-1401268D01*
X3111684Y-1410792D01*
X3121208Y-1429839D01*
X3121208Y-1477458D01*
X3111684Y-1496506D01*
X3102160Y-1506030D01*
X3083112Y-1515553D01*
X3035493Y-1515553D01*
X3016446Y-1506030D01*
X3006922Y-1496506D01*
X3197398Y-1315554D02*
X3197398Y-1353649D01*
X3273588Y-1315554D02*
X3273588Y-1353649D01*
X3568827Y-1591744D02*
X3559303Y-1582220D01*
X3540255Y-1553649D01*
X3530731Y-1534601D01*
X3521208Y-1506030D01*
X3511684Y-1458411D01*
X3511684Y-1420315D01*
X3521208Y-1372696D01*
X3530731Y-1344125D01*
X3540255Y-1325077D01*
X3559303Y-1296506D01*
X3568827Y-1286982D01*
X3749779Y-1515553D02*
X3635493Y-1515553D01*
X3692636Y-1515553D02*
X3692636Y-1315554D01*
X3673588Y-1344125D01*
X3654541Y-1363173D01*
X3635493Y-1372696D01*
X3921208Y-1315554D02*
X3883112Y-1315554D01*
X3864065Y-1325077D01*
X3854541Y-1334601D01*
X3835493Y-1363173D01*
X3825969Y-1401268D01*
X3825969Y-1477458D01*
X3835493Y-1496506D01*
X3845017Y-1506030D01*
X3864065Y-1515553D01*
X3902160Y-1515553D01*
X3921208Y-1506030D01*
X3930731Y-1496506D01*
X3940255Y-1477458D01*
X3940255Y-1429839D01*
X3930731Y-1410792D01*
X3921208Y-1401268D01*
X3902160Y-1391744D01*
X3864065Y-1391744D01*
X3845017Y-1401268D01*
X3835493Y-1410792D01*
X3825969Y-1429839D01*
X4006922Y-1315554D02*
X4140255Y-1315554D01*
X4054541Y-1515553D01*
X4368827Y-1515553D02*
X4368827Y-1315554D01*
X4454541Y-1515553D02*
X4454541Y-1410792D01*
X4445017Y-1391744D01*
X4425970Y-1382220D01*
X4397398Y-1382220D01*
X4378350Y-1391744D01*
X4368827Y-1401268D01*
X4578350Y-1515553D02*
X4559303Y-1506030D01*
X4549779Y-1496506D01*
X4540255Y-1477458D01*
X4540255Y-1420315D01*
X4549779Y-1401268D01*
X4559303Y-1391744D01*
X4578350Y-1382220D01*
X4606922Y-1382220D01*
X4625970Y-1391744D01*
X4635493Y-1401268D01*
X4645017Y-1420315D01*
X4645017Y-1477458D01*
X4635493Y-1496506D01*
X4625970Y-1506030D01*
X4606922Y-1515553D01*
X4578350Y-1515553D01*
X4759303Y-1515553D02*
X4740255Y-1506030D01*
X4730731Y-1486982D01*
X4730731Y-1315554D01*
X4911684Y-1506030D02*
X4892636Y-1515553D01*
X4854541Y-1515553D01*
X4835493Y-1506030D01*
X4825970Y-1486982D01*
X4825970Y-1410792D01*
X4835493Y-1391744D01*
X4854541Y-1382220D01*
X4892636Y-1382220D01*
X4911684Y-1391744D01*
X4921208Y-1410792D01*
X4921208Y-1429839D01*
X4825970Y-1448887D01*
X4997398Y-1506030D02*
X5016446Y-1515553D01*
X5054541Y-1515553D01*
X5073589Y-1506030D01*
X5083112Y-1486982D01*
X5083112Y-1477458D01*
X5073589Y-1458411D01*
X5054541Y-1448887D01*
X5025970Y-1448887D01*
X5006922Y-1439363D01*
X4997398Y-1420315D01*
X4997398Y-1410792D01*
X5006922Y-1391744D01*
X5025970Y-1382220D01*
X5054541Y-1382220D01*
X5073589Y-1391744D01*
X5149779Y-1591744D02*
X5159303Y-1582220D01*
X5178350Y-1553649D01*
X5187874Y-1534601D01*
X5197398Y-1506030D01*
X5206922Y-1458411D01*
X5206922Y-1420315D01*
X5197398Y-1372696D01*
X5187874Y-1344125D01*
X5178350Y-1325077D01*
X5159303Y-1296506D01*
X5149779Y-1286982D01*
D16*
X-53078Y-1739077D02*
X-3078Y-1689077D01*
X-53078Y-1639077D01*
X-103078Y-1689077D01*
X-53078Y-1739077D01*
D11*
X359303Y-1779553D02*
X245017Y-1779553D01*
X302160Y-1779553D02*
X302160Y-1579553D01*
X283112Y-1608125D01*
X264065Y-1627173D01*
X245017Y-1636696D01*
X445017Y-1760506D02*
X454541Y-1770030D01*
X445017Y-1779553D01*
X435493Y-1770030D01*
X445017Y-1760506D01*
X445017Y-1779553D01*
X578350Y-1579553D02*
X597398Y-1579553D01*
X616446Y-1589077D01*
X625970Y-1598601D01*
X635493Y-1617649D01*
X645017Y-1655744D01*
X645017Y-1703363D01*
X635493Y-1741458D01*
X625970Y-1760506D01*
X616446Y-1770030D01*
X597398Y-1779553D01*
X578350Y-1779553D01*
X559303Y-1770030D01*
X549779Y-1760506D01*
X540255Y-1741458D01*
X530731Y-1703363D01*
X530731Y-1655744D01*
X540255Y-1617649D01*
X549779Y-1598601D01*
X559303Y-1589077D01*
X578350Y-1579553D01*
X768827Y-1579553D02*
X787874Y-1579553D01*
X806922Y-1589077D01*
X816446Y-1598601D01*
X825969Y-1617649D01*
X835493Y-1655744D01*
X835493Y-1703363D01*
X825969Y-1741458D01*
X816446Y-1760506D01*
X806922Y-1770030D01*
X787874Y-1779553D01*
X768827Y-1779553D01*
X749779Y-1770030D01*
X740255Y-1760506D01*
X730731Y-1741458D01*
X721208Y-1703363D01*
X721208Y-1655744D01*
X730731Y-1617649D01*
X740255Y-1598601D01*
X749779Y-1589077D01*
X768827Y-1579553D01*
X959303Y-1579553D02*
X978350Y-1579553D01*
X997398Y-1589077D01*
X1006922Y-1598601D01*
X1016446Y-1617649D01*
X1025969Y-1655744D01*
X1025969Y-1703363D01*
X1016446Y-1741458D01*
X1006922Y-1760506D01*
X997398Y-1770030D01*
X978350Y-1779553D01*
X959303Y-1779553D01*
X940255Y-1770030D01*
X930731Y-1760506D01*
X921208Y-1741458D01*
X911684Y-1703363D01*
X911684Y-1655744D01*
X921208Y-1617649D01*
X930731Y-1598601D01*
X940255Y-1589077D01*
X959303Y-1579553D01*
X1111684Y-1779553D02*
X1111684Y-1646220D01*
X1111684Y-1665268D02*
X1121208Y-1655744D01*
X1140255Y-1646220D01*
X1168827Y-1646220D01*
X1187874Y-1655744D01*
X1197398Y-1674792D01*
X1197398Y-1779553D01*
X1197398Y-1674792D02*
X1206922Y-1655744D01*
X1225970Y-1646220D01*
X1254541Y-1646220D01*
X1273589Y-1655744D01*
X1283112Y-1674792D01*
X1283112Y-1779553D01*
X1378350Y-1779553D02*
X1378350Y-1646220D01*
X1378350Y-1665268D02*
X1387874Y-1655744D01*
X1406922Y-1646220D01*
X1435493Y-1646220D01*
X1454541Y-1655744D01*
X1464065Y-1674792D01*
X1464065Y-1779553D01*
X1464065Y-1674792D02*
X1473588Y-1655744D01*
X1492636Y-1646220D01*
X1521208Y-1646220D01*
X1540255Y-1655744D01*
X1549779Y-1674792D01*
X1549779Y-1779553D01*
X1940255Y-1570030D02*
X1768827Y-1827173D01*
X2197398Y-1579553D02*
X2216446Y-1579553D01*
X2235493Y-1589077D01*
X2245017Y-1598601D01*
X2254541Y-1617649D01*
X2264065Y-1655744D01*
X2264065Y-1703363D01*
X2254541Y-1741458D01*
X2245017Y-1760506D01*
X2235493Y-1770030D01*
X2216446Y-1779553D01*
X2197398Y-1779553D01*
X2178350Y-1770030D01*
X2168827Y-1760506D01*
X2159303Y-1741458D01*
X2149779Y-1703363D01*
X2149779Y-1655744D01*
X2159303Y-1617649D01*
X2168827Y-1598601D01*
X2178350Y-1589077D01*
X2197398Y-1579553D01*
X2349779Y-1760506D02*
X2359303Y-1770030D01*
X2349779Y-1779553D01*
X2340255Y-1770030D01*
X2349779Y-1760506D01*
X2349779Y-1779553D01*
X2483112Y-1579553D02*
X2502160Y-1579553D01*
X2521208Y-1589077D01*
X2530731Y-1598601D01*
X2540255Y-1617649D01*
X2549779Y-1655744D01*
X2549779Y-1703363D01*
X2540255Y-1741458D01*
X2530731Y-1760506D01*
X2521208Y-1770030D01*
X2502160Y-1779553D01*
X2483112Y-1779553D01*
X2464065Y-1770030D01*
X2454541Y-1760506D01*
X2445017Y-1741458D01*
X2435493Y-1703363D01*
X2435493Y-1655744D01*
X2445017Y-1617649D01*
X2454541Y-1598601D01*
X2464065Y-1589077D01*
X2483112Y-1579553D01*
X2616446Y-1579553D02*
X2740255Y-1579553D01*
X2673589Y-1655744D01*
X2702160Y-1655744D01*
X2721208Y-1665268D01*
X2730731Y-1674792D01*
X2740255Y-1693839D01*
X2740255Y-1741458D01*
X2730731Y-1760506D01*
X2721208Y-1770030D01*
X2702160Y-1779553D01*
X2645017Y-1779553D01*
X2625970Y-1770030D01*
X2616446Y-1760506D01*
X2835493Y-1779553D02*
X2873588Y-1779553D01*
X2892636Y-1770030D01*
X2902160Y-1760506D01*
X2921208Y-1731934D01*
X2930731Y-1693839D01*
X2930731Y-1617649D01*
X2921208Y-1598601D01*
X2911684Y-1589077D01*
X2892636Y-1579553D01*
X2854541Y-1579553D01*
X2835493Y-1589077D01*
X2825969Y-1598601D01*
X2816446Y-1617649D01*
X2816446Y-1665268D01*
X2825969Y-1684315D01*
X2835493Y-1693839D01*
X2854541Y-1703363D01*
X2892636Y-1703363D01*
X2911684Y-1693839D01*
X2921208Y-1684315D01*
X2930731Y-1665268D01*
X3102160Y-1646220D02*
X3102160Y-1779553D01*
X3054541Y-1570030D02*
X3006922Y-1712887D01*
X3130731Y-1712887D01*
X3197398Y-1579553D02*
X3197398Y-1617649D01*
X3273588Y-1579553D02*
X3273588Y-1617649D01*
X3568827Y-1855744D02*
X3559303Y-1846220D01*
X3540255Y-1817649D01*
X3530731Y-1798601D01*
X3521208Y-1770030D01*
X3511684Y-1722411D01*
X3511684Y-1684315D01*
X3521208Y-1636696D01*
X3530731Y-1608125D01*
X3540255Y-1589077D01*
X3559303Y-1560506D01*
X3568827Y-1550982D01*
X3635493Y-1598601D02*
X3645017Y-1589077D01*
X3664065Y-1579553D01*
X3711684Y-1579553D01*
X3730731Y-1589077D01*
X3740255Y-1598601D01*
X3749779Y-1617649D01*
X3749779Y-1636696D01*
X3740255Y-1665268D01*
X3625969Y-1779553D01*
X3749779Y-1779553D01*
X3930731Y-1579553D02*
X3835493Y-1579553D01*
X3825969Y-1674792D01*
X3835493Y-1665268D01*
X3854541Y-1655744D01*
X3902160Y-1655744D01*
X3921208Y-1665268D01*
X3930731Y-1674792D01*
X3940255Y-1693839D01*
X3940255Y-1741458D01*
X3930731Y-1760506D01*
X3921208Y-1770030D01*
X3902160Y-1779553D01*
X3854541Y-1779553D01*
X3835493Y-1770030D01*
X3825969Y-1760506D01*
X4178350Y-1779553D02*
X4178350Y-1579553D01*
X4264065Y-1779553D02*
X4264065Y-1674792D01*
X4254541Y-1655744D01*
X4235493Y-1646220D01*
X4206922Y-1646220D01*
X4187874Y-1655744D01*
X4178350Y-1665268D01*
X4387874Y-1779553D02*
X4368827Y-1770030D01*
X4359303Y-1760506D01*
X4349779Y-1741458D01*
X4349779Y-1684315D01*
X4359303Y-1665268D01*
X4368827Y-1655744D01*
X4387874Y-1646220D01*
X4416446Y-1646220D01*
X4435493Y-1655744D01*
X4445017Y-1665268D01*
X4454541Y-1684315D01*
X4454541Y-1741458D01*
X4445017Y-1760506D01*
X4435493Y-1770030D01*
X4416446Y-1779553D01*
X4387874Y-1779553D01*
X4568827Y-1779553D02*
X4549779Y-1770030D01*
X4540255Y-1750982D01*
X4540255Y-1579553D01*
X4721208Y-1770030D02*
X4702160Y-1779553D01*
X4664065Y-1779553D01*
X4645017Y-1770030D01*
X4635493Y-1750982D01*
X4635493Y-1674792D01*
X4645017Y-1655744D01*
X4664065Y-1646220D01*
X4702160Y-1646220D01*
X4721208Y-1655744D01*
X4730731Y-1674792D01*
X4730731Y-1693839D01*
X4635493Y-1712887D01*
X4806922Y-1770030D02*
X4825970Y-1779553D01*
X4864065Y-1779553D01*
X4883112Y-1770030D01*
X4892636Y-1750982D01*
X4892636Y-1741458D01*
X4883112Y-1722411D01*
X4864065Y-1712887D01*
X4835493Y-1712887D01*
X4816446Y-1703363D01*
X4806922Y-1684315D01*
X4806922Y-1674792D01*
X4816446Y-1655744D01*
X4835493Y-1646220D01*
X4864065Y-1646220D01*
X4883112Y-1655744D01*
X5130731Y-1703363D02*
X5283112Y-1703363D01*
X5206922Y-1779553D02*
X5206922Y-1627173D01*
X5616446Y-1646220D02*
X5616446Y-1779553D01*
X5568827Y-1570030D02*
X5521208Y-1712887D01*
X5645017Y-1712887D01*
X5864065Y-1770030D02*
X5883112Y-1779553D01*
X5921208Y-1779553D01*
X5940255Y-1770030D01*
X5949779Y-1750982D01*
X5949779Y-1741458D01*
X5940255Y-1722411D01*
X5921208Y-1712887D01*
X5892636Y-1712887D01*
X5873588Y-1703363D01*
X5864065Y-1684315D01*
X5864065Y-1674792D01*
X5873588Y-1655744D01*
X5892636Y-1646220D01*
X5921208Y-1646220D01*
X5940255Y-1655744D01*
X6064065Y-1779553D02*
X6045017Y-1770030D01*
X6035493Y-1750982D01*
X6035493Y-1579553D01*
X6168827Y-1779553D02*
X6149779Y-1770030D01*
X6140255Y-1760506D01*
X6130731Y-1741458D01*
X6130731Y-1684315D01*
X6140255Y-1665268D01*
X6149779Y-1655744D01*
X6168827Y-1646220D01*
X6197398Y-1646220D01*
X6216446Y-1655744D01*
X6225969Y-1665268D01*
X6235493Y-1684315D01*
X6235493Y-1741458D01*
X6225969Y-1760506D01*
X6216446Y-1770030D01*
X6197398Y-1779553D01*
X6168827Y-1779553D01*
X6292636Y-1646220D02*
X6368827Y-1646220D01*
X6321208Y-1579553D02*
X6321208Y-1750982D01*
X6330731Y-1770030D01*
X6349779Y-1779553D01*
X6368827Y-1779553D01*
X6425969Y-1770030D02*
X6445017Y-1779553D01*
X6483112Y-1779553D01*
X6502160Y-1770030D01*
X6511684Y-1750982D01*
X6511684Y-1741458D01*
X6502160Y-1722411D01*
X6483112Y-1712887D01*
X6454541Y-1712887D01*
X6435493Y-1703363D01*
X6425969Y-1684315D01*
X6425969Y-1674792D01*
X6435493Y-1655744D01*
X6454541Y-1646220D01*
X6483112Y-1646220D01*
X6502160Y-1655744D01*
X6578350Y-1855744D02*
X6587874Y-1846220D01*
X6606922Y-1817649D01*
X6616446Y-1798601D01*
X6625969Y-1770030D01*
X6635493Y-1722411D01*
X6635493Y-1684315D01*
X6625969Y-1636696D01*
X6616446Y-1608125D01*
X6606922Y-1589077D01*
X6587874Y-1560506D01*
X6578350Y-1550982D01*
D17*
X-113078Y-1898077D02*
X-3078Y-2008077D01*
X-3078Y-1898077D02*
X-113078Y-2008077D01*
X-3078Y-1953077D02*
G75*
G03*
X-3078Y-1953077I-55000J0D01*
G01*
D11*
X359303Y-2043553D02*
X245017Y-2043553D01*
X302160Y-2043553D02*
X302160Y-1843553D01*
X283112Y-1872125D01*
X264065Y-1891173D01*
X245017Y-1900696D01*
X445017Y-2024506D02*
X454541Y-2034030D01*
X445017Y-2043553D01*
X435493Y-2034030D01*
X445017Y-2024506D01*
X445017Y-2043553D01*
X645017Y-2043553D02*
X530731Y-2043553D01*
X587874Y-2043553D02*
X587874Y-1843553D01*
X568827Y-1872125D01*
X549779Y-1891173D01*
X530731Y-1900696D01*
X768827Y-1843553D02*
X787874Y-1843553D01*
X806922Y-1853077D01*
X816446Y-1862601D01*
X825969Y-1881649D01*
X835493Y-1919744D01*
X835493Y-1967363D01*
X825969Y-2005458D01*
X816446Y-2024506D01*
X806922Y-2034030D01*
X787874Y-2043553D01*
X768827Y-2043553D01*
X749779Y-2034030D01*
X740255Y-2024506D01*
X730731Y-2005458D01*
X721208Y-1967363D01*
X721208Y-1919744D01*
X730731Y-1881649D01*
X740255Y-1862601D01*
X749779Y-1853077D01*
X768827Y-1843553D01*
X959303Y-1843553D02*
X978350Y-1843553D01*
X997398Y-1853077D01*
X1006922Y-1862601D01*
X1016446Y-1881649D01*
X1025969Y-1919744D01*
X1025969Y-1967363D01*
X1016446Y-2005458D01*
X1006922Y-2024506D01*
X997398Y-2034030D01*
X978350Y-2043553D01*
X959303Y-2043553D01*
X940255Y-2034030D01*
X930731Y-2024506D01*
X921208Y-2005458D01*
X911684Y-1967363D01*
X911684Y-1919744D01*
X921208Y-1881649D01*
X930731Y-1862601D01*
X940255Y-1853077D01*
X959303Y-1843553D01*
X1111684Y-2043553D02*
X1111684Y-1910220D01*
X1111684Y-1929268D02*
X1121208Y-1919744D01*
X1140255Y-1910220D01*
X1168827Y-1910220D01*
X1187874Y-1919744D01*
X1197398Y-1938792D01*
X1197398Y-2043553D01*
X1197398Y-1938792D02*
X1206922Y-1919744D01*
X1225970Y-1910220D01*
X1254541Y-1910220D01*
X1273589Y-1919744D01*
X1283112Y-1938792D01*
X1283112Y-2043553D01*
X1378350Y-2043553D02*
X1378350Y-1910220D01*
X1378350Y-1929268D02*
X1387874Y-1919744D01*
X1406922Y-1910220D01*
X1435493Y-1910220D01*
X1454541Y-1919744D01*
X1464065Y-1938792D01*
X1464065Y-2043553D01*
X1464065Y-1938792D02*
X1473588Y-1919744D01*
X1492636Y-1910220D01*
X1521208Y-1910220D01*
X1540255Y-1919744D01*
X1549779Y-1938792D01*
X1549779Y-2043553D01*
X1940255Y-1834030D02*
X1768827Y-2091173D01*
X2197398Y-1843553D02*
X2216446Y-1843553D01*
X2235493Y-1853077D01*
X2245017Y-1862601D01*
X2254541Y-1881649D01*
X2264065Y-1919744D01*
X2264065Y-1967363D01*
X2254541Y-2005458D01*
X2245017Y-2024506D01*
X2235493Y-2034030D01*
X2216446Y-2043553D01*
X2197398Y-2043553D01*
X2178350Y-2034030D01*
X2168827Y-2024506D01*
X2159303Y-2005458D01*
X2149779Y-1967363D01*
X2149779Y-1919744D01*
X2159303Y-1881649D01*
X2168827Y-1862601D01*
X2178350Y-1853077D01*
X2197398Y-1843553D01*
X2349779Y-2024506D02*
X2359303Y-2034030D01*
X2349779Y-2043553D01*
X2340255Y-2034030D01*
X2349779Y-2024506D01*
X2349779Y-2043553D01*
X2483112Y-1843553D02*
X2502160Y-1843553D01*
X2521208Y-1853077D01*
X2530731Y-1862601D01*
X2540255Y-1881649D01*
X2549779Y-1919744D01*
X2549779Y-1967363D01*
X2540255Y-2005458D01*
X2530731Y-2024506D01*
X2521208Y-2034030D01*
X2502160Y-2043553D01*
X2483112Y-2043553D01*
X2464065Y-2034030D01*
X2454541Y-2024506D01*
X2445017Y-2005458D01*
X2435493Y-1967363D01*
X2435493Y-1919744D01*
X2445017Y-1881649D01*
X2454541Y-1862601D01*
X2464065Y-1853077D01*
X2483112Y-1843553D01*
X2721208Y-1910220D02*
X2721208Y-2043553D01*
X2673589Y-1834030D02*
X2625970Y-1976887D01*
X2749779Y-1976887D01*
X2806922Y-1843553D02*
X2930731Y-1843553D01*
X2864065Y-1919744D01*
X2892636Y-1919744D01*
X2911684Y-1929268D01*
X2921208Y-1938792D01*
X2930731Y-1957839D01*
X2930731Y-2005458D01*
X2921208Y-2024506D01*
X2911684Y-2034030D01*
X2892636Y-2043553D01*
X2835493Y-2043553D01*
X2816446Y-2034030D01*
X2806922Y-2024506D01*
X2997398Y-1843553D02*
X3121208Y-1843553D01*
X3054541Y-1919744D01*
X3083112Y-1919744D01*
X3102160Y-1929268D01*
X3111684Y-1938792D01*
X3121208Y-1957839D01*
X3121208Y-2005458D01*
X3111684Y-2024506D01*
X3102160Y-2034030D01*
X3083112Y-2043553D01*
X3025969Y-2043553D01*
X3006922Y-2034030D01*
X2997398Y-2024506D01*
X3197398Y-1843553D02*
X3197398Y-1881649D01*
X3273588Y-1843553D02*
X3273588Y-1881649D01*
X3568827Y-2119744D02*
X3559303Y-2110220D01*
X3540255Y-2081649D01*
X3530731Y-2062601D01*
X3521208Y-2034030D01*
X3511684Y-1986411D01*
X3511684Y-1948315D01*
X3521208Y-1900696D01*
X3530731Y-1872125D01*
X3540255Y-1853077D01*
X3559303Y-1824506D01*
X3568827Y-1814982D01*
X3673588Y-1929268D02*
X3654541Y-1919744D01*
X3645017Y-1910220D01*
X3635493Y-1891173D01*
X3635493Y-1881649D01*
X3645017Y-1862601D01*
X3654541Y-1853077D01*
X3673588Y-1843553D01*
X3711684Y-1843553D01*
X3730731Y-1853077D01*
X3740255Y-1862601D01*
X3749779Y-1881649D01*
X3749779Y-1891173D01*
X3740255Y-1910220D01*
X3730731Y-1919744D01*
X3711684Y-1929268D01*
X3673588Y-1929268D01*
X3654541Y-1938792D01*
X3645017Y-1948315D01*
X3635493Y-1967363D01*
X3635493Y-2005458D01*
X3645017Y-2024506D01*
X3654541Y-2034030D01*
X3673588Y-2043553D01*
X3711684Y-2043553D01*
X3730731Y-2034030D01*
X3740255Y-2024506D01*
X3749779Y-2005458D01*
X3749779Y-1967363D01*
X3740255Y-1948315D01*
X3730731Y-1938792D01*
X3711684Y-1929268D01*
X3987874Y-2043553D02*
X3987874Y-1843553D01*
X4073588Y-2043553D02*
X4073588Y-1938792D01*
X4064065Y-1919744D01*
X4045017Y-1910220D01*
X4016446Y-1910220D01*
X3997398Y-1919744D01*
X3987874Y-1929268D01*
X4197398Y-2043553D02*
X4178350Y-2034030D01*
X4168827Y-2024506D01*
X4159303Y-2005458D01*
X4159303Y-1948315D01*
X4168827Y-1929268D01*
X4178350Y-1919744D01*
X4197398Y-1910220D01*
X4225970Y-1910220D01*
X4245017Y-1919744D01*
X4254541Y-1929268D01*
X4264065Y-1948315D01*
X4264065Y-2005458D01*
X4254541Y-2024506D01*
X4245017Y-2034030D01*
X4225970Y-2043553D01*
X4197398Y-2043553D01*
X4378350Y-2043553D02*
X4359303Y-2034030D01*
X4349779Y-2014982D01*
X4349779Y-1843553D01*
X4530731Y-2034030D02*
X4511684Y-2043553D01*
X4473589Y-2043553D01*
X4454541Y-2034030D01*
X4445017Y-2014982D01*
X4445017Y-1938792D01*
X4454541Y-1919744D01*
X4473589Y-1910220D01*
X4511684Y-1910220D01*
X4530731Y-1919744D01*
X4540255Y-1938792D01*
X4540255Y-1957839D01*
X4445017Y-1976887D01*
X4616446Y-2034030D02*
X4635493Y-2043553D01*
X4673589Y-2043553D01*
X4692636Y-2034030D01*
X4702160Y-2014982D01*
X4702160Y-2005458D01*
X4692636Y-1986411D01*
X4673589Y-1976887D01*
X4645017Y-1976887D01*
X4625970Y-1967363D01*
X4616446Y-1948315D01*
X4616446Y-1938792D01*
X4625970Y-1919744D01*
X4645017Y-1910220D01*
X4673589Y-1910220D01*
X4692636Y-1919744D01*
X4768827Y-2119744D02*
X4778350Y-2110220D01*
X4797398Y-2081649D01*
X4806922Y-2062601D01*
X4816446Y-2034030D01*
X4825970Y-1986411D01*
X4825970Y-1948315D01*
X4816446Y-1900696D01*
X4806922Y-1872125D01*
X4797398Y-1853077D01*
X4778350Y-1824506D01*
X4768827Y-1814982D01*
X-203078Y-2117077D02*
X-3078Y-2317077D01*
X-3078Y-2117077D02*
X-203078Y-2317077D01*
X-103078Y-2117077D02*
X-103078Y-2317077D01*
X-203078Y-2217077D02*
X-3078Y-2217077D01*
X245017Y-2126601D02*
X254541Y-2117077D01*
X273589Y-2107554D01*
X321208Y-2107554D01*
X340255Y-2117077D01*
X349779Y-2126601D01*
X359303Y-2145649D01*
X359303Y-2164696D01*
X349779Y-2193268D01*
X235493Y-2307554D01*
X359303Y-2307554D01*
X445017Y-2288506D02*
X454541Y-2298030D01*
X445017Y-2307554D01*
X435493Y-2298030D01*
X445017Y-2288506D01*
X445017Y-2307554D01*
X521208Y-2107554D02*
X645017Y-2107554D01*
X578350Y-2183744D01*
X606922Y-2183744D01*
X625970Y-2193268D01*
X635493Y-2202792D01*
X645017Y-2221839D01*
X645017Y-2269458D01*
X635493Y-2288506D01*
X625970Y-2298030D01*
X606922Y-2307554D01*
X549779Y-2307554D01*
X530731Y-2298030D01*
X521208Y-2288506D01*
X768827Y-2107554D02*
X787874Y-2107554D01*
X806922Y-2117077D01*
X816446Y-2126601D01*
X825969Y-2145649D01*
X835493Y-2183744D01*
X835493Y-2231363D01*
X825969Y-2269458D01*
X816446Y-2288506D01*
X806922Y-2298030D01*
X787874Y-2307554D01*
X768827Y-2307554D01*
X749779Y-2298030D01*
X740255Y-2288506D01*
X730731Y-2269458D01*
X721208Y-2231363D01*
X721208Y-2183744D01*
X730731Y-2145649D01*
X740255Y-2126601D01*
X749779Y-2117077D01*
X768827Y-2107554D01*
X959303Y-2107554D02*
X978350Y-2107554D01*
X997398Y-2117077D01*
X1006922Y-2126601D01*
X1016446Y-2145649D01*
X1025969Y-2183744D01*
X1025969Y-2231363D01*
X1016446Y-2269458D01*
X1006922Y-2288506D01*
X997398Y-2298030D01*
X978350Y-2307554D01*
X959303Y-2307554D01*
X940255Y-2298030D01*
X930731Y-2288506D01*
X921208Y-2269458D01*
X911684Y-2231363D01*
X911684Y-2183744D01*
X921208Y-2145649D01*
X930731Y-2126601D01*
X940255Y-2117077D01*
X959303Y-2107554D01*
X1111684Y-2307554D02*
X1111684Y-2174220D01*
X1111684Y-2193268D02*
X1121208Y-2183744D01*
X1140255Y-2174220D01*
X1168827Y-2174220D01*
X1187874Y-2183744D01*
X1197398Y-2202792D01*
X1197398Y-2307554D01*
X1197398Y-2202792D02*
X1206922Y-2183744D01*
X1225970Y-2174220D01*
X1254541Y-2174220D01*
X1273589Y-2183744D01*
X1283112Y-2202792D01*
X1283112Y-2307554D01*
X1378350Y-2307554D02*
X1378350Y-2174220D01*
X1378350Y-2193268D02*
X1387874Y-2183744D01*
X1406922Y-2174220D01*
X1435493Y-2174220D01*
X1454541Y-2183744D01*
X1464065Y-2202792D01*
X1464065Y-2307554D01*
X1464065Y-2202792D02*
X1473588Y-2183744D01*
X1492636Y-2174220D01*
X1521208Y-2174220D01*
X1540255Y-2183744D01*
X1549779Y-2202792D01*
X1549779Y-2307554D01*
X1940255Y-2098030D02*
X1768827Y-2355173D01*
X2197398Y-2107554D02*
X2216446Y-2107554D01*
X2235493Y-2117077D01*
X2245017Y-2126601D01*
X2254541Y-2145649D01*
X2264065Y-2183744D01*
X2264065Y-2231363D01*
X2254541Y-2269458D01*
X2245017Y-2288506D01*
X2235493Y-2298030D01*
X2216446Y-2307554D01*
X2197398Y-2307554D01*
X2178350Y-2298030D01*
X2168827Y-2288506D01*
X2159303Y-2269458D01*
X2149779Y-2231363D01*
X2149779Y-2183744D01*
X2159303Y-2145649D01*
X2168827Y-2126601D01*
X2178350Y-2117077D01*
X2197398Y-2107554D01*
X2349779Y-2288506D02*
X2359303Y-2298030D01*
X2349779Y-2307554D01*
X2340255Y-2298030D01*
X2349779Y-2288506D01*
X2349779Y-2307554D01*
X2483112Y-2107554D02*
X2502160Y-2107554D01*
X2521208Y-2117077D01*
X2530731Y-2126601D01*
X2540255Y-2145649D01*
X2549779Y-2183744D01*
X2549779Y-2231363D01*
X2540255Y-2269458D01*
X2530731Y-2288506D01*
X2521208Y-2298030D01*
X2502160Y-2307554D01*
X2483112Y-2307554D01*
X2464065Y-2298030D01*
X2454541Y-2288506D01*
X2445017Y-2269458D01*
X2435493Y-2231363D01*
X2435493Y-2183744D01*
X2445017Y-2145649D01*
X2454541Y-2126601D01*
X2464065Y-2117077D01*
X2483112Y-2107554D01*
X2645017Y-2307554D02*
X2683112Y-2307554D01*
X2702160Y-2298030D01*
X2711684Y-2288506D01*
X2730731Y-2259935D01*
X2740255Y-2221839D01*
X2740255Y-2145649D01*
X2730731Y-2126601D01*
X2721208Y-2117077D01*
X2702160Y-2107554D01*
X2664065Y-2107554D01*
X2645017Y-2117077D01*
X2635493Y-2126601D01*
X2625970Y-2145649D01*
X2625970Y-2193268D01*
X2635493Y-2212315D01*
X2645017Y-2221839D01*
X2664065Y-2231363D01*
X2702160Y-2231363D01*
X2721208Y-2221839D01*
X2730731Y-2212315D01*
X2740255Y-2193268D01*
X2864065Y-2107554D02*
X2883112Y-2107554D01*
X2902160Y-2117077D01*
X2911684Y-2126601D01*
X2921208Y-2145649D01*
X2930731Y-2183744D01*
X2930731Y-2231363D01*
X2921208Y-2269458D01*
X2911684Y-2288506D01*
X2902160Y-2298030D01*
X2883112Y-2307554D01*
X2864065Y-2307554D01*
X2845017Y-2298030D01*
X2835493Y-2288506D01*
X2825969Y-2269458D01*
X2816446Y-2231363D01*
X2816446Y-2183744D01*
X2825969Y-2145649D01*
X2835493Y-2126601D01*
X2845017Y-2117077D01*
X2864065Y-2107554D01*
X3102160Y-2107554D02*
X3064065Y-2107554D01*
X3045017Y-2117077D01*
X3035493Y-2126601D01*
X3016446Y-2155173D01*
X3006922Y-2193268D01*
X3006922Y-2269458D01*
X3016446Y-2288506D01*
X3025969Y-2298030D01*
X3045017Y-2307554D01*
X3083112Y-2307554D01*
X3102160Y-2298030D01*
X3111684Y-2288506D01*
X3121208Y-2269458D01*
X3121208Y-2221839D01*
X3111684Y-2202792D01*
X3102160Y-2193268D01*
X3083112Y-2183744D01*
X3045017Y-2183744D01*
X3025969Y-2193268D01*
X3016446Y-2202792D01*
X3006922Y-2221839D01*
X3197398Y-2107554D02*
X3197398Y-2145649D01*
X3273588Y-2107554D02*
X3273588Y-2145649D01*
X3568827Y-2383744D02*
X3559303Y-2374220D01*
X3540255Y-2345649D01*
X3530731Y-2326601D01*
X3521208Y-2298030D01*
X3511684Y-2250411D01*
X3511684Y-2212315D01*
X3521208Y-2164696D01*
X3530731Y-2136125D01*
X3540255Y-2117077D01*
X3559303Y-2088506D01*
X3568827Y-2078982D01*
X3635493Y-2126601D02*
X3645017Y-2117077D01*
X3664065Y-2107554D01*
X3711684Y-2107554D01*
X3730731Y-2117077D01*
X3740255Y-2126601D01*
X3749779Y-2145649D01*
X3749779Y-2164696D01*
X3740255Y-2193268D01*
X3625969Y-2307554D01*
X3749779Y-2307554D01*
X3987874Y-2307554D02*
X3987874Y-2107554D01*
X4073588Y-2307554D02*
X4073588Y-2202792D01*
X4064065Y-2183744D01*
X4045017Y-2174220D01*
X4016446Y-2174220D01*
X3997398Y-2183744D01*
X3987874Y-2193268D01*
X4197398Y-2307554D02*
X4178350Y-2298030D01*
X4168827Y-2288506D01*
X4159303Y-2269458D01*
X4159303Y-2212315D01*
X4168827Y-2193268D01*
X4178350Y-2183744D01*
X4197398Y-2174220D01*
X4225970Y-2174220D01*
X4245017Y-2183744D01*
X4254541Y-2193268D01*
X4264065Y-2212315D01*
X4264065Y-2269458D01*
X4254541Y-2288506D01*
X4245017Y-2298030D01*
X4225970Y-2307554D01*
X4197398Y-2307554D01*
X4378350Y-2307554D02*
X4359303Y-2298030D01*
X4349779Y-2278982D01*
X4349779Y-2107554D01*
X4530731Y-2298030D02*
X4511684Y-2307554D01*
X4473589Y-2307554D01*
X4454541Y-2298030D01*
X4445017Y-2278982D01*
X4445017Y-2202792D01*
X4454541Y-2183744D01*
X4473589Y-2174220D01*
X4511684Y-2174220D01*
X4530731Y-2183744D01*
X4540255Y-2202792D01*
X4540255Y-2221839D01*
X4445017Y-2240887D01*
X4616446Y-2298030D02*
X4635493Y-2307554D01*
X4673589Y-2307554D01*
X4692636Y-2298030D01*
X4702160Y-2278982D01*
X4702160Y-2269458D01*
X4692636Y-2250411D01*
X4673589Y-2240887D01*
X4645017Y-2240887D01*
X4625970Y-2231363D01*
X4616446Y-2212315D01*
X4616446Y-2202792D01*
X4625970Y-2183744D01*
X4645017Y-2174220D01*
X4673589Y-2174220D01*
X4692636Y-2183744D01*
X4768827Y-2383744D02*
X4778350Y-2374220D01*
X4797398Y-2345649D01*
X4806922Y-2326601D01*
X4816446Y-2298030D01*
X4825970Y-2250411D01*
X4825970Y-2212315D01*
X4816446Y-2164696D01*
X4806922Y-2136125D01*
X4797398Y-2117077D01*
X4778350Y-2088506D01*
X4768827Y-2078982D01*
X-203078Y-2437077D02*
X-3078Y-2637077D01*
X-3078Y-2437077D02*
X-203078Y-2637077D01*
X-32367Y-2607789D02*
X-32367Y-2466366D01*
X-173790Y-2466366D01*
X-173790Y-2607789D01*
X-32367Y-2607789D01*
X235493Y-2427554D02*
X359303Y-2427554D01*
X292636Y-2503744D01*
X321208Y-2503744D01*
X340255Y-2513268D01*
X349779Y-2522792D01*
X359303Y-2541839D01*
X359303Y-2589458D01*
X349779Y-2608506D01*
X340255Y-2618030D01*
X321208Y-2627554D01*
X264065Y-2627554D01*
X245017Y-2618030D01*
X235493Y-2608506D01*
X445017Y-2608506D02*
X454541Y-2618030D01*
X445017Y-2627554D01*
X435493Y-2618030D01*
X445017Y-2608506D01*
X445017Y-2627554D01*
X530731Y-2446601D02*
X540255Y-2437077D01*
X559303Y-2427554D01*
X606922Y-2427554D01*
X625970Y-2437077D01*
X635493Y-2446601D01*
X645017Y-2465649D01*
X645017Y-2484696D01*
X635493Y-2513268D01*
X521208Y-2627554D01*
X645017Y-2627554D01*
X768827Y-2427554D02*
X787874Y-2427554D01*
X806922Y-2437077D01*
X816446Y-2446601D01*
X825969Y-2465649D01*
X835493Y-2503744D01*
X835493Y-2551363D01*
X825969Y-2589458D01*
X816446Y-2608506D01*
X806922Y-2618030D01*
X787874Y-2627554D01*
X768827Y-2627554D01*
X749779Y-2618030D01*
X740255Y-2608506D01*
X730731Y-2589458D01*
X721208Y-2551363D01*
X721208Y-2503744D01*
X730731Y-2465649D01*
X740255Y-2446601D01*
X749779Y-2437077D01*
X768827Y-2427554D01*
X959303Y-2427554D02*
X978350Y-2427554D01*
X997398Y-2437077D01*
X1006922Y-2446601D01*
X1016446Y-2465649D01*
X1025969Y-2503744D01*
X1025969Y-2551363D01*
X1016446Y-2589458D01*
X1006922Y-2608506D01*
X997398Y-2618030D01*
X978350Y-2627554D01*
X959303Y-2627554D01*
X940255Y-2618030D01*
X930731Y-2608506D01*
X921208Y-2589458D01*
X911684Y-2551363D01*
X911684Y-2503744D01*
X921208Y-2465649D01*
X930731Y-2446601D01*
X940255Y-2437077D01*
X959303Y-2427554D01*
X1111684Y-2627554D02*
X1111684Y-2494220D01*
X1111684Y-2513268D02*
X1121208Y-2503744D01*
X1140255Y-2494220D01*
X1168827Y-2494220D01*
X1187874Y-2503744D01*
X1197398Y-2522792D01*
X1197398Y-2627554D01*
X1197398Y-2522792D02*
X1206922Y-2503744D01*
X1225970Y-2494220D01*
X1254541Y-2494220D01*
X1273589Y-2503744D01*
X1283112Y-2522792D01*
X1283112Y-2627554D01*
X1378350Y-2627554D02*
X1378350Y-2494220D01*
X1378350Y-2513268D02*
X1387874Y-2503744D01*
X1406922Y-2494220D01*
X1435493Y-2494220D01*
X1454541Y-2503744D01*
X1464065Y-2522792D01*
X1464065Y-2627554D01*
X1464065Y-2522792D02*
X1473588Y-2503744D01*
X1492636Y-2494220D01*
X1521208Y-2494220D01*
X1540255Y-2503744D01*
X1549779Y-2522792D01*
X1549779Y-2627554D01*
X1940255Y-2418030D02*
X1768827Y-2675173D01*
X2197398Y-2427554D02*
X2216446Y-2427554D01*
X2235493Y-2437077D01*
X2245017Y-2446601D01*
X2254541Y-2465649D01*
X2264065Y-2503744D01*
X2264065Y-2551363D01*
X2254541Y-2589458D01*
X2245017Y-2608506D01*
X2235493Y-2618030D01*
X2216446Y-2627554D01*
X2197398Y-2627554D01*
X2178350Y-2618030D01*
X2168827Y-2608506D01*
X2159303Y-2589458D01*
X2149779Y-2551363D01*
X2149779Y-2503744D01*
X2159303Y-2465649D01*
X2168827Y-2446601D01*
X2178350Y-2437077D01*
X2197398Y-2427554D01*
X2349779Y-2608506D02*
X2359303Y-2618030D01*
X2349779Y-2627554D01*
X2340255Y-2618030D01*
X2349779Y-2608506D01*
X2349779Y-2627554D01*
X2549779Y-2627554D02*
X2435493Y-2627554D01*
X2492636Y-2627554D02*
X2492636Y-2427554D01*
X2473589Y-2456125D01*
X2454541Y-2475173D01*
X2435493Y-2484696D01*
X2625970Y-2446601D02*
X2635493Y-2437077D01*
X2654541Y-2427554D01*
X2702160Y-2427554D01*
X2721208Y-2437077D01*
X2730731Y-2446601D01*
X2740255Y-2465649D01*
X2740255Y-2484696D01*
X2730731Y-2513268D01*
X2616446Y-2627554D01*
X2740255Y-2627554D01*
X2911684Y-2427554D02*
X2873588Y-2427554D01*
X2854541Y-2437077D01*
X2845017Y-2446601D01*
X2825969Y-2475173D01*
X2816446Y-2513268D01*
X2816446Y-2589458D01*
X2825969Y-2608506D01*
X2835493Y-2618030D01*
X2854541Y-2627554D01*
X2892636Y-2627554D01*
X2911684Y-2618030D01*
X2921208Y-2608506D01*
X2930731Y-2589458D01*
X2930731Y-2541839D01*
X2921208Y-2522792D01*
X2911684Y-2513268D01*
X2892636Y-2503744D01*
X2854541Y-2503744D01*
X2835493Y-2513268D01*
X2825969Y-2522792D01*
X2816446Y-2541839D01*
X3054541Y-2427554D02*
X3073588Y-2427554D01*
X3092636Y-2437077D01*
X3102160Y-2446601D01*
X3111684Y-2465649D01*
X3121208Y-2503744D01*
X3121208Y-2551363D01*
X3111684Y-2589458D01*
X3102160Y-2608506D01*
X3092636Y-2618030D01*
X3073588Y-2627554D01*
X3054541Y-2627554D01*
X3035493Y-2618030D01*
X3025969Y-2608506D01*
X3016446Y-2589458D01*
X3006922Y-2551363D01*
X3006922Y-2503744D01*
X3016446Y-2465649D01*
X3025969Y-2446601D01*
X3035493Y-2437077D01*
X3054541Y-2427554D01*
X3197398Y-2427554D02*
X3197398Y-2465649D01*
X3273588Y-2427554D02*
X3273588Y-2465649D01*
X3568827Y-2703744D02*
X3559303Y-2694220D01*
X3540255Y-2665649D01*
X3530731Y-2646601D01*
X3521208Y-2618030D01*
X3511684Y-2570411D01*
X3511684Y-2532315D01*
X3521208Y-2484696D01*
X3530731Y-2456125D01*
X3540255Y-2437077D01*
X3559303Y-2408506D01*
X3568827Y-2398982D01*
X3635493Y-2446601D02*
X3645017Y-2437077D01*
X3664065Y-2427554D01*
X3711684Y-2427554D01*
X3730731Y-2437077D01*
X3740255Y-2446601D01*
X3749779Y-2465649D01*
X3749779Y-2484696D01*
X3740255Y-2513268D01*
X3625969Y-2627554D01*
X3749779Y-2627554D01*
X3987874Y-2627554D02*
X3987874Y-2427554D01*
X4073588Y-2627554D02*
X4073588Y-2522792D01*
X4064065Y-2503744D01*
X4045017Y-2494220D01*
X4016446Y-2494220D01*
X3997398Y-2503744D01*
X3987874Y-2513268D01*
X4197398Y-2627554D02*
X4178350Y-2618030D01*
X4168827Y-2608506D01*
X4159303Y-2589458D01*
X4159303Y-2532315D01*
X4168827Y-2513268D01*
X4178350Y-2503744D01*
X4197398Y-2494220D01*
X4225970Y-2494220D01*
X4245017Y-2503744D01*
X4254541Y-2513268D01*
X4264065Y-2532315D01*
X4264065Y-2589458D01*
X4254541Y-2608506D01*
X4245017Y-2618030D01*
X4225970Y-2627554D01*
X4197398Y-2627554D01*
X4378350Y-2627554D02*
X4359303Y-2618030D01*
X4349779Y-2598982D01*
X4349779Y-2427554D01*
X4530731Y-2618030D02*
X4511684Y-2627554D01*
X4473589Y-2627554D01*
X4454541Y-2618030D01*
X4445017Y-2598982D01*
X4445017Y-2522792D01*
X4454541Y-2503744D01*
X4473589Y-2494220D01*
X4511684Y-2494220D01*
X4530731Y-2503744D01*
X4540255Y-2522792D01*
X4540255Y-2541839D01*
X4445017Y-2560887D01*
X4616446Y-2618030D02*
X4635493Y-2627554D01*
X4673589Y-2627554D01*
X4692636Y-2618030D01*
X4702160Y-2598982D01*
X4702160Y-2589458D01*
X4692636Y-2570411D01*
X4673589Y-2560887D01*
X4645017Y-2560887D01*
X4625970Y-2551363D01*
X4616446Y-2532315D01*
X4616446Y-2522792D01*
X4625970Y-2503744D01*
X4645017Y-2494220D01*
X4673589Y-2494220D01*
X4692636Y-2503744D01*
X4768827Y-2703744D02*
X4778350Y-2694220D01*
X4797398Y-2665649D01*
X4806922Y-2646601D01*
X4816446Y-2618030D01*
X4825970Y-2570411D01*
X4825970Y-2532315D01*
X4816446Y-2484696D01*
X4806922Y-2456125D01*
X4797398Y-2437077D01*
X4778350Y-2408506D01*
X4768827Y-2398982D01*
M02*
