%FSLAX45Y45*%
G04 Gerber Fmt 4.5, Leading zero omitted, Abs format (unit mm)*
G04 Created by KiCad (PCBNEW 6.0.4-1.fc35) date 2022-04-27 17:33:19*
%MOMM*%
%LPD*%
G01*
G04 APERTURE LIST*
%TA.AperFunction,Profile*%
%ADD10C,0.050000*%
%TD*%
%ADD11C,0.200000*%
%ADD12C,0.030000*%
%ADD13C,0.040000*%
%ADD14C,0.080000*%
%ADD15C,0.100000*%
%ADD16C,0.110000*%
%ADD17C,0.230000*%
%ADD18C,0.320000*%
G04 APERTURE END LIST*
D10*
X199422Y10010580D02*
X11801000Y10011001D01*
X199422Y10010578D02*
G75*
G03*
X-578Y9810580I-2J-199998D01*
G01*
X-578Y9810000D02*
X-578Y209000D01*
X3Y209423D02*
G75*
G03*
X200000Y9423I199997J-3D01*
G01*
X12001001Y9811001D02*
G75*
G03*
X11801000Y10011001I-200001J-1D01*
G01*
X12001000Y210001D02*
X12001000Y9811001D01*
X11799579Y10001D02*
X200000Y9423D01*
X500000Y9600000D02*
G75*
G03*
X500000Y9600000I-100000J0D01*
G01*
X11700000Y400000D02*
G75*
G03*
X11700000Y400000I-100000J0D01*
G01*
X11700000Y9600000D02*
G75*
G03*
X11700000Y9600000I-100000J0D01*
G01*
X11799579Y10005D02*
G75*
G03*
X12001000Y210001I11J201415D01*
G01*
X500000Y400000D02*
G75*
G03*
X500000Y400000I-100000J0D01*
G01*
D11*
D12*
X255000Y6895000D02*
X285000Y6865000D01*
X285000Y6895000D02*
X255000Y6865000D01*
X665000Y715000D02*
X695000Y685000D01*
X695000Y715000D02*
X665000Y685000D01*
X710000Y850000D02*
X740000Y820000D01*
X740000Y850000D02*
X710000Y820000D01*
X755000Y7225000D02*
X785000Y7195000D01*
X785000Y7225000D02*
X755000Y7195000D01*
X815000Y7004500D02*
X845000Y6974500D01*
X845000Y7004500D02*
X815000Y6974500D01*
X875000Y6785000D02*
X905000Y6755000D01*
X905000Y6785000D02*
X875000Y6755000D01*
X934500Y6674500D02*
X964500Y6644500D01*
X964500Y6674500D02*
X934500Y6644500D01*
X1385001Y790001D02*
X1415000Y760001D01*
X1415000Y790001D02*
X1385001Y760001D01*
X1470000Y1135001D02*
X1500000Y1105001D01*
X1500000Y1135001D02*
X1470000Y1105001D01*
X1555000Y1065501D02*
X1585000Y1035501D01*
X1585000Y1065501D02*
X1555000Y1035501D01*
X1635000Y935001D02*
X1665000Y905001D01*
X1665000Y935001D02*
X1635000Y905001D01*
X1700000Y1000001D02*
X1730000Y970001D01*
X1730000Y1000001D02*
X1700000Y970001D01*
X1825000Y7815000D02*
X1855000Y7785000D01*
X1855000Y7815000D02*
X1825000Y7785000D01*
X1825000Y7315000D02*
X1855000Y7285000D01*
X1855000Y7315000D02*
X1825000Y7285000D01*
X2205000Y5135000D02*
X2235000Y5105000D01*
X2235000Y5135000D02*
X2205000Y5105000D01*
X2255000Y7655000D02*
X2285000Y7625000D01*
X2285000Y7655000D02*
X2255000Y7625000D01*
X2385000Y7457550D02*
X2415000Y7427550D01*
X2415000Y7457550D02*
X2385000Y7427550D01*
X2510001Y710001D02*
X2540001Y680001D01*
X2540001Y710001D02*
X2510001Y680001D01*
X2515000Y6875000D02*
X2545000Y6845000D01*
X2545000Y6875000D02*
X2515000Y6845000D01*
X2595000Y6845000D02*
X2625000Y6815000D01*
X2625000Y6845000D02*
X2595000Y6815000D01*
X2635000Y7655000D02*
X2665000Y7625000D01*
X2665000Y7655000D02*
X2635000Y7625000D01*
X2655001Y582550D02*
X2685001Y552550D01*
X2685001Y582550D02*
X2655001Y552550D01*
X2835000Y5440000D02*
X2865000Y5410000D01*
X2865000Y5440000D02*
X2835000Y5410000D01*
X2910000Y5055000D02*
X2940000Y5025000D01*
X2940000Y5055000D02*
X2910000Y5025000D01*
X2995000Y6745000D02*
X3025000Y6715000D01*
X3025000Y6745000D02*
X2995000Y6715000D01*
X2995000Y5515000D02*
X3025000Y5485000D01*
X3025000Y5515000D02*
X2995000Y5485000D01*
X3075000Y6895000D02*
X3105000Y6865000D01*
X3105000Y6895000D02*
X3075000Y6865000D01*
X3075000Y5135000D02*
X3105000Y5105000D01*
X3105000Y5135000D02*
X3075000Y5105000D01*
X3155000Y6835000D02*
X3185000Y6805000D01*
X3185000Y6835000D02*
X3155000Y6805000D01*
X3155000Y6605000D02*
X3185000Y6575000D01*
X3185000Y6605000D02*
X3155000Y6575000D01*
X3155000Y6515000D02*
X3185000Y6485000D01*
X3185000Y6515000D02*
X3155000Y6485000D01*
X3155000Y6425000D02*
X3185000Y6395000D01*
X3185000Y6425000D02*
X3155000Y6395000D01*
X3155000Y6325000D02*
X3185000Y6295000D01*
X3185000Y6325000D02*
X3155000Y6295000D01*
X3155000Y6175000D02*
X3185000Y6145000D01*
X3185000Y6175000D02*
X3155000Y6145000D01*
X3155000Y6025000D02*
X3185000Y5995000D01*
X3185000Y6025000D02*
X3155000Y5995000D01*
X3235000Y6775000D02*
X3265000Y6745000D01*
X3265000Y6775000D02*
X3235000Y6745000D01*
X3235000Y6255000D02*
X3265000Y6225000D01*
X3265000Y6255000D02*
X3235000Y6225000D01*
X3235000Y6095000D02*
X3265000Y6065000D01*
X3265000Y6095000D02*
X3235000Y6065000D01*
X3235000Y5965000D02*
X3265000Y5935000D01*
X3265000Y5965000D02*
X3235000Y5935000D01*
X3625000Y6595000D02*
X3655000Y6565000D01*
X3655000Y6595000D02*
X3625000Y6565000D01*
X3715000Y6255000D02*
X3745000Y6225000D01*
X3745000Y6255000D02*
X3715000Y6225000D01*
X3735000Y775001D02*
X3765000Y745001D01*
X3765000Y775001D02*
X3735000Y745001D01*
X3785000Y6175000D02*
X3815000Y6145000D01*
X3815000Y6175000D02*
X3785000Y6145000D01*
X3800000Y1130001D02*
X3830000Y1100001D01*
X3830000Y1130001D02*
X3800000Y1100001D01*
X3845000Y6095000D02*
X3875000Y6065000D01*
X3875000Y6095000D02*
X3845000Y6065000D01*
X3885000Y1060501D02*
X3915000Y1030501D01*
X3915000Y1060501D02*
X3885000Y1030501D01*
X3905000Y6025000D02*
X3935000Y5995000D01*
X3935000Y6025000D02*
X3905000Y5995000D01*
X3965000Y5965000D02*
X3995000Y5935000D01*
X3995000Y5965000D02*
X3965000Y5935000D01*
X3965000Y930001D02*
X3995000Y900001D01*
X3995000Y930001D02*
X3965000Y900001D01*
X4015000Y6445000D02*
X4045000Y6415000D01*
X4045000Y6445000D02*
X4015000Y6415000D01*
X4030000Y995001D02*
X4060000Y965001D01*
X4060000Y995001D02*
X4030000Y965001D01*
X4085000Y6385000D02*
X4115000Y6355000D01*
X4115000Y6385000D02*
X4085000Y6355000D01*
X4155000Y9305000D02*
X4185000Y9275000D01*
X4185000Y9305000D02*
X4155000Y9275000D01*
X4155000Y6325000D02*
X4185000Y6295000D01*
X4185000Y6325000D02*
X4155000Y6295000D01*
X4445000Y8335000D02*
X4475000Y8305000D01*
X4475000Y8335000D02*
X4445000Y8305000D01*
X4465000Y8855000D02*
X4495000Y8825000D01*
X4495000Y8855000D02*
X4465000Y8825000D01*
X4682550Y6595000D02*
X4712550Y6565000D01*
X4712550Y6595000D02*
X4682550Y6565000D01*
X4695001Y850001D02*
X4725001Y820001D01*
X4725001Y850001D02*
X4695001Y820001D01*
X4735000Y9305000D02*
X4765000Y9275000D01*
X4765000Y9305000D02*
X4735000Y9275000D01*
X4735000Y6775000D02*
X4765000Y6745000D01*
X4765000Y6775000D02*
X4735000Y6745000D01*
X4750001Y710001D02*
X4780001Y680001D01*
X4780001Y710001D02*
X4750001Y680001D01*
X4795000Y6835000D02*
X4825000Y6805000D01*
X4825000Y6835000D02*
X4795000Y6805000D01*
X4855000Y9095000D02*
X4885000Y9065000D01*
X4885000Y9095000D02*
X4855000Y9065000D01*
X4855000Y6895000D02*
X4885000Y6865000D01*
X4885000Y6895000D02*
X4855000Y6865000D01*
X5037422Y5267423D02*
X5067422Y5237423D01*
X5067422Y5267423D02*
X5037422Y5237423D01*
X6815000Y8355000D02*
X6845000Y8325000D01*
X6845000Y8355000D02*
X6815000Y8325000D01*
X6850000Y7925000D02*
X6880000Y7895000D01*
X6880000Y7925000D02*
X6850000Y7895000D01*
X6850000Y6987500D02*
X6880000Y6957500D01*
X6880000Y6987500D02*
X6850000Y6957500D01*
X6855000Y6197500D02*
X6885000Y6167500D01*
X6885000Y6197500D02*
X6855000Y6167500D01*
X6935000Y7467000D02*
X6965000Y7437000D01*
X6965000Y7467000D02*
X6935000Y7437000D01*
X6935000Y5437423D02*
X6965000Y5407423D01*
X6965000Y5437423D02*
X6935000Y5407423D01*
X7000000Y2135001D02*
X7030000Y2105001D01*
X7030000Y2135001D02*
X7000000Y2105001D01*
X7000000Y1130001D02*
X7030000Y1100001D01*
X7030000Y1130001D02*
X7000000Y1100001D01*
X7139500Y1879501D02*
X7169500Y1849501D01*
X7169500Y1879501D02*
X7139500Y1849501D01*
X7139500Y1060501D02*
X7169500Y1030501D01*
X7169500Y1060501D02*
X7139500Y1030501D01*
X7255000Y6495001D02*
X7285000Y6465001D01*
X7285000Y6495001D02*
X7255000Y6465001D01*
X7269500Y1625501D02*
X7299500Y1595501D01*
X7299500Y1625501D02*
X7269500Y1595501D01*
X7270000Y995001D02*
X7300000Y965001D01*
X7300000Y995001D02*
X7270000Y965001D01*
X7355000Y6555001D02*
X7385000Y6525001D01*
X7385000Y6555001D02*
X7355000Y6525001D01*
X7385000Y1370001D02*
X7415000Y1340001D01*
X7415000Y1370001D02*
X7385000Y1340001D01*
X7385000Y930001D02*
X7415000Y900001D01*
X7415000Y930001D02*
X7385000Y900001D01*
X7455000Y6615001D02*
X7485000Y6585001D01*
X7485000Y6615001D02*
X7455000Y6585001D01*
X7485000Y8145000D02*
X7515000Y8115000D01*
X7515000Y8145000D02*
X7485000Y8115000D01*
X7545000Y905000D02*
X7575000Y875000D01*
X7575000Y905000D02*
X7545000Y875000D01*
X7555000Y6675001D02*
X7585000Y6645001D01*
X7585000Y6675001D02*
X7555000Y6645001D01*
X7635000Y6725001D02*
X7665000Y6695001D01*
X7665000Y6725001D02*
X7635000Y6695001D01*
X7665000Y855001D02*
X7695000Y825001D01*
X7695000Y855001D02*
X7665000Y825001D01*
X7735000Y6785001D02*
X7765000Y6755001D01*
X7765000Y6785001D02*
X7735000Y6755001D01*
X7745000Y7905000D02*
X7775000Y7875000D01*
X7775000Y7905000D02*
X7745000Y7875000D01*
X7750000Y785001D02*
X7780000Y755001D01*
X7780000Y785001D02*
X7750000Y755001D01*
X7755000Y8915000D02*
X7785000Y8885000D01*
X7785000Y8915000D02*
X7755000Y8885000D01*
X7804950Y8135000D02*
X7834950Y8105000D01*
X7834950Y8135000D02*
X7804950Y8105000D01*
X7825000Y6855001D02*
X7855000Y6825001D01*
X7855000Y6855001D02*
X7825000Y6825001D01*
X7835000Y7985000D02*
X7865000Y7955000D01*
X7865000Y7985000D02*
X7835000Y7955000D01*
X7905000Y6915001D02*
X7935000Y6885001D01*
X7935000Y6915001D02*
X7905000Y6885001D01*
X7975000Y715000D02*
X8005000Y685000D01*
X8005000Y715000D02*
X7975000Y685000D01*
X7985000Y5945001D02*
X8015000Y5915001D01*
X8015000Y5945001D02*
X7985000Y5915001D01*
X8020000Y7554950D02*
X8050000Y7524950D01*
X8050000Y7554950D02*
X8020000Y7524950D01*
X8030000Y7210000D02*
X8060000Y7180000D01*
X8060000Y7210000D02*
X8030000Y7180000D01*
X8405000Y8635000D02*
X8435000Y8605000D01*
X8435000Y8635000D02*
X8405000Y8605000D01*
X8485000Y2515000D02*
X8515000Y2485000D01*
X8515000Y2515000D02*
X8485000Y2485000D01*
X8560000Y6400000D02*
X8590000Y6370000D01*
X8590000Y6400000D02*
X8560000Y6370000D01*
X8685000Y1410000D02*
X8715000Y1380000D01*
X8715000Y1410000D02*
X8685000Y1380000D01*
X8705000Y5435000D02*
X8735000Y5405000D01*
X8735000Y5435000D02*
X8705000Y5405000D01*
X8737422Y5675001D02*
X8767422Y5645001D01*
X8767422Y5675001D02*
X8737422Y5645001D01*
X8750000Y2035000D02*
X8780000Y2005000D01*
X8780000Y2035000D02*
X8750000Y2005000D01*
X8750000Y1785000D02*
X8780000Y1755000D01*
X8780000Y1785000D02*
X8750000Y1755000D01*
X8815001Y5755001D02*
X8845001Y5725001D01*
X8845001Y5755001D02*
X8815001Y5725001D01*
X8970001Y2640001D02*
X9000001Y2610001D01*
X9000001Y2640001D02*
X8970001Y2610001D01*
X9170001Y2900001D02*
X9200001Y2870001D01*
X9200001Y2900001D02*
X9170001Y2870001D01*
X9185000Y2555000D02*
X9215000Y2525000D01*
X9215000Y2555000D02*
X9185000Y2525000D01*
X9195000Y582549D02*
X9225000Y552549D01*
X9225000Y582549D02*
X9195000Y552549D01*
X9255000Y6115000D02*
X9285000Y6085000D01*
X9285000Y6115000D02*
X9255000Y6085000D01*
X9255001Y3150001D02*
X9285001Y3120001D01*
X9285001Y3150001D02*
X9255001Y3120001D01*
X9275000Y525000D02*
X9305000Y495000D01*
X9305000Y525000D02*
X9275000Y495000D01*
X9335000Y6052550D02*
X9365000Y6022550D01*
X9365000Y6052550D02*
X9335000Y6022550D01*
X9335001Y3405001D02*
X9365001Y3375001D01*
X9365001Y3405001D02*
X9335001Y3375001D01*
X9415000Y5985000D02*
X9445000Y5955000D01*
X9445000Y5985000D02*
X9415000Y5955000D01*
X9415001Y3660001D02*
X9445001Y3630001D01*
X9445001Y3660001D02*
X9415001Y3630001D01*
X9495000Y5927550D02*
X9525000Y5897550D01*
X9525000Y5927550D02*
X9495000Y5897550D01*
X9575000Y5870100D02*
X9605000Y5840100D01*
X9605000Y5870100D02*
X9575000Y5840100D01*
X9575001Y3910001D02*
X9605001Y3880001D01*
X9605001Y3910001D02*
X9575001Y3880001D01*
X9655001Y4165001D02*
X9685001Y4135001D01*
X9685001Y4165001D02*
X9655001Y4135001D01*
X9735000Y5812650D02*
X9765000Y5782650D01*
X9765000Y5812650D02*
X9735000Y5782650D01*
X9735001Y4420001D02*
X9765001Y4390001D01*
X9765001Y4420001D02*
X9735001Y4390001D01*
X9770050Y7135000D02*
X9800050Y7105000D01*
X9800050Y7135000D02*
X9770050Y7105000D01*
X9815000Y6565000D02*
X9845000Y6535000D01*
X9845000Y6565000D02*
X9815000Y6535000D01*
X9815000Y5735000D02*
X9845000Y5705000D01*
X9845000Y5735000D02*
X9815000Y5705000D01*
X9835000Y6835000D02*
X9865000Y6805000D01*
X9865000Y6835000D02*
X9835000Y6805000D01*
X9895000Y7005000D02*
X9925000Y6975000D01*
X9925000Y7005000D02*
X9895000Y6975000D01*
X9895000Y6655000D02*
X9925000Y6625000D01*
X9925000Y6655000D02*
X9895000Y6625000D01*
X9975000Y6745000D02*
X10005000Y6715000D01*
X10005000Y6745000D02*
X9975000Y6715000D01*
X9975001Y3785001D02*
X10005001Y3755001D01*
X10005001Y3785001D02*
X9975001Y3755001D01*
X10025000Y8468413D02*
X10055000Y8438413D01*
X10055000Y8468413D02*
X10025000Y8438413D01*
X10025000Y7075000D02*
X10055000Y7045000D01*
X10055000Y7075000D02*
X10025000Y7045000D01*
X10095000Y7765000D02*
X10125000Y7735000D01*
X10125000Y7765000D02*
X10095000Y7735000D01*
X10095000Y6565000D02*
X10125000Y6535000D01*
X10125000Y6565000D02*
X10095000Y6535000D01*
X10125000Y8468413D02*
X10155000Y8438413D01*
X10155000Y8468413D02*
X10125000Y8438413D01*
X10175000Y4045000D02*
X10205000Y4015000D01*
X10205000Y4045000D02*
X10175000Y4015000D01*
X10192500Y1042500D02*
X10222500Y1012500D01*
X10222500Y1042500D02*
X10192500Y1012500D01*
X10282550Y6745000D02*
X10312550Y6715000D01*
X10312550Y6745000D02*
X10282550Y6715000D01*
X10285000Y4285000D02*
X10315000Y4255000D01*
X10315000Y4285000D02*
X10285000Y4255000D01*
X10345000Y6545000D02*
X10375000Y6515000D01*
X10375000Y6545000D02*
X10345000Y6515000D01*
X10352550Y7885000D02*
X10382550Y7855000D01*
X10382550Y7885000D02*
X10352550Y7855000D01*
X10375000Y4545001D02*
X10405000Y4515001D01*
X10405000Y4545001D02*
X10375000Y4515001D01*
X10407450Y6835000D02*
X10437450Y6805000D01*
X10437450Y6835000D02*
X10407450Y6805000D01*
X10475000Y6925000D02*
X10505000Y6895000D01*
X10505000Y6925000D02*
X10475000Y6895000D01*
X10530000Y1940000D02*
X10560000Y1910000D01*
X10560000Y1940000D02*
X10530000Y1910000D01*
X10530000Y1580000D02*
X10560000Y1550000D01*
X10560000Y1580000D02*
X10530000Y1550000D01*
X10545000Y8437500D02*
X10575000Y8407500D01*
X10575000Y8437500D02*
X10545000Y8407500D01*
X10545000Y7005000D02*
X10575000Y6975000D01*
X10575000Y7005000D02*
X10545000Y6975000D01*
X10590000Y1660000D02*
X10620000Y1630000D01*
X10620000Y1660000D02*
X10590000Y1630000D01*
X10615000Y8375000D02*
X10645000Y8345000D01*
X10645000Y8375000D02*
X10615000Y8345000D01*
X10615000Y7075000D02*
X10645000Y7045000D01*
X10645000Y7075000D02*
X10615000Y7045000D01*
X10695000Y7135000D02*
X10725000Y7105000D01*
X10725000Y7135000D02*
X10695000Y7105000D01*
X10795000Y7335000D02*
X10825000Y7305000D01*
X10825000Y7335000D02*
X10795000Y7305000D01*
X11335000Y7765000D02*
X11365000Y7735000D01*
X11365000Y7765000D02*
X11335000Y7735000D01*
X11350000Y4675000D02*
X11380000Y4645000D01*
X11380000Y4675000D02*
X11350000Y4645000D01*
X11415000Y4745000D02*
X11445000Y4715000D01*
X11445000Y4745000D02*
X11415000Y4715000D01*
D13*
X630000Y7100000D02*
G75*
G03*
X630000Y7100000I-20000J0D01*
G01*
X630000Y6290000D02*
G75*
G03*
X630000Y6290000I-20000J0D01*
G01*
X2710000Y5310000D02*
G75*
G03*
X2710000Y5310000I-20000J0D01*
G01*
X2745000Y8870000D02*
G75*
G03*
X2745000Y8870000I-20000J0D01*
G01*
X2745000Y8760000D02*
G75*
G03*
X2745000Y8760000I-20000J0D01*
G01*
X3090000Y8870000D02*
G75*
G03*
X3090000Y8870000I-20000J0D01*
G01*
X3090000Y8760000D02*
G75*
G03*
X3090000Y8760000I-20000J0D01*
G01*
X5005000Y8130000D02*
G75*
G03*
X5005000Y8130000I-20000J0D01*
G01*
X5435000Y8130000D02*
G75*
G03*
X5435000Y8130000I-20000J0D01*
G01*
X8720000Y2425000D02*
G75*
G03*
X8720000Y2425000I-20000J0D01*
G01*
X8760001Y5900001D02*
G75*
G03*
X8760001Y5900001I-20000J0D01*
G01*
X9110000Y420000D02*
G75*
G03*
X9110000Y420000I-20000J0D01*
G01*
X9320000Y2425000D02*
G75*
G03*
X9320000Y2425000I-20000J0D01*
G01*
X9520000Y8250000D02*
G75*
G03*
X9520000Y8250000I-20000J0D01*
G01*
X9980000Y5630000D02*
G75*
G03*
X9980000Y5630000I-20000J0D01*
G01*
X10000000Y7520000D02*
G75*
G03*
X10000000Y7520000I-20000J0D01*
G01*
X10910000Y895000D02*
G75*
G03*
X10910000Y895000I-20000J0D01*
G01*
X10910000Y785000D02*
G75*
G03*
X10910000Y785000I-20000J0D01*
G01*
X10910000Y675000D02*
G75*
G03*
X10910000Y675000I-20000J0D01*
G01*
X11430000Y895000D02*
G75*
G03*
X11430000Y895000I-20000J0D01*
G01*
X11430000Y785000D02*
G75*
G03*
X11430000Y785000I-20000J0D01*
G01*
X11430000Y675000D02*
G75*
G03*
X11430000Y675000I-20000J0D01*
G01*
D14*
X550000Y5850000D02*
X550000Y5770000D01*
X510000Y5810000D02*
X590000Y5810000D01*
X750000Y8450000D02*
X750000Y8370000D01*
X710000Y8410000D02*
X790000Y8410000D01*
X750000Y8200000D02*
X750000Y8120000D01*
X710000Y8160000D02*
X790000Y8160000D01*
X750000Y5850000D02*
X750000Y5770000D01*
X710000Y5810000D02*
X790000Y5810000D01*
X766000Y4772001D02*
X766000Y4692001D01*
X726000Y4732001D02*
X806000Y4732001D01*
X766000Y4518001D02*
X766000Y4438001D01*
X726000Y4478001D02*
X806000Y4478001D01*
X766000Y4264001D02*
X766000Y4184001D01*
X726000Y4224001D02*
X806000Y4224001D01*
X766000Y4010001D02*
X766000Y3930001D01*
X726000Y3970001D02*
X806000Y3970001D01*
X766000Y3756001D02*
X766000Y3676001D01*
X726000Y3716001D02*
X806000Y3716001D01*
X766000Y3502001D02*
X766000Y3422001D01*
X726000Y3462001D02*
X806000Y3462001D01*
X766000Y3248001D02*
X766000Y3168001D01*
X726000Y3208001D02*
X806000Y3208001D01*
X766000Y2994001D02*
X766000Y2914001D01*
X726000Y2954001D02*
X806000Y2954001D01*
X766000Y2740001D02*
X766000Y2660001D01*
X726000Y2700001D02*
X806000Y2700001D01*
X766000Y2486001D02*
X766000Y2406001D01*
X726000Y2446001D02*
X806000Y2446001D01*
X766000Y2232001D02*
X766000Y2152001D01*
X726000Y2192001D02*
X806000Y2192001D01*
X766000Y1978001D02*
X766000Y1898001D01*
X726000Y1938001D02*
X806000Y1938001D01*
X766000Y1724001D02*
X766000Y1644001D01*
X726000Y1684001D02*
X806000Y1684001D01*
X766000Y1470001D02*
X766000Y1390001D01*
X726000Y1430001D02*
X806000Y1430001D01*
X950000Y5850000D02*
X950000Y5770000D01*
X910000Y5810000D02*
X990000Y5810000D01*
X1150000Y5850000D02*
X1150000Y5770000D01*
X1110000Y5810000D02*
X1190000Y5810000D01*
X1350000Y5850000D02*
X1350000Y5770000D01*
X1310000Y5810000D02*
X1390000Y5810000D01*
X1550000Y5850000D02*
X1550000Y5770000D01*
X1510000Y5810000D02*
X1590000Y5810000D01*
X2290001Y4772001D02*
X2290001Y4692001D01*
X2250001Y4732001D02*
X2330001Y4732001D01*
X2290001Y4518001D02*
X2290001Y4438001D01*
X2250001Y4478001D02*
X2330001Y4478001D01*
X2290001Y4264001D02*
X2290001Y4184001D01*
X2250001Y4224001D02*
X2330001Y4224001D01*
X2290001Y4010001D02*
X2290001Y3930001D01*
X2250001Y3970001D02*
X2330001Y3970001D01*
X2290001Y3756001D02*
X2290001Y3676001D01*
X2250001Y3716001D02*
X2330001Y3716001D01*
X2290001Y3502001D02*
X2290001Y3422001D01*
X2250001Y3462001D02*
X2330001Y3462001D01*
X2290001Y3248001D02*
X2290001Y3168001D01*
X2250001Y3208001D02*
X2330001Y3208001D01*
X2290001Y2994001D02*
X2290001Y2914001D01*
X2250001Y2954001D02*
X2330001Y2954001D01*
X2290001Y2740001D02*
X2290001Y2660001D01*
X2250001Y2700001D02*
X2330001Y2700001D01*
X2290001Y2486001D02*
X2290001Y2406001D01*
X2250001Y2446001D02*
X2330001Y2446001D01*
X2290001Y2232001D02*
X2290001Y2152001D01*
X2250001Y2192001D02*
X2330001Y2192001D01*
X2290001Y1978001D02*
X2290001Y1898001D01*
X2250001Y1938001D02*
X2330001Y1938001D01*
X2290001Y1724001D02*
X2290001Y1644001D01*
X2250001Y1684001D02*
X2330001Y1684001D01*
X2290001Y1470001D02*
X2290001Y1390001D01*
X2250001Y1430001D02*
X2330001Y1430001D01*
X2978500Y4769501D02*
X2978500Y4689501D01*
X2938500Y4729501D02*
X3018500Y4729501D01*
X2978500Y4515501D02*
X2978500Y4435501D01*
X2938500Y4475501D02*
X3018500Y4475501D01*
X2978500Y4261501D02*
X2978500Y4181501D01*
X2938500Y4221501D02*
X3018500Y4221501D01*
X2978500Y4007501D02*
X2978500Y3927501D01*
X2938500Y3967501D02*
X3018500Y3967501D01*
X2978500Y3753501D02*
X2978500Y3673501D01*
X2938500Y3713501D02*
X3018500Y3713501D01*
X2978500Y3499501D02*
X2978500Y3419501D01*
X2938500Y3459501D02*
X3018500Y3459501D01*
X2978500Y3245501D02*
X2978500Y3165501D01*
X2938500Y3205501D02*
X3018500Y3205501D01*
X2978500Y2991501D02*
X2978500Y2911501D01*
X2938500Y2951501D02*
X3018500Y2951501D01*
X2978500Y2737501D02*
X2978500Y2657501D01*
X2938500Y2697501D02*
X3018500Y2697501D01*
X2978500Y2483501D02*
X2978500Y2403501D01*
X2938500Y2443501D02*
X3018500Y2443501D01*
X2978500Y2229501D02*
X2978500Y2149501D01*
X2938500Y2189501D02*
X3018500Y2189501D01*
X2978500Y1975501D02*
X2978500Y1895501D01*
X2938500Y1935501D02*
X3018500Y1935501D01*
X2978500Y1721501D02*
X2978500Y1641501D01*
X2938500Y1681501D02*
X3018500Y1681501D01*
X2978500Y1467501D02*
X2978500Y1387501D01*
X2938500Y1427501D02*
X3018500Y1427501D01*
X3169000Y9221000D02*
X3169000Y9141000D01*
X3129000Y9181000D02*
X3209000Y9181000D01*
X3169000Y8459000D02*
X3169000Y8379000D01*
X3129000Y8419000D02*
X3209000Y8419000D01*
X3931000Y9221000D02*
X3931000Y9141000D01*
X3891000Y9181000D02*
X3971000Y9181000D01*
X3931000Y8459000D02*
X3931000Y8379000D01*
X3891000Y8419000D02*
X3971000Y8419000D01*
X4050000Y7690000D02*
X4050000Y7610000D01*
X4010000Y7650000D02*
X4090000Y7650000D01*
X4050000Y7490000D02*
X4050000Y7410000D01*
X4010000Y7450000D02*
X4090000Y7450000D01*
X4250000Y7690000D02*
X4250000Y7610000D01*
X4210000Y7650000D02*
X4290000Y7650000D01*
X4250000Y7490000D02*
X4250000Y7410000D01*
X4210000Y7450000D02*
X4290000Y7450000D01*
X4450000Y7690000D02*
X4450000Y7610000D01*
X4410000Y7650000D02*
X4490000Y7650000D01*
X4450000Y7490000D02*
X4450000Y7410000D01*
X4410000Y7450000D02*
X4490000Y7450000D01*
X4502501Y4769501D02*
X4502501Y4689501D01*
X4462501Y4729501D02*
X4542501Y4729501D01*
X4502501Y4515501D02*
X4502501Y4435501D01*
X4462501Y4475501D02*
X4542501Y4475501D01*
X4502501Y4261501D02*
X4502501Y4181501D01*
X4462501Y4221501D02*
X4542501Y4221501D01*
X4502501Y4007501D02*
X4502501Y3927501D01*
X4462501Y3967501D02*
X4542501Y3967501D01*
X4502501Y3753501D02*
X4502501Y3673501D01*
X4462501Y3713501D02*
X4542501Y3713501D01*
X4502501Y3499501D02*
X4502501Y3419501D01*
X4462501Y3459501D02*
X4542501Y3459501D01*
X4502501Y3245501D02*
X4502501Y3165501D01*
X4462501Y3205501D02*
X4542501Y3205501D01*
X4502501Y2991501D02*
X4502501Y2911501D01*
X4462501Y2951501D02*
X4542501Y2951501D01*
X4502501Y2737501D02*
X4502501Y2657501D01*
X4462501Y2697501D02*
X4542501Y2697501D01*
X4502501Y2483501D02*
X4502501Y2403501D01*
X4462501Y2443501D02*
X4542501Y2443501D01*
X4502501Y2229501D02*
X4502501Y2149501D01*
X4462501Y2189501D02*
X4542501Y2189501D01*
X4502501Y1975501D02*
X4502501Y1895501D01*
X4462501Y1935501D02*
X4542501Y1935501D01*
X4502501Y1721501D02*
X4502501Y1641501D01*
X4462501Y1681501D02*
X4542501Y1681501D01*
X4502501Y1467501D02*
X4502501Y1387501D01*
X4462501Y1427501D02*
X4542501Y1427501D01*
X5750000Y6222501D02*
X5750000Y6142501D01*
X5710000Y6182501D02*
X5790000Y6182501D01*
X5750000Y5968501D02*
X5750000Y5888501D01*
X5710000Y5928501D02*
X5790000Y5928501D01*
X5750000Y5714501D02*
X5750000Y5634501D01*
X5710000Y5674501D02*
X5790000Y5674501D01*
X5750000Y5460501D02*
X5750000Y5380501D01*
X5710000Y5420501D02*
X5790000Y5420501D01*
X5750000Y5206501D02*
X5750000Y5126501D01*
X5710000Y5166501D02*
X5790000Y5166501D01*
X5750000Y4952501D02*
X5750000Y4872501D01*
X5710000Y4912501D02*
X5790000Y4912501D01*
X5750000Y4698501D02*
X5750000Y4618501D01*
X5710000Y4658501D02*
X5790000Y4658501D01*
X5750000Y4444501D02*
X5750000Y4364501D01*
X5710000Y4404501D02*
X5790000Y4404501D01*
X5750000Y4190501D02*
X5750000Y4110501D01*
X5710000Y4150501D02*
X5790000Y4150501D01*
X5750000Y3936501D02*
X5750000Y3856501D01*
X5710000Y3896501D02*
X5790000Y3896501D01*
X5750000Y3682501D02*
X5750000Y3602501D01*
X5710000Y3642501D02*
X5790000Y3642501D01*
X5750000Y3428501D02*
X5750000Y3348501D01*
X5710000Y3388501D02*
X5790000Y3388501D01*
X5750000Y3174501D02*
X5750000Y3094501D01*
X5710000Y3134501D02*
X5790000Y3134501D01*
X5750000Y2920501D02*
X5750000Y2840501D01*
X5710000Y2880501D02*
X5790000Y2880501D01*
X5750000Y2666501D02*
X5750000Y2586501D01*
X5710000Y2626501D02*
X5790000Y2626501D01*
X5750000Y2412501D02*
X5750000Y2332501D01*
X5710000Y2372501D02*
X5790000Y2372501D01*
X5750000Y2158501D02*
X5750000Y2078501D01*
X5710000Y2118501D02*
X5790000Y2118501D01*
X5750000Y1904501D02*
X5750000Y1824501D01*
X5710000Y1864501D02*
X5790000Y1864501D01*
X5750000Y1650501D02*
X5750000Y1570501D01*
X5710000Y1610501D02*
X5790000Y1610501D01*
X5750000Y1396501D02*
X5750000Y1316501D01*
X5710000Y1356501D02*
X5790000Y1356501D01*
X8290000Y6222501D02*
X8290000Y6142501D01*
X8250000Y6182501D02*
X8330000Y6182501D01*
X8290000Y5968501D02*
X8290000Y5888501D01*
X8250000Y5928501D02*
X8330000Y5928501D01*
X8290000Y5714501D02*
X8290000Y5634501D01*
X8250000Y5674501D02*
X8330000Y5674501D01*
X8290000Y5460501D02*
X8290000Y5380501D01*
X8250000Y5420501D02*
X8330000Y5420501D01*
X8290000Y5206501D02*
X8290000Y5126501D01*
X8250000Y5166501D02*
X8330000Y5166501D01*
X8290000Y4952501D02*
X8290000Y4872501D01*
X8250000Y4912501D02*
X8330000Y4912501D01*
X8290000Y4698501D02*
X8290000Y4618501D01*
X8250000Y4658501D02*
X8330000Y4658501D01*
X8290000Y4444501D02*
X8290000Y4364501D01*
X8250000Y4404501D02*
X8330000Y4404501D01*
X8290000Y4190501D02*
X8290000Y4110501D01*
X8250000Y4150501D02*
X8330000Y4150501D01*
X8290000Y3936501D02*
X8290000Y3856501D01*
X8250000Y3896501D02*
X8330000Y3896501D01*
X8290000Y3682501D02*
X8290000Y3602501D01*
X8250000Y3642501D02*
X8330000Y3642501D01*
X8290000Y3428501D02*
X8290000Y3348501D01*
X8250000Y3388501D02*
X8330000Y3388501D01*
X8290000Y3174501D02*
X8290000Y3094501D01*
X8250000Y3134501D02*
X8330000Y3134501D01*
X8290000Y2920501D02*
X8290000Y2840501D01*
X8250000Y2880501D02*
X8330000Y2880501D01*
X8290000Y2666501D02*
X8290000Y2586501D01*
X8250000Y2626501D02*
X8330000Y2626501D01*
X8290000Y2412501D02*
X8290000Y2332501D01*
X8250000Y2372501D02*
X8330000Y2372501D01*
X8290000Y2158501D02*
X8290000Y2078501D01*
X8250000Y2118501D02*
X8330000Y2118501D01*
X8290000Y1904501D02*
X8290000Y1824501D01*
X8250000Y1864501D02*
X8330000Y1864501D01*
X8290000Y1650501D02*
X8290000Y1570501D01*
X8250000Y1610501D02*
X8330000Y1610501D01*
X8290000Y1396501D02*
X8290000Y1316501D01*
X8250000Y1356501D02*
X8330000Y1356501D01*
X8640000Y8670000D02*
X8640000Y8590000D01*
X8600000Y8630000D02*
X8680000Y8630000D01*
X8640000Y8470000D02*
X8640000Y8390000D01*
X8600000Y8430000D02*
X8680000Y8430000D01*
X8640000Y8270000D02*
X8640000Y8190000D01*
X8600000Y8230000D02*
X8680000Y8230000D01*
X8640000Y8070000D02*
X8640000Y7990000D01*
X8600000Y8030000D02*
X8680000Y8030000D01*
X10920000Y6940000D02*
X10920000Y6860000D01*
X10880000Y6900000D02*
X10960000Y6900000D01*
X10920000Y6740000D02*
X10920000Y6660000D01*
X10880000Y6700000D02*
X10960000Y6700000D01*
X10920000Y6540000D02*
X10920000Y6460000D01*
X10880000Y6500000D02*
X10960000Y6500000D01*
X10920000Y6340000D02*
X10920000Y6260000D01*
X10880000Y6300000D02*
X10960000Y6300000D01*
X10920000Y6140000D02*
X10920000Y6060000D01*
X10880000Y6100000D02*
X10960000Y6100000D01*
X10920000Y5940000D02*
X10920000Y5860000D01*
X10880000Y5900000D02*
X10960000Y5900000D01*
X10920000Y5740000D02*
X10920000Y5660000D01*
X10880000Y5700000D02*
X10960000Y5700000D01*
X10920000Y5540000D02*
X10920000Y5460000D01*
X10880000Y5500000D02*
X10960000Y5500000D01*
X10920000Y4565000D02*
X10920000Y4485000D01*
X10880000Y4525000D02*
X10960000Y4525000D01*
X10920000Y4365000D02*
X10920000Y4285000D01*
X10880000Y4325000D02*
X10960000Y4325000D01*
X10920000Y4165000D02*
X10920000Y4085000D01*
X10880000Y4125000D02*
X10960000Y4125000D01*
X10920000Y3965000D02*
X10920000Y3885000D01*
X10880000Y3925000D02*
X10960000Y3925000D01*
X10920000Y3765000D02*
X10920000Y3685000D01*
X10880000Y3725000D02*
X10960000Y3725000D01*
X10920000Y3565000D02*
X10920000Y3485000D01*
X10880000Y3525000D02*
X10960000Y3525000D01*
X10920000Y3365000D02*
X10920000Y3285000D01*
X10880000Y3325000D02*
X10960000Y3325000D01*
X10920000Y3165000D02*
X10920000Y3085000D01*
X10880000Y3125000D02*
X10960000Y3125000D01*
X10920000Y2965000D02*
X10920000Y2885000D01*
X10880000Y2925000D02*
X10960000Y2925000D01*
X10920000Y2765000D02*
X10920000Y2685000D01*
X10880000Y2725000D02*
X10960000Y2725000D01*
X10920000Y2565000D02*
X10920000Y2485000D01*
X10880000Y2525000D02*
X10960000Y2525000D01*
X10920000Y2365000D02*
X10920000Y2285000D01*
X10880000Y2325000D02*
X10960000Y2325000D01*
X10920000Y2165000D02*
X10920000Y2085000D01*
X10880000Y2125000D02*
X10960000Y2125000D01*
X10920000Y1965000D02*
X10920000Y1885000D01*
X10880000Y1925000D02*
X10960000Y1925000D01*
X10920000Y1765000D02*
X10920000Y1685000D01*
X10880000Y1725000D02*
X10960000Y1725000D01*
X10920000Y1565000D02*
X10920000Y1485000D01*
X10880000Y1525000D02*
X10960000Y1525000D01*
X11120000Y6940000D02*
X11120000Y6860000D01*
X11080000Y6900000D02*
X11160000Y6900000D01*
X11120000Y6740000D02*
X11120000Y6660000D01*
X11080000Y6700000D02*
X11160000Y6700000D01*
X11120000Y6540000D02*
X11120000Y6460000D01*
X11080000Y6500000D02*
X11160000Y6500000D01*
X11120000Y6340000D02*
X11120000Y6260000D01*
X11080000Y6300000D02*
X11160000Y6300000D01*
X11120000Y6140000D02*
X11120000Y6060000D01*
X11080000Y6100000D02*
X11160000Y6100000D01*
X11120000Y5940000D02*
X11120000Y5860000D01*
X11080000Y5900000D02*
X11160000Y5900000D01*
X11120000Y5740000D02*
X11120000Y5660000D01*
X11080000Y5700000D02*
X11160000Y5700000D01*
X11120000Y5540000D02*
X11120000Y5460000D01*
X11080000Y5500000D02*
X11160000Y5500000D01*
X11120000Y4565000D02*
X11120000Y4485000D01*
X11080000Y4525000D02*
X11160000Y4525000D01*
X11120000Y4365000D02*
X11120000Y4285000D01*
X11080000Y4325000D02*
X11160000Y4325000D01*
X11120000Y4165000D02*
X11120000Y4085000D01*
X11080000Y4125000D02*
X11160000Y4125000D01*
X11120000Y3965000D02*
X11120000Y3885000D01*
X11080000Y3925000D02*
X11160000Y3925000D01*
X11120000Y3765000D02*
X11120000Y3685000D01*
X11080000Y3725000D02*
X11160000Y3725000D01*
X11120000Y3565000D02*
X11120000Y3485000D01*
X11080000Y3525000D02*
X11160000Y3525000D01*
X11120000Y3365000D02*
X11120000Y3285000D01*
X11080000Y3325000D02*
X11160000Y3325000D01*
X11120000Y3165000D02*
X11120000Y3085000D01*
X11080000Y3125000D02*
X11160000Y3125000D01*
X11120000Y2965000D02*
X11120000Y2885000D01*
X11080000Y2925000D02*
X11160000Y2925000D01*
X11120000Y2765000D02*
X11120000Y2685000D01*
X11080000Y2725000D02*
X11160000Y2725000D01*
X11120000Y2565000D02*
X11120000Y2485000D01*
X11080000Y2525000D02*
X11160000Y2525000D01*
X11120000Y2365000D02*
X11120000Y2285000D01*
X11080000Y2325000D02*
X11160000Y2325000D01*
X11120000Y2165000D02*
X11120000Y2085000D01*
X11080000Y2125000D02*
X11160000Y2125000D01*
X11120000Y1965000D02*
X11120000Y1885000D01*
X11080000Y1925000D02*
X11160000Y1925000D01*
X11120000Y1765000D02*
X11120000Y1685000D01*
X11080000Y1725000D02*
X11160000Y1725000D01*
X11120000Y1565000D02*
X11120000Y1485000D01*
X11080000Y1525000D02*
X11160000Y1525000D01*
D15*
X875356Y9424644D02*
X875356Y9495356D01*
X804644Y9495356D01*
X804644Y9424644D01*
X875356Y9424644D01*
D11*
X880000Y9385000D02*
X880000Y9535000D01*
X800000Y9385000D02*
X800000Y9535000D01*
X880000Y9535000D02*
G75*
G03*
X800000Y9535000I-40000J0D01*
G01*
X800000Y9385000D02*
G75*
G03*
X880000Y9385000I40000J0D01*
G01*
D15*
X1325356Y9324644D02*
X1325356Y9395356D01*
X1254644Y9395356D01*
X1254644Y9324644D01*
X1325356Y9324644D01*
D11*
X1355000Y9400000D02*
X1225000Y9400000D01*
X1355000Y9320000D02*
X1225000Y9320000D01*
X1225000Y9400000D02*
G75*
G03*
X1225000Y9320000I0J-40000D01*
G01*
X1355000Y9320000D02*
G75*
G03*
X1355000Y9400000I0J40000D01*
G01*
D15*
X1325356Y8724644D02*
X1325356Y8795356D01*
X1254644Y8795356D01*
X1254644Y8724644D01*
X1325356Y8724644D01*
D11*
X1390000Y8800000D02*
X1190000Y8800000D01*
X1390000Y8720000D02*
X1190000Y8720000D01*
X1190000Y8800000D02*
G75*
G03*
X1190000Y8720000I0J-40000D01*
G01*
X1390000Y8720000D02*
G75*
G03*
X1390000Y8800000I0J40000D01*
G01*
D15*
X1775356Y9424644D02*
X1775356Y9495356D01*
X1704644Y9495356D01*
X1704644Y9424644D01*
X1775356Y9424644D01*
D11*
X1780000Y9385000D02*
X1780000Y9535000D01*
X1700000Y9385000D02*
X1700000Y9535000D01*
X1780000Y9535000D02*
G75*
G03*
X1700000Y9535000I-40000J0D01*
G01*
X1700000Y9385000D02*
G75*
G03*
X1780000Y9385000I40000J0D01*
G01*
D15*
X7050856Y9472611D02*
X7050856Y9543323D01*
X6980144Y9543323D01*
X6980144Y9472611D01*
X7050856Y9472611D01*
X7165356Y9670611D02*
X7165356Y9741323D01*
X7094644Y9741323D01*
X7094644Y9670611D01*
X7165356Y9670611D01*
X7165356Y9274611D02*
X7165356Y9345323D01*
X7094644Y9345323D01*
X7094644Y9274611D01*
X7165356Y9274611D01*
X7279856Y9472611D02*
X7279856Y9543323D01*
X7209144Y9543323D01*
X7209144Y9472611D01*
X7279856Y9472611D01*
X7394356Y9670611D02*
X7394356Y9741323D01*
X7323644Y9741323D01*
X7323644Y9670611D01*
X7394356Y9670611D01*
X7394356Y9274611D02*
X7394356Y9345323D01*
X7323644Y9345323D01*
X7323644Y9274611D01*
X7394356Y9274611D01*
X7508856Y9472611D02*
X7508856Y9543323D01*
X7438144Y9543323D01*
X7438144Y9472611D01*
X7508856Y9472611D01*
X7623356Y9670611D02*
X7623356Y9741323D01*
X7552644Y9741323D01*
X7552644Y9670611D01*
X7623356Y9670611D01*
X7623356Y9274611D02*
X7623356Y9345323D01*
X7552644Y9345323D01*
X7552644Y9274611D01*
X7623356Y9274611D01*
X7737856Y9472611D02*
X7737856Y9543323D01*
X7667144Y9543323D01*
X7667144Y9472611D01*
X7737856Y9472611D01*
X7852356Y9670611D02*
X7852356Y9741323D01*
X7781644Y9741323D01*
X7781644Y9670611D01*
X7852356Y9670611D01*
X7852356Y9274611D02*
X7852356Y9345323D01*
X7781644Y9345323D01*
X7781644Y9274611D01*
X7852356Y9274611D01*
X7966856Y9472611D02*
X7966856Y9543323D01*
X7896144Y9543323D01*
X7896144Y9472611D01*
X7966856Y9472611D01*
X8081356Y9670611D02*
X8081356Y9741323D01*
X8010644Y9741323D01*
X8010644Y9670611D01*
X8081356Y9670611D01*
X8081356Y9274611D02*
X8081356Y9345323D01*
X8010644Y9345323D01*
X8010644Y9274611D01*
X8081356Y9274611D01*
D16*
X5000000Y7595000D02*
X5055000Y7650000D01*
X5000000Y7705000D01*
X4945000Y7650000D01*
X5000000Y7595000D01*
X5000000Y7145000D02*
X5055000Y7200000D01*
X5000000Y7255000D01*
X4945000Y7200000D01*
X5000000Y7145000D01*
X5650000Y7595000D02*
X5705000Y7650000D01*
X5650000Y7705000D01*
X5595000Y7650000D01*
X5650000Y7595000D01*
X5650000Y7145000D02*
X5705000Y7200000D01*
X5650000Y7255000D01*
X5595000Y7200000D01*
X5650000Y7145000D01*
X5989422Y7604423D02*
X6044422Y7659423D01*
X5989422Y7714423D01*
X5934422Y7659423D01*
X5989422Y7604423D01*
X5989422Y7154423D02*
X6044422Y7209423D01*
X5989422Y7264423D01*
X5934422Y7209423D01*
X5989422Y7154423D01*
X6639422Y7604423D02*
X6694422Y7659423D01*
X6639422Y7714423D01*
X6584422Y7659423D01*
X6639422Y7604423D01*
X6639422Y7154423D02*
X6694422Y7209423D01*
X6639422Y7264423D01*
X6584422Y7209423D01*
X6639422Y7154423D01*
D17*
X9318000Y9178000D02*
X9548000Y8948000D01*
X9548000Y9178000D02*
X9318000Y8948000D01*
X9548000Y9063000D02*
G75*
G03*
X9548000Y9063000I-115000J0D01*
G01*
X10632000Y9178000D02*
X10862000Y8948000D01*
X10862000Y9178000D02*
X10632000Y8948000D01*
X10862000Y9063000D02*
G75*
G03*
X10862000Y9063000I-115000J0D01*
G01*
D18*
X6151500Y9674967D02*
X6471500Y9354967D01*
X6471500Y9674967D02*
X6151500Y9354967D01*
X6311500Y9674967D02*
X6311500Y9354967D01*
X6151500Y9514967D02*
X6471500Y9514967D01*
X8651500Y9674967D02*
X8971500Y9354967D01*
X8971500Y9674967D02*
X8651500Y9354967D01*
X8811500Y9674967D02*
X8811500Y9354967D01*
X8651500Y9514967D02*
X8971500Y9514967D01*
D11*
X254541Y-303554D02*
X254541Y-103553D01*
X302160Y-103553D01*
X330731Y-113077D01*
X349779Y-132125D01*
X359303Y-151173D01*
X368827Y-189268D01*
X368827Y-217839D01*
X359303Y-255934D01*
X349779Y-274982D01*
X330731Y-294030D01*
X302160Y-303554D01*
X254541Y-303554D01*
X454541Y-303554D02*
X454541Y-170220D01*
X454541Y-208315D02*
X464065Y-189268D01*
X473588Y-179744D01*
X492636Y-170220D01*
X511684Y-170220D01*
X578350Y-303554D02*
X578350Y-170220D01*
X578350Y-103553D02*
X568827Y-113077D01*
X578350Y-122601D01*
X587874Y-113077D01*
X578350Y-103553D01*
X578350Y-122601D01*
X702160Y-303554D02*
X683112Y-294030D01*
X673589Y-274982D01*
X673589Y-103553D01*
X806922Y-303554D02*
X787874Y-294030D01*
X778350Y-274982D01*
X778350Y-103553D01*
X1035493Y-303554D02*
X1035493Y-103553D01*
X1102160Y-246411D01*
X1168827Y-103553D01*
X1168827Y-303554D01*
X1349779Y-303554D02*
X1349779Y-198792D01*
X1340255Y-179744D01*
X1321208Y-170220D01*
X1283112Y-170220D01*
X1264065Y-179744D01*
X1349779Y-294030D02*
X1330731Y-303554D01*
X1283112Y-303554D01*
X1264065Y-294030D01*
X1254541Y-274982D01*
X1254541Y-255934D01*
X1264065Y-236887D01*
X1283112Y-227363D01*
X1330731Y-227363D01*
X1349779Y-217839D01*
X1445017Y-170220D02*
X1445017Y-370220D01*
X1445017Y-179744D02*
X1464065Y-170220D01*
X1502160Y-170220D01*
X1521208Y-179744D01*
X1530731Y-189268D01*
X1540255Y-208315D01*
X1540255Y-265458D01*
X1530731Y-284506D01*
X1521208Y-294030D01*
X1502160Y-303554D01*
X1464065Y-303554D01*
X1445017Y-294030D01*
X1625969Y-284506D02*
X1635493Y-294030D01*
X1625969Y-303554D01*
X1616446Y-294030D01*
X1625969Y-284506D01*
X1625969Y-303554D01*
X1625969Y-179744D02*
X1635493Y-189268D01*
X1625969Y-198792D01*
X1616446Y-189268D01*
X1625969Y-179744D01*
X1625969Y-198792D01*
D12*
X-33078Y-618077D02*
X-3078Y-648077D01*
X-3078Y-618077D02*
X-33078Y-648077D01*
D11*
X292636Y-523553D02*
X311684Y-523553D01*
X330731Y-533077D01*
X340255Y-542601D01*
X349779Y-561649D01*
X359303Y-599744D01*
X359303Y-647363D01*
X349779Y-685458D01*
X340255Y-704506D01*
X330731Y-714030D01*
X311684Y-723553D01*
X292636Y-723553D01*
X273589Y-714030D01*
X264065Y-704506D01*
X254541Y-685458D01*
X245017Y-647363D01*
X245017Y-599744D01*
X254541Y-561649D01*
X264065Y-542601D01*
X273589Y-533077D01*
X292636Y-523553D01*
X445017Y-704506D02*
X454541Y-714030D01*
X445017Y-723553D01*
X435493Y-714030D01*
X445017Y-704506D01*
X445017Y-723553D01*
X521208Y-523553D02*
X645017Y-523553D01*
X578350Y-599744D01*
X606922Y-599744D01*
X625970Y-609268D01*
X635493Y-618792D01*
X645017Y-637839D01*
X645017Y-685458D01*
X635493Y-704506D01*
X625970Y-714030D01*
X606922Y-723553D01*
X549779Y-723553D01*
X530731Y-714030D01*
X521208Y-704506D01*
X768827Y-523553D02*
X787874Y-523553D01*
X806922Y-533077D01*
X816446Y-542601D01*
X825969Y-561649D01*
X835493Y-599744D01*
X835493Y-647363D01*
X825969Y-685458D01*
X816446Y-704506D01*
X806922Y-714030D01*
X787874Y-723553D01*
X768827Y-723553D01*
X749779Y-714030D01*
X740255Y-704506D01*
X730731Y-685458D01*
X721208Y-647363D01*
X721208Y-599744D01*
X730731Y-561649D01*
X740255Y-542601D01*
X749779Y-533077D01*
X768827Y-523553D01*
X959303Y-523553D02*
X978350Y-523553D01*
X997398Y-533077D01*
X1006922Y-542601D01*
X1016446Y-561649D01*
X1025969Y-599744D01*
X1025969Y-647363D01*
X1016446Y-685458D01*
X1006922Y-704506D01*
X997398Y-714030D01*
X978350Y-723553D01*
X959303Y-723553D01*
X940255Y-714030D01*
X930731Y-704506D01*
X921208Y-685458D01*
X911684Y-647363D01*
X911684Y-599744D01*
X921208Y-561649D01*
X930731Y-542601D01*
X940255Y-533077D01*
X959303Y-523553D01*
X1111684Y-723553D02*
X1111684Y-590220D01*
X1111684Y-609268D02*
X1121208Y-599744D01*
X1140255Y-590220D01*
X1168827Y-590220D01*
X1187874Y-599744D01*
X1197398Y-618792D01*
X1197398Y-723553D01*
X1197398Y-618792D02*
X1206922Y-599744D01*
X1225970Y-590220D01*
X1254541Y-590220D01*
X1273589Y-599744D01*
X1283112Y-618792D01*
X1283112Y-723553D01*
X1378350Y-723553D02*
X1378350Y-590220D01*
X1378350Y-609268D02*
X1387874Y-599744D01*
X1406922Y-590220D01*
X1435493Y-590220D01*
X1454541Y-599744D01*
X1464065Y-618792D01*
X1464065Y-723553D01*
X1464065Y-618792D02*
X1473588Y-599744D01*
X1492636Y-590220D01*
X1521208Y-590220D01*
X1540255Y-599744D01*
X1549779Y-618792D01*
X1549779Y-723553D01*
X1940255Y-514030D02*
X1768827Y-771173D01*
X2197398Y-523553D02*
X2216446Y-523553D01*
X2235493Y-533077D01*
X2245017Y-542601D01*
X2254541Y-561649D01*
X2264065Y-599744D01*
X2264065Y-647363D01*
X2254541Y-685458D01*
X2245017Y-704506D01*
X2235493Y-714030D01*
X2216446Y-723553D01*
X2197398Y-723553D01*
X2178350Y-714030D01*
X2168827Y-704506D01*
X2159303Y-685458D01*
X2149779Y-647363D01*
X2149779Y-599744D01*
X2159303Y-561649D01*
X2168827Y-542601D01*
X2178350Y-533077D01*
X2197398Y-523553D01*
X2349779Y-704506D02*
X2359303Y-714030D01*
X2349779Y-723553D01*
X2340255Y-714030D01*
X2349779Y-704506D01*
X2349779Y-723553D01*
X2483112Y-523553D02*
X2502160Y-523553D01*
X2521208Y-533077D01*
X2530731Y-542601D01*
X2540255Y-561649D01*
X2549779Y-599744D01*
X2549779Y-647363D01*
X2540255Y-685458D01*
X2530731Y-704506D01*
X2521208Y-714030D01*
X2502160Y-723553D01*
X2483112Y-723553D01*
X2464065Y-714030D01*
X2454541Y-704506D01*
X2445017Y-685458D01*
X2435493Y-647363D01*
X2435493Y-599744D01*
X2445017Y-561649D01*
X2454541Y-542601D01*
X2464065Y-533077D01*
X2483112Y-523553D01*
X2740255Y-723553D02*
X2625970Y-723553D01*
X2683112Y-723553D02*
X2683112Y-523553D01*
X2664065Y-552125D01*
X2645017Y-571173D01*
X2625970Y-580696D01*
X2930731Y-723553D02*
X2816446Y-723553D01*
X2873588Y-723553D02*
X2873588Y-523553D01*
X2854541Y-552125D01*
X2835493Y-571173D01*
X2816446Y-580696D01*
X3045017Y-609268D02*
X3025969Y-599744D01*
X3016446Y-590220D01*
X3006922Y-571173D01*
X3006922Y-561649D01*
X3016446Y-542601D01*
X3025969Y-533077D01*
X3045017Y-523553D01*
X3083112Y-523553D01*
X3102160Y-533077D01*
X3111684Y-542601D01*
X3121208Y-561649D01*
X3121208Y-571173D01*
X3111684Y-590220D01*
X3102160Y-599744D01*
X3083112Y-609268D01*
X3045017Y-609268D01*
X3025969Y-618792D01*
X3016446Y-628315D01*
X3006922Y-647363D01*
X3006922Y-685458D01*
X3016446Y-704506D01*
X3025969Y-714030D01*
X3045017Y-723553D01*
X3083112Y-723553D01*
X3102160Y-714030D01*
X3111684Y-704506D01*
X3121208Y-685458D01*
X3121208Y-647363D01*
X3111684Y-628315D01*
X3102160Y-618792D01*
X3083112Y-609268D01*
X3197398Y-523553D02*
X3197398Y-561649D01*
X3273588Y-523553D02*
X3273588Y-561649D01*
X3568827Y-799744D02*
X3559303Y-790220D01*
X3540255Y-761649D01*
X3530731Y-742601D01*
X3521208Y-714030D01*
X3511684Y-666411D01*
X3511684Y-628315D01*
X3521208Y-580696D01*
X3530731Y-552125D01*
X3540255Y-533077D01*
X3559303Y-504506D01*
X3568827Y-494982D01*
X3749779Y-723553D02*
X3635493Y-723553D01*
X3692636Y-723553D02*
X3692636Y-523553D01*
X3673588Y-552125D01*
X3654541Y-571173D01*
X3635493Y-580696D01*
X3930731Y-523553D02*
X3835493Y-523553D01*
X3825969Y-618792D01*
X3835493Y-609268D01*
X3854541Y-599744D01*
X3902160Y-599744D01*
X3921208Y-609268D01*
X3930731Y-618792D01*
X3940255Y-637839D01*
X3940255Y-685458D01*
X3930731Y-704506D01*
X3921208Y-714030D01*
X3902160Y-723553D01*
X3854541Y-723553D01*
X3835493Y-714030D01*
X3825969Y-704506D01*
X4035493Y-723553D02*
X4073588Y-723553D01*
X4092636Y-714030D01*
X4102160Y-704506D01*
X4121208Y-675935D01*
X4130731Y-637839D01*
X4130731Y-561649D01*
X4121208Y-542601D01*
X4111684Y-533077D01*
X4092636Y-523553D01*
X4054541Y-523553D01*
X4035493Y-533077D01*
X4025969Y-542601D01*
X4016446Y-561649D01*
X4016446Y-609268D01*
X4025969Y-628315D01*
X4035493Y-637839D01*
X4054541Y-647363D01*
X4092636Y-647363D01*
X4111684Y-637839D01*
X4121208Y-628315D01*
X4130731Y-609268D01*
X4368827Y-723553D02*
X4368827Y-523553D01*
X4454541Y-723553D02*
X4454541Y-618792D01*
X4445017Y-599744D01*
X4425970Y-590220D01*
X4397398Y-590220D01*
X4378350Y-599744D01*
X4368827Y-609268D01*
X4578350Y-723553D02*
X4559303Y-714030D01*
X4549779Y-704506D01*
X4540255Y-685458D01*
X4540255Y-628315D01*
X4549779Y-609268D01*
X4559303Y-599744D01*
X4578350Y-590220D01*
X4606922Y-590220D01*
X4625970Y-599744D01*
X4635493Y-609268D01*
X4645017Y-628315D01*
X4645017Y-685458D01*
X4635493Y-704506D01*
X4625970Y-714030D01*
X4606922Y-723553D01*
X4578350Y-723553D01*
X4759303Y-723553D02*
X4740255Y-714030D01*
X4730731Y-694982D01*
X4730731Y-523553D01*
X4911684Y-714030D02*
X4892636Y-723553D01*
X4854541Y-723553D01*
X4835493Y-714030D01*
X4825970Y-694982D01*
X4825970Y-618792D01*
X4835493Y-599744D01*
X4854541Y-590220D01*
X4892636Y-590220D01*
X4911684Y-599744D01*
X4921208Y-618792D01*
X4921208Y-637839D01*
X4825970Y-656887D01*
X4997398Y-714030D02*
X5016446Y-723553D01*
X5054541Y-723553D01*
X5073589Y-714030D01*
X5083112Y-694982D01*
X5083112Y-685458D01*
X5073589Y-666411D01*
X5054541Y-656887D01*
X5025970Y-656887D01*
X5006922Y-647363D01*
X4997398Y-628315D01*
X4997398Y-618792D01*
X5006922Y-599744D01*
X5025970Y-590220D01*
X5054541Y-590220D01*
X5073589Y-599744D01*
X5149779Y-799744D02*
X5159303Y-790220D01*
X5178350Y-761649D01*
X5187874Y-742601D01*
X5197398Y-714030D01*
X5206922Y-666411D01*
X5206922Y-628315D01*
X5197398Y-580696D01*
X5187874Y-552125D01*
X5178350Y-533077D01*
X5159303Y-504506D01*
X5149779Y-494982D01*
D13*
X-3078Y-897077D02*
G75*
G03*
X-3078Y-897077I-20000J0D01*
G01*
D11*
X292636Y-787553D02*
X311684Y-787553D01*
X330731Y-797077D01*
X340255Y-806601D01*
X349779Y-825649D01*
X359303Y-863744D01*
X359303Y-911363D01*
X349779Y-949458D01*
X340255Y-968506D01*
X330731Y-978030D01*
X311684Y-987553D01*
X292636Y-987553D01*
X273589Y-978030D01*
X264065Y-968506D01*
X254541Y-949458D01*
X245017Y-911363D01*
X245017Y-863744D01*
X254541Y-825649D01*
X264065Y-806601D01*
X273589Y-797077D01*
X292636Y-787553D01*
X445017Y-968506D02*
X454541Y-978030D01*
X445017Y-987553D01*
X435493Y-978030D01*
X445017Y-968506D01*
X445017Y-987553D01*
X625970Y-854220D02*
X625970Y-987553D01*
X578350Y-778030D02*
X530731Y-920887D01*
X654541Y-920887D01*
X768827Y-787553D02*
X787874Y-787553D01*
X806922Y-797077D01*
X816446Y-806601D01*
X825969Y-825649D01*
X835493Y-863744D01*
X835493Y-911363D01*
X825969Y-949458D01*
X816446Y-968506D01*
X806922Y-978030D01*
X787874Y-987553D01*
X768827Y-987553D01*
X749779Y-978030D01*
X740255Y-968506D01*
X730731Y-949458D01*
X721208Y-911363D01*
X721208Y-863744D01*
X730731Y-825649D01*
X740255Y-806601D01*
X749779Y-797077D01*
X768827Y-787553D01*
X959303Y-787553D02*
X978350Y-787553D01*
X997398Y-797077D01*
X1006922Y-806601D01*
X1016446Y-825649D01*
X1025969Y-863744D01*
X1025969Y-911363D01*
X1016446Y-949458D01*
X1006922Y-968506D01*
X997398Y-978030D01*
X978350Y-987553D01*
X959303Y-987553D01*
X940255Y-978030D01*
X930731Y-968506D01*
X921208Y-949458D01*
X911684Y-911363D01*
X911684Y-863744D01*
X921208Y-825649D01*
X930731Y-806601D01*
X940255Y-797077D01*
X959303Y-787553D01*
X1111684Y-987553D02*
X1111684Y-854220D01*
X1111684Y-873268D02*
X1121208Y-863744D01*
X1140255Y-854220D01*
X1168827Y-854220D01*
X1187874Y-863744D01*
X1197398Y-882792D01*
X1197398Y-987553D01*
X1197398Y-882792D02*
X1206922Y-863744D01*
X1225970Y-854220D01*
X1254541Y-854220D01*
X1273589Y-863744D01*
X1283112Y-882792D01*
X1283112Y-987553D01*
X1378350Y-987553D02*
X1378350Y-854220D01*
X1378350Y-873268D02*
X1387874Y-863744D01*
X1406922Y-854220D01*
X1435493Y-854220D01*
X1454541Y-863744D01*
X1464065Y-882792D01*
X1464065Y-987553D01*
X1464065Y-882792D02*
X1473588Y-863744D01*
X1492636Y-854220D01*
X1521208Y-854220D01*
X1540255Y-863744D01*
X1549779Y-882792D01*
X1549779Y-987553D01*
X1940255Y-778030D02*
X1768827Y-1035173D01*
X2197398Y-787553D02*
X2216446Y-787553D01*
X2235493Y-797077D01*
X2245017Y-806601D01*
X2254541Y-825649D01*
X2264065Y-863744D01*
X2264065Y-911363D01*
X2254541Y-949458D01*
X2245017Y-968506D01*
X2235493Y-978030D01*
X2216446Y-987553D01*
X2197398Y-987553D01*
X2178350Y-978030D01*
X2168827Y-968506D01*
X2159303Y-949458D01*
X2149779Y-911363D01*
X2149779Y-863744D01*
X2159303Y-825649D01*
X2168827Y-806601D01*
X2178350Y-797077D01*
X2197398Y-787553D01*
X2349779Y-968506D02*
X2359303Y-978030D01*
X2349779Y-987553D01*
X2340255Y-978030D01*
X2349779Y-968506D01*
X2349779Y-987553D01*
X2483112Y-787553D02*
X2502160Y-787553D01*
X2521208Y-797077D01*
X2530731Y-806601D01*
X2540255Y-825649D01*
X2549779Y-863744D01*
X2549779Y-911363D01*
X2540255Y-949458D01*
X2530731Y-968506D01*
X2521208Y-978030D01*
X2502160Y-987553D01*
X2483112Y-987553D01*
X2464065Y-978030D01*
X2454541Y-968506D01*
X2445017Y-949458D01*
X2435493Y-911363D01*
X2435493Y-863744D01*
X2445017Y-825649D01*
X2454541Y-806601D01*
X2464065Y-797077D01*
X2483112Y-787553D01*
X2740255Y-987553D02*
X2625970Y-987553D01*
X2683112Y-987553D02*
X2683112Y-787553D01*
X2664065Y-816125D01*
X2645017Y-835173D01*
X2625970Y-844696D01*
X2921208Y-787553D02*
X2825969Y-787553D01*
X2816446Y-882792D01*
X2825969Y-873268D01*
X2845017Y-863744D01*
X2892636Y-863744D01*
X2911684Y-873268D01*
X2921208Y-882792D01*
X2930731Y-901839D01*
X2930731Y-949458D01*
X2921208Y-968506D01*
X2911684Y-978030D01*
X2892636Y-987553D01*
X2845017Y-987553D01*
X2825969Y-978030D01*
X2816446Y-968506D01*
X2997398Y-787553D02*
X3130731Y-787553D01*
X3045017Y-987553D01*
X3197398Y-787553D02*
X3197398Y-825649D01*
X3273588Y-787553D02*
X3273588Y-825649D01*
X3568827Y-1063744D02*
X3559303Y-1054220D01*
X3540255Y-1025649D01*
X3530731Y-1006601D01*
X3521208Y-978030D01*
X3511684Y-930411D01*
X3511684Y-892315D01*
X3521208Y-844696D01*
X3530731Y-816125D01*
X3540255Y-797077D01*
X3559303Y-768506D01*
X3568827Y-758982D01*
X3635493Y-806601D02*
X3645017Y-797077D01*
X3664065Y-787553D01*
X3711684Y-787553D01*
X3730731Y-797077D01*
X3740255Y-806601D01*
X3749779Y-825649D01*
X3749779Y-844696D01*
X3740255Y-873268D01*
X3625969Y-987553D01*
X3749779Y-987553D01*
X3825969Y-806601D02*
X3835493Y-797077D01*
X3854541Y-787553D01*
X3902160Y-787553D01*
X3921208Y-797077D01*
X3930731Y-806601D01*
X3940255Y-825649D01*
X3940255Y-844696D01*
X3930731Y-873268D01*
X3816446Y-987553D01*
X3940255Y-987553D01*
X4178350Y-987553D02*
X4178350Y-787553D01*
X4264065Y-987553D02*
X4264065Y-882792D01*
X4254541Y-863744D01*
X4235493Y-854220D01*
X4206922Y-854220D01*
X4187874Y-863744D01*
X4178350Y-873268D01*
X4387874Y-987553D02*
X4368827Y-978030D01*
X4359303Y-968506D01*
X4349779Y-949458D01*
X4349779Y-892315D01*
X4359303Y-873268D01*
X4368827Y-863744D01*
X4387874Y-854220D01*
X4416446Y-854220D01*
X4435493Y-863744D01*
X4445017Y-873268D01*
X4454541Y-892315D01*
X4454541Y-949458D01*
X4445017Y-968506D01*
X4435493Y-978030D01*
X4416446Y-987553D01*
X4387874Y-987553D01*
X4568827Y-987553D02*
X4549779Y-978030D01*
X4540255Y-958982D01*
X4540255Y-787553D01*
X4721208Y-978030D02*
X4702160Y-987553D01*
X4664065Y-987553D01*
X4645017Y-978030D01*
X4635493Y-958982D01*
X4635493Y-882792D01*
X4645017Y-863744D01*
X4664065Y-854220D01*
X4702160Y-854220D01*
X4721208Y-863744D01*
X4730731Y-882792D01*
X4730731Y-901839D01*
X4635493Y-920887D01*
X4806922Y-978030D02*
X4825970Y-987553D01*
X4864065Y-987553D01*
X4883112Y-978030D01*
X4892636Y-958982D01*
X4892636Y-949458D01*
X4883112Y-930411D01*
X4864065Y-920887D01*
X4835493Y-920887D01*
X4816446Y-911363D01*
X4806922Y-892315D01*
X4806922Y-882792D01*
X4816446Y-863744D01*
X4835493Y-854220D01*
X4864065Y-854220D01*
X4883112Y-863744D01*
X4959303Y-1063744D02*
X4968827Y-1054220D01*
X4987874Y-1025649D01*
X4997398Y-1006601D01*
X5006922Y-978030D01*
X5016446Y-930411D01*
X5016446Y-892315D01*
X5006922Y-844696D01*
X4997398Y-816125D01*
X4987874Y-797077D01*
X4968827Y-768506D01*
X4959303Y-758982D01*
D14*
X-43078Y-1121077D02*
X-43078Y-1201077D01*
X-83078Y-1161077D02*
X-3078Y-1161077D01*
D11*
X292636Y-1051554D02*
X311684Y-1051554D01*
X330731Y-1061077D01*
X340255Y-1070601D01*
X349779Y-1089649D01*
X359303Y-1127744D01*
X359303Y-1175363D01*
X349779Y-1213458D01*
X340255Y-1232506D01*
X330731Y-1242030D01*
X311684Y-1251554D01*
X292636Y-1251554D01*
X273589Y-1242030D01*
X264065Y-1232506D01*
X254541Y-1213458D01*
X245017Y-1175363D01*
X245017Y-1127744D01*
X254541Y-1089649D01*
X264065Y-1070601D01*
X273589Y-1061077D01*
X292636Y-1051554D01*
X445017Y-1232506D02*
X454541Y-1242030D01*
X445017Y-1251554D01*
X435493Y-1242030D01*
X445017Y-1232506D01*
X445017Y-1251554D01*
X568827Y-1137268D02*
X549779Y-1127744D01*
X540255Y-1118220D01*
X530731Y-1099173D01*
X530731Y-1089649D01*
X540255Y-1070601D01*
X549779Y-1061077D01*
X568827Y-1051554D01*
X606922Y-1051554D01*
X625970Y-1061077D01*
X635493Y-1070601D01*
X645017Y-1089649D01*
X645017Y-1099173D01*
X635493Y-1118220D01*
X625970Y-1127744D01*
X606922Y-1137268D01*
X568827Y-1137268D01*
X549779Y-1146792D01*
X540255Y-1156315D01*
X530731Y-1175363D01*
X530731Y-1213458D01*
X540255Y-1232506D01*
X549779Y-1242030D01*
X568827Y-1251554D01*
X606922Y-1251554D01*
X625970Y-1242030D01*
X635493Y-1232506D01*
X645017Y-1213458D01*
X645017Y-1175363D01*
X635493Y-1156315D01*
X625970Y-1146792D01*
X606922Y-1137268D01*
X768827Y-1051554D02*
X787874Y-1051554D01*
X806922Y-1061077D01*
X816446Y-1070601D01*
X825969Y-1089649D01*
X835493Y-1127744D01*
X835493Y-1175363D01*
X825969Y-1213458D01*
X816446Y-1232506D01*
X806922Y-1242030D01*
X787874Y-1251554D01*
X768827Y-1251554D01*
X749779Y-1242030D01*
X740255Y-1232506D01*
X730731Y-1213458D01*
X721208Y-1175363D01*
X721208Y-1127744D01*
X730731Y-1089649D01*
X740255Y-1070601D01*
X749779Y-1061077D01*
X768827Y-1051554D01*
X959303Y-1051554D02*
X978350Y-1051554D01*
X997398Y-1061077D01*
X1006922Y-1070601D01*
X1016446Y-1089649D01*
X1025969Y-1127744D01*
X1025969Y-1175363D01*
X1016446Y-1213458D01*
X1006922Y-1232506D01*
X997398Y-1242030D01*
X978350Y-1251554D01*
X959303Y-1251554D01*
X940255Y-1242030D01*
X930731Y-1232506D01*
X921208Y-1213458D01*
X911684Y-1175363D01*
X911684Y-1127744D01*
X921208Y-1089649D01*
X930731Y-1070601D01*
X940255Y-1061077D01*
X959303Y-1051554D01*
X1111684Y-1251554D02*
X1111684Y-1118220D01*
X1111684Y-1137268D02*
X1121208Y-1127744D01*
X1140255Y-1118220D01*
X1168827Y-1118220D01*
X1187874Y-1127744D01*
X1197398Y-1146792D01*
X1197398Y-1251554D01*
X1197398Y-1146792D02*
X1206922Y-1127744D01*
X1225970Y-1118220D01*
X1254541Y-1118220D01*
X1273589Y-1127744D01*
X1283112Y-1146792D01*
X1283112Y-1251554D01*
X1378350Y-1251554D02*
X1378350Y-1118220D01*
X1378350Y-1137268D02*
X1387874Y-1127744D01*
X1406922Y-1118220D01*
X1435493Y-1118220D01*
X1454541Y-1127744D01*
X1464065Y-1146792D01*
X1464065Y-1251554D01*
X1464065Y-1146792D02*
X1473588Y-1127744D01*
X1492636Y-1118220D01*
X1521208Y-1118220D01*
X1540255Y-1127744D01*
X1549779Y-1146792D01*
X1549779Y-1251554D01*
X1940255Y-1042030D02*
X1768827Y-1299173D01*
X2197398Y-1051554D02*
X2216446Y-1051554D01*
X2235493Y-1061077D01*
X2245017Y-1070601D01*
X2254541Y-1089649D01*
X2264065Y-1127744D01*
X2264065Y-1175363D01*
X2254541Y-1213458D01*
X2245017Y-1232506D01*
X2235493Y-1242030D01*
X2216446Y-1251554D01*
X2197398Y-1251554D01*
X2178350Y-1242030D01*
X2168827Y-1232506D01*
X2159303Y-1213458D01*
X2149779Y-1175363D01*
X2149779Y-1127744D01*
X2159303Y-1089649D01*
X2168827Y-1070601D01*
X2178350Y-1061077D01*
X2197398Y-1051554D01*
X2349779Y-1232506D02*
X2359303Y-1242030D01*
X2349779Y-1251554D01*
X2340255Y-1242030D01*
X2349779Y-1232506D01*
X2349779Y-1251554D01*
X2483112Y-1051554D02*
X2502160Y-1051554D01*
X2521208Y-1061077D01*
X2530731Y-1070601D01*
X2540255Y-1089649D01*
X2549779Y-1127744D01*
X2549779Y-1175363D01*
X2540255Y-1213458D01*
X2530731Y-1232506D01*
X2521208Y-1242030D01*
X2502160Y-1251554D01*
X2483112Y-1251554D01*
X2464065Y-1242030D01*
X2454541Y-1232506D01*
X2445017Y-1213458D01*
X2435493Y-1175363D01*
X2435493Y-1127744D01*
X2445017Y-1089649D01*
X2454541Y-1070601D01*
X2464065Y-1061077D01*
X2483112Y-1051554D01*
X2616446Y-1051554D02*
X2740255Y-1051554D01*
X2673589Y-1127744D01*
X2702160Y-1127744D01*
X2721208Y-1137268D01*
X2730731Y-1146792D01*
X2740255Y-1165839D01*
X2740255Y-1213458D01*
X2730731Y-1232506D01*
X2721208Y-1242030D01*
X2702160Y-1251554D01*
X2645017Y-1251554D01*
X2625970Y-1242030D01*
X2616446Y-1232506D01*
X2930731Y-1251554D02*
X2816446Y-1251554D01*
X2873588Y-1251554D02*
X2873588Y-1051554D01*
X2854541Y-1080125D01*
X2835493Y-1099173D01*
X2816446Y-1108696D01*
X3111684Y-1051554D02*
X3016446Y-1051554D01*
X3006922Y-1146792D01*
X3016446Y-1137268D01*
X3035493Y-1127744D01*
X3083112Y-1127744D01*
X3102160Y-1137268D01*
X3111684Y-1146792D01*
X3121208Y-1165839D01*
X3121208Y-1213458D01*
X3111684Y-1232506D01*
X3102160Y-1242030D01*
X3083112Y-1251554D01*
X3035493Y-1251554D01*
X3016446Y-1242030D01*
X3006922Y-1232506D01*
X3197398Y-1051554D02*
X3197398Y-1089649D01*
X3273588Y-1051554D02*
X3273588Y-1089649D01*
X3568827Y-1327744D02*
X3559303Y-1318220D01*
X3540255Y-1289649D01*
X3530731Y-1270601D01*
X3521208Y-1242030D01*
X3511684Y-1194411D01*
X3511684Y-1156315D01*
X3521208Y-1108696D01*
X3530731Y-1080125D01*
X3540255Y-1061077D01*
X3559303Y-1032506D01*
X3568827Y-1022982D01*
X3749779Y-1251554D02*
X3635493Y-1251554D01*
X3692636Y-1251554D02*
X3692636Y-1051554D01*
X3673588Y-1080125D01*
X3654541Y-1099173D01*
X3635493Y-1108696D01*
X3921208Y-1051554D02*
X3883112Y-1051554D01*
X3864065Y-1061077D01*
X3854541Y-1070601D01*
X3835493Y-1099173D01*
X3825969Y-1137268D01*
X3825969Y-1213458D01*
X3835493Y-1232506D01*
X3845017Y-1242030D01*
X3864065Y-1251554D01*
X3902160Y-1251554D01*
X3921208Y-1242030D01*
X3930731Y-1232506D01*
X3940255Y-1213458D01*
X3940255Y-1165839D01*
X3930731Y-1146792D01*
X3921208Y-1137268D01*
X3902160Y-1127744D01*
X3864065Y-1127744D01*
X3845017Y-1137268D01*
X3835493Y-1146792D01*
X3825969Y-1165839D01*
X4111684Y-1051554D02*
X4073588Y-1051554D01*
X4054541Y-1061077D01*
X4045017Y-1070601D01*
X4025969Y-1099173D01*
X4016446Y-1137268D01*
X4016446Y-1213458D01*
X4025969Y-1232506D01*
X4035493Y-1242030D01*
X4054541Y-1251554D01*
X4092636Y-1251554D01*
X4111684Y-1242030D01*
X4121208Y-1232506D01*
X4130731Y-1213458D01*
X4130731Y-1165839D01*
X4121208Y-1146792D01*
X4111684Y-1137268D01*
X4092636Y-1127744D01*
X4054541Y-1127744D01*
X4035493Y-1137268D01*
X4025969Y-1146792D01*
X4016446Y-1165839D01*
X4368827Y-1251554D02*
X4368827Y-1051554D01*
X4454541Y-1251554D02*
X4454541Y-1146792D01*
X4445017Y-1127744D01*
X4425970Y-1118220D01*
X4397398Y-1118220D01*
X4378350Y-1127744D01*
X4368827Y-1137268D01*
X4578350Y-1251554D02*
X4559303Y-1242030D01*
X4549779Y-1232506D01*
X4540255Y-1213458D01*
X4540255Y-1156315D01*
X4549779Y-1137268D01*
X4559303Y-1127744D01*
X4578350Y-1118220D01*
X4606922Y-1118220D01*
X4625970Y-1127744D01*
X4635493Y-1137268D01*
X4645017Y-1156315D01*
X4645017Y-1213458D01*
X4635493Y-1232506D01*
X4625970Y-1242030D01*
X4606922Y-1251554D01*
X4578350Y-1251554D01*
X4759303Y-1251554D02*
X4740255Y-1242030D01*
X4730731Y-1222982D01*
X4730731Y-1051554D01*
X4911684Y-1242030D02*
X4892636Y-1251554D01*
X4854541Y-1251554D01*
X4835493Y-1242030D01*
X4825970Y-1222982D01*
X4825970Y-1146792D01*
X4835493Y-1127744D01*
X4854541Y-1118220D01*
X4892636Y-1118220D01*
X4911684Y-1127744D01*
X4921208Y-1146792D01*
X4921208Y-1165839D01*
X4825970Y-1184887D01*
X4997398Y-1242030D02*
X5016446Y-1251554D01*
X5054541Y-1251554D01*
X5073589Y-1242030D01*
X5083112Y-1222982D01*
X5083112Y-1213458D01*
X5073589Y-1194411D01*
X5054541Y-1184887D01*
X5025970Y-1184887D01*
X5006922Y-1175363D01*
X4997398Y-1156315D01*
X4997398Y-1146792D01*
X5006922Y-1127744D01*
X5025970Y-1118220D01*
X5054541Y-1118220D01*
X5073589Y-1127744D01*
X5149779Y-1327744D02*
X5159303Y-1318220D01*
X5178350Y-1289649D01*
X5187874Y-1270601D01*
X5197398Y-1242030D01*
X5206922Y-1194411D01*
X5206922Y-1156315D01*
X5197398Y-1108696D01*
X5187874Y-1080125D01*
X5178350Y-1061077D01*
X5159303Y-1032506D01*
X5149779Y-1022982D01*
D15*
X-17722Y-1460433D02*
X-17722Y-1389722D01*
X-88434Y-1389722D01*
X-88434Y-1460433D01*
X-17722Y-1460433D01*
D11*
X359303Y-1515553D02*
X245017Y-1515553D01*
X302160Y-1515553D02*
X302160Y-1315554D01*
X283112Y-1344125D01*
X264065Y-1363173D01*
X245017Y-1372696D01*
X445017Y-1496506D02*
X454541Y-1506030D01*
X445017Y-1515553D01*
X435493Y-1506030D01*
X445017Y-1496506D01*
X445017Y-1515553D01*
X578350Y-1315554D02*
X597398Y-1315554D01*
X616446Y-1325077D01*
X625970Y-1334601D01*
X635493Y-1353649D01*
X645017Y-1391744D01*
X645017Y-1439363D01*
X635493Y-1477458D01*
X625970Y-1496506D01*
X616446Y-1506030D01*
X597398Y-1515553D01*
X578350Y-1515553D01*
X559303Y-1506030D01*
X549779Y-1496506D01*
X540255Y-1477458D01*
X530731Y-1439363D01*
X530731Y-1391744D01*
X540255Y-1353649D01*
X549779Y-1334601D01*
X559303Y-1325077D01*
X578350Y-1315554D01*
X768827Y-1315554D02*
X787874Y-1315554D01*
X806922Y-1325077D01*
X816446Y-1334601D01*
X825969Y-1353649D01*
X835493Y-1391744D01*
X835493Y-1439363D01*
X825969Y-1477458D01*
X816446Y-1496506D01*
X806922Y-1506030D01*
X787874Y-1515553D01*
X768827Y-1515553D01*
X749779Y-1506030D01*
X740255Y-1496506D01*
X730731Y-1477458D01*
X721208Y-1439363D01*
X721208Y-1391744D01*
X730731Y-1353649D01*
X740255Y-1334601D01*
X749779Y-1325077D01*
X768827Y-1315554D01*
X959303Y-1315554D02*
X978350Y-1315554D01*
X997398Y-1325077D01*
X1006922Y-1334601D01*
X1016446Y-1353649D01*
X1025969Y-1391744D01*
X1025969Y-1439363D01*
X1016446Y-1477458D01*
X1006922Y-1496506D01*
X997398Y-1506030D01*
X978350Y-1515553D01*
X959303Y-1515553D01*
X940255Y-1506030D01*
X930731Y-1496506D01*
X921208Y-1477458D01*
X911684Y-1439363D01*
X911684Y-1391744D01*
X921208Y-1353649D01*
X930731Y-1334601D01*
X940255Y-1325077D01*
X959303Y-1315554D01*
X1111684Y-1515553D02*
X1111684Y-1382220D01*
X1111684Y-1401268D02*
X1121208Y-1391744D01*
X1140255Y-1382220D01*
X1168827Y-1382220D01*
X1187874Y-1391744D01*
X1197398Y-1410792D01*
X1197398Y-1515553D01*
X1197398Y-1410792D02*
X1206922Y-1391744D01*
X1225970Y-1382220D01*
X1254541Y-1382220D01*
X1273589Y-1391744D01*
X1283112Y-1410792D01*
X1283112Y-1515553D01*
X1378350Y-1515553D02*
X1378350Y-1382220D01*
X1378350Y-1401268D02*
X1387874Y-1391744D01*
X1406922Y-1382220D01*
X1435493Y-1382220D01*
X1454541Y-1391744D01*
X1464065Y-1410792D01*
X1464065Y-1515553D01*
X1464065Y-1410792D02*
X1473588Y-1391744D01*
X1492636Y-1382220D01*
X1521208Y-1382220D01*
X1540255Y-1391744D01*
X1549779Y-1410792D01*
X1549779Y-1515553D01*
X1940255Y-1306030D02*
X1768827Y-1563173D01*
X2197398Y-1315554D02*
X2216446Y-1315554D01*
X2235493Y-1325077D01*
X2245017Y-1334601D01*
X2254541Y-1353649D01*
X2264065Y-1391744D01*
X2264065Y-1439363D01*
X2254541Y-1477458D01*
X2245017Y-1496506D01*
X2235493Y-1506030D01*
X2216446Y-1515553D01*
X2197398Y-1515553D01*
X2178350Y-1506030D01*
X2168827Y-1496506D01*
X2159303Y-1477458D01*
X2149779Y-1439363D01*
X2149779Y-1391744D01*
X2159303Y-1353649D01*
X2168827Y-1334601D01*
X2178350Y-1325077D01*
X2197398Y-1315554D01*
X2349779Y-1496506D02*
X2359303Y-1506030D01*
X2349779Y-1515553D01*
X2340255Y-1506030D01*
X2349779Y-1496506D01*
X2349779Y-1515553D01*
X2483112Y-1315554D02*
X2502160Y-1315554D01*
X2521208Y-1325077D01*
X2530731Y-1334601D01*
X2540255Y-1353649D01*
X2549779Y-1391744D01*
X2549779Y-1439363D01*
X2540255Y-1477458D01*
X2530731Y-1496506D01*
X2521208Y-1506030D01*
X2502160Y-1515553D01*
X2483112Y-1515553D01*
X2464065Y-1506030D01*
X2454541Y-1496506D01*
X2445017Y-1477458D01*
X2435493Y-1439363D01*
X2435493Y-1391744D01*
X2445017Y-1353649D01*
X2454541Y-1334601D01*
X2464065Y-1325077D01*
X2483112Y-1315554D01*
X2616446Y-1315554D02*
X2740255Y-1315554D01*
X2673589Y-1391744D01*
X2702160Y-1391744D01*
X2721208Y-1401268D01*
X2730731Y-1410792D01*
X2740255Y-1429839D01*
X2740255Y-1477458D01*
X2730731Y-1496506D01*
X2721208Y-1506030D01*
X2702160Y-1515553D01*
X2645017Y-1515553D01*
X2625970Y-1506030D01*
X2616446Y-1496506D01*
X2835493Y-1515553D02*
X2873588Y-1515553D01*
X2892636Y-1506030D01*
X2902160Y-1496506D01*
X2921208Y-1467934D01*
X2930731Y-1429839D01*
X2930731Y-1353649D01*
X2921208Y-1334601D01*
X2911684Y-1325077D01*
X2892636Y-1315554D01*
X2854541Y-1315554D01*
X2835493Y-1325077D01*
X2825969Y-1334601D01*
X2816446Y-1353649D01*
X2816446Y-1401268D01*
X2825969Y-1420315D01*
X2835493Y-1429839D01*
X2854541Y-1439363D01*
X2892636Y-1439363D01*
X2911684Y-1429839D01*
X2921208Y-1420315D01*
X2930731Y-1401268D01*
X3102160Y-1382220D02*
X3102160Y-1515553D01*
X3054541Y-1306030D02*
X3006922Y-1448887D01*
X3130731Y-1448887D01*
X3197398Y-1315554D02*
X3197398Y-1353649D01*
X3273588Y-1315554D02*
X3273588Y-1353649D01*
X3568827Y-1591744D02*
X3559303Y-1582220D01*
X3540255Y-1553649D01*
X3530731Y-1534601D01*
X3521208Y-1506030D01*
X3511684Y-1458411D01*
X3511684Y-1420315D01*
X3521208Y-1372696D01*
X3530731Y-1344125D01*
X3540255Y-1325077D01*
X3559303Y-1296506D01*
X3568827Y-1286982D01*
X3749779Y-1515553D02*
X3635493Y-1515553D01*
X3692636Y-1515553D02*
X3692636Y-1315554D01*
X3673588Y-1344125D01*
X3654541Y-1363173D01*
X3635493Y-1372696D01*
X3930731Y-1315554D02*
X3835493Y-1315554D01*
X3825969Y-1410792D01*
X3835493Y-1401268D01*
X3854541Y-1391744D01*
X3902160Y-1391744D01*
X3921208Y-1401268D01*
X3930731Y-1410792D01*
X3940255Y-1429839D01*
X3940255Y-1477458D01*
X3930731Y-1496506D01*
X3921208Y-1506030D01*
X3902160Y-1515553D01*
X3854541Y-1515553D01*
X3835493Y-1506030D01*
X3825969Y-1496506D01*
X4178350Y-1515553D02*
X4178350Y-1315554D01*
X4264065Y-1515553D02*
X4264065Y-1410792D01*
X4254541Y-1391744D01*
X4235493Y-1382220D01*
X4206922Y-1382220D01*
X4187874Y-1391744D01*
X4178350Y-1401268D01*
X4387874Y-1515553D02*
X4368827Y-1506030D01*
X4359303Y-1496506D01*
X4349779Y-1477458D01*
X4349779Y-1420315D01*
X4359303Y-1401268D01*
X4368827Y-1391744D01*
X4387874Y-1382220D01*
X4416446Y-1382220D01*
X4435493Y-1391744D01*
X4445017Y-1401268D01*
X4454541Y-1420315D01*
X4454541Y-1477458D01*
X4445017Y-1496506D01*
X4435493Y-1506030D01*
X4416446Y-1515553D01*
X4387874Y-1515553D01*
X4568827Y-1515553D02*
X4549779Y-1506030D01*
X4540255Y-1486982D01*
X4540255Y-1315554D01*
X4721208Y-1506030D02*
X4702160Y-1515553D01*
X4664065Y-1515553D01*
X4645017Y-1506030D01*
X4635493Y-1486982D01*
X4635493Y-1410792D01*
X4645017Y-1391744D01*
X4664065Y-1382220D01*
X4702160Y-1382220D01*
X4721208Y-1391744D01*
X4730731Y-1410792D01*
X4730731Y-1429839D01*
X4635493Y-1448887D01*
X4806922Y-1506030D02*
X4825970Y-1515553D01*
X4864065Y-1515553D01*
X4883112Y-1506030D01*
X4892636Y-1486982D01*
X4892636Y-1477458D01*
X4883112Y-1458411D01*
X4864065Y-1448887D01*
X4835493Y-1448887D01*
X4816446Y-1439363D01*
X4806922Y-1420315D01*
X4806922Y-1410792D01*
X4816446Y-1391744D01*
X4835493Y-1382220D01*
X4864065Y-1382220D01*
X4883112Y-1391744D01*
X5130731Y-1439363D02*
X5283112Y-1439363D01*
X5206922Y-1515553D02*
X5206922Y-1363173D01*
X5616446Y-1382220D02*
X5616446Y-1515553D01*
X5568827Y-1306030D02*
X5521208Y-1448887D01*
X5645017Y-1448887D01*
X5864065Y-1506030D02*
X5883112Y-1515553D01*
X5921208Y-1515553D01*
X5940255Y-1506030D01*
X5949779Y-1486982D01*
X5949779Y-1477458D01*
X5940255Y-1458411D01*
X5921208Y-1448887D01*
X5892636Y-1448887D01*
X5873588Y-1439363D01*
X5864065Y-1420315D01*
X5864065Y-1410792D01*
X5873588Y-1391744D01*
X5892636Y-1382220D01*
X5921208Y-1382220D01*
X5940255Y-1391744D01*
X6064065Y-1515553D02*
X6045017Y-1506030D01*
X6035493Y-1486982D01*
X6035493Y-1315554D01*
X6168827Y-1515553D02*
X6149779Y-1506030D01*
X6140255Y-1496506D01*
X6130731Y-1477458D01*
X6130731Y-1420315D01*
X6140255Y-1401268D01*
X6149779Y-1391744D01*
X6168827Y-1382220D01*
X6197398Y-1382220D01*
X6216446Y-1391744D01*
X6225969Y-1401268D01*
X6235493Y-1420315D01*
X6235493Y-1477458D01*
X6225969Y-1496506D01*
X6216446Y-1506030D01*
X6197398Y-1515553D01*
X6168827Y-1515553D01*
X6292636Y-1382220D02*
X6368827Y-1382220D01*
X6321208Y-1315554D02*
X6321208Y-1486982D01*
X6330731Y-1506030D01*
X6349779Y-1515553D01*
X6368827Y-1515553D01*
X6425969Y-1506030D02*
X6445017Y-1515553D01*
X6483112Y-1515553D01*
X6502160Y-1506030D01*
X6511684Y-1486982D01*
X6511684Y-1477458D01*
X6502160Y-1458411D01*
X6483112Y-1448887D01*
X6454541Y-1448887D01*
X6435493Y-1439363D01*
X6425969Y-1420315D01*
X6425969Y-1410792D01*
X6435493Y-1391744D01*
X6454541Y-1382220D01*
X6483112Y-1382220D01*
X6502160Y-1391744D01*
X6578350Y-1591744D02*
X6587874Y-1582220D01*
X6606922Y-1553649D01*
X6616446Y-1534601D01*
X6625969Y-1506030D01*
X6635493Y-1458411D01*
X6635493Y-1420315D01*
X6625969Y-1372696D01*
X6616446Y-1344125D01*
X6606922Y-1325077D01*
X6587874Y-1296506D01*
X6578350Y-1286982D01*
D16*
X-58078Y-1744077D02*
X-3078Y-1689077D01*
X-58078Y-1634077D01*
X-113078Y-1689077D01*
X-58078Y-1744077D01*
D11*
X359303Y-1779553D02*
X245017Y-1779553D01*
X302160Y-1779553D02*
X302160Y-1579553D01*
X283112Y-1608125D01*
X264065Y-1627173D01*
X245017Y-1636696D01*
X445017Y-1760506D02*
X454541Y-1770030D01*
X445017Y-1779553D01*
X435493Y-1770030D01*
X445017Y-1760506D01*
X445017Y-1779553D01*
X645017Y-1779553D02*
X530731Y-1779553D01*
X587874Y-1779553D02*
X587874Y-1579553D01*
X568827Y-1608125D01*
X549779Y-1627173D01*
X530731Y-1636696D01*
X768827Y-1579553D02*
X787874Y-1579553D01*
X806922Y-1589077D01*
X816446Y-1598601D01*
X825969Y-1617649D01*
X835493Y-1655744D01*
X835493Y-1703363D01*
X825969Y-1741458D01*
X816446Y-1760506D01*
X806922Y-1770030D01*
X787874Y-1779553D01*
X768827Y-1779553D01*
X749779Y-1770030D01*
X740255Y-1760506D01*
X730731Y-1741458D01*
X721208Y-1703363D01*
X721208Y-1655744D01*
X730731Y-1617649D01*
X740255Y-1598601D01*
X749779Y-1589077D01*
X768827Y-1579553D01*
X959303Y-1579553D02*
X978350Y-1579553D01*
X997398Y-1589077D01*
X1006922Y-1598601D01*
X1016446Y-1617649D01*
X1025969Y-1655744D01*
X1025969Y-1703363D01*
X1016446Y-1741458D01*
X1006922Y-1760506D01*
X997398Y-1770030D01*
X978350Y-1779553D01*
X959303Y-1779553D01*
X940255Y-1770030D01*
X930731Y-1760506D01*
X921208Y-1741458D01*
X911684Y-1703363D01*
X911684Y-1655744D01*
X921208Y-1617649D01*
X930731Y-1598601D01*
X940255Y-1589077D01*
X959303Y-1579553D01*
X1111684Y-1779553D02*
X1111684Y-1646220D01*
X1111684Y-1665268D02*
X1121208Y-1655744D01*
X1140255Y-1646220D01*
X1168827Y-1646220D01*
X1187874Y-1655744D01*
X1197398Y-1674792D01*
X1197398Y-1779553D01*
X1197398Y-1674792D02*
X1206922Y-1655744D01*
X1225970Y-1646220D01*
X1254541Y-1646220D01*
X1273589Y-1655744D01*
X1283112Y-1674792D01*
X1283112Y-1779553D01*
X1378350Y-1779553D02*
X1378350Y-1646220D01*
X1378350Y-1665268D02*
X1387874Y-1655744D01*
X1406922Y-1646220D01*
X1435493Y-1646220D01*
X1454541Y-1655744D01*
X1464065Y-1674792D01*
X1464065Y-1779553D01*
X1464065Y-1674792D02*
X1473588Y-1655744D01*
X1492636Y-1646220D01*
X1521208Y-1646220D01*
X1540255Y-1655744D01*
X1549779Y-1674792D01*
X1549779Y-1779553D01*
X1940255Y-1570030D02*
X1768827Y-1827173D01*
X2197398Y-1579553D02*
X2216446Y-1579553D01*
X2235493Y-1589077D01*
X2245017Y-1598601D01*
X2254541Y-1617649D01*
X2264065Y-1655744D01*
X2264065Y-1703363D01*
X2254541Y-1741458D01*
X2245017Y-1760506D01*
X2235493Y-1770030D01*
X2216446Y-1779553D01*
X2197398Y-1779553D01*
X2178350Y-1770030D01*
X2168827Y-1760506D01*
X2159303Y-1741458D01*
X2149779Y-1703363D01*
X2149779Y-1655744D01*
X2159303Y-1617649D01*
X2168827Y-1598601D01*
X2178350Y-1589077D01*
X2197398Y-1579553D01*
X2349779Y-1760506D02*
X2359303Y-1770030D01*
X2349779Y-1779553D01*
X2340255Y-1770030D01*
X2349779Y-1760506D01*
X2349779Y-1779553D01*
X2483112Y-1579553D02*
X2502160Y-1579553D01*
X2521208Y-1589077D01*
X2530731Y-1598601D01*
X2540255Y-1617649D01*
X2549779Y-1655744D01*
X2549779Y-1703363D01*
X2540255Y-1741458D01*
X2530731Y-1760506D01*
X2521208Y-1770030D01*
X2502160Y-1779553D01*
X2483112Y-1779553D01*
X2464065Y-1770030D01*
X2454541Y-1760506D01*
X2445017Y-1741458D01*
X2435493Y-1703363D01*
X2435493Y-1655744D01*
X2445017Y-1617649D01*
X2454541Y-1598601D01*
X2464065Y-1589077D01*
X2483112Y-1579553D01*
X2721208Y-1646220D02*
X2721208Y-1779553D01*
X2673589Y-1570030D02*
X2625970Y-1712887D01*
X2749779Y-1712887D01*
X2806922Y-1579553D02*
X2930731Y-1579553D01*
X2864065Y-1655744D01*
X2892636Y-1655744D01*
X2911684Y-1665268D01*
X2921208Y-1674792D01*
X2930731Y-1693839D01*
X2930731Y-1741458D01*
X2921208Y-1760506D01*
X2911684Y-1770030D01*
X2892636Y-1779553D01*
X2835493Y-1779553D01*
X2816446Y-1770030D01*
X2806922Y-1760506D01*
X2997398Y-1579553D02*
X3121208Y-1579553D01*
X3054541Y-1655744D01*
X3083112Y-1655744D01*
X3102160Y-1665268D01*
X3111684Y-1674792D01*
X3121208Y-1693839D01*
X3121208Y-1741458D01*
X3111684Y-1760506D01*
X3102160Y-1770030D01*
X3083112Y-1779553D01*
X3025969Y-1779553D01*
X3006922Y-1770030D01*
X2997398Y-1760506D01*
X3197398Y-1579553D02*
X3197398Y-1617649D01*
X3273588Y-1579553D02*
X3273588Y-1617649D01*
X3568827Y-1855744D02*
X3559303Y-1846220D01*
X3540255Y-1817649D01*
X3530731Y-1798601D01*
X3521208Y-1770030D01*
X3511684Y-1722411D01*
X3511684Y-1684315D01*
X3521208Y-1636696D01*
X3530731Y-1608125D01*
X3540255Y-1589077D01*
X3559303Y-1560506D01*
X3568827Y-1550982D01*
X3673588Y-1665268D02*
X3654541Y-1655744D01*
X3645017Y-1646220D01*
X3635493Y-1627173D01*
X3635493Y-1617649D01*
X3645017Y-1598601D01*
X3654541Y-1589077D01*
X3673588Y-1579553D01*
X3711684Y-1579553D01*
X3730731Y-1589077D01*
X3740255Y-1598601D01*
X3749779Y-1617649D01*
X3749779Y-1627173D01*
X3740255Y-1646220D01*
X3730731Y-1655744D01*
X3711684Y-1665268D01*
X3673588Y-1665268D01*
X3654541Y-1674792D01*
X3645017Y-1684315D01*
X3635493Y-1703363D01*
X3635493Y-1741458D01*
X3645017Y-1760506D01*
X3654541Y-1770030D01*
X3673588Y-1779553D01*
X3711684Y-1779553D01*
X3730731Y-1770030D01*
X3740255Y-1760506D01*
X3749779Y-1741458D01*
X3749779Y-1703363D01*
X3740255Y-1684315D01*
X3730731Y-1674792D01*
X3711684Y-1665268D01*
X3987874Y-1779553D02*
X3987874Y-1579553D01*
X4073588Y-1779553D02*
X4073588Y-1674792D01*
X4064065Y-1655744D01*
X4045017Y-1646220D01*
X4016446Y-1646220D01*
X3997398Y-1655744D01*
X3987874Y-1665268D01*
X4197398Y-1779553D02*
X4178350Y-1770030D01*
X4168827Y-1760506D01*
X4159303Y-1741458D01*
X4159303Y-1684315D01*
X4168827Y-1665268D01*
X4178350Y-1655744D01*
X4197398Y-1646220D01*
X4225970Y-1646220D01*
X4245017Y-1655744D01*
X4254541Y-1665268D01*
X4264065Y-1684315D01*
X4264065Y-1741458D01*
X4254541Y-1760506D01*
X4245017Y-1770030D01*
X4225970Y-1779553D01*
X4197398Y-1779553D01*
X4378350Y-1779553D02*
X4359303Y-1770030D01*
X4349779Y-1750982D01*
X4349779Y-1579553D01*
X4530731Y-1770030D02*
X4511684Y-1779553D01*
X4473589Y-1779553D01*
X4454541Y-1770030D01*
X4445017Y-1750982D01*
X4445017Y-1674792D01*
X4454541Y-1655744D01*
X4473589Y-1646220D01*
X4511684Y-1646220D01*
X4530731Y-1655744D01*
X4540255Y-1674792D01*
X4540255Y-1693839D01*
X4445017Y-1712887D01*
X4616446Y-1770030D02*
X4635493Y-1779553D01*
X4673589Y-1779553D01*
X4692636Y-1770030D01*
X4702160Y-1750982D01*
X4702160Y-1741458D01*
X4692636Y-1722411D01*
X4673589Y-1712887D01*
X4645017Y-1712887D01*
X4625970Y-1703363D01*
X4616446Y-1684315D01*
X4616446Y-1674792D01*
X4625970Y-1655744D01*
X4645017Y-1646220D01*
X4673589Y-1646220D01*
X4692636Y-1655744D01*
X4768827Y-1855744D02*
X4778350Y-1846220D01*
X4797398Y-1817649D01*
X4806922Y-1798601D01*
X4816446Y-1770030D01*
X4825970Y-1722411D01*
X4825970Y-1684315D01*
X4816446Y-1636696D01*
X4806922Y-1608125D01*
X4797398Y-1589077D01*
X4778350Y-1560506D01*
X4768827Y-1550982D01*
X-203078Y-1853077D02*
X-3078Y-2053077D01*
X-3078Y-1853077D02*
X-203078Y-2053077D01*
X-3078Y-1953077D02*
G75*
G03*
X-3078Y-1953077I-100000J0D01*
G01*
X245017Y-1862601D02*
X254541Y-1853077D01*
X273589Y-1843553D01*
X321208Y-1843553D01*
X340255Y-1853077D01*
X349779Y-1862601D01*
X359303Y-1881649D01*
X359303Y-1900696D01*
X349779Y-1929268D01*
X235493Y-2043553D01*
X359303Y-2043553D01*
X445017Y-2024506D02*
X454541Y-2034030D01*
X445017Y-2043553D01*
X435493Y-2034030D01*
X445017Y-2024506D01*
X445017Y-2043553D01*
X521208Y-1843553D02*
X645017Y-1843553D01*
X578350Y-1919744D01*
X606922Y-1919744D01*
X625970Y-1929268D01*
X635493Y-1938792D01*
X645017Y-1957839D01*
X645017Y-2005458D01*
X635493Y-2024506D01*
X625970Y-2034030D01*
X606922Y-2043553D01*
X549779Y-2043553D01*
X530731Y-2034030D01*
X521208Y-2024506D01*
X768827Y-1843553D02*
X787874Y-1843553D01*
X806922Y-1853077D01*
X816446Y-1862601D01*
X825969Y-1881649D01*
X835493Y-1919744D01*
X835493Y-1967363D01*
X825969Y-2005458D01*
X816446Y-2024506D01*
X806922Y-2034030D01*
X787874Y-2043553D01*
X768827Y-2043553D01*
X749779Y-2034030D01*
X740255Y-2024506D01*
X730731Y-2005458D01*
X721208Y-1967363D01*
X721208Y-1919744D01*
X730731Y-1881649D01*
X740255Y-1862601D01*
X749779Y-1853077D01*
X768827Y-1843553D01*
X959303Y-1843553D02*
X978350Y-1843553D01*
X997398Y-1853077D01*
X1006922Y-1862601D01*
X1016446Y-1881649D01*
X1025969Y-1919744D01*
X1025969Y-1967363D01*
X1016446Y-2005458D01*
X1006922Y-2024506D01*
X997398Y-2034030D01*
X978350Y-2043553D01*
X959303Y-2043553D01*
X940255Y-2034030D01*
X930731Y-2024506D01*
X921208Y-2005458D01*
X911684Y-1967363D01*
X911684Y-1919744D01*
X921208Y-1881649D01*
X930731Y-1862601D01*
X940255Y-1853077D01*
X959303Y-1843553D01*
X1111684Y-2043553D02*
X1111684Y-1910220D01*
X1111684Y-1929268D02*
X1121208Y-1919744D01*
X1140255Y-1910220D01*
X1168827Y-1910220D01*
X1187874Y-1919744D01*
X1197398Y-1938792D01*
X1197398Y-2043553D01*
X1197398Y-1938792D02*
X1206922Y-1919744D01*
X1225970Y-1910220D01*
X1254541Y-1910220D01*
X1273589Y-1919744D01*
X1283112Y-1938792D01*
X1283112Y-2043553D01*
X1378350Y-2043553D02*
X1378350Y-1910220D01*
X1378350Y-1929268D02*
X1387874Y-1919744D01*
X1406922Y-1910220D01*
X1435493Y-1910220D01*
X1454541Y-1919744D01*
X1464065Y-1938792D01*
X1464065Y-2043553D01*
X1464065Y-1938792D02*
X1473588Y-1919744D01*
X1492636Y-1910220D01*
X1521208Y-1910220D01*
X1540255Y-1919744D01*
X1549779Y-1938792D01*
X1549779Y-2043553D01*
X1940255Y-1834030D02*
X1768827Y-2091173D01*
X2197398Y-1843553D02*
X2216446Y-1843553D01*
X2235493Y-1853077D01*
X2245017Y-1862601D01*
X2254541Y-1881649D01*
X2264065Y-1919744D01*
X2264065Y-1967363D01*
X2254541Y-2005458D01*
X2245017Y-2024506D01*
X2235493Y-2034030D01*
X2216446Y-2043553D01*
X2197398Y-2043553D01*
X2178350Y-2034030D01*
X2168827Y-2024506D01*
X2159303Y-2005458D01*
X2149779Y-1967363D01*
X2149779Y-1919744D01*
X2159303Y-1881649D01*
X2168827Y-1862601D01*
X2178350Y-1853077D01*
X2197398Y-1843553D01*
X2349779Y-2024506D02*
X2359303Y-2034030D01*
X2349779Y-2043553D01*
X2340255Y-2034030D01*
X2349779Y-2024506D01*
X2349779Y-2043553D01*
X2483112Y-1843553D02*
X2502160Y-1843553D01*
X2521208Y-1853077D01*
X2530731Y-1862601D01*
X2540255Y-1881649D01*
X2549779Y-1919744D01*
X2549779Y-1967363D01*
X2540255Y-2005458D01*
X2530731Y-2024506D01*
X2521208Y-2034030D01*
X2502160Y-2043553D01*
X2483112Y-2043553D01*
X2464065Y-2034030D01*
X2454541Y-2024506D01*
X2445017Y-2005458D01*
X2435493Y-1967363D01*
X2435493Y-1919744D01*
X2445017Y-1881649D01*
X2454541Y-1862601D01*
X2464065Y-1853077D01*
X2483112Y-1843553D01*
X2645017Y-2043553D02*
X2683112Y-2043553D01*
X2702160Y-2034030D01*
X2711684Y-2024506D01*
X2730731Y-1995934D01*
X2740255Y-1957839D01*
X2740255Y-1881649D01*
X2730731Y-1862601D01*
X2721208Y-1853077D01*
X2702160Y-1843553D01*
X2664065Y-1843553D01*
X2645017Y-1853077D01*
X2635493Y-1862601D01*
X2625970Y-1881649D01*
X2625970Y-1929268D01*
X2635493Y-1948315D01*
X2645017Y-1957839D01*
X2664065Y-1967363D01*
X2702160Y-1967363D01*
X2721208Y-1957839D01*
X2730731Y-1948315D01*
X2740255Y-1929268D01*
X2864065Y-1843553D02*
X2883112Y-1843553D01*
X2902160Y-1853077D01*
X2911684Y-1862601D01*
X2921208Y-1881649D01*
X2930731Y-1919744D01*
X2930731Y-1967363D01*
X2921208Y-2005458D01*
X2911684Y-2024506D01*
X2902160Y-2034030D01*
X2883112Y-2043553D01*
X2864065Y-2043553D01*
X2845017Y-2034030D01*
X2835493Y-2024506D01*
X2825969Y-2005458D01*
X2816446Y-1967363D01*
X2816446Y-1919744D01*
X2825969Y-1881649D01*
X2835493Y-1862601D01*
X2845017Y-1853077D01*
X2864065Y-1843553D01*
X3102160Y-1843553D02*
X3064065Y-1843553D01*
X3045017Y-1853077D01*
X3035493Y-1862601D01*
X3016446Y-1891173D01*
X3006922Y-1929268D01*
X3006922Y-2005458D01*
X3016446Y-2024506D01*
X3025969Y-2034030D01*
X3045017Y-2043553D01*
X3083112Y-2043553D01*
X3102160Y-2034030D01*
X3111684Y-2024506D01*
X3121208Y-2005458D01*
X3121208Y-1957839D01*
X3111684Y-1938792D01*
X3102160Y-1929268D01*
X3083112Y-1919744D01*
X3045017Y-1919744D01*
X3025969Y-1929268D01*
X3016446Y-1938792D01*
X3006922Y-1957839D01*
X3197398Y-1843553D02*
X3197398Y-1881649D01*
X3273588Y-1843553D02*
X3273588Y-1881649D01*
X3568827Y-2119744D02*
X3559303Y-2110220D01*
X3540255Y-2081649D01*
X3530731Y-2062601D01*
X3521208Y-2034030D01*
X3511684Y-1986411D01*
X3511684Y-1948315D01*
X3521208Y-1900696D01*
X3530731Y-1872125D01*
X3540255Y-1853077D01*
X3559303Y-1824506D01*
X3568827Y-1814982D01*
X3635493Y-1862601D02*
X3645017Y-1853077D01*
X3664065Y-1843553D01*
X3711684Y-1843553D01*
X3730731Y-1853077D01*
X3740255Y-1862601D01*
X3749779Y-1881649D01*
X3749779Y-1900696D01*
X3740255Y-1929268D01*
X3625969Y-2043553D01*
X3749779Y-2043553D01*
X3987874Y-2043553D02*
X3987874Y-1843553D01*
X4073588Y-2043553D02*
X4073588Y-1938792D01*
X4064065Y-1919744D01*
X4045017Y-1910220D01*
X4016446Y-1910220D01*
X3997398Y-1919744D01*
X3987874Y-1929268D01*
X4197398Y-2043553D02*
X4178350Y-2034030D01*
X4168827Y-2024506D01*
X4159303Y-2005458D01*
X4159303Y-1948315D01*
X4168827Y-1929268D01*
X4178350Y-1919744D01*
X4197398Y-1910220D01*
X4225970Y-1910220D01*
X4245017Y-1919744D01*
X4254541Y-1929268D01*
X4264065Y-1948315D01*
X4264065Y-2005458D01*
X4254541Y-2024506D01*
X4245017Y-2034030D01*
X4225970Y-2043553D01*
X4197398Y-2043553D01*
X4378350Y-2043553D02*
X4359303Y-2034030D01*
X4349779Y-2014982D01*
X4349779Y-1843553D01*
X4530731Y-2034030D02*
X4511684Y-2043553D01*
X4473589Y-2043553D01*
X4454541Y-2034030D01*
X4445017Y-2014982D01*
X4445017Y-1938792D01*
X4454541Y-1919744D01*
X4473589Y-1910220D01*
X4511684Y-1910220D01*
X4530731Y-1919744D01*
X4540255Y-1938792D01*
X4540255Y-1957839D01*
X4445017Y-1976887D01*
X4616446Y-2034030D02*
X4635493Y-2043553D01*
X4673589Y-2043553D01*
X4692636Y-2034030D01*
X4702160Y-2014982D01*
X4702160Y-2005458D01*
X4692636Y-1986411D01*
X4673589Y-1976887D01*
X4645017Y-1976887D01*
X4625970Y-1967363D01*
X4616446Y-1948315D01*
X4616446Y-1938792D01*
X4625970Y-1919744D01*
X4645017Y-1910220D01*
X4673589Y-1910220D01*
X4692636Y-1919744D01*
X4768827Y-2119744D02*
X4778350Y-2110220D01*
X4797398Y-2081649D01*
X4806922Y-2062601D01*
X4816446Y-2034030D01*
X4825970Y-1986411D01*
X4825970Y-1948315D01*
X4816446Y-1900696D01*
X4806922Y-1872125D01*
X4797398Y-1853077D01*
X4778350Y-1824506D01*
X4768827Y-1814982D01*
X-203078Y-2173077D02*
X-3078Y-2373077D01*
X-3078Y-2173077D02*
X-203078Y-2373077D01*
X-103078Y-2173077D02*
X-103078Y-2373077D01*
X-203078Y-2273077D02*
X-3078Y-2273077D01*
X235493Y-2163554D02*
X359303Y-2163554D01*
X292636Y-2239744D01*
X321208Y-2239744D01*
X340255Y-2249268D01*
X349779Y-2258792D01*
X359303Y-2277839D01*
X359303Y-2325458D01*
X349779Y-2344506D01*
X340255Y-2354030D01*
X321208Y-2363554D01*
X264065Y-2363554D01*
X245017Y-2354030D01*
X235493Y-2344506D01*
X445017Y-2344506D02*
X454541Y-2354030D01*
X445017Y-2363554D01*
X435493Y-2354030D01*
X445017Y-2344506D01*
X445017Y-2363554D01*
X530731Y-2182601D02*
X540255Y-2173077D01*
X559303Y-2163554D01*
X606922Y-2163554D01*
X625970Y-2173077D01*
X635493Y-2182601D01*
X645017Y-2201649D01*
X645017Y-2220696D01*
X635493Y-2249268D01*
X521208Y-2363554D01*
X645017Y-2363554D01*
X768827Y-2163554D02*
X787874Y-2163554D01*
X806922Y-2173077D01*
X816446Y-2182601D01*
X825969Y-2201649D01*
X835493Y-2239744D01*
X835493Y-2287363D01*
X825969Y-2325458D01*
X816446Y-2344506D01*
X806922Y-2354030D01*
X787874Y-2363554D01*
X768827Y-2363554D01*
X749779Y-2354030D01*
X740255Y-2344506D01*
X730731Y-2325458D01*
X721208Y-2287363D01*
X721208Y-2239744D01*
X730731Y-2201649D01*
X740255Y-2182601D01*
X749779Y-2173077D01*
X768827Y-2163554D01*
X959303Y-2163554D02*
X978350Y-2163554D01*
X997398Y-2173077D01*
X1006922Y-2182601D01*
X1016446Y-2201649D01*
X1025969Y-2239744D01*
X1025969Y-2287363D01*
X1016446Y-2325458D01*
X1006922Y-2344506D01*
X997398Y-2354030D01*
X978350Y-2363554D01*
X959303Y-2363554D01*
X940255Y-2354030D01*
X930731Y-2344506D01*
X921208Y-2325458D01*
X911684Y-2287363D01*
X911684Y-2239744D01*
X921208Y-2201649D01*
X930731Y-2182601D01*
X940255Y-2173077D01*
X959303Y-2163554D01*
X1111684Y-2363554D02*
X1111684Y-2230220D01*
X1111684Y-2249268D02*
X1121208Y-2239744D01*
X1140255Y-2230220D01*
X1168827Y-2230220D01*
X1187874Y-2239744D01*
X1197398Y-2258792D01*
X1197398Y-2363554D01*
X1197398Y-2258792D02*
X1206922Y-2239744D01*
X1225970Y-2230220D01*
X1254541Y-2230220D01*
X1273589Y-2239744D01*
X1283112Y-2258792D01*
X1283112Y-2363554D01*
X1378350Y-2363554D02*
X1378350Y-2230220D01*
X1378350Y-2249268D02*
X1387874Y-2239744D01*
X1406922Y-2230220D01*
X1435493Y-2230220D01*
X1454541Y-2239744D01*
X1464065Y-2258792D01*
X1464065Y-2363554D01*
X1464065Y-2258792D02*
X1473588Y-2239744D01*
X1492636Y-2230220D01*
X1521208Y-2230220D01*
X1540255Y-2239744D01*
X1549779Y-2258792D01*
X1549779Y-2363554D01*
X1940255Y-2154030D02*
X1768827Y-2411173D01*
X2197398Y-2163554D02*
X2216446Y-2163554D01*
X2235493Y-2173077D01*
X2245017Y-2182601D01*
X2254541Y-2201649D01*
X2264065Y-2239744D01*
X2264065Y-2287363D01*
X2254541Y-2325458D01*
X2245017Y-2344506D01*
X2235493Y-2354030D01*
X2216446Y-2363554D01*
X2197398Y-2363554D01*
X2178350Y-2354030D01*
X2168827Y-2344506D01*
X2159303Y-2325458D01*
X2149779Y-2287363D01*
X2149779Y-2239744D01*
X2159303Y-2201649D01*
X2168827Y-2182601D01*
X2178350Y-2173077D01*
X2197398Y-2163554D01*
X2349779Y-2344506D02*
X2359303Y-2354030D01*
X2349779Y-2363554D01*
X2340255Y-2354030D01*
X2349779Y-2344506D01*
X2349779Y-2363554D01*
X2549779Y-2363554D02*
X2435493Y-2363554D01*
X2492636Y-2363554D02*
X2492636Y-2163554D01*
X2473589Y-2192125D01*
X2454541Y-2211173D01*
X2435493Y-2220696D01*
X2625970Y-2182601D02*
X2635493Y-2173077D01*
X2654541Y-2163554D01*
X2702160Y-2163554D01*
X2721208Y-2173077D01*
X2730731Y-2182601D01*
X2740255Y-2201649D01*
X2740255Y-2220696D01*
X2730731Y-2249268D01*
X2616446Y-2363554D01*
X2740255Y-2363554D01*
X2911684Y-2163554D02*
X2873588Y-2163554D01*
X2854541Y-2173077D01*
X2845017Y-2182601D01*
X2825969Y-2211173D01*
X2816446Y-2249268D01*
X2816446Y-2325458D01*
X2825969Y-2344506D01*
X2835493Y-2354030D01*
X2854541Y-2363554D01*
X2892636Y-2363554D01*
X2911684Y-2354030D01*
X2921208Y-2344506D01*
X2930731Y-2325458D01*
X2930731Y-2277839D01*
X2921208Y-2258792D01*
X2911684Y-2249268D01*
X2892636Y-2239744D01*
X2854541Y-2239744D01*
X2835493Y-2249268D01*
X2825969Y-2258792D01*
X2816446Y-2277839D01*
X3054541Y-2163554D02*
X3073588Y-2163554D01*
X3092636Y-2173077D01*
X3102160Y-2182601D01*
X3111684Y-2201649D01*
X3121208Y-2239744D01*
X3121208Y-2287363D01*
X3111684Y-2325458D01*
X3102160Y-2344506D01*
X3092636Y-2354030D01*
X3073588Y-2363554D01*
X3054541Y-2363554D01*
X3035493Y-2354030D01*
X3025969Y-2344506D01*
X3016446Y-2325458D01*
X3006922Y-2287363D01*
X3006922Y-2239744D01*
X3016446Y-2201649D01*
X3025969Y-2182601D01*
X3035493Y-2173077D01*
X3054541Y-2163554D01*
X3197398Y-2163554D02*
X3197398Y-2201649D01*
X3273588Y-2163554D02*
X3273588Y-2201649D01*
X3568827Y-2439744D02*
X3559303Y-2430220D01*
X3540255Y-2401649D01*
X3530731Y-2382601D01*
X3521208Y-2354030D01*
X3511684Y-2306411D01*
X3511684Y-2268315D01*
X3521208Y-2220696D01*
X3530731Y-2192125D01*
X3540255Y-2173077D01*
X3559303Y-2144506D01*
X3568827Y-2134982D01*
X3635493Y-2182601D02*
X3645017Y-2173077D01*
X3664065Y-2163554D01*
X3711684Y-2163554D01*
X3730731Y-2173077D01*
X3740255Y-2182601D01*
X3749779Y-2201649D01*
X3749779Y-2220696D01*
X3740255Y-2249268D01*
X3625969Y-2363554D01*
X3749779Y-2363554D01*
X3987874Y-2363554D02*
X3987874Y-2163554D01*
X4073588Y-2363554D02*
X4073588Y-2258792D01*
X4064065Y-2239744D01*
X4045017Y-2230220D01*
X4016446Y-2230220D01*
X3997398Y-2239744D01*
X3987874Y-2249268D01*
X4197398Y-2363554D02*
X4178350Y-2354030D01*
X4168827Y-2344506D01*
X4159303Y-2325458D01*
X4159303Y-2268315D01*
X4168827Y-2249268D01*
X4178350Y-2239744D01*
X4197398Y-2230220D01*
X4225970Y-2230220D01*
X4245017Y-2239744D01*
X4254541Y-2249268D01*
X4264065Y-2268315D01*
X4264065Y-2325458D01*
X4254541Y-2344506D01*
X4245017Y-2354030D01*
X4225970Y-2363554D01*
X4197398Y-2363554D01*
X4378350Y-2363554D02*
X4359303Y-2354030D01*
X4349779Y-2334982D01*
X4349779Y-2163554D01*
X4530731Y-2354030D02*
X4511684Y-2363554D01*
X4473589Y-2363554D01*
X4454541Y-2354030D01*
X4445017Y-2334982D01*
X4445017Y-2258792D01*
X4454541Y-2239744D01*
X4473589Y-2230220D01*
X4511684Y-2230220D01*
X4530731Y-2239744D01*
X4540255Y-2258792D01*
X4540255Y-2277839D01*
X4445017Y-2296887D01*
X4616446Y-2354030D02*
X4635493Y-2363554D01*
X4673589Y-2363554D01*
X4692636Y-2354030D01*
X4702160Y-2334982D01*
X4702160Y-2325458D01*
X4692636Y-2306411D01*
X4673589Y-2296887D01*
X4645017Y-2296887D01*
X4625970Y-2287363D01*
X4616446Y-2268315D01*
X4616446Y-2258792D01*
X4625970Y-2239744D01*
X4645017Y-2230220D01*
X4673589Y-2230220D01*
X4692636Y-2239744D01*
X4768827Y-2439744D02*
X4778350Y-2430220D01*
X4797398Y-2401649D01*
X4806922Y-2382601D01*
X4816446Y-2354030D01*
X4825970Y-2306411D01*
X4825970Y-2268315D01*
X4816446Y-2220696D01*
X4806922Y-2192125D01*
X4797398Y-2173077D01*
X4778350Y-2144506D01*
X4768827Y-2134982D01*
M02*
