M48
; DRILL file {KiCad 7.0.7} date 2023 August 20, Sunday 18:16:18
; FORMAT={-:-/ absolute / inch / decimal}
; #@! TF.CreationDate,2023-08-20T18:16:18+05:30
; #@! TF.GenerationSoftware,Kicad,Pcbnew,7.0.7
; #@! TF.FileFunction,Plated,1,2,PTH
FMAT,2
INCH
; #@! TA.AperFunction,Plated,PTH,ViaDrill
T1C0.0118
; #@! TA.AperFunction,Plated,PTH,ViaDrill
T2C0.0157
; #@! TA.AperFunction,Plated,PTH,ComponentDrill
T3C0.0315
; #@! TA.AperFunction,Plated,PTH,ComponentDrill
T4C0.0394
; #@! TA.AperFunction,Plated,PTH,ComponentDrill
T5C0.0433
; #@! TA.AperFunction,Plated,PTH,ComponentDrill
T6C0.0787
; #@! TA.AperFunction,Plated,PTH,ComponentDrill
T7C0.0906
; #@! TA.AperFunction,Plated,PTH,ComponentDrill
T8C0.1260
%
G90
G05
T1
X4.2302Y-2.6947
X4.3922Y-5.1022
X4.4174Y-4.9963
X4.4737Y-2.6183
X4.4737Y-2.7183
X4.4741Y-2.6848
X4.4743Y-2.6516
X4.5434Y-4.0835
X4.5434Y-4.1346
X4.5434Y-4.2341
X4.5442Y-4.0352
X4.5444Y-4.1848
X4.5469Y-4.6341
X4.5969Y-5.0258
X4.628Y-4.8864
X4.6694Y-4.9156
X4.6969Y-4.9667
X4.7183Y-3.0965
X4.7269Y-1.9065
X4.7272Y-1.8392
X4.7272Y-1.8722
X4.7276Y-1.8045
X4.7292Y-4.9404
X4.7513Y-3.0974
X4.8123Y-3.6648
X4.8442Y-3.5994
X4.8591Y-1.9065
X4.8595Y-1.8392
X4.8595Y-1.8722
X4.8599Y-1.8045
X4.8753Y-3.5573
X4.8757Y-3.1297
X4.9056Y-4.5341
X4.906Y-4.5833
X4.9064Y-4.3341
X4.9064Y-4.3837
X4.9064Y-4.4844
X4.9064Y-5.0514
X4.9068Y-4.4337
X4.9072Y-4.2841
X4.9076Y-4.1337
X4.9076Y-4.1841
X4.9083Y-4.2337
X4.9085Y-4.0844
X4.9387Y-3.1848
X4.9387Y-3.2203
X4.9387Y-3.2557
X4.9387Y-3.2951
X4.9387Y-3.3541
X4.9387Y-3.4132
X4.9547Y-2.6584
X4.9547Y-2.8552
X4.9702Y-3.323
X4.9702Y-3.3856
X4.9702Y-3.4368
X5.0009Y-5.1293
X5.1467Y-4.0343
X5.1546Y-4.1848
X5.1546Y-4.235
X5.1556Y-4.1346
X5.1576Y-4.0844
X5.165Y-3.3242
X5.1752Y-2.7991
X5.193Y-3.3561
X5.1972Y-1.6683
X5.2182Y-3.3888
X5.2422Y-3.414
X5.2477Y-5.0256
X5.2675Y-3.4388
X5.269Y-4.8878
X5.2736Y-2.7214
X5.293Y-4.915
X5.2969Y-3.2222
X5.3012Y-2.0501
X5.3107Y-1.8404
X5.315Y-4.9665
X5.3245Y-3.2577
X5.3363Y-4.9402
X5.352Y-3.2967
X5.3662Y-4.0854
X5.3666Y-4.3837
X5.367Y-4.1856
X5.367Y-4.3348
X5.3672Y-4.1346
X5.3674Y-4.2356
X5.3674Y-4.2841
X5.3678Y-5.052
X5.3682Y-4.4341
X5.3682Y-4.4844
X5.3686Y-4.5364
X5.3686Y-4.5833
X5.3874Y-1.6681
X5.4414Y-4.9976
X5.4626Y-1.7509
X6.1339Y-2.0266
X6.1909Y-2.5817
X6.2291Y-2.4524
X6.2477Y-2.8911
X6.25Y-4.4921
X6.25Y-4.8878
X6.2887Y-3.1919
X6.3049Y-4.5927
X6.3049Y-4.9152
X6.3504Y-2.7756
X6.3561Y-4.6927
X6.3563Y-4.9409
X6.3898Y-2.752
X6.4016Y-4.7933
X6.4016Y-4.9665
X6.4028Y-2.301
X6.4291Y-2.7283
X6.4646Y-4.9764
X6.4685Y-2.7047
X6.5Y-2.6791
X6.5118Y-4.9961
X6.5394Y-2.6553
X6.541Y-1.9242
X6.5453Y-5.0236
X6.5748Y-2.6339
X6.6063Y-2.6102
X6.6339Y-5.0512
X6.7024Y-2.1435
X6.7036Y-2.3014
X6.7143Y-2.175
X6.7997Y-2.4474
X6.8346Y-4.3425
X6.8642Y-2.8071
X6.9115Y-3.0683
X6.9134Y-4.7441
X6.9213Y-3.1929
X6.939Y-4.5315
X6.939Y-4.6299
X6.9488Y-3.0984
X7.0256Y-4.2933
X7.1043Y-4.1909
X7.1102Y-4.3268
X7.1142Y-5.1033
X7.1378Y-2.9252
X7.1378Y-4.0925
X7.145Y-5.1293
X7.1693Y-2.9498
X7.1693Y-3.9921
X7.187Y-3.0744
X7.2008Y-2.9764
X7.2008Y-3.8917
X7.2323Y-2.999
X7.2638Y-3.0216
X7.2638Y-3.7933
X7.2953Y-3.6929
X7.3268Y-3.0442
X7.3268Y-3.5925
X7.3406Y-2.5236
X7.3583Y-2.748
X7.3661Y-2.6417
X7.3898Y-2.5748
X7.3898Y-2.7126
X7.4213Y-2.6772
X7.4213Y-3.8425
X7.44Y-2.0327
X7.4409Y-2.5472
X7.4685Y-2.2756
X7.4685Y-2.748
X7.4793Y-2.0327
X7.5016Y-3.7433
X7.5069Y-4.9222
X7.5423Y-2.6772
X7.5551Y-3.6425
X7.5669Y-2.7126
X7.5699Y-2.2283
X7.5787Y-3.5433
X7.5815Y-5.0217
X7.5915Y-2.6417
X7.6106Y-4.9929
X7.6181Y-2.6063
X7.6447Y-2.0449
X7.6457Y-2.5748
X7.6722Y-2.0695
X7.6732Y-2.5472
X7.7047Y-2.5236
X7.7441Y-2.4449
X7.8819Y-2.3406
X7.9764Y-3.4929
X8.0039Y-3.4646
T2
X4.2713Y-2.6085
X4.2713Y-2.9274
X4.5533Y-4.6862
X4.7492Y-3.4098
X4.8656Y-5.2256
X4.9084Y-3.628
X5.0635Y-3.6272
X5.1484Y-2.734
X5.1497Y-4.6868
X5.5079Y-2.125
X5.5634Y-1.7043
X5.6772Y-2.125
X5.6965Y-1.7035
X6.5125Y-1.9533
X6.9134Y-4.372
X6.9292Y-3.0033
X7.0669Y-5.1614
X7.1496Y-4.372
X7.2028Y-4.372
X7.211Y-2.0071
X7.2559Y-4.372
X7.4094Y-3.1102
X7.4173Y-2.3661
T3
X4.5805Y-2.2366
X4.6789Y-2.2366
X4.7957Y-1.7122
X4.7957Y-2.0122
X5.0957Y-1.7122
X5.0957Y-2.0122
X6.1505Y-2.8915
X6.1505Y-2.9915
X6.1505Y-3.0915
X6.1505Y-3.1915
X6.1505Y-3.2915
X6.1505Y-3.3915
X6.1505Y-3.4915
X6.1505Y-3.5915
X6.1505Y-3.6915
X6.1505Y-3.7915
X6.1505Y-3.8915
X6.1505Y-3.9915
X6.1505Y-4.0915
X6.1505Y-4.1915
X6.1505Y-4.2915
X6.1505Y-4.3915
X6.1505Y-4.4915
X6.1505Y-4.5915
X6.1505Y-4.6915
X6.1505Y-4.7915
X6.7505Y-2.8915
X6.7505Y-2.9915
X6.7505Y-3.0915
X6.7505Y-3.1915
X6.7505Y-3.2915
X6.7505Y-3.3915
X6.7505Y-3.4915
X6.7505Y-3.5915
X6.7505Y-3.6915
X6.7505Y-3.7915
X6.7505Y-3.8915
X6.7505Y-3.9915
X6.7505Y-4.0915
X6.7505Y-4.1915
X6.7505Y-4.2915
X6.7505Y-4.3915
X6.7505Y-4.4915
X6.7505Y-4.5915
X6.7505Y-4.6915
X6.7505Y-4.7915
T4
X4.2583Y-3.0815
X4.2583Y-3.1815
X4.2583Y-3.2815
X4.2583Y-3.3815
X4.2583Y-3.4815
X4.2583Y-3.5815
X5.0972Y-2.353
X5.0972Y-2.453
X5.1077Y-5.2039
X5.1972Y-2.353
X5.1972Y-2.453
X5.2077Y-5.2039
X5.2972Y-2.353
X5.2972Y-2.453
X5.3077Y-5.2039
X6.2502Y-1.5835
X6.2953Y-1.5055
X6.2953Y-1.6614
X6.3404Y-1.5835
X6.3854Y-1.5055
X6.3854Y-1.6614
X6.4305Y-1.5835
X6.4756Y-1.5055
X6.4756Y-1.6614
X6.5207Y-1.5835
X6.5657Y-1.5055
X6.5657Y-1.6614
X6.6108Y-1.5835
X6.6559Y-1.5055
X6.6559Y-1.6614
X7.0531Y-2.0636
X7.0531Y-2.1636
X7.0531Y-2.2636
X7.0531Y-2.3636
X7.0531Y-2.4636
X7.7874Y-3.5453
X7.7874Y-3.6453
X7.7874Y-3.7453
X7.7874Y-3.8453
X7.7874Y-3.9453
X7.7874Y-4.0453
X7.7874Y-4.1453
X7.7874Y-4.2453
X7.7874Y-4.3453
X7.7874Y-4.4453
X7.7874Y-4.5453
X7.7874Y-4.6453
X7.7874Y-4.7453
X7.7874Y-4.8453
X7.7874Y-4.9453
X7.7874Y-5.0453
X7.789Y-2.6134
X7.789Y-2.7134
X7.789Y-2.8134
X7.789Y-2.9134
X7.789Y-3.0134
X7.789Y-3.1134
X7.789Y-3.2134
X7.789Y-3.3134
X7.8874Y-3.5453
X7.8874Y-3.6453
X7.8874Y-3.7453
X7.8874Y-3.8453
X7.8874Y-3.9453
X7.8874Y-4.0453
X7.8874Y-4.1453
X7.8874Y-4.2453
X7.8874Y-4.3453
X7.8874Y-4.4453
X7.8874Y-4.5453
X7.8874Y-4.6453
X7.8874Y-4.7453
X7.8874Y-4.8453
X7.8874Y-4.9453
X7.8874Y-5.0453
X7.889Y-2.6134
X7.889Y-2.7134
X7.889Y-2.8134
X7.889Y-2.9134
X7.889Y-3.0134
X7.889Y-3.1134
X7.889Y-3.2134
X7.889Y-3.3134
T5
X5.4567Y-2.3403
X5.4567Y-2.5175
X5.7126Y-2.3403
X5.7126Y-2.5175
X5.8462Y-2.3408
X5.8462Y-2.5179
X6.1021Y-2.3408
X6.1021Y-2.5179
T6
X4.2481Y-5.1951
X5.6457Y-1.4904
X7.9292Y-5.1951
X7.9371Y-1.4943
T7
X7.201Y-1.7927
X7.7183Y-1.7927
T8
X5.973Y-1.5807
X6.9573Y-1.5807
T4
G00X4.2685Y-1.6295
M15
G01X4.2685Y-1.5705
M16
G05
G00X4.4713Y-1.6394
M15
G01X4.4201Y-1.6394
M16
G05
G00X4.485Y-1.8756
M15
G01X4.4063Y-1.8756
M16
G05
G00X4.6228Y-1.6295
M15
G01X4.6228Y-1.5705
M16
G05
T0
M30
