M48
INCH,TZ
T1C0.0118
T2C0.0157
T3C0.0315
T4C0.0394
T5C0.0433
T6C0.0787
T7C0.0906
T8C0.1260
%
G90
G05
T1
X42302Y-26947
X43309Y-30108
X43922Y-51022
X44174Y-49963
X44737Y-26183
X44737Y-27183
X44741Y-26848
X44743Y-26516
X45434Y-40835
X45434Y-41346
X45434Y-42341
X45442Y-40352
X45444Y-41848
X45469Y-46341
X45969Y-50258
X46280Y-48864
X46694Y-49156
X46969Y-49667
X47183Y-30965
X47269Y-19065
X47272Y-18392
X47272Y-18722
X47276Y-18045
X47292Y-49404
X47513Y-30974
X48123Y-36648
X48442Y-35994
X48591Y-19065
X48595Y-18392
X48595Y-18722
X48599Y-18045
X48753Y-35573
X48757Y-31297
X49056Y-45341
X49060Y-45833
X49064Y-43341
X49064Y-43837
X49064Y-44844
X49064Y-50514
X49068Y-44337
X49072Y-42841
X49076Y-41337
X49076Y-41841
X49083Y-42337
X49085Y-40844
X49387Y-31848
X49387Y-32203
X49387Y-32557
X49387Y-32951
X49387Y-33541
X49387Y-34132
X49547Y-26584
X49547Y-28552
X49702Y-33230
X49702Y-33856
X49702Y-34368
X50009Y-51293
X51240Y-27214
X51467Y-40343
X51546Y-41848
X51546Y-42350
X51556Y-41346
X51576Y-40844
X51650Y-33242
X51752Y-27991
X51870Y-16683
X51930Y-33561
X52182Y-33888
X52422Y-34140
X52477Y-50256
X52675Y-34388
X52690Y-48878
X52736Y-27214
X52930Y-49150
X52969Y-32222
X53012Y-20501
X53107Y-18404
X53150Y-49665
X53245Y-32577
X53363Y-49402
X53520Y-32967
X53662Y-40854
X53666Y-43837
X53670Y-41856
X53670Y-43348
X53672Y-41346
X53674Y-42356
X53674Y-42841
X53678Y-50520
X53682Y-44341
X53682Y-44844
X53686Y-45364
X53686Y-45833
X54154Y-16683
X54414Y-49976
X54626Y-17509
X58312Y-35927
X61339Y-20266
X61909Y-22126
X61909Y-25817
X62291Y-24524
X62477Y-28911
X62500Y-44921
X62500Y-48878
X62887Y-31919
X63049Y-45927
X63049Y-49152
X63504Y-27756
X63561Y-46927
X63563Y-49409
X63898Y-27520
X64016Y-47933
X64016Y-49665
X64028Y-23010
X64291Y-27283
X64646Y-49764
X64685Y-27047
X65000Y-26791
X65118Y-49961
X65394Y-26553
X65410Y-19242
X65453Y-50236
X65748Y-26339
X66063Y-26102
X66339Y-50512
X66737Y-22061
X67024Y-21435
X67036Y-23014
X67143Y-21750
X67997Y-24474
X68346Y-43425
X68642Y-28071
X69115Y-30683
X69134Y-47776
X69213Y-31929
X69340Y-30984
X69390Y-45315
X69390Y-46299
X70256Y-42933
X71043Y-41909
X71102Y-43268
X71142Y-51033
X71378Y-29252
X71378Y-40925
X71450Y-51293
X71693Y-29498
X71693Y-39921
X71870Y-30744
X72008Y-29764
X72008Y-38917
X72323Y-29990
X72638Y-30216
X72638Y-37933
X72953Y-36929
X73268Y-30442
X73268Y-35925
X73406Y-25236
X73583Y-27480
X73661Y-26417
X73898Y-25748
X73898Y-27126
X74213Y-26772
X74213Y-38425
X74400Y-20327
X74409Y-25472
X74685Y-22756
X74685Y-27480
X74793Y-20327
X75000Y-37402
X75069Y-49222
X75423Y-26772
X75551Y-36425
X75669Y-27126
X75699Y-22283
X75787Y-35433
X75815Y-50217
X75915Y-26417
X76106Y-49929
X76181Y-26063
X76447Y-20449
X76457Y-25748
X76722Y-20695
X76732Y-25472
X77047Y-25236
X77441Y-24449
X78819Y-23406
X79764Y-34929
X80039Y-34646
T2
X42713Y-26085
X42713Y-29274
X45533Y-46862
X46009Y-35589
X48123Y-30900
X48656Y-52256
X49084Y-36280
X50635Y-36272
X51497Y-46868
X55079Y-21250
X55634Y-17043
X56772Y-21250
X56965Y-17035
X65125Y-19533
X69134Y-43720
X69292Y-30033
X70669Y-51614
X71496Y-43720
X72110Y-20071
X74094Y-31102
X74173Y-23661
T3
X45805Y-22366
X46789Y-22366
X47957Y-17122
X47957Y-20122
X50957Y-17122
X50957Y-20122
X61505Y-28915
X61505Y-29915
X61505Y-30915
X61505Y-31915
X61505Y-32915
X61505Y-33915
X61505Y-34915
X61505Y-35915
X61505Y-36915
X61505Y-37915
X61505Y-38915
X61505Y-39915
X61505Y-40915
X61505Y-41915
X61505Y-42915
X61505Y-43915
X61505Y-44915
X61505Y-45915
X61505Y-46915
X61505Y-47915
X67505Y-28915
X67505Y-29915
X67505Y-30915
X67505Y-31915
X67505Y-32915
X67505Y-33915
X67505Y-34915
X67505Y-35915
X67505Y-36915
X67505Y-37915
X67505Y-38915
X67505Y-39915
X67505Y-40915
X67505Y-41915
X67505Y-42915
X67505Y-43915
X67505Y-44915
X67505Y-45915
X67505Y-46915
X67505Y-47915
T4
X42583Y-30815
X42583Y-31815
X42583Y-32815
X42583Y-33815
X42583Y-34815
X42583Y-35815
X50972Y-23530
X50972Y-24530
X51077Y-52039
X51972Y-23530
X51972Y-24530
X52077Y-52039
X52972Y-23530
X52972Y-24530
X53077Y-52039
X62502Y-15835
X62953Y-15055
X62953Y-16614
X63404Y-15835
X63854Y-15055
X63854Y-16614
X64305Y-15835
X64756Y-15055
X64756Y-16614
X65207Y-15835
X65657Y-15055
X65657Y-16614
X66108Y-15835
X66559Y-15055
X66559Y-16614
X70532Y-20809
X70532Y-21809
X70532Y-22809
X70532Y-23809
X70532Y-24809
X77874Y-35453
X77874Y-36453
X77874Y-37453
X77874Y-38453
X77874Y-39453
X77874Y-40453
X77874Y-41453
X77874Y-42453
X77874Y-43453
X77874Y-44453
X77874Y-45453
X77874Y-46453
X77874Y-47453
X77874Y-48453
X77874Y-49453
X77874Y-50453
X77890Y-26134
X77890Y-27134
X77890Y-28134
X77890Y-29134
X77890Y-30134
X77890Y-31134
X77890Y-32134
X77890Y-33134
X78874Y-35453
X78874Y-36453
X78874Y-37453
X78874Y-38453
X78874Y-39453
X78874Y-40453
X78874Y-41453
X78874Y-42453
X78874Y-43453
X78874Y-44453
X78874Y-45453
X78874Y-46453
X78874Y-47453
X78874Y-48453
X78874Y-49453
X78874Y-50453
X78890Y-26134
X78890Y-27134
X78890Y-28134
X78890Y-29134
X78890Y-30134
X78890Y-31134
X78890Y-32134
X78890Y-33134
T5
X54567Y-23403
X54567Y-25175
X57126Y-23403
X57126Y-25175
X58462Y-23408
X58462Y-25179
X61021Y-23408
X61021Y-25179
T6
X42481Y-51951
X56457Y-14904
X79292Y-51951
X79371Y-14943
T7
X72010Y-17927
X77183Y-17927
T8
X59730Y-15807
X69573Y-15807
T4
G00X42685Y-16295
M15
G01X42685Y-15705
M16
G05
G00X44713Y-16394
M15
G01X44201Y-16394
M16
G05
G00X44850Y-18756
M15
G01X44063Y-18756
M16
G05
G00X46228Y-16295
M15
G01X46228Y-15705
M16
G05
T0
M30
