G04 #@! TF.GenerationSoftware,KiCad,Pcbnew,6.0.4-1.fc35*
G04 #@! TF.CreationDate,2022-04-30T04:13:26+05:30*
G04 #@! TF.ProjectId,8puter,38707574-6572-42e6-9b69-6361645f7063,rev?*
G04 #@! TF.SameCoordinates,Original*
G04 #@! TF.FileFunction,Soldermask,Bot*
G04 #@! TF.FilePolarity,Negative*
%FSLAX46Y46*%
G04 Gerber Fmt 4.6, Leading zero omitted, Abs format (unit mm)*
G04 Created by KiCad (PCBNEW 6.0.4-1.fc35) date 2022-04-30 04:13:26*
%MOMM*%
%LPD*%
G01*
G04 APERTURE LIST*
%ADD10R,1.700000X1.700000*%
%ADD11O,1.700000X1.700000*%
%ADD12C,2.000000*%
%ADD13C,3.000000*%
%ADD14O,2.400000X1.600000*%
%ADD15R,2.400000X1.600000*%
%ADD16C,1.600000*%
%ADD17R,1.600000X1.600000*%
%ADD18C,4.000000*%
%ADD19O,2.000000X3.500000*%
%ADD20O,3.300000X2.000000*%
%ADD21R,4.000000X2.000000*%
G04 APERTURE END LIST*
D10*
X197840000Y-66380000D03*
D11*
X200380000Y-66380000D03*
X197840000Y-68920000D03*
X200380000Y-68920000D03*
X197840000Y-71460000D03*
X200380000Y-71460000D03*
X197840000Y-74000000D03*
X200380000Y-74000000D03*
X197840000Y-76540000D03*
X200380000Y-76540000D03*
X197840000Y-79080000D03*
X200380000Y-79080000D03*
X197840000Y-81620000D03*
X200380000Y-81620000D03*
X197840000Y-84160000D03*
X200380000Y-84160000D03*
X108160000Y-78270000D03*
X108160000Y-80810000D03*
X108160000Y-83350000D03*
X108160000Y-85890000D03*
X108160000Y-88430000D03*
D10*
X108160000Y-90970000D03*
X129735000Y-132180000D03*
D11*
X132275000Y-132180000D03*
X134815000Y-132180000D03*
D10*
X179152000Y-52855000D03*
D11*
X179152000Y-55395000D03*
X179152000Y-57935000D03*
X179152000Y-60475000D03*
X179152000Y-63015000D03*
D10*
X134550000Y-59765000D03*
D11*
X134550000Y-62305000D03*
X132010000Y-59765000D03*
X132010000Y-62305000D03*
X129470000Y-59765000D03*
X129470000Y-62305000D03*
D10*
X197800000Y-90050000D03*
D11*
X200340000Y-90050000D03*
X197800000Y-92590000D03*
X200340000Y-92590000D03*
X197800000Y-95130000D03*
X200340000Y-95130000D03*
X197800000Y-97670000D03*
X200340000Y-97670000D03*
X197800000Y-100210000D03*
X200340000Y-100210000D03*
X197800000Y-102750000D03*
X200340000Y-102750000D03*
X197800000Y-105290000D03*
X200340000Y-105290000D03*
X197800000Y-107830000D03*
X200340000Y-107830000D03*
X197800000Y-110370000D03*
X200340000Y-110370000D03*
X197800000Y-112910000D03*
X200340000Y-112910000D03*
X197800000Y-115450000D03*
X200340000Y-115450000D03*
X197800000Y-117990000D03*
X200340000Y-117990000D03*
X197800000Y-120530000D03*
X200340000Y-120530000D03*
X197800000Y-123070000D03*
X200340000Y-123070000D03*
X197800000Y-125610000D03*
X200340000Y-125610000D03*
X197800000Y-128150000D03*
X200340000Y-128150000D03*
D12*
X154994214Y-63955786D03*
X148494214Y-63955786D03*
X154994214Y-59455786D03*
X148494214Y-59455786D03*
D13*
X107902000Y-131955000D03*
D14*
X171462000Y-73445000D03*
X171462000Y-75985000D03*
X171462000Y-78525000D03*
X171462000Y-81065000D03*
X171462000Y-83605000D03*
X171462000Y-86145000D03*
X171462000Y-88685000D03*
X171462000Y-91225000D03*
X171462000Y-93765000D03*
X171462000Y-96305000D03*
X171462000Y-98845000D03*
X171462000Y-101385000D03*
X171462000Y-103925000D03*
X171462000Y-106465000D03*
X171462000Y-109005000D03*
X171462000Y-111545000D03*
X171462000Y-114085000D03*
X171462000Y-116625000D03*
X171462000Y-119165000D03*
X171462000Y-121705000D03*
X156222000Y-121705000D03*
X156222000Y-119165000D03*
X156222000Y-116625000D03*
X156222000Y-114085000D03*
X156222000Y-111545000D03*
X156222000Y-109005000D03*
X156222000Y-106465000D03*
X156222000Y-103925000D03*
X156222000Y-101385000D03*
X156222000Y-98845000D03*
X156222000Y-96305000D03*
X156222000Y-93765000D03*
X156222000Y-91225000D03*
X156222000Y-88685000D03*
X156222000Y-86145000D03*
X156222000Y-83605000D03*
X156222000Y-81065000D03*
X156222000Y-78525000D03*
X156222000Y-75985000D03*
D15*
X156222000Y-73445000D03*
D13*
X201402000Y-131955000D03*
D16*
X118844888Y-56810000D03*
D17*
X116344888Y-56810000D03*
D16*
X169060000Y-38240331D03*
X166770000Y-38240331D03*
X164480000Y-38240331D03*
X162190000Y-38240331D03*
X159900000Y-38240331D03*
X167915000Y-40220331D03*
X165625000Y-40220331D03*
X163335000Y-40220331D03*
X161045000Y-40220331D03*
X158755000Y-40220331D03*
X169060000Y-42200331D03*
X166770000Y-42200331D03*
X164480000Y-42200331D03*
X162190000Y-42200331D03*
D17*
X159900000Y-42200331D03*
D18*
X151715000Y-40150331D03*
X176715000Y-40150331D03*
D13*
X143402000Y-37855000D03*
D19*
X108420000Y-40640000D03*
X117420000Y-40640000D03*
D20*
X112920000Y-41640000D03*
D21*
X112920000Y-47640000D03*
D16*
X112920000Y-38640000D03*
D12*
X145100000Y-59444226D03*
X138600000Y-59444226D03*
X138600000Y-63944226D03*
X145100000Y-63944226D03*
D13*
X196045001Y-45534999D03*
X182905001Y-45534999D03*
X201602000Y-37955000D03*
D16*
X121810000Y-43490000D03*
X129430000Y-43490000D03*
X129430000Y-51110000D03*
D17*
X121810000Y-51110000D03*
M02*
