G04 #@! TF.GenerationSoftware,KiCad,Pcbnew,6.0.4-1.fc35*
G04 #@! TF.CreationDate,2022-04-29T20:37:37+05:30*
G04 #@! TF.ProjectId,8puter,38707574-6572-42e6-9b69-6361645f7063,rev?*
G04 #@! TF.SameCoordinates,Original*
G04 #@! TF.FileFunction,Soldermask,Bot*
G04 #@! TF.FilePolarity,Negative*
%FSLAX46Y46*%
G04 Gerber Fmt 4.6, Leading zero omitted, Abs format (unit mm)*
G04 Created by KiCad (PCBNEW 6.0.4-1.fc35) date 2022-04-29 20:37:37*
%MOMM*%
%LPD*%
G01*
G04 APERTURE LIST*
%ADD10C,3.000000*%
%ADD11O,2.400000X1.600000*%
%ADD12R,2.400000X1.600000*%
%ADD13C,2.000000*%
%ADD14R,1.350000X1.350000*%
%ADD15O,1.350000X1.350000*%
%ADD16R,1.600000X1.600000*%
%ADD17C,1.600000*%
%ADD18C,4.000000*%
%ADD19O,2.000000X3.500000*%
%ADD20O,3.300000X2.000000*%
%ADD21R,4.000000X2.000000*%
G04 APERTURE END LIST*
D10*
X143500000Y-37900000D03*
X201700000Y-38000000D03*
X201500000Y-132000000D03*
X108000000Y-132000000D03*
D11*
X171560000Y-73490000D03*
X171560000Y-76030000D03*
X171560000Y-78570000D03*
X171560000Y-81110000D03*
X171560000Y-83650000D03*
X171560000Y-86190000D03*
X171560000Y-88730000D03*
X171560000Y-91270000D03*
X171560000Y-93810000D03*
X171560000Y-96350000D03*
X171560000Y-98890000D03*
X171560000Y-101430000D03*
X171560000Y-103970000D03*
X171560000Y-106510000D03*
X171560000Y-109050000D03*
X171560000Y-111590000D03*
X171560000Y-114130000D03*
X171560000Y-116670000D03*
X171560000Y-119210000D03*
X171560000Y-121750000D03*
X156320000Y-121750000D03*
X156320000Y-119210000D03*
X156320000Y-116670000D03*
X156320000Y-114130000D03*
X156320000Y-111590000D03*
X156320000Y-109050000D03*
X156320000Y-106510000D03*
X156320000Y-103970000D03*
X156320000Y-101430000D03*
X156320000Y-98890000D03*
X156320000Y-96350000D03*
X156320000Y-93810000D03*
X156320000Y-91270000D03*
X156320000Y-88730000D03*
X156320000Y-86190000D03*
X156320000Y-83650000D03*
X156320000Y-81110000D03*
X156320000Y-78570000D03*
X156320000Y-76030000D03*
D12*
X156320000Y-73490000D03*
D13*
X148592214Y-59500786D03*
X155092214Y-59500786D03*
X148592214Y-64000786D03*
X155092214Y-64000786D03*
D14*
X130400000Y-132240000D03*
D15*
X132400000Y-132240000D03*
X134400000Y-132240000D03*
D14*
X197898000Y-66345000D03*
D15*
X199898000Y-66345000D03*
X197898000Y-68345000D03*
X199898000Y-68345000D03*
X197898000Y-70345000D03*
X199898000Y-70345000D03*
X197898000Y-72345000D03*
X199898000Y-72345000D03*
X197898000Y-74345000D03*
X199898000Y-74345000D03*
X197898000Y-76345000D03*
X199898000Y-76345000D03*
X197898000Y-78345000D03*
X199898000Y-78345000D03*
X197898000Y-80345000D03*
X199898000Y-80345000D03*
D14*
X179250000Y-52900000D03*
D15*
X179250000Y-54900000D03*
X179250000Y-56900000D03*
X179250000Y-58900000D03*
X179250000Y-60900000D03*
D16*
X116442888Y-56855000D03*
D17*
X118942888Y-56855000D03*
X169158000Y-38285331D03*
X166868000Y-38285331D03*
X164578000Y-38285331D03*
X162288000Y-38285331D03*
X159998000Y-38285331D03*
X168013000Y-40265331D03*
X165723000Y-40265331D03*
X163433000Y-40265331D03*
X161143000Y-40265331D03*
X158853000Y-40265331D03*
X169158000Y-42245331D03*
X166868000Y-42245331D03*
X164578000Y-42245331D03*
X162288000Y-42245331D03*
D16*
X159998000Y-42245331D03*
D18*
X151813000Y-40195331D03*
X176813000Y-40195331D03*
D15*
X108282000Y-79050000D03*
X108282000Y-81050000D03*
X108282000Y-83050000D03*
X108282000Y-85050000D03*
X108282000Y-87050000D03*
D14*
X108282000Y-89050000D03*
X197898000Y-90095000D03*
D15*
X199898000Y-90095000D03*
X197898000Y-92095000D03*
X199898000Y-92095000D03*
X197898000Y-94095000D03*
X199898000Y-94095000D03*
X197898000Y-96095000D03*
X199898000Y-96095000D03*
X197898000Y-98095000D03*
X199898000Y-98095000D03*
X197898000Y-100095000D03*
X199898000Y-100095000D03*
X197898000Y-102095000D03*
X199898000Y-102095000D03*
X197898000Y-104095000D03*
X199898000Y-104095000D03*
X197898000Y-106095000D03*
X199898000Y-106095000D03*
X197898000Y-108095000D03*
X199898000Y-108095000D03*
X197898000Y-110095000D03*
X199898000Y-110095000D03*
X197898000Y-112095000D03*
X199898000Y-112095000D03*
X197898000Y-114095000D03*
X199898000Y-114095000D03*
X197898000Y-116095000D03*
X199898000Y-116095000D03*
X197898000Y-118095000D03*
X199898000Y-118095000D03*
X197898000Y-120095000D03*
X199898000Y-120095000D03*
D19*
X108518000Y-40685000D03*
X117518000Y-40685000D03*
D20*
X113018000Y-41685000D03*
D21*
X113018000Y-47685000D03*
D17*
X113018000Y-38685000D03*
D13*
X145198000Y-63989226D03*
X138698000Y-63989226D03*
X138698000Y-59489226D03*
X145198000Y-59489226D03*
D14*
X134648000Y-58818750D03*
D15*
X134648000Y-60818750D03*
X132648000Y-58818750D03*
X132648000Y-60818750D03*
X130648000Y-58818750D03*
X130648000Y-60818750D03*
D10*
X183028000Y-44715000D03*
X196168000Y-44715000D03*
D16*
X121908000Y-51155000D03*
D17*
X129528000Y-51155000D03*
X129528000Y-43535000D03*
X121908000Y-43535000D03*
M02*
