M48
INCH,TZ
T1C0.0118
T2C0.0157
T3C0.0315
T4C0.0394
T5C0.0433
T6C0.0787
T7C0.0906
T8C0.1260
%
G90
G05
T1
X42341Y-26965
X43347Y-30126
X43961Y-51039
X44213Y-49980
X44776Y-26201
X44776Y-27201
X44780Y-26866
X44781Y-26533
X45472Y-40852
X45472Y-41364
X45472Y-42358
X45480Y-40370
X45482Y-41866
X45508Y-46358
X46008Y-50276
X46319Y-48882
X46732Y-49173
X47008Y-49685
X47222Y-30983
X47307Y-19083
X47311Y-18409
X47311Y-18740
X47315Y-18063
X47331Y-49421
X47551Y-30992
X48161Y-36665
X48480Y-36012
X48630Y-19083
X48634Y-18409
X48634Y-18740
X48638Y-18063
X48791Y-35591
X48795Y-31315
X49094Y-45358
X49098Y-45850
X49102Y-43358
X49102Y-43854
X49102Y-44862
X49102Y-50531
X49106Y-44354
X49110Y-42858
X49114Y-41354
X49114Y-41858
X49122Y-42354
X49124Y-40862
X49425Y-31866
X49425Y-32220
X49425Y-32575
X49425Y-32969
X49425Y-33559
X49425Y-34150
X49586Y-26601
X49586Y-28570
X49740Y-33248
X49740Y-33874
X49740Y-34386
X50047Y-51311
X51279Y-27231
X51506Y-40360
X51585Y-41866
X51585Y-42368
X51594Y-41364
X51614Y-40862
X51689Y-33260
X51791Y-28009
X51909Y-16700
X51969Y-33579
X52220Y-33906
X52461Y-34157
X52516Y-50248
X52713Y-34406
X52732Y-48878
X52775Y-27231
X52969Y-49146
X53008Y-32240
X53050Y-20519
X53146Y-18421
X53185Y-49661
X53283Y-32594
X53402Y-49402
X53559Y-32984
X53701Y-40872
X53705Y-43854
X53709Y-41874
X53709Y-43366
X53711Y-41364
X53713Y-42374
X53713Y-42858
X53717Y-50520
X53720Y-44358
X53720Y-44862
X53724Y-45382
X53724Y-45850
X54192Y-16700
X54453Y-49972
X54665Y-17527
X58350Y-35945
X61378Y-20283
X61948Y-22144
X61948Y-25835
X62283Y-24388
X62516Y-28929
X62539Y-44939
X62539Y-48896
X62925Y-31937
X63088Y-45945
X63088Y-49169
X63543Y-27774
X63600Y-46945
X63602Y-49427
X63936Y-27537
X64054Y-47951
X64054Y-49683
X64067Y-23028
X64330Y-27301
X64684Y-49781
X64724Y-27065
X65039Y-26809
X65157Y-49978
X65432Y-26571
X65449Y-19260
X65491Y-50254
X65787Y-26356
X66102Y-26120
X66377Y-50530
X66776Y-22079
X67063Y-21453
X67075Y-23031
X67181Y-21768
X68035Y-24492
X68385Y-43443
X68680Y-28089
X69154Y-30701
X69172Y-47793
X69251Y-31947
X69379Y-31002
X69428Y-45333
X69428Y-46317
X70294Y-42951
X71082Y-41927
X71141Y-43285
X71180Y-51051
X71417Y-29270
X71417Y-40943
X71488Y-51311
X71731Y-29516
X71731Y-39939
X72046Y-29781
X72046Y-38935
X72361Y-30008
X72676Y-30234
X72676Y-37951
X72991Y-36947
X73306Y-30460
X73306Y-35943
X73444Y-25254
X73621Y-27498
X73621Y-30766
X73700Y-26435
X73936Y-25766
X73936Y-27144
X74251Y-26789
X74251Y-38443
X74448Y-20004
X74448Y-25490
X74724Y-22774
X74724Y-27498
X74842Y-20004
X75039Y-37419
X75107Y-49240
X75462Y-26789
X75590Y-36258
X75708Y-27577
X75738Y-22301
X75826Y-35451
X75954Y-26435
X76220Y-26081
X76436Y-45707
X76436Y-47124
X76495Y-20126
X76495Y-25766
X76672Y-46809
X76771Y-20372
X76771Y-25490
X77086Y-25254
X77480Y-24467
X78857Y-23423
X79251Y-34939
X79527Y-34663
T2
X42752Y-26102
X42752Y-29291
X45572Y-46880
X46047Y-35606
X48161Y-30917
X48917Y-52280
X49123Y-36297
X50674Y-36289
X51535Y-46886
X55117Y-21267
X55672Y-17061
X56810Y-21267
X57003Y-17053
X65164Y-19551
X69172Y-43738
X69331Y-30051
X70708Y-51632
X71535Y-43738
X72322Y-20805
X74133Y-31120
X74212Y-23679
X75563Y-42154
T3
X42631Y-31122
X42631Y-31909
X42631Y-32697
X42631Y-33484
X42631Y-34272
X42631Y-35059
X45844Y-22384
X46828Y-22384
X47995Y-17140
X47995Y-20140
X50995Y-17140
X50995Y-20140
X51339Y-52063
X51436Y-23157
X51436Y-23944
X52126Y-52063
X52224Y-23157
X52224Y-23944
X52913Y-52063
X53011Y-23157
X53011Y-23944
X61543Y-28933
X61543Y-29933
X61543Y-30933
X61543Y-31933
X61543Y-32933
X61543Y-33933
X61543Y-34933
X61543Y-35933
X61543Y-36933
X61543Y-37933
X61543Y-38933
X61543Y-39933
X61543Y-40933
X61543Y-41933
X61543Y-42933
X61543Y-43933
X61543Y-44933
X61543Y-45933
X61543Y-46933
X61543Y-47933
X67543Y-28933
X67543Y-29933
X67543Y-30933
X67543Y-31933
X67543Y-32933
X67543Y-33933
X67543Y-34933
X67543Y-35933
X67543Y-36933
X67543Y-37933
X67543Y-38933
X67543Y-39933
X67543Y-40933
X67543Y-41933
X67543Y-42933
X67543Y-43933
X67543Y-44933
X67543Y-45933
X67543Y-46933
X67543Y-47933
X70571Y-20827
X70571Y-21614
X70571Y-22402
X70571Y-23189
X70571Y-23976
X77913Y-26120
X77913Y-26907
X77913Y-27695
X77913Y-28482
X77913Y-29270
X77913Y-30057
X77913Y-30844
X77913Y-31632
X77913Y-35470
X77913Y-36258
X77913Y-37045
X77913Y-37833
X77913Y-38620
X77913Y-39407
X77913Y-40195
X77913Y-40982
X77913Y-41770
X77913Y-42557
X77913Y-43344
X77913Y-44132
X77913Y-44919
X77913Y-45707
X77913Y-46494
X77913Y-47281
X78700Y-26120
X78700Y-26907
X78700Y-27695
X78700Y-28482
X78700Y-29270
X78700Y-30057
X78700Y-30844
X78700Y-31632
X78700Y-35470
X78700Y-36258
X78700Y-37045
X78700Y-37833
X78700Y-38620
X78700Y-39407
X78700Y-40195
X78700Y-40982
X78700Y-41770
X78700Y-42557
X78700Y-43344
X78700Y-44132
X78700Y-44919
X78700Y-45707
X78700Y-46494
X78700Y-47281
T4
X62541Y-15852
X62991Y-15073
X62991Y-16632
X63442Y-15852
X63893Y-15073
X63893Y-16632
X64344Y-15852
X64794Y-15073
X64794Y-16632
X65245Y-15852
X65696Y-15073
X65696Y-16632
X66147Y-15852
X66598Y-15073
X66598Y-16632
T5
X54606Y-23421
X54606Y-25193
X57165Y-23421
X57165Y-25193
X58501Y-23426
X58501Y-25197
X61060Y-23426
X61060Y-25197
T6
X42520Y-51969
X56496Y-14921
X79331Y-51969
X79409Y-14961
T7
X72058Y-17604
X77231Y-17604
T8
X59769Y-15825
X69611Y-15825
T4
G00X42724Y-16313
M15
G01X42724Y-15722
M16
G05
G00X44751Y-16411
M15
G01X44239Y-16411
M16
G05
G00X44889Y-18774
M15
G01X44102Y-18774
M16
G05
G00X46267Y-16313
M15
G01X46267Y-15722
M16
G05
T0
M30
