G04 #@! TF.GenerationSoftware,KiCad,Pcbnew,6.0.4-1.fc35*
G04 #@! TF.CreationDate,2022-04-29T18:05:54+05:30*
G04 #@! TF.ProjectId,8puter,38707574-6572-42e6-9b69-6361645f7063,rev?*
G04 #@! TF.SameCoordinates,Original*
G04 #@! TF.FileFunction,Soldermask,Top*
G04 #@! TF.FilePolarity,Negative*
%FSLAX46Y46*%
G04 Gerber Fmt 4.6, Leading zero omitted, Abs format (unit mm)*
G04 Created by KiCad (PCBNEW 6.0.4-1.fc35) date 2022-04-29 18:05:54*
%MOMM*%
%LPD*%
G01*
G04 APERTURE LIST*
G04 Aperture macros list*
%AMRoundRect*
0 Rectangle with rounded corners*
0 $1 Rounding radius*
0 $2 $3 $4 $5 $6 $7 $8 $9 X,Y pos of 4 corners*
0 Add a 4 corners polygon primitive as box body*
4,1,4,$2,$3,$4,$5,$6,$7,$8,$9,$2,$3,0*
0 Add four circle primitives for the rounded corners*
1,1,$1+$1,$2,$3*
1,1,$1+$1,$4,$5*
1,1,$1+$1,$6,$7*
1,1,$1+$1,$8,$9*
0 Add four rect primitives between the rounded corners*
20,1,$1+$1,$2,$3,$4,$5,0*
20,1,$1+$1,$4,$5,$6,$7,0*
20,1,$1+$1,$6,$7,$8,$9,0*
20,1,$1+$1,$8,$9,$2,$3,0*%
G04 Aperture macros list end*
%ADD10RoundRect,0.250000X-0.250000X-0.475000X0.250000X-0.475000X0.250000X0.475000X-0.250000X0.475000X0*%
%ADD11RoundRect,0.250000X-0.262500X-0.450000X0.262500X-0.450000X0.262500X0.450000X-0.262500X0.450000X0*%
%ADD12RoundRect,0.250000X0.262500X0.450000X-0.262500X0.450000X-0.262500X-0.450000X0.262500X-0.450000X0*%
%ADD13R,1.100000X0.850000*%
%ADD14R,1.100000X0.750000*%
%ADD15R,1.000000X1.200000*%
%ADD16R,1.800000X1.170000*%
%ADD17R,1.350000X1.900000*%
%ADD18R,1.350000X1.550000*%
%ADD19C,2.000000*%
%ADD20RoundRect,0.150000X0.875000X0.150000X-0.875000X0.150000X-0.875000X-0.150000X0.875000X-0.150000X0*%
%ADD21R,1.000000X0.700000*%
%ADD22R,0.600000X0.700000*%
%ADD23R,1.350000X1.350000*%
%ADD24O,1.350000X1.350000*%
%ADD25RoundRect,0.250000X-0.450000X0.262500X-0.450000X-0.262500X0.450000X-0.262500X0.450000X0.262500X0*%
%ADD26R,2.400000X1.600000*%
%ADD27O,2.400000X1.600000*%
%ADD28RoundRect,0.250000X0.450000X-0.262500X0.450000X0.262500X-0.450000X0.262500X-0.450000X-0.262500X0*%
%ADD29RoundRect,0.250000X0.250000X0.475000X-0.250000X0.475000X-0.250000X-0.475000X0.250000X-0.475000X0*%
%ADD30C,3.000000*%
%ADD31RoundRect,0.250000X-0.475000X0.250000X-0.475000X-0.250000X0.475000X-0.250000X0.475000X0.250000X0*%
%ADD32RoundRect,0.250000X0.475000X-0.250000X0.475000X0.250000X-0.475000X0.250000X-0.475000X-0.250000X0*%
%ADD33R,2.000000X1.500000*%
%ADD34R,2.000000X3.800000*%
%ADD35R,1.500000X0.520000*%
%ADD36R,0.520000X1.500000*%
%ADD37R,1.600000X1.600000*%
%ADD38C,1.600000*%
%ADD39RoundRect,0.100000X-0.100000X0.637500X-0.100000X-0.637500X0.100000X-0.637500X0.100000X0.637500X0*%
%ADD40RoundRect,0.243750X0.243750X0.456250X-0.243750X0.456250X-0.243750X-0.456250X0.243750X-0.456250X0*%
%ADD41C,4.000000*%
%ADD42RoundRect,0.150000X0.150000X-0.825000X0.150000X0.825000X-0.150000X0.825000X-0.150000X-0.825000X0*%
%ADD43R,0.450000X1.750000*%
%ADD44R,0.550000X1.500000*%
%ADD45R,1.500000X0.550000*%
%ADD46R,4.000000X2.000000*%
%ADD47O,3.300000X2.000000*%
%ADD48O,2.000000X3.500000*%
%ADD49RoundRect,0.100000X0.100000X-0.637500X0.100000X0.637500X-0.100000X0.637500X-0.100000X-0.637500X0*%
%ADD50R,1.250000X3.000000*%
G04 APERTURE END LIST*
D10*
X124048000Y-122315000D03*
X125948000Y-122315000D03*
D11*
X139523000Y-50968750D03*
X141348000Y-50968750D03*
D12*
X142898000Y-119345000D03*
X141073000Y-119345000D03*
D13*
X106013000Y-70630000D03*
X106013000Y-69530000D03*
X106013000Y-68430000D03*
X106013000Y-67330000D03*
X106013000Y-66230000D03*
X106013000Y-65130000D03*
X106013000Y-64030000D03*
D14*
X106013000Y-62980000D03*
D15*
X112163000Y-73265000D03*
X115863000Y-73265000D03*
D16*
X106363000Y-61770000D03*
D17*
X116838000Y-63795000D03*
D18*
X106138000Y-73090000D03*
D17*
X116838000Y-69765000D03*
D19*
X148592214Y-59500786D03*
X155092214Y-59500786D03*
X148592214Y-64000786D03*
X155092214Y-64000786D03*
D20*
X133348000Y-119100000D03*
X133348000Y-117830000D03*
X133348000Y-116560000D03*
X133348000Y-115290000D03*
X133348000Y-114020000D03*
X133348000Y-112750000D03*
X133348000Y-111480000D03*
X133348000Y-110210000D03*
X133348000Y-108940000D03*
X133348000Y-107670000D03*
X133348000Y-106400000D03*
X133348000Y-105130000D03*
X133348000Y-103860000D03*
X133348000Y-102590000D03*
X124048000Y-102590000D03*
X124048000Y-103860000D03*
X124048000Y-105130000D03*
X124048000Y-106400000D03*
X124048000Y-107670000D03*
X124048000Y-108940000D03*
X124048000Y-110210000D03*
X124048000Y-111480000D03*
X124048000Y-112750000D03*
X124048000Y-114020000D03*
X124048000Y-115290000D03*
X124048000Y-116560000D03*
X124048000Y-117830000D03*
X124048000Y-119100000D03*
D21*
X154148005Y-56244988D03*
D22*
X155848005Y-56244988D03*
X155848005Y-54244988D03*
X153948005Y-54244988D03*
D23*
X125448000Y-132295000D03*
D24*
X127448000Y-132295000D03*
X129448000Y-132295000D03*
D25*
X161698000Y-129620000D03*
X161698000Y-131445000D03*
D12*
X142898000Y-103945000D03*
X141073000Y-103945000D03*
X142898000Y-96345000D03*
X141073000Y-96345000D03*
D26*
X146198005Y-73519988D03*
D27*
X146198005Y-76059988D03*
X146198005Y-78599988D03*
X146198005Y-81139988D03*
X146198005Y-83679988D03*
X146198005Y-86219988D03*
X146198005Y-88759988D03*
X146198005Y-91299988D03*
X146198005Y-93839988D03*
X146198005Y-96379988D03*
X146198005Y-98919988D03*
X146198005Y-101459988D03*
X146198005Y-103999988D03*
X146198005Y-106539988D03*
X146198005Y-109079988D03*
X146198005Y-111619988D03*
X146198005Y-114159988D03*
X146198005Y-116699988D03*
X146198005Y-119239988D03*
X146198005Y-121779988D03*
X171598005Y-121779988D03*
X171598005Y-119239988D03*
X171598005Y-116699988D03*
X171598005Y-114159988D03*
X171598005Y-111619988D03*
X171598005Y-109079988D03*
X171598005Y-106539988D03*
X171598005Y-103999988D03*
X171598005Y-101459988D03*
X171598005Y-98919988D03*
X171598005Y-96379988D03*
X171598005Y-93839988D03*
X171598005Y-91299988D03*
X171598005Y-88759988D03*
X171598005Y-86219988D03*
X171598005Y-83679988D03*
X171598005Y-81139988D03*
X171598005Y-78599988D03*
X171598005Y-76059988D03*
X171598005Y-73519988D03*
D25*
X172780000Y-45367500D03*
X172780000Y-47192500D03*
D28*
X113548000Y-100137500D03*
X113548000Y-98312500D03*
D29*
X121890000Y-39040000D03*
X119990000Y-39040000D03*
D30*
X107890000Y-132080000D03*
D31*
X140472219Y-91320774D03*
X140472219Y-93220774D03*
D32*
X133748000Y-40518750D03*
X133748000Y-38618750D03*
D12*
X142898000Y-111645000D03*
X141073000Y-111645000D03*
D32*
X176098000Y-74645000D03*
X176098000Y-72745000D03*
D33*
X149598000Y-46195000D03*
D34*
X155898000Y-48495000D03*
D33*
X149598000Y-48495000D03*
X149598000Y-50795000D03*
D23*
X197898000Y-66345000D03*
D24*
X199898000Y-66345000D03*
X197898000Y-68345000D03*
X199898000Y-68345000D03*
X197898000Y-70345000D03*
X199898000Y-70345000D03*
X197898000Y-72345000D03*
X199898000Y-72345000D03*
X197898000Y-74345000D03*
X199898000Y-74345000D03*
X197898000Y-76345000D03*
X199898000Y-76345000D03*
X197898000Y-78345000D03*
X199898000Y-78345000D03*
X197898000Y-80345000D03*
X199898000Y-80345000D03*
D35*
X111338000Y-78895000D03*
X111338000Y-79695000D03*
X111338000Y-80495000D03*
X111338000Y-81295000D03*
X111338000Y-82095000D03*
X111338000Y-82895000D03*
X111338000Y-83695000D03*
X111338000Y-84495000D03*
X111338000Y-85295000D03*
X111338000Y-86095000D03*
X111338000Y-86895000D03*
D36*
X113388000Y-88945000D03*
X114188000Y-88945000D03*
X114988000Y-88945000D03*
X115788000Y-88945000D03*
X116588000Y-88945000D03*
X117388000Y-88945000D03*
X118188000Y-88945000D03*
X118988000Y-88945000D03*
X119788000Y-88945000D03*
X120588000Y-88945000D03*
X121388000Y-88945000D03*
D35*
X123438000Y-86895000D03*
X123438000Y-86095000D03*
X123438000Y-85295000D03*
X123438000Y-84495000D03*
X123438000Y-83695000D03*
X123438000Y-82895000D03*
X123438000Y-82095000D03*
X123438000Y-81295000D03*
X123438000Y-80495000D03*
X123438000Y-79695000D03*
X123438000Y-78895000D03*
D36*
X121388000Y-76845000D03*
X120588000Y-76845000D03*
X119788000Y-76845000D03*
X118988000Y-76845000D03*
X118188000Y-76845000D03*
X117388000Y-76845000D03*
X116588000Y-76845000D03*
X115788000Y-76845000D03*
X114988000Y-76845000D03*
X114188000Y-76845000D03*
X113388000Y-76845000D03*
D25*
X166250000Y-45367500D03*
X166250000Y-47192500D03*
D23*
X179250000Y-52900000D03*
D24*
X179250000Y-54900000D03*
X179250000Y-56900000D03*
X179250000Y-58900000D03*
X179250000Y-60900000D03*
D10*
X108698000Y-122335000D03*
X110598000Y-122335000D03*
X123830000Y-39040000D03*
X125730000Y-39040000D03*
D37*
X116442888Y-56855000D03*
D38*
X118942888Y-56855000D03*
D36*
X188598005Y-71894988D03*
X187798005Y-71894988D03*
X186998005Y-71894988D03*
X186198005Y-71894988D03*
X185398005Y-71894988D03*
X184598005Y-71894988D03*
X183798005Y-71894988D03*
X182998005Y-71894988D03*
X182198005Y-71894988D03*
X181398005Y-71894988D03*
X180598005Y-71894988D03*
D35*
X178548005Y-73944988D03*
X178548005Y-74744988D03*
X178548005Y-75544988D03*
X178548005Y-76344988D03*
X178548005Y-77144988D03*
X178548005Y-77944988D03*
X178548005Y-78744988D03*
X178548005Y-79544988D03*
X178548005Y-80344988D03*
X178548005Y-81144988D03*
X178548005Y-81944988D03*
D36*
X180598005Y-83994988D03*
X181398005Y-83994988D03*
X182198005Y-83994988D03*
X182998005Y-83994988D03*
X183798005Y-83994988D03*
X184598005Y-83994988D03*
X185398005Y-83994988D03*
X186198005Y-83994988D03*
X186998005Y-83994988D03*
X187798005Y-83994988D03*
X188598005Y-83994988D03*
D35*
X190648005Y-81944988D03*
X190648005Y-81144988D03*
X190648005Y-80344988D03*
X190648005Y-79544988D03*
X190648005Y-78744988D03*
X190648005Y-77944988D03*
X190648005Y-77144988D03*
X190648005Y-76344988D03*
X190648005Y-75544988D03*
X190648005Y-74744988D03*
X190648005Y-73944988D03*
D11*
X120885500Y-132845000D03*
X122710500Y-132845000D03*
D39*
X179598000Y-113432500D03*
X178948000Y-113432500D03*
X178298000Y-113432500D03*
X177648000Y-113432500D03*
X176998000Y-113432500D03*
X176348000Y-113432500D03*
X175698000Y-113432500D03*
X175698000Y-119157500D03*
X176348000Y-119157500D03*
X176998000Y-119157500D03*
X177648000Y-119157500D03*
X178298000Y-119157500D03*
X178948000Y-119157500D03*
X179598000Y-119157500D03*
D40*
X123758000Y-60535000D03*
X121883000Y-60535000D03*
D12*
X142898000Y-109045000D03*
X141073000Y-109045000D03*
X119905500Y-97535000D03*
X118080500Y-97535000D03*
D41*
X176813000Y-40195331D03*
X151813000Y-40195331D03*
D37*
X159998000Y-42245331D03*
D38*
X162288000Y-42245331D03*
X164578000Y-42245331D03*
X166868000Y-42245331D03*
X169158000Y-42245331D03*
X158853000Y-40265331D03*
X161143000Y-40265331D03*
X163433000Y-40265331D03*
X165723000Y-40265331D03*
X168013000Y-40265331D03*
X159998000Y-38285331D03*
X162288000Y-38285331D03*
X164578000Y-38285331D03*
X166868000Y-38285331D03*
X169158000Y-38285331D03*
D25*
X168500000Y-45367500D03*
X168500000Y-47192500D03*
D12*
X142898000Y-101445000D03*
X141073000Y-101445000D03*
D25*
X164190000Y-45367500D03*
X164190000Y-47192500D03*
D23*
X106798000Y-87885000D03*
D24*
X106798000Y-85885000D03*
X106798000Y-83885000D03*
X106798000Y-81885000D03*
X106798000Y-79885000D03*
X106798000Y-77885000D03*
D31*
X143272219Y-91320774D03*
X143272219Y-93220774D03*
D23*
X197898000Y-90095000D03*
D24*
X199898000Y-90095000D03*
X197898000Y-92095000D03*
X199898000Y-92095000D03*
X197898000Y-94095000D03*
X199898000Y-94095000D03*
X197898000Y-96095000D03*
X199898000Y-96095000D03*
X197898000Y-98095000D03*
X199898000Y-98095000D03*
X197898000Y-100095000D03*
X199898000Y-100095000D03*
X197898000Y-102095000D03*
X199898000Y-102095000D03*
X197898000Y-104095000D03*
X199898000Y-104095000D03*
X197898000Y-106095000D03*
X199898000Y-106095000D03*
X197898000Y-108095000D03*
X199898000Y-108095000D03*
X197898000Y-110095000D03*
X199898000Y-110095000D03*
X197898000Y-112095000D03*
X199898000Y-112095000D03*
X197898000Y-114095000D03*
X199898000Y-114095000D03*
X197898000Y-116095000D03*
X199898000Y-116095000D03*
X197898000Y-118095000D03*
X199898000Y-118095000D03*
X197898000Y-120095000D03*
X199898000Y-120095000D03*
D42*
X127738000Y-72542500D03*
X129008000Y-72542500D03*
X130278000Y-72542500D03*
X131548000Y-72542500D03*
X132818000Y-72542500D03*
X134088000Y-72542500D03*
X135358000Y-72542500D03*
X135358000Y-67592500D03*
X134088000Y-67592500D03*
X132818000Y-67592500D03*
X131548000Y-67592500D03*
X130278000Y-67592500D03*
X129008000Y-67592500D03*
X127738000Y-67592500D03*
D25*
X163998000Y-129632500D03*
X163998000Y-131457500D03*
D12*
X142898000Y-121845000D03*
X141073000Y-121845000D03*
X142898000Y-124645000D03*
X141073000Y-124645000D03*
D43*
X186523000Y-62195000D03*
X187173000Y-62195000D03*
X187823000Y-62195000D03*
X188473000Y-62195000D03*
X189123000Y-62195000D03*
X189773000Y-62195000D03*
X190423000Y-62195000D03*
X191073000Y-62195000D03*
X191723000Y-62195000D03*
X192373000Y-62195000D03*
X193023000Y-62195000D03*
X193673000Y-62195000D03*
X194323000Y-62195000D03*
X194973000Y-62195000D03*
X194973000Y-54995000D03*
X194323000Y-54995000D03*
X193673000Y-54995000D03*
X193023000Y-54995000D03*
X192373000Y-54995000D03*
X191723000Y-54995000D03*
X191073000Y-54995000D03*
X190423000Y-54995000D03*
X189773000Y-54995000D03*
X189123000Y-54995000D03*
X188473000Y-54995000D03*
X187823000Y-54995000D03*
X187173000Y-54995000D03*
X186523000Y-54995000D03*
D29*
X151092219Y-55945000D03*
X149192219Y-55945000D03*
D12*
X142898000Y-106545000D03*
X141073000Y-106545000D03*
D25*
X174770000Y-45367500D03*
X174770000Y-47192500D03*
D30*
X201480000Y-132090000D03*
D28*
X109048000Y-100137500D03*
X109048000Y-98312500D03*
X111298000Y-100137500D03*
X111298000Y-98312500D03*
D12*
X176440000Y-53580000D03*
X174615000Y-53580000D03*
X123745500Y-62945000D03*
X121920500Y-62945000D03*
D32*
X146942226Y-47545000D03*
X146942226Y-45645000D03*
D29*
X183700000Y-50380000D03*
X181800000Y-50380000D03*
D25*
X168598000Y-129632500D03*
X168598000Y-131457500D03*
D10*
X139485500Y-46768750D03*
X141385500Y-46768750D03*
X174577500Y-56900000D03*
X176477500Y-56900000D03*
X174577500Y-50350000D03*
X176477500Y-50350000D03*
D20*
X118098000Y-119105000D03*
X118098000Y-117835000D03*
X118098000Y-116565000D03*
X118098000Y-115295000D03*
X118098000Y-114025000D03*
X118098000Y-112755000D03*
X118098000Y-111485000D03*
X118098000Y-110215000D03*
X118098000Y-108945000D03*
X118098000Y-107675000D03*
X118098000Y-106405000D03*
X118098000Y-105135000D03*
X118098000Y-103865000D03*
X118098000Y-102595000D03*
X108798000Y-102595000D03*
X108798000Y-103865000D03*
X108798000Y-105135000D03*
X108798000Y-106405000D03*
X108798000Y-107675000D03*
X108798000Y-108945000D03*
X108798000Y-110215000D03*
X108798000Y-111485000D03*
X108798000Y-112755000D03*
X108798000Y-114025000D03*
X108798000Y-115295000D03*
X108798000Y-116565000D03*
X108798000Y-117835000D03*
X108798000Y-119105000D03*
D44*
X162340000Y-62590000D03*
X163140000Y-62590000D03*
X163940000Y-62590000D03*
X164740000Y-62590000D03*
X165540000Y-62590000D03*
X166340000Y-62590000D03*
X167140000Y-62590000D03*
X167940000Y-62590000D03*
X168740000Y-62590000D03*
X169540000Y-62590000D03*
X170340000Y-62590000D03*
D45*
X172040000Y-60890000D03*
X172040000Y-60090000D03*
X172040000Y-59290000D03*
X172040000Y-58490000D03*
X172040000Y-57690000D03*
X172040000Y-56890000D03*
X172040000Y-56090000D03*
X172040000Y-55290000D03*
X172040000Y-54490000D03*
X172040000Y-53690000D03*
X172040000Y-52890000D03*
D44*
X170340000Y-51190000D03*
X169540000Y-51190000D03*
X168740000Y-51190000D03*
X167940000Y-51190000D03*
X167140000Y-51190000D03*
X166340000Y-51190000D03*
X165540000Y-51190000D03*
X164740000Y-51190000D03*
X163940000Y-51190000D03*
X163140000Y-51190000D03*
X162340000Y-51190000D03*
D45*
X160640000Y-52890000D03*
X160640000Y-53690000D03*
X160640000Y-54490000D03*
X160640000Y-55290000D03*
X160640000Y-56090000D03*
X160640000Y-56890000D03*
X160640000Y-57690000D03*
X160640000Y-58490000D03*
X160640000Y-59290000D03*
X160640000Y-60090000D03*
X160640000Y-60890000D03*
D38*
X113018000Y-38685000D03*
D46*
X113018000Y-47685000D03*
D47*
X113018000Y-41685000D03*
D48*
X117518000Y-40685000D03*
X108518000Y-40685000D03*
D19*
X145198000Y-63989226D03*
X138698000Y-63989226D03*
X138698000Y-59489226D03*
X145198000Y-59489226D03*
D33*
X112948000Y-56865000D03*
D34*
X106648000Y-54565000D03*
D33*
X112948000Y-54565000D03*
X112948000Y-52265000D03*
D25*
X166298000Y-129632500D03*
X166298000Y-131457500D03*
D32*
X144798000Y-47545000D03*
X144798000Y-45645000D03*
D12*
X142898000Y-114245000D03*
X141073000Y-114245000D03*
D25*
X170520000Y-45367500D03*
X170520000Y-47192500D03*
D12*
X142898000Y-98945000D03*
X141073000Y-98945000D03*
D30*
X201490000Y-38200000D03*
D23*
X134648000Y-58818750D03*
D24*
X134648000Y-60818750D03*
X132648000Y-58818750D03*
X132648000Y-60818750D03*
X130648000Y-58818750D03*
X130648000Y-60818750D03*
D28*
X106770500Y-100137500D03*
X106770500Y-98312500D03*
D49*
X133698000Y-50181250D03*
X134348000Y-50181250D03*
X134998000Y-50181250D03*
X135648000Y-50181250D03*
X136298000Y-50181250D03*
X136948000Y-50181250D03*
X137598000Y-50181250D03*
X137598000Y-44456250D03*
X136948000Y-44456250D03*
X136298000Y-44456250D03*
X135648000Y-44456250D03*
X134998000Y-44456250D03*
X134348000Y-44456250D03*
X133698000Y-44456250D03*
D30*
X144230000Y-38160000D03*
D12*
X142898000Y-116745000D03*
X141073000Y-116745000D03*
X119905500Y-95155000D03*
X118080500Y-95155000D03*
D10*
X171860000Y-64780000D03*
X173760000Y-64780000D03*
D12*
X141348000Y-48868750D03*
X139523000Y-48868750D03*
D10*
X113888000Y-91795000D03*
X115788000Y-91795000D03*
D32*
X160090000Y-48460000D03*
X160090000Y-46560000D03*
D50*
X193098000Y-48395000D03*
X190598000Y-48395000D03*
X188598000Y-48395000D03*
X186098000Y-48395000D03*
D30*
X183028000Y-44715000D03*
X196168000Y-44715000D03*
D10*
X115498000Y-52235000D03*
X117398000Y-52235000D03*
D12*
X119905500Y-99965000D03*
X118080500Y-99965000D03*
D28*
X115800500Y-100137500D03*
X115800500Y-98312500D03*
D31*
X146948000Y-50745000D03*
X146948000Y-52645000D03*
D37*
X121908000Y-51155000D03*
D38*
X129528000Y-51155000D03*
X129528000Y-43535000D03*
X121908000Y-43535000D03*
M02*
