G04 #@! TF.GenerationSoftware,KiCad,Pcbnew,7.0.7*
G04 #@! TF.CreationDate,2023-08-20T18:16:14+05:30*
G04 #@! TF.ProjectId,8puter,38707574-6572-42e6-9b69-6361645f7063,rev?*
G04 #@! TF.SameCoordinates,Original*
G04 #@! TF.FileFunction,Paste,Top*
G04 #@! TF.FilePolarity,Positive*
%FSLAX46Y46*%
G04 Gerber Fmt 4.6, Leading zero omitted, Abs format (unit mm)*
G04 Created by KiCad (PCBNEW 7.0.7) date 2023-08-20 18:16:14*
%MOMM*%
%LPD*%
G01*
G04 APERTURE LIST*
G04 Aperture macros list*
%AMRoundRect*
0 Rectangle with rounded corners*
0 $1 Rounding radius*
0 $2 $3 $4 $5 $6 $7 $8 $9 X,Y pos of 4 corners*
0 Add a 4 corners polygon primitive as box body*
4,1,4,$2,$3,$4,$5,$6,$7,$8,$9,$2,$3,0*
0 Add four circle primitives for the rounded corners*
1,1,$1+$1,$2,$3*
1,1,$1+$1,$4,$5*
1,1,$1+$1,$6,$7*
1,1,$1+$1,$8,$9*
0 Add four rect primitives between the rounded corners*
20,1,$1+$1,$2,$3,$4,$5,0*
20,1,$1+$1,$4,$5,$6,$7,0*
20,1,$1+$1,$6,$7,$8,$9,0*
20,1,$1+$1,$8,$9,$2,$3,0*%
G04 Aperture macros list end*
%ADD10RoundRect,0.250000X-0.250000X-0.475000X0.250000X-0.475000X0.250000X0.475000X-0.250000X0.475000X0*%
%ADD11RoundRect,0.250000X-0.262500X-0.450000X0.262500X-0.450000X0.262500X0.450000X-0.262500X0.450000X0*%
%ADD12RoundRect,0.250000X0.262500X0.450000X-0.262500X0.450000X-0.262500X-0.450000X0.262500X-0.450000X0*%
%ADD13R,1.100000X0.850000*%
%ADD14R,1.100000X0.750000*%
%ADD15R,1.000000X1.200000*%
%ADD16R,1.350000X1.550000*%
%ADD17R,1.350000X1.900000*%
%ADD18R,1.800000X1.170000*%
%ADD19RoundRect,0.150000X0.875000X0.150000X-0.875000X0.150000X-0.875000X-0.150000X0.875000X-0.150000X0*%
%ADD20R,1.000000X0.700000*%
%ADD21R,0.600000X0.700000*%
%ADD22RoundRect,0.250000X-0.450000X0.262500X-0.450000X-0.262500X0.450000X-0.262500X0.450000X0.262500X0*%
%ADD23RoundRect,0.250000X0.250000X0.475000X-0.250000X0.475000X-0.250000X-0.475000X0.250000X-0.475000X0*%
%ADD24RoundRect,0.250000X0.475000X-0.250000X0.475000X0.250000X-0.475000X0.250000X-0.475000X-0.250000X0*%
%ADD25R,2.000000X1.500000*%
%ADD26R,2.000000X3.800000*%
%ADD27R,1.500000X0.520000*%
%ADD28R,0.520000X1.500000*%
%ADD29RoundRect,0.100000X-0.100000X0.637500X-0.100000X-0.637500X0.100000X-0.637500X0.100000X0.637500X0*%
%ADD30RoundRect,0.243750X0.243750X0.456250X-0.243750X0.456250X-0.243750X-0.456250X0.243750X-0.456250X0*%
%ADD31RoundRect,0.150000X0.150000X-0.825000X0.150000X0.825000X-0.150000X0.825000X-0.150000X-0.825000X0*%
%ADD32R,0.450000X1.750000*%
%ADD33R,0.550000X1.500000*%
%ADD34R,1.500000X0.550000*%
%ADD35RoundRect,0.100000X0.100000X-0.637500X0.100000X0.637500X-0.100000X0.637500X-0.100000X-0.637500X0*%
%ADD36R,1.250000X3.000000*%
%ADD37RoundRect,0.250000X-0.475000X0.250000X-0.475000X-0.250000X0.475000X-0.250000X0.475000X0.250000X0*%
G04 APERTURE END LIST*
D10*
X128902000Y-122215000D03*
X130802000Y-122215000D03*
D11*
X139425000Y-50923750D03*
X141250000Y-50923750D03*
D12*
X152887781Y-116713000D03*
X151062781Y-116713000D03*
D13*
X105897000Y-71750000D03*
X105897000Y-70650000D03*
X105897000Y-69550000D03*
X105897000Y-68450000D03*
X105897000Y-67350000D03*
X105897000Y-66250000D03*
X105897000Y-65150000D03*
D14*
X105897000Y-64100000D03*
D15*
X112047000Y-74385000D03*
X115747000Y-74385000D03*
D16*
X106022000Y-74210000D03*
D17*
X116722000Y-70885000D03*
X116722000Y-64915000D03*
D18*
X106247000Y-62890000D03*
D19*
X138202000Y-119000000D03*
X138202000Y-117730000D03*
X138202000Y-116460000D03*
X138202000Y-115190000D03*
X138202000Y-113920000D03*
X138202000Y-112650000D03*
X138202000Y-111380000D03*
X138202000Y-110110000D03*
X138202000Y-108840000D03*
X138202000Y-107570000D03*
X138202000Y-106300000D03*
X138202000Y-105030000D03*
X138202000Y-103760000D03*
X138202000Y-102490000D03*
X128902000Y-102490000D03*
X128902000Y-103760000D03*
X128902000Y-105030000D03*
X128902000Y-106300000D03*
X128902000Y-107570000D03*
X128902000Y-108840000D03*
X128902000Y-110110000D03*
X128902000Y-111380000D03*
X128902000Y-112650000D03*
X128902000Y-113920000D03*
X128902000Y-115190000D03*
X128902000Y-116460000D03*
X128902000Y-117730000D03*
X128902000Y-119000000D03*
D20*
X154050005Y-56199988D03*
D21*
X155750005Y-56199988D03*
X155750005Y-54199988D03*
X153850005Y-54199988D03*
D22*
X161600000Y-129575000D03*
X161600000Y-131400000D03*
D12*
X152887781Y-101473000D03*
X151062781Y-101473000D03*
X151083000Y-93726000D03*
X152908000Y-93726000D03*
D11*
X112117500Y-96491277D03*
X113942500Y-96491277D03*
D22*
X172682000Y-45322500D03*
X172682000Y-47147500D03*
D12*
X109552500Y-109689200D03*
X107727500Y-109689200D03*
D23*
X121730000Y-38600000D03*
X119830000Y-38600000D03*
X152908000Y-88386000D03*
X151008000Y-88386000D03*
D24*
X133650000Y-40473750D03*
X133650000Y-38573750D03*
D12*
X152887781Y-108966000D03*
X151062781Y-108966000D03*
D24*
X176000000Y-74600000D03*
X176000000Y-72700000D03*
D25*
X149500000Y-46150000D03*
X149500000Y-48450000D03*
D26*
X155800000Y-48450000D03*
D25*
X149500000Y-50750000D03*
D27*
X116192000Y-78795000D03*
X116192000Y-79595000D03*
X116192000Y-80395000D03*
X116192000Y-81195000D03*
X116192000Y-81995000D03*
X116192000Y-82795000D03*
X116192000Y-83595000D03*
X116192000Y-84395000D03*
X116192000Y-85195000D03*
X116192000Y-85995000D03*
X116192000Y-86795000D03*
D28*
X118242000Y-88845000D03*
X119042000Y-88845000D03*
X119842000Y-88845000D03*
X120642000Y-88845000D03*
X121442000Y-88845000D03*
X122242000Y-88845000D03*
X123042000Y-88845000D03*
X123842000Y-88845000D03*
X124642000Y-88845000D03*
X125442000Y-88845000D03*
X126242000Y-88845000D03*
D27*
X128292000Y-86795000D03*
X128292000Y-85995000D03*
X128292000Y-85195000D03*
X128292000Y-84395000D03*
X128292000Y-83595000D03*
X128292000Y-82795000D03*
X128292000Y-81995000D03*
X128292000Y-81195000D03*
X128292000Y-80395000D03*
X128292000Y-79595000D03*
X128292000Y-78795000D03*
D28*
X126242000Y-76745000D03*
X125442000Y-76745000D03*
X124642000Y-76745000D03*
X123842000Y-76745000D03*
X123042000Y-76745000D03*
X122242000Y-76745000D03*
X121442000Y-76745000D03*
X120642000Y-76745000D03*
X119842000Y-76745000D03*
X119042000Y-76745000D03*
X118242000Y-76745000D03*
D22*
X166152000Y-45322500D03*
X166152000Y-47147500D03*
D10*
X113552000Y-122235000D03*
X115452000Y-122235000D03*
X123670000Y-38600000D03*
X125570000Y-38600000D03*
D28*
X188500005Y-71849988D03*
X187700005Y-71849988D03*
X186900005Y-71849988D03*
X186100005Y-71849988D03*
X185300005Y-71849988D03*
X184500005Y-71849988D03*
X183700005Y-71849988D03*
X182900005Y-71849988D03*
X182100005Y-71849988D03*
X181300005Y-71849988D03*
X180500005Y-71849988D03*
D27*
X178450005Y-73899988D03*
X178450005Y-74699988D03*
X178450005Y-75499988D03*
X178450005Y-76299988D03*
X178450005Y-77099988D03*
X178450005Y-77899988D03*
X178450005Y-78699988D03*
X178450005Y-79499988D03*
X178450005Y-80299988D03*
X178450005Y-81099988D03*
X178450005Y-81899988D03*
D28*
X180500005Y-83949988D03*
X181300005Y-83949988D03*
X182100005Y-83949988D03*
X182900005Y-83949988D03*
X183700005Y-83949988D03*
X184500005Y-83949988D03*
X185300005Y-83949988D03*
X186100005Y-83949988D03*
X186900005Y-83949988D03*
X187700005Y-83949988D03*
X188500005Y-83949988D03*
D27*
X190550005Y-81899988D03*
X190550005Y-81099988D03*
X190550005Y-80299988D03*
X190550005Y-79499988D03*
X190550005Y-78699988D03*
X190550005Y-77899988D03*
X190550005Y-77099988D03*
X190550005Y-76299988D03*
X190550005Y-75499988D03*
X190550005Y-74699988D03*
X190550005Y-73899988D03*
D11*
X125172500Y-132730000D03*
X126997500Y-132730000D03*
D29*
X179500000Y-113387500D03*
X178850000Y-113387500D03*
X178200000Y-113387500D03*
X177550000Y-113387500D03*
X176900000Y-113387500D03*
X176250000Y-113387500D03*
X175600000Y-113387500D03*
X175600000Y-119112500D03*
X176250000Y-119112500D03*
X176900000Y-119112500D03*
X177550000Y-119112500D03*
X178200000Y-119112500D03*
X178850000Y-119112500D03*
X179500000Y-119112500D03*
D30*
X123660000Y-60490000D03*
X121785000Y-60490000D03*
D12*
X152887781Y-106553000D03*
X151062781Y-106553000D03*
X124759500Y-97435000D03*
X122934500Y-97435000D03*
D22*
X168402000Y-45322500D03*
X168402000Y-47147500D03*
D12*
X151083000Y-98933000D03*
X152908000Y-98933000D03*
D22*
X164092000Y-45322500D03*
X164092000Y-47147500D03*
D12*
X140602500Y-71350000D03*
X138777500Y-71350000D03*
D23*
X152908000Y-91186000D03*
X151008000Y-91186000D03*
D31*
X127640000Y-72497500D03*
X128910000Y-72497500D03*
X130180000Y-72497500D03*
X131450000Y-72497500D03*
X132720000Y-72497500D03*
X133990000Y-72497500D03*
X135260000Y-72497500D03*
X135260000Y-67547500D03*
X133990000Y-67547500D03*
X132720000Y-67547500D03*
X131450000Y-67547500D03*
X130180000Y-67547500D03*
X128910000Y-67547500D03*
X127640000Y-67547500D03*
D22*
X163900000Y-129587500D03*
X163900000Y-131412500D03*
D12*
X152887781Y-119253000D03*
X151062781Y-119253000D03*
X152887781Y-121793000D03*
X151062781Y-121793000D03*
D32*
X186425000Y-62150000D03*
X187075000Y-62150000D03*
X187725000Y-62150000D03*
X188375000Y-62150000D03*
X189025000Y-62150000D03*
X189675000Y-62150000D03*
X190325000Y-62150000D03*
X190975000Y-62150000D03*
X191625000Y-62150000D03*
X192275000Y-62150000D03*
X192925000Y-62150000D03*
X193575000Y-62150000D03*
X194225000Y-62150000D03*
X194875000Y-62150000D03*
X194875000Y-54950000D03*
X194225000Y-54950000D03*
X193575000Y-54950000D03*
X192925000Y-54950000D03*
X192275000Y-54950000D03*
X191625000Y-54950000D03*
X190975000Y-54950000D03*
X190325000Y-54950000D03*
X189675000Y-54950000D03*
X189025000Y-54950000D03*
X188375000Y-54950000D03*
X187725000Y-54950000D03*
X187075000Y-54950000D03*
X186425000Y-54950000D03*
D23*
X150994219Y-55900000D03*
X149094219Y-55900000D03*
D12*
X152887781Y-104013000D03*
X151062781Y-104013000D03*
D11*
X112137500Y-94040000D03*
X113962500Y-94040000D03*
D22*
X174672000Y-45322500D03*
X174672000Y-47147500D03*
D12*
X109552500Y-103040000D03*
X107727500Y-103040000D03*
X109552500Y-106360000D03*
X107727500Y-106360000D03*
X176342000Y-53535000D03*
X174517000Y-53535000D03*
X123647500Y-62900000D03*
X121822500Y-62900000D03*
D24*
X146844226Y-47500000D03*
X146844226Y-45600000D03*
D23*
X186940000Y-52810000D03*
X185040000Y-52810000D03*
D12*
X140600000Y-69100000D03*
X138775000Y-69100000D03*
D22*
X168500000Y-129587500D03*
X168500000Y-131412500D03*
D10*
X139387500Y-46723750D03*
X141287500Y-46723750D03*
X174479500Y-56855000D03*
X176379500Y-56855000D03*
X174479500Y-50305000D03*
X176379500Y-50305000D03*
D19*
X122952000Y-119005000D03*
X122952000Y-117735000D03*
X122952000Y-116465000D03*
X122952000Y-115195000D03*
X122952000Y-113925000D03*
X122952000Y-112655000D03*
X122952000Y-111385000D03*
X122952000Y-110115000D03*
X122952000Y-108845000D03*
X122952000Y-107575000D03*
X122952000Y-106305000D03*
X122952000Y-105035000D03*
X122952000Y-103765000D03*
X122952000Y-102495000D03*
X113652000Y-102495000D03*
X113652000Y-103765000D03*
X113652000Y-105035000D03*
X113652000Y-106305000D03*
X113652000Y-107575000D03*
X113652000Y-108845000D03*
X113652000Y-110115000D03*
X113652000Y-111385000D03*
X113652000Y-112655000D03*
X113652000Y-113925000D03*
X113652000Y-115195000D03*
X113652000Y-116465000D03*
X113652000Y-117735000D03*
X113652000Y-119005000D03*
D33*
X162242000Y-62545000D03*
X163042000Y-62545000D03*
X163842000Y-62545000D03*
X164642000Y-62545000D03*
X165442000Y-62545000D03*
X166242000Y-62545000D03*
X167042000Y-62545000D03*
X167842000Y-62545000D03*
X168642000Y-62545000D03*
X169442000Y-62545000D03*
X170242000Y-62545000D03*
D34*
X171942000Y-60845000D03*
X171942000Y-60045000D03*
X171942000Y-59245000D03*
X171942000Y-58445000D03*
X171942000Y-57645000D03*
X171942000Y-56845000D03*
X171942000Y-56045000D03*
X171942000Y-55245000D03*
X171942000Y-54445000D03*
X171942000Y-53645000D03*
X171942000Y-52845000D03*
D33*
X170242000Y-51145000D03*
X169442000Y-51145000D03*
X168642000Y-51145000D03*
X167842000Y-51145000D03*
X167042000Y-51145000D03*
X166242000Y-51145000D03*
X165442000Y-51145000D03*
X164642000Y-51145000D03*
X163842000Y-51145000D03*
X163042000Y-51145000D03*
X162242000Y-51145000D03*
D34*
X160542000Y-52845000D03*
X160542000Y-53645000D03*
X160542000Y-54445000D03*
X160542000Y-55245000D03*
X160542000Y-56045000D03*
X160542000Y-56845000D03*
X160542000Y-57645000D03*
X160542000Y-58445000D03*
X160542000Y-59245000D03*
X160542000Y-60045000D03*
X160542000Y-60845000D03*
D25*
X112850000Y-56820000D03*
X112850000Y-54520000D03*
D26*
X106550000Y-54520000D03*
D25*
X112850000Y-52220000D03*
D22*
X166200000Y-129587500D03*
X166200000Y-131412500D03*
D24*
X144700000Y-47500000D03*
X144700000Y-45600000D03*
D12*
X152887781Y-111633000D03*
X151062781Y-111633000D03*
D22*
X170422000Y-45322500D03*
X170422000Y-47147500D03*
D12*
X151083000Y-96393000D03*
X152908000Y-96393000D03*
X109552500Y-99770000D03*
X107727500Y-99770000D03*
D35*
X133600000Y-50136250D03*
X134250000Y-50136250D03*
X134900000Y-50136250D03*
X135550000Y-50136250D03*
X136200000Y-50136250D03*
X136850000Y-50136250D03*
X137500000Y-50136250D03*
X137500000Y-44411250D03*
X136850000Y-44411250D03*
X136200000Y-44411250D03*
X135550000Y-44411250D03*
X134900000Y-44411250D03*
X134250000Y-44411250D03*
X133600000Y-44411250D03*
D12*
X152887781Y-114173000D03*
X151062781Y-114173000D03*
X124759500Y-95055000D03*
X122934500Y-95055000D03*
D10*
X171762000Y-64735000D03*
X173662000Y-64735000D03*
D12*
X141250000Y-48823750D03*
X139425000Y-48823750D03*
D10*
X118742000Y-91695000D03*
X120642000Y-91695000D03*
D24*
X159992000Y-48415000D03*
X159992000Y-46515000D03*
D36*
X192975001Y-49214999D03*
X190475001Y-49214999D03*
X188475001Y-49214999D03*
X185975001Y-49214999D03*
D10*
X115400000Y-52190000D03*
X117300000Y-52190000D03*
D12*
X124759500Y-99865000D03*
X122934500Y-99865000D03*
X109552500Y-113015754D03*
X107727500Y-113015754D03*
D37*
X146850000Y-50700000D03*
X146850000Y-52600000D03*
M02*
