%TF.GenerationSoftware,KiCad,Pcbnew,7.0.7*%
%TF.CreationDate,2023-08-20T18:16:21+05:30*%
%TF.ProjectId,8puter,38707574-6572-42e6-9b69-6361645f7063,rev?*%
%TF.SameCoordinates,Original*%
%TF.FileFunction,Drillmap*%
%TF.FilePolarity,Positive*%
%FSLAX45Y45*%
G04 Gerber Fmt 4.5, Leading zero omitted, Abs format (unit mm)*
G04 Created by KiCad (PCBNEW 7.0.7) date 2023-08-20 18:16:21*
%MOMM*%
%LPD*%
G01*
G04 APERTURE LIST*
%ADD10C,0.050000*%
%ADD11C,0.200000*%
%ADD12C,0.030000*%
%ADD13C,0.040000*%
%ADD14C,0.080000*%
%ADD15C,0.100000*%
%ADD16C,0.110000*%
%ADD17C,0.230000*%
%ADD18C,0.320000*%
G04 APERTURE END LIST*
D10*
X20460000Y-3710000D02*
X20460000Y-13310000D01*
X10660000Y-3510000D02*
G75*
G03*
X10460000Y-3710000I0J-200000D01*
G01*
X10460000Y-13310000D02*
G75*
G03*
X10660000Y-13510000I200000J0D01*
G01*
X20258579Y-13510000D02*
X10660000Y-13510000D01*
X10660000Y-3510000D02*
X20260000Y-3510000D01*
X20460000Y-3710000D02*
G75*
G03*
X20260000Y-3510000I-200000J0D01*
G01*
X10460000Y-13310000D02*
X10460000Y-3710000D01*
X20258579Y-13509995D02*
G75*
G03*
X20460000Y-13310000I11J201415D01*
G01*
D11*
D12*
X10729700Y-6829500D02*
X10759700Y-6859500D01*
X10759700Y-6829500D02*
X10729700Y-6859500D01*
X11141200Y-12944500D02*
X11171200Y-12974500D01*
X11171200Y-12944500D02*
X11141200Y-12974500D01*
X11205200Y-12675500D02*
X11235200Y-12705500D01*
X11235200Y-12675500D02*
X11205200Y-12705500D01*
X11348200Y-6635500D02*
X11378200Y-6665500D01*
X11378200Y-6635500D02*
X11348200Y-6665500D01*
X11348200Y-6889500D02*
X11378200Y-6919500D01*
X11378200Y-6889500D02*
X11348200Y-6919500D01*
X11349200Y-6804500D02*
X11379200Y-6834500D01*
X11379200Y-6804500D02*
X11349200Y-6834500D01*
X11349700Y-6720000D02*
X11379700Y-6750000D01*
X11379700Y-6720000D02*
X11349700Y-6750000D01*
X11525200Y-10357000D02*
X11555200Y-10387000D01*
X11555200Y-10357000D02*
X11525200Y-10387000D01*
X11525200Y-10487000D02*
X11555200Y-10517000D01*
X11555200Y-10487000D02*
X11525200Y-10517000D01*
X11525200Y-10739500D02*
X11555200Y-10769500D01*
X11555200Y-10739500D02*
X11525200Y-10769500D01*
X11527200Y-10234500D02*
X11557200Y-10264500D01*
X11557200Y-10234500D02*
X11527200Y-10264500D01*
X11527700Y-10614500D02*
X11557700Y-10644500D01*
X11557700Y-10614500D02*
X11527700Y-10644500D01*
X11534200Y-11755500D02*
X11564200Y-11785500D01*
X11564200Y-11755500D02*
X11534200Y-11785500D01*
X11661200Y-12750500D02*
X11691200Y-12780500D01*
X11691200Y-12750500D02*
X11661200Y-12780500D01*
X11740200Y-12396500D02*
X11770200Y-12426500D01*
X11770200Y-12396500D02*
X11740200Y-12426500D01*
X11845200Y-12470500D02*
X11875200Y-12500500D01*
X11875200Y-12470500D02*
X11845200Y-12500500D01*
X11915200Y-12600500D02*
X11945200Y-12630500D01*
X11945200Y-12600500D02*
X11915200Y-12630500D01*
X11969577Y-7850123D02*
X11999577Y-7880123D01*
X11999577Y-7850123D02*
X11969577Y-7880123D01*
X11991200Y-4827500D02*
X12021200Y-4857500D01*
X12021200Y-4827500D02*
X11991200Y-4857500D01*
X11992200Y-4656500D02*
X12022200Y-4686500D01*
X12022200Y-4656500D02*
X11992200Y-4686500D01*
X11992200Y-4740500D02*
X12022200Y-4770500D01*
X12022200Y-4740500D02*
X11992200Y-4770500D01*
X11993200Y-4568500D02*
X12023200Y-4598500D01*
X12023200Y-4568500D02*
X11993200Y-4598500D01*
X11997200Y-12533500D02*
X12027200Y-12563500D01*
X12027200Y-12533500D02*
X11997200Y-12563500D01*
X12053200Y-7852500D02*
X12083200Y-7882500D01*
X12083200Y-7852500D02*
X12053200Y-7882500D01*
X12208200Y-9293500D02*
X12238200Y-9323500D01*
X12238200Y-9293500D02*
X12208200Y-9323500D01*
X12289200Y-9127500D02*
X12319200Y-9157500D01*
X12319200Y-9127500D02*
X12289200Y-9157500D01*
X12327200Y-4827500D02*
X12357200Y-4857500D01*
X12357200Y-4827500D02*
X12327200Y-4857500D01*
X12328200Y-4656500D02*
X12358200Y-4686500D01*
X12358200Y-4656500D02*
X12328200Y-4686500D01*
X12328200Y-4740500D02*
X12358200Y-4770500D01*
X12358200Y-4740500D02*
X12328200Y-4770500D01*
X12329200Y-4568500D02*
X12359200Y-4598500D01*
X12359200Y-4568500D02*
X12329200Y-4598500D01*
X12368200Y-9020500D02*
X12398200Y-9050500D01*
X12398200Y-9020500D02*
X12368200Y-9050500D01*
X12369200Y-7934500D02*
X12399200Y-7964500D01*
X12399200Y-7934500D02*
X12369200Y-7964500D01*
X12445200Y-11501500D02*
X12475200Y-11531500D01*
X12475200Y-11501500D02*
X12445200Y-11531500D01*
X12446200Y-11626500D02*
X12476200Y-11656500D01*
X12476200Y-11626500D02*
X12446200Y-11656500D01*
X12447200Y-10993500D02*
X12477200Y-11023500D01*
X12477200Y-10993500D02*
X12447200Y-11023500D01*
X12447200Y-11119500D02*
X12477200Y-11149500D01*
X12477200Y-11119500D02*
X12447200Y-11149500D01*
X12447200Y-11375500D02*
X12477200Y-11405500D01*
X12477200Y-11375500D02*
X12447200Y-11405500D01*
X12447200Y-12815500D02*
X12477200Y-12845500D01*
X12477200Y-12815500D02*
X12447200Y-12845500D01*
X12448200Y-11246500D02*
X12478200Y-11276500D01*
X12478200Y-11246500D02*
X12448200Y-11276500D01*
X12449200Y-10866500D02*
X12479200Y-10896500D01*
X12479200Y-10866500D02*
X12449200Y-10896500D01*
X12450200Y-10484500D02*
X12480200Y-10514500D01*
X12480200Y-10484500D02*
X12450200Y-10514500D01*
X12450200Y-10612500D02*
X12480200Y-10642500D01*
X12480200Y-10612500D02*
X12450200Y-10642500D01*
X12452200Y-10738500D02*
X12482200Y-10768500D01*
X12482200Y-10738500D02*
X12452200Y-10768500D01*
X12452700Y-10359500D02*
X12482700Y-10389500D01*
X12482700Y-10359500D02*
X12452700Y-10389500D01*
X12529200Y-8074500D02*
X12559200Y-8104500D01*
X12559200Y-8074500D02*
X12529200Y-8104500D01*
X12529200Y-8164500D02*
X12559200Y-8194500D01*
X12559200Y-8164500D02*
X12529200Y-8194500D01*
X12529200Y-8254500D02*
X12559200Y-8284500D01*
X12559200Y-8254500D02*
X12529200Y-8284500D01*
X12529200Y-8354500D02*
X12559200Y-8384500D01*
X12559200Y-8354500D02*
X12529200Y-8384500D01*
X12529200Y-8504500D02*
X12559200Y-8534500D01*
X12559200Y-8504500D02*
X12529200Y-8534500D01*
X12529200Y-8654500D02*
X12559200Y-8684500D01*
X12559200Y-8654500D02*
X12529200Y-8684500D01*
X12570000Y-6737250D02*
X12600000Y-6767250D01*
X12600000Y-6737250D02*
X12570000Y-6767250D01*
X12570000Y-7237250D02*
X12600000Y-7267250D01*
X12600000Y-7237250D02*
X12570000Y-7267250D01*
X12609200Y-8425500D02*
X12639200Y-8455500D01*
X12639200Y-8425500D02*
X12609200Y-8455500D01*
X12609200Y-8584500D02*
X12639200Y-8614500D01*
X12639200Y-8584500D02*
X12609200Y-8614500D01*
X12609200Y-8714500D02*
X12639200Y-8744500D01*
X12639200Y-8714500D02*
X12609200Y-8744500D01*
X12687200Y-13013500D02*
X12717200Y-13043500D01*
X12717200Y-13013500D02*
X12687200Y-13043500D01*
X13057700Y-10232000D02*
X13087700Y-10262000D01*
X13087700Y-10232000D02*
X13057700Y-10262000D01*
X13077700Y-10614500D02*
X13107700Y-10644500D01*
X13107700Y-10614500D02*
X13077700Y-10644500D01*
X13077700Y-10742000D02*
X13107700Y-10772000D01*
X13107700Y-10742000D02*
X13077700Y-10772000D01*
X13080200Y-10487000D02*
X13110200Y-10517000D01*
X13110200Y-10487000D02*
X13080200Y-10517000D01*
X13085200Y-10359500D02*
X13115200Y-10389500D01*
X13115200Y-10359500D02*
X13085200Y-10389500D01*
X13104200Y-8428500D02*
X13134200Y-8458500D01*
X13134200Y-8428500D02*
X13104200Y-8458500D01*
X13130000Y-7094700D02*
X13160000Y-7124700D01*
X13160000Y-7094700D02*
X13130000Y-7124700D01*
X13175200Y-8509500D02*
X13205200Y-8539500D01*
X13205200Y-8509500D02*
X13175200Y-8539500D01*
X13186000Y-4222375D02*
X13216000Y-4252375D01*
X13216000Y-4222375D02*
X13186000Y-4252375D01*
X13239200Y-8592500D02*
X13269200Y-8622500D01*
X13269200Y-8592500D02*
X13239200Y-8622500D01*
X13300200Y-8656500D02*
X13330200Y-8686500D01*
X13330200Y-8656500D02*
X13300200Y-8686500D01*
X13314200Y-12750000D02*
X13344200Y-12780000D01*
X13344200Y-12750000D02*
X13314200Y-12780000D01*
X13364400Y-8719500D02*
X13394400Y-8749500D01*
X13394400Y-8719500D02*
X13364400Y-8749500D01*
X13368150Y-12400000D02*
X13398150Y-12430000D01*
X13398150Y-12400000D02*
X13368150Y-12430000D01*
X13380000Y-6897250D02*
X13410000Y-6927250D01*
X13410000Y-6897250D02*
X13380000Y-6927250D01*
X13429200Y-12469000D02*
X13459200Y-12499000D01*
X13459200Y-12469000D02*
X13429200Y-12499000D01*
X13439200Y-8169500D02*
X13469200Y-8199500D01*
X13469200Y-8169500D02*
X13439200Y-8199500D01*
X13450000Y-5192375D02*
X13480000Y-5222375D01*
X13480000Y-5192375D02*
X13450000Y-5222375D01*
X13474200Y-4659500D02*
X13504200Y-4689500D01*
X13504200Y-4659500D02*
X13474200Y-4689500D01*
X13485000Y-12600000D02*
X13515000Y-12630000D01*
X13515000Y-12600000D02*
X13485000Y-12630000D01*
X13509200Y-8259500D02*
X13539200Y-8289500D01*
X13539200Y-8259500D02*
X13509200Y-8289500D01*
X13539150Y-12533000D02*
X13569150Y-12563000D01*
X13569150Y-12533000D02*
X13539150Y-12563000D01*
X13579200Y-8358500D02*
X13609200Y-8388500D01*
X13609200Y-8358500D02*
X13579200Y-8388500D01*
X13615200Y-10362000D02*
X13645200Y-10392000D01*
X13645200Y-10362000D02*
X13615200Y-10392000D01*
X13616200Y-11119500D02*
X13646200Y-11149500D01*
X13646200Y-11119500D02*
X13616200Y-11149500D01*
X13617200Y-10616500D02*
X13647200Y-10646500D01*
X13647200Y-10616500D02*
X13617200Y-10646500D01*
X13617200Y-10995500D02*
X13647200Y-11025500D01*
X13647200Y-10995500D02*
X13617200Y-11025500D01*
X13617700Y-10487000D02*
X13647700Y-10517000D01*
X13647700Y-10487000D02*
X13617700Y-10517000D01*
X13618200Y-10743500D02*
X13648200Y-10773500D01*
X13648200Y-10743500D02*
X13618200Y-10773500D01*
X13618200Y-10866500D02*
X13648200Y-10896500D01*
X13648200Y-10866500D02*
X13618200Y-10896500D01*
X13619200Y-12817000D02*
X13649200Y-12847000D01*
X13649200Y-12817000D02*
X13619200Y-12847000D01*
X13620200Y-11247500D02*
X13650200Y-11277500D01*
X13650200Y-11247500D02*
X13620200Y-11277500D01*
X13620200Y-11375500D02*
X13650200Y-11405500D01*
X13650200Y-11375500D02*
X13620200Y-11405500D01*
X13621200Y-11507500D02*
X13651200Y-11537500D01*
X13651200Y-11507500D02*
X13621200Y-11537500D01*
X13621200Y-11626500D02*
X13651200Y-11656500D01*
X13651200Y-11626500D02*
X13621200Y-11656500D01*
X13669000Y-4222000D02*
X13699000Y-4252000D01*
X13699000Y-4222000D02*
X13669000Y-4252000D01*
X13806200Y-12679000D02*
X13836200Y-12709000D01*
X13836200Y-12679000D02*
X13806200Y-12709000D01*
X13860000Y-4432375D02*
X13890000Y-4462375D01*
X13890000Y-4432375D02*
X13860000Y-4462375D01*
X15565200Y-5132500D02*
X15595200Y-5162500D01*
X15595200Y-5132500D02*
X15565200Y-5162500D01*
X15710000Y-6542500D02*
X15740000Y-6572500D01*
X15740000Y-6542500D02*
X15710000Y-6572500D01*
X15807000Y-6214000D02*
X15837000Y-6244000D01*
X15837000Y-6214000D02*
X15807000Y-6244000D01*
X15854200Y-7328500D02*
X15884200Y-7358500D01*
X15884200Y-7328500D02*
X15854200Y-7358500D01*
X15860000Y-11394999D02*
X15890000Y-11424999D01*
X15890000Y-11394999D02*
X15860000Y-11424999D01*
X15860000Y-12399999D02*
X15890000Y-12429999D01*
X15890000Y-12399999D02*
X15860000Y-12429999D01*
X15958200Y-8092500D02*
X15988200Y-8122500D01*
X15988200Y-8092500D02*
X15958200Y-8122500D01*
X15999500Y-11650499D02*
X16029500Y-11680499D01*
X16029500Y-11650499D02*
X15999500Y-11680499D01*
X15999500Y-12469499D02*
X16029500Y-12499499D01*
X16029500Y-12469499D02*
X15999500Y-12499499D01*
X16115000Y-7034999D02*
X16145000Y-7064999D01*
X16145000Y-7034999D02*
X16115000Y-7064999D01*
X16129500Y-11904499D02*
X16159500Y-11934499D01*
X16159500Y-11904499D02*
X16129500Y-11934499D01*
X16130000Y-12534999D02*
X16160000Y-12564999D01*
X16160000Y-12534999D02*
X16130000Y-12564999D01*
X16215000Y-6974999D02*
X16245000Y-7004999D01*
X16245000Y-6974999D02*
X16215000Y-7004999D01*
X16245000Y-12159999D02*
X16275000Y-12189999D01*
X16275000Y-12159999D02*
X16245000Y-12189999D01*
X16245000Y-12599999D02*
X16275000Y-12629999D01*
X16275000Y-12599999D02*
X16245000Y-12629999D01*
X16248200Y-5829500D02*
X16278200Y-5859500D01*
X16278200Y-5829500D02*
X16248200Y-5859500D01*
X16315000Y-6914999D02*
X16345000Y-6944999D01*
X16345000Y-6914999D02*
X16315000Y-6944999D01*
X16405000Y-12625000D02*
X16435000Y-12655000D01*
X16435000Y-12625000D02*
X16405000Y-12655000D01*
X16415000Y-6854999D02*
X16445000Y-6884999D01*
X16445000Y-6854999D02*
X16415000Y-6884999D01*
X16495000Y-6790000D02*
X16525000Y-6820000D01*
X16525000Y-6790000D02*
X16495000Y-6820000D01*
X16525000Y-12674999D02*
X16555000Y-12704999D01*
X16555000Y-12674999D02*
X16525000Y-12704999D01*
X16595000Y-6729500D02*
X16625000Y-6759500D01*
X16625000Y-6729500D02*
X16595000Y-6759500D01*
X16599200Y-4872500D02*
X16629200Y-4902500D01*
X16629200Y-4872500D02*
X16599200Y-4902500D01*
X16610000Y-12744999D02*
X16640000Y-12774999D01*
X16640000Y-12744999D02*
X16610000Y-12774999D01*
X16685000Y-6674999D02*
X16715000Y-6704999D01*
X16715000Y-6674999D02*
X16685000Y-6704999D01*
X16765000Y-6614999D02*
X16795001Y-6644999D01*
X16795001Y-6614999D02*
X16765000Y-6644999D01*
X16835000Y-12815000D02*
X16865000Y-12845000D01*
X16865000Y-12815000D02*
X16835000Y-12845000D01*
X17009200Y-5429500D02*
X17039200Y-5459500D01*
X17039200Y-5429500D02*
X17009200Y-5459500D01*
X17012200Y-5830500D02*
X17042200Y-5860500D01*
X17042200Y-5830500D02*
X17012200Y-5860500D01*
X17039200Y-5509500D02*
X17069200Y-5539500D01*
X17069200Y-5509500D02*
X17039200Y-5539500D01*
X17256200Y-6201500D02*
X17286200Y-6231500D01*
X17286200Y-6201500D02*
X17256200Y-6231500D01*
X17345000Y-11015000D02*
X17375000Y-11045000D01*
X17375000Y-11015000D02*
X17345000Y-11045000D01*
X17420000Y-7115000D02*
X17450000Y-7145000D01*
X17450000Y-7115000D02*
X17420000Y-7145000D01*
X17540200Y-7778500D02*
X17570200Y-7808500D01*
X17570200Y-7778500D02*
X17540200Y-7808500D01*
X17545000Y-12035000D02*
X17575000Y-12065000D01*
X17575000Y-12035000D02*
X17545000Y-12065000D01*
X17565000Y-8095000D02*
X17595000Y-8125000D01*
X17595000Y-8095000D02*
X17565000Y-8125000D01*
X17610000Y-11495000D02*
X17640000Y-11525000D01*
X17640000Y-11495000D02*
X17610000Y-11525000D01*
X17610000Y-11745000D02*
X17640000Y-11775000D01*
X17640000Y-11745000D02*
X17610000Y-11775000D01*
X17635000Y-7855000D02*
X17665000Y-7885000D01*
X17665000Y-7855000D02*
X17635000Y-7885000D01*
X17830001Y-10889999D02*
X17860001Y-10919999D01*
X17860001Y-10889999D02*
X17830001Y-10919999D01*
X18030001Y-10629999D02*
X18060001Y-10659999D01*
X18060001Y-10629999D02*
X18030001Y-10659999D01*
X18045000Y-10975000D02*
X18075000Y-11005000D01*
X18075000Y-10975000D02*
X18045000Y-11005000D01*
X18055000Y-12947451D02*
X18085000Y-12977451D01*
X18085000Y-12947451D02*
X18055000Y-12977451D01*
X18115000Y-7415000D02*
X18145000Y-7445000D01*
X18145000Y-7415000D02*
X18115000Y-7445000D01*
X18115001Y-10379999D02*
X18145001Y-10409999D01*
X18145001Y-10379999D02*
X18115001Y-10409999D01*
X18133200Y-13013500D02*
X18163200Y-13043500D01*
X18163200Y-13013500D02*
X18133200Y-13043500D01*
X18195000Y-7477450D02*
X18225000Y-7507450D01*
X18225000Y-7477450D02*
X18195000Y-7507450D01*
X18195001Y-10124999D02*
X18225001Y-10154999D01*
X18225001Y-10124999D02*
X18195001Y-10154999D01*
X18240000Y-7794000D02*
X18270000Y-7824000D01*
X18270000Y-7794000D02*
X18240000Y-7824000D01*
X18275000Y-7545000D02*
X18305000Y-7575000D01*
X18305000Y-7545000D02*
X18275000Y-7575000D01*
X18275001Y-9869999D02*
X18305001Y-9899999D01*
X18305001Y-9869999D02*
X18275001Y-9899999D01*
X18355000Y-7602450D02*
X18385000Y-7632450D01*
X18385000Y-7602450D02*
X18355000Y-7632450D01*
X18435000Y-7659900D02*
X18465000Y-7689900D01*
X18465000Y-7659900D02*
X18435000Y-7689900D01*
X18435001Y-9619999D02*
X18465001Y-9649999D01*
X18465001Y-9619999D02*
X18435001Y-9649999D01*
X18515001Y-9364999D02*
X18545001Y-9394999D01*
X18545001Y-9364999D02*
X18515001Y-9394999D01*
X18595000Y-7717350D02*
X18625000Y-7747350D01*
X18625000Y-7717350D02*
X18595000Y-7747350D01*
X18595001Y-9109999D02*
X18625001Y-9139999D01*
X18625001Y-9109999D02*
X18595001Y-9139999D01*
X18630050Y-6395000D02*
X18660050Y-6425000D01*
X18660050Y-6395000D02*
X18630050Y-6425000D01*
X18675000Y-6965000D02*
X18705000Y-6995000D01*
X18705000Y-6965000D02*
X18675000Y-6995000D01*
X18695000Y-6695000D02*
X18725000Y-6725000D01*
X18725000Y-6695000D02*
X18695000Y-6725000D01*
X18755000Y-6525000D02*
X18785000Y-6555000D01*
X18785000Y-6525000D02*
X18755000Y-6555000D01*
X18755000Y-6875000D02*
X18785000Y-6905000D01*
X18785000Y-6875000D02*
X18755000Y-6905000D01*
X18835000Y-6785000D02*
X18865000Y-6815000D01*
X18865000Y-6785000D02*
X18835000Y-6815000D01*
X18835001Y-9744999D02*
X18865001Y-9774999D01*
X18865001Y-9744999D02*
X18835001Y-9774999D01*
X18882500Y-5148087D02*
X18912500Y-5178087D01*
X18912500Y-5148087D02*
X18882500Y-5178087D01*
X18885000Y-6455000D02*
X18915000Y-6485000D01*
X18915000Y-6455000D02*
X18885000Y-6485000D01*
X18955000Y-5765000D02*
X18985000Y-5795000D01*
X18985000Y-5765000D02*
X18955000Y-5795000D01*
X18955000Y-6965000D02*
X18985000Y-6995000D01*
X18985000Y-6965000D02*
X18955000Y-6995000D01*
X18982500Y-5148087D02*
X19012500Y-5178087D01*
X19012500Y-5148087D02*
X18982500Y-5178087D01*
X19039000Y-9493000D02*
X19069000Y-9523000D01*
X19069000Y-9493000D02*
X19039000Y-9523000D01*
X19052500Y-12487500D02*
X19082500Y-12517500D01*
X19082500Y-12487500D02*
X19052500Y-12517500D01*
X19142550Y-6785000D02*
X19172550Y-6815000D01*
X19172550Y-6785000D02*
X19142550Y-6815000D01*
X19175000Y-9237000D02*
X19205000Y-9267000D01*
X19205000Y-9237000D02*
X19175000Y-9267000D01*
X19205000Y-6875000D02*
X19235000Y-6905000D01*
X19235000Y-6875000D02*
X19205000Y-6905000D01*
X19212550Y-5645000D02*
X19242550Y-5675000D01*
X19242550Y-5645000D02*
X19212550Y-5675000D01*
X19235000Y-8984999D02*
X19265000Y-9014999D01*
X19265000Y-8984999D02*
X19235000Y-9014999D01*
X19242000Y-12740000D02*
X19272000Y-12770000D01*
X19272000Y-12740000D02*
X19242000Y-12770000D01*
X19267450Y-6695000D02*
X19297450Y-6725000D01*
X19297450Y-6695000D02*
X19267450Y-6725000D01*
X19316000Y-12667000D02*
X19346000Y-12697000D01*
X19346000Y-12667000D02*
X19316000Y-12697000D01*
X19335000Y-6605000D02*
X19365000Y-6635000D01*
X19365000Y-6605000D02*
X19335000Y-6635000D01*
X19402500Y-5179000D02*
X19432500Y-5209000D01*
X19432500Y-5179000D02*
X19402500Y-5209000D01*
X19405000Y-6525000D02*
X19435000Y-6555000D01*
X19435000Y-6525000D02*
X19405000Y-6555000D01*
X19472500Y-5241500D02*
X19502500Y-5271500D01*
X19502500Y-5241500D02*
X19472500Y-5271500D01*
X19475000Y-6455000D02*
X19505000Y-6485000D01*
X19505000Y-6455000D02*
X19475000Y-6485000D01*
X19555000Y-6395000D02*
X19585000Y-6425000D01*
X19585000Y-6395000D02*
X19555000Y-6425000D01*
X19655000Y-6195000D02*
X19685000Y-6225000D01*
X19685000Y-6195000D02*
X19655000Y-6225000D01*
X20005000Y-5930000D02*
X20035000Y-5960000D01*
X20035000Y-5930000D02*
X20005000Y-5960000D01*
X20245000Y-8857000D02*
X20275000Y-8887000D01*
X20275000Y-8857000D02*
X20245000Y-8887000D01*
X20315000Y-8785000D02*
X20345000Y-8815000D01*
X20345000Y-8785000D02*
X20315000Y-8815000D01*
D13*
X10869200Y-6625500D02*
G75*
G03*
X10869200Y-6625500I-20000J0D01*
G01*
X10869200Y-7435500D02*
G75*
G03*
X10869200Y-7435500I-20000J0D01*
G01*
X11585400Y-11903000D02*
G75*
G03*
X11585400Y-11903000I-20000J0D01*
G01*
X12083000Y-8661000D02*
G75*
G03*
X12083000Y-8661000I-20000J0D01*
G01*
X12378500Y-13273000D02*
G75*
G03*
X12378500Y-13273000I-20000J0D01*
G01*
X12487400Y-9215000D02*
G75*
G03*
X12487400Y-9215000I-20000J0D01*
G01*
X12881400Y-9213000D02*
G75*
G03*
X12881400Y-9213000I-20000J0D01*
G01*
X13097050Y-6944252D02*
G75*
G03*
X13097050Y-6944252I-20000J0D01*
G01*
X13100200Y-11904500D02*
G75*
G03*
X13100200Y-11904500I-20000J0D01*
G01*
X14010000Y-5397375D02*
G75*
G03*
X14010000Y-5397375I-20000J0D01*
G01*
X14151000Y-4329000D02*
G75*
G03*
X14151000Y-4329000I-20000J0D01*
G01*
X14440000Y-5397375D02*
G75*
G03*
X14440000Y-5397375I-20000J0D01*
G01*
X14489000Y-4327000D02*
G75*
G03*
X14489000Y-4327000I-20000J0D01*
G01*
X16561750Y-4961500D02*
G75*
G03*
X16561750Y-4961500I-20000J0D01*
G01*
X17580000Y-11105000D02*
G75*
G03*
X17580000Y-11105000I-20000J0D01*
G01*
X17620200Y-7628500D02*
G75*
G03*
X17620200Y-7628500I-20000J0D01*
G01*
X17970000Y-13110000D02*
G75*
G03*
X17970000Y-13110000I-20000J0D01*
G01*
X18180000Y-11105000D02*
G75*
G03*
X18180000Y-11105000I-20000J0D01*
G01*
X18315000Y-11105000D02*
G75*
G03*
X18315000Y-11105000I-20000J0D01*
G01*
X18336000Y-5098000D02*
G75*
G03*
X18336000Y-5098000I-20000J0D01*
G01*
X18450000Y-11105000D02*
G75*
G03*
X18450000Y-11105000I-20000J0D01*
G01*
X18840000Y-7900000D02*
G75*
G03*
X18840000Y-7900000I-20000J0D01*
G01*
X18860000Y-6010000D02*
G75*
G03*
X18860000Y-6010000I-20000J0D01*
G01*
D14*
X11634489Y-5641000D02*
X11634489Y-5721000D01*
X11594489Y-5681000D02*
X11674489Y-5681000D01*
X11884489Y-5641000D02*
X11884489Y-5721000D01*
X11844489Y-5681000D02*
X11924489Y-5681000D01*
X12181000Y-4309000D02*
X12181000Y-4389000D01*
X12141000Y-4349000D02*
X12221000Y-4349000D01*
X12181000Y-5071000D02*
X12181000Y-5151000D01*
X12141000Y-5111000D02*
X12221000Y-5111000D01*
X12943000Y-4309000D02*
X12943000Y-4389000D01*
X12903000Y-4349000D02*
X12983000Y-4349000D01*
X12943000Y-5071000D02*
X12943000Y-5151000D01*
X12903000Y-5111000D02*
X12983000Y-5111000D01*
X15622200Y-7304500D02*
X15622200Y-7384500D01*
X15582200Y-7344500D02*
X15662200Y-7344500D01*
X15622200Y-7558500D02*
X15622200Y-7638500D01*
X15582200Y-7598500D02*
X15662200Y-7598500D01*
X15622200Y-7812500D02*
X15622200Y-7892500D01*
X15582200Y-7852500D02*
X15662200Y-7852500D01*
X15622200Y-8066500D02*
X15622200Y-8146500D01*
X15582200Y-8106500D02*
X15662200Y-8106500D01*
X15622200Y-8320500D02*
X15622200Y-8400500D01*
X15582200Y-8360500D02*
X15662200Y-8360500D01*
X15622200Y-8574500D02*
X15622200Y-8654500D01*
X15582200Y-8614500D02*
X15662200Y-8614500D01*
X15622200Y-8828500D02*
X15622200Y-8908500D01*
X15582200Y-8868500D02*
X15662200Y-8868500D01*
X15622200Y-9082500D02*
X15622200Y-9162500D01*
X15582200Y-9122500D02*
X15662200Y-9122500D01*
X15622200Y-9336500D02*
X15622200Y-9416500D01*
X15582200Y-9376500D02*
X15662200Y-9376500D01*
X15622200Y-9590500D02*
X15622200Y-9670500D01*
X15582200Y-9630500D02*
X15662200Y-9630500D01*
X15622200Y-9844500D02*
X15622200Y-9924500D01*
X15582200Y-9884500D02*
X15662200Y-9884500D01*
X15622200Y-10098500D02*
X15622200Y-10178500D01*
X15582200Y-10138500D02*
X15662200Y-10138500D01*
X15622200Y-10352500D02*
X15622200Y-10432500D01*
X15582200Y-10392500D02*
X15662200Y-10392500D01*
X15622200Y-10606500D02*
X15622200Y-10686500D01*
X15582200Y-10646500D02*
X15662200Y-10646500D01*
X15622200Y-10860500D02*
X15622200Y-10940500D01*
X15582200Y-10900500D02*
X15662200Y-10900500D01*
X15622200Y-11114500D02*
X15622200Y-11194500D01*
X15582200Y-11154500D02*
X15662200Y-11154500D01*
X15622200Y-11368500D02*
X15622200Y-11448500D01*
X15582200Y-11408500D02*
X15662200Y-11408500D01*
X15622200Y-11622500D02*
X15622200Y-11702500D01*
X15582200Y-11662500D02*
X15662200Y-11662500D01*
X15622200Y-11876500D02*
X15622200Y-11956500D01*
X15582200Y-11916500D02*
X15662200Y-11916500D01*
X15622200Y-12130500D02*
X15622200Y-12210500D01*
X15582200Y-12170500D02*
X15662200Y-12170500D01*
X17146200Y-7304500D02*
X17146200Y-7384500D01*
X17106200Y-7344500D02*
X17186200Y-7344500D01*
X17146200Y-7558500D02*
X17146200Y-7638500D01*
X17106200Y-7598500D02*
X17186200Y-7598500D01*
X17146200Y-7812500D02*
X17146200Y-7892500D01*
X17106200Y-7852500D02*
X17186200Y-7852500D01*
X17146200Y-8066500D02*
X17146200Y-8146500D01*
X17106200Y-8106500D02*
X17186200Y-8106500D01*
X17146200Y-8320500D02*
X17146200Y-8400500D01*
X17106200Y-8360500D02*
X17186200Y-8360500D01*
X17146200Y-8574500D02*
X17146200Y-8654500D01*
X17106200Y-8614500D02*
X17186200Y-8614500D01*
X17146200Y-8828500D02*
X17146200Y-8908500D01*
X17106200Y-8868500D02*
X17186200Y-8868500D01*
X17146200Y-9082500D02*
X17146200Y-9162500D01*
X17106200Y-9122500D02*
X17186200Y-9122500D01*
X17146200Y-9336500D02*
X17146200Y-9416500D01*
X17106200Y-9376500D02*
X17186200Y-9376500D01*
X17146200Y-9590500D02*
X17146200Y-9670500D01*
X17106200Y-9630500D02*
X17186200Y-9630500D01*
X17146200Y-9844500D02*
X17146200Y-9924500D01*
X17106200Y-9884500D02*
X17186200Y-9884500D01*
X17146200Y-10098500D02*
X17146200Y-10178500D01*
X17106200Y-10138500D02*
X17186200Y-10138500D01*
X17146200Y-10352500D02*
X17146200Y-10432500D01*
X17106200Y-10392500D02*
X17186200Y-10392500D01*
X17146200Y-10606500D02*
X17146200Y-10686500D01*
X17106200Y-10646500D02*
X17186200Y-10646500D01*
X17146200Y-10860500D02*
X17146200Y-10940500D01*
X17106200Y-10900500D02*
X17186200Y-10900500D01*
X17146200Y-11114500D02*
X17146200Y-11194500D01*
X17106200Y-11154500D02*
X17186200Y-11154500D01*
X17146200Y-11368500D02*
X17146200Y-11448500D01*
X17106200Y-11408500D02*
X17186200Y-11408500D01*
X17146200Y-11622500D02*
X17146200Y-11702500D01*
X17106200Y-11662500D02*
X17186200Y-11662500D01*
X17146200Y-11876500D02*
X17146200Y-11956500D01*
X17106200Y-11916500D02*
X17186200Y-11916500D01*
X17146200Y-12130500D02*
X17146200Y-12210500D01*
X17106200Y-12170500D02*
X17186200Y-12170500D01*
D15*
X10851356Y-7862356D02*
X10851356Y-7791644D01*
X10780644Y-7791644D01*
X10780644Y-7862356D01*
X10851356Y-7862356D01*
X10851356Y-8116356D02*
X10851356Y-8045644D01*
X10780644Y-8045644D01*
X10780644Y-8116356D01*
X10851356Y-8116356D01*
X10851356Y-8370356D02*
X10851356Y-8299644D01*
X10780644Y-8299644D01*
X10780644Y-8370356D01*
X10851356Y-8370356D01*
X10851356Y-8624356D02*
X10851356Y-8553644D01*
X10780644Y-8553644D01*
X10780644Y-8624356D01*
X10851356Y-8624356D01*
X10851356Y-8878356D02*
X10851356Y-8807644D01*
X10780644Y-8807644D01*
X10780644Y-8878356D01*
X10851356Y-8878356D01*
X10851356Y-9132356D02*
X10851356Y-9061644D01*
X10780644Y-9061644D01*
X10780644Y-9132356D01*
X10851356Y-9132356D01*
X10877356Y-4099356D02*
X10877356Y-4028644D01*
X10806644Y-4028644D01*
X10806644Y-4099356D01*
X10877356Y-4099356D01*
D11*
X10892000Y-4139000D02*
X10892000Y-3989000D01*
X10892000Y-3989000D02*
G75*
G03*
X10792000Y-3989000I-50000J0D01*
G01*
X10792000Y-3989000D02*
X10792000Y-4139000D01*
X10792000Y-4139000D02*
G75*
G03*
X10892000Y-4139000I50000J0D01*
G01*
D15*
X11327356Y-4199356D02*
X11327356Y-4128644D01*
X11256644Y-4128644D01*
X11256644Y-4199356D01*
X11327356Y-4199356D01*
D11*
X11357000Y-4114000D02*
X11227000Y-4114000D01*
X11227000Y-4114000D02*
G75*
G03*
X11227000Y-4214000I0J-50000D01*
G01*
X11227000Y-4214000D02*
X11357000Y-4214000D01*
X11357000Y-4214000D02*
G75*
G03*
X11357000Y-4114000I0J50000D01*
G01*
D15*
X11327356Y-4799356D02*
X11327356Y-4728644D01*
X11256644Y-4728644D01*
X11256644Y-4799356D01*
X11327356Y-4799356D01*
D11*
X11392000Y-4714000D02*
X11192000Y-4714000D01*
X11192000Y-4714000D02*
G75*
G03*
X11192000Y-4814000I0J-50000D01*
G01*
X11192000Y-4814000D02*
X11392000Y-4814000D01*
X11392000Y-4814000D02*
G75*
G03*
X11392000Y-4714000I0J50000D01*
G01*
D15*
X11777356Y-4099356D02*
X11777356Y-4028644D01*
X11706644Y-4028644D01*
X11706644Y-4099356D01*
X11777356Y-4099356D01*
D11*
X11792000Y-4139000D02*
X11792000Y-3989000D01*
X11792000Y-3989000D02*
G75*
G03*
X11692000Y-3989000I-50000J0D01*
G01*
X11692000Y-3989000D02*
X11692000Y-4139000D01*
X11692000Y-4139000D02*
G75*
G03*
X11792000Y-4139000I50000J0D01*
G01*
D15*
X12982356Y-6011856D02*
X12982356Y-5941144D01*
X12911644Y-5941144D01*
X12911644Y-6011856D01*
X12982356Y-6011856D01*
X12982356Y-6265856D02*
X12982356Y-6195144D01*
X12911644Y-6195144D01*
X12911644Y-6265856D01*
X12982356Y-6265856D01*
X13008856Y-13253356D02*
X13008856Y-13182644D01*
X12938144Y-13182644D01*
X12938144Y-13253356D01*
X13008856Y-13253356D01*
X13236356Y-6011856D02*
X13236356Y-5941144D01*
X13165644Y-5941144D01*
X13165644Y-6011856D01*
X13236356Y-6011856D01*
X13236356Y-6265856D02*
X13236356Y-6195144D01*
X13165644Y-6195144D01*
X13165644Y-6265856D01*
X13236356Y-6265856D01*
X13262856Y-13253356D02*
X13262856Y-13182644D01*
X13192144Y-13182644D01*
X13192144Y-13253356D01*
X13262856Y-13253356D01*
X13490356Y-6011856D02*
X13490356Y-5941144D01*
X13419644Y-5941144D01*
X13419644Y-6011856D01*
X13490356Y-6011856D01*
X13490356Y-6265856D02*
X13490356Y-6195144D01*
X13419644Y-6195144D01*
X13419644Y-6265856D01*
X13490356Y-6265856D01*
X13516856Y-13253356D02*
X13516856Y-13182644D01*
X13446144Y-13182644D01*
X13446144Y-13253356D01*
X13516856Y-13253356D01*
X15910856Y-4057389D02*
X15910856Y-3986677D01*
X15840144Y-3986677D01*
X15840144Y-4057389D01*
X15910856Y-4057389D01*
X16025356Y-3859389D02*
X16025356Y-3788677D01*
X15954644Y-3788677D01*
X15954644Y-3859389D01*
X16025356Y-3859389D01*
X16025356Y-4255389D02*
X16025356Y-4184677D01*
X15954644Y-4184677D01*
X15954644Y-4255389D01*
X16025356Y-4255389D01*
X16139856Y-4057389D02*
X16139856Y-3986677D01*
X16069144Y-3986677D01*
X16069144Y-4057389D01*
X16139856Y-4057389D01*
X16254356Y-3859389D02*
X16254356Y-3788677D01*
X16183644Y-3788677D01*
X16183644Y-3859389D01*
X16254356Y-3859389D01*
X16254356Y-4255389D02*
X16254356Y-4184677D01*
X16183644Y-4184677D01*
X16183644Y-4255389D01*
X16254356Y-4255389D01*
X16368856Y-4057389D02*
X16368856Y-3986677D01*
X16298144Y-3986677D01*
X16298144Y-4057389D01*
X16368856Y-4057389D01*
X16483356Y-3859389D02*
X16483356Y-3788677D01*
X16412644Y-3788677D01*
X16412644Y-3859389D01*
X16483356Y-3859389D01*
X16483356Y-4255389D02*
X16483356Y-4184677D01*
X16412644Y-4184677D01*
X16412644Y-4255389D01*
X16483356Y-4255389D01*
X16597856Y-4057389D02*
X16597856Y-3986677D01*
X16527144Y-3986677D01*
X16527144Y-4057389D01*
X16597856Y-4057389D01*
X16712356Y-3859389D02*
X16712356Y-3788677D01*
X16641644Y-3788677D01*
X16641644Y-3859389D01*
X16712356Y-3859389D01*
X16712356Y-4255389D02*
X16712356Y-4184677D01*
X16641644Y-4184677D01*
X16641644Y-4255389D01*
X16712356Y-4255389D01*
X16826856Y-4057389D02*
X16826856Y-3986677D01*
X16756144Y-3986677D01*
X16756144Y-4057389D01*
X16826856Y-4057389D01*
X16941356Y-3859389D02*
X16941356Y-3788677D01*
X16870644Y-3788677D01*
X16870644Y-3859389D01*
X16941356Y-3859389D01*
X16941356Y-4255389D02*
X16941356Y-4184677D01*
X16870644Y-4184677D01*
X16870644Y-4255389D01*
X16941356Y-4255389D01*
X17950356Y-5276856D02*
X17950356Y-5206144D01*
X17879644Y-5206144D01*
X17879644Y-5276856D01*
X17950356Y-5276856D01*
X17950356Y-5530856D02*
X17950356Y-5460144D01*
X17879644Y-5460144D01*
X17879644Y-5530856D01*
X17950356Y-5530856D01*
X17950356Y-5784856D02*
X17950356Y-5714144D01*
X17879644Y-5714144D01*
X17879644Y-5784856D01*
X17950356Y-5784856D01*
X17950356Y-6038856D02*
X17950356Y-5968144D01*
X17879644Y-5968144D01*
X17879644Y-6038856D01*
X17950356Y-6038856D01*
X17950356Y-6292856D02*
X17950356Y-6222144D01*
X17879644Y-6222144D01*
X17879644Y-6292856D01*
X17950356Y-6292856D01*
X19815356Y-9040356D02*
X19815356Y-8969644D01*
X19744644Y-8969644D01*
X19744644Y-9040356D01*
X19815356Y-9040356D01*
X19815356Y-9294356D02*
X19815356Y-9223644D01*
X19744644Y-9223644D01*
X19744644Y-9294356D01*
X19815356Y-9294356D01*
X19815356Y-9548356D02*
X19815356Y-9477644D01*
X19744644Y-9477644D01*
X19744644Y-9548356D01*
X19815356Y-9548356D01*
X19815356Y-9802356D02*
X19815356Y-9731644D01*
X19744644Y-9731644D01*
X19744644Y-9802356D01*
X19815356Y-9802356D01*
X19815356Y-10056356D02*
X19815356Y-9985644D01*
X19744644Y-9985644D01*
X19744644Y-10056356D01*
X19815356Y-10056356D01*
X19815356Y-10310356D02*
X19815356Y-10239644D01*
X19744644Y-10239644D01*
X19744644Y-10310356D01*
X19815356Y-10310356D01*
X19815356Y-10564356D02*
X19815356Y-10493644D01*
X19744644Y-10493644D01*
X19744644Y-10564356D01*
X19815356Y-10564356D01*
X19815356Y-10818356D02*
X19815356Y-10747644D01*
X19744644Y-10747644D01*
X19744644Y-10818356D01*
X19815356Y-10818356D01*
X19815356Y-11072356D02*
X19815356Y-11001644D01*
X19744644Y-11001644D01*
X19744644Y-11072356D01*
X19815356Y-11072356D01*
X19815356Y-11326356D02*
X19815356Y-11255644D01*
X19744644Y-11255644D01*
X19744644Y-11326356D01*
X19815356Y-11326356D01*
X19815356Y-11580356D02*
X19815356Y-11509644D01*
X19744644Y-11509644D01*
X19744644Y-11580356D01*
X19815356Y-11580356D01*
X19815356Y-11834356D02*
X19815356Y-11763644D01*
X19744644Y-11763644D01*
X19744644Y-11834356D01*
X19815356Y-11834356D01*
X19815356Y-12088356D02*
X19815356Y-12017644D01*
X19744644Y-12017644D01*
X19744644Y-12088356D01*
X19815356Y-12088356D01*
X19815356Y-12342356D02*
X19815356Y-12271644D01*
X19744644Y-12271644D01*
X19744644Y-12342356D01*
X19815356Y-12342356D01*
X19815356Y-12596356D02*
X19815356Y-12525644D01*
X19744644Y-12525644D01*
X19744644Y-12596356D01*
X19815356Y-12596356D01*
X19815356Y-12850356D02*
X19815356Y-12779644D01*
X19744644Y-12779644D01*
X19744644Y-12850356D01*
X19815356Y-12850356D01*
X19819356Y-6673356D02*
X19819356Y-6602644D01*
X19748644Y-6602644D01*
X19748644Y-6673356D01*
X19819356Y-6673356D01*
X19819356Y-6927356D02*
X19819356Y-6856644D01*
X19748644Y-6856644D01*
X19748644Y-6927356D01*
X19819356Y-6927356D01*
X19819356Y-7181356D02*
X19819356Y-7110644D01*
X19748644Y-7110644D01*
X19748644Y-7181356D01*
X19819356Y-7181356D01*
X19819356Y-7435356D02*
X19819356Y-7364644D01*
X19748644Y-7364644D01*
X19748644Y-7435356D01*
X19819356Y-7435356D01*
X19819356Y-7689356D02*
X19819356Y-7618644D01*
X19748644Y-7618644D01*
X19748644Y-7689356D01*
X19819356Y-7689356D01*
X19819356Y-7943356D02*
X19819356Y-7872644D01*
X19748644Y-7872644D01*
X19748644Y-7943356D01*
X19819356Y-7943356D01*
X19819356Y-8197356D02*
X19819356Y-8126644D01*
X19748644Y-8126644D01*
X19748644Y-8197356D01*
X19819356Y-8197356D01*
X19819356Y-8451356D02*
X19819356Y-8380644D01*
X19748644Y-8380644D01*
X19748644Y-8451356D01*
X19819356Y-8451356D01*
X20069356Y-9040356D02*
X20069356Y-8969644D01*
X19998644Y-8969644D01*
X19998644Y-9040356D01*
X20069356Y-9040356D01*
X20069356Y-9294356D02*
X20069356Y-9223644D01*
X19998644Y-9223644D01*
X19998644Y-9294356D01*
X20069356Y-9294356D01*
X20069356Y-9548356D02*
X20069356Y-9477644D01*
X19998644Y-9477644D01*
X19998644Y-9548356D01*
X20069356Y-9548356D01*
X20069356Y-9802356D02*
X20069356Y-9731644D01*
X19998644Y-9731644D01*
X19998644Y-9802356D01*
X20069356Y-9802356D01*
X20069356Y-10056356D02*
X20069356Y-9985644D01*
X19998644Y-9985644D01*
X19998644Y-10056356D01*
X20069356Y-10056356D01*
X20069356Y-10310356D02*
X20069356Y-10239644D01*
X19998644Y-10239644D01*
X19998644Y-10310356D01*
X20069356Y-10310356D01*
X20069356Y-10564356D02*
X20069356Y-10493644D01*
X19998644Y-10493644D01*
X19998644Y-10564356D01*
X20069356Y-10564356D01*
X20069356Y-10818356D02*
X20069356Y-10747644D01*
X19998644Y-10747644D01*
X19998644Y-10818356D01*
X20069356Y-10818356D01*
X20069356Y-11072356D02*
X20069356Y-11001644D01*
X19998644Y-11001644D01*
X19998644Y-11072356D01*
X20069356Y-11072356D01*
X20069356Y-11326356D02*
X20069356Y-11255644D01*
X19998644Y-11255644D01*
X19998644Y-11326356D01*
X20069356Y-11326356D01*
X20069356Y-11580356D02*
X20069356Y-11509644D01*
X19998644Y-11509644D01*
X19998644Y-11580356D01*
X20069356Y-11580356D01*
X20069356Y-11834356D02*
X20069356Y-11763644D01*
X19998644Y-11763644D01*
X19998644Y-11834356D01*
X20069356Y-11834356D01*
X20069356Y-12088356D02*
X20069356Y-12017644D01*
X19998644Y-12017644D01*
X19998644Y-12088356D01*
X20069356Y-12088356D01*
X20069356Y-12342356D02*
X20069356Y-12271644D01*
X19998644Y-12271644D01*
X19998644Y-12342356D01*
X20069356Y-12342356D01*
X20069356Y-12596356D02*
X20069356Y-12525644D01*
X19998644Y-12525644D01*
X19998644Y-12596356D01*
X20069356Y-12596356D01*
X20069356Y-12850356D02*
X20069356Y-12779644D01*
X19998644Y-12779644D01*
X19998644Y-12850356D01*
X20069356Y-12850356D01*
X20073356Y-6673356D02*
X20073356Y-6602644D01*
X20002644Y-6602644D01*
X20002644Y-6673356D01*
X20073356Y-6673356D01*
X20073356Y-6927356D02*
X20073356Y-6856644D01*
X20002644Y-6856644D01*
X20002644Y-6927356D01*
X20073356Y-6927356D01*
X20073356Y-7181356D02*
X20073356Y-7110644D01*
X20002644Y-7110644D01*
X20002644Y-7181356D01*
X20073356Y-7181356D01*
X20073356Y-7435356D02*
X20073356Y-7364644D01*
X20002644Y-7364644D01*
X20002644Y-7435356D01*
X20073356Y-7435356D01*
X20073356Y-7689356D02*
X20073356Y-7618644D01*
X20002644Y-7618644D01*
X20002644Y-7689356D01*
X20073356Y-7689356D01*
X20073356Y-7943356D02*
X20073356Y-7872644D01*
X20002644Y-7872644D01*
X20002644Y-7943356D01*
X20073356Y-7943356D01*
X20073356Y-8197356D02*
X20073356Y-8126644D01*
X20002644Y-8126644D01*
X20002644Y-8197356D01*
X20073356Y-8197356D01*
X20073356Y-8451356D02*
X20073356Y-8380644D01*
X20002644Y-8380644D01*
X20002644Y-8451356D01*
X20073356Y-8451356D01*
D16*
X13860000Y-5999423D02*
X13915000Y-5944423D01*
X13860000Y-5889423D01*
X13805000Y-5944423D01*
X13860000Y-5999423D01*
X13860000Y-6449423D02*
X13915000Y-6394423D01*
X13860000Y-6339423D01*
X13805000Y-6394423D01*
X13860000Y-6449423D01*
X14510000Y-5999423D02*
X14565000Y-5944423D01*
X14510000Y-5889423D01*
X14455000Y-5944423D01*
X14510000Y-5999423D01*
X14510000Y-6449423D02*
X14565000Y-6394423D01*
X14510000Y-6339423D01*
X14455000Y-6394423D01*
X14510000Y-6449423D01*
X14849421Y-6000579D02*
X14904421Y-5945579D01*
X14849421Y-5890579D01*
X14794421Y-5945579D01*
X14849421Y-6000579D01*
X14849421Y-6450579D02*
X14904421Y-6395579D01*
X14849421Y-6340579D01*
X14794421Y-6395579D01*
X14849421Y-6450579D01*
X15499421Y-6000579D02*
X15554421Y-5945579D01*
X15499421Y-5890579D01*
X15444421Y-5945579D01*
X15499421Y-6000579D01*
X15499421Y-6450579D02*
X15554421Y-6395579D01*
X15499421Y-6340579D01*
X15444421Y-6395579D01*
X15499421Y-6450579D01*
D11*
X10690200Y-13095500D02*
X10890200Y-13295500D01*
X10890200Y-13095500D02*
X10690200Y-13295500D01*
X10890200Y-13195500D02*
G75*
G03*
X10890200Y-13195500I-100000J0D01*
G01*
X14240200Y-3685500D02*
X14440200Y-3885500D01*
X14440200Y-3685500D02*
X14240200Y-3885500D01*
X14440200Y-3785500D02*
G75*
G03*
X14440200Y-3785500I-100000J0D01*
G01*
X20040200Y-13095500D02*
X20240200Y-13295500D01*
X20240200Y-13095500D02*
X20040200Y-13295500D01*
X20240200Y-13195500D02*
G75*
G03*
X20240200Y-13195500I-100000J0D01*
G01*
X20060200Y-3695500D02*
X20260200Y-3895500D01*
X20260200Y-3695500D02*
X20060200Y-3895500D01*
X20260200Y-3795500D02*
G75*
G03*
X20260200Y-3795500I-100000J0D01*
G01*
D17*
X18175500Y-4438500D02*
X18405500Y-4668500D01*
X18405500Y-4438500D02*
X18175500Y-4668500D01*
X18290500Y-4438500D02*
X18290500Y-4668500D01*
X18175500Y-4553500D02*
X18405500Y-4553500D01*
X19489500Y-4438500D02*
X19719500Y-4668500D01*
X19719500Y-4438500D02*
X19489500Y-4668500D01*
X19604500Y-4438500D02*
X19604500Y-4668500D01*
X19489500Y-4553500D02*
X19719500Y-4553500D01*
D18*
X15011500Y-3855033D02*
X15331500Y-4175033D01*
X15331500Y-3855033D02*
X15011500Y-4175033D01*
X15284638Y-4128171D02*
X15284638Y-3901895D01*
X15058362Y-3901895D01*
X15058362Y-4128171D01*
X15284638Y-4128171D01*
X17511500Y-3855033D02*
X17831500Y-4175033D01*
X17831500Y-3855033D02*
X17511500Y-4175033D01*
X17784638Y-4128171D02*
X17784638Y-3901895D01*
X17558362Y-3901895D01*
X17558362Y-4128171D01*
X17784638Y-4128171D01*
D11*
X10718277Y-13823984D02*
X10718277Y-13623984D01*
X10718277Y-13623984D02*
X10765896Y-13623984D01*
X10765896Y-13623984D02*
X10794467Y-13633508D01*
X10794467Y-13633508D02*
X10813515Y-13652555D01*
X10813515Y-13652555D02*
X10823039Y-13671603D01*
X10823039Y-13671603D02*
X10832563Y-13709698D01*
X10832563Y-13709698D02*
X10832563Y-13738269D01*
X10832563Y-13738269D02*
X10823039Y-13776365D01*
X10823039Y-13776365D02*
X10813515Y-13795412D01*
X10813515Y-13795412D02*
X10794467Y-13814460D01*
X10794467Y-13814460D02*
X10765896Y-13823984D01*
X10765896Y-13823984D02*
X10718277Y-13823984D01*
X10918277Y-13823984D02*
X10918277Y-13690650D01*
X10918277Y-13728746D02*
X10927801Y-13709698D01*
X10927801Y-13709698D02*
X10937324Y-13700174D01*
X10937324Y-13700174D02*
X10956372Y-13690650D01*
X10956372Y-13690650D02*
X10975420Y-13690650D01*
X11042086Y-13823984D02*
X11042086Y-13690650D01*
X11042086Y-13623984D02*
X11032563Y-13633508D01*
X11032563Y-13633508D02*
X11042086Y-13643031D01*
X11042086Y-13643031D02*
X11051610Y-13633508D01*
X11051610Y-13633508D02*
X11042086Y-13623984D01*
X11042086Y-13623984D02*
X11042086Y-13643031D01*
X11165896Y-13823984D02*
X11146848Y-13814460D01*
X11146848Y-13814460D02*
X11137324Y-13795412D01*
X11137324Y-13795412D02*
X11137324Y-13623984D01*
X11270658Y-13823984D02*
X11251610Y-13814460D01*
X11251610Y-13814460D02*
X11242086Y-13795412D01*
X11242086Y-13795412D02*
X11242086Y-13623984D01*
X11499229Y-13823984D02*
X11499229Y-13623984D01*
X11499229Y-13623984D02*
X11565896Y-13766841D01*
X11565896Y-13766841D02*
X11632562Y-13623984D01*
X11632562Y-13623984D02*
X11632562Y-13823984D01*
X11813515Y-13823984D02*
X11813515Y-13719222D01*
X11813515Y-13719222D02*
X11803991Y-13700174D01*
X11803991Y-13700174D02*
X11784943Y-13690650D01*
X11784943Y-13690650D02*
X11746848Y-13690650D01*
X11746848Y-13690650D02*
X11727801Y-13700174D01*
X11813515Y-13814460D02*
X11794467Y-13823984D01*
X11794467Y-13823984D02*
X11746848Y-13823984D01*
X11746848Y-13823984D02*
X11727801Y-13814460D01*
X11727801Y-13814460D02*
X11718277Y-13795412D01*
X11718277Y-13795412D02*
X11718277Y-13776365D01*
X11718277Y-13776365D02*
X11727801Y-13757317D01*
X11727801Y-13757317D02*
X11746848Y-13747793D01*
X11746848Y-13747793D02*
X11794467Y-13747793D01*
X11794467Y-13747793D02*
X11813515Y-13738269D01*
X11908753Y-13690650D02*
X11908753Y-13890650D01*
X11908753Y-13700174D02*
X11927801Y-13690650D01*
X11927801Y-13690650D02*
X11965896Y-13690650D01*
X11965896Y-13690650D02*
X11984943Y-13700174D01*
X11984943Y-13700174D02*
X11994467Y-13709698D01*
X11994467Y-13709698D02*
X12003991Y-13728746D01*
X12003991Y-13728746D02*
X12003991Y-13785888D01*
X12003991Y-13785888D02*
X11994467Y-13804936D01*
X11994467Y-13804936D02*
X11984943Y-13814460D01*
X11984943Y-13814460D02*
X11965896Y-13823984D01*
X11965896Y-13823984D02*
X11927801Y-13823984D01*
X11927801Y-13823984D02*
X11908753Y-13814460D01*
X12089705Y-13804936D02*
X12099229Y-13814460D01*
X12099229Y-13814460D02*
X12089705Y-13823984D01*
X12089705Y-13823984D02*
X12080182Y-13814460D01*
X12080182Y-13814460D02*
X12089705Y-13804936D01*
X12089705Y-13804936D02*
X12089705Y-13823984D01*
X12089705Y-13700174D02*
X12099229Y-13709698D01*
X12099229Y-13709698D02*
X12089705Y-13719222D01*
X12089705Y-13719222D02*
X12080182Y-13709698D01*
X12080182Y-13709698D02*
X12089705Y-13700174D01*
X12089705Y-13700174D02*
X12089705Y-13719222D01*
D12*
X10427500Y-14137500D02*
X10457500Y-14167500D01*
X10457500Y-14137500D02*
X10427500Y-14167500D01*
D11*
X10756372Y-14043984D02*
X10775420Y-14043984D01*
X10775420Y-14043984D02*
X10794467Y-14053508D01*
X10794467Y-14053508D02*
X10803991Y-14063031D01*
X10803991Y-14063031D02*
X10813515Y-14082079D01*
X10813515Y-14082079D02*
X10823039Y-14120174D01*
X10823039Y-14120174D02*
X10823039Y-14167793D01*
X10823039Y-14167793D02*
X10813515Y-14205888D01*
X10813515Y-14205888D02*
X10803991Y-14224936D01*
X10803991Y-14224936D02*
X10794467Y-14234460D01*
X10794467Y-14234460D02*
X10775420Y-14243984D01*
X10775420Y-14243984D02*
X10756372Y-14243984D01*
X10756372Y-14243984D02*
X10737324Y-14234460D01*
X10737324Y-14234460D02*
X10727801Y-14224936D01*
X10727801Y-14224936D02*
X10718277Y-14205888D01*
X10718277Y-14205888D02*
X10708753Y-14167793D01*
X10708753Y-14167793D02*
X10708753Y-14120174D01*
X10708753Y-14120174D02*
X10718277Y-14082079D01*
X10718277Y-14082079D02*
X10727801Y-14063031D01*
X10727801Y-14063031D02*
X10737324Y-14053508D01*
X10737324Y-14053508D02*
X10756372Y-14043984D01*
X10908753Y-14224936D02*
X10918277Y-14234460D01*
X10918277Y-14234460D02*
X10908753Y-14243984D01*
X10908753Y-14243984D02*
X10899229Y-14234460D01*
X10899229Y-14234460D02*
X10908753Y-14224936D01*
X10908753Y-14224936D02*
X10908753Y-14243984D01*
X10984944Y-14043984D02*
X11108753Y-14043984D01*
X11108753Y-14043984D02*
X11042086Y-14120174D01*
X11042086Y-14120174D02*
X11070658Y-14120174D01*
X11070658Y-14120174D02*
X11089705Y-14129698D01*
X11089705Y-14129698D02*
X11099229Y-14139222D01*
X11099229Y-14139222D02*
X11108753Y-14158269D01*
X11108753Y-14158269D02*
X11108753Y-14205888D01*
X11108753Y-14205888D02*
X11099229Y-14224936D01*
X11099229Y-14224936D02*
X11089705Y-14234460D01*
X11089705Y-14234460D02*
X11070658Y-14243984D01*
X11070658Y-14243984D02*
X11013515Y-14243984D01*
X11013515Y-14243984D02*
X10994467Y-14234460D01*
X10994467Y-14234460D02*
X10984944Y-14224936D01*
X11232562Y-14043984D02*
X11251610Y-14043984D01*
X11251610Y-14043984D02*
X11270658Y-14053508D01*
X11270658Y-14053508D02*
X11280182Y-14063031D01*
X11280182Y-14063031D02*
X11289705Y-14082079D01*
X11289705Y-14082079D02*
X11299229Y-14120174D01*
X11299229Y-14120174D02*
X11299229Y-14167793D01*
X11299229Y-14167793D02*
X11289705Y-14205888D01*
X11289705Y-14205888D02*
X11280182Y-14224936D01*
X11280182Y-14224936D02*
X11270658Y-14234460D01*
X11270658Y-14234460D02*
X11251610Y-14243984D01*
X11251610Y-14243984D02*
X11232562Y-14243984D01*
X11232562Y-14243984D02*
X11213515Y-14234460D01*
X11213515Y-14234460D02*
X11203991Y-14224936D01*
X11203991Y-14224936D02*
X11194467Y-14205888D01*
X11194467Y-14205888D02*
X11184943Y-14167793D01*
X11184943Y-14167793D02*
X11184943Y-14120174D01*
X11184943Y-14120174D02*
X11194467Y-14082079D01*
X11194467Y-14082079D02*
X11203991Y-14063031D01*
X11203991Y-14063031D02*
X11213515Y-14053508D01*
X11213515Y-14053508D02*
X11232562Y-14043984D01*
X11423039Y-14043984D02*
X11442086Y-14043984D01*
X11442086Y-14043984D02*
X11461134Y-14053508D01*
X11461134Y-14053508D02*
X11470658Y-14063031D01*
X11470658Y-14063031D02*
X11480182Y-14082079D01*
X11480182Y-14082079D02*
X11489705Y-14120174D01*
X11489705Y-14120174D02*
X11489705Y-14167793D01*
X11489705Y-14167793D02*
X11480182Y-14205888D01*
X11480182Y-14205888D02*
X11470658Y-14224936D01*
X11470658Y-14224936D02*
X11461134Y-14234460D01*
X11461134Y-14234460D02*
X11442086Y-14243984D01*
X11442086Y-14243984D02*
X11423039Y-14243984D01*
X11423039Y-14243984D02*
X11403991Y-14234460D01*
X11403991Y-14234460D02*
X11394467Y-14224936D01*
X11394467Y-14224936D02*
X11384943Y-14205888D01*
X11384943Y-14205888D02*
X11375420Y-14167793D01*
X11375420Y-14167793D02*
X11375420Y-14120174D01*
X11375420Y-14120174D02*
X11384943Y-14082079D01*
X11384943Y-14082079D02*
X11394467Y-14063031D01*
X11394467Y-14063031D02*
X11403991Y-14053508D01*
X11403991Y-14053508D02*
X11423039Y-14043984D01*
X11575420Y-14243984D02*
X11575420Y-14110650D01*
X11575420Y-14129698D02*
X11584943Y-14120174D01*
X11584943Y-14120174D02*
X11603991Y-14110650D01*
X11603991Y-14110650D02*
X11632563Y-14110650D01*
X11632563Y-14110650D02*
X11651610Y-14120174D01*
X11651610Y-14120174D02*
X11661134Y-14139222D01*
X11661134Y-14139222D02*
X11661134Y-14243984D01*
X11661134Y-14139222D02*
X11670658Y-14120174D01*
X11670658Y-14120174D02*
X11689705Y-14110650D01*
X11689705Y-14110650D02*
X11718277Y-14110650D01*
X11718277Y-14110650D02*
X11737324Y-14120174D01*
X11737324Y-14120174D02*
X11746848Y-14139222D01*
X11746848Y-14139222D02*
X11746848Y-14243984D01*
X11842086Y-14243984D02*
X11842086Y-14110650D01*
X11842086Y-14129698D02*
X11851610Y-14120174D01*
X11851610Y-14120174D02*
X11870658Y-14110650D01*
X11870658Y-14110650D02*
X11899229Y-14110650D01*
X11899229Y-14110650D02*
X11918277Y-14120174D01*
X11918277Y-14120174D02*
X11927801Y-14139222D01*
X11927801Y-14139222D02*
X11927801Y-14243984D01*
X11927801Y-14139222D02*
X11937324Y-14120174D01*
X11937324Y-14120174D02*
X11956372Y-14110650D01*
X11956372Y-14110650D02*
X11984943Y-14110650D01*
X11984943Y-14110650D02*
X12003991Y-14120174D01*
X12003991Y-14120174D02*
X12013515Y-14139222D01*
X12013515Y-14139222D02*
X12013515Y-14243984D01*
X12403991Y-14034460D02*
X12232563Y-14291603D01*
X12661134Y-14043984D02*
X12680182Y-14043984D01*
X12680182Y-14043984D02*
X12699229Y-14053508D01*
X12699229Y-14053508D02*
X12708753Y-14063031D01*
X12708753Y-14063031D02*
X12718277Y-14082079D01*
X12718277Y-14082079D02*
X12727801Y-14120174D01*
X12727801Y-14120174D02*
X12727801Y-14167793D01*
X12727801Y-14167793D02*
X12718277Y-14205888D01*
X12718277Y-14205888D02*
X12708753Y-14224936D01*
X12708753Y-14224936D02*
X12699229Y-14234460D01*
X12699229Y-14234460D02*
X12680182Y-14243984D01*
X12680182Y-14243984D02*
X12661134Y-14243984D01*
X12661134Y-14243984D02*
X12642086Y-14234460D01*
X12642086Y-14234460D02*
X12632563Y-14224936D01*
X12632563Y-14224936D02*
X12623039Y-14205888D01*
X12623039Y-14205888D02*
X12613515Y-14167793D01*
X12613515Y-14167793D02*
X12613515Y-14120174D01*
X12613515Y-14120174D02*
X12623039Y-14082079D01*
X12623039Y-14082079D02*
X12632563Y-14063031D01*
X12632563Y-14063031D02*
X12642086Y-14053508D01*
X12642086Y-14053508D02*
X12661134Y-14043984D01*
X12813515Y-14224936D02*
X12823039Y-14234460D01*
X12823039Y-14234460D02*
X12813515Y-14243984D01*
X12813515Y-14243984D02*
X12803991Y-14234460D01*
X12803991Y-14234460D02*
X12813515Y-14224936D01*
X12813515Y-14224936D02*
X12813515Y-14243984D01*
X12946848Y-14043984D02*
X12965896Y-14043984D01*
X12965896Y-14043984D02*
X12984944Y-14053508D01*
X12984944Y-14053508D02*
X12994467Y-14063031D01*
X12994467Y-14063031D02*
X13003991Y-14082079D01*
X13003991Y-14082079D02*
X13013515Y-14120174D01*
X13013515Y-14120174D02*
X13013515Y-14167793D01*
X13013515Y-14167793D02*
X13003991Y-14205888D01*
X13003991Y-14205888D02*
X12994467Y-14224936D01*
X12994467Y-14224936D02*
X12984944Y-14234460D01*
X12984944Y-14234460D02*
X12965896Y-14243984D01*
X12965896Y-14243984D02*
X12946848Y-14243984D01*
X12946848Y-14243984D02*
X12927801Y-14234460D01*
X12927801Y-14234460D02*
X12918277Y-14224936D01*
X12918277Y-14224936D02*
X12908753Y-14205888D01*
X12908753Y-14205888D02*
X12899229Y-14167793D01*
X12899229Y-14167793D02*
X12899229Y-14120174D01*
X12899229Y-14120174D02*
X12908753Y-14082079D01*
X12908753Y-14082079D02*
X12918277Y-14063031D01*
X12918277Y-14063031D02*
X12927801Y-14053508D01*
X12927801Y-14053508D02*
X12946848Y-14043984D01*
X13203991Y-14243984D02*
X13089706Y-14243984D01*
X13146848Y-14243984D02*
X13146848Y-14043984D01*
X13146848Y-14043984D02*
X13127801Y-14072555D01*
X13127801Y-14072555D02*
X13108753Y-14091603D01*
X13108753Y-14091603D02*
X13089706Y-14101127D01*
X13394467Y-14243984D02*
X13280182Y-14243984D01*
X13337325Y-14243984D02*
X13337325Y-14043984D01*
X13337325Y-14043984D02*
X13318277Y-14072555D01*
X13318277Y-14072555D02*
X13299229Y-14091603D01*
X13299229Y-14091603D02*
X13280182Y-14101127D01*
X13508753Y-14129698D02*
X13489706Y-14120174D01*
X13489706Y-14120174D02*
X13480182Y-14110650D01*
X13480182Y-14110650D02*
X13470658Y-14091603D01*
X13470658Y-14091603D02*
X13470658Y-14082079D01*
X13470658Y-14082079D02*
X13480182Y-14063031D01*
X13480182Y-14063031D02*
X13489706Y-14053508D01*
X13489706Y-14053508D02*
X13508753Y-14043984D01*
X13508753Y-14043984D02*
X13546848Y-14043984D01*
X13546848Y-14043984D02*
X13565896Y-14053508D01*
X13565896Y-14053508D02*
X13575420Y-14063031D01*
X13575420Y-14063031D02*
X13584944Y-14082079D01*
X13584944Y-14082079D02*
X13584944Y-14091603D01*
X13584944Y-14091603D02*
X13575420Y-14110650D01*
X13575420Y-14110650D02*
X13565896Y-14120174D01*
X13565896Y-14120174D02*
X13546848Y-14129698D01*
X13546848Y-14129698D02*
X13508753Y-14129698D01*
X13508753Y-14129698D02*
X13489706Y-14139222D01*
X13489706Y-14139222D02*
X13480182Y-14148746D01*
X13480182Y-14148746D02*
X13470658Y-14167793D01*
X13470658Y-14167793D02*
X13470658Y-14205888D01*
X13470658Y-14205888D02*
X13480182Y-14224936D01*
X13480182Y-14224936D02*
X13489706Y-14234460D01*
X13489706Y-14234460D02*
X13508753Y-14243984D01*
X13508753Y-14243984D02*
X13546848Y-14243984D01*
X13546848Y-14243984D02*
X13565896Y-14234460D01*
X13565896Y-14234460D02*
X13575420Y-14224936D01*
X13575420Y-14224936D02*
X13584944Y-14205888D01*
X13584944Y-14205888D02*
X13584944Y-14167793D01*
X13584944Y-14167793D02*
X13575420Y-14148746D01*
X13575420Y-14148746D02*
X13565896Y-14139222D01*
X13565896Y-14139222D02*
X13546848Y-14129698D01*
X13661134Y-14043984D02*
X13661134Y-14082079D01*
X13737325Y-14043984D02*
X13737325Y-14082079D01*
X14032563Y-14320174D02*
X14023039Y-14310650D01*
X14023039Y-14310650D02*
X14003991Y-14282079D01*
X14003991Y-14282079D02*
X13994468Y-14263031D01*
X13994468Y-14263031D02*
X13984944Y-14234460D01*
X13984944Y-14234460D02*
X13975420Y-14186841D01*
X13975420Y-14186841D02*
X13975420Y-14148746D01*
X13975420Y-14148746D02*
X13984944Y-14101127D01*
X13984944Y-14101127D02*
X13994468Y-14072555D01*
X13994468Y-14072555D02*
X14003991Y-14053508D01*
X14003991Y-14053508D02*
X14023039Y-14024936D01*
X14023039Y-14024936D02*
X14032563Y-14015412D01*
X14213515Y-14243984D02*
X14099229Y-14243984D01*
X14156372Y-14243984D02*
X14156372Y-14043984D01*
X14156372Y-14043984D02*
X14137325Y-14072555D01*
X14137325Y-14072555D02*
X14118277Y-14091603D01*
X14118277Y-14091603D02*
X14099229Y-14101127D01*
X14327801Y-14129698D02*
X14308753Y-14120174D01*
X14308753Y-14120174D02*
X14299229Y-14110650D01*
X14299229Y-14110650D02*
X14289706Y-14091603D01*
X14289706Y-14091603D02*
X14289706Y-14082079D01*
X14289706Y-14082079D02*
X14299229Y-14063031D01*
X14299229Y-14063031D02*
X14308753Y-14053508D01*
X14308753Y-14053508D02*
X14327801Y-14043984D01*
X14327801Y-14043984D02*
X14365896Y-14043984D01*
X14365896Y-14043984D02*
X14384944Y-14053508D01*
X14384944Y-14053508D02*
X14394468Y-14063031D01*
X14394468Y-14063031D02*
X14403991Y-14082079D01*
X14403991Y-14082079D02*
X14403991Y-14091603D01*
X14403991Y-14091603D02*
X14394468Y-14110650D01*
X14394468Y-14110650D02*
X14384944Y-14120174D01*
X14384944Y-14120174D02*
X14365896Y-14129698D01*
X14365896Y-14129698D02*
X14327801Y-14129698D01*
X14327801Y-14129698D02*
X14308753Y-14139222D01*
X14308753Y-14139222D02*
X14299229Y-14148746D01*
X14299229Y-14148746D02*
X14289706Y-14167793D01*
X14289706Y-14167793D02*
X14289706Y-14205888D01*
X14289706Y-14205888D02*
X14299229Y-14224936D01*
X14299229Y-14224936D02*
X14308753Y-14234460D01*
X14308753Y-14234460D02*
X14327801Y-14243984D01*
X14327801Y-14243984D02*
X14365896Y-14243984D01*
X14365896Y-14243984D02*
X14384944Y-14234460D01*
X14384944Y-14234460D02*
X14394468Y-14224936D01*
X14394468Y-14224936D02*
X14403991Y-14205888D01*
X14403991Y-14205888D02*
X14403991Y-14167793D01*
X14403991Y-14167793D02*
X14394468Y-14148746D01*
X14394468Y-14148746D02*
X14384944Y-14139222D01*
X14384944Y-14139222D02*
X14365896Y-14129698D01*
X14470658Y-14043984D02*
X14594468Y-14043984D01*
X14594468Y-14043984D02*
X14527801Y-14120174D01*
X14527801Y-14120174D02*
X14556372Y-14120174D01*
X14556372Y-14120174D02*
X14575420Y-14129698D01*
X14575420Y-14129698D02*
X14584944Y-14139222D01*
X14584944Y-14139222D02*
X14594468Y-14158269D01*
X14594468Y-14158269D02*
X14594468Y-14205888D01*
X14594468Y-14205888D02*
X14584944Y-14224936D01*
X14584944Y-14224936D02*
X14575420Y-14234460D01*
X14575420Y-14234460D02*
X14556372Y-14243984D01*
X14556372Y-14243984D02*
X14499229Y-14243984D01*
X14499229Y-14243984D02*
X14480182Y-14234460D01*
X14480182Y-14234460D02*
X14470658Y-14224936D01*
X14832563Y-14243984D02*
X14832563Y-14043984D01*
X14918277Y-14243984D02*
X14918277Y-14139222D01*
X14918277Y-14139222D02*
X14908753Y-14120174D01*
X14908753Y-14120174D02*
X14889706Y-14110650D01*
X14889706Y-14110650D02*
X14861134Y-14110650D01*
X14861134Y-14110650D02*
X14842087Y-14120174D01*
X14842087Y-14120174D02*
X14832563Y-14129698D01*
X15042087Y-14243984D02*
X15023039Y-14234460D01*
X15023039Y-14234460D02*
X15013515Y-14224936D01*
X15013515Y-14224936D02*
X15003991Y-14205888D01*
X15003991Y-14205888D02*
X15003991Y-14148746D01*
X15003991Y-14148746D02*
X15013515Y-14129698D01*
X15013515Y-14129698D02*
X15023039Y-14120174D01*
X15023039Y-14120174D02*
X15042087Y-14110650D01*
X15042087Y-14110650D02*
X15070658Y-14110650D01*
X15070658Y-14110650D02*
X15089706Y-14120174D01*
X15089706Y-14120174D02*
X15099230Y-14129698D01*
X15099230Y-14129698D02*
X15108753Y-14148746D01*
X15108753Y-14148746D02*
X15108753Y-14205888D01*
X15108753Y-14205888D02*
X15099230Y-14224936D01*
X15099230Y-14224936D02*
X15089706Y-14234460D01*
X15089706Y-14234460D02*
X15070658Y-14243984D01*
X15070658Y-14243984D02*
X15042087Y-14243984D01*
X15223039Y-14243984D02*
X15203991Y-14234460D01*
X15203991Y-14234460D02*
X15194468Y-14215412D01*
X15194468Y-14215412D02*
X15194468Y-14043984D01*
X15375420Y-14234460D02*
X15356372Y-14243984D01*
X15356372Y-14243984D02*
X15318277Y-14243984D01*
X15318277Y-14243984D02*
X15299230Y-14234460D01*
X15299230Y-14234460D02*
X15289706Y-14215412D01*
X15289706Y-14215412D02*
X15289706Y-14139222D01*
X15289706Y-14139222D02*
X15299230Y-14120174D01*
X15299230Y-14120174D02*
X15318277Y-14110650D01*
X15318277Y-14110650D02*
X15356372Y-14110650D01*
X15356372Y-14110650D02*
X15375420Y-14120174D01*
X15375420Y-14120174D02*
X15384944Y-14139222D01*
X15384944Y-14139222D02*
X15384944Y-14158269D01*
X15384944Y-14158269D02*
X15289706Y-14177317D01*
X15461134Y-14234460D02*
X15480182Y-14243984D01*
X15480182Y-14243984D02*
X15518277Y-14243984D01*
X15518277Y-14243984D02*
X15537325Y-14234460D01*
X15537325Y-14234460D02*
X15546849Y-14215412D01*
X15546849Y-14215412D02*
X15546849Y-14205888D01*
X15546849Y-14205888D02*
X15537325Y-14186841D01*
X15537325Y-14186841D02*
X15518277Y-14177317D01*
X15518277Y-14177317D02*
X15489706Y-14177317D01*
X15489706Y-14177317D02*
X15470658Y-14167793D01*
X15470658Y-14167793D02*
X15461134Y-14148746D01*
X15461134Y-14148746D02*
X15461134Y-14139222D01*
X15461134Y-14139222D02*
X15470658Y-14120174D01*
X15470658Y-14120174D02*
X15489706Y-14110650D01*
X15489706Y-14110650D02*
X15518277Y-14110650D01*
X15518277Y-14110650D02*
X15537325Y-14120174D01*
X15613515Y-14320174D02*
X15623039Y-14310650D01*
X15623039Y-14310650D02*
X15642087Y-14282079D01*
X15642087Y-14282079D02*
X15651611Y-14263031D01*
X15651611Y-14263031D02*
X15661134Y-14234460D01*
X15661134Y-14234460D02*
X15670658Y-14186841D01*
X15670658Y-14186841D02*
X15670658Y-14148746D01*
X15670658Y-14148746D02*
X15661134Y-14101127D01*
X15661134Y-14101127D02*
X15651611Y-14072555D01*
X15651611Y-14072555D02*
X15642087Y-14053508D01*
X15642087Y-14053508D02*
X15623039Y-14024936D01*
X15623039Y-14024936D02*
X15613515Y-14015412D01*
D13*
X10457500Y-14416500D02*
G75*
G03*
X10457500Y-14416500I-20000J0D01*
G01*
D11*
X10756372Y-14307984D02*
X10775420Y-14307984D01*
X10775420Y-14307984D02*
X10794467Y-14317508D01*
X10794467Y-14317508D02*
X10803991Y-14327031D01*
X10803991Y-14327031D02*
X10813515Y-14346079D01*
X10813515Y-14346079D02*
X10823039Y-14384174D01*
X10823039Y-14384174D02*
X10823039Y-14431793D01*
X10823039Y-14431793D02*
X10813515Y-14469888D01*
X10813515Y-14469888D02*
X10803991Y-14488936D01*
X10803991Y-14488936D02*
X10794467Y-14498460D01*
X10794467Y-14498460D02*
X10775420Y-14507984D01*
X10775420Y-14507984D02*
X10756372Y-14507984D01*
X10756372Y-14507984D02*
X10737324Y-14498460D01*
X10737324Y-14498460D02*
X10727801Y-14488936D01*
X10727801Y-14488936D02*
X10718277Y-14469888D01*
X10718277Y-14469888D02*
X10708753Y-14431793D01*
X10708753Y-14431793D02*
X10708753Y-14384174D01*
X10708753Y-14384174D02*
X10718277Y-14346079D01*
X10718277Y-14346079D02*
X10727801Y-14327031D01*
X10727801Y-14327031D02*
X10737324Y-14317508D01*
X10737324Y-14317508D02*
X10756372Y-14307984D01*
X10908753Y-14488936D02*
X10918277Y-14498460D01*
X10918277Y-14498460D02*
X10908753Y-14507984D01*
X10908753Y-14507984D02*
X10899229Y-14498460D01*
X10899229Y-14498460D02*
X10908753Y-14488936D01*
X10908753Y-14488936D02*
X10908753Y-14507984D01*
X11089705Y-14374650D02*
X11089705Y-14507984D01*
X11042086Y-14298460D02*
X10994467Y-14441317D01*
X10994467Y-14441317D02*
X11118277Y-14441317D01*
X11232562Y-14307984D02*
X11251610Y-14307984D01*
X11251610Y-14307984D02*
X11270658Y-14317508D01*
X11270658Y-14317508D02*
X11280182Y-14327031D01*
X11280182Y-14327031D02*
X11289705Y-14346079D01*
X11289705Y-14346079D02*
X11299229Y-14384174D01*
X11299229Y-14384174D02*
X11299229Y-14431793D01*
X11299229Y-14431793D02*
X11289705Y-14469888D01*
X11289705Y-14469888D02*
X11280182Y-14488936D01*
X11280182Y-14488936D02*
X11270658Y-14498460D01*
X11270658Y-14498460D02*
X11251610Y-14507984D01*
X11251610Y-14507984D02*
X11232562Y-14507984D01*
X11232562Y-14507984D02*
X11213515Y-14498460D01*
X11213515Y-14498460D02*
X11203991Y-14488936D01*
X11203991Y-14488936D02*
X11194467Y-14469888D01*
X11194467Y-14469888D02*
X11184943Y-14431793D01*
X11184943Y-14431793D02*
X11184943Y-14384174D01*
X11184943Y-14384174D02*
X11194467Y-14346079D01*
X11194467Y-14346079D02*
X11203991Y-14327031D01*
X11203991Y-14327031D02*
X11213515Y-14317508D01*
X11213515Y-14317508D02*
X11232562Y-14307984D01*
X11423039Y-14307984D02*
X11442086Y-14307984D01*
X11442086Y-14307984D02*
X11461134Y-14317508D01*
X11461134Y-14317508D02*
X11470658Y-14327031D01*
X11470658Y-14327031D02*
X11480182Y-14346079D01*
X11480182Y-14346079D02*
X11489705Y-14384174D01*
X11489705Y-14384174D02*
X11489705Y-14431793D01*
X11489705Y-14431793D02*
X11480182Y-14469888D01*
X11480182Y-14469888D02*
X11470658Y-14488936D01*
X11470658Y-14488936D02*
X11461134Y-14498460D01*
X11461134Y-14498460D02*
X11442086Y-14507984D01*
X11442086Y-14507984D02*
X11423039Y-14507984D01*
X11423039Y-14507984D02*
X11403991Y-14498460D01*
X11403991Y-14498460D02*
X11394467Y-14488936D01*
X11394467Y-14488936D02*
X11384943Y-14469888D01*
X11384943Y-14469888D02*
X11375420Y-14431793D01*
X11375420Y-14431793D02*
X11375420Y-14384174D01*
X11375420Y-14384174D02*
X11384943Y-14346079D01*
X11384943Y-14346079D02*
X11394467Y-14327031D01*
X11394467Y-14327031D02*
X11403991Y-14317508D01*
X11403991Y-14317508D02*
X11423039Y-14307984D01*
X11575420Y-14507984D02*
X11575420Y-14374650D01*
X11575420Y-14393698D02*
X11584943Y-14384174D01*
X11584943Y-14384174D02*
X11603991Y-14374650D01*
X11603991Y-14374650D02*
X11632563Y-14374650D01*
X11632563Y-14374650D02*
X11651610Y-14384174D01*
X11651610Y-14384174D02*
X11661134Y-14403222D01*
X11661134Y-14403222D02*
X11661134Y-14507984D01*
X11661134Y-14403222D02*
X11670658Y-14384174D01*
X11670658Y-14384174D02*
X11689705Y-14374650D01*
X11689705Y-14374650D02*
X11718277Y-14374650D01*
X11718277Y-14374650D02*
X11737324Y-14384174D01*
X11737324Y-14384174D02*
X11746848Y-14403222D01*
X11746848Y-14403222D02*
X11746848Y-14507984D01*
X11842086Y-14507984D02*
X11842086Y-14374650D01*
X11842086Y-14393698D02*
X11851610Y-14384174D01*
X11851610Y-14384174D02*
X11870658Y-14374650D01*
X11870658Y-14374650D02*
X11899229Y-14374650D01*
X11899229Y-14374650D02*
X11918277Y-14384174D01*
X11918277Y-14384174D02*
X11927801Y-14403222D01*
X11927801Y-14403222D02*
X11927801Y-14507984D01*
X11927801Y-14403222D02*
X11937324Y-14384174D01*
X11937324Y-14384174D02*
X11956372Y-14374650D01*
X11956372Y-14374650D02*
X11984943Y-14374650D01*
X11984943Y-14374650D02*
X12003991Y-14384174D01*
X12003991Y-14384174D02*
X12013515Y-14403222D01*
X12013515Y-14403222D02*
X12013515Y-14507984D01*
X12403991Y-14298460D02*
X12232563Y-14555603D01*
X12661134Y-14307984D02*
X12680182Y-14307984D01*
X12680182Y-14307984D02*
X12699229Y-14317508D01*
X12699229Y-14317508D02*
X12708753Y-14327031D01*
X12708753Y-14327031D02*
X12718277Y-14346079D01*
X12718277Y-14346079D02*
X12727801Y-14384174D01*
X12727801Y-14384174D02*
X12727801Y-14431793D01*
X12727801Y-14431793D02*
X12718277Y-14469888D01*
X12718277Y-14469888D02*
X12708753Y-14488936D01*
X12708753Y-14488936D02*
X12699229Y-14498460D01*
X12699229Y-14498460D02*
X12680182Y-14507984D01*
X12680182Y-14507984D02*
X12661134Y-14507984D01*
X12661134Y-14507984D02*
X12642086Y-14498460D01*
X12642086Y-14498460D02*
X12632563Y-14488936D01*
X12632563Y-14488936D02*
X12623039Y-14469888D01*
X12623039Y-14469888D02*
X12613515Y-14431793D01*
X12613515Y-14431793D02*
X12613515Y-14384174D01*
X12613515Y-14384174D02*
X12623039Y-14346079D01*
X12623039Y-14346079D02*
X12632563Y-14327031D01*
X12632563Y-14327031D02*
X12642086Y-14317508D01*
X12642086Y-14317508D02*
X12661134Y-14307984D01*
X12813515Y-14488936D02*
X12823039Y-14498460D01*
X12823039Y-14498460D02*
X12813515Y-14507984D01*
X12813515Y-14507984D02*
X12803991Y-14498460D01*
X12803991Y-14498460D02*
X12813515Y-14488936D01*
X12813515Y-14488936D02*
X12813515Y-14507984D01*
X12946848Y-14307984D02*
X12965896Y-14307984D01*
X12965896Y-14307984D02*
X12984944Y-14317508D01*
X12984944Y-14317508D02*
X12994467Y-14327031D01*
X12994467Y-14327031D02*
X13003991Y-14346079D01*
X13003991Y-14346079D02*
X13013515Y-14384174D01*
X13013515Y-14384174D02*
X13013515Y-14431793D01*
X13013515Y-14431793D02*
X13003991Y-14469888D01*
X13003991Y-14469888D02*
X12994467Y-14488936D01*
X12994467Y-14488936D02*
X12984944Y-14498460D01*
X12984944Y-14498460D02*
X12965896Y-14507984D01*
X12965896Y-14507984D02*
X12946848Y-14507984D01*
X12946848Y-14507984D02*
X12927801Y-14498460D01*
X12927801Y-14498460D02*
X12918277Y-14488936D01*
X12918277Y-14488936D02*
X12908753Y-14469888D01*
X12908753Y-14469888D02*
X12899229Y-14431793D01*
X12899229Y-14431793D02*
X12899229Y-14384174D01*
X12899229Y-14384174D02*
X12908753Y-14346079D01*
X12908753Y-14346079D02*
X12918277Y-14327031D01*
X12918277Y-14327031D02*
X12927801Y-14317508D01*
X12927801Y-14317508D02*
X12946848Y-14307984D01*
X13203991Y-14507984D02*
X13089706Y-14507984D01*
X13146848Y-14507984D02*
X13146848Y-14307984D01*
X13146848Y-14307984D02*
X13127801Y-14336555D01*
X13127801Y-14336555D02*
X13108753Y-14355603D01*
X13108753Y-14355603D02*
X13089706Y-14365127D01*
X13384944Y-14307984D02*
X13289706Y-14307984D01*
X13289706Y-14307984D02*
X13280182Y-14403222D01*
X13280182Y-14403222D02*
X13289706Y-14393698D01*
X13289706Y-14393698D02*
X13308753Y-14384174D01*
X13308753Y-14384174D02*
X13356372Y-14384174D01*
X13356372Y-14384174D02*
X13375420Y-14393698D01*
X13375420Y-14393698D02*
X13384944Y-14403222D01*
X13384944Y-14403222D02*
X13394467Y-14422269D01*
X13394467Y-14422269D02*
X13394467Y-14469888D01*
X13394467Y-14469888D02*
X13384944Y-14488936D01*
X13384944Y-14488936D02*
X13375420Y-14498460D01*
X13375420Y-14498460D02*
X13356372Y-14507984D01*
X13356372Y-14507984D02*
X13308753Y-14507984D01*
X13308753Y-14507984D02*
X13289706Y-14498460D01*
X13289706Y-14498460D02*
X13280182Y-14488936D01*
X13461134Y-14307984D02*
X13594467Y-14307984D01*
X13594467Y-14307984D02*
X13508753Y-14507984D01*
X13661134Y-14307984D02*
X13661134Y-14346079D01*
X13737325Y-14307984D02*
X13737325Y-14346079D01*
X14032563Y-14584174D02*
X14023039Y-14574650D01*
X14023039Y-14574650D02*
X14003991Y-14546079D01*
X14003991Y-14546079D02*
X13994468Y-14527031D01*
X13994468Y-14527031D02*
X13984944Y-14498460D01*
X13984944Y-14498460D02*
X13975420Y-14450841D01*
X13975420Y-14450841D02*
X13975420Y-14412746D01*
X13975420Y-14412746D02*
X13984944Y-14365127D01*
X13984944Y-14365127D02*
X13994468Y-14336555D01*
X13994468Y-14336555D02*
X14003991Y-14317508D01*
X14003991Y-14317508D02*
X14023039Y-14288936D01*
X14023039Y-14288936D02*
X14032563Y-14279412D01*
X14099229Y-14327031D02*
X14108753Y-14317508D01*
X14108753Y-14317508D02*
X14127801Y-14307984D01*
X14127801Y-14307984D02*
X14175420Y-14307984D01*
X14175420Y-14307984D02*
X14194468Y-14317508D01*
X14194468Y-14317508D02*
X14203991Y-14327031D01*
X14203991Y-14327031D02*
X14213515Y-14346079D01*
X14213515Y-14346079D02*
X14213515Y-14365127D01*
X14213515Y-14365127D02*
X14203991Y-14393698D01*
X14203991Y-14393698D02*
X14089706Y-14507984D01*
X14089706Y-14507984D02*
X14213515Y-14507984D01*
X14280182Y-14307984D02*
X14403991Y-14307984D01*
X14403991Y-14307984D02*
X14337325Y-14384174D01*
X14337325Y-14384174D02*
X14365896Y-14384174D01*
X14365896Y-14384174D02*
X14384944Y-14393698D01*
X14384944Y-14393698D02*
X14394468Y-14403222D01*
X14394468Y-14403222D02*
X14403991Y-14422269D01*
X14403991Y-14422269D02*
X14403991Y-14469888D01*
X14403991Y-14469888D02*
X14394468Y-14488936D01*
X14394468Y-14488936D02*
X14384944Y-14498460D01*
X14384944Y-14498460D02*
X14365896Y-14507984D01*
X14365896Y-14507984D02*
X14308753Y-14507984D01*
X14308753Y-14507984D02*
X14289706Y-14498460D01*
X14289706Y-14498460D02*
X14280182Y-14488936D01*
X14642087Y-14507984D02*
X14642087Y-14307984D01*
X14727801Y-14507984D02*
X14727801Y-14403222D01*
X14727801Y-14403222D02*
X14718277Y-14384174D01*
X14718277Y-14384174D02*
X14699230Y-14374650D01*
X14699230Y-14374650D02*
X14670658Y-14374650D01*
X14670658Y-14374650D02*
X14651610Y-14384174D01*
X14651610Y-14384174D02*
X14642087Y-14393698D01*
X14851610Y-14507984D02*
X14832563Y-14498460D01*
X14832563Y-14498460D02*
X14823039Y-14488936D01*
X14823039Y-14488936D02*
X14813515Y-14469888D01*
X14813515Y-14469888D02*
X14813515Y-14412746D01*
X14813515Y-14412746D02*
X14823039Y-14393698D01*
X14823039Y-14393698D02*
X14832563Y-14384174D01*
X14832563Y-14384174D02*
X14851610Y-14374650D01*
X14851610Y-14374650D02*
X14880182Y-14374650D01*
X14880182Y-14374650D02*
X14899230Y-14384174D01*
X14899230Y-14384174D02*
X14908753Y-14393698D01*
X14908753Y-14393698D02*
X14918277Y-14412746D01*
X14918277Y-14412746D02*
X14918277Y-14469888D01*
X14918277Y-14469888D02*
X14908753Y-14488936D01*
X14908753Y-14488936D02*
X14899230Y-14498460D01*
X14899230Y-14498460D02*
X14880182Y-14507984D01*
X14880182Y-14507984D02*
X14851610Y-14507984D01*
X15032563Y-14507984D02*
X15013515Y-14498460D01*
X15013515Y-14498460D02*
X15003991Y-14479412D01*
X15003991Y-14479412D02*
X15003991Y-14307984D01*
X15184944Y-14498460D02*
X15165896Y-14507984D01*
X15165896Y-14507984D02*
X15127801Y-14507984D01*
X15127801Y-14507984D02*
X15108753Y-14498460D01*
X15108753Y-14498460D02*
X15099230Y-14479412D01*
X15099230Y-14479412D02*
X15099230Y-14403222D01*
X15099230Y-14403222D02*
X15108753Y-14384174D01*
X15108753Y-14384174D02*
X15127801Y-14374650D01*
X15127801Y-14374650D02*
X15165896Y-14374650D01*
X15165896Y-14374650D02*
X15184944Y-14384174D01*
X15184944Y-14384174D02*
X15194468Y-14403222D01*
X15194468Y-14403222D02*
X15194468Y-14422269D01*
X15194468Y-14422269D02*
X15099230Y-14441317D01*
X15270658Y-14498460D02*
X15289706Y-14507984D01*
X15289706Y-14507984D02*
X15327801Y-14507984D01*
X15327801Y-14507984D02*
X15346849Y-14498460D01*
X15346849Y-14498460D02*
X15356372Y-14479412D01*
X15356372Y-14479412D02*
X15356372Y-14469888D01*
X15356372Y-14469888D02*
X15346849Y-14450841D01*
X15346849Y-14450841D02*
X15327801Y-14441317D01*
X15327801Y-14441317D02*
X15299230Y-14441317D01*
X15299230Y-14441317D02*
X15280182Y-14431793D01*
X15280182Y-14431793D02*
X15270658Y-14412746D01*
X15270658Y-14412746D02*
X15270658Y-14403222D01*
X15270658Y-14403222D02*
X15280182Y-14384174D01*
X15280182Y-14384174D02*
X15299230Y-14374650D01*
X15299230Y-14374650D02*
X15327801Y-14374650D01*
X15327801Y-14374650D02*
X15346849Y-14384174D01*
X15423039Y-14584174D02*
X15432563Y-14574650D01*
X15432563Y-14574650D02*
X15451611Y-14546079D01*
X15451611Y-14546079D02*
X15461134Y-14527031D01*
X15461134Y-14527031D02*
X15470658Y-14498460D01*
X15470658Y-14498460D02*
X15480182Y-14450841D01*
X15480182Y-14450841D02*
X15480182Y-14412746D01*
X15480182Y-14412746D02*
X15470658Y-14365127D01*
X15470658Y-14365127D02*
X15461134Y-14336555D01*
X15461134Y-14336555D02*
X15451611Y-14317508D01*
X15451611Y-14317508D02*
X15432563Y-14288936D01*
X15432563Y-14288936D02*
X15423039Y-14279412D01*
D14*
X10417500Y-14640500D02*
X10417500Y-14720500D01*
X10377500Y-14680500D02*
X10457500Y-14680500D01*
D11*
X10756372Y-14571984D02*
X10775420Y-14571984D01*
X10775420Y-14571984D02*
X10794467Y-14581508D01*
X10794467Y-14581508D02*
X10803991Y-14591031D01*
X10803991Y-14591031D02*
X10813515Y-14610079D01*
X10813515Y-14610079D02*
X10823039Y-14648174D01*
X10823039Y-14648174D02*
X10823039Y-14695793D01*
X10823039Y-14695793D02*
X10813515Y-14733888D01*
X10813515Y-14733888D02*
X10803991Y-14752936D01*
X10803991Y-14752936D02*
X10794467Y-14762460D01*
X10794467Y-14762460D02*
X10775420Y-14771984D01*
X10775420Y-14771984D02*
X10756372Y-14771984D01*
X10756372Y-14771984D02*
X10737324Y-14762460D01*
X10737324Y-14762460D02*
X10727801Y-14752936D01*
X10727801Y-14752936D02*
X10718277Y-14733888D01*
X10718277Y-14733888D02*
X10708753Y-14695793D01*
X10708753Y-14695793D02*
X10708753Y-14648174D01*
X10708753Y-14648174D02*
X10718277Y-14610079D01*
X10718277Y-14610079D02*
X10727801Y-14591031D01*
X10727801Y-14591031D02*
X10737324Y-14581508D01*
X10737324Y-14581508D02*
X10756372Y-14571984D01*
X10908753Y-14752936D02*
X10918277Y-14762460D01*
X10918277Y-14762460D02*
X10908753Y-14771984D01*
X10908753Y-14771984D02*
X10899229Y-14762460D01*
X10899229Y-14762460D02*
X10908753Y-14752936D01*
X10908753Y-14752936D02*
X10908753Y-14771984D01*
X11032563Y-14657698D02*
X11013515Y-14648174D01*
X11013515Y-14648174D02*
X11003991Y-14638650D01*
X11003991Y-14638650D02*
X10994467Y-14619603D01*
X10994467Y-14619603D02*
X10994467Y-14610079D01*
X10994467Y-14610079D02*
X11003991Y-14591031D01*
X11003991Y-14591031D02*
X11013515Y-14581508D01*
X11013515Y-14581508D02*
X11032563Y-14571984D01*
X11032563Y-14571984D02*
X11070658Y-14571984D01*
X11070658Y-14571984D02*
X11089705Y-14581508D01*
X11089705Y-14581508D02*
X11099229Y-14591031D01*
X11099229Y-14591031D02*
X11108753Y-14610079D01*
X11108753Y-14610079D02*
X11108753Y-14619603D01*
X11108753Y-14619603D02*
X11099229Y-14638650D01*
X11099229Y-14638650D02*
X11089705Y-14648174D01*
X11089705Y-14648174D02*
X11070658Y-14657698D01*
X11070658Y-14657698D02*
X11032563Y-14657698D01*
X11032563Y-14657698D02*
X11013515Y-14667222D01*
X11013515Y-14667222D02*
X11003991Y-14676746D01*
X11003991Y-14676746D02*
X10994467Y-14695793D01*
X10994467Y-14695793D02*
X10994467Y-14733888D01*
X10994467Y-14733888D02*
X11003991Y-14752936D01*
X11003991Y-14752936D02*
X11013515Y-14762460D01*
X11013515Y-14762460D02*
X11032563Y-14771984D01*
X11032563Y-14771984D02*
X11070658Y-14771984D01*
X11070658Y-14771984D02*
X11089705Y-14762460D01*
X11089705Y-14762460D02*
X11099229Y-14752936D01*
X11099229Y-14752936D02*
X11108753Y-14733888D01*
X11108753Y-14733888D02*
X11108753Y-14695793D01*
X11108753Y-14695793D02*
X11099229Y-14676746D01*
X11099229Y-14676746D02*
X11089705Y-14667222D01*
X11089705Y-14667222D02*
X11070658Y-14657698D01*
X11232562Y-14571984D02*
X11251610Y-14571984D01*
X11251610Y-14571984D02*
X11270658Y-14581508D01*
X11270658Y-14581508D02*
X11280182Y-14591031D01*
X11280182Y-14591031D02*
X11289705Y-14610079D01*
X11289705Y-14610079D02*
X11299229Y-14648174D01*
X11299229Y-14648174D02*
X11299229Y-14695793D01*
X11299229Y-14695793D02*
X11289705Y-14733888D01*
X11289705Y-14733888D02*
X11280182Y-14752936D01*
X11280182Y-14752936D02*
X11270658Y-14762460D01*
X11270658Y-14762460D02*
X11251610Y-14771984D01*
X11251610Y-14771984D02*
X11232562Y-14771984D01*
X11232562Y-14771984D02*
X11213515Y-14762460D01*
X11213515Y-14762460D02*
X11203991Y-14752936D01*
X11203991Y-14752936D02*
X11194467Y-14733888D01*
X11194467Y-14733888D02*
X11184943Y-14695793D01*
X11184943Y-14695793D02*
X11184943Y-14648174D01*
X11184943Y-14648174D02*
X11194467Y-14610079D01*
X11194467Y-14610079D02*
X11203991Y-14591031D01*
X11203991Y-14591031D02*
X11213515Y-14581508D01*
X11213515Y-14581508D02*
X11232562Y-14571984D01*
X11423039Y-14571984D02*
X11442086Y-14571984D01*
X11442086Y-14571984D02*
X11461134Y-14581508D01*
X11461134Y-14581508D02*
X11470658Y-14591031D01*
X11470658Y-14591031D02*
X11480182Y-14610079D01*
X11480182Y-14610079D02*
X11489705Y-14648174D01*
X11489705Y-14648174D02*
X11489705Y-14695793D01*
X11489705Y-14695793D02*
X11480182Y-14733888D01*
X11480182Y-14733888D02*
X11470658Y-14752936D01*
X11470658Y-14752936D02*
X11461134Y-14762460D01*
X11461134Y-14762460D02*
X11442086Y-14771984D01*
X11442086Y-14771984D02*
X11423039Y-14771984D01*
X11423039Y-14771984D02*
X11403991Y-14762460D01*
X11403991Y-14762460D02*
X11394467Y-14752936D01*
X11394467Y-14752936D02*
X11384943Y-14733888D01*
X11384943Y-14733888D02*
X11375420Y-14695793D01*
X11375420Y-14695793D02*
X11375420Y-14648174D01*
X11375420Y-14648174D02*
X11384943Y-14610079D01*
X11384943Y-14610079D02*
X11394467Y-14591031D01*
X11394467Y-14591031D02*
X11403991Y-14581508D01*
X11403991Y-14581508D02*
X11423039Y-14571984D01*
X11575420Y-14771984D02*
X11575420Y-14638650D01*
X11575420Y-14657698D02*
X11584943Y-14648174D01*
X11584943Y-14648174D02*
X11603991Y-14638650D01*
X11603991Y-14638650D02*
X11632563Y-14638650D01*
X11632563Y-14638650D02*
X11651610Y-14648174D01*
X11651610Y-14648174D02*
X11661134Y-14667222D01*
X11661134Y-14667222D02*
X11661134Y-14771984D01*
X11661134Y-14667222D02*
X11670658Y-14648174D01*
X11670658Y-14648174D02*
X11689705Y-14638650D01*
X11689705Y-14638650D02*
X11718277Y-14638650D01*
X11718277Y-14638650D02*
X11737324Y-14648174D01*
X11737324Y-14648174D02*
X11746848Y-14667222D01*
X11746848Y-14667222D02*
X11746848Y-14771984D01*
X11842086Y-14771984D02*
X11842086Y-14638650D01*
X11842086Y-14657698D02*
X11851610Y-14648174D01*
X11851610Y-14648174D02*
X11870658Y-14638650D01*
X11870658Y-14638650D02*
X11899229Y-14638650D01*
X11899229Y-14638650D02*
X11918277Y-14648174D01*
X11918277Y-14648174D02*
X11927801Y-14667222D01*
X11927801Y-14667222D02*
X11927801Y-14771984D01*
X11927801Y-14667222D02*
X11937324Y-14648174D01*
X11937324Y-14648174D02*
X11956372Y-14638650D01*
X11956372Y-14638650D02*
X11984943Y-14638650D01*
X11984943Y-14638650D02*
X12003991Y-14648174D01*
X12003991Y-14648174D02*
X12013515Y-14667222D01*
X12013515Y-14667222D02*
X12013515Y-14771984D01*
X12403991Y-14562460D02*
X12232563Y-14819603D01*
X12661134Y-14571984D02*
X12680182Y-14571984D01*
X12680182Y-14571984D02*
X12699229Y-14581508D01*
X12699229Y-14581508D02*
X12708753Y-14591031D01*
X12708753Y-14591031D02*
X12718277Y-14610079D01*
X12718277Y-14610079D02*
X12727801Y-14648174D01*
X12727801Y-14648174D02*
X12727801Y-14695793D01*
X12727801Y-14695793D02*
X12718277Y-14733888D01*
X12718277Y-14733888D02*
X12708753Y-14752936D01*
X12708753Y-14752936D02*
X12699229Y-14762460D01*
X12699229Y-14762460D02*
X12680182Y-14771984D01*
X12680182Y-14771984D02*
X12661134Y-14771984D01*
X12661134Y-14771984D02*
X12642086Y-14762460D01*
X12642086Y-14762460D02*
X12632563Y-14752936D01*
X12632563Y-14752936D02*
X12623039Y-14733888D01*
X12623039Y-14733888D02*
X12613515Y-14695793D01*
X12613515Y-14695793D02*
X12613515Y-14648174D01*
X12613515Y-14648174D02*
X12623039Y-14610079D01*
X12623039Y-14610079D02*
X12632563Y-14591031D01*
X12632563Y-14591031D02*
X12642086Y-14581508D01*
X12642086Y-14581508D02*
X12661134Y-14571984D01*
X12813515Y-14752936D02*
X12823039Y-14762460D01*
X12823039Y-14762460D02*
X12813515Y-14771984D01*
X12813515Y-14771984D02*
X12803991Y-14762460D01*
X12803991Y-14762460D02*
X12813515Y-14752936D01*
X12813515Y-14752936D02*
X12813515Y-14771984D01*
X12946848Y-14571984D02*
X12965896Y-14571984D01*
X12965896Y-14571984D02*
X12984944Y-14581508D01*
X12984944Y-14581508D02*
X12994467Y-14591031D01*
X12994467Y-14591031D02*
X13003991Y-14610079D01*
X13003991Y-14610079D02*
X13013515Y-14648174D01*
X13013515Y-14648174D02*
X13013515Y-14695793D01*
X13013515Y-14695793D02*
X13003991Y-14733888D01*
X13003991Y-14733888D02*
X12994467Y-14752936D01*
X12994467Y-14752936D02*
X12984944Y-14762460D01*
X12984944Y-14762460D02*
X12965896Y-14771984D01*
X12965896Y-14771984D02*
X12946848Y-14771984D01*
X12946848Y-14771984D02*
X12927801Y-14762460D01*
X12927801Y-14762460D02*
X12918277Y-14752936D01*
X12918277Y-14752936D02*
X12908753Y-14733888D01*
X12908753Y-14733888D02*
X12899229Y-14695793D01*
X12899229Y-14695793D02*
X12899229Y-14648174D01*
X12899229Y-14648174D02*
X12908753Y-14610079D01*
X12908753Y-14610079D02*
X12918277Y-14591031D01*
X12918277Y-14591031D02*
X12927801Y-14581508D01*
X12927801Y-14581508D02*
X12946848Y-14571984D01*
X13080182Y-14571984D02*
X13203991Y-14571984D01*
X13203991Y-14571984D02*
X13137325Y-14648174D01*
X13137325Y-14648174D02*
X13165896Y-14648174D01*
X13165896Y-14648174D02*
X13184944Y-14657698D01*
X13184944Y-14657698D02*
X13194467Y-14667222D01*
X13194467Y-14667222D02*
X13203991Y-14686269D01*
X13203991Y-14686269D02*
X13203991Y-14733888D01*
X13203991Y-14733888D02*
X13194467Y-14752936D01*
X13194467Y-14752936D02*
X13184944Y-14762460D01*
X13184944Y-14762460D02*
X13165896Y-14771984D01*
X13165896Y-14771984D02*
X13108753Y-14771984D01*
X13108753Y-14771984D02*
X13089706Y-14762460D01*
X13089706Y-14762460D02*
X13080182Y-14752936D01*
X13394467Y-14771984D02*
X13280182Y-14771984D01*
X13337325Y-14771984D02*
X13337325Y-14571984D01*
X13337325Y-14571984D02*
X13318277Y-14600555D01*
X13318277Y-14600555D02*
X13299229Y-14619603D01*
X13299229Y-14619603D02*
X13280182Y-14629127D01*
X13575420Y-14571984D02*
X13480182Y-14571984D01*
X13480182Y-14571984D02*
X13470658Y-14667222D01*
X13470658Y-14667222D02*
X13480182Y-14657698D01*
X13480182Y-14657698D02*
X13499229Y-14648174D01*
X13499229Y-14648174D02*
X13546848Y-14648174D01*
X13546848Y-14648174D02*
X13565896Y-14657698D01*
X13565896Y-14657698D02*
X13575420Y-14667222D01*
X13575420Y-14667222D02*
X13584944Y-14686269D01*
X13584944Y-14686269D02*
X13584944Y-14733888D01*
X13584944Y-14733888D02*
X13575420Y-14752936D01*
X13575420Y-14752936D02*
X13565896Y-14762460D01*
X13565896Y-14762460D02*
X13546848Y-14771984D01*
X13546848Y-14771984D02*
X13499229Y-14771984D01*
X13499229Y-14771984D02*
X13480182Y-14762460D01*
X13480182Y-14762460D02*
X13470658Y-14752936D01*
X13661134Y-14571984D02*
X13661134Y-14610079D01*
X13737325Y-14571984D02*
X13737325Y-14610079D01*
X14032563Y-14848174D02*
X14023039Y-14838650D01*
X14023039Y-14838650D02*
X14003991Y-14810079D01*
X14003991Y-14810079D02*
X13994468Y-14791031D01*
X13994468Y-14791031D02*
X13984944Y-14762460D01*
X13984944Y-14762460D02*
X13975420Y-14714841D01*
X13975420Y-14714841D02*
X13975420Y-14676746D01*
X13975420Y-14676746D02*
X13984944Y-14629127D01*
X13984944Y-14629127D02*
X13994468Y-14600555D01*
X13994468Y-14600555D02*
X14003991Y-14581508D01*
X14003991Y-14581508D02*
X14023039Y-14552936D01*
X14023039Y-14552936D02*
X14032563Y-14543412D01*
X14194468Y-14638650D02*
X14194468Y-14771984D01*
X14146848Y-14562460D02*
X14099229Y-14705317D01*
X14099229Y-14705317D02*
X14223039Y-14705317D01*
X14384944Y-14571984D02*
X14346848Y-14571984D01*
X14346848Y-14571984D02*
X14327801Y-14581508D01*
X14327801Y-14581508D02*
X14318277Y-14591031D01*
X14318277Y-14591031D02*
X14299229Y-14619603D01*
X14299229Y-14619603D02*
X14289706Y-14657698D01*
X14289706Y-14657698D02*
X14289706Y-14733888D01*
X14289706Y-14733888D02*
X14299229Y-14752936D01*
X14299229Y-14752936D02*
X14308753Y-14762460D01*
X14308753Y-14762460D02*
X14327801Y-14771984D01*
X14327801Y-14771984D02*
X14365896Y-14771984D01*
X14365896Y-14771984D02*
X14384944Y-14762460D01*
X14384944Y-14762460D02*
X14394468Y-14752936D01*
X14394468Y-14752936D02*
X14403991Y-14733888D01*
X14403991Y-14733888D02*
X14403991Y-14686269D01*
X14403991Y-14686269D02*
X14394468Y-14667222D01*
X14394468Y-14667222D02*
X14384944Y-14657698D01*
X14384944Y-14657698D02*
X14365896Y-14648174D01*
X14365896Y-14648174D02*
X14327801Y-14648174D01*
X14327801Y-14648174D02*
X14308753Y-14657698D01*
X14308753Y-14657698D02*
X14299229Y-14667222D01*
X14299229Y-14667222D02*
X14289706Y-14686269D01*
X14642087Y-14771984D02*
X14642087Y-14571984D01*
X14727801Y-14771984D02*
X14727801Y-14667222D01*
X14727801Y-14667222D02*
X14718277Y-14648174D01*
X14718277Y-14648174D02*
X14699230Y-14638650D01*
X14699230Y-14638650D02*
X14670658Y-14638650D01*
X14670658Y-14638650D02*
X14651610Y-14648174D01*
X14651610Y-14648174D02*
X14642087Y-14657698D01*
X14851610Y-14771984D02*
X14832563Y-14762460D01*
X14832563Y-14762460D02*
X14823039Y-14752936D01*
X14823039Y-14752936D02*
X14813515Y-14733888D01*
X14813515Y-14733888D02*
X14813515Y-14676746D01*
X14813515Y-14676746D02*
X14823039Y-14657698D01*
X14823039Y-14657698D02*
X14832563Y-14648174D01*
X14832563Y-14648174D02*
X14851610Y-14638650D01*
X14851610Y-14638650D02*
X14880182Y-14638650D01*
X14880182Y-14638650D02*
X14899230Y-14648174D01*
X14899230Y-14648174D02*
X14908753Y-14657698D01*
X14908753Y-14657698D02*
X14918277Y-14676746D01*
X14918277Y-14676746D02*
X14918277Y-14733888D01*
X14918277Y-14733888D02*
X14908753Y-14752936D01*
X14908753Y-14752936D02*
X14899230Y-14762460D01*
X14899230Y-14762460D02*
X14880182Y-14771984D01*
X14880182Y-14771984D02*
X14851610Y-14771984D01*
X15032563Y-14771984D02*
X15013515Y-14762460D01*
X15013515Y-14762460D02*
X15003991Y-14743412D01*
X15003991Y-14743412D02*
X15003991Y-14571984D01*
X15184944Y-14762460D02*
X15165896Y-14771984D01*
X15165896Y-14771984D02*
X15127801Y-14771984D01*
X15127801Y-14771984D02*
X15108753Y-14762460D01*
X15108753Y-14762460D02*
X15099230Y-14743412D01*
X15099230Y-14743412D02*
X15099230Y-14667222D01*
X15099230Y-14667222D02*
X15108753Y-14648174D01*
X15108753Y-14648174D02*
X15127801Y-14638650D01*
X15127801Y-14638650D02*
X15165896Y-14638650D01*
X15165896Y-14638650D02*
X15184944Y-14648174D01*
X15184944Y-14648174D02*
X15194468Y-14667222D01*
X15194468Y-14667222D02*
X15194468Y-14686269D01*
X15194468Y-14686269D02*
X15099230Y-14705317D01*
X15270658Y-14762460D02*
X15289706Y-14771984D01*
X15289706Y-14771984D02*
X15327801Y-14771984D01*
X15327801Y-14771984D02*
X15346849Y-14762460D01*
X15346849Y-14762460D02*
X15356372Y-14743412D01*
X15356372Y-14743412D02*
X15356372Y-14733888D01*
X15356372Y-14733888D02*
X15346849Y-14714841D01*
X15346849Y-14714841D02*
X15327801Y-14705317D01*
X15327801Y-14705317D02*
X15299230Y-14705317D01*
X15299230Y-14705317D02*
X15280182Y-14695793D01*
X15280182Y-14695793D02*
X15270658Y-14676746D01*
X15270658Y-14676746D02*
X15270658Y-14667222D01*
X15270658Y-14667222D02*
X15280182Y-14648174D01*
X15280182Y-14648174D02*
X15299230Y-14638650D01*
X15299230Y-14638650D02*
X15327801Y-14638650D01*
X15327801Y-14638650D02*
X15346849Y-14648174D01*
X15423039Y-14848174D02*
X15432563Y-14838650D01*
X15432563Y-14838650D02*
X15451611Y-14810079D01*
X15451611Y-14810079D02*
X15461134Y-14791031D01*
X15461134Y-14791031D02*
X15470658Y-14762460D01*
X15470658Y-14762460D02*
X15480182Y-14714841D01*
X15480182Y-14714841D02*
X15480182Y-14676746D01*
X15480182Y-14676746D02*
X15470658Y-14629127D01*
X15470658Y-14629127D02*
X15461134Y-14600555D01*
X15461134Y-14600555D02*
X15451611Y-14581508D01*
X15451611Y-14581508D02*
X15432563Y-14552936D01*
X15432563Y-14552936D02*
X15423039Y-14543412D01*
D15*
X10442856Y-14979856D02*
X10442856Y-14909144D01*
X10372144Y-14909144D01*
X10372144Y-14979856D01*
X10442856Y-14979856D01*
D11*
X10823039Y-15035984D02*
X10708753Y-15035984D01*
X10765896Y-15035984D02*
X10765896Y-14835984D01*
X10765896Y-14835984D02*
X10746848Y-14864555D01*
X10746848Y-14864555D02*
X10727801Y-14883603D01*
X10727801Y-14883603D02*
X10708753Y-14893127D01*
X10908753Y-15016936D02*
X10918277Y-15026460D01*
X10918277Y-15026460D02*
X10908753Y-15035984D01*
X10908753Y-15035984D02*
X10899229Y-15026460D01*
X10899229Y-15026460D02*
X10908753Y-15016936D01*
X10908753Y-15016936D02*
X10908753Y-15035984D01*
X11042086Y-14835984D02*
X11061134Y-14835984D01*
X11061134Y-14835984D02*
X11080182Y-14845508D01*
X11080182Y-14845508D02*
X11089705Y-14855031D01*
X11089705Y-14855031D02*
X11099229Y-14874079D01*
X11099229Y-14874079D02*
X11108753Y-14912174D01*
X11108753Y-14912174D02*
X11108753Y-14959793D01*
X11108753Y-14959793D02*
X11099229Y-14997888D01*
X11099229Y-14997888D02*
X11089705Y-15016936D01*
X11089705Y-15016936D02*
X11080182Y-15026460D01*
X11080182Y-15026460D02*
X11061134Y-15035984D01*
X11061134Y-15035984D02*
X11042086Y-15035984D01*
X11042086Y-15035984D02*
X11023039Y-15026460D01*
X11023039Y-15026460D02*
X11013515Y-15016936D01*
X11013515Y-15016936D02*
X11003991Y-14997888D01*
X11003991Y-14997888D02*
X10994467Y-14959793D01*
X10994467Y-14959793D02*
X10994467Y-14912174D01*
X10994467Y-14912174D02*
X11003991Y-14874079D01*
X11003991Y-14874079D02*
X11013515Y-14855031D01*
X11013515Y-14855031D02*
X11023039Y-14845508D01*
X11023039Y-14845508D02*
X11042086Y-14835984D01*
X11232562Y-14835984D02*
X11251610Y-14835984D01*
X11251610Y-14835984D02*
X11270658Y-14845508D01*
X11270658Y-14845508D02*
X11280182Y-14855031D01*
X11280182Y-14855031D02*
X11289705Y-14874079D01*
X11289705Y-14874079D02*
X11299229Y-14912174D01*
X11299229Y-14912174D02*
X11299229Y-14959793D01*
X11299229Y-14959793D02*
X11289705Y-14997888D01*
X11289705Y-14997888D02*
X11280182Y-15016936D01*
X11280182Y-15016936D02*
X11270658Y-15026460D01*
X11270658Y-15026460D02*
X11251610Y-15035984D01*
X11251610Y-15035984D02*
X11232562Y-15035984D01*
X11232562Y-15035984D02*
X11213515Y-15026460D01*
X11213515Y-15026460D02*
X11203991Y-15016936D01*
X11203991Y-15016936D02*
X11194467Y-14997888D01*
X11194467Y-14997888D02*
X11184943Y-14959793D01*
X11184943Y-14959793D02*
X11184943Y-14912174D01*
X11184943Y-14912174D02*
X11194467Y-14874079D01*
X11194467Y-14874079D02*
X11203991Y-14855031D01*
X11203991Y-14855031D02*
X11213515Y-14845508D01*
X11213515Y-14845508D02*
X11232562Y-14835984D01*
X11423039Y-14835984D02*
X11442086Y-14835984D01*
X11442086Y-14835984D02*
X11461134Y-14845508D01*
X11461134Y-14845508D02*
X11470658Y-14855031D01*
X11470658Y-14855031D02*
X11480182Y-14874079D01*
X11480182Y-14874079D02*
X11489705Y-14912174D01*
X11489705Y-14912174D02*
X11489705Y-14959793D01*
X11489705Y-14959793D02*
X11480182Y-14997888D01*
X11480182Y-14997888D02*
X11470658Y-15016936D01*
X11470658Y-15016936D02*
X11461134Y-15026460D01*
X11461134Y-15026460D02*
X11442086Y-15035984D01*
X11442086Y-15035984D02*
X11423039Y-15035984D01*
X11423039Y-15035984D02*
X11403991Y-15026460D01*
X11403991Y-15026460D02*
X11394467Y-15016936D01*
X11394467Y-15016936D02*
X11384943Y-14997888D01*
X11384943Y-14997888D02*
X11375420Y-14959793D01*
X11375420Y-14959793D02*
X11375420Y-14912174D01*
X11375420Y-14912174D02*
X11384943Y-14874079D01*
X11384943Y-14874079D02*
X11394467Y-14855031D01*
X11394467Y-14855031D02*
X11403991Y-14845508D01*
X11403991Y-14845508D02*
X11423039Y-14835984D01*
X11575420Y-15035984D02*
X11575420Y-14902650D01*
X11575420Y-14921698D02*
X11584943Y-14912174D01*
X11584943Y-14912174D02*
X11603991Y-14902650D01*
X11603991Y-14902650D02*
X11632563Y-14902650D01*
X11632563Y-14902650D02*
X11651610Y-14912174D01*
X11651610Y-14912174D02*
X11661134Y-14931222D01*
X11661134Y-14931222D02*
X11661134Y-15035984D01*
X11661134Y-14931222D02*
X11670658Y-14912174D01*
X11670658Y-14912174D02*
X11689705Y-14902650D01*
X11689705Y-14902650D02*
X11718277Y-14902650D01*
X11718277Y-14902650D02*
X11737324Y-14912174D01*
X11737324Y-14912174D02*
X11746848Y-14931222D01*
X11746848Y-14931222D02*
X11746848Y-15035984D01*
X11842086Y-15035984D02*
X11842086Y-14902650D01*
X11842086Y-14921698D02*
X11851610Y-14912174D01*
X11851610Y-14912174D02*
X11870658Y-14902650D01*
X11870658Y-14902650D02*
X11899229Y-14902650D01*
X11899229Y-14902650D02*
X11918277Y-14912174D01*
X11918277Y-14912174D02*
X11927801Y-14931222D01*
X11927801Y-14931222D02*
X11927801Y-15035984D01*
X11927801Y-14931222D02*
X11937324Y-14912174D01*
X11937324Y-14912174D02*
X11956372Y-14902650D01*
X11956372Y-14902650D02*
X11984943Y-14902650D01*
X11984943Y-14902650D02*
X12003991Y-14912174D01*
X12003991Y-14912174D02*
X12013515Y-14931222D01*
X12013515Y-14931222D02*
X12013515Y-15035984D01*
X12403991Y-14826460D02*
X12232563Y-15083603D01*
X12661134Y-14835984D02*
X12680182Y-14835984D01*
X12680182Y-14835984D02*
X12699229Y-14845508D01*
X12699229Y-14845508D02*
X12708753Y-14855031D01*
X12708753Y-14855031D02*
X12718277Y-14874079D01*
X12718277Y-14874079D02*
X12727801Y-14912174D01*
X12727801Y-14912174D02*
X12727801Y-14959793D01*
X12727801Y-14959793D02*
X12718277Y-14997888D01*
X12718277Y-14997888D02*
X12708753Y-15016936D01*
X12708753Y-15016936D02*
X12699229Y-15026460D01*
X12699229Y-15026460D02*
X12680182Y-15035984D01*
X12680182Y-15035984D02*
X12661134Y-15035984D01*
X12661134Y-15035984D02*
X12642086Y-15026460D01*
X12642086Y-15026460D02*
X12632563Y-15016936D01*
X12632563Y-15016936D02*
X12623039Y-14997888D01*
X12623039Y-14997888D02*
X12613515Y-14959793D01*
X12613515Y-14959793D02*
X12613515Y-14912174D01*
X12613515Y-14912174D02*
X12623039Y-14874079D01*
X12623039Y-14874079D02*
X12632563Y-14855031D01*
X12632563Y-14855031D02*
X12642086Y-14845508D01*
X12642086Y-14845508D02*
X12661134Y-14835984D01*
X12813515Y-15016936D02*
X12823039Y-15026460D01*
X12823039Y-15026460D02*
X12813515Y-15035984D01*
X12813515Y-15035984D02*
X12803991Y-15026460D01*
X12803991Y-15026460D02*
X12813515Y-15016936D01*
X12813515Y-15016936D02*
X12813515Y-15035984D01*
X12946848Y-14835984D02*
X12965896Y-14835984D01*
X12965896Y-14835984D02*
X12984944Y-14845508D01*
X12984944Y-14845508D02*
X12994467Y-14855031D01*
X12994467Y-14855031D02*
X13003991Y-14874079D01*
X13003991Y-14874079D02*
X13013515Y-14912174D01*
X13013515Y-14912174D02*
X13013515Y-14959793D01*
X13013515Y-14959793D02*
X13003991Y-14997888D01*
X13003991Y-14997888D02*
X12994467Y-15016936D01*
X12994467Y-15016936D02*
X12984944Y-15026460D01*
X12984944Y-15026460D02*
X12965896Y-15035984D01*
X12965896Y-15035984D02*
X12946848Y-15035984D01*
X12946848Y-15035984D02*
X12927801Y-15026460D01*
X12927801Y-15026460D02*
X12918277Y-15016936D01*
X12918277Y-15016936D02*
X12908753Y-14997888D01*
X12908753Y-14997888D02*
X12899229Y-14959793D01*
X12899229Y-14959793D02*
X12899229Y-14912174D01*
X12899229Y-14912174D02*
X12908753Y-14874079D01*
X12908753Y-14874079D02*
X12918277Y-14855031D01*
X12918277Y-14855031D02*
X12927801Y-14845508D01*
X12927801Y-14845508D02*
X12946848Y-14835984D01*
X13080182Y-14835984D02*
X13203991Y-14835984D01*
X13203991Y-14835984D02*
X13137325Y-14912174D01*
X13137325Y-14912174D02*
X13165896Y-14912174D01*
X13165896Y-14912174D02*
X13184944Y-14921698D01*
X13184944Y-14921698D02*
X13194467Y-14931222D01*
X13194467Y-14931222D02*
X13203991Y-14950269D01*
X13203991Y-14950269D02*
X13203991Y-14997888D01*
X13203991Y-14997888D02*
X13194467Y-15016936D01*
X13194467Y-15016936D02*
X13184944Y-15026460D01*
X13184944Y-15026460D02*
X13165896Y-15035984D01*
X13165896Y-15035984D02*
X13108753Y-15035984D01*
X13108753Y-15035984D02*
X13089706Y-15026460D01*
X13089706Y-15026460D02*
X13080182Y-15016936D01*
X13299229Y-15035984D02*
X13337325Y-15035984D01*
X13337325Y-15035984D02*
X13356372Y-15026460D01*
X13356372Y-15026460D02*
X13365896Y-15016936D01*
X13365896Y-15016936D02*
X13384944Y-14988365D01*
X13384944Y-14988365D02*
X13394467Y-14950269D01*
X13394467Y-14950269D02*
X13394467Y-14874079D01*
X13394467Y-14874079D02*
X13384944Y-14855031D01*
X13384944Y-14855031D02*
X13375420Y-14845508D01*
X13375420Y-14845508D02*
X13356372Y-14835984D01*
X13356372Y-14835984D02*
X13318277Y-14835984D01*
X13318277Y-14835984D02*
X13299229Y-14845508D01*
X13299229Y-14845508D02*
X13289706Y-14855031D01*
X13289706Y-14855031D02*
X13280182Y-14874079D01*
X13280182Y-14874079D02*
X13280182Y-14921698D01*
X13280182Y-14921698D02*
X13289706Y-14940746D01*
X13289706Y-14940746D02*
X13299229Y-14950269D01*
X13299229Y-14950269D02*
X13318277Y-14959793D01*
X13318277Y-14959793D02*
X13356372Y-14959793D01*
X13356372Y-14959793D02*
X13375420Y-14950269D01*
X13375420Y-14950269D02*
X13384944Y-14940746D01*
X13384944Y-14940746D02*
X13394467Y-14921698D01*
X13565896Y-14902650D02*
X13565896Y-15035984D01*
X13518277Y-14826460D02*
X13470658Y-14969317D01*
X13470658Y-14969317D02*
X13594467Y-14969317D01*
X13661134Y-14835984D02*
X13661134Y-14874079D01*
X13737325Y-14835984D02*
X13737325Y-14874079D01*
X14032563Y-15112174D02*
X14023039Y-15102650D01*
X14023039Y-15102650D02*
X14003991Y-15074079D01*
X14003991Y-15074079D02*
X13994468Y-15055031D01*
X13994468Y-15055031D02*
X13984944Y-15026460D01*
X13984944Y-15026460D02*
X13975420Y-14978841D01*
X13975420Y-14978841D02*
X13975420Y-14940746D01*
X13975420Y-14940746D02*
X13984944Y-14893127D01*
X13984944Y-14893127D02*
X13994468Y-14864555D01*
X13994468Y-14864555D02*
X14003991Y-14845508D01*
X14003991Y-14845508D02*
X14023039Y-14816936D01*
X14023039Y-14816936D02*
X14032563Y-14807412D01*
X14137325Y-14921698D02*
X14118277Y-14912174D01*
X14118277Y-14912174D02*
X14108753Y-14902650D01*
X14108753Y-14902650D02*
X14099229Y-14883603D01*
X14099229Y-14883603D02*
X14099229Y-14874079D01*
X14099229Y-14874079D02*
X14108753Y-14855031D01*
X14108753Y-14855031D02*
X14118277Y-14845508D01*
X14118277Y-14845508D02*
X14137325Y-14835984D01*
X14137325Y-14835984D02*
X14175420Y-14835984D01*
X14175420Y-14835984D02*
X14194468Y-14845508D01*
X14194468Y-14845508D02*
X14203991Y-14855031D01*
X14203991Y-14855031D02*
X14213515Y-14874079D01*
X14213515Y-14874079D02*
X14213515Y-14883603D01*
X14213515Y-14883603D02*
X14203991Y-14902650D01*
X14203991Y-14902650D02*
X14194468Y-14912174D01*
X14194468Y-14912174D02*
X14175420Y-14921698D01*
X14175420Y-14921698D02*
X14137325Y-14921698D01*
X14137325Y-14921698D02*
X14118277Y-14931222D01*
X14118277Y-14931222D02*
X14108753Y-14940746D01*
X14108753Y-14940746D02*
X14099229Y-14959793D01*
X14099229Y-14959793D02*
X14099229Y-14997888D01*
X14099229Y-14997888D02*
X14108753Y-15016936D01*
X14108753Y-15016936D02*
X14118277Y-15026460D01*
X14118277Y-15026460D02*
X14137325Y-15035984D01*
X14137325Y-15035984D02*
X14175420Y-15035984D01*
X14175420Y-15035984D02*
X14194468Y-15026460D01*
X14194468Y-15026460D02*
X14203991Y-15016936D01*
X14203991Y-15016936D02*
X14213515Y-14997888D01*
X14213515Y-14997888D02*
X14213515Y-14959793D01*
X14213515Y-14959793D02*
X14203991Y-14940746D01*
X14203991Y-14940746D02*
X14194468Y-14931222D01*
X14194468Y-14931222D02*
X14175420Y-14921698D01*
X14280182Y-14835984D02*
X14403991Y-14835984D01*
X14403991Y-14835984D02*
X14337325Y-14912174D01*
X14337325Y-14912174D02*
X14365896Y-14912174D01*
X14365896Y-14912174D02*
X14384944Y-14921698D01*
X14384944Y-14921698D02*
X14394468Y-14931222D01*
X14394468Y-14931222D02*
X14403991Y-14950269D01*
X14403991Y-14950269D02*
X14403991Y-14997888D01*
X14403991Y-14997888D02*
X14394468Y-15016936D01*
X14394468Y-15016936D02*
X14384944Y-15026460D01*
X14384944Y-15026460D02*
X14365896Y-15035984D01*
X14365896Y-15035984D02*
X14308753Y-15035984D01*
X14308753Y-15035984D02*
X14289706Y-15026460D01*
X14289706Y-15026460D02*
X14280182Y-15016936D01*
X14642087Y-15035984D02*
X14642087Y-14835984D01*
X14727801Y-15035984D02*
X14727801Y-14931222D01*
X14727801Y-14931222D02*
X14718277Y-14912174D01*
X14718277Y-14912174D02*
X14699230Y-14902650D01*
X14699230Y-14902650D02*
X14670658Y-14902650D01*
X14670658Y-14902650D02*
X14651610Y-14912174D01*
X14651610Y-14912174D02*
X14642087Y-14921698D01*
X14851610Y-15035984D02*
X14832563Y-15026460D01*
X14832563Y-15026460D02*
X14823039Y-15016936D01*
X14823039Y-15016936D02*
X14813515Y-14997888D01*
X14813515Y-14997888D02*
X14813515Y-14940746D01*
X14813515Y-14940746D02*
X14823039Y-14921698D01*
X14823039Y-14921698D02*
X14832563Y-14912174D01*
X14832563Y-14912174D02*
X14851610Y-14902650D01*
X14851610Y-14902650D02*
X14880182Y-14902650D01*
X14880182Y-14902650D02*
X14899230Y-14912174D01*
X14899230Y-14912174D02*
X14908753Y-14921698D01*
X14908753Y-14921698D02*
X14918277Y-14940746D01*
X14918277Y-14940746D02*
X14918277Y-14997888D01*
X14918277Y-14997888D02*
X14908753Y-15016936D01*
X14908753Y-15016936D02*
X14899230Y-15026460D01*
X14899230Y-15026460D02*
X14880182Y-15035984D01*
X14880182Y-15035984D02*
X14851610Y-15035984D01*
X15032563Y-15035984D02*
X15013515Y-15026460D01*
X15013515Y-15026460D02*
X15003991Y-15007412D01*
X15003991Y-15007412D02*
X15003991Y-14835984D01*
X15184944Y-15026460D02*
X15165896Y-15035984D01*
X15165896Y-15035984D02*
X15127801Y-15035984D01*
X15127801Y-15035984D02*
X15108753Y-15026460D01*
X15108753Y-15026460D02*
X15099230Y-15007412D01*
X15099230Y-15007412D02*
X15099230Y-14931222D01*
X15099230Y-14931222D02*
X15108753Y-14912174D01*
X15108753Y-14912174D02*
X15127801Y-14902650D01*
X15127801Y-14902650D02*
X15165896Y-14902650D01*
X15165896Y-14902650D02*
X15184944Y-14912174D01*
X15184944Y-14912174D02*
X15194468Y-14931222D01*
X15194468Y-14931222D02*
X15194468Y-14950269D01*
X15194468Y-14950269D02*
X15099230Y-14969317D01*
X15270658Y-15026460D02*
X15289706Y-15035984D01*
X15289706Y-15035984D02*
X15327801Y-15035984D01*
X15327801Y-15035984D02*
X15346849Y-15026460D01*
X15346849Y-15026460D02*
X15356372Y-15007412D01*
X15356372Y-15007412D02*
X15356372Y-14997888D01*
X15356372Y-14997888D02*
X15346849Y-14978841D01*
X15346849Y-14978841D02*
X15327801Y-14969317D01*
X15327801Y-14969317D02*
X15299230Y-14969317D01*
X15299230Y-14969317D02*
X15280182Y-14959793D01*
X15280182Y-14959793D02*
X15270658Y-14940746D01*
X15270658Y-14940746D02*
X15270658Y-14931222D01*
X15270658Y-14931222D02*
X15280182Y-14912174D01*
X15280182Y-14912174D02*
X15299230Y-14902650D01*
X15299230Y-14902650D02*
X15327801Y-14902650D01*
X15327801Y-14902650D02*
X15346849Y-14912174D01*
X15594468Y-14959793D02*
X15746849Y-14959793D01*
X15670658Y-15035984D02*
X15670658Y-14883603D01*
X16080182Y-14902650D02*
X16080182Y-15035984D01*
X16032563Y-14826460D02*
X15984944Y-14969317D01*
X15984944Y-14969317D02*
X16108753Y-14969317D01*
X16327801Y-15026460D02*
X16346849Y-15035984D01*
X16346849Y-15035984D02*
X16384944Y-15035984D01*
X16384944Y-15035984D02*
X16403992Y-15026460D01*
X16403992Y-15026460D02*
X16413515Y-15007412D01*
X16413515Y-15007412D02*
X16413515Y-14997888D01*
X16413515Y-14997888D02*
X16403992Y-14978841D01*
X16403992Y-14978841D02*
X16384944Y-14969317D01*
X16384944Y-14969317D02*
X16356373Y-14969317D01*
X16356373Y-14969317D02*
X16337325Y-14959793D01*
X16337325Y-14959793D02*
X16327801Y-14940746D01*
X16327801Y-14940746D02*
X16327801Y-14931222D01*
X16327801Y-14931222D02*
X16337325Y-14912174D01*
X16337325Y-14912174D02*
X16356373Y-14902650D01*
X16356373Y-14902650D02*
X16384944Y-14902650D01*
X16384944Y-14902650D02*
X16403992Y-14912174D01*
X16527801Y-15035984D02*
X16508754Y-15026460D01*
X16508754Y-15026460D02*
X16499230Y-15007412D01*
X16499230Y-15007412D02*
X16499230Y-14835984D01*
X16632563Y-15035984D02*
X16613515Y-15026460D01*
X16613515Y-15026460D02*
X16603992Y-15016936D01*
X16603992Y-15016936D02*
X16594468Y-14997888D01*
X16594468Y-14997888D02*
X16594468Y-14940746D01*
X16594468Y-14940746D02*
X16603992Y-14921698D01*
X16603992Y-14921698D02*
X16613515Y-14912174D01*
X16613515Y-14912174D02*
X16632563Y-14902650D01*
X16632563Y-14902650D02*
X16661135Y-14902650D01*
X16661135Y-14902650D02*
X16680182Y-14912174D01*
X16680182Y-14912174D02*
X16689706Y-14921698D01*
X16689706Y-14921698D02*
X16699230Y-14940746D01*
X16699230Y-14940746D02*
X16699230Y-14997888D01*
X16699230Y-14997888D02*
X16689706Y-15016936D01*
X16689706Y-15016936D02*
X16680182Y-15026460D01*
X16680182Y-15026460D02*
X16661135Y-15035984D01*
X16661135Y-15035984D02*
X16632563Y-15035984D01*
X16756373Y-14902650D02*
X16832563Y-14902650D01*
X16784944Y-14835984D02*
X16784944Y-15007412D01*
X16784944Y-15007412D02*
X16794468Y-15026460D01*
X16794468Y-15026460D02*
X16813516Y-15035984D01*
X16813516Y-15035984D02*
X16832563Y-15035984D01*
X16889706Y-15026460D02*
X16908754Y-15035984D01*
X16908754Y-15035984D02*
X16946849Y-15035984D01*
X16946849Y-15035984D02*
X16965897Y-15026460D01*
X16965897Y-15026460D02*
X16975420Y-15007412D01*
X16975420Y-15007412D02*
X16975420Y-14997888D01*
X16975420Y-14997888D02*
X16965897Y-14978841D01*
X16965897Y-14978841D02*
X16946849Y-14969317D01*
X16946849Y-14969317D02*
X16918277Y-14969317D01*
X16918277Y-14969317D02*
X16899230Y-14959793D01*
X16899230Y-14959793D02*
X16889706Y-14940746D01*
X16889706Y-14940746D02*
X16889706Y-14931222D01*
X16889706Y-14931222D02*
X16899230Y-14912174D01*
X16899230Y-14912174D02*
X16918277Y-14902650D01*
X16918277Y-14902650D02*
X16946849Y-14902650D01*
X16946849Y-14902650D02*
X16965897Y-14912174D01*
X17042087Y-15112174D02*
X17051611Y-15102650D01*
X17051611Y-15102650D02*
X17070658Y-15074079D01*
X17070658Y-15074079D02*
X17080182Y-15055031D01*
X17080182Y-15055031D02*
X17089706Y-15026460D01*
X17089706Y-15026460D02*
X17099230Y-14978841D01*
X17099230Y-14978841D02*
X17099230Y-14940746D01*
X17099230Y-14940746D02*
X17089706Y-14893127D01*
X17089706Y-14893127D02*
X17080182Y-14864555D01*
X17080182Y-14864555D02*
X17070658Y-14845508D01*
X17070658Y-14845508D02*
X17051611Y-14816936D01*
X17051611Y-14816936D02*
X17042087Y-14807412D01*
D16*
X10402500Y-15263500D02*
X10457500Y-15208500D01*
X10402500Y-15153500D01*
X10347500Y-15208500D01*
X10402500Y-15263500D01*
D11*
X10823039Y-15299984D02*
X10708753Y-15299984D01*
X10765896Y-15299984D02*
X10765896Y-15099984D01*
X10765896Y-15099984D02*
X10746848Y-15128555D01*
X10746848Y-15128555D02*
X10727801Y-15147603D01*
X10727801Y-15147603D02*
X10708753Y-15157127D01*
X10908753Y-15280936D02*
X10918277Y-15290460D01*
X10918277Y-15290460D02*
X10908753Y-15299984D01*
X10908753Y-15299984D02*
X10899229Y-15290460D01*
X10899229Y-15290460D02*
X10908753Y-15280936D01*
X10908753Y-15280936D02*
X10908753Y-15299984D01*
X11108753Y-15299984D02*
X10994467Y-15299984D01*
X11051610Y-15299984D02*
X11051610Y-15099984D01*
X11051610Y-15099984D02*
X11032563Y-15128555D01*
X11032563Y-15128555D02*
X11013515Y-15147603D01*
X11013515Y-15147603D02*
X10994467Y-15157127D01*
X11232562Y-15099984D02*
X11251610Y-15099984D01*
X11251610Y-15099984D02*
X11270658Y-15109508D01*
X11270658Y-15109508D02*
X11280182Y-15119031D01*
X11280182Y-15119031D02*
X11289705Y-15138079D01*
X11289705Y-15138079D02*
X11299229Y-15176174D01*
X11299229Y-15176174D02*
X11299229Y-15223793D01*
X11299229Y-15223793D02*
X11289705Y-15261888D01*
X11289705Y-15261888D02*
X11280182Y-15280936D01*
X11280182Y-15280936D02*
X11270658Y-15290460D01*
X11270658Y-15290460D02*
X11251610Y-15299984D01*
X11251610Y-15299984D02*
X11232562Y-15299984D01*
X11232562Y-15299984D02*
X11213515Y-15290460D01*
X11213515Y-15290460D02*
X11203991Y-15280936D01*
X11203991Y-15280936D02*
X11194467Y-15261888D01*
X11194467Y-15261888D02*
X11184943Y-15223793D01*
X11184943Y-15223793D02*
X11184943Y-15176174D01*
X11184943Y-15176174D02*
X11194467Y-15138079D01*
X11194467Y-15138079D02*
X11203991Y-15119031D01*
X11203991Y-15119031D02*
X11213515Y-15109508D01*
X11213515Y-15109508D02*
X11232562Y-15099984D01*
X11423039Y-15099984D02*
X11442086Y-15099984D01*
X11442086Y-15099984D02*
X11461134Y-15109508D01*
X11461134Y-15109508D02*
X11470658Y-15119031D01*
X11470658Y-15119031D02*
X11480182Y-15138079D01*
X11480182Y-15138079D02*
X11489705Y-15176174D01*
X11489705Y-15176174D02*
X11489705Y-15223793D01*
X11489705Y-15223793D02*
X11480182Y-15261888D01*
X11480182Y-15261888D02*
X11470658Y-15280936D01*
X11470658Y-15280936D02*
X11461134Y-15290460D01*
X11461134Y-15290460D02*
X11442086Y-15299984D01*
X11442086Y-15299984D02*
X11423039Y-15299984D01*
X11423039Y-15299984D02*
X11403991Y-15290460D01*
X11403991Y-15290460D02*
X11394467Y-15280936D01*
X11394467Y-15280936D02*
X11384943Y-15261888D01*
X11384943Y-15261888D02*
X11375420Y-15223793D01*
X11375420Y-15223793D02*
X11375420Y-15176174D01*
X11375420Y-15176174D02*
X11384943Y-15138079D01*
X11384943Y-15138079D02*
X11394467Y-15119031D01*
X11394467Y-15119031D02*
X11403991Y-15109508D01*
X11403991Y-15109508D02*
X11423039Y-15099984D01*
X11575420Y-15299984D02*
X11575420Y-15166650D01*
X11575420Y-15185698D02*
X11584943Y-15176174D01*
X11584943Y-15176174D02*
X11603991Y-15166650D01*
X11603991Y-15166650D02*
X11632563Y-15166650D01*
X11632563Y-15166650D02*
X11651610Y-15176174D01*
X11651610Y-15176174D02*
X11661134Y-15195222D01*
X11661134Y-15195222D02*
X11661134Y-15299984D01*
X11661134Y-15195222D02*
X11670658Y-15176174D01*
X11670658Y-15176174D02*
X11689705Y-15166650D01*
X11689705Y-15166650D02*
X11718277Y-15166650D01*
X11718277Y-15166650D02*
X11737324Y-15176174D01*
X11737324Y-15176174D02*
X11746848Y-15195222D01*
X11746848Y-15195222D02*
X11746848Y-15299984D01*
X11842086Y-15299984D02*
X11842086Y-15166650D01*
X11842086Y-15185698D02*
X11851610Y-15176174D01*
X11851610Y-15176174D02*
X11870658Y-15166650D01*
X11870658Y-15166650D02*
X11899229Y-15166650D01*
X11899229Y-15166650D02*
X11918277Y-15176174D01*
X11918277Y-15176174D02*
X11927801Y-15195222D01*
X11927801Y-15195222D02*
X11927801Y-15299984D01*
X11927801Y-15195222D02*
X11937324Y-15176174D01*
X11937324Y-15176174D02*
X11956372Y-15166650D01*
X11956372Y-15166650D02*
X11984943Y-15166650D01*
X11984943Y-15166650D02*
X12003991Y-15176174D01*
X12003991Y-15176174D02*
X12013515Y-15195222D01*
X12013515Y-15195222D02*
X12013515Y-15299984D01*
X12403991Y-15090460D02*
X12232563Y-15347603D01*
X12661134Y-15099984D02*
X12680182Y-15099984D01*
X12680182Y-15099984D02*
X12699229Y-15109508D01*
X12699229Y-15109508D02*
X12708753Y-15119031D01*
X12708753Y-15119031D02*
X12718277Y-15138079D01*
X12718277Y-15138079D02*
X12727801Y-15176174D01*
X12727801Y-15176174D02*
X12727801Y-15223793D01*
X12727801Y-15223793D02*
X12718277Y-15261888D01*
X12718277Y-15261888D02*
X12708753Y-15280936D01*
X12708753Y-15280936D02*
X12699229Y-15290460D01*
X12699229Y-15290460D02*
X12680182Y-15299984D01*
X12680182Y-15299984D02*
X12661134Y-15299984D01*
X12661134Y-15299984D02*
X12642086Y-15290460D01*
X12642086Y-15290460D02*
X12632563Y-15280936D01*
X12632563Y-15280936D02*
X12623039Y-15261888D01*
X12623039Y-15261888D02*
X12613515Y-15223793D01*
X12613515Y-15223793D02*
X12613515Y-15176174D01*
X12613515Y-15176174D02*
X12623039Y-15138079D01*
X12623039Y-15138079D02*
X12632563Y-15119031D01*
X12632563Y-15119031D02*
X12642086Y-15109508D01*
X12642086Y-15109508D02*
X12661134Y-15099984D01*
X12813515Y-15280936D02*
X12823039Y-15290460D01*
X12823039Y-15290460D02*
X12813515Y-15299984D01*
X12813515Y-15299984D02*
X12803991Y-15290460D01*
X12803991Y-15290460D02*
X12813515Y-15280936D01*
X12813515Y-15280936D02*
X12813515Y-15299984D01*
X12946848Y-15099984D02*
X12965896Y-15099984D01*
X12965896Y-15099984D02*
X12984944Y-15109508D01*
X12984944Y-15109508D02*
X12994467Y-15119031D01*
X12994467Y-15119031D02*
X13003991Y-15138079D01*
X13003991Y-15138079D02*
X13013515Y-15176174D01*
X13013515Y-15176174D02*
X13013515Y-15223793D01*
X13013515Y-15223793D02*
X13003991Y-15261888D01*
X13003991Y-15261888D02*
X12994467Y-15280936D01*
X12994467Y-15280936D02*
X12984944Y-15290460D01*
X12984944Y-15290460D02*
X12965896Y-15299984D01*
X12965896Y-15299984D02*
X12946848Y-15299984D01*
X12946848Y-15299984D02*
X12927801Y-15290460D01*
X12927801Y-15290460D02*
X12918277Y-15280936D01*
X12918277Y-15280936D02*
X12908753Y-15261888D01*
X12908753Y-15261888D02*
X12899229Y-15223793D01*
X12899229Y-15223793D02*
X12899229Y-15176174D01*
X12899229Y-15176174D02*
X12908753Y-15138079D01*
X12908753Y-15138079D02*
X12918277Y-15119031D01*
X12918277Y-15119031D02*
X12927801Y-15109508D01*
X12927801Y-15109508D02*
X12946848Y-15099984D01*
X13184944Y-15166650D02*
X13184944Y-15299984D01*
X13137325Y-15090460D02*
X13089706Y-15233317D01*
X13089706Y-15233317D02*
X13213515Y-15233317D01*
X13270658Y-15099984D02*
X13394467Y-15099984D01*
X13394467Y-15099984D02*
X13327801Y-15176174D01*
X13327801Y-15176174D02*
X13356372Y-15176174D01*
X13356372Y-15176174D02*
X13375420Y-15185698D01*
X13375420Y-15185698D02*
X13384944Y-15195222D01*
X13384944Y-15195222D02*
X13394467Y-15214269D01*
X13394467Y-15214269D02*
X13394467Y-15261888D01*
X13394467Y-15261888D02*
X13384944Y-15280936D01*
X13384944Y-15280936D02*
X13375420Y-15290460D01*
X13375420Y-15290460D02*
X13356372Y-15299984D01*
X13356372Y-15299984D02*
X13299229Y-15299984D01*
X13299229Y-15299984D02*
X13280182Y-15290460D01*
X13280182Y-15290460D02*
X13270658Y-15280936D01*
X13461134Y-15099984D02*
X13584944Y-15099984D01*
X13584944Y-15099984D02*
X13518277Y-15176174D01*
X13518277Y-15176174D02*
X13546848Y-15176174D01*
X13546848Y-15176174D02*
X13565896Y-15185698D01*
X13565896Y-15185698D02*
X13575420Y-15195222D01*
X13575420Y-15195222D02*
X13584944Y-15214269D01*
X13584944Y-15214269D02*
X13584944Y-15261888D01*
X13584944Y-15261888D02*
X13575420Y-15280936D01*
X13575420Y-15280936D02*
X13565896Y-15290460D01*
X13565896Y-15290460D02*
X13546848Y-15299984D01*
X13546848Y-15299984D02*
X13489706Y-15299984D01*
X13489706Y-15299984D02*
X13470658Y-15290460D01*
X13470658Y-15290460D02*
X13461134Y-15280936D01*
X13661134Y-15099984D02*
X13661134Y-15138079D01*
X13737325Y-15099984D02*
X13737325Y-15138079D01*
X14032563Y-15376174D02*
X14023039Y-15366650D01*
X14023039Y-15366650D02*
X14003991Y-15338079D01*
X14003991Y-15338079D02*
X13994468Y-15319031D01*
X13994468Y-15319031D02*
X13984944Y-15290460D01*
X13984944Y-15290460D02*
X13975420Y-15242841D01*
X13975420Y-15242841D02*
X13975420Y-15204746D01*
X13975420Y-15204746D02*
X13984944Y-15157127D01*
X13984944Y-15157127D02*
X13994468Y-15128555D01*
X13994468Y-15128555D02*
X14003991Y-15109508D01*
X14003991Y-15109508D02*
X14023039Y-15080936D01*
X14023039Y-15080936D02*
X14032563Y-15071412D01*
X14137325Y-15185698D02*
X14118277Y-15176174D01*
X14118277Y-15176174D02*
X14108753Y-15166650D01*
X14108753Y-15166650D02*
X14099229Y-15147603D01*
X14099229Y-15147603D02*
X14099229Y-15138079D01*
X14099229Y-15138079D02*
X14108753Y-15119031D01*
X14108753Y-15119031D02*
X14118277Y-15109508D01*
X14118277Y-15109508D02*
X14137325Y-15099984D01*
X14137325Y-15099984D02*
X14175420Y-15099984D01*
X14175420Y-15099984D02*
X14194468Y-15109508D01*
X14194468Y-15109508D02*
X14203991Y-15119031D01*
X14203991Y-15119031D02*
X14213515Y-15138079D01*
X14213515Y-15138079D02*
X14213515Y-15147603D01*
X14213515Y-15147603D02*
X14203991Y-15166650D01*
X14203991Y-15166650D02*
X14194468Y-15176174D01*
X14194468Y-15176174D02*
X14175420Y-15185698D01*
X14175420Y-15185698D02*
X14137325Y-15185698D01*
X14137325Y-15185698D02*
X14118277Y-15195222D01*
X14118277Y-15195222D02*
X14108753Y-15204746D01*
X14108753Y-15204746D02*
X14099229Y-15223793D01*
X14099229Y-15223793D02*
X14099229Y-15261888D01*
X14099229Y-15261888D02*
X14108753Y-15280936D01*
X14108753Y-15280936D02*
X14118277Y-15290460D01*
X14118277Y-15290460D02*
X14137325Y-15299984D01*
X14137325Y-15299984D02*
X14175420Y-15299984D01*
X14175420Y-15299984D02*
X14194468Y-15290460D01*
X14194468Y-15290460D02*
X14203991Y-15280936D01*
X14203991Y-15280936D02*
X14213515Y-15261888D01*
X14213515Y-15261888D02*
X14213515Y-15223793D01*
X14213515Y-15223793D02*
X14203991Y-15204746D01*
X14203991Y-15204746D02*
X14194468Y-15195222D01*
X14194468Y-15195222D02*
X14175420Y-15185698D01*
X14451610Y-15299984D02*
X14451610Y-15099984D01*
X14537325Y-15299984D02*
X14537325Y-15195222D01*
X14537325Y-15195222D02*
X14527801Y-15176174D01*
X14527801Y-15176174D02*
X14508753Y-15166650D01*
X14508753Y-15166650D02*
X14480182Y-15166650D01*
X14480182Y-15166650D02*
X14461134Y-15176174D01*
X14461134Y-15176174D02*
X14451610Y-15185698D01*
X14661134Y-15299984D02*
X14642087Y-15290460D01*
X14642087Y-15290460D02*
X14632563Y-15280936D01*
X14632563Y-15280936D02*
X14623039Y-15261888D01*
X14623039Y-15261888D02*
X14623039Y-15204746D01*
X14623039Y-15204746D02*
X14632563Y-15185698D01*
X14632563Y-15185698D02*
X14642087Y-15176174D01*
X14642087Y-15176174D02*
X14661134Y-15166650D01*
X14661134Y-15166650D02*
X14689706Y-15166650D01*
X14689706Y-15166650D02*
X14708753Y-15176174D01*
X14708753Y-15176174D02*
X14718277Y-15185698D01*
X14718277Y-15185698D02*
X14727801Y-15204746D01*
X14727801Y-15204746D02*
X14727801Y-15261888D01*
X14727801Y-15261888D02*
X14718277Y-15280936D01*
X14718277Y-15280936D02*
X14708753Y-15290460D01*
X14708753Y-15290460D02*
X14689706Y-15299984D01*
X14689706Y-15299984D02*
X14661134Y-15299984D01*
X14842087Y-15299984D02*
X14823039Y-15290460D01*
X14823039Y-15290460D02*
X14813515Y-15271412D01*
X14813515Y-15271412D02*
X14813515Y-15099984D01*
X14994468Y-15290460D02*
X14975420Y-15299984D01*
X14975420Y-15299984D02*
X14937325Y-15299984D01*
X14937325Y-15299984D02*
X14918277Y-15290460D01*
X14918277Y-15290460D02*
X14908753Y-15271412D01*
X14908753Y-15271412D02*
X14908753Y-15195222D01*
X14908753Y-15195222D02*
X14918277Y-15176174D01*
X14918277Y-15176174D02*
X14937325Y-15166650D01*
X14937325Y-15166650D02*
X14975420Y-15166650D01*
X14975420Y-15166650D02*
X14994468Y-15176174D01*
X14994468Y-15176174D02*
X15003991Y-15195222D01*
X15003991Y-15195222D02*
X15003991Y-15214269D01*
X15003991Y-15214269D02*
X14908753Y-15233317D01*
X15080182Y-15290460D02*
X15099230Y-15299984D01*
X15099230Y-15299984D02*
X15137325Y-15299984D01*
X15137325Y-15299984D02*
X15156372Y-15290460D01*
X15156372Y-15290460D02*
X15165896Y-15271412D01*
X15165896Y-15271412D02*
X15165896Y-15261888D01*
X15165896Y-15261888D02*
X15156372Y-15242841D01*
X15156372Y-15242841D02*
X15137325Y-15233317D01*
X15137325Y-15233317D02*
X15108753Y-15233317D01*
X15108753Y-15233317D02*
X15089706Y-15223793D01*
X15089706Y-15223793D02*
X15080182Y-15204746D01*
X15080182Y-15204746D02*
X15080182Y-15195222D01*
X15080182Y-15195222D02*
X15089706Y-15176174D01*
X15089706Y-15176174D02*
X15108753Y-15166650D01*
X15108753Y-15166650D02*
X15137325Y-15166650D01*
X15137325Y-15166650D02*
X15156372Y-15176174D01*
X15232563Y-15376174D02*
X15242087Y-15366650D01*
X15242087Y-15366650D02*
X15261134Y-15338079D01*
X15261134Y-15338079D02*
X15270658Y-15319031D01*
X15270658Y-15319031D02*
X15280182Y-15290460D01*
X15280182Y-15290460D02*
X15289706Y-15242841D01*
X15289706Y-15242841D02*
X15289706Y-15204746D01*
X15289706Y-15204746D02*
X15280182Y-15157127D01*
X15280182Y-15157127D02*
X15270658Y-15128555D01*
X15270658Y-15128555D02*
X15261134Y-15109508D01*
X15261134Y-15109508D02*
X15242087Y-15080936D01*
X15242087Y-15080936D02*
X15232563Y-15071412D01*
X10257500Y-15372500D02*
X10457500Y-15572500D01*
X10457500Y-15372500D02*
X10257500Y-15572500D01*
X10457500Y-15472500D02*
G75*
G03*
X10457500Y-15472500I-100000J0D01*
G01*
X10708753Y-15383031D02*
X10718277Y-15373508D01*
X10718277Y-15373508D02*
X10737324Y-15363984D01*
X10737324Y-15363984D02*
X10784944Y-15363984D01*
X10784944Y-15363984D02*
X10803991Y-15373508D01*
X10803991Y-15373508D02*
X10813515Y-15383031D01*
X10813515Y-15383031D02*
X10823039Y-15402079D01*
X10823039Y-15402079D02*
X10823039Y-15421127D01*
X10823039Y-15421127D02*
X10813515Y-15449698D01*
X10813515Y-15449698D02*
X10699229Y-15563984D01*
X10699229Y-15563984D02*
X10823039Y-15563984D01*
X10908753Y-15544936D02*
X10918277Y-15554460D01*
X10918277Y-15554460D02*
X10908753Y-15563984D01*
X10908753Y-15563984D02*
X10899229Y-15554460D01*
X10899229Y-15554460D02*
X10908753Y-15544936D01*
X10908753Y-15544936D02*
X10908753Y-15563984D01*
X11042086Y-15363984D02*
X11061134Y-15363984D01*
X11061134Y-15363984D02*
X11080182Y-15373508D01*
X11080182Y-15373508D02*
X11089705Y-15383031D01*
X11089705Y-15383031D02*
X11099229Y-15402079D01*
X11099229Y-15402079D02*
X11108753Y-15440174D01*
X11108753Y-15440174D02*
X11108753Y-15487793D01*
X11108753Y-15487793D02*
X11099229Y-15525888D01*
X11099229Y-15525888D02*
X11089705Y-15544936D01*
X11089705Y-15544936D02*
X11080182Y-15554460D01*
X11080182Y-15554460D02*
X11061134Y-15563984D01*
X11061134Y-15563984D02*
X11042086Y-15563984D01*
X11042086Y-15563984D02*
X11023039Y-15554460D01*
X11023039Y-15554460D02*
X11013515Y-15544936D01*
X11013515Y-15544936D02*
X11003991Y-15525888D01*
X11003991Y-15525888D02*
X10994467Y-15487793D01*
X10994467Y-15487793D02*
X10994467Y-15440174D01*
X10994467Y-15440174D02*
X11003991Y-15402079D01*
X11003991Y-15402079D02*
X11013515Y-15383031D01*
X11013515Y-15383031D02*
X11023039Y-15373508D01*
X11023039Y-15373508D02*
X11042086Y-15363984D01*
X11232562Y-15363984D02*
X11251610Y-15363984D01*
X11251610Y-15363984D02*
X11270658Y-15373508D01*
X11270658Y-15373508D02*
X11280182Y-15383031D01*
X11280182Y-15383031D02*
X11289705Y-15402079D01*
X11289705Y-15402079D02*
X11299229Y-15440174D01*
X11299229Y-15440174D02*
X11299229Y-15487793D01*
X11299229Y-15487793D02*
X11289705Y-15525888D01*
X11289705Y-15525888D02*
X11280182Y-15544936D01*
X11280182Y-15544936D02*
X11270658Y-15554460D01*
X11270658Y-15554460D02*
X11251610Y-15563984D01*
X11251610Y-15563984D02*
X11232562Y-15563984D01*
X11232562Y-15563984D02*
X11213515Y-15554460D01*
X11213515Y-15554460D02*
X11203991Y-15544936D01*
X11203991Y-15544936D02*
X11194467Y-15525888D01*
X11194467Y-15525888D02*
X11184943Y-15487793D01*
X11184943Y-15487793D02*
X11184943Y-15440174D01*
X11184943Y-15440174D02*
X11194467Y-15402079D01*
X11194467Y-15402079D02*
X11203991Y-15383031D01*
X11203991Y-15383031D02*
X11213515Y-15373508D01*
X11213515Y-15373508D02*
X11232562Y-15363984D01*
X11423039Y-15363984D02*
X11442086Y-15363984D01*
X11442086Y-15363984D02*
X11461134Y-15373508D01*
X11461134Y-15373508D02*
X11470658Y-15383031D01*
X11470658Y-15383031D02*
X11480182Y-15402079D01*
X11480182Y-15402079D02*
X11489705Y-15440174D01*
X11489705Y-15440174D02*
X11489705Y-15487793D01*
X11489705Y-15487793D02*
X11480182Y-15525888D01*
X11480182Y-15525888D02*
X11470658Y-15544936D01*
X11470658Y-15544936D02*
X11461134Y-15554460D01*
X11461134Y-15554460D02*
X11442086Y-15563984D01*
X11442086Y-15563984D02*
X11423039Y-15563984D01*
X11423039Y-15563984D02*
X11403991Y-15554460D01*
X11403991Y-15554460D02*
X11394467Y-15544936D01*
X11394467Y-15544936D02*
X11384943Y-15525888D01*
X11384943Y-15525888D02*
X11375420Y-15487793D01*
X11375420Y-15487793D02*
X11375420Y-15440174D01*
X11375420Y-15440174D02*
X11384943Y-15402079D01*
X11384943Y-15402079D02*
X11394467Y-15383031D01*
X11394467Y-15383031D02*
X11403991Y-15373508D01*
X11403991Y-15373508D02*
X11423039Y-15363984D01*
X11575420Y-15563984D02*
X11575420Y-15430650D01*
X11575420Y-15449698D02*
X11584943Y-15440174D01*
X11584943Y-15440174D02*
X11603991Y-15430650D01*
X11603991Y-15430650D02*
X11632563Y-15430650D01*
X11632563Y-15430650D02*
X11651610Y-15440174D01*
X11651610Y-15440174D02*
X11661134Y-15459222D01*
X11661134Y-15459222D02*
X11661134Y-15563984D01*
X11661134Y-15459222D02*
X11670658Y-15440174D01*
X11670658Y-15440174D02*
X11689705Y-15430650D01*
X11689705Y-15430650D02*
X11718277Y-15430650D01*
X11718277Y-15430650D02*
X11737324Y-15440174D01*
X11737324Y-15440174D02*
X11746848Y-15459222D01*
X11746848Y-15459222D02*
X11746848Y-15563984D01*
X11842086Y-15563984D02*
X11842086Y-15430650D01*
X11842086Y-15449698D02*
X11851610Y-15440174D01*
X11851610Y-15440174D02*
X11870658Y-15430650D01*
X11870658Y-15430650D02*
X11899229Y-15430650D01*
X11899229Y-15430650D02*
X11918277Y-15440174D01*
X11918277Y-15440174D02*
X11927801Y-15459222D01*
X11927801Y-15459222D02*
X11927801Y-15563984D01*
X11927801Y-15459222D02*
X11937324Y-15440174D01*
X11937324Y-15440174D02*
X11956372Y-15430650D01*
X11956372Y-15430650D02*
X11984943Y-15430650D01*
X11984943Y-15430650D02*
X12003991Y-15440174D01*
X12003991Y-15440174D02*
X12013515Y-15459222D01*
X12013515Y-15459222D02*
X12013515Y-15563984D01*
X12403991Y-15354460D02*
X12232563Y-15611603D01*
X12661134Y-15363984D02*
X12680182Y-15363984D01*
X12680182Y-15363984D02*
X12699229Y-15373508D01*
X12699229Y-15373508D02*
X12708753Y-15383031D01*
X12708753Y-15383031D02*
X12718277Y-15402079D01*
X12718277Y-15402079D02*
X12727801Y-15440174D01*
X12727801Y-15440174D02*
X12727801Y-15487793D01*
X12727801Y-15487793D02*
X12718277Y-15525888D01*
X12718277Y-15525888D02*
X12708753Y-15544936D01*
X12708753Y-15544936D02*
X12699229Y-15554460D01*
X12699229Y-15554460D02*
X12680182Y-15563984D01*
X12680182Y-15563984D02*
X12661134Y-15563984D01*
X12661134Y-15563984D02*
X12642086Y-15554460D01*
X12642086Y-15554460D02*
X12632563Y-15544936D01*
X12632563Y-15544936D02*
X12623039Y-15525888D01*
X12623039Y-15525888D02*
X12613515Y-15487793D01*
X12613515Y-15487793D02*
X12613515Y-15440174D01*
X12613515Y-15440174D02*
X12623039Y-15402079D01*
X12623039Y-15402079D02*
X12632563Y-15383031D01*
X12632563Y-15383031D02*
X12642086Y-15373508D01*
X12642086Y-15373508D02*
X12661134Y-15363984D01*
X12813515Y-15544936D02*
X12823039Y-15554460D01*
X12823039Y-15554460D02*
X12813515Y-15563984D01*
X12813515Y-15563984D02*
X12803991Y-15554460D01*
X12803991Y-15554460D02*
X12813515Y-15544936D01*
X12813515Y-15544936D02*
X12813515Y-15563984D01*
X12946848Y-15363984D02*
X12965896Y-15363984D01*
X12965896Y-15363984D02*
X12984944Y-15373508D01*
X12984944Y-15373508D02*
X12994467Y-15383031D01*
X12994467Y-15383031D02*
X13003991Y-15402079D01*
X13003991Y-15402079D02*
X13013515Y-15440174D01*
X13013515Y-15440174D02*
X13013515Y-15487793D01*
X13013515Y-15487793D02*
X13003991Y-15525888D01*
X13003991Y-15525888D02*
X12994467Y-15544936D01*
X12994467Y-15544936D02*
X12984944Y-15554460D01*
X12984944Y-15554460D02*
X12965896Y-15563984D01*
X12965896Y-15563984D02*
X12946848Y-15563984D01*
X12946848Y-15563984D02*
X12927801Y-15554460D01*
X12927801Y-15554460D02*
X12918277Y-15544936D01*
X12918277Y-15544936D02*
X12908753Y-15525888D01*
X12908753Y-15525888D02*
X12899229Y-15487793D01*
X12899229Y-15487793D02*
X12899229Y-15440174D01*
X12899229Y-15440174D02*
X12908753Y-15402079D01*
X12908753Y-15402079D02*
X12918277Y-15383031D01*
X12918277Y-15383031D02*
X12927801Y-15373508D01*
X12927801Y-15373508D02*
X12946848Y-15363984D01*
X13080182Y-15363984D02*
X13213515Y-15363984D01*
X13213515Y-15363984D02*
X13127801Y-15563984D01*
X13318277Y-15449698D02*
X13299229Y-15440174D01*
X13299229Y-15440174D02*
X13289706Y-15430650D01*
X13289706Y-15430650D02*
X13280182Y-15411603D01*
X13280182Y-15411603D02*
X13280182Y-15402079D01*
X13280182Y-15402079D02*
X13289706Y-15383031D01*
X13289706Y-15383031D02*
X13299229Y-15373508D01*
X13299229Y-15373508D02*
X13318277Y-15363984D01*
X13318277Y-15363984D02*
X13356372Y-15363984D01*
X13356372Y-15363984D02*
X13375420Y-15373508D01*
X13375420Y-15373508D02*
X13384944Y-15383031D01*
X13384944Y-15383031D02*
X13394467Y-15402079D01*
X13394467Y-15402079D02*
X13394467Y-15411603D01*
X13394467Y-15411603D02*
X13384944Y-15430650D01*
X13384944Y-15430650D02*
X13375420Y-15440174D01*
X13375420Y-15440174D02*
X13356372Y-15449698D01*
X13356372Y-15449698D02*
X13318277Y-15449698D01*
X13318277Y-15449698D02*
X13299229Y-15459222D01*
X13299229Y-15459222D02*
X13289706Y-15468746D01*
X13289706Y-15468746D02*
X13280182Y-15487793D01*
X13280182Y-15487793D02*
X13280182Y-15525888D01*
X13280182Y-15525888D02*
X13289706Y-15544936D01*
X13289706Y-15544936D02*
X13299229Y-15554460D01*
X13299229Y-15554460D02*
X13318277Y-15563984D01*
X13318277Y-15563984D02*
X13356372Y-15563984D01*
X13356372Y-15563984D02*
X13375420Y-15554460D01*
X13375420Y-15554460D02*
X13384944Y-15544936D01*
X13384944Y-15544936D02*
X13394467Y-15525888D01*
X13394467Y-15525888D02*
X13394467Y-15487793D01*
X13394467Y-15487793D02*
X13384944Y-15468746D01*
X13384944Y-15468746D02*
X13375420Y-15459222D01*
X13375420Y-15459222D02*
X13356372Y-15449698D01*
X13461134Y-15363984D02*
X13594467Y-15363984D01*
X13594467Y-15363984D02*
X13508753Y-15563984D01*
X13661134Y-15363984D02*
X13661134Y-15402079D01*
X13737325Y-15363984D02*
X13737325Y-15402079D01*
X14032563Y-15640174D02*
X14023039Y-15630650D01*
X14023039Y-15630650D02*
X14003991Y-15602079D01*
X14003991Y-15602079D02*
X13994468Y-15583031D01*
X13994468Y-15583031D02*
X13984944Y-15554460D01*
X13984944Y-15554460D02*
X13975420Y-15506841D01*
X13975420Y-15506841D02*
X13975420Y-15468746D01*
X13975420Y-15468746D02*
X13984944Y-15421127D01*
X13984944Y-15421127D02*
X13994468Y-15392555D01*
X13994468Y-15392555D02*
X14003991Y-15373508D01*
X14003991Y-15373508D02*
X14023039Y-15344936D01*
X14023039Y-15344936D02*
X14032563Y-15335412D01*
X14194468Y-15430650D02*
X14194468Y-15563984D01*
X14146848Y-15354460D02*
X14099229Y-15497317D01*
X14099229Y-15497317D02*
X14223039Y-15497317D01*
X14451610Y-15563984D02*
X14451610Y-15363984D01*
X14537325Y-15563984D02*
X14537325Y-15459222D01*
X14537325Y-15459222D02*
X14527801Y-15440174D01*
X14527801Y-15440174D02*
X14508753Y-15430650D01*
X14508753Y-15430650D02*
X14480182Y-15430650D01*
X14480182Y-15430650D02*
X14461134Y-15440174D01*
X14461134Y-15440174D02*
X14451610Y-15449698D01*
X14661134Y-15563984D02*
X14642087Y-15554460D01*
X14642087Y-15554460D02*
X14632563Y-15544936D01*
X14632563Y-15544936D02*
X14623039Y-15525888D01*
X14623039Y-15525888D02*
X14623039Y-15468746D01*
X14623039Y-15468746D02*
X14632563Y-15449698D01*
X14632563Y-15449698D02*
X14642087Y-15440174D01*
X14642087Y-15440174D02*
X14661134Y-15430650D01*
X14661134Y-15430650D02*
X14689706Y-15430650D01*
X14689706Y-15430650D02*
X14708753Y-15440174D01*
X14708753Y-15440174D02*
X14718277Y-15449698D01*
X14718277Y-15449698D02*
X14727801Y-15468746D01*
X14727801Y-15468746D02*
X14727801Y-15525888D01*
X14727801Y-15525888D02*
X14718277Y-15544936D01*
X14718277Y-15544936D02*
X14708753Y-15554460D01*
X14708753Y-15554460D02*
X14689706Y-15563984D01*
X14689706Y-15563984D02*
X14661134Y-15563984D01*
X14842087Y-15563984D02*
X14823039Y-15554460D01*
X14823039Y-15554460D02*
X14813515Y-15535412D01*
X14813515Y-15535412D02*
X14813515Y-15363984D01*
X14994468Y-15554460D02*
X14975420Y-15563984D01*
X14975420Y-15563984D02*
X14937325Y-15563984D01*
X14937325Y-15563984D02*
X14918277Y-15554460D01*
X14918277Y-15554460D02*
X14908753Y-15535412D01*
X14908753Y-15535412D02*
X14908753Y-15459222D01*
X14908753Y-15459222D02*
X14918277Y-15440174D01*
X14918277Y-15440174D02*
X14937325Y-15430650D01*
X14937325Y-15430650D02*
X14975420Y-15430650D01*
X14975420Y-15430650D02*
X14994468Y-15440174D01*
X14994468Y-15440174D02*
X15003991Y-15459222D01*
X15003991Y-15459222D02*
X15003991Y-15478269D01*
X15003991Y-15478269D02*
X14908753Y-15497317D01*
X15080182Y-15554460D02*
X15099230Y-15563984D01*
X15099230Y-15563984D02*
X15137325Y-15563984D01*
X15137325Y-15563984D02*
X15156372Y-15554460D01*
X15156372Y-15554460D02*
X15165896Y-15535412D01*
X15165896Y-15535412D02*
X15165896Y-15525888D01*
X15165896Y-15525888D02*
X15156372Y-15506841D01*
X15156372Y-15506841D02*
X15137325Y-15497317D01*
X15137325Y-15497317D02*
X15108753Y-15497317D01*
X15108753Y-15497317D02*
X15089706Y-15487793D01*
X15089706Y-15487793D02*
X15080182Y-15468746D01*
X15080182Y-15468746D02*
X15080182Y-15459222D01*
X15080182Y-15459222D02*
X15089706Y-15440174D01*
X15089706Y-15440174D02*
X15108753Y-15430650D01*
X15108753Y-15430650D02*
X15137325Y-15430650D01*
X15137325Y-15430650D02*
X15156372Y-15440174D01*
X15232563Y-15640174D02*
X15242087Y-15630650D01*
X15242087Y-15630650D02*
X15261134Y-15602079D01*
X15261134Y-15602079D02*
X15270658Y-15583031D01*
X15270658Y-15583031D02*
X15280182Y-15554460D01*
X15280182Y-15554460D02*
X15289706Y-15506841D01*
X15289706Y-15506841D02*
X15289706Y-15468746D01*
X15289706Y-15468746D02*
X15280182Y-15421127D01*
X15280182Y-15421127D02*
X15270658Y-15392555D01*
X15270658Y-15392555D02*
X15261134Y-15373508D01*
X15261134Y-15373508D02*
X15242087Y-15344936D01*
X15242087Y-15344936D02*
X15232563Y-15335412D01*
X10257500Y-15692500D02*
X10457500Y-15892500D01*
X10457500Y-15692500D02*
X10257500Y-15892500D01*
X10357500Y-15692500D02*
X10357500Y-15892500D01*
X10257500Y-15792500D02*
X10457500Y-15792500D01*
X10708753Y-15703031D02*
X10718277Y-15693508D01*
X10718277Y-15693508D02*
X10737324Y-15683984D01*
X10737324Y-15683984D02*
X10784944Y-15683984D01*
X10784944Y-15683984D02*
X10803991Y-15693508D01*
X10803991Y-15693508D02*
X10813515Y-15703031D01*
X10813515Y-15703031D02*
X10823039Y-15722079D01*
X10823039Y-15722079D02*
X10823039Y-15741127D01*
X10823039Y-15741127D02*
X10813515Y-15769698D01*
X10813515Y-15769698D02*
X10699229Y-15883984D01*
X10699229Y-15883984D02*
X10823039Y-15883984D01*
X10908753Y-15864936D02*
X10918277Y-15874460D01*
X10918277Y-15874460D02*
X10908753Y-15883984D01*
X10908753Y-15883984D02*
X10899229Y-15874460D01*
X10899229Y-15874460D02*
X10908753Y-15864936D01*
X10908753Y-15864936D02*
X10908753Y-15883984D01*
X10984944Y-15683984D02*
X11108753Y-15683984D01*
X11108753Y-15683984D02*
X11042086Y-15760174D01*
X11042086Y-15760174D02*
X11070658Y-15760174D01*
X11070658Y-15760174D02*
X11089705Y-15769698D01*
X11089705Y-15769698D02*
X11099229Y-15779222D01*
X11099229Y-15779222D02*
X11108753Y-15798269D01*
X11108753Y-15798269D02*
X11108753Y-15845888D01*
X11108753Y-15845888D02*
X11099229Y-15864936D01*
X11099229Y-15864936D02*
X11089705Y-15874460D01*
X11089705Y-15874460D02*
X11070658Y-15883984D01*
X11070658Y-15883984D02*
X11013515Y-15883984D01*
X11013515Y-15883984D02*
X10994467Y-15874460D01*
X10994467Y-15874460D02*
X10984944Y-15864936D01*
X11232562Y-15683984D02*
X11251610Y-15683984D01*
X11251610Y-15683984D02*
X11270658Y-15693508D01*
X11270658Y-15693508D02*
X11280182Y-15703031D01*
X11280182Y-15703031D02*
X11289705Y-15722079D01*
X11289705Y-15722079D02*
X11299229Y-15760174D01*
X11299229Y-15760174D02*
X11299229Y-15807793D01*
X11299229Y-15807793D02*
X11289705Y-15845888D01*
X11289705Y-15845888D02*
X11280182Y-15864936D01*
X11280182Y-15864936D02*
X11270658Y-15874460D01*
X11270658Y-15874460D02*
X11251610Y-15883984D01*
X11251610Y-15883984D02*
X11232562Y-15883984D01*
X11232562Y-15883984D02*
X11213515Y-15874460D01*
X11213515Y-15874460D02*
X11203991Y-15864936D01*
X11203991Y-15864936D02*
X11194467Y-15845888D01*
X11194467Y-15845888D02*
X11184943Y-15807793D01*
X11184943Y-15807793D02*
X11184943Y-15760174D01*
X11184943Y-15760174D02*
X11194467Y-15722079D01*
X11194467Y-15722079D02*
X11203991Y-15703031D01*
X11203991Y-15703031D02*
X11213515Y-15693508D01*
X11213515Y-15693508D02*
X11232562Y-15683984D01*
X11423039Y-15683984D02*
X11442086Y-15683984D01*
X11442086Y-15683984D02*
X11461134Y-15693508D01*
X11461134Y-15693508D02*
X11470658Y-15703031D01*
X11470658Y-15703031D02*
X11480182Y-15722079D01*
X11480182Y-15722079D02*
X11489705Y-15760174D01*
X11489705Y-15760174D02*
X11489705Y-15807793D01*
X11489705Y-15807793D02*
X11480182Y-15845888D01*
X11480182Y-15845888D02*
X11470658Y-15864936D01*
X11470658Y-15864936D02*
X11461134Y-15874460D01*
X11461134Y-15874460D02*
X11442086Y-15883984D01*
X11442086Y-15883984D02*
X11423039Y-15883984D01*
X11423039Y-15883984D02*
X11403991Y-15874460D01*
X11403991Y-15874460D02*
X11394467Y-15864936D01*
X11394467Y-15864936D02*
X11384943Y-15845888D01*
X11384943Y-15845888D02*
X11375420Y-15807793D01*
X11375420Y-15807793D02*
X11375420Y-15760174D01*
X11375420Y-15760174D02*
X11384943Y-15722079D01*
X11384943Y-15722079D02*
X11394467Y-15703031D01*
X11394467Y-15703031D02*
X11403991Y-15693508D01*
X11403991Y-15693508D02*
X11423039Y-15683984D01*
X11575420Y-15883984D02*
X11575420Y-15750650D01*
X11575420Y-15769698D02*
X11584943Y-15760174D01*
X11584943Y-15760174D02*
X11603991Y-15750650D01*
X11603991Y-15750650D02*
X11632563Y-15750650D01*
X11632563Y-15750650D02*
X11651610Y-15760174D01*
X11651610Y-15760174D02*
X11661134Y-15779222D01*
X11661134Y-15779222D02*
X11661134Y-15883984D01*
X11661134Y-15779222D02*
X11670658Y-15760174D01*
X11670658Y-15760174D02*
X11689705Y-15750650D01*
X11689705Y-15750650D02*
X11718277Y-15750650D01*
X11718277Y-15750650D02*
X11737324Y-15760174D01*
X11737324Y-15760174D02*
X11746848Y-15779222D01*
X11746848Y-15779222D02*
X11746848Y-15883984D01*
X11842086Y-15883984D02*
X11842086Y-15750650D01*
X11842086Y-15769698D02*
X11851610Y-15760174D01*
X11851610Y-15760174D02*
X11870658Y-15750650D01*
X11870658Y-15750650D02*
X11899229Y-15750650D01*
X11899229Y-15750650D02*
X11918277Y-15760174D01*
X11918277Y-15760174D02*
X11927801Y-15779222D01*
X11927801Y-15779222D02*
X11927801Y-15883984D01*
X11927801Y-15779222D02*
X11937324Y-15760174D01*
X11937324Y-15760174D02*
X11956372Y-15750650D01*
X11956372Y-15750650D02*
X11984943Y-15750650D01*
X11984943Y-15750650D02*
X12003991Y-15760174D01*
X12003991Y-15760174D02*
X12013515Y-15779222D01*
X12013515Y-15779222D02*
X12013515Y-15883984D01*
X12403991Y-15674460D02*
X12232563Y-15931603D01*
X12661134Y-15683984D02*
X12680182Y-15683984D01*
X12680182Y-15683984D02*
X12699229Y-15693508D01*
X12699229Y-15693508D02*
X12708753Y-15703031D01*
X12708753Y-15703031D02*
X12718277Y-15722079D01*
X12718277Y-15722079D02*
X12727801Y-15760174D01*
X12727801Y-15760174D02*
X12727801Y-15807793D01*
X12727801Y-15807793D02*
X12718277Y-15845888D01*
X12718277Y-15845888D02*
X12708753Y-15864936D01*
X12708753Y-15864936D02*
X12699229Y-15874460D01*
X12699229Y-15874460D02*
X12680182Y-15883984D01*
X12680182Y-15883984D02*
X12661134Y-15883984D01*
X12661134Y-15883984D02*
X12642086Y-15874460D01*
X12642086Y-15874460D02*
X12632563Y-15864936D01*
X12632563Y-15864936D02*
X12623039Y-15845888D01*
X12623039Y-15845888D02*
X12613515Y-15807793D01*
X12613515Y-15807793D02*
X12613515Y-15760174D01*
X12613515Y-15760174D02*
X12623039Y-15722079D01*
X12623039Y-15722079D02*
X12632563Y-15703031D01*
X12632563Y-15703031D02*
X12642086Y-15693508D01*
X12642086Y-15693508D02*
X12661134Y-15683984D01*
X12813515Y-15864936D02*
X12823039Y-15874460D01*
X12823039Y-15874460D02*
X12813515Y-15883984D01*
X12813515Y-15883984D02*
X12803991Y-15874460D01*
X12803991Y-15874460D02*
X12813515Y-15864936D01*
X12813515Y-15864936D02*
X12813515Y-15883984D01*
X12946848Y-15683984D02*
X12965896Y-15683984D01*
X12965896Y-15683984D02*
X12984944Y-15693508D01*
X12984944Y-15693508D02*
X12994467Y-15703031D01*
X12994467Y-15703031D02*
X13003991Y-15722079D01*
X13003991Y-15722079D02*
X13013515Y-15760174D01*
X13013515Y-15760174D02*
X13013515Y-15807793D01*
X13013515Y-15807793D02*
X13003991Y-15845888D01*
X13003991Y-15845888D02*
X12994467Y-15864936D01*
X12994467Y-15864936D02*
X12984944Y-15874460D01*
X12984944Y-15874460D02*
X12965896Y-15883984D01*
X12965896Y-15883984D02*
X12946848Y-15883984D01*
X12946848Y-15883984D02*
X12927801Y-15874460D01*
X12927801Y-15874460D02*
X12918277Y-15864936D01*
X12918277Y-15864936D02*
X12908753Y-15845888D01*
X12908753Y-15845888D02*
X12899229Y-15807793D01*
X12899229Y-15807793D02*
X12899229Y-15760174D01*
X12899229Y-15760174D02*
X12908753Y-15722079D01*
X12908753Y-15722079D02*
X12918277Y-15703031D01*
X12918277Y-15703031D02*
X12927801Y-15693508D01*
X12927801Y-15693508D02*
X12946848Y-15683984D01*
X13108753Y-15883984D02*
X13146848Y-15883984D01*
X13146848Y-15883984D02*
X13165896Y-15874460D01*
X13165896Y-15874460D02*
X13175420Y-15864936D01*
X13175420Y-15864936D02*
X13194467Y-15836365D01*
X13194467Y-15836365D02*
X13203991Y-15798269D01*
X13203991Y-15798269D02*
X13203991Y-15722079D01*
X13203991Y-15722079D02*
X13194467Y-15703031D01*
X13194467Y-15703031D02*
X13184944Y-15693508D01*
X13184944Y-15693508D02*
X13165896Y-15683984D01*
X13165896Y-15683984D02*
X13127801Y-15683984D01*
X13127801Y-15683984D02*
X13108753Y-15693508D01*
X13108753Y-15693508D02*
X13099229Y-15703031D01*
X13099229Y-15703031D02*
X13089706Y-15722079D01*
X13089706Y-15722079D02*
X13089706Y-15769698D01*
X13089706Y-15769698D02*
X13099229Y-15788746D01*
X13099229Y-15788746D02*
X13108753Y-15798269D01*
X13108753Y-15798269D02*
X13127801Y-15807793D01*
X13127801Y-15807793D02*
X13165896Y-15807793D01*
X13165896Y-15807793D02*
X13184944Y-15798269D01*
X13184944Y-15798269D02*
X13194467Y-15788746D01*
X13194467Y-15788746D02*
X13203991Y-15769698D01*
X13327801Y-15683984D02*
X13346848Y-15683984D01*
X13346848Y-15683984D02*
X13365896Y-15693508D01*
X13365896Y-15693508D02*
X13375420Y-15703031D01*
X13375420Y-15703031D02*
X13384944Y-15722079D01*
X13384944Y-15722079D02*
X13394467Y-15760174D01*
X13394467Y-15760174D02*
X13394467Y-15807793D01*
X13394467Y-15807793D02*
X13384944Y-15845888D01*
X13384944Y-15845888D02*
X13375420Y-15864936D01*
X13375420Y-15864936D02*
X13365896Y-15874460D01*
X13365896Y-15874460D02*
X13346848Y-15883984D01*
X13346848Y-15883984D02*
X13327801Y-15883984D01*
X13327801Y-15883984D02*
X13308753Y-15874460D01*
X13308753Y-15874460D02*
X13299229Y-15864936D01*
X13299229Y-15864936D02*
X13289706Y-15845888D01*
X13289706Y-15845888D02*
X13280182Y-15807793D01*
X13280182Y-15807793D02*
X13280182Y-15760174D01*
X13280182Y-15760174D02*
X13289706Y-15722079D01*
X13289706Y-15722079D02*
X13299229Y-15703031D01*
X13299229Y-15703031D02*
X13308753Y-15693508D01*
X13308753Y-15693508D02*
X13327801Y-15683984D01*
X13565896Y-15683984D02*
X13527801Y-15683984D01*
X13527801Y-15683984D02*
X13508753Y-15693508D01*
X13508753Y-15693508D02*
X13499229Y-15703031D01*
X13499229Y-15703031D02*
X13480182Y-15731603D01*
X13480182Y-15731603D02*
X13470658Y-15769698D01*
X13470658Y-15769698D02*
X13470658Y-15845888D01*
X13470658Y-15845888D02*
X13480182Y-15864936D01*
X13480182Y-15864936D02*
X13489706Y-15874460D01*
X13489706Y-15874460D02*
X13508753Y-15883984D01*
X13508753Y-15883984D02*
X13546848Y-15883984D01*
X13546848Y-15883984D02*
X13565896Y-15874460D01*
X13565896Y-15874460D02*
X13575420Y-15864936D01*
X13575420Y-15864936D02*
X13584944Y-15845888D01*
X13584944Y-15845888D02*
X13584944Y-15798269D01*
X13584944Y-15798269D02*
X13575420Y-15779222D01*
X13575420Y-15779222D02*
X13565896Y-15769698D01*
X13565896Y-15769698D02*
X13546848Y-15760174D01*
X13546848Y-15760174D02*
X13508753Y-15760174D01*
X13508753Y-15760174D02*
X13489706Y-15769698D01*
X13489706Y-15769698D02*
X13480182Y-15779222D01*
X13480182Y-15779222D02*
X13470658Y-15798269D01*
X13661134Y-15683984D02*
X13661134Y-15722079D01*
X13737325Y-15683984D02*
X13737325Y-15722079D01*
X14032563Y-15960174D02*
X14023039Y-15950650D01*
X14023039Y-15950650D02*
X14003991Y-15922079D01*
X14003991Y-15922079D02*
X13994468Y-15903031D01*
X13994468Y-15903031D02*
X13984944Y-15874460D01*
X13984944Y-15874460D02*
X13975420Y-15826841D01*
X13975420Y-15826841D02*
X13975420Y-15788746D01*
X13975420Y-15788746D02*
X13984944Y-15741127D01*
X13984944Y-15741127D02*
X13994468Y-15712555D01*
X13994468Y-15712555D02*
X14003991Y-15693508D01*
X14003991Y-15693508D02*
X14023039Y-15664936D01*
X14023039Y-15664936D02*
X14032563Y-15655412D01*
X14099229Y-15703031D02*
X14108753Y-15693508D01*
X14108753Y-15693508D02*
X14127801Y-15683984D01*
X14127801Y-15683984D02*
X14175420Y-15683984D01*
X14175420Y-15683984D02*
X14194468Y-15693508D01*
X14194468Y-15693508D02*
X14203991Y-15703031D01*
X14203991Y-15703031D02*
X14213515Y-15722079D01*
X14213515Y-15722079D02*
X14213515Y-15741127D01*
X14213515Y-15741127D02*
X14203991Y-15769698D01*
X14203991Y-15769698D02*
X14089706Y-15883984D01*
X14089706Y-15883984D02*
X14213515Y-15883984D01*
X14451610Y-15883984D02*
X14451610Y-15683984D01*
X14537325Y-15883984D02*
X14537325Y-15779222D01*
X14537325Y-15779222D02*
X14527801Y-15760174D01*
X14527801Y-15760174D02*
X14508753Y-15750650D01*
X14508753Y-15750650D02*
X14480182Y-15750650D01*
X14480182Y-15750650D02*
X14461134Y-15760174D01*
X14461134Y-15760174D02*
X14451610Y-15769698D01*
X14661134Y-15883984D02*
X14642087Y-15874460D01*
X14642087Y-15874460D02*
X14632563Y-15864936D01*
X14632563Y-15864936D02*
X14623039Y-15845888D01*
X14623039Y-15845888D02*
X14623039Y-15788746D01*
X14623039Y-15788746D02*
X14632563Y-15769698D01*
X14632563Y-15769698D02*
X14642087Y-15760174D01*
X14642087Y-15760174D02*
X14661134Y-15750650D01*
X14661134Y-15750650D02*
X14689706Y-15750650D01*
X14689706Y-15750650D02*
X14708753Y-15760174D01*
X14708753Y-15760174D02*
X14718277Y-15769698D01*
X14718277Y-15769698D02*
X14727801Y-15788746D01*
X14727801Y-15788746D02*
X14727801Y-15845888D01*
X14727801Y-15845888D02*
X14718277Y-15864936D01*
X14718277Y-15864936D02*
X14708753Y-15874460D01*
X14708753Y-15874460D02*
X14689706Y-15883984D01*
X14689706Y-15883984D02*
X14661134Y-15883984D01*
X14842087Y-15883984D02*
X14823039Y-15874460D01*
X14823039Y-15874460D02*
X14813515Y-15855412D01*
X14813515Y-15855412D02*
X14813515Y-15683984D01*
X14994468Y-15874460D02*
X14975420Y-15883984D01*
X14975420Y-15883984D02*
X14937325Y-15883984D01*
X14937325Y-15883984D02*
X14918277Y-15874460D01*
X14918277Y-15874460D02*
X14908753Y-15855412D01*
X14908753Y-15855412D02*
X14908753Y-15779222D01*
X14908753Y-15779222D02*
X14918277Y-15760174D01*
X14918277Y-15760174D02*
X14937325Y-15750650D01*
X14937325Y-15750650D02*
X14975420Y-15750650D01*
X14975420Y-15750650D02*
X14994468Y-15760174D01*
X14994468Y-15760174D02*
X15003991Y-15779222D01*
X15003991Y-15779222D02*
X15003991Y-15798269D01*
X15003991Y-15798269D02*
X14908753Y-15817317D01*
X15080182Y-15874460D02*
X15099230Y-15883984D01*
X15099230Y-15883984D02*
X15137325Y-15883984D01*
X15137325Y-15883984D02*
X15156372Y-15874460D01*
X15156372Y-15874460D02*
X15165896Y-15855412D01*
X15165896Y-15855412D02*
X15165896Y-15845888D01*
X15165896Y-15845888D02*
X15156372Y-15826841D01*
X15156372Y-15826841D02*
X15137325Y-15817317D01*
X15137325Y-15817317D02*
X15108753Y-15817317D01*
X15108753Y-15817317D02*
X15089706Y-15807793D01*
X15089706Y-15807793D02*
X15080182Y-15788746D01*
X15080182Y-15788746D02*
X15080182Y-15779222D01*
X15080182Y-15779222D02*
X15089706Y-15760174D01*
X15089706Y-15760174D02*
X15108753Y-15750650D01*
X15108753Y-15750650D02*
X15137325Y-15750650D01*
X15137325Y-15750650D02*
X15156372Y-15760174D01*
X15232563Y-15960174D02*
X15242087Y-15950650D01*
X15242087Y-15950650D02*
X15261134Y-15922079D01*
X15261134Y-15922079D02*
X15270658Y-15903031D01*
X15270658Y-15903031D02*
X15280182Y-15874460D01*
X15280182Y-15874460D02*
X15289706Y-15826841D01*
X15289706Y-15826841D02*
X15289706Y-15788746D01*
X15289706Y-15788746D02*
X15280182Y-15741127D01*
X15280182Y-15741127D02*
X15270658Y-15712555D01*
X15270658Y-15712555D02*
X15261134Y-15693508D01*
X15261134Y-15693508D02*
X15242087Y-15664936D01*
X15242087Y-15664936D02*
X15232563Y-15655412D01*
X10257500Y-16012500D02*
X10457500Y-16212500D01*
X10457500Y-16012500D02*
X10257500Y-16212500D01*
X10428211Y-16183211D02*
X10428211Y-16041789D01*
X10286789Y-16041789D01*
X10286789Y-16183211D01*
X10428211Y-16183211D01*
X10699229Y-16003984D02*
X10823039Y-16003984D01*
X10823039Y-16003984D02*
X10756372Y-16080174D01*
X10756372Y-16080174D02*
X10784944Y-16080174D01*
X10784944Y-16080174D02*
X10803991Y-16089698D01*
X10803991Y-16089698D02*
X10813515Y-16099222D01*
X10813515Y-16099222D02*
X10823039Y-16118269D01*
X10823039Y-16118269D02*
X10823039Y-16165888D01*
X10823039Y-16165888D02*
X10813515Y-16184936D01*
X10813515Y-16184936D02*
X10803991Y-16194460D01*
X10803991Y-16194460D02*
X10784944Y-16203984D01*
X10784944Y-16203984D02*
X10727801Y-16203984D01*
X10727801Y-16203984D02*
X10708753Y-16194460D01*
X10708753Y-16194460D02*
X10699229Y-16184936D01*
X10908753Y-16184936D02*
X10918277Y-16194460D01*
X10918277Y-16194460D02*
X10908753Y-16203984D01*
X10908753Y-16203984D02*
X10899229Y-16194460D01*
X10899229Y-16194460D02*
X10908753Y-16184936D01*
X10908753Y-16184936D02*
X10908753Y-16203984D01*
X10994467Y-16023031D02*
X11003991Y-16013508D01*
X11003991Y-16013508D02*
X11023039Y-16003984D01*
X11023039Y-16003984D02*
X11070658Y-16003984D01*
X11070658Y-16003984D02*
X11089705Y-16013508D01*
X11089705Y-16013508D02*
X11099229Y-16023031D01*
X11099229Y-16023031D02*
X11108753Y-16042079D01*
X11108753Y-16042079D02*
X11108753Y-16061127D01*
X11108753Y-16061127D02*
X11099229Y-16089698D01*
X11099229Y-16089698D02*
X10984944Y-16203984D01*
X10984944Y-16203984D02*
X11108753Y-16203984D01*
X11232562Y-16003984D02*
X11251610Y-16003984D01*
X11251610Y-16003984D02*
X11270658Y-16013508D01*
X11270658Y-16013508D02*
X11280182Y-16023031D01*
X11280182Y-16023031D02*
X11289705Y-16042079D01*
X11289705Y-16042079D02*
X11299229Y-16080174D01*
X11299229Y-16080174D02*
X11299229Y-16127793D01*
X11299229Y-16127793D02*
X11289705Y-16165888D01*
X11289705Y-16165888D02*
X11280182Y-16184936D01*
X11280182Y-16184936D02*
X11270658Y-16194460D01*
X11270658Y-16194460D02*
X11251610Y-16203984D01*
X11251610Y-16203984D02*
X11232562Y-16203984D01*
X11232562Y-16203984D02*
X11213515Y-16194460D01*
X11213515Y-16194460D02*
X11203991Y-16184936D01*
X11203991Y-16184936D02*
X11194467Y-16165888D01*
X11194467Y-16165888D02*
X11184943Y-16127793D01*
X11184943Y-16127793D02*
X11184943Y-16080174D01*
X11184943Y-16080174D02*
X11194467Y-16042079D01*
X11194467Y-16042079D02*
X11203991Y-16023031D01*
X11203991Y-16023031D02*
X11213515Y-16013508D01*
X11213515Y-16013508D02*
X11232562Y-16003984D01*
X11423039Y-16003984D02*
X11442086Y-16003984D01*
X11442086Y-16003984D02*
X11461134Y-16013508D01*
X11461134Y-16013508D02*
X11470658Y-16023031D01*
X11470658Y-16023031D02*
X11480182Y-16042079D01*
X11480182Y-16042079D02*
X11489705Y-16080174D01*
X11489705Y-16080174D02*
X11489705Y-16127793D01*
X11489705Y-16127793D02*
X11480182Y-16165888D01*
X11480182Y-16165888D02*
X11470658Y-16184936D01*
X11470658Y-16184936D02*
X11461134Y-16194460D01*
X11461134Y-16194460D02*
X11442086Y-16203984D01*
X11442086Y-16203984D02*
X11423039Y-16203984D01*
X11423039Y-16203984D02*
X11403991Y-16194460D01*
X11403991Y-16194460D02*
X11394467Y-16184936D01*
X11394467Y-16184936D02*
X11384943Y-16165888D01*
X11384943Y-16165888D02*
X11375420Y-16127793D01*
X11375420Y-16127793D02*
X11375420Y-16080174D01*
X11375420Y-16080174D02*
X11384943Y-16042079D01*
X11384943Y-16042079D02*
X11394467Y-16023031D01*
X11394467Y-16023031D02*
X11403991Y-16013508D01*
X11403991Y-16013508D02*
X11423039Y-16003984D01*
X11575420Y-16203984D02*
X11575420Y-16070650D01*
X11575420Y-16089698D02*
X11584943Y-16080174D01*
X11584943Y-16080174D02*
X11603991Y-16070650D01*
X11603991Y-16070650D02*
X11632563Y-16070650D01*
X11632563Y-16070650D02*
X11651610Y-16080174D01*
X11651610Y-16080174D02*
X11661134Y-16099222D01*
X11661134Y-16099222D02*
X11661134Y-16203984D01*
X11661134Y-16099222D02*
X11670658Y-16080174D01*
X11670658Y-16080174D02*
X11689705Y-16070650D01*
X11689705Y-16070650D02*
X11718277Y-16070650D01*
X11718277Y-16070650D02*
X11737324Y-16080174D01*
X11737324Y-16080174D02*
X11746848Y-16099222D01*
X11746848Y-16099222D02*
X11746848Y-16203984D01*
X11842086Y-16203984D02*
X11842086Y-16070650D01*
X11842086Y-16089698D02*
X11851610Y-16080174D01*
X11851610Y-16080174D02*
X11870658Y-16070650D01*
X11870658Y-16070650D02*
X11899229Y-16070650D01*
X11899229Y-16070650D02*
X11918277Y-16080174D01*
X11918277Y-16080174D02*
X11927801Y-16099222D01*
X11927801Y-16099222D02*
X11927801Y-16203984D01*
X11927801Y-16099222D02*
X11937324Y-16080174D01*
X11937324Y-16080174D02*
X11956372Y-16070650D01*
X11956372Y-16070650D02*
X11984943Y-16070650D01*
X11984943Y-16070650D02*
X12003991Y-16080174D01*
X12003991Y-16080174D02*
X12013515Y-16099222D01*
X12013515Y-16099222D02*
X12013515Y-16203984D01*
X12403991Y-15994460D02*
X12232563Y-16251603D01*
X12661134Y-16003984D02*
X12680182Y-16003984D01*
X12680182Y-16003984D02*
X12699229Y-16013508D01*
X12699229Y-16013508D02*
X12708753Y-16023031D01*
X12708753Y-16023031D02*
X12718277Y-16042079D01*
X12718277Y-16042079D02*
X12727801Y-16080174D01*
X12727801Y-16080174D02*
X12727801Y-16127793D01*
X12727801Y-16127793D02*
X12718277Y-16165888D01*
X12718277Y-16165888D02*
X12708753Y-16184936D01*
X12708753Y-16184936D02*
X12699229Y-16194460D01*
X12699229Y-16194460D02*
X12680182Y-16203984D01*
X12680182Y-16203984D02*
X12661134Y-16203984D01*
X12661134Y-16203984D02*
X12642086Y-16194460D01*
X12642086Y-16194460D02*
X12632563Y-16184936D01*
X12632563Y-16184936D02*
X12623039Y-16165888D01*
X12623039Y-16165888D02*
X12613515Y-16127793D01*
X12613515Y-16127793D02*
X12613515Y-16080174D01*
X12613515Y-16080174D02*
X12623039Y-16042079D01*
X12623039Y-16042079D02*
X12632563Y-16023031D01*
X12632563Y-16023031D02*
X12642086Y-16013508D01*
X12642086Y-16013508D02*
X12661134Y-16003984D01*
X12813515Y-16184936D02*
X12823039Y-16194460D01*
X12823039Y-16194460D02*
X12813515Y-16203984D01*
X12813515Y-16203984D02*
X12803991Y-16194460D01*
X12803991Y-16194460D02*
X12813515Y-16184936D01*
X12813515Y-16184936D02*
X12813515Y-16203984D01*
X13013515Y-16203984D02*
X12899229Y-16203984D01*
X12956372Y-16203984D02*
X12956372Y-16003984D01*
X12956372Y-16003984D02*
X12937325Y-16032555D01*
X12937325Y-16032555D02*
X12918277Y-16051603D01*
X12918277Y-16051603D02*
X12899229Y-16061127D01*
X13089706Y-16023031D02*
X13099229Y-16013508D01*
X13099229Y-16013508D02*
X13118277Y-16003984D01*
X13118277Y-16003984D02*
X13165896Y-16003984D01*
X13165896Y-16003984D02*
X13184944Y-16013508D01*
X13184944Y-16013508D02*
X13194467Y-16023031D01*
X13194467Y-16023031D02*
X13203991Y-16042079D01*
X13203991Y-16042079D02*
X13203991Y-16061127D01*
X13203991Y-16061127D02*
X13194467Y-16089698D01*
X13194467Y-16089698D02*
X13080182Y-16203984D01*
X13080182Y-16203984D02*
X13203991Y-16203984D01*
X13375420Y-16003984D02*
X13337325Y-16003984D01*
X13337325Y-16003984D02*
X13318277Y-16013508D01*
X13318277Y-16013508D02*
X13308753Y-16023031D01*
X13308753Y-16023031D02*
X13289706Y-16051603D01*
X13289706Y-16051603D02*
X13280182Y-16089698D01*
X13280182Y-16089698D02*
X13280182Y-16165888D01*
X13280182Y-16165888D02*
X13289706Y-16184936D01*
X13289706Y-16184936D02*
X13299229Y-16194460D01*
X13299229Y-16194460D02*
X13318277Y-16203984D01*
X13318277Y-16203984D02*
X13356372Y-16203984D01*
X13356372Y-16203984D02*
X13375420Y-16194460D01*
X13375420Y-16194460D02*
X13384944Y-16184936D01*
X13384944Y-16184936D02*
X13394467Y-16165888D01*
X13394467Y-16165888D02*
X13394467Y-16118269D01*
X13394467Y-16118269D02*
X13384944Y-16099222D01*
X13384944Y-16099222D02*
X13375420Y-16089698D01*
X13375420Y-16089698D02*
X13356372Y-16080174D01*
X13356372Y-16080174D02*
X13318277Y-16080174D01*
X13318277Y-16080174D02*
X13299229Y-16089698D01*
X13299229Y-16089698D02*
X13289706Y-16099222D01*
X13289706Y-16099222D02*
X13280182Y-16118269D01*
X13518277Y-16003984D02*
X13537325Y-16003984D01*
X13537325Y-16003984D02*
X13556372Y-16013508D01*
X13556372Y-16013508D02*
X13565896Y-16023031D01*
X13565896Y-16023031D02*
X13575420Y-16042079D01*
X13575420Y-16042079D02*
X13584944Y-16080174D01*
X13584944Y-16080174D02*
X13584944Y-16127793D01*
X13584944Y-16127793D02*
X13575420Y-16165888D01*
X13575420Y-16165888D02*
X13565896Y-16184936D01*
X13565896Y-16184936D02*
X13556372Y-16194460D01*
X13556372Y-16194460D02*
X13537325Y-16203984D01*
X13537325Y-16203984D02*
X13518277Y-16203984D01*
X13518277Y-16203984D02*
X13499229Y-16194460D01*
X13499229Y-16194460D02*
X13489706Y-16184936D01*
X13489706Y-16184936D02*
X13480182Y-16165888D01*
X13480182Y-16165888D02*
X13470658Y-16127793D01*
X13470658Y-16127793D02*
X13470658Y-16080174D01*
X13470658Y-16080174D02*
X13480182Y-16042079D01*
X13480182Y-16042079D02*
X13489706Y-16023031D01*
X13489706Y-16023031D02*
X13499229Y-16013508D01*
X13499229Y-16013508D02*
X13518277Y-16003984D01*
X13661134Y-16003984D02*
X13661134Y-16042079D01*
X13737325Y-16003984D02*
X13737325Y-16042079D01*
X14032563Y-16280174D02*
X14023039Y-16270650D01*
X14023039Y-16270650D02*
X14003991Y-16242079D01*
X14003991Y-16242079D02*
X13994468Y-16223031D01*
X13994468Y-16223031D02*
X13984944Y-16194460D01*
X13984944Y-16194460D02*
X13975420Y-16146841D01*
X13975420Y-16146841D02*
X13975420Y-16108746D01*
X13975420Y-16108746D02*
X13984944Y-16061127D01*
X13984944Y-16061127D02*
X13994468Y-16032555D01*
X13994468Y-16032555D02*
X14003991Y-16013508D01*
X14003991Y-16013508D02*
X14023039Y-15984936D01*
X14023039Y-15984936D02*
X14032563Y-15975412D01*
X14099229Y-16023031D02*
X14108753Y-16013508D01*
X14108753Y-16013508D02*
X14127801Y-16003984D01*
X14127801Y-16003984D02*
X14175420Y-16003984D01*
X14175420Y-16003984D02*
X14194468Y-16013508D01*
X14194468Y-16013508D02*
X14203991Y-16023031D01*
X14203991Y-16023031D02*
X14213515Y-16042079D01*
X14213515Y-16042079D02*
X14213515Y-16061127D01*
X14213515Y-16061127D02*
X14203991Y-16089698D01*
X14203991Y-16089698D02*
X14089706Y-16203984D01*
X14089706Y-16203984D02*
X14213515Y-16203984D01*
X14451610Y-16203984D02*
X14451610Y-16003984D01*
X14537325Y-16203984D02*
X14537325Y-16099222D01*
X14537325Y-16099222D02*
X14527801Y-16080174D01*
X14527801Y-16080174D02*
X14508753Y-16070650D01*
X14508753Y-16070650D02*
X14480182Y-16070650D01*
X14480182Y-16070650D02*
X14461134Y-16080174D01*
X14461134Y-16080174D02*
X14451610Y-16089698D01*
X14661134Y-16203984D02*
X14642087Y-16194460D01*
X14642087Y-16194460D02*
X14632563Y-16184936D01*
X14632563Y-16184936D02*
X14623039Y-16165888D01*
X14623039Y-16165888D02*
X14623039Y-16108746D01*
X14623039Y-16108746D02*
X14632563Y-16089698D01*
X14632563Y-16089698D02*
X14642087Y-16080174D01*
X14642087Y-16080174D02*
X14661134Y-16070650D01*
X14661134Y-16070650D02*
X14689706Y-16070650D01*
X14689706Y-16070650D02*
X14708753Y-16080174D01*
X14708753Y-16080174D02*
X14718277Y-16089698D01*
X14718277Y-16089698D02*
X14727801Y-16108746D01*
X14727801Y-16108746D02*
X14727801Y-16165888D01*
X14727801Y-16165888D02*
X14718277Y-16184936D01*
X14718277Y-16184936D02*
X14708753Y-16194460D01*
X14708753Y-16194460D02*
X14689706Y-16203984D01*
X14689706Y-16203984D02*
X14661134Y-16203984D01*
X14842087Y-16203984D02*
X14823039Y-16194460D01*
X14823039Y-16194460D02*
X14813515Y-16175412D01*
X14813515Y-16175412D02*
X14813515Y-16003984D01*
X14994468Y-16194460D02*
X14975420Y-16203984D01*
X14975420Y-16203984D02*
X14937325Y-16203984D01*
X14937325Y-16203984D02*
X14918277Y-16194460D01*
X14918277Y-16194460D02*
X14908753Y-16175412D01*
X14908753Y-16175412D02*
X14908753Y-16099222D01*
X14908753Y-16099222D02*
X14918277Y-16080174D01*
X14918277Y-16080174D02*
X14937325Y-16070650D01*
X14937325Y-16070650D02*
X14975420Y-16070650D01*
X14975420Y-16070650D02*
X14994468Y-16080174D01*
X14994468Y-16080174D02*
X15003991Y-16099222D01*
X15003991Y-16099222D02*
X15003991Y-16118269D01*
X15003991Y-16118269D02*
X14908753Y-16137317D01*
X15080182Y-16194460D02*
X15099230Y-16203984D01*
X15099230Y-16203984D02*
X15137325Y-16203984D01*
X15137325Y-16203984D02*
X15156372Y-16194460D01*
X15156372Y-16194460D02*
X15165896Y-16175412D01*
X15165896Y-16175412D02*
X15165896Y-16165888D01*
X15165896Y-16165888D02*
X15156372Y-16146841D01*
X15156372Y-16146841D02*
X15137325Y-16137317D01*
X15137325Y-16137317D02*
X15108753Y-16137317D01*
X15108753Y-16137317D02*
X15089706Y-16127793D01*
X15089706Y-16127793D02*
X15080182Y-16108746D01*
X15080182Y-16108746D02*
X15080182Y-16099222D01*
X15080182Y-16099222D02*
X15089706Y-16080174D01*
X15089706Y-16080174D02*
X15108753Y-16070650D01*
X15108753Y-16070650D02*
X15137325Y-16070650D01*
X15137325Y-16070650D02*
X15156372Y-16080174D01*
X15232563Y-16280174D02*
X15242087Y-16270650D01*
X15242087Y-16270650D02*
X15261134Y-16242079D01*
X15261134Y-16242079D02*
X15270658Y-16223031D01*
X15270658Y-16223031D02*
X15280182Y-16194460D01*
X15280182Y-16194460D02*
X15289706Y-16146841D01*
X15289706Y-16146841D02*
X15289706Y-16108746D01*
X15289706Y-16108746D02*
X15280182Y-16061127D01*
X15280182Y-16061127D02*
X15270658Y-16032555D01*
X15270658Y-16032555D02*
X15261134Y-16013508D01*
X15261134Y-16013508D02*
X15242087Y-15984936D01*
X15242087Y-15984936D02*
X15232563Y-15975412D01*
M02*
