M48
INCH,TZ
T1C0.0118
T2C0.0157
T3C0.0315
T4C0.0394
T5C0.0433
T6C0.0787
T7C0.0906
T8C0.1260
%
G90
G05
T1
X42011Y-51061
X42263Y-50002
X42348Y-26506
X42763Y-29667
X43523Y-40874
X43523Y-41386
X43523Y-42380
X43533Y-40382
X43533Y-41888
X43558Y-46380
X44058Y-50266
X44369Y-48904
X44739Y-49146
X44783Y-25742
X44783Y-26742
X44787Y-26407
X44789Y-26075
X45054Y-49659
X45272Y-31004
X45350Y-49427
X45602Y-31014
X46212Y-36687
X46531Y-36033
X46842Y-35612
X46846Y-31337
X47145Y-45380
X47149Y-45872
X47153Y-43380
X47153Y-43876
X47153Y-44884
X47153Y-50537
X47157Y-44376
X47157Y-46376
X47161Y-42880
X47165Y-41376
X47165Y-41880
X47172Y-42376
X47174Y-40884
X47307Y-19083
X47311Y-18409
X47311Y-18740
X47315Y-18063
X47476Y-31888
X47476Y-32242
X47476Y-32596
X47476Y-32990
X47476Y-33581
X47476Y-34171
X47791Y-33266
X47791Y-33896
X47791Y-34407
X48090Y-51297
X48630Y-19083
X48634Y-18409
X48634Y-18740
X48638Y-18063
X49556Y-40382
X49586Y-26601
X49586Y-28570
X49635Y-41888
X49635Y-42390
X49645Y-41386
X49665Y-40884
X49739Y-33266
X50019Y-33581
X50255Y-33907
X50511Y-34159
X50566Y-50270
X50748Y-34407
X50783Y-48900
X51019Y-49167
X51043Y-32242
X51235Y-49683
X51279Y-27231
X51318Y-32596
X51452Y-49423
X51594Y-32986
X51751Y-40894
X51755Y-43876
X51759Y-41896
X51759Y-43388
X51761Y-41386
X51763Y-42396
X51763Y-42880
X51767Y-50541
X51771Y-44380
X51771Y-44884
X51775Y-45404
X51775Y-45872
X51775Y-46376
X51791Y-28009
X51909Y-16700
X52503Y-49994
X52775Y-27231
X53050Y-20519
X53146Y-18421
X54192Y-16700
X54665Y-17527
X55751Y-34955
X61378Y-20283
X61948Y-22144
X61948Y-25835
X61968Y-28945
X62283Y-24388
X62283Y-31937
X62539Y-44939
X62539Y-48896
X63088Y-45945
X63088Y-49169
X63543Y-27774
X63600Y-46945
X63602Y-49427
X63936Y-27537
X64054Y-47951
X64054Y-49683
X64067Y-23028
X64330Y-27301
X64684Y-49781
X64724Y-27065
X65039Y-26809
X65157Y-49978
X65432Y-26571
X65449Y-19260
X65491Y-50254
X65787Y-26356
X66102Y-26120
X66377Y-50530
X66776Y-22079
X67063Y-21453
X67075Y-23031
X67181Y-21768
X68035Y-24492
X68385Y-43443
X68680Y-28089
X69154Y-30701
X69172Y-47793
X69251Y-31947
X69379Y-31002
X69428Y-45333
X69428Y-46317
X70294Y-42951
X71082Y-41927
X71141Y-43285
X71180Y-51051
X71417Y-29270
X71417Y-40943
X71495Y-51278
X71731Y-29516
X71731Y-39939
X72046Y-29781
X72046Y-38935
X72361Y-30008
X72676Y-30234
X72676Y-37951
X72991Y-36947
X73306Y-30460
X73306Y-35943
X73444Y-25254
X73621Y-27498
X73621Y-30766
X73700Y-26435
X73936Y-25766
X73936Y-27144
X74251Y-26789
X74251Y-38443
X74448Y-20004
X74448Y-25490
X74724Y-22774
X74724Y-27498
X74842Y-20004
X75039Y-37419
X75107Y-49240
X75462Y-26789
X75590Y-36258
X75708Y-27577
X75738Y-22301
X75826Y-35451
X75954Y-26435
X76220Y-26081
X76436Y-45707
X76436Y-47124
X76495Y-20126
X76495Y-25766
X76672Y-46809
X76771Y-20372
X76771Y-25490
X77086Y-25254
X77480Y-24467
X78857Y-23423
X79251Y-34939
X79527Y-34663
T2
X42759Y-25644
X42759Y-28833
X43622Y-46902
X44098Y-35628
X46212Y-30939
X46968Y-52301
X49586Y-46907
X52893Y-36199
X54602Y-36199
X55117Y-21267
X55672Y-17061
X56810Y-21267
X57003Y-17053
X65164Y-19551
X69172Y-43738
X69331Y-30051
X70708Y-51632
X71535Y-43738
X72322Y-20805
X74133Y-31120
X74212Y-23679
X75563Y-42154
T3
X42046Y-30663
X42046Y-31451
X42046Y-32238
X42046Y-33026
X42046Y-33813
X42046Y-34600
X45844Y-22384
X46828Y-22384
X47995Y-17140
X47995Y-20140
X49389Y-52085
X50176Y-52085
X50964Y-52085
X50995Y-17140
X50995Y-20140
X51436Y-23157
X51436Y-23944
X52224Y-23157
X52224Y-23944
X53011Y-23157
X53011Y-23944
X57558Y-28945
X57558Y-29945
X57558Y-30945
X57558Y-31945
X57558Y-32945
X57558Y-33945
X57558Y-34945
X57558Y-35945
X57558Y-36945
X57558Y-37945
X57558Y-38945
X57558Y-39945
X57558Y-40945
X57558Y-41945
X57558Y-42945
X57558Y-43945
X57558Y-44945
X57558Y-45945
X57558Y-46945
X57558Y-47945
X67558Y-28945
X67558Y-29945
X67558Y-30945
X67558Y-31945
X67558Y-32945
X67558Y-33945
X67558Y-34945
X67558Y-35945
X67558Y-36945
X67558Y-37945
X67558Y-38945
X67558Y-39945
X67558Y-40945
X67558Y-41945
X67558Y-42945
X67558Y-43945
X67558Y-44945
X67558Y-45945
X67558Y-46945
X67558Y-47945
X70571Y-20827
X70571Y-21614
X70571Y-22402
X70571Y-23189
X70571Y-23976
X77913Y-26120
X77913Y-26907
X77913Y-27695
X77913Y-28482
X77913Y-29270
X77913Y-30057
X77913Y-30844
X77913Y-31632
X77913Y-35470
X77913Y-36258
X77913Y-37045
X77913Y-37833
X77913Y-38620
X77913Y-39407
X77913Y-40195
X77913Y-40982
X77913Y-41770
X77913Y-42557
X77913Y-43344
X77913Y-44132
X77913Y-44919
X77913Y-45707
X77913Y-46494
X77913Y-47281
X78700Y-26120
X78700Y-26907
X78700Y-27695
X78700Y-28482
X78700Y-29270
X78700Y-30057
X78700Y-30844
X78700Y-31632
X78700Y-35470
X78700Y-36258
X78700Y-37045
X78700Y-37833
X78700Y-38620
X78700Y-39407
X78700Y-40195
X78700Y-40982
X78700Y-41770
X78700Y-42557
X78700Y-43344
X78700Y-44132
X78700Y-44919
X78700Y-45707
X78700Y-46494
X78700Y-47281
T4
X62541Y-15852
X62991Y-15073
X62991Y-16632
X63442Y-15852
X63893Y-15073
X63893Y-16632
X64344Y-15852
X64794Y-15073
X64794Y-16632
X65245Y-15852
X65696Y-15073
X65696Y-16632
X66147Y-15852
X66598Y-15073
X66598Y-16632
T5
X54606Y-23421
X54606Y-25193
X57165Y-23421
X57165Y-25193
X58501Y-23426
X58501Y-25197
X61060Y-23426
X61060Y-25197
T6
X42476Y-52000
X56783Y-15024
X79323Y-52004
X79327Y-15039
T7
X72058Y-17604
X77231Y-17604
T8
X59769Y-15825
X69611Y-15825
T4
G00X42724Y-16313
M15
G01X42724Y-15722
M16
G05
G00X44751Y-16411
M15
G01X44239Y-16411
M16
G05
G00X44889Y-18774
M15
G01X44102Y-18774
M16
G05
G00X46267Y-16313
M15
G01X46267Y-15722
M16
G05
T0
M30
