%TF.GenerationSoftware,KiCad,Pcbnew,7.0.7*%
%TF.CreationDate,2023-08-20T18:16:21+05:30*%
%TF.ProjectId,8puter,38707574-6572-42e6-9b69-6361645f7063,rev?*%
%TF.SameCoordinates,Original*%
%TF.FileFunction,Drillmap*%
%TF.FilePolarity,Positive*%
%FSLAX45Y45*%
G04 Gerber Fmt 4.5, Leading zero omitted, Abs format (unit mm)*
G04 Created by KiCad (PCBNEW 7.0.7) date 2023-08-20 18:16:21*
%MOMM*%
%LPD*%
G01*
G04 APERTURE LIST*
%ADD10C,0.050000*%
%ADD11C,0.200000*%
%ADD12C,0.160000*%
G04 APERTURE END LIST*
D10*
X20460000Y-3710000D02*
X20460000Y-13310000D01*
X10660000Y-3510000D02*
G75*
G03*
X10460000Y-3710000I0J-200000D01*
G01*
X10460000Y-13310000D02*
G75*
G03*
X10660000Y-13510000I200000J0D01*
G01*
X20258579Y-13510000D02*
X10660000Y-13510000D01*
X10660000Y-3510000D02*
X20260000Y-3510000D01*
X20460000Y-3710000D02*
G75*
G03*
X20260000Y-3510000I-200000J0D01*
G01*
X10460000Y-13310000D02*
X10460000Y-3710000D01*
X20258579Y-13509995D02*
G75*
G03*
X20460000Y-13310000I11J201415D01*
G01*
D11*
D12*
X11212000Y-3784000D02*
X11372000Y-3944000D01*
X11372000Y-3784000D02*
X11212000Y-3944000D01*
D11*
X10718277Y-13823984D02*
X10718277Y-13623984D01*
X10718277Y-13623984D02*
X10765896Y-13623984D01*
X10765896Y-13623984D02*
X10794467Y-13633508D01*
X10794467Y-13633508D02*
X10813515Y-13652555D01*
X10813515Y-13652555D02*
X10823039Y-13671603D01*
X10823039Y-13671603D02*
X10832563Y-13709698D01*
X10832563Y-13709698D02*
X10832563Y-13738269D01*
X10832563Y-13738269D02*
X10823039Y-13776365D01*
X10823039Y-13776365D02*
X10813515Y-13795412D01*
X10813515Y-13795412D02*
X10794467Y-13814460D01*
X10794467Y-13814460D02*
X10765896Y-13823984D01*
X10765896Y-13823984D02*
X10718277Y-13823984D01*
X10918277Y-13823984D02*
X10918277Y-13690650D01*
X10918277Y-13728746D02*
X10927801Y-13709698D01*
X10927801Y-13709698D02*
X10937324Y-13700174D01*
X10937324Y-13700174D02*
X10956372Y-13690650D01*
X10956372Y-13690650D02*
X10975420Y-13690650D01*
X11042086Y-13823984D02*
X11042086Y-13690650D01*
X11042086Y-13623984D02*
X11032563Y-13633508D01*
X11032563Y-13633508D02*
X11042086Y-13643031D01*
X11042086Y-13643031D02*
X11051610Y-13633508D01*
X11051610Y-13633508D02*
X11042086Y-13623984D01*
X11042086Y-13623984D02*
X11042086Y-13643031D01*
X11165896Y-13823984D02*
X11146848Y-13814460D01*
X11146848Y-13814460D02*
X11137324Y-13795412D01*
X11137324Y-13795412D02*
X11137324Y-13623984D01*
X11270658Y-13823984D02*
X11251610Y-13814460D01*
X11251610Y-13814460D02*
X11242086Y-13795412D01*
X11242086Y-13795412D02*
X11242086Y-13623984D01*
X11499229Y-13823984D02*
X11499229Y-13623984D01*
X11499229Y-13623984D02*
X11565896Y-13766841D01*
X11565896Y-13766841D02*
X11632562Y-13623984D01*
X11632562Y-13623984D02*
X11632562Y-13823984D01*
X11813515Y-13823984D02*
X11813515Y-13719222D01*
X11813515Y-13719222D02*
X11803991Y-13700174D01*
X11803991Y-13700174D02*
X11784943Y-13690650D01*
X11784943Y-13690650D02*
X11746848Y-13690650D01*
X11746848Y-13690650D02*
X11727801Y-13700174D01*
X11813515Y-13814460D02*
X11794467Y-13823984D01*
X11794467Y-13823984D02*
X11746848Y-13823984D01*
X11746848Y-13823984D02*
X11727801Y-13814460D01*
X11727801Y-13814460D02*
X11718277Y-13795412D01*
X11718277Y-13795412D02*
X11718277Y-13776365D01*
X11718277Y-13776365D02*
X11727801Y-13757317D01*
X11727801Y-13757317D02*
X11746848Y-13747793D01*
X11746848Y-13747793D02*
X11794467Y-13747793D01*
X11794467Y-13747793D02*
X11813515Y-13738269D01*
X11908753Y-13690650D02*
X11908753Y-13890650D01*
X11908753Y-13700174D02*
X11927801Y-13690650D01*
X11927801Y-13690650D02*
X11965896Y-13690650D01*
X11965896Y-13690650D02*
X11984943Y-13700174D01*
X11984943Y-13700174D02*
X11994467Y-13709698D01*
X11994467Y-13709698D02*
X12003991Y-13728746D01*
X12003991Y-13728746D02*
X12003991Y-13785888D01*
X12003991Y-13785888D02*
X11994467Y-13804936D01*
X11994467Y-13804936D02*
X11984943Y-13814460D01*
X11984943Y-13814460D02*
X11965896Y-13823984D01*
X11965896Y-13823984D02*
X11927801Y-13823984D01*
X11927801Y-13823984D02*
X11908753Y-13814460D01*
X12089705Y-13804936D02*
X12099229Y-13814460D01*
X12099229Y-13814460D02*
X12089705Y-13823984D01*
X12089705Y-13823984D02*
X12080182Y-13814460D01*
X12080182Y-13814460D02*
X12089705Y-13804936D01*
X12089705Y-13804936D02*
X12089705Y-13823984D01*
X12089705Y-13700174D02*
X12099229Y-13709698D01*
X12099229Y-13709698D02*
X12089705Y-13719222D01*
X12089705Y-13719222D02*
X12080182Y-13709698D01*
X12080182Y-13709698D02*
X12089705Y-13700174D01*
X12089705Y-13700174D02*
X12089705Y-13719222D01*
D12*
X10297500Y-14072500D02*
X10457500Y-14232500D01*
X10457500Y-14072500D02*
X10297500Y-14232500D01*
D11*
X10823039Y-14243984D02*
X10708753Y-14243984D01*
X10765896Y-14243984D02*
X10765896Y-14043984D01*
X10765896Y-14043984D02*
X10746848Y-14072555D01*
X10746848Y-14072555D02*
X10727801Y-14091603D01*
X10727801Y-14091603D02*
X10708753Y-14101127D01*
X10908753Y-14224936D02*
X10918277Y-14234460D01*
X10918277Y-14234460D02*
X10908753Y-14243984D01*
X10908753Y-14243984D02*
X10899229Y-14234460D01*
X10899229Y-14234460D02*
X10908753Y-14224936D01*
X10908753Y-14224936D02*
X10908753Y-14243984D01*
X11089705Y-14043984D02*
X11051610Y-14043984D01*
X11051610Y-14043984D02*
X11032563Y-14053508D01*
X11032563Y-14053508D02*
X11023039Y-14063031D01*
X11023039Y-14063031D02*
X11003991Y-14091603D01*
X11003991Y-14091603D02*
X10994467Y-14129698D01*
X10994467Y-14129698D02*
X10994467Y-14205888D01*
X10994467Y-14205888D02*
X11003991Y-14224936D01*
X11003991Y-14224936D02*
X11013515Y-14234460D01*
X11013515Y-14234460D02*
X11032563Y-14243984D01*
X11032563Y-14243984D02*
X11070658Y-14243984D01*
X11070658Y-14243984D02*
X11089705Y-14234460D01*
X11089705Y-14234460D02*
X11099229Y-14224936D01*
X11099229Y-14224936D02*
X11108753Y-14205888D01*
X11108753Y-14205888D02*
X11108753Y-14158269D01*
X11108753Y-14158269D02*
X11099229Y-14139222D01*
X11099229Y-14139222D02*
X11089705Y-14129698D01*
X11089705Y-14129698D02*
X11070658Y-14120174D01*
X11070658Y-14120174D02*
X11032563Y-14120174D01*
X11032563Y-14120174D02*
X11013515Y-14129698D01*
X11013515Y-14129698D02*
X11003991Y-14139222D01*
X11003991Y-14139222D02*
X10994467Y-14158269D01*
X11232562Y-14043984D02*
X11251610Y-14043984D01*
X11251610Y-14043984D02*
X11270658Y-14053508D01*
X11270658Y-14053508D02*
X11280182Y-14063031D01*
X11280182Y-14063031D02*
X11289705Y-14082079D01*
X11289705Y-14082079D02*
X11299229Y-14120174D01*
X11299229Y-14120174D02*
X11299229Y-14167793D01*
X11299229Y-14167793D02*
X11289705Y-14205888D01*
X11289705Y-14205888D02*
X11280182Y-14224936D01*
X11280182Y-14224936D02*
X11270658Y-14234460D01*
X11270658Y-14234460D02*
X11251610Y-14243984D01*
X11251610Y-14243984D02*
X11232562Y-14243984D01*
X11232562Y-14243984D02*
X11213515Y-14234460D01*
X11213515Y-14234460D02*
X11203991Y-14224936D01*
X11203991Y-14224936D02*
X11194467Y-14205888D01*
X11194467Y-14205888D02*
X11184943Y-14167793D01*
X11184943Y-14167793D02*
X11184943Y-14120174D01*
X11184943Y-14120174D02*
X11194467Y-14082079D01*
X11194467Y-14082079D02*
X11203991Y-14063031D01*
X11203991Y-14063031D02*
X11213515Y-14053508D01*
X11213515Y-14053508D02*
X11232562Y-14043984D01*
X11423039Y-14043984D02*
X11442086Y-14043984D01*
X11442086Y-14043984D02*
X11461134Y-14053508D01*
X11461134Y-14053508D02*
X11470658Y-14063031D01*
X11470658Y-14063031D02*
X11480182Y-14082079D01*
X11480182Y-14082079D02*
X11489705Y-14120174D01*
X11489705Y-14120174D02*
X11489705Y-14167793D01*
X11489705Y-14167793D02*
X11480182Y-14205888D01*
X11480182Y-14205888D02*
X11470658Y-14224936D01*
X11470658Y-14224936D02*
X11461134Y-14234460D01*
X11461134Y-14234460D02*
X11442086Y-14243984D01*
X11442086Y-14243984D02*
X11423039Y-14243984D01*
X11423039Y-14243984D02*
X11403991Y-14234460D01*
X11403991Y-14234460D02*
X11394467Y-14224936D01*
X11394467Y-14224936D02*
X11384943Y-14205888D01*
X11384943Y-14205888D02*
X11375420Y-14167793D01*
X11375420Y-14167793D02*
X11375420Y-14120174D01*
X11375420Y-14120174D02*
X11384943Y-14082079D01*
X11384943Y-14082079D02*
X11394467Y-14063031D01*
X11394467Y-14063031D02*
X11403991Y-14053508D01*
X11403991Y-14053508D02*
X11423039Y-14043984D01*
X11575420Y-14243984D02*
X11575420Y-14110650D01*
X11575420Y-14129698D02*
X11584943Y-14120174D01*
X11584943Y-14120174D02*
X11603991Y-14110650D01*
X11603991Y-14110650D02*
X11632563Y-14110650D01*
X11632563Y-14110650D02*
X11651610Y-14120174D01*
X11651610Y-14120174D02*
X11661134Y-14139222D01*
X11661134Y-14139222D02*
X11661134Y-14243984D01*
X11661134Y-14139222D02*
X11670658Y-14120174D01*
X11670658Y-14120174D02*
X11689705Y-14110650D01*
X11689705Y-14110650D02*
X11718277Y-14110650D01*
X11718277Y-14110650D02*
X11737324Y-14120174D01*
X11737324Y-14120174D02*
X11746848Y-14139222D01*
X11746848Y-14139222D02*
X11746848Y-14243984D01*
X11842086Y-14243984D02*
X11842086Y-14110650D01*
X11842086Y-14129698D02*
X11851610Y-14120174D01*
X11851610Y-14120174D02*
X11870658Y-14110650D01*
X11870658Y-14110650D02*
X11899229Y-14110650D01*
X11899229Y-14110650D02*
X11918277Y-14120174D01*
X11918277Y-14120174D02*
X11927801Y-14139222D01*
X11927801Y-14139222D02*
X11927801Y-14243984D01*
X11927801Y-14139222D02*
X11937324Y-14120174D01*
X11937324Y-14120174D02*
X11956372Y-14110650D01*
X11956372Y-14110650D02*
X11984943Y-14110650D01*
X11984943Y-14110650D02*
X12003991Y-14120174D01*
X12003991Y-14120174D02*
X12013515Y-14139222D01*
X12013515Y-14139222D02*
X12013515Y-14243984D01*
X12403991Y-14034460D02*
X12232563Y-14291603D01*
X12661134Y-14043984D02*
X12680182Y-14043984D01*
X12680182Y-14043984D02*
X12699229Y-14053508D01*
X12699229Y-14053508D02*
X12708753Y-14063031D01*
X12708753Y-14063031D02*
X12718277Y-14082079D01*
X12718277Y-14082079D02*
X12727801Y-14120174D01*
X12727801Y-14120174D02*
X12727801Y-14167793D01*
X12727801Y-14167793D02*
X12718277Y-14205888D01*
X12718277Y-14205888D02*
X12708753Y-14224936D01*
X12708753Y-14224936D02*
X12699229Y-14234460D01*
X12699229Y-14234460D02*
X12680182Y-14243984D01*
X12680182Y-14243984D02*
X12661134Y-14243984D01*
X12661134Y-14243984D02*
X12642086Y-14234460D01*
X12642086Y-14234460D02*
X12632563Y-14224936D01*
X12632563Y-14224936D02*
X12623039Y-14205888D01*
X12623039Y-14205888D02*
X12613515Y-14167793D01*
X12613515Y-14167793D02*
X12613515Y-14120174D01*
X12613515Y-14120174D02*
X12623039Y-14082079D01*
X12623039Y-14082079D02*
X12632563Y-14063031D01*
X12632563Y-14063031D02*
X12642086Y-14053508D01*
X12642086Y-14053508D02*
X12661134Y-14043984D01*
X12813515Y-14224936D02*
X12823039Y-14234460D01*
X12823039Y-14234460D02*
X12813515Y-14243984D01*
X12813515Y-14243984D02*
X12803991Y-14234460D01*
X12803991Y-14234460D02*
X12813515Y-14224936D01*
X12813515Y-14224936D02*
X12813515Y-14243984D01*
X12946848Y-14043984D02*
X12965896Y-14043984D01*
X12965896Y-14043984D02*
X12984944Y-14053508D01*
X12984944Y-14053508D02*
X12994467Y-14063031D01*
X12994467Y-14063031D02*
X13003991Y-14082079D01*
X13003991Y-14082079D02*
X13013515Y-14120174D01*
X13013515Y-14120174D02*
X13013515Y-14167793D01*
X13013515Y-14167793D02*
X13003991Y-14205888D01*
X13003991Y-14205888D02*
X12994467Y-14224936D01*
X12994467Y-14224936D02*
X12984944Y-14234460D01*
X12984944Y-14234460D02*
X12965896Y-14243984D01*
X12965896Y-14243984D02*
X12946848Y-14243984D01*
X12946848Y-14243984D02*
X12927801Y-14234460D01*
X12927801Y-14234460D02*
X12918277Y-14224936D01*
X12918277Y-14224936D02*
X12908753Y-14205888D01*
X12908753Y-14205888D02*
X12899229Y-14167793D01*
X12899229Y-14167793D02*
X12899229Y-14120174D01*
X12899229Y-14120174D02*
X12908753Y-14082079D01*
X12908753Y-14082079D02*
X12918277Y-14063031D01*
X12918277Y-14063031D02*
X12927801Y-14053508D01*
X12927801Y-14053508D02*
X12946848Y-14043984D01*
X13184944Y-14043984D02*
X13146848Y-14043984D01*
X13146848Y-14043984D02*
X13127801Y-14053508D01*
X13127801Y-14053508D02*
X13118277Y-14063031D01*
X13118277Y-14063031D02*
X13099229Y-14091603D01*
X13099229Y-14091603D02*
X13089706Y-14129698D01*
X13089706Y-14129698D02*
X13089706Y-14205888D01*
X13089706Y-14205888D02*
X13099229Y-14224936D01*
X13099229Y-14224936D02*
X13108753Y-14234460D01*
X13108753Y-14234460D02*
X13127801Y-14243984D01*
X13127801Y-14243984D02*
X13165896Y-14243984D01*
X13165896Y-14243984D02*
X13184944Y-14234460D01*
X13184944Y-14234460D02*
X13194467Y-14224936D01*
X13194467Y-14224936D02*
X13203991Y-14205888D01*
X13203991Y-14205888D02*
X13203991Y-14158269D01*
X13203991Y-14158269D02*
X13194467Y-14139222D01*
X13194467Y-14139222D02*
X13184944Y-14129698D01*
X13184944Y-14129698D02*
X13165896Y-14120174D01*
X13165896Y-14120174D02*
X13127801Y-14120174D01*
X13127801Y-14120174D02*
X13108753Y-14129698D01*
X13108753Y-14129698D02*
X13099229Y-14139222D01*
X13099229Y-14139222D02*
X13089706Y-14158269D01*
X13270658Y-14043984D02*
X13394467Y-14043984D01*
X13394467Y-14043984D02*
X13327801Y-14120174D01*
X13327801Y-14120174D02*
X13356372Y-14120174D01*
X13356372Y-14120174D02*
X13375420Y-14129698D01*
X13375420Y-14129698D02*
X13384944Y-14139222D01*
X13384944Y-14139222D02*
X13394467Y-14158269D01*
X13394467Y-14158269D02*
X13394467Y-14205888D01*
X13394467Y-14205888D02*
X13384944Y-14224936D01*
X13384944Y-14224936D02*
X13375420Y-14234460D01*
X13375420Y-14234460D02*
X13356372Y-14243984D01*
X13356372Y-14243984D02*
X13299229Y-14243984D01*
X13299229Y-14243984D02*
X13280182Y-14234460D01*
X13280182Y-14234460D02*
X13270658Y-14224936D01*
X13518277Y-14043984D02*
X13537325Y-14043984D01*
X13537325Y-14043984D02*
X13556372Y-14053508D01*
X13556372Y-14053508D02*
X13565896Y-14063031D01*
X13565896Y-14063031D02*
X13575420Y-14082079D01*
X13575420Y-14082079D02*
X13584944Y-14120174D01*
X13584944Y-14120174D02*
X13584944Y-14167793D01*
X13584944Y-14167793D02*
X13575420Y-14205888D01*
X13575420Y-14205888D02*
X13565896Y-14224936D01*
X13565896Y-14224936D02*
X13556372Y-14234460D01*
X13556372Y-14234460D02*
X13537325Y-14243984D01*
X13537325Y-14243984D02*
X13518277Y-14243984D01*
X13518277Y-14243984D02*
X13499229Y-14234460D01*
X13499229Y-14234460D02*
X13489706Y-14224936D01*
X13489706Y-14224936D02*
X13480182Y-14205888D01*
X13480182Y-14205888D02*
X13470658Y-14167793D01*
X13470658Y-14167793D02*
X13470658Y-14120174D01*
X13470658Y-14120174D02*
X13480182Y-14082079D01*
X13480182Y-14082079D02*
X13489706Y-14063031D01*
X13489706Y-14063031D02*
X13499229Y-14053508D01*
X13499229Y-14053508D02*
X13518277Y-14043984D01*
X13661134Y-14043984D02*
X13661134Y-14082079D01*
X13737325Y-14043984D02*
X13737325Y-14082079D01*
X14032563Y-14320174D02*
X14023039Y-14310650D01*
X14023039Y-14310650D02*
X14003991Y-14282079D01*
X14003991Y-14282079D02*
X13994468Y-14263031D01*
X13994468Y-14263031D02*
X13984944Y-14234460D01*
X13984944Y-14234460D02*
X13975420Y-14186841D01*
X13975420Y-14186841D02*
X13975420Y-14148746D01*
X13975420Y-14148746D02*
X13984944Y-14101127D01*
X13984944Y-14101127D02*
X13994468Y-14072555D01*
X13994468Y-14072555D02*
X14003991Y-14053508D01*
X14003991Y-14053508D02*
X14023039Y-14024936D01*
X14023039Y-14024936D02*
X14032563Y-14015412D01*
X14213515Y-14243984D02*
X14099229Y-14243984D01*
X14156372Y-14243984D02*
X14156372Y-14043984D01*
X14156372Y-14043984D02*
X14137325Y-14072555D01*
X14137325Y-14072555D02*
X14118277Y-14091603D01*
X14118277Y-14091603D02*
X14099229Y-14101127D01*
X14451610Y-14243984D02*
X14451610Y-14043984D01*
X14537325Y-14243984D02*
X14537325Y-14139222D01*
X14537325Y-14139222D02*
X14527801Y-14120174D01*
X14527801Y-14120174D02*
X14508753Y-14110650D01*
X14508753Y-14110650D02*
X14480182Y-14110650D01*
X14480182Y-14110650D02*
X14461134Y-14120174D01*
X14461134Y-14120174D02*
X14451610Y-14129698D01*
X14661134Y-14243984D02*
X14642087Y-14234460D01*
X14642087Y-14234460D02*
X14632563Y-14224936D01*
X14632563Y-14224936D02*
X14623039Y-14205888D01*
X14623039Y-14205888D02*
X14623039Y-14148746D01*
X14623039Y-14148746D02*
X14632563Y-14129698D01*
X14632563Y-14129698D02*
X14642087Y-14120174D01*
X14642087Y-14120174D02*
X14661134Y-14110650D01*
X14661134Y-14110650D02*
X14689706Y-14110650D01*
X14689706Y-14110650D02*
X14708753Y-14120174D01*
X14708753Y-14120174D02*
X14718277Y-14129698D01*
X14718277Y-14129698D02*
X14727801Y-14148746D01*
X14727801Y-14148746D02*
X14727801Y-14205888D01*
X14727801Y-14205888D02*
X14718277Y-14224936D01*
X14718277Y-14224936D02*
X14708753Y-14234460D01*
X14708753Y-14234460D02*
X14689706Y-14243984D01*
X14689706Y-14243984D02*
X14661134Y-14243984D01*
X14842087Y-14243984D02*
X14823039Y-14234460D01*
X14823039Y-14234460D02*
X14813515Y-14215412D01*
X14813515Y-14215412D02*
X14813515Y-14043984D01*
X14994468Y-14234460D02*
X14975420Y-14243984D01*
X14975420Y-14243984D02*
X14937325Y-14243984D01*
X14937325Y-14243984D02*
X14918277Y-14234460D01*
X14918277Y-14234460D02*
X14908753Y-14215412D01*
X14908753Y-14215412D02*
X14908753Y-14139222D01*
X14908753Y-14139222D02*
X14918277Y-14120174D01*
X14918277Y-14120174D02*
X14937325Y-14110650D01*
X14937325Y-14110650D02*
X14975420Y-14110650D01*
X14975420Y-14110650D02*
X14994468Y-14120174D01*
X14994468Y-14120174D02*
X15003991Y-14139222D01*
X15003991Y-14139222D02*
X15003991Y-14158269D01*
X15003991Y-14158269D02*
X14908753Y-14177317D01*
X15070658Y-14320174D02*
X15080182Y-14310650D01*
X15080182Y-14310650D02*
X15099230Y-14282079D01*
X15099230Y-14282079D02*
X15108753Y-14263031D01*
X15108753Y-14263031D02*
X15118277Y-14234460D01*
X15118277Y-14234460D02*
X15127801Y-14186841D01*
X15127801Y-14186841D02*
X15127801Y-14148746D01*
X15127801Y-14148746D02*
X15118277Y-14101127D01*
X15118277Y-14101127D02*
X15108753Y-14072555D01*
X15108753Y-14072555D02*
X15099230Y-14053508D01*
X15099230Y-14053508D02*
X15080182Y-14024936D01*
X15080182Y-14024936D02*
X15070658Y-14015412D01*
X15432563Y-14320174D02*
X15423039Y-14310650D01*
X15423039Y-14310650D02*
X15403991Y-14282079D01*
X15403991Y-14282079D02*
X15394468Y-14263031D01*
X15394468Y-14263031D02*
X15384944Y-14234460D01*
X15384944Y-14234460D02*
X15375420Y-14186841D01*
X15375420Y-14186841D02*
X15375420Y-14148746D01*
X15375420Y-14148746D02*
X15384944Y-14101127D01*
X15384944Y-14101127D02*
X15394468Y-14072555D01*
X15394468Y-14072555D02*
X15403991Y-14053508D01*
X15403991Y-14053508D02*
X15423039Y-14024936D01*
X15423039Y-14024936D02*
X15432563Y-14015412D01*
X15508753Y-14110650D02*
X15508753Y-14243984D01*
X15508753Y-14129698D02*
X15518277Y-14120174D01*
X15518277Y-14120174D02*
X15537325Y-14110650D01*
X15537325Y-14110650D02*
X15565896Y-14110650D01*
X15565896Y-14110650D02*
X15584944Y-14120174D01*
X15584944Y-14120174D02*
X15594468Y-14139222D01*
X15594468Y-14139222D02*
X15594468Y-14243984D01*
X15718277Y-14243984D02*
X15699230Y-14234460D01*
X15699230Y-14234460D02*
X15689706Y-14224936D01*
X15689706Y-14224936D02*
X15680182Y-14205888D01*
X15680182Y-14205888D02*
X15680182Y-14148746D01*
X15680182Y-14148746D02*
X15689706Y-14129698D01*
X15689706Y-14129698D02*
X15699230Y-14120174D01*
X15699230Y-14120174D02*
X15718277Y-14110650D01*
X15718277Y-14110650D02*
X15746849Y-14110650D01*
X15746849Y-14110650D02*
X15765896Y-14120174D01*
X15765896Y-14120174D02*
X15775420Y-14129698D01*
X15775420Y-14129698D02*
X15784944Y-14148746D01*
X15784944Y-14148746D02*
X15784944Y-14205888D01*
X15784944Y-14205888D02*
X15775420Y-14224936D01*
X15775420Y-14224936D02*
X15765896Y-14234460D01*
X15765896Y-14234460D02*
X15746849Y-14243984D01*
X15746849Y-14243984D02*
X15718277Y-14243984D01*
X15842087Y-14110650D02*
X15918277Y-14110650D01*
X15870658Y-14043984D02*
X15870658Y-14215412D01*
X15870658Y-14215412D02*
X15880182Y-14234460D01*
X15880182Y-14234460D02*
X15899230Y-14243984D01*
X15899230Y-14243984D02*
X15918277Y-14243984D01*
X16137325Y-14110650D02*
X16137325Y-14310650D01*
X16137325Y-14120174D02*
X16156372Y-14110650D01*
X16156372Y-14110650D02*
X16194468Y-14110650D01*
X16194468Y-14110650D02*
X16213515Y-14120174D01*
X16213515Y-14120174D02*
X16223039Y-14129698D01*
X16223039Y-14129698D02*
X16232563Y-14148746D01*
X16232563Y-14148746D02*
X16232563Y-14205888D01*
X16232563Y-14205888D02*
X16223039Y-14224936D01*
X16223039Y-14224936D02*
X16213515Y-14234460D01*
X16213515Y-14234460D02*
X16194468Y-14243984D01*
X16194468Y-14243984D02*
X16156372Y-14243984D01*
X16156372Y-14243984D02*
X16137325Y-14234460D01*
X16346849Y-14243984D02*
X16327801Y-14234460D01*
X16327801Y-14234460D02*
X16318277Y-14215412D01*
X16318277Y-14215412D02*
X16318277Y-14043984D01*
X16508753Y-14243984D02*
X16508753Y-14139222D01*
X16508753Y-14139222D02*
X16499230Y-14120174D01*
X16499230Y-14120174D02*
X16480182Y-14110650D01*
X16480182Y-14110650D02*
X16442087Y-14110650D01*
X16442087Y-14110650D02*
X16423039Y-14120174D01*
X16508753Y-14234460D02*
X16489706Y-14243984D01*
X16489706Y-14243984D02*
X16442087Y-14243984D01*
X16442087Y-14243984D02*
X16423039Y-14234460D01*
X16423039Y-14234460D02*
X16413515Y-14215412D01*
X16413515Y-14215412D02*
X16413515Y-14196365D01*
X16413515Y-14196365D02*
X16423039Y-14177317D01*
X16423039Y-14177317D02*
X16442087Y-14167793D01*
X16442087Y-14167793D02*
X16489706Y-14167793D01*
X16489706Y-14167793D02*
X16508753Y-14158269D01*
X16575420Y-14110650D02*
X16651611Y-14110650D01*
X16603992Y-14043984D02*
X16603992Y-14215412D01*
X16603992Y-14215412D02*
X16613515Y-14234460D01*
X16613515Y-14234460D02*
X16632563Y-14243984D01*
X16632563Y-14243984D02*
X16651611Y-14243984D01*
X16794468Y-14234460D02*
X16775420Y-14243984D01*
X16775420Y-14243984D02*
X16737325Y-14243984D01*
X16737325Y-14243984D02*
X16718277Y-14234460D01*
X16718277Y-14234460D02*
X16708753Y-14215412D01*
X16708753Y-14215412D02*
X16708753Y-14139222D01*
X16708753Y-14139222D02*
X16718277Y-14120174D01*
X16718277Y-14120174D02*
X16737325Y-14110650D01*
X16737325Y-14110650D02*
X16775420Y-14110650D01*
X16775420Y-14110650D02*
X16794468Y-14120174D01*
X16794468Y-14120174D02*
X16803992Y-14139222D01*
X16803992Y-14139222D02*
X16803992Y-14158269D01*
X16803992Y-14158269D02*
X16708753Y-14177317D01*
X16975420Y-14243984D02*
X16975420Y-14043984D01*
X16975420Y-14234460D02*
X16956373Y-14243984D01*
X16956373Y-14243984D02*
X16918277Y-14243984D01*
X16918277Y-14243984D02*
X16899230Y-14234460D01*
X16899230Y-14234460D02*
X16889706Y-14224936D01*
X16889706Y-14224936D02*
X16880182Y-14205888D01*
X16880182Y-14205888D02*
X16880182Y-14148746D01*
X16880182Y-14148746D02*
X16889706Y-14129698D01*
X16889706Y-14129698D02*
X16899230Y-14120174D01*
X16899230Y-14120174D02*
X16918277Y-14110650D01*
X16918277Y-14110650D02*
X16956373Y-14110650D01*
X16956373Y-14110650D02*
X16975420Y-14120174D01*
X17051611Y-14320174D02*
X17061135Y-14310650D01*
X17061135Y-14310650D02*
X17080182Y-14282079D01*
X17080182Y-14282079D02*
X17089706Y-14263031D01*
X17089706Y-14263031D02*
X17099230Y-14234460D01*
X17099230Y-14234460D02*
X17108754Y-14186841D01*
X17108754Y-14186841D02*
X17108754Y-14148746D01*
X17108754Y-14148746D02*
X17099230Y-14101127D01*
X17099230Y-14101127D02*
X17089706Y-14072555D01*
X17089706Y-14072555D02*
X17080182Y-14053508D01*
X17080182Y-14053508D02*
X17061135Y-14024936D01*
X17061135Y-14024936D02*
X17051611Y-14015412D01*
M02*
