%TF.GenerationSoftware,KiCad,Pcbnew,6.0.4-1.fc35*%
%TF.CreationDate,2022-04-12T19:23:18+05:30*%
%TF.ProjectId,8puter,38707574-6572-42e6-9b69-6361645f7063,rev?*%
%TF.SameCoordinates,Original*%
%TF.FileFunction,Copper,L4,Bot*%
%TF.FilePolarity,Positive*%
%FSLAX46Y46*%
G04 Gerber Fmt 4.6, Leading zero omitted, Abs format (unit mm)*
G04 Created by KiCad (PCBNEW 6.0.4-1.fc35) date 2022-04-12 19:23:18*
%MOMM*%
%LPD*%
G01*
G04 APERTURE LIST*
%TA.AperFunction,ComponentPad*%
%ADD10R,1.600000X1.600000*%
%TD*%
%TA.AperFunction,ComponentPad*%
%ADD11C,1.600000*%
%TD*%
%TA.AperFunction,ComponentPad*%
%ADD12R,0.850000X0.850000*%
%TD*%
%TA.AperFunction,ComponentPad*%
%ADD13O,0.850000X0.850000*%
%TD*%
%TA.AperFunction,ComponentPad*%
%ADD14C,3.000000*%
%TD*%
%TA.AperFunction,ComponentPad*%
%ADD15R,1.800000X1.800000*%
%TD*%
%TA.AperFunction,ComponentPad*%
%ADD16O,1.800000X1.800000*%
%TD*%
%TA.AperFunction,ComponentPad*%
%ADD17R,4.000000X2.000000*%
%TD*%
%TA.AperFunction,ComponentPad*%
%ADD18O,3.300000X2.000000*%
%TD*%
%TA.AperFunction,ComponentPad*%
%ADD19O,2.000000X3.500000*%
%TD*%
%TA.AperFunction,ComponentPad*%
%ADD20O,1.600000X1.600000*%
%TD*%
%TA.AperFunction,ComponentPad*%
%ADD21R,2.400000X1.600000*%
%TD*%
%TA.AperFunction,ComponentPad*%
%ADD22O,2.400000X1.600000*%
%TD*%
%TA.AperFunction,ComponentPad*%
%ADD23R,2.500000X2.500000*%
%TD*%
%TA.AperFunction,ComponentPad*%
%ADD24C,2.500000*%
%TD*%
%TA.AperFunction,ComponentPad*%
%ADD25C,2.000000*%
%TD*%
%TA.AperFunction,ComponentPad*%
%ADD26C,4.000000*%
%TD*%
%TA.AperFunction,ViaPad*%
%ADD27C,0.600000*%
%TD*%
%TA.AperFunction,ViaPad*%
%ADD28C,0.800000*%
%TD*%
%TA.AperFunction,Conductor*%
%ADD29C,0.200000*%
%TD*%
%TA.AperFunction,Conductor*%
%ADD30C,0.150000*%
%TD*%
%TA.AperFunction,Conductor*%
%ADD31C,0.250000*%
%TD*%
%TA.AperFunction,Conductor*%
%ADD32C,0.400000*%
%TD*%
G04 APERTURE END LIST*
D10*
%TO.P,C5,1*%
%TO.N,/Power/PWR*%
X67508000Y-74235000D03*
D11*
%TO.P,C5,2*%
%TO.N,GND*%
X65508000Y-74235000D03*
%TD*%
D10*
%TO.P,C6,1*%
%TO.N,Net-(PWREG1-Pad1)*%
X67508000Y-72535000D03*
D11*
%TO.P,C6,2*%
%TO.N,GND*%
X65508000Y-72535000D03*
%TD*%
D10*
%TO.P,C7,1*%
%TO.N,Net-(PWREG1-Pad1)*%
X67508000Y-70835000D03*
D11*
%TO.P,C7,2*%
%TO.N,GND*%
X65508000Y-70835000D03*
%TD*%
D10*
%TO.P,C8,1*%
%TO.N,Net-(C17-Pad1)*%
X67508000Y-69135000D03*
D11*
%TO.P,C8,2*%
%TO.N,GND*%
X65508000Y-69135000D03*
%TD*%
D10*
%TO.P,C19,1*%
%TO.N,Net-(PWREG1-Pad1)*%
X67508000Y-67335000D03*
D11*
%TO.P,C19,2*%
%TO.N,GND*%
X65508000Y-67335000D03*
%TD*%
D10*
%TO.P,C20,1*%
%TO.N,Net-(C17-Pad1)*%
X67508000Y-65635000D03*
D11*
%TO.P,C20,2*%
%TO.N,GND*%
X65508000Y-65635000D03*
%TD*%
D12*
%TO.P,J4,1,Pin_1*%
%TO.N,/Bus Control/XO2_TMS*%
X188208000Y-94035000D03*
D13*
%TO.P,J4,2,Pin_2*%
%TO.N,/Bus Control/XO2_TCK*%
X187208000Y-94035000D03*
%TO.P,J4,3,Pin_3*%
%TO.N,/Bus Control/XO2_TDI*%
X186208000Y-94035000D03*
%TO.P,J4,4,Pin_4*%
%TO.N,GND*%
X185208000Y-94035000D03*
%TO.P,J4,5,Pin_5*%
%TO.N,/Bus Control/XO2_TDO*%
X184208000Y-94035000D03*
%TD*%
D14*
%TO.P,J3,5,Shield*%
%TO.N,unconnected-(J3-Pad5)*%
X137378000Y-45185000D03*
X124238000Y-45185000D03*
%TD*%
D15*
%TO.P,D1,1,K*%
%TO.N,/Bus Control/RDY_R*%
X143798000Y-73135000D03*
D16*
%TO.P,D1,2,A*%
%TO.N,RDY*%
X151418000Y-73135000D03*
%TD*%
D17*
%TO.P,J1,1*%
%TO.N,/Power/PWR*%
X66103000Y-45796000D03*
D18*
%TO.P,J1,2*%
%TO.N,GND*%
X66103000Y-39796000D03*
D19*
%TO.P,J1,MP*%
%TO.N,N/C*%
X70603000Y-38796000D03*
X61603000Y-38796000D03*
%TD*%
D10*
%TO.P,C14,1*%
%TO.N,+5V*%
X70715349Y-125431000D03*
D11*
%TO.P,C14,2*%
%TO.N,GND*%
X74515349Y-125431000D03*
%TD*%
D10*
%TO.P,RP2,1,common*%
%TO.N,GND*%
X137415000Y-130780000D03*
D20*
%TO.P,RP2,2,R1*%
%TO.N,ADDR11*%
X137415000Y-128240000D03*
%TO.P,RP2,3,R2*%
%TO.N,ADDR10*%
X137415000Y-125700000D03*
%TO.P,RP2,4,R3*%
%TO.N,ADDR9*%
X137415000Y-123160000D03*
%TO.P,RP2,5,R4*%
%TO.N,ADDR8*%
X137415000Y-120620000D03*
%TO.P,RP2,6,R5*%
%TO.N,ADDR7*%
X137415000Y-118080000D03*
%TO.P,RP2,7,R6*%
%TO.N,ADDR6*%
X137415000Y-115540000D03*
%TO.P,RP2,8,R7*%
%TO.N,ADDR5*%
X137415000Y-113000000D03*
%TO.P,RP2,9,R8*%
%TO.N,ADDR4*%
X137415000Y-110460000D03*
%TD*%
D10*
%TO.P,C13,1*%
%TO.N,+5V*%
X71477349Y-112604000D03*
D11*
%TO.P,C13,2*%
%TO.N,GND*%
X75277349Y-112604000D03*
%TD*%
D10*
%TO.P,C3,1*%
%TO.N,/Power/PWR*%
X83708000Y-76732349D03*
D11*
%TO.P,C3,2*%
%TO.N,GND*%
X83708000Y-81732349D03*
%TD*%
D10*
%TO.P,C3,1*%
%TO.N,/Power/PWR*%
X73026000Y-97755349D03*
D11*
%TO.P,C3,2*%
%TO.N,GND*%
X73026000Y-102755349D03*
%TD*%
D10*
%TO.P,C17,1*%
%TO.N,Net-(C17-Pad1)*%
X86087000Y-51267000D03*
D11*
%TO.P,C17,2*%
%TO.N,GND*%
X84087000Y-51267000D03*
%TD*%
D21*
%TO.P,CPU1,1,~{VP}*%
%TO.N,unconnected-(CPU1-Pad1)*%
X142622000Y-79970000D03*
D22*
%TO.P,CPU1,2,RDY*%
%TO.N,RDY*%
X142622000Y-82510000D03*
%TO.P,CPU1,3,~{ABORT}*%
%TO.N,Net-(CPU1-Pad3)*%
X142622000Y-85050000D03*
%TO.P,CPU1,4,~{IRQ}*%
%TO.N,~{IRQ}*%
X142622000Y-87590000D03*
%TO.P,CPU1,5,~{ML}*%
%TO.N,unconnected-(CPU1-Pad5)*%
X142622000Y-90130000D03*
%TO.P,CPU1,6,~{NMI}*%
%TO.N,~{NMI}*%
X142622000Y-92670000D03*
%TO.P,CPU1,7,VPA*%
%TO.N,VPA*%
X142622000Y-95210000D03*
%TO.P,CPU1,8,VDD*%
%TO.N,+5V*%
X142622000Y-97750000D03*
%TO.P,CPU1,9,A0*%
%TO.N,ADDR0*%
X142622000Y-100290000D03*
%TO.P,CPU1,10,A1*%
%TO.N,ADDR1*%
X142622000Y-102830000D03*
%TO.P,CPU1,11,A2*%
%TO.N,ADDR2*%
X142622000Y-105370000D03*
%TO.P,CPU1,12,A3*%
%TO.N,ADDR3*%
X142622000Y-107910000D03*
%TO.P,CPU1,13,A4*%
%TO.N,ADDR4*%
X142622000Y-110450000D03*
%TO.P,CPU1,14,A5*%
%TO.N,ADDR5*%
X142622000Y-112990000D03*
%TO.P,CPU1,15,A6*%
%TO.N,ADDR6*%
X142622000Y-115530000D03*
%TO.P,CPU1,16,A7*%
%TO.N,ADDR7*%
X142622000Y-118070000D03*
%TO.P,CPU1,17,A8*%
%TO.N,ADDR8*%
X142622000Y-120610000D03*
%TO.P,CPU1,18,A9*%
%TO.N,ADDR9*%
X142622000Y-123150000D03*
%TO.P,CPU1,19,A10*%
%TO.N,ADDR10*%
X142622000Y-125690000D03*
%TO.P,CPU1,20,A11*%
%TO.N,ADDR11*%
X142622000Y-128230000D03*
%TO.P,CPU1,21,VSS*%
%TO.N,GND*%
X168022000Y-128230000D03*
%TO.P,CPU1,22,A12*%
%TO.N,ADDR12*%
X168022000Y-125690000D03*
%TO.P,CPU1,23,A13*%
%TO.N,ADDR13*%
X168022000Y-123150000D03*
%TO.P,CPU1,24,A14*%
%TO.N,ADDR14*%
X168022000Y-120610000D03*
%TO.P,CPU1,25,A15*%
%TO.N,ADDR15*%
X168022000Y-118070000D03*
%TO.P,CPU1,26,D7*%
%TO.N,/DBA7*%
X168022000Y-115530000D03*
%TO.P,CPU1,27,D6*%
%TO.N,/DBA6*%
X168022000Y-112990000D03*
%TO.P,CPU1,28,D5*%
%TO.N,/DBA5*%
X168022000Y-110450000D03*
%TO.P,CPU1,29,D4*%
%TO.N,/DBA4*%
X168022000Y-107910000D03*
%TO.P,CPU1,30,D3*%
%TO.N,/DBA3*%
X168022000Y-105370000D03*
%TO.P,CPU1,31,D2*%
%TO.N,/DBA2*%
X168022000Y-102830000D03*
%TO.P,CPU1,32,D1*%
%TO.N,/DBA1*%
X168022000Y-100290000D03*
%TO.P,CPU1,33,D0*%
%TO.N,/DBA0*%
X168022000Y-97750000D03*
%TO.P,CPU1,34,R/~{W}*%
%TO.N,CPU_R~{W}*%
X168022000Y-95210000D03*
%TO.P,CPU1,35,E*%
%TO.N,EMU*%
X168022000Y-92670000D03*
%TO.P,CPU1,36,BE*%
%TO.N,BE*%
X168022000Y-90130000D03*
%TO.P,CPU1,37,\u03D50*%
%TO.N,CLOCK*%
X168022000Y-87590000D03*
%TO.P,CPU1,38,MX*%
%TO.N,unconnected-(CPU1-Pad38)*%
X168022000Y-85050000D03*
%TO.P,CPU1,39,VDA*%
%TO.N,VDA*%
X168022000Y-82510000D03*
%TO.P,CPU1,40,~{RES}*%
%TO.N,RESET*%
X168022000Y-79970000D03*
%TD*%
D23*
%TO.P,CRYSTAL0,1,Tri-State*%
%TO.N,unconnected-(CRYSTAL0-Pad1)*%
X113288000Y-77445000D03*
D24*
%TO.P,CRYSTAL0,7,GND*%
%TO.N,GND*%
X128528000Y-77445000D03*
%TO.P,CRYSTAL0,8,OUT*%
%TO.N,/Clock/CRYSTAL*%
X128528000Y-69825000D03*
%TO.P,CRYSTAL0,14,Vcc*%
%TO.N,+5V*%
X113288000Y-69825000D03*
%TD*%
D10*
%TO.P,C1,1*%
%TO.N,/Power/PWR*%
X93040000Y-51394000D03*
D11*
%TO.P,C1,2*%
%TO.N,GND*%
X91040000Y-51394000D03*
%TD*%
D10*
%TO.P,SRAM1,1,A14*%
%TO.N,ADDR14*%
X110115000Y-125675000D03*
D20*
%TO.P,SRAM1,2,A12*%
%TO.N,ADDR12*%
X110115000Y-123135000D03*
%TO.P,SRAM1,3,A7*%
%TO.N,ADDR7*%
X110115000Y-120595000D03*
%TO.P,SRAM1,4,A6*%
%TO.N,ADDR6*%
X110115000Y-118055000D03*
%TO.P,SRAM1,5,A5*%
%TO.N,ADDR5*%
X110115000Y-115515000D03*
%TO.P,SRAM1,6,A4*%
%TO.N,ADDR4*%
X110115000Y-112975000D03*
%TO.P,SRAM1,7,A3*%
%TO.N,ADDR3*%
X110115000Y-110435000D03*
%TO.P,SRAM1,8,A2*%
%TO.N,ADDR2*%
X110115000Y-107895000D03*
%TO.P,SRAM1,9,A1*%
%TO.N,ADDR1*%
X110115000Y-105355000D03*
%TO.P,SRAM1,10,A0*%
%TO.N,ADDR0*%
X110115000Y-102815000D03*
%TO.P,SRAM1,11,Q0*%
%TO.N,DATA0*%
X110115000Y-100275000D03*
%TO.P,SRAM1,12,Q1*%
%TO.N,DATA1*%
X110115000Y-97735000D03*
%TO.P,SRAM1,13,Q2*%
%TO.N,DATA2*%
X110115000Y-95195000D03*
%TO.P,SRAM1,14,GND*%
%TO.N,GND*%
X110115000Y-92655000D03*
%TO.P,SRAM1,15,Q3*%
%TO.N,DATA3*%
X94875000Y-92655000D03*
%TO.P,SRAM1,16,Q4*%
%TO.N,DATA4*%
X94875000Y-95195000D03*
%TO.P,SRAM1,17,Q5*%
%TO.N,DATA5*%
X94875000Y-97735000D03*
%TO.P,SRAM1,18,Q6*%
%TO.N,DATA6*%
X94875000Y-100275000D03*
%TO.P,SRAM1,19,Q7*%
%TO.N,DATA7*%
X94875000Y-102815000D03*
%TO.P,SRAM1,20,~{CS}*%
%TO.N,/Memory Unit/~{SRAM_CS}*%
X94875000Y-105355000D03*
%TO.P,SRAM1,21,A10*%
%TO.N,ADDR10*%
X94875000Y-107895000D03*
%TO.P,SRAM1,22,~{OE}*%
%TO.N,~{READ}*%
X94875000Y-110435000D03*
%TO.P,SRAM1,23,A11*%
%TO.N,ADDR11*%
X94875000Y-112975000D03*
%TO.P,SRAM1,24,A9*%
%TO.N,ADDR9*%
X94875000Y-115515000D03*
%TO.P,SRAM1,25,A8*%
%TO.N,ADDR8*%
X94875000Y-118055000D03*
%TO.P,SRAM1,26,A13*%
%TO.N,ADDR13*%
X94875000Y-120595000D03*
%TO.P,SRAM1,27,~{WE}*%
%TO.N,~{WRITE}*%
X94875000Y-123135000D03*
%TO.P,SRAM1,28,VCC*%
%TO.N,+5V*%
X94875000Y-125675000D03*
%TD*%
D21*
%TO.P,ROM1,1,A14*%
%TO.N,ADDR14*%
X129394000Y-125675000D03*
D22*
%TO.P,ROM1,2,A12*%
%TO.N,ADDR12*%
X129394000Y-123135000D03*
%TO.P,ROM1,3,A7*%
%TO.N,ADDR7*%
X129394000Y-120595000D03*
%TO.P,ROM1,4,A6*%
%TO.N,ADDR6*%
X129394000Y-118055000D03*
%TO.P,ROM1,5,A5*%
%TO.N,ADDR5*%
X129394000Y-115515000D03*
%TO.P,ROM1,6,A4*%
%TO.N,ADDR4*%
X129394000Y-112975000D03*
%TO.P,ROM1,7,A3*%
%TO.N,ADDR3*%
X129394000Y-110435000D03*
%TO.P,ROM1,8,A2*%
%TO.N,ADDR2*%
X129394000Y-107895000D03*
%TO.P,ROM1,9,A1*%
%TO.N,ADDR1*%
X129394000Y-105355000D03*
%TO.P,ROM1,10,A0*%
%TO.N,ADDR0*%
X129394000Y-102815000D03*
%TO.P,ROM1,11,D0*%
%TO.N,DATA0*%
X129394000Y-100275000D03*
%TO.P,ROM1,12,D1*%
%TO.N,DATA1*%
X129394000Y-97735000D03*
%TO.P,ROM1,13,D2*%
%TO.N,DATA2*%
X129394000Y-95195000D03*
%TO.P,ROM1,14,GND*%
%TO.N,GND*%
X129394000Y-92655000D03*
%TO.P,ROM1,15,D3*%
%TO.N,DATA3*%
X114154000Y-92655000D03*
%TO.P,ROM1,16,D4*%
%TO.N,DATA4*%
X114154000Y-95195000D03*
%TO.P,ROM1,17,D5*%
%TO.N,DATA5*%
X114154000Y-97735000D03*
%TO.P,ROM1,18,D6*%
%TO.N,DATA6*%
X114154000Y-100275000D03*
%TO.P,ROM1,19,D7*%
%TO.N,DATA7*%
X114154000Y-102815000D03*
%TO.P,ROM1,20,~{CS}*%
%TO.N,/Memory Unit/~{ROM_CS}*%
X114154000Y-105355000D03*
%TO.P,ROM1,21,A10*%
%TO.N,ADDR10*%
X114154000Y-107895000D03*
%TO.P,ROM1,22,~{OE}*%
%TO.N,~{READ}*%
X114154000Y-110435000D03*
%TO.P,ROM1,23,A11*%
%TO.N,ADDR11*%
X114154000Y-112975000D03*
%TO.P,ROM1,24,A9*%
%TO.N,ADDR9*%
X114154000Y-115515000D03*
%TO.P,ROM1,25,A8*%
%TO.N,ADDR8*%
X114154000Y-118055000D03*
%TO.P,ROM1,26,A13*%
%TO.N,ADDR13*%
X114154000Y-120595000D03*
%TO.P,ROM1,27,~{WE}*%
%TO.N,Net-(R2-Pad2)*%
X114154000Y-123135000D03*
%TO.P,ROM1,28,VCC*%
%TO.N,+5V*%
X114154000Y-125675000D03*
%TD*%
D10*
%TO.P,RP1,1,common*%
%TO.N,GND*%
X175007000Y-97745000D03*
D20*
%TO.P,RP1,2,R1*%
%TO.N,DATA0*%
X175007000Y-95205000D03*
%TO.P,RP1,3,R2*%
%TO.N,DATA1*%
X175007000Y-92665000D03*
%TO.P,RP1,4,R3*%
%TO.N,DATA2*%
X175007000Y-90125000D03*
%TO.P,RP1,5,R4*%
%TO.N,DATA3*%
X175007000Y-87585000D03*
%TO.P,RP1,6,R5*%
%TO.N,DATA4*%
X175007000Y-85045000D03*
%TO.P,RP1,7,R6*%
%TO.N,DATA5*%
X175007000Y-82505000D03*
%TO.P,RP1,8,R7*%
%TO.N,DATA6*%
X175007000Y-79965000D03*
%TO.P,RP1,9,R8*%
%TO.N,DATA7*%
X175007000Y-77425000D03*
%TD*%
D25*
%TO.P,SW1,1,1*%
%TO.N,GND*%
X83853000Y-39746000D03*
X90353000Y-39746000D03*
%TO.P,SW1,2,2*%
%TO.N,Net-(C11-Pad1)*%
X83853000Y-44246000D03*
X90353000Y-44246000D03*
%TD*%
D26*
%TO.P,J2,0*%
%TO.N,N/C*%
X222098000Y-47245331D03*
X197098000Y-47245331D03*
D10*
%TO.P,J2,1,1*%
%TO.N,unconnected-(J2-Pad1)*%
X204058000Y-48665331D03*
D11*
%TO.P,J2,2,2*%
%TO.N,unconnected-(J2-Pad2)*%
X206828000Y-48665331D03*
%TO.P,J2,3,3*%
%TO.N,unconnected-(J2-Pad3)*%
X209598000Y-48665331D03*
%TO.P,J2,4,4*%
%TO.N,unconnected-(J2-Pad4)*%
X212368000Y-48665331D03*
%TO.P,J2,5,5*%
%TO.N,unconnected-(J2-Pad5)*%
X215138000Y-48665331D03*
%TO.P,J2,6,6*%
%TO.N,unconnected-(J2-Pad6)*%
X205443000Y-45825331D03*
%TO.P,J2,7,7*%
%TO.N,unconnected-(J2-Pad7)*%
X208213000Y-45825331D03*
%TO.P,J2,8,8*%
%TO.N,unconnected-(J2-Pad8)*%
X210983000Y-45825331D03*
%TO.P,J2,9,9*%
%TO.N,unconnected-(J2-Pad9)*%
X213753000Y-45825331D03*
%TD*%
D27*
%TO.N,CLOCK*%
X188308000Y-105335000D03*
X187308000Y-69535000D03*
%TO.N,/Bus Control/~{RDY_R}*%
X190208000Y-95935000D03*
X143208000Y-68535000D03*
%TO.N,VPA*%
X191108000Y-104035000D03*
%TO.N,VDA*%
X192108000Y-103035000D03*
%TO.N,/Bus Control/CPU_W~{R}*%
X185908000Y-104435000D03*
X180808000Y-100435000D03*
X187908000Y-104435000D03*
X172908000Y-101335000D03*
%TO.N,/Bus Control/RDY_R*%
X140408000Y-73735000D03*
X138808000Y-68735000D03*
D28*
%TO.N,GND*%
X171578000Y-110191000D03*
X171070000Y-112223000D03*
D27*
%TO.N,DATA7*%
X184278000Y-108544000D03*
%TO.N,DATA6*%
X183770000Y-107651000D03*
X183262000Y-106635000D03*
%TO.N,DATA4*%
X182754000Y-105619000D03*
X138408000Y-90535000D03*
%TO.N,DATA3*%
X182246000Y-104603000D03*
%TO.N,DATA2*%
X181738000Y-103587000D03*
%TO.N,DATA1*%
X181208000Y-102835000D03*
%TO.N,DATA0*%
X180722000Y-101809000D03*
%TO.N,ADDR14*%
X179198000Y-124923000D03*
X170308000Y-121875000D03*
%TO.N,ADDR12*%
X170308000Y-127082000D03*
X179198000Y-127971000D03*
%TO.N,ADDR13*%
X179198000Y-126447000D03*
X170308000Y-124415000D03*
%TO.N,ADDR15*%
X201892000Y-127844000D03*
X179198000Y-123399000D03*
X170308000Y-119335000D03*
D28*
%TO.N,+5V*%
X177801000Y-133305000D03*
X181996299Y-132538701D03*
X132708000Y-71135000D03*
X132708000Y-69035000D03*
D27*
%TO.N,ADDR23*%
X188342000Y-131527000D03*
X172086000Y-129495000D03*
%TO.N,ADDR22*%
X187326000Y-130802500D03*
X173110598Y-129495000D03*
%TO.N,ADDR21*%
X174130897Y-129499299D03*
X186310000Y-130294500D03*
%TO.N,ADDR20*%
X185294000Y-129786500D03*
X175155420Y-129499223D03*
%TD*%
D29*
%TO.N,CLOCK*%
X188308000Y-105335000D02*
X188708000Y-104935000D01*
X188708000Y-104935000D02*
X188708000Y-94984022D01*
X188708000Y-94984022D02*
X188932511Y-94759511D01*
X188932511Y-94759511D02*
X188932511Y-71159511D01*
X188932511Y-71159511D02*
X187308000Y-69535000D01*
%TO.N,/Bus Control/~{RDY_R}*%
X190208000Y-95935000D02*
X190208000Y-70835000D01*
X187908000Y-68535000D02*
X143208000Y-68535000D01*
X190208000Y-70835000D02*
X187908000Y-68535000D01*
%TO.N,/Bus Control/CPU_W~{R}*%
X180808000Y-100435000D02*
X179908000Y-101335000D01*
X179908000Y-101335000D02*
X172908000Y-101335000D01*
X187908000Y-104435000D02*
X185908000Y-104435000D01*
D30*
%TO.N,DATA7*%
X176581031Y-82936031D02*
X176581031Y-78999031D01*
X185040000Y-91395000D02*
X176581031Y-82936031D01*
X185040000Y-107782000D02*
X185040000Y-91395000D01*
X184278000Y-108544000D02*
X185040000Y-107782000D01*
X176581031Y-78999031D02*
X175007000Y-77425000D01*
D31*
%TO.N,/Bus Control/RDY_R*%
X138808000Y-72135000D02*
X140408000Y-73735000D01*
X138808000Y-68735000D02*
X138808000Y-72135000D01*
%TO.N,GND*%
X171578000Y-111715000D02*
X171070000Y-112223000D01*
X171578000Y-110191000D02*
X171578000Y-111715000D01*
D30*
%TO.N,DATA7*%
X141918000Y-77425000D02*
X175007000Y-77425000D01*
X113930254Y-89617000D02*
X136826000Y-89617000D01*
X140548440Y-78794560D02*
X141918000Y-77425000D01*
X111507000Y-100168000D02*
X111507000Y-92040254D01*
X140548440Y-85894560D02*
X140548440Y-78794560D01*
X114154000Y-102815000D02*
X111507000Y-100168000D01*
X136826000Y-89617000D02*
X140548440Y-85894560D01*
X111507000Y-92040254D02*
X113930254Y-89617000D01*
%TO.N,DATA6*%
X140847960Y-82364440D02*
X141977400Y-81235000D01*
X114057971Y-90125000D02*
X136918000Y-90125000D01*
X136918000Y-90125000D02*
X140847960Y-86195040D01*
X183770000Y-107651000D02*
X184532000Y-106889000D01*
X184532000Y-91776000D02*
X176131511Y-83375511D01*
X176131511Y-83375511D02*
X176131511Y-81089511D01*
X176131511Y-81089511D02*
X175007000Y-79965000D01*
X112179960Y-98300960D02*
X112179960Y-92003011D01*
X114154000Y-100275000D02*
X112179960Y-98300960D01*
X112179960Y-92003011D02*
X114057971Y-90125000D01*
X184532000Y-106889000D02*
X184532000Y-91776000D01*
X173737000Y-81235000D02*
X175007000Y-79965000D01*
X140847960Y-86195040D02*
X140847960Y-82364440D01*
X141977400Y-81235000D02*
X173737000Y-81235000D01*
X112629480Y-92189209D02*
X114244169Y-90574520D01*
X137068480Y-90574520D02*
X141147480Y-86495520D01*
X175007000Y-83267000D02*
X175007000Y-82505000D01*
X184024000Y-92284000D02*
X175007000Y-83267000D01*
X173737000Y-83775000D02*
X175007000Y-82505000D01*
X114154000Y-97735000D02*
X112629480Y-96210480D01*
X112629480Y-96210480D02*
X112629480Y-92189209D01*
X183262000Y-106635000D02*
X184024000Y-105873000D01*
X141147480Y-86495520D02*
X141147480Y-84604920D01*
X114244169Y-90574520D02*
X137068480Y-90574520D01*
X184024000Y-105873000D02*
X184024000Y-92284000D01*
X141147480Y-84604920D02*
X141977400Y-83775000D01*
X141977400Y-83775000D02*
X173737000Y-83775000D01*
%TO.N,DATA4*%
X141977400Y-86315000D02*
X173737000Y-86315000D01*
X138408000Y-90535000D02*
X138408000Y-89884400D01*
X183516000Y-92791282D02*
X175769718Y-85045000D01*
X182754000Y-105619000D02*
X183516000Y-104857000D01*
X183516000Y-104857000D02*
X183516000Y-92791282D01*
X173737000Y-86315000D02*
X175007000Y-85045000D01*
X138408000Y-89884400D02*
X141977400Y-86315000D01*
X175769718Y-85045000D02*
X175007000Y-85045000D01*
%TO.N,DATA3*%
X139124480Y-91082520D02*
X141352000Y-88855000D01*
X173737000Y-88855000D02*
X175007000Y-87585000D01*
X141352000Y-88855000D02*
X173737000Y-88855000D01*
X114154000Y-92655000D02*
X114154000Y-91300407D01*
X177293000Y-87585000D02*
X183008000Y-93300000D01*
X183008000Y-103841000D02*
X182246000Y-104603000D01*
X183008000Y-93300000D02*
X183008000Y-103841000D01*
X175007000Y-87585000D02*
X177293000Y-87585000D01*
X114371887Y-91082520D02*
X139124480Y-91082520D01*
X114154000Y-91300407D02*
X114371887Y-91082520D01*
%TO.N,DATA2*%
X173737000Y-91395000D02*
X175007000Y-90125000D01*
X138812000Y-94189000D02*
X141606000Y-91395000D01*
X141606000Y-91395000D02*
X173737000Y-91395000D01*
X130400000Y-94189000D02*
X138812000Y-94189000D01*
X182500000Y-93808000D02*
X178817000Y-90125000D01*
X182500000Y-102825000D02*
X182500000Y-93808000D01*
X181738000Y-103587000D02*
X182500000Y-102825000D01*
X178817000Y-90125000D02*
X175007000Y-90125000D01*
X129394000Y-95195000D02*
X129404000Y-95205000D01*
X129394000Y-95195000D02*
X130400000Y-94189000D01*
%TO.N,DATA1*%
X180214000Y-92665000D02*
X175007000Y-92665000D01*
X173737000Y-93935000D02*
X175007000Y-92665000D01*
X140669791Y-94744209D02*
X141479000Y-93935000D01*
X129394000Y-97735000D02*
X129394000Y-97638000D01*
X129394000Y-97638000D02*
X132287791Y-94744209D01*
X181992000Y-102051000D02*
X181992000Y-94443000D01*
X132287791Y-94744209D02*
X140669791Y-94744209D01*
X181208000Y-102835000D02*
X181992000Y-102051000D01*
X181992000Y-94443000D02*
X180214000Y-92665000D01*
X141479000Y-93935000D02*
X173737000Y-93935000D01*
%TO.N,DATA0*%
X140590000Y-95332000D02*
X141733000Y-96475000D01*
X129394000Y-100275000D02*
X129394000Y-99924000D01*
X180214000Y-95205000D02*
X175007000Y-95205000D01*
X141733000Y-96475000D02*
X173737000Y-96475000D01*
X181484000Y-96475000D02*
X180214000Y-95205000D01*
X180722000Y-101809000D02*
X181484000Y-101047000D01*
X181484000Y-101047000D02*
X181484000Y-96475000D01*
X129394000Y-99924000D02*
X133986000Y-95332000D01*
X133986000Y-95332000D02*
X140590000Y-95332000D01*
X173737000Y-96475000D02*
X175007000Y-95205000D01*
%TO.N,ADDR14*%
X170308000Y-121875000D02*
X171070000Y-121875000D01*
X174118000Y-124923000D02*
X179198000Y-124923000D01*
X171070000Y-121875000D02*
X174118000Y-124923000D01*
%TO.N,ADDR12*%
X171197000Y-127971000D02*
X179198000Y-127971000D01*
X170308000Y-127082000D02*
X171197000Y-127971000D01*
%TO.N,ADDR13*%
X171070000Y-124415000D02*
X173102000Y-126447000D01*
X173102000Y-126447000D02*
X179198000Y-126447000D01*
X170308000Y-124415000D02*
X171070000Y-124415000D01*
%TO.N,ADDR15*%
X198883000Y-127844000D02*
X197994000Y-126955000D01*
X197232000Y-123399000D02*
X179198000Y-123399000D01*
X170308000Y-119335000D02*
X171070000Y-119335000D01*
X201892000Y-127844000D02*
X198883000Y-127844000D01*
X175134000Y-123399000D02*
X179198000Y-123399000D01*
X197994000Y-124161000D02*
X197232000Y-123399000D01*
X171070000Y-119335000D02*
X175134000Y-123399000D01*
X197994000Y-126955000D02*
X197994000Y-124161000D01*
D32*
%TO.N,+5V*%
X132708000Y-71135000D02*
X132708000Y-69035000D01*
X181230000Y-133305000D02*
X177801000Y-133305000D01*
X181996299Y-132538701D02*
X181230000Y-133305000D01*
D30*
%TO.N,ADDR23*%
X174118000Y-131527000D02*
X172086000Y-129495000D01*
X188342000Y-131527000D02*
X174118000Y-131527000D01*
%TO.N,ADDR22*%
X173110598Y-129503598D02*
X173110598Y-129495000D01*
X187109500Y-131019000D02*
X174626000Y-131019000D01*
X187326000Y-130802500D02*
X187109500Y-131019000D01*
X174626000Y-131019000D02*
X173110598Y-129503598D01*
%TO.N,ADDR21*%
X175142598Y-130511000D02*
X174130897Y-129499299D01*
X186310000Y-130294500D02*
X186093500Y-130511000D01*
X186093500Y-130511000D02*
X175142598Y-130511000D01*
%TO.N,ADDR20*%
X175691197Y-130035000D02*
X175155420Y-129499223D01*
X185045500Y-130035000D02*
X175691197Y-130035000D01*
X185294000Y-129786500D02*
X185045500Y-130035000D01*
%TD*%
M02*
