%TF.GenerationSoftware,KiCad,Pcbnew,6.0.4-1.fc35*%
%TF.CreationDate,2022-04-12T19:23:18+05:30*%
%TF.ProjectId,8puter,38707574-6572-42e6-9b69-6361645f7063,rev?*%
%TF.SameCoordinates,Original*%
%TF.FileFunction,Copper,L1,Top*%
%TF.FilePolarity,Positive*%
%FSLAX46Y46*%
G04 Gerber Fmt 4.6, Leading zero omitted, Abs format (unit mm)*
G04 Created by KiCad (PCBNEW 6.0.4-1.fc35) date 2022-04-12 19:23:18*
%MOMM*%
%LPD*%
G01*
G04 APERTURE LIST*
G04 Aperture macros list*
%AMRoundRect*
0 Rectangle with rounded corners*
0 $1 Rounding radius*
0 $2 $3 $4 $5 $6 $7 $8 $9 X,Y pos of 4 corners*
0 Add a 4 corners polygon primitive as box body*
4,1,4,$2,$3,$4,$5,$6,$7,$8,$9,$2,$3,0*
0 Add four circle primitives for the rounded corners*
1,1,$1+$1,$2,$3*
1,1,$1+$1,$4,$5*
1,1,$1+$1,$6,$7*
1,1,$1+$1,$8,$9*
0 Add four rect primitives between the rounded corners*
20,1,$1+$1,$2,$3,$4,$5,0*
20,1,$1+$1,$4,$5,$6,$7,0*
20,1,$1+$1,$6,$7,$8,$9,0*
20,1,$1+$1,$8,$9,$2,$3,0*%
G04 Aperture macros list end*
%TA.AperFunction,SMDPad,CuDef*%
%ADD10RoundRect,0.200000X-0.200000X-0.275000X0.200000X-0.275000X0.200000X0.275000X-0.200000X0.275000X0*%
%TD*%
%TA.AperFunction,SMDPad,CuDef*%
%ADD11RoundRect,0.225000X0.225000X0.250000X-0.225000X0.250000X-0.225000X-0.250000X0.225000X-0.250000X0*%
%TD*%
%TA.AperFunction,ComponentPad*%
%ADD12R,1.600000X1.600000*%
%TD*%
%TA.AperFunction,ComponentPad*%
%ADD13C,1.600000*%
%TD*%
%TA.AperFunction,ComponentPad*%
%ADD14R,0.850000X0.850000*%
%TD*%
%TA.AperFunction,ComponentPad*%
%ADD15O,0.850000X0.850000*%
%TD*%
%TA.AperFunction,SMDPad,CuDef*%
%ADD16RoundRect,0.062500X-0.375000X-0.062500X0.375000X-0.062500X0.375000X0.062500X-0.375000X0.062500X0*%
%TD*%
%TA.AperFunction,SMDPad,CuDef*%
%ADD17RoundRect,0.062500X-0.062500X-0.375000X0.062500X-0.375000X0.062500X0.375000X-0.062500X0.375000X0*%
%TD*%
%TA.AperFunction,SMDPad,CuDef*%
%ADD18R,3.100000X3.100000*%
%TD*%
%TA.AperFunction,SMDPad,CuDef*%
%ADD19RoundRect,0.100000X-0.712500X-0.100000X0.712500X-0.100000X0.712500X0.100000X-0.712500X0.100000X0*%
%TD*%
%TA.AperFunction,SMDPad,CuDef*%
%ADD20RoundRect,0.200000X0.200000X0.275000X-0.200000X0.275000X-0.200000X-0.275000X0.200000X-0.275000X0*%
%TD*%
%TA.AperFunction,SMDPad,CuDef*%
%ADD21R,1.250000X3.000000*%
%TD*%
%TA.AperFunction,ComponentPad*%
%ADD22C,3.000000*%
%TD*%
%TA.AperFunction,SMDPad,CuDef*%
%ADD23R,0.700000X1.000000*%
%TD*%
%TA.AperFunction,SMDPad,CuDef*%
%ADD24R,0.700000X0.600000*%
%TD*%
%TA.AperFunction,SMDPad,CuDef*%
%ADD25RoundRect,0.137500X-0.137500X0.625000X-0.137500X-0.625000X0.137500X-0.625000X0.137500X0.625000X0*%
%TD*%
%TA.AperFunction,SMDPad,CuDef*%
%ADD26RoundRect,0.100000X0.637500X0.100000X-0.637500X0.100000X-0.637500X-0.100000X0.637500X-0.100000X0*%
%TD*%
%TA.AperFunction,ComponentPad*%
%ADD27R,1.800000X1.800000*%
%TD*%
%TA.AperFunction,ComponentPad*%
%ADD28O,1.800000X1.800000*%
%TD*%
%TA.AperFunction,ComponentPad*%
%ADD29R,4.000000X2.000000*%
%TD*%
%TA.AperFunction,ComponentPad*%
%ADD30O,3.300000X2.000000*%
%TD*%
%TA.AperFunction,ComponentPad*%
%ADD31O,2.000000X3.500000*%
%TD*%
%TA.AperFunction,SMDPad,CuDef*%
%ADD32RoundRect,0.125000X-0.625000X-0.125000X0.625000X-0.125000X0.625000X0.125000X-0.625000X0.125000X0*%
%TD*%
%TA.AperFunction,SMDPad,CuDef*%
%ADD33RoundRect,0.125000X-0.125000X-0.625000X0.125000X-0.625000X0.125000X0.625000X-0.125000X0.625000X0*%
%TD*%
%TA.AperFunction,ComponentPad*%
%ADD34O,1.600000X1.600000*%
%TD*%
%TA.AperFunction,SMDPad,CuDef*%
%ADD35RoundRect,0.100000X0.100000X-0.637500X0.100000X0.637500X-0.100000X0.637500X-0.100000X-0.637500X0*%
%TD*%
%TA.AperFunction,SMDPad,CuDef*%
%ADD36RoundRect,0.250000X0.400000X0.625000X-0.400000X0.625000X-0.400000X-0.625000X0.400000X-0.625000X0*%
%TD*%
%TA.AperFunction,SMDPad,CuDef*%
%ADD37RoundRect,0.250000X-0.325000X-0.650000X0.325000X-0.650000X0.325000X0.650000X-0.325000X0.650000X0*%
%TD*%
%TA.AperFunction,SMDPad,CuDef*%
%ADD38RoundRect,0.250000X0.412500X0.650000X-0.412500X0.650000X-0.412500X-0.650000X0.412500X-0.650000X0*%
%TD*%
%TA.AperFunction,SMDPad,CuDef*%
%ADD39RoundRect,0.150000X0.150000X-0.837500X0.150000X0.837500X-0.150000X0.837500X-0.150000X-0.837500X0*%
%TD*%
%TA.AperFunction,SMDPad,CuDef*%
%ADD40RoundRect,0.100000X-0.637500X-0.100000X0.637500X-0.100000X0.637500X0.100000X-0.637500X0.100000X0*%
%TD*%
%TA.AperFunction,SMDPad,CuDef*%
%ADD41RoundRect,0.100000X-0.100000X0.637500X-0.100000X-0.637500X0.100000X-0.637500X0.100000X0.637500X0*%
%TD*%
%TA.AperFunction,ComponentPad*%
%ADD42R,2.400000X1.600000*%
%TD*%
%TA.AperFunction,ComponentPad*%
%ADD43O,2.400000X1.600000*%
%TD*%
%TA.AperFunction,SMDPad,CuDef*%
%ADD44RoundRect,0.150000X0.675000X0.150000X-0.675000X0.150000X-0.675000X-0.150000X0.675000X-0.150000X0*%
%TD*%
%TA.AperFunction,SMDPad,CuDef*%
%ADD45RoundRect,0.250000X-0.400000X-0.625000X0.400000X-0.625000X0.400000X0.625000X-0.400000X0.625000X0*%
%TD*%
%TA.AperFunction,SMDPad,CuDef*%
%ADD46R,1.500000X0.520000*%
%TD*%
%TA.AperFunction,SMDPad,CuDef*%
%ADD47R,0.520000X1.500000*%
%TD*%
%TA.AperFunction,SMDPad,CuDef*%
%ADD48RoundRect,0.250000X0.412500X1.100000X-0.412500X1.100000X-0.412500X-1.100000X0.412500X-1.100000X0*%
%TD*%
%TA.AperFunction,SMDPad,CuDef*%
%ADD49RoundRect,0.250000X-0.412500X-0.650000X0.412500X-0.650000X0.412500X0.650000X-0.412500X0.650000X0*%
%TD*%
%TA.AperFunction,ComponentPad*%
%ADD50R,2.500000X2.500000*%
%TD*%
%TA.AperFunction,ComponentPad*%
%ADD51C,2.500000*%
%TD*%
%TA.AperFunction,SMDPad,CuDef*%
%ADD52RoundRect,0.200000X-0.275000X0.200000X-0.275000X-0.200000X0.275000X-0.200000X0.275000X0.200000X0*%
%TD*%
%TA.AperFunction,SMDPad,CuDef*%
%ADD53RoundRect,0.250000X0.650000X-0.412500X0.650000X0.412500X-0.650000X0.412500X-0.650000X-0.412500X0*%
%TD*%
%TA.AperFunction,SMDPad,CuDef*%
%ADD54RoundRect,0.250000X-0.650000X0.412500X-0.650000X-0.412500X0.650000X-0.412500X0.650000X0.412500X0*%
%TD*%
%TA.AperFunction,SMDPad,CuDef*%
%ADD55RoundRect,0.225000X-0.225000X-0.250000X0.225000X-0.250000X0.225000X0.250000X-0.225000X0.250000X0*%
%TD*%
%TA.AperFunction,ComponentPad*%
%ADD56C,2.000000*%
%TD*%
%TA.AperFunction,SMDPad,CuDef*%
%ADD57RoundRect,0.225000X-0.250000X0.225000X-0.250000X-0.225000X0.250000X-0.225000X0.250000X0.225000X0*%
%TD*%
%TA.AperFunction,SMDPad,CuDef*%
%ADD58RoundRect,0.062500X-0.350000X-0.062500X0.350000X-0.062500X0.350000X0.062500X-0.350000X0.062500X0*%
%TD*%
%TA.AperFunction,SMDPad,CuDef*%
%ADD59RoundRect,0.062500X-0.062500X-0.350000X0.062500X-0.350000X0.062500X0.350000X-0.062500X0.350000X0*%
%TD*%
%TA.AperFunction,SMDPad,CuDef*%
%ADD60R,2.600000X2.600000*%
%TD*%
%TA.AperFunction,SMDPad,CuDef*%
%ADD61RoundRect,0.150000X-0.800000X-0.150000X0.800000X-0.150000X0.800000X0.150000X-0.800000X0.150000X0*%
%TD*%
%TA.AperFunction,ComponentPad*%
%ADD62C,4.000000*%
%TD*%
%TA.AperFunction,ViaPad*%
%ADD63C,0.600000*%
%TD*%
%TA.AperFunction,ViaPad*%
%ADD64C,0.800000*%
%TD*%
%TA.AperFunction,Conductor*%
%ADD65C,0.200000*%
%TD*%
%TA.AperFunction,Conductor*%
%ADD66C,0.300000*%
%TD*%
%TA.AperFunction,Conductor*%
%ADD67C,0.250000*%
%TD*%
%TA.AperFunction,Conductor*%
%ADD68C,0.150000*%
%TD*%
%TA.AperFunction,Conductor*%
%ADD69C,0.400000*%
%TD*%
G04 APERTURE END LIST*
D10*
%TO.P,R9,1*%
%TO.N,Net-(U15-Pad26)*%
X193583000Y-81435000D03*
%TO.P,R9,2*%
%TO.N,+3V3*%
X195233000Y-81435000D03*
%TD*%
D11*
%TO.P,C30,1*%
%TO.N,GND*%
X195958000Y-92115000D03*
%TO.P,C30,2*%
%TO.N,+3V3*%
X194408000Y-92115000D03*
%TD*%
%TO.P,C29,1*%
%TO.N,GND*%
X195958000Y-93835000D03*
%TO.P,C29,2*%
%TO.N,+3V3*%
X194408000Y-93835000D03*
%TD*%
%TO.P,C28,1*%
%TO.N,GND*%
X195983000Y-95635000D03*
%TO.P,C28,2*%
%TO.N,+3V3*%
X194433000Y-95635000D03*
%TD*%
%TO.P,C27,1*%
%TO.N,GND*%
X196033000Y-97335000D03*
%TO.P,C27,2*%
%TO.N,+3V3*%
X194483000Y-97335000D03*
%TD*%
%TO.P,C26,1*%
%TO.N,GND*%
X196058000Y-99135000D03*
%TO.P,C26,2*%
%TO.N,+3V3*%
X194508000Y-99135000D03*
%TD*%
%TO.P,C31,1*%
%TO.N,GND*%
X195958000Y-90235000D03*
%TO.P,C31,2*%
%TO.N,+3V3*%
X194408000Y-90235000D03*
%TD*%
%TO.P,C24,1*%
%TO.N,GND*%
X196033000Y-102735000D03*
%TO.P,C24,2*%
%TO.N,+3V3*%
X194483000Y-102735000D03*
%TD*%
%TO.P,C25,1*%
%TO.N,GND*%
X196058000Y-100935000D03*
%TO.P,C25,2*%
%TO.N,+3V3*%
X194508000Y-100935000D03*
%TD*%
D12*
%TO.P,C5,1*%
%TO.N,/Power/PWR*%
X67508000Y-74235000D03*
D13*
%TO.P,C5,2*%
%TO.N,GND*%
X65508000Y-74235000D03*
%TD*%
D12*
%TO.P,C6,1*%
%TO.N,Net-(PWREG1-Pad1)*%
X67508000Y-72535000D03*
D13*
%TO.P,C6,2*%
%TO.N,GND*%
X65508000Y-72535000D03*
%TD*%
D12*
%TO.P,C7,1*%
%TO.N,Net-(PWREG1-Pad1)*%
X67508000Y-70835000D03*
D13*
%TO.P,C7,2*%
%TO.N,GND*%
X65508000Y-70835000D03*
%TD*%
D12*
%TO.P,C8,1*%
%TO.N,Net-(C17-Pad1)*%
X67508000Y-69135000D03*
D13*
%TO.P,C8,2*%
%TO.N,GND*%
X65508000Y-69135000D03*
%TD*%
D12*
%TO.P,C19,1*%
%TO.N,Net-(PWREG1-Pad1)*%
X67508000Y-67335000D03*
D13*
%TO.P,C19,2*%
%TO.N,GND*%
X65508000Y-67335000D03*
%TD*%
D12*
%TO.P,C20,1*%
%TO.N,Net-(C17-Pad1)*%
X67508000Y-65635000D03*
D13*
%TO.P,C20,2*%
%TO.N,GND*%
X65508000Y-65635000D03*
%TD*%
D14*
%TO.P,J4,1,Pin_1*%
%TO.N,/Bus Control/XO2_TMS*%
X188208000Y-94035000D03*
D15*
%TO.P,J4,2,Pin_2*%
%TO.N,/Bus Control/XO2_TCK*%
X187208000Y-94035000D03*
%TO.P,J4,3,Pin_3*%
%TO.N,/Bus Control/XO2_TDI*%
X186208000Y-94035000D03*
%TO.P,J4,4,Pin_4*%
%TO.N,GND*%
X185208000Y-94035000D03*
%TO.P,J4,5,Pin_5*%
%TO.N,/Bus Control/XO2_TDO*%
X184208000Y-94035000D03*
%TD*%
D16*
%TO.P,U15,1,PT6C/TDO*%
%TO.N,/Bus Control/XO2_TDO*%
X185970500Y-98785000D03*
%TO.P,U15,2,VCC*%
%TO.N,+3V3*%
X185970500Y-99285000D03*
%TO.P,U15,3,GND*%
%TO.N,GND*%
X185970500Y-99785000D03*
%TO.P,U15,4,PL5C*%
%TO.N,/Bus Control/CLK=*%
X185970500Y-100285000D03*
%TO.P,U15,5,PL5D*%
%TO.N,/Bus Control/CLK+*%
X185970500Y-100785000D03*
%TO.P,U15,6,VCCIO3*%
%TO.N,+3V3*%
X185970500Y-101285000D03*
%TO.P,U15,7,VCCIO2*%
X185970500Y-101785000D03*
%TO.P,U15,8,PB2A/CS*%
%TO.N,/Bus Control/DATA_BUS_EN*%
X185970500Y-102285000D03*
D17*
%TO.P,U15,9,PB2C/SCLK*%
%TO.N,/Bus Control/~{LATCH_OE}*%
X186658000Y-102972500D03*
%TO.P,U15,10,PB2D/SPISO*%
%TO.N,/Bus Control/LATCH_ADDR*%
X187158000Y-102972500D03*
%TO.P,U15,11,PB4A*%
%TO.N,/Bus Control/CPU_W~{R}*%
X187658000Y-102972500D03*
%TO.P,U15,12,PB4B*%
%TO.N,CLOCK*%
X188158000Y-102972500D03*
%TO.P,U15,13,PB4C*%
%TO.N,BE*%
X188658000Y-102972500D03*
%TO.P,U15,14,PB4D*%
%TO.N,CPU_R~{W}*%
X189158000Y-102972500D03*
%TO.P,U15,15,VCCIO2*%
%TO.N,+3V3*%
X189658000Y-102972500D03*
%TO.P,U15,16,PB9A/SN*%
%TO.N,VPA*%
X190158000Y-102972500D03*
D16*
%TO.P,U15,17,PB9B/SI*%
%TO.N,VDA*%
X190845500Y-102285000D03*
%TO.P,U15,18,VCC*%
%TO.N,+3V3*%
X190845500Y-101785000D03*
%TO.P,U15,19,VCCIO1*%
X190845500Y-101285000D03*
%TO.P,U15,20,PR5B*%
%TO.N,/Bus Control/BUS_OPCODE*%
X190845500Y-100785000D03*
%TO.P,U15,21,PR5A*%
%TO.N,VA*%
X190845500Y-100285000D03*
%TO.P,U15,22,GND*%
%TO.N,GND*%
X190845500Y-99785000D03*
%TO.P,U15,23,PT9D/DONE*%
%TO.N,/Bus Control/~{WAIT}*%
X190845500Y-99285000D03*
%TO.P,U15,24,VCCIO0*%
%TO.N,+3V3*%
X190845500Y-98785000D03*
D17*
%TO.P,U15,25,PT9B/PROGRAMN*%
%TO.N,/Bus Control/~{RDY_R}*%
X190158000Y-98097500D03*
%TO.P,U15,26,PT9A/JTAGENB*%
%TO.N,Net-(U15-Pad26)*%
X189658000Y-98097500D03*
%TO.P,U15,27,PT8D/SDA*%
%TO.N,~{WRITE}*%
X189158000Y-98097500D03*
%TO.P,U15,28,PT8C/SCL*%
%TO.N,~{READ}*%
X188658000Y-98097500D03*
%TO.P,U15,29,PT7B/TMS*%
%TO.N,/Bus Control/XO2_TMS*%
X188158000Y-98097500D03*
%TO.P,U15,30,PT7A/TCK*%
%TO.N,/Bus Control/XO2_TCK*%
X187658000Y-98097500D03*
%TO.P,U15,31,VCCIO0*%
%TO.N,+3V3*%
X187158000Y-98097500D03*
%TO.P,U15,32,PT6D/TDI*%
%TO.N,/Bus Control/XO2_TDI*%
X186658000Y-98097500D03*
D18*
%TO.P,U15,33,GND*%
%TO.N,GND*%
X188408000Y-100535000D03*
%TD*%
D19*
%TO.P,PWREG1,1,OUT*%
%TO.N,Net-(PWREG1-Pad1)*%
X72895500Y-57560000D03*
%TO.P,PWREG1,2,SENSE*%
%TO.N,unconnected-(PWREG1-Pad2)*%
X72895500Y-58210000D03*
%TO.P,PWREG1,3,BYP*%
%TO.N,unconnected-(PWREG1-Pad3)*%
X72895500Y-58860000D03*
%TO.P,PWREG1,4,GND*%
%TO.N,unconnected-(PWREG1-Pad4)*%
X72895500Y-59510000D03*
%TO.P,PWREG1,5,~{SHDN}*%
%TO.N,unconnected-(PWREG1-Pad5)*%
X77120500Y-59510000D03*
%TO.P,PWREG1,6,NC*%
%TO.N,unconnected-(PWREG1-Pad6)*%
X77120500Y-58860000D03*
%TO.P,PWREG1,7,NC*%
%TO.N,unconnected-(PWREG1-Pad7)*%
X77120500Y-58210000D03*
%TO.P,PWREG1,8,IN*%
%TO.N,/Power/PWR*%
X77120500Y-57560000D03*
%TD*%
D20*
%TO.P,R8,1*%
%TO.N,/Bus Control/XO2_TCK*%
X186808000Y-91535000D03*
%TO.P,R8,2*%
%TO.N,GND*%
X185158000Y-91535000D03*
%TD*%
%TO.P,R21,1*%
%TO.N,GND*%
X182563000Y-124923000D03*
%TO.P,R21,2*%
%TO.N,ADDR14*%
X180913000Y-124923000D03*
%TD*%
D21*
%TO.P,J3,1,VBUS*%
%TO.N,unconnected-(J3-Pad1)*%
X134308000Y-48865000D03*
%TO.P,J3,2,D-*%
%TO.N,unconnected-(J3-Pad2)*%
X131808000Y-48865000D03*
%TO.P,J3,3,D+*%
%TO.N,unconnected-(J3-Pad3)*%
X129808000Y-48865000D03*
%TO.P,J3,4,GND*%
%TO.N,unconnected-(J3-Pad4)*%
X127308000Y-48865000D03*
D22*
%TO.P,J3,5,Shield*%
%TO.N,unconnected-(J3-Pad5)*%
X137378000Y-45185000D03*
X124238000Y-45185000D03*
%TD*%
D23*
%TO.P,U6,1,GND*%
%TO.N,GND*%
X78281000Y-41028000D03*
D24*
%TO.P,U6,2,~{RESET}*%
%TO.N,RESET*%
X78281000Y-42728000D03*
%TO.P,U6,3,~{MR}*%
%TO.N,Net-(C11-Pad1)*%
X80281000Y-42728000D03*
%TO.P,U6,4,VCC*%
%TO.N,+5V*%
X80281000Y-40828000D03*
%TD*%
D25*
%TO.P,ERAM2,1,A4*%
%TO.N,ADDR4*%
X222103000Y-97237500D03*
%TO.P,ERAM2,2,A3*%
%TO.N,ADDR3*%
X221303000Y-97237500D03*
%TO.P,ERAM2,3,A2*%
%TO.N,ADDR2*%
X220503000Y-97237500D03*
%TO.P,ERAM2,4,A1*%
%TO.N,ADDR1*%
X219703000Y-97237500D03*
%TO.P,ERAM2,5,A0*%
%TO.N,ADDR0*%
X218903000Y-97237500D03*
%TO.P,ERAM2,6,~{CS1}*%
%TO.N,/Memory Unit/~{ERAM_CS2}*%
X218103000Y-97237500D03*
%TO.P,ERAM2,7*%
%TO.N,N/C*%
X217303000Y-97237500D03*
%TO.P,ERAM2,8*%
X216503000Y-97237500D03*
%TO.P,ERAM2,9,IO0*%
%TO.N,DATA0*%
X215703000Y-97237500D03*
%TO.P,ERAM2,10,IO1*%
%TO.N,DATA1*%
X214903000Y-97237500D03*
%TO.P,ERAM2,11*%
%TO.N,N/C*%
X214103000Y-97237500D03*
%TO.P,ERAM2,12*%
X213303000Y-97237500D03*
%TO.P,ERAM2,13,IO2*%
%TO.N,DATA2*%
X212503000Y-97237500D03*
%TO.P,ERAM2,14,IO3*%
%TO.N,DATA3*%
X211703000Y-97237500D03*
%TO.P,ERAM2,15*%
%TO.N,N/C*%
X210903000Y-97237500D03*
%TO.P,ERAM2,16*%
X210103000Y-97237500D03*
%TO.P,ERAM2,17,~{WE}*%
%TO.N,~{WRITE}*%
X209303000Y-97237500D03*
%TO.P,ERAM2,18,A19*%
%TO.N,ADDR19*%
X208503000Y-97237500D03*
%TO.P,ERAM2,19,A18*%
%TO.N,ADDR18*%
X207703000Y-97237500D03*
%TO.P,ERAM2,20,A17*%
%TO.N,ADDR17*%
X206903000Y-97237500D03*
%TO.P,ERAM2,21,A16*%
%TO.N,ADDR16*%
X206103000Y-97237500D03*
%TO.P,ERAM2,22,A15*%
%TO.N,ADDR15*%
X205303000Y-97237500D03*
%TO.P,ERAM2,23,A14*%
%TO.N,ADDR14*%
X205303000Y-108412500D03*
%TO.P,ERAM2,24,A13*%
%TO.N,ADDR13*%
X206103000Y-108412500D03*
%TO.P,ERAM2,25,A12*%
%TO.N,ADDR12*%
X206903000Y-108412500D03*
%TO.P,ERAM2,26,A11*%
%TO.N,ADDR11*%
X207703000Y-108412500D03*
%TO.P,ERAM2,27,A10*%
%TO.N,ADDR10*%
X208503000Y-108412500D03*
%TO.P,ERAM2,28,A9*%
%TO.N,ADDR9*%
X209303000Y-108412500D03*
%TO.P,ERAM2,29*%
%TO.N,N/C*%
X210103000Y-108412500D03*
%TO.P,ERAM2,30*%
X210903000Y-108412500D03*
%TO.P,ERAM2,31,IO4*%
%TO.N,DATA4*%
X211703000Y-108412500D03*
%TO.P,ERAM2,32,IO5*%
%TO.N,DATA5*%
X212503000Y-108412500D03*
%TO.P,ERAM2,33,VCC*%
%TO.N,+5V*%
X213303000Y-108412500D03*
%TO.P,ERAM2,34,VSS*%
%TO.N,GND*%
X214103000Y-108412500D03*
%TO.P,ERAM2,35,IO6*%
%TO.N,DATA6*%
X214903000Y-108412500D03*
%TO.P,ERAM2,36,IO7*%
%TO.N,DATA7*%
X215703000Y-108412500D03*
%TO.P,ERAM2,37*%
%TO.N,N/C*%
X216503000Y-108412500D03*
%TO.P,ERAM2,38*%
X217303000Y-108412500D03*
%TO.P,ERAM2,39,A8*%
%TO.N,ADDR8*%
X218103000Y-108412500D03*
%TO.P,ERAM2,40,CS2*%
%TO.N,Net-(ERAM2-Pad40)*%
X218903000Y-108412500D03*
%TO.P,ERAM2,41,~{OE}*%
%TO.N,~{READ}*%
X219703000Y-108412500D03*
%TO.P,ERAM2,42,A7*%
%TO.N,ADDR7*%
X220503000Y-108412500D03*
%TO.P,ERAM2,43,A6*%
%TO.N,ADDR6*%
X221303000Y-108412500D03*
%TO.P,ERAM2,44,A5*%
%TO.N,ADDR5*%
X222103000Y-108412500D03*
%TD*%
D26*
%TO.P,U2,1,~{R}*%
%TO.N,+5V*%
X140570500Y-71785000D03*
%TO.P,U2,2,D*%
%TO.N,Net-(R3-Pad2)*%
X140570500Y-71135000D03*
%TO.P,U2,3,C*%
%TO.N,/Bus Control/CLK=*%
X140570500Y-70485000D03*
%TO.P,U2,4,~{S}*%
%TO.N,+5V*%
X140570500Y-69835000D03*
%TO.P,U2,5,Q*%
%TO.N,/Bus Control/RDY_R*%
X140570500Y-69185000D03*
%TO.P,U2,6,~{Q}*%
%TO.N,/Bus Control/~{RDY_R}*%
X140570500Y-68535000D03*
%TO.P,U2,7*%
%TO.N,N/C*%
X140570500Y-67885000D03*
%TO.P,U2,8,~{Q}*%
%TO.N,~{CLOCK}*%
X134845500Y-67885000D03*
%TO.P,U2,9,Q*%
%TO.N,CLOCK*%
X134845500Y-68535000D03*
%TO.P,U2,10,~{S}*%
%TO.N,+5V*%
X134845500Y-69185000D03*
%TO.P,U2,11,C*%
%TO.N,/Clock/CRYSTAL*%
X134845500Y-69835000D03*
%TO.P,U2,12,D*%
%TO.N,~{CLOCK}*%
X134845500Y-70485000D03*
%TO.P,U2,13,~{R}*%
%TO.N,+5V*%
X134845500Y-71135000D03*
%TO.P,U2,14*%
%TO.N,N/C*%
X134845500Y-71785000D03*
%TD*%
D27*
%TO.P,D1,1,K*%
%TO.N,/Bus Control/RDY_R*%
X143798000Y-73135000D03*
D28*
%TO.P,D1,2,A*%
%TO.N,RDY*%
X151418000Y-73135000D03*
%TD*%
D20*
%TO.P,R20,1*%
%TO.N,GND*%
X182563000Y-123399000D03*
%TO.P,R20,2*%
%TO.N,ADDR15*%
X180913000Y-123399000D03*
%TD*%
D29*
%TO.P,J1,1*%
%TO.N,/Power/PWR*%
X66103000Y-45796000D03*
D30*
%TO.P,J1,2*%
%TO.N,GND*%
X66103000Y-39796000D03*
D31*
%TO.P,J1,MP*%
%TO.N,N/C*%
X70603000Y-38796000D03*
X61603000Y-38796000D03*
%TD*%
D20*
%TO.P,R17,1*%
%TO.N,GND*%
X190691000Y-114763000D03*
%TO.P,R17,2*%
%TO.N,ADDR18*%
X189041000Y-114763000D03*
%TD*%
D32*
%TO.P,U7,1,NRST*%
%TO.N,unconnected-(U7-Pad1)*%
X177733000Y-51535000D03*
%TO.P,U7,2,PA1*%
%TO.N,/Memory Unit/~{VID_CS}*%
X177733000Y-52335000D03*
%TO.P,U7,3,PA2*%
%TO.N,unconnected-(U7-Pad3)*%
X177733000Y-53135000D03*
%TO.P,U7,4,VSS*%
%TO.N,GND*%
X177733000Y-53935000D03*
%TO.P,U7,5,VCAP*%
%TO.N,unconnected-(U7-Pad5)*%
X177733000Y-54735000D03*
%TO.P,U7,6,VDD*%
%TO.N,+5V*%
X177733000Y-55535000D03*
%TO.P,U7,7,PA3*%
%TO.N,unconnected-(U7-Pad7)*%
X177733000Y-56335000D03*
%TO.P,U7,8,PF4*%
%TO.N,unconnected-(U7-Pad8)*%
X177733000Y-57135000D03*
D33*
%TO.P,U7,9,PB7*%
%TO.N,unconnected-(U7-Pad9)*%
X179108000Y-58510000D03*
%TO.P,U7,10,PB6*%
%TO.N,unconnected-(U7-Pad10)*%
X179908000Y-58510000D03*
%TO.P,U7,11,PB5*%
%TO.N,unconnected-(U7-Pad11)*%
X180708000Y-58510000D03*
%TO.P,U7,12,PB4*%
%TO.N,unconnected-(U7-Pad12)*%
X181508000Y-58510000D03*
%TO.P,U7,13,PB3*%
%TO.N,unconnected-(U7-Pad13)*%
X182308000Y-58510000D03*
%TO.P,U7,14,PB2*%
%TO.N,unconnected-(U7-Pad14)*%
X183108000Y-58510000D03*
%TO.P,U7,15,PB1*%
%TO.N,unconnected-(U7-Pad15)*%
X183908000Y-58510000D03*
%TO.P,U7,16,PB0*%
%TO.N,unconnected-(U7-Pad16)*%
X184708000Y-58510000D03*
D32*
%TO.P,U7,17,PE5*%
%TO.N,unconnected-(U7-Pad17)*%
X186083000Y-57135000D03*
%TO.P,U7,18,PC1*%
%TO.N,unconnected-(U7-Pad18)*%
X186083000Y-56335000D03*
%TO.P,U7,19,PC2*%
%TO.N,unconnected-(U7-Pad19)*%
X186083000Y-55535000D03*
%TO.P,U7,20,PC3*%
%TO.N,unconnected-(U7-Pad20)*%
X186083000Y-54735000D03*
%TO.P,U7,21,PC4*%
%TO.N,unconnected-(U7-Pad21)*%
X186083000Y-53935000D03*
%TO.P,U7,22,PC5*%
%TO.N,Net-(U13-Pad6)*%
X186083000Y-53135000D03*
%TO.P,U7,23,PC6*%
%TO.N,Net-(U13-Pad5)*%
X186083000Y-52335000D03*
%TO.P,U7,24,PC7*%
%TO.N,Net-(U13-Pad2)*%
X186083000Y-51535000D03*
D33*
%TO.P,U7,25,PD0*%
%TO.N,DATA0*%
X184708000Y-50160000D03*
%TO.P,U7,26,PD1*%
%TO.N,DATA1*%
X183908000Y-50160000D03*
%TO.P,U7,27,PD2*%
%TO.N,DATA2*%
X183108000Y-50160000D03*
%TO.P,U7,28,PD3*%
%TO.N,DATA3*%
X182308000Y-50160000D03*
%TO.P,U7,29,PD4*%
%TO.N,DATA4*%
X181508000Y-50160000D03*
%TO.P,U7,30,PD5*%
%TO.N,DATA5*%
X180708000Y-50160000D03*
%TO.P,U7,31,PD6*%
%TO.N,DATA6*%
X179908000Y-50160000D03*
%TO.P,U7,32,PD7*%
%TO.N,DATA7*%
X179108000Y-50160000D03*
%TD*%
D10*
%TO.P,R35,1*%
%TO.N,GND*%
X136590000Y-100285000D03*
%TO.P,R35,2*%
%TO.N,ADDR0*%
X138240000Y-100285000D03*
%TD*%
D12*
%TO.P,C14,1*%
%TO.N,+5V*%
X70715349Y-125431000D03*
D13*
%TO.P,C14,2*%
%TO.N,GND*%
X74515349Y-125431000D03*
%TD*%
D12*
%TO.P,RP2,1,common*%
%TO.N,GND*%
X137415000Y-130780000D03*
D34*
%TO.P,RP2,2,R1*%
%TO.N,ADDR11*%
X137415000Y-128240000D03*
%TO.P,RP2,3,R2*%
%TO.N,ADDR10*%
X137415000Y-125700000D03*
%TO.P,RP2,4,R3*%
%TO.N,ADDR9*%
X137415000Y-123160000D03*
%TO.P,RP2,5,R4*%
%TO.N,ADDR8*%
X137415000Y-120620000D03*
%TO.P,RP2,6,R5*%
%TO.N,ADDR7*%
X137415000Y-118080000D03*
%TO.P,RP2,7,R6*%
%TO.N,ADDR6*%
X137415000Y-115540000D03*
%TO.P,RP2,8,R7*%
%TO.N,ADDR5*%
X137415000Y-113000000D03*
%TO.P,RP2,9,R8*%
%TO.N,ADDR4*%
X137415000Y-110460000D03*
%TD*%
D35*
%TO.P,U11,1*%
%TO.N,/Memory Unit/~{ERAM_CS0}*%
X226558000Y-140397500D03*
%TO.P,U11,2*%
%TO.N,Net-(ERAM0-Pad40)*%
X227208000Y-140397500D03*
%TO.P,U11,3*%
%TO.N,/Memory Unit/~{ERAM_CS2}*%
X227858000Y-140397500D03*
%TO.P,U11,4*%
%TO.N,Net-(ERAM2-Pad40)*%
X228508000Y-140397500D03*
%TO.P,U11,5*%
%TO.N,/Memory Unit/~{ERAM_CS3}*%
X229158000Y-140397500D03*
%TO.P,U11,6*%
%TO.N,Net-(ERAM3-Pad40)*%
X229808000Y-140397500D03*
%TO.P,U11,7,GND*%
%TO.N,GND*%
X230458000Y-140397500D03*
%TO.P,U11,8*%
%TO.N,Net-(ERAM1-Pad40)*%
X230458000Y-134672500D03*
%TO.P,U11,9*%
%TO.N,/Memory Unit/~{ERAM_CS1}*%
X229808000Y-134672500D03*
%TO.P,U11,10*%
%TO.N,unconnected-(U11-Pad10)*%
X229158000Y-134672500D03*
%TO.P,U11,11*%
%TO.N,unconnected-(U11-Pad11)*%
X228508000Y-134672500D03*
%TO.P,U11,12*%
%TO.N,unconnected-(U11-Pad12)*%
X227858000Y-134672500D03*
%TO.P,U11,13*%
%TO.N,unconnected-(U11-Pad13)*%
X227208000Y-134672500D03*
%TO.P,U11,14,VCC*%
%TO.N,+5V*%
X226558000Y-134672500D03*
%TD*%
D36*
%TO.P,R4,1*%
%TO.N,+5V*%
X195808000Y-84835000D03*
%TO.P,R4,2*%
%TO.N,~{READ}*%
X192708000Y-84835000D03*
%TD*%
D37*
%TO.P,C23,1*%
%TO.N,+5V*%
X160333000Y-50735000D03*
%TO.P,C23,2*%
%TO.N,GND*%
X163283000Y-50735000D03*
%TD*%
D20*
%TO.P,R18,1*%
%TO.N,GND*%
X190691000Y-116535000D03*
%TO.P,R18,2*%
%TO.N,ADDR17*%
X189041000Y-116535000D03*
%TD*%
%TO.P,R12,1*%
%TO.N,GND*%
X190691000Y-107143000D03*
%TO.P,R12,2*%
%TO.N,ADDR23*%
X189041000Y-107143000D03*
%TD*%
%TO.P,R22,1*%
%TO.N,GND*%
X182563000Y-126447000D03*
%TO.P,R22,2*%
%TO.N,ADDR13*%
X180913000Y-126447000D03*
%TD*%
D10*
%TO.P,R6,1*%
%TO.N,+5V*%
X145083000Y-54835000D03*
%TO.P,R6,2*%
%TO.N,Net-(CPU1-Pad3)*%
X146733000Y-54835000D03*
%TD*%
D38*
%TO.P,C4,1*%
%TO.N,+5V*%
X138215500Y-97745000D03*
%TO.P,C4,2*%
%TO.N,GND*%
X135090500Y-97745000D03*
%TD*%
D12*
%TO.P,C13,1*%
%TO.N,+5V*%
X71477349Y-112604000D03*
D13*
%TO.P,C13,2*%
%TO.N,GND*%
X75277349Y-112604000D03*
%TD*%
D12*
%TO.P,C3,1*%
%TO.N,/Power/PWR*%
X83708000Y-76732349D03*
D13*
%TO.P,C3,2*%
%TO.N,GND*%
X83708000Y-81732349D03*
%TD*%
D39*
%TO.P,AD_DEC1,1,S0*%
%TO.N,/Memory Unit/~{BANK0_CS}*%
X183389000Y-140069500D03*
%TO.P,AD_DEC1,2,S1*%
%TO.N,/Memory Unit/~{ERAM_CS0}*%
X184659000Y-140069500D03*
%TO.P,AD_DEC1,3,S2*%
%TO.N,/Memory Unit/~{ERAM_CS1}*%
X185929000Y-140069500D03*
%TO.P,AD_DEC1,4,S3*%
%TO.N,/Memory Unit/~{ERAM_CS2}*%
X187199000Y-140069500D03*
%TO.P,AD_DEC1,5,S4*%
%TO.N,/Memory Unit/~{ERAM_CS3}*%
X188469000Y-140069500D03*
%TO.P,AD_DEC1,6,S5*%
%TO.N,/Memory Unit/~{ERAM_CS4}*%
X189739000Y-140069500D03*
%TO.P,AD_DEC1,7,S6*%
%TO.N,/Memory Unit/~{ERAM_CS5}*%
X191009000Y-140069500D03*
%TO.P,AD_DEC1,8,S7*%
%TO.N,/Memory Unit/~{ERAM_CS6}*%
X192279000Y-140069500D03*
%TO.P,AD_DEC1,9,S8*%
%TO.N,/Memory Unit/~{ERAM_CS7}*%
X193549000Y-140069500D03*
%TO.P,AD_DEC1,10,S9*%
%TO.N,/Memory Unit/~{VID_CS}*%
X194819000Y-140069500D03*
%TO.P,AD_DEC1,11,S10*%
%TO.N,/Memory Unit/~{PRP_CS0}*%
X196089000Y-140069500D03*
%TO.P,AD_DEC1,12,GND*%
%TO.N,GND*%
X197359000Y-140069500D03*
%TO.P,AD_DEC1,13,S11*%
%TO.N,/Memory Unit/~{PRP_CS1}*%
X197359000Y-133144500D03*
%TO.P,AD_DEC1,14,S12*%
%TO.N,/Memory Unit/~{PRP_CS2}*%
X196089000Y-133144500D03*
%TO.P,AD_DEC1,15,S13*%
%TO.N,/Memory Unit/~{PRP_CS3}*%
X194819000Y-133144500D03*
%TO.P,AD_DEC1,16,S14*%
%TO.N,/Memory Unit/~{PRP_CS4}*%
X193549000Y-133144500D03*
%TO.P,AD_DEC1,17,S15*%
%TO.N,/Memory Unit/~{PRP_CS5}*%
X192279000Y-133144500D03*
%TO.P,AD_DEC1,18,E0*%
%TO.N,Net-(AD_DEC1-Pad18)*%
X191009000Y-133144500D03*
%TO.P,AD_DEC1,19,E1*%
X189739000Y-133144500D03*
%TO.P,AD_DEC1,20,A3*%
%TO.N,ADDR23*%
X188469000Y-133144500D03*
%TO.P,AD_DEC1,21,A2*%
%TO.N,ADDR22*%
X187199000Y-133144500D03*
%TO.P,AD_DEC1,22,A1*%
%TO.N,ADDR21*%
X185929000Y-133144500D03*
%TO.P,AD_DEC1,23,A0*%
%TO.N,ADDR20*%
X184659000Y-133144500D03*
%TO.P,AD_DEC1,24,VCC*%
%TO.N,+5V*%
X183389000Y-133144500D03*
%TD*%
D12*
%TO.P,C3,1*%
%TO.N,/Power/PWR*%
X73026000Y-97755349D03*
D13*
%TO.P,C3,2*%
%TO.N,GND*%
X73026000Y-102755349D03*
%TD*%
D40*
%TO.P,BDT1,1,A->B*%
%TO.N,/Bus Control/CPU_W~{R}*%
X172779500Y-102694000D03*
%TO.P,BDT1,2,A0*%
%TO.N,/DBA0*%
X172779500Y-103344000D03*
%TO.P,BDT1,3,A1*%
%TO.N,/DBA1*%
X172779500Y-103994000D03*
%TO.P,BDT1,4,A2*%
%TO.N,/DBA2*%
X172779500Y-104644000D03*
%TO.P,BDT1,5,A3*%
%TO.N,/DBA3*%
X172779500Y-105294000D03*
%TO.P,BDT1,6,A4*%
%TO.N,/DBA4*%
X172779500Y-105944000D03*
%TO.P,BDT1,7,A5*%
%TO.N,/DBA5*%
X172779500Y-106594000D03*
%TO.P,BDT1,8,A6*%
%TO.N,/DBA6*%
X172779500Y-107244000D03*
%TO.P,BDT1,9,A7*%
%TO.N,/DBA7*%
X172779500Y-107894000D03*
%TO.P,BDT1,10,GND*%
%TO.N,GND*%
X172779500Y-108544000D03*
%TO.P,BDT1,11,B7*%
%TO.N,DATA7*%
X178504500Y-108544000D03*
%TO.P,BDT1,12,B6*%
%TO.N,DATA6*%
X178504500Y-107894000D03*
%TO.P,BDT1,13,B5*%
%TO.N,DATA5*%
X178504500Y-107244000D03*
%TO.P,BDT1,14,B4*%
%TO.N,DATA4*%
X178504500Y-106594000D03*
%TO.P,BDT1,15,B3*%
%TO.N,DATA3*%
X178504500Y-105944000D03*
%TO.P,BDT1,16,B2*%
%TO.N,DATA2*%
X178504500Y-105294000D03*
%TO.P,BDT1,17,B1*%
%TO.N,DATA1*%
X178504500Y-104644000D03*
%TO.P,BDT1,18,B0*%
%TO.N,DATA0*%
X178504500Y-103994000D03*
%TO.P,BDT1,19,CE*%
%TO.N,/Bus Control/DATA_BUS_EN*%
X178504500Y-103344000D03*
%TO.P,BDT1,20,VCC*%
%TO.N,+5V*%
X178504500Y-102694000D03*
%TD*%
D41*
%TO.P,LATCH1,1,OE*%
%TO.N,/Bus Control/~{LATCH_OE}*%
X178567000Y-112408500D03*
%TO.P,LATCH1,2,D0*%
%TO.N,/DBA0*%
X177917000Y-112408500D03*
%TO.P,LATCH1,3,D1*%
%TO.N,/DBA1*%
X177267000Y-112408500D03*
%TO.P,LATCH1,4,D2*%
%TO.N,/DBA2*%
X176617000Y-112408500D03*
%TO.P,LATCH1,5,D3*%
%TO.N,/DBA3*%
X175967000Y-112408500D03*
%TO.P,LATCH1,6,D4*%
%TO.N,/DBA4*%
X175317000Y-112408500D03*
%TO.P,LATCH1,7,D5*%
%TO.N,/DBA5*%
X174667000Y-112408500D03*
%TO.P,LATCH1,8,D6*%
%TO.N,/DBA6*%
X174017000Y-112408500D03*
%TO.P,LATCH1,9,D7*%
%TO.N,/DBA7*%
X173367000Y-112408500D03*
%TO.P,LATCH1,10,GND*%
%TO.N,GND*%
X172717000Y-112408500D03*
%TO.P,LATCH1,11,Load*%
%TO.N,/Bus Control/LATCH_ADDR*%
X172717000Y-118133500D03*
%TO.P,LATCH1,12,Q7*%
%TO.N,ADDR23*%
X173367000Y-118133500D03*
%TO.P,LATCH1,13,Q6*%
%TO.N,ADDR22*%
X174017000Y-118133500D03*
%TO.P,LATCH1,14,Q5*%
%TO.N,ADDR21*%
X174667000Y-118133500D03*
%TO.P,LATCH1,15,Q4*%
%TO.N,ADDR20*%
X175317000Y-118133500D03*
%TO.P,LATCH1,16,Q3*%
%TO.N,ADDR19*%
X175967000Y-118133500D03*
%TO.P,LATCH1,17,Q2*%
%TO.N,ADDR18*%
X176617000Y-118133500D03*
%TO.P,LATCH1,18,Q1*%
%TO.N,ADDR17*%
X177267000Y-118133500D03*
%TO.P,LATCH1,19,Q0*%
%TO.N,ADDR16*%
X177917000Y-118133500D03*
%TO.P,LATCH1,20,VCC*%
%TO.N,+5V*%
X178567000Y-118133500D03*
%TD*%
D12*
%TO.P,C17,1*%
%TO.N,Net-(C17-Pad1)*%
X86087000Y-51267000D03*
D13*
%TO.P,C17,2*%
%TO.N,GND*%
X84087000Y-51267000D03*
%TD*%
D42*
%TO.P,CPU1,1,~{VP}*%
%TO.N,unconnected-(CPU1-Pad1)*%
X142622000Y-79970000D03*
D43*
%TO.P,CPU1,2,RDY*%
%TO.N,RDY*%
X142622000Y-82510000D03*
%TO.P,CPU1,3,~{ABORT}*%
%TO.N,Net-(CPU1-Pad3)*%
X142622000Y-85050000D03*
%TO.P,CPU1,4,~{IRQ}*%
%TO.N,~{IRQ}*%
X142622000Y-87590000D03*
%TO.P,CPU1,5,~{ML}*%
%TO.N,unconnected-(CPU1-Pad5)*%
X142622000Y-90130000D03*
%TO.P,CPU1,6,~{NMI}*%
%TO.N,~{NMI}*%
X142622000Y-92670000D03*
%TO.P,CPU1,7,VPA*%
%TO.N,VPA*%
X142622000Y-95210000D03*
%TO.P,CPU1,8,VDD*%
%TO.N,+5V*%
X142622000Y-97750000D03*
%TO.P,CPU1,9,A0*%
%TO.N,ADDR0*%
X142622000Y-100290000D03*
%TO.P,CPU1,10,A1*%
%TO.N,ADDR1*%
X142622000Y-102830000D03*
%TO.P,CPU1,11,A2*%
%TO.N,ADDR2*%
X142622000Y-105370000D03*
%TO.P,CPU1,12,A3*%
%TO.N,ADDR3*%
X142622000Y-107910000D03*
%TO.P,CPU1,13,A4*%
%TO.N,ADDR4*%
X142622000Y-110450000D03*
%TO.P,CPU1,14,A5*%
%TO.N,ADDR5*%
X142622000Y-112990000D03*
%TO.P,CPU1,15,A6*%
%TO.N,ADDR6*%
X142622000Y-115530000D03*
%TO.P,CPU1,16,A7*%
%TO.N,ADDR7*%
X142622000Y-118070000D03*
%TO.P,CPU1,17,A8*%
%TO.N,ADDR8*%
X142622000Y-120610000D03*
%TO.P,CPU1,18,A9*%
%TO.N,ADDR9*%
X142622000Y-123150000D03*
%TO.P,CPU1,19,A10*%
%TO.N,ADDR10*%
X142622000Y-125690000D03*
%TO.P,CPU1,20,A11*%
%TO.N,ADDR11*%
X142622000Y-128230000D03*
%TO.P,CPU1,21,VSS*%
%TO.N,GND*%
X168022000Y-128230000D03*
%TO.P,CPU1,22,A12*%
%TO.N,ADDR12*%
X168022000Y-125690000D03*
%TO.P,CPU1,23,A13*%
%TO.N,ADDR13*%
X168022000Y-123150000D03*
%TO.P,CPU1,24,A14*%
%TO.N,ADDR14*%
X168022000Y-120610000D03*
%TO.P,CPU1,25,A15*%
%TO.N,ADDR15*%
X168022000Y-118070000D03*
%TO.P,CPU1,26,D7*%
%TO.N,/DBA7*%
X168022000Y-115530000D03*
%TO.P,CPU1,27,D6*%
%TO.N,/DBA6*%
X168022000Y-112990000D03*
%TO.P,CPU1,28,D5*%
%TO.N,/DBA5*%
X168022000Y-110450000D03*
%TO.P,CPU1,29,D4*%
%TO.N,/DBA4*%
X168022000Y-107910000D03*
%TO.P,CPU1,30,D3*%
%TO.N,/DBA3*%
X168022000Y-105370000D03*
%TO.P,CPU1,31,D2*%
%TO.N,/DBA2*%
X168022000Y-102830000D03*
%TO.P,CPU1,32,D1*%
%TO.N,/DBA1*%
X168022000Y-100290000D03*
%TO.P,CPU1,33,D0*%
%TO.N,/DBA0*%
X168022000Y-97750000D03*
%TO.P,CPU1,34,R/~{W}*%
%TO.N,CPU_R~{W}*%
X168022000Y-95210000D03*
%TO.P,CPU1,35,E*%
%TO.N,EMU*%
X168022000Y-92670000D03*
%TO.P,CPU1,36,BE*%
%TO.N,BE*%
X168022000Y-90130000D03*
%TO.P,CPU1,37,\u03D50*%
%TO.N,CLOCK*%
X168022000Y-87590000D03*
%TO.P,CPU1,38,MX*%
%TO.N,unconnected-(CPU1-Pad38)*%
X168022000Y-85050000D03*
%TO.P,CPU1,39,VDA*%
%TO.N,VDA*%
X168022000Y-82510000D03*
%TO.P,CPU1,40,~{RES}*%
%TO.N,RESET*%
X168022000Y-79970000D03*
%TD*%
D19*
%TO.P,PWREG2,1,OUT*%
%TO.N,Net-(C17-Pad1)*%
X73395500Y-50560000D03*
%TO.P,PWREG2,2,SENSE*%
%TO.N,unconnected-(PWREG2-Pad2)*%
X73395500Y-51210000D03*
%TO.P,PWREG2,3,BYP*%
%TO.N,unconnected-(PWREG2-Pad3)*%
X73395500Y-51860000D03*
%TO.P,PWREG2,4,GND*%
%TO.N,GND*%
X73395500Y-52510000D03*
%TO.P,PWREG2,5,~{SHDN}*%
%TO.N,unconnected-(PWREG2-Pad5)*%
X77620500Y-52510000D03*
%TO.P,PWREG2,6,NC*%
%TO.N,unconnected-(PWREG2-Pad6)*%
X77620500Y-51860000D03*
%TO.P,PWREG2,7,NC*%
%TO.N,unconnected-(PWREG2-Pad7)*%
X77620500Y-51210000D03*
%TO.P,PWREG2,8,IN*%
%TO.N,/Power/PWR*%
X77620500Y-50560000D03*
%TD*%
D20*
%TO.P,R19,1*%
%TO.N,GND*%
X190691000Y-118059000D03*
%TO.P,R19,2*%
%TO.N,ADDR16*%
X189041000Y-118059000D03*
%TD*%
D36*
%TO.P,R5,1*%
%TO.N,+5V*%
X195808000Y-87535000D03*
%TO.P,R5,2*%
%TO.N,~{WRITE}*%
X192708000Y-87535000D03*
%TD*%
D44*
%TO.P,U13,1,~{CS}*%
%TO.N,GND*%
X194033000Y-56140000D03*
%TO.P,U13,2,SO/IO1*%
%TO.N,Net-(U13-Pad2)*%
X194033000Y-54870000D03*
%TO.P,U13,3,~{WP}/IO2*%
%TO.N,Net-(R7-Pad2)*%
X194033000Y-53600000D03*
%TO.P,U13,4,GND*%
%TO.N,GND*%
X194033000Y-52330000D03*
%TO.P,U13,5,SI/IO0*%
%TO.N,Net-(U13-Pad5)*%
X188783000Y-52330000D03*
%TO.P,U13,6,SCK*%
%TO.N,Net-(U13-Pad6)*%
X188783000Y-53600000D03*
%TO.P,U13,7,~{HOLD}/IO3*%
%TO.N,Net-(R7-Pad2)*%
X188783000Y-54870000D03*
%TO.P,U13,8,VCC*%
%TO.N,+5V*%
X188783000Y-56140000D03*
%TD*%
D45*
%TO.P,R2,1*%
%TO.N,+5V*%
X85908000Y-60535000D03*
%TO.P,R2,2*%
%TO.N,Net-(R2-Pad2)*%
X89008000Y-60535000D03*
%TD*%
D46*
%TO.P,U12,1,VSS*%
%TO.N,unconnected-(U12-Pad1)*%
X103258000Y-50335000D03*
%TO.P,U12,2,PA0*%
%TO.N,unconnected-(U12-Pad2)*%
X103258000Y-51135000D03*
%TO.P,U12,3,PA1*%
%TO.N,unconnected-(U12-Pad3)*%
X103258000Y-51935000D03*
%TO.P,U12,4,PA2*%
%TO.N,unconnected-(U12-Pad4)*%
X103258000Y-52735000D03*
%TO.P,U12,5,PA3*%
%TO.N,unconnected-(U12-Pad5)*%
X103258000Y-53535000D03*
%TO.P,U12,6,PA4*%
%TO.N,unconnected-(U12-Pad6)*%
X103258000Y-54335000D03*
%TO.P,U12,7,PA5*%
%TO.N,unconnected-(U12-Pad7)*%
X103258000Y-55135000D03*
%TO.P,U12,8,PA6*%
%TO.N,unconnected-(U12-Pad8)*%
X103258000Y-55935000D03*
%TO.P,U12,9,PA7*%
%TO.N,unconnected-(U12-Pad9)*%
X103258000Y-56735000D03*
%TO.P,U12,10,PB0*%
%TO.N,unconnected-(U12-Pad10)*%
X103258000Y-57535000D03*
%TO.P,U12,11,nc*%
%TO.N,unconnected-(U12-Pad11)*%
X103258000Y-58335000D03*
D47*
%TO.P,U12,12,PB1*%
%TO.N,unconnected-(U12-Pad12)*%
X105308000Y-60385000D03*
%TO.P,U12,13,PB2*%
%TO.N,unconnected-(U12-Pad13)*%
X106108000Y-60385000D03*
%TO.P,U12,14,PB3*%
%TO.N,unconnected-(U12-Pad14)*%
X106908000Y-60385000D03*
%TO.P,U12,15,PB4*%
%TO.N,unconnected-(U12-Pad15)*%
X107708000Y-60385000D03*
%TO.P,U12,16,PB5*%
%TO.N,unconnected-(U12-Pad16)*%
X108508000Y-60385000D03*
%TO.P,U12,17,PB6*%
%TO.N,unconnected-(U12-Pad17)*%
X109308000Y-60385000D03*
%TO.P,U12,18,PB7*%
%TO.N,unconnected-(U12-Pad18)*%
X110108000Y-60385000D03*
%TO.P,U12,19,CB1*%
%TO.N,unconnected-(U12-Pad19)*%
X110908000Y-60385000D03*
%TO.P,U12,20,CB2*%
%TO.N,unconnected-(U12-Pad20)*%
X111708000Y-60385000D03*
%TO.P,U12,21,VDD*%
%TO.N,unconnected-(U12-Pad21)*%
X112508000Y-60385000D03*
%TO.P,U12,22,nc*%
%TO.N,unconnected-(U12-Pad22)*%
X113308000Y-60385000D03*
D46*
%TO.P,U12,23,~{IRQ}*%
%TO.N,~{IRQ}*%
X115358000Y-58335000D03*
%TO.P,U12,24,R/~{W}*%
%TO.N,unconnected-(U12-Pad24)*%
X115358000Y-57535000D03*
%TO.P,U12,25,~{CS2}*%
%TO.N,unconnected-(U12-Pad25)*%
X115358000Y-56735000D03*
%TO.P,U12,26,CS1*%
%TO.N,unconnected-(U12-Pad26)*%
X115358000Y-55935000D03*
%TO.P,U12,27,\u03D52*%
%TO.N,/Peripheral Handler/CLK*%
X115358000Y-55135000D03*
%TO.P,U12,28,D7*%
%TO.N,DATA7*%
X115358000Y-54335000D03*
%TO.P,U12,29,D6*%
%TO.N,DATA6*%
X115358000Y-53535000D03*
%TO.P,U12,30,D5*%
%TO.N,DATA5*%
X115358000Y-52735000D03*
%TO.P,U12,31,D4*%
%TO.N,DATA4*%
X115358000Y-51935000D03*
%TO.P,U12,32,D3*%
%TO.N,DATA3*%
X115358000Y-51135000D03*
%TO.P,U12,33,nc*%
%TO.N,unconnected-(U12-Pad33)*%
X115358000Y-50335000D03*
D47*
%TO.P,U12,34,D2*%
%TO.N,DATA2*%
X113308000Y-48285000D03*
%TO.P,U12,35,D1*%
%TO.N,DATA1*%
X112508000Y-48285000D03*
%TO.P,U12,36,D0*%
%TO.N,DATA0*%
X111708000Y-48285000D03*
%TO.P,U12,37,~{RES}*%
%TO.N,unconnected-(U12-Pad37)*%
X110908000Y-48285000D03*
%TO.P,U12,38,nc*%
%TO.N,unconnected-(U12-Pad38)*%
X110108000Y-48285000D03*
%TO.P,U12,39,RS3*%
%TO.N,unconnected-(U12-Pad39)*%
X109308000Y-48285000D03*
%TO.P,U12,40,RS2*%
%TO.N,unconnected-(U12-Pad40)*%
X108508000Y-48285000D03*
%TO.P,U12,41,RS1*%
%TO.N,unconnected-(U12-Pad41)*%
X107708000Y-48285000D03*
%TO.P,U12,42,RS0*%
%TO.N,unconnected-(U12-Pad42)*%
X106908000Y-48285000D03*
%TO.P,U12,43,CA2*%
%TO.N,unconnected-(U12-Pad43)*%
X106108000Y-48285000D03*
%TO.P,U12,44,CA1*%
%TO.N,unconnected-(U12-Pad44)*%
X105308000Y-48285000D03*
%TD*%
D48*
%TO.P,C12,1*%
%TO.N,+5V*%
X208570500Y-60935000D03*
%TO.P,C12,2*%
%TO.N,GND*%
X205445500Y-60935000D03*
%TD*%
D49*
%TO.P,C18,1*%
%TO.N,+5V*%
X197345500Y-70735000D03*
%TO.P,C18,2*%
%TO.N,GND*%
X200470500Y-70735000D03*
%TD*%
D50*
%TO.P,CRYSTAL0,1,Tri-State*%
%TO.N,unconnected-(CRYSTAL0-Pad1)*%
X113288000Y-77445000D03*
D51*
%TO.P,CRYSTAL0,7,GND*%
%TO.N,GND*%
X128528000Y-77445000D03*
%TO.P,CRYSTAL0,8,OUT*%
%TO.N,/Clock/CRYSTAL*%
X128528000Y-69825000D03*
%TO.P,CRYSTAL0,14,Vcc*%
%TO.N,+5V*%
X113288000Y-69825000D03*
%TD*%
D52*
%TO.P,R1,1*%
%TO.N,+5V*%
X154108000Y-72285000D03*
%TO.P,R1,2*%
%TO.N,RDY*%
X154108000Y-73935000D03*
%TD*%
D53*
%TO.P,C10,1*%
%TO.N,+5V*%
X178508000Y-100935000D03*
%TO.P,C10,2*%
%TO.N,GND*%
X178508000Y-97810000D03*
%TD*%
D10*
%TO.P,R34,1*%
%TO.N,GND*%
X136590000Y-102825000D03*
%TO.P,R34,2*%
%TO.N,ADDR1*%
X138240000Y-102825000D03*
%TD*%
D25*
%TO.P,ERAM3,1,A4*%
%TO.N,ADDR4*%
X222103000Y-81362500D03*
%TO.P,ERAM3,2,A3*%
%TO.N,ADDR3*%
X221303000Y-81362500D03*
%TO.P,ERAM3,3,A2*%
%TO.N,ADDR2*%
X220503000Y-81362500D03*
%TO.P,ERAM3,4,A1*%
%TO.N,ADDR1*%
X219703000Y-81362500D03*
%TO.P,ERAM3,5,A0*%
%TO.N,ADDR0*%
X218903000Y-81362500D03*
%TO.P,ERAM3,6,~{CS1}*%
%TO.N,/Memory Unit/~{ERAM_CS3}*%
X218103000Y-81362500D03*
%TO.P,ERAM3,7*%
%TO.N,N/C*%
X217303000Y-81362500D03*
%TO.P,ERAM3,8*%
X216503000Y-81362500D03*
%TO.P,ERAM3,9,IO0*%
%TO.N,DATA0*%
X215703000Y-81362500D03*
%TO.P,ERAM3,10,IO1*%
%TO.N,DATA1*%
X214903000Y-81362500D03*
%TO.P,ERAM3,11*%
%TO.N,N/C*%
X214103000Y-81362500D03*
%TO.P,ERAM3,12*%
X213303000Y-81362500D03*
%TO.P,ERAM3,13,IO2*%
%TO.N,DATA2*%
X212503000Y-81362500D03*
%TO.P,ERAM3,14,IO3*%
%TO.N,DATA3*%
X211703000Y-81362500D03*
%TO.P,ERAM3,15*%
%TO.N,N/C*%
X210903000Y-81362500D03*
%TO.P,ERAM3,16*%
X210103000Y-81362500D03*
%TO.P,ERAM3,17,~{WE}*%
%TO.N,~{WRITE}*%
X209303000Y-81362500D03*
%TO.P,ERAM3,18,A19*%
%TO.N,ADDR19*%
X208503000Y-81362500D03*
%TO.P,ERAM3,19,A18*%
%TO.N,ADDR18*%
X207703000Y-81362500D03*
%TO.P,ERAM3,20,A17*%
%TO.N,ADDR17*%
X206903000Y-81362500D03*
%TO.P,ERAM3,21,A16*%
%TO.N,ADDR16*%
X206103000Y-81362500D03*
%TO.P,ERAM3,22,A15*%
%TO.N,ADDR15*%
X205303000Y-81362500D03*
%TO.P,ERAM3,23,A14*%
%TO.N,ADDR14*%
X205303000Y-92537500D03*
%TO.P,ERAM3,24,A13*%
%TO.N,ADDR13*%
X206103000Y-92537500D03*
%TO.P,ERAM3,25,A12*%
%TO.N,ADDR12*%
X206903000Y-92537500D03*
%TO.P,ERAM3,26,A11*%
%TO.N,ADDR11*%
X207703000Y-92537500D03*
%TO.P,ERAM3,27,A10*%
%TO.N,ADDR10*%
X208503000Y-92537500D03*
%TO.P,ERAM3,28,A9*%
%TO.N,ADDR9*%
X209303000Y-92537500D03*
%TO.P,ERAM3,29*%
%TO.N,N/C*%
X210103000Y-92537500D03*
%TO.P,ERAM3,30*%
X210903000Y-92537500D03*
%TO.P,ERAM3,31,IO4*%
%TO.N,DATA4*%
X211703000Y-92537500D03*
%TO.P,ERAM3,32,IO5*%
%TO.N,DATA5*%
X212503000Y-92537500D03*
%TO.P,ERAM3,33,VCC*%
%TO.N,+5V*%
X213303000Y-92537500D03*
%TO.P,ERAM3,34,VSS*%
%TO.N,GND*%
X214103000Y-92537500D03*
%TO.P,ERAM3,35,IO6*%
%TO.N,DATA6*%
X214903000Y-92537500D03*
%TO.P,ERAM3,36,IO7*%
%TO.N,DATA7*%
X215703000Y-92537500D03*
%TO.P,ERAM3,37*%
%TO.N,N/C*%
X216503000Y-92537500D03*
%TO.P,ERAM3,38*%
X217303000Y-92537500D03*
%TO.P,ERAM3,39,A8*%
%TO.N,ADDR8*%
X218103000Y-92537500D03*
%TO.P,ERAM3,40,CS2*%
%TO.N,Net-(ERAM3-Pad40)*%
X218903000Y-92537500D03*
%TO.P,ERAM3,41,~{OE}*%
%TO.N,~{READ}*%
X219703000Y-92537500D03*
%TO.P,ERAM3,42,A7*%
%TO.N,ADDR7*%
X220503000Y-92537500D03*
%TO.P,ERAM3,43,A6*%
%TO.N,ADDR6*%
X221303000Y-92537500D03*
%TO.P,ERAM3,44,A5*%
%TO.N,ADDR5*%
X222103000Y-92537500D03*
%TD*%
D20*
%TO.P,R23,1*%
%TO.N,GND*%
X182563000Y-127971000D03*
%TO.P,R23,2*%
%TO.N,ADDR12*%
X180913000Y-127971000D03*
%TD*%
D12*
%TO.P,C1,1*%
%TO.N,/Power/PWR*%
X93040000Y-51394000D03*
D13*
%TO.P,C1,2*%
%TO.N,GND*%
X91040000Y-51394000D03*
%TD*%
D25*
%TO.P,ERAM0,1,A4*%
%TO.N,ADDR4*%
X221885000Y-129312500D03*
%TO.P,ERAM0,2,A3*%
%TO.N,ADDR3*%
X221085000Y-129312500D03*
%TO.P,ERAM0,3,A2*%
%TO.N,ADDR2*%
X220285000Y-129312500D03*
%TO.P,ERAM0,4,A1*%
%TO.N,ADDR1*%
X219485000Y-129312500D03*
%TO.P,ERAM0,5,A0*%
%TO.N,ADDR0*%
X218685000Y-129312500D03*
%TO.P,ERAM0,6,~{CS1}*%
%TO.N,/Memory Unit/~{ERAM_CS0}*%
X217885000Y-129312500D03*
%TO.P,ERAM0,7*%
%TO.N,N/C*%
X217085000Y-129312500D03*
%TO.P,ERAM0,8*%
X216285000Y-129312500D03*
%TO.P,ERAM0,9,IO0*%
%TO.N,DATA0*%
X215485000Y-129312500D03*
%TO.P,ERAM0,10,IO1*%
%TO.N,DATA1*%
X214685000Y-129312500D03*
%TO.P,ERAM0,11*%
%TO.N,N/C*%
X213885000Y-129312500D03*
%TO.P,ERAM0,12*%
X213085000Y-129312500D03*
%TO.P,ERAM0,13,IO2*%
%TO.N,DATA2*%
X212285000Y-129312500D03*
%TO.P,ERAM0,14,IO3*%
%TO.N,DATA3*%
X211485000Y-129312500D03*
%TO.P,ERAM0,15*%
%TO.N,N/C*%
X210685000Y-129312500D03*
%TO.P,ERAM0,16*%
X209885000Y-129312500D03*
%TO.P,ERAM0,17,~{WE}*%
%TO.N,~{WRITE}*%
X209085000Y-129312500D03*
%TO.P,ERAM0,18,A19*%
%TO.N,ADDR19*%
X208285000Y-129312500D03*
%TO.P,ERAM0,19,A18*%
%TO.N,ADDR18*%
X207485000Y-129312500D03*
%TO.P,ERAM0,20,A17*%
%TO.N,ADDR17*%
X206685000Y-129312500D03*
%TO.P,ERAM0,21,A16*%
%TO.N,ADDR16*%
X205885000Y-129312500D03*
%TO.P,ERAM0,22,A15*%
%TO.N,ADDR15*%
X205085000Y-129312500D03*
%TO.P,ERAM0,23,A14*%
%TO.N,ADDR14*%
X205085000Y-140487500D03*
%TO.P,ERAM0,24,A13*%
%TO.N,ADDR13*%
X205885000Y-140487500D03*
%TO.P,ERAM0,25,A12*%
%TO.N,ADDR12*%
X206685000Y-140487500D03*
%TO.P,ERAM0,26,A11*%
%TO.N,ADDR11*%
X207485000Y-140487500D03*
%TO.P,ERAM0,27,A10*%
%TO.N,ADDR10*%
X208285000Y-140487500D03*
%TO.P,ERAM0,28,A9*%
%TO.N,ADDR9*%
X209085000Y-140487500D03*
%TO.P,ERAM0,29*%
%TO.N,N/C*%
X209885000Y-140487500D03*
%TO.P,ERAM0,30*%
X210685000Y-140487500D03*
%TO.P,ERAM0,31,IO4*%
%TO.N,DATA4*%
X211485000Y-140487500D03*
%TO.P,ERAM0,32,IO5*%
%TO.N,DATA5*%
X212285000Y-140487500D03*
%TO.P,ERAM0,33,VCC*%
%TO.N,+5V*%
X213085000Y-140487500D03*
%TO.P,ERAM0,34,VSS*%
%TO.N,GND*%
X213885000Y-140487500D03*
%TO.P,ERAM0,35,IO6*%
%TO.N,DATA6*%
X214685000Y-140487500D03*
%TO.P,ERAM0,36,IO7*%
%TO.N,DATA7*%
X215485000Y-140487500D03*
%TO.P,ERAM0,37*%
%TO.N,N/C*%
X216285000Y-140487500D03*
%TO.P,ERAM0,38*%
X217085000Y-140487500D03*
%TO.P,ERAM0,39,A8*%
%TO.N,ADDR8*%
X217885000Y-140487500D03*
%TO.P,ERAM0,40,CS2*%
%TO.N,Net-(ERAM0-Pad40)*%
X218685000Y-140487500D03*
%TO.P,ERAM0,41,~{OE}*%
%TO.N,~{READ}*%
X219485000Y-140487500D03*
%TO.P,ERAM0,42,A7*%
%TO.N,ADDR7*%
X220285000Y-140487500D03*
%TO.P,ERAM0,43,A6*%
%TO.N,ADDR6*%
X221085000Y-140487500D03*
%TO.P,ERAM0,44,A5*%
%TO.N,ADDR5*%
X221885000Y-140487500D03*
%TD*%
D20*
%TO.P,R14,1*%
%TO.N,GND*%
X190691000Y-110191000D03*
%TO.P,R14,2*%
%TO.N,ADDR21*%
X189041000Y-110191000D03*
%TD*%
D10*
%TO.P,R7,1*%
%TO.N,+5V*%
X188783000Y-59335000D03*
%TO.P,R7,2*%
%TO.N,Net-(R7-Pad2)*%
X190433000Y-59335000D03*
%TD*%
D54*
%TO.P,C16,1*%
%TO.N,+5V*%
X94870000Y-128948500D03*
%TO.P,C16,2*%
%TO.N,GND*%
X94870000Y-132073500D03*
%TD*%
D55*
%TO.P,C22,1*%
%TO.N,+5V*%
X155033000Y-51535000D03*
%TO.P,C22,2*%
%TO.N,GND*%
X156583000Y-51535000D03*
%TD*%
D54*
%TO.P,C15,1*%
%TO.N,+5V*%
X114174000Y-128948500D03*
%TO.P,C15,2*%
%TO.N,GND*%
X114174000Y-132073500D03*
%TD*%
D26*
%TO.P,U8,1*%
%TO.N,/Memory Unit/~{BANK0_CS}*%
X129970500Y-134885000D03*
%TO.P,U8,2*%
%TO.N,ADDR15*%
X129970500Y-134235000D03*
%TO.P,U8,3*%
%TO.N,/Memory Unit/~{ROM_CS}*%
X129970500Y-133585000D03*
%TO.P,U8,4*%
%TO.N,VA*%
X129970500Y-132935000D03*
%TO.P,U8,5*%
X129970500Y-132285000D03*
%TO.P,U8,6*%
%TO.N,Net-(AD_DEC1-Pad18)*%
X129970500Y-131635000D03*
%TO.P,U8,7,GND*%
%TO.N,GND*%
X129970500Y-130985000D03*
%TO.P,U8,8*%
%TO.N,unconnected-(U8-Pad8)*%
X124245500Y-130985000D03*
%TO.P,U8,9*%
%TO.N,+5V*%
X124245500Y-131635000D03*
%TO.P,U8,10*%
X124245500Y-132285000D03*
%TO.P,U8,11*%
%TO.N,/Memory Unit/~{SRAM_CS}*%
X124245500Y-132935000D03*
%TO.P,U8,12*%
%TO.N,/Memory Unit/~{ROM_CS}*%
X124245500Y-133585000D03*
%TO.P,U8,13*%
X124245500Y-134235000D03*
%TO.P,U8,14,VCC*%
%TO.N,+5V*%
X124245500Y-134885000D03*
%TD*%
D20*
%TO.P,R13,1*%
%TO.N,GND*%
X190691000Y-108667000D03*
%TO.P,R13,2*%
%TO.N,ADDR22*%
X189041000Y-108667000D03*
%TD*%
%TO.P,R15,1*%
%TO.N,GND*%
X190691000Y-111715000D03*
%TO.P,R15,2*%
%TO.N,ADDR20*%
X189041000Y-111715000D03*
%TD*%
D12*
%TO.P,SRAM1,1,A14*%
%TO.N,ADDR14*%
X110115000Y-125675000D03*
D34*
%TO.P,SRAM1,2,A12*%
%TO.N,ADDR12*%
X110115000Y-123135000D03*
%TO.P,SRAM1,3,A7*%
%TO.N,ADDR7*%
X110115000Y-120595000D03*
%TO.P,SRAM1,4,A6*%
%TO.N,ADDR6*%
X110115000Y-118055000D03*
%TO.P,SRAM1,5,A5*%
%TO.N,ADDR5*%
X110115000Y-115515000D03*
%TO.P,SRAM1,6,A4*%
%TO.N,ADDR4*%
X110115000Y-112975000D03*
%TO.P,SRAM1,7,A3*%
%TO.N,ADDR3*%
X110115000Y-110435000D03*
%TO.P,SRAM1,8,A2*%
%TO.N,ADDR2*%
X110115000Y-107895000D03*
%TO.P,SRAM1,9,A1*%
%TO.N,ADDR1*%
X110115000Y-105355000D03*
%TO.P,SRAM1,10,A0*%
%TO.N,ADDR0*%
X110115000Y-102815000D03*
%TO.P,SRAM1,11,Q0*%
%TO.N,DATA0*%
X110115000Y-100275000D03*
%TO.P,SRAM1,12,Q1*%
%TO.N,DATA1*%
X110115000Y-97735000D03*
%TO.P,SRAM1,13,Q2*%
%TO.N,DATA2*%
X110115000Y-95195000D03*
%TO.P,SRAM1,14,GND*%
%TO.N,GND*%
X110115000Y-92655000D03*
%TO.P,SRAM1,15,Q3*%
%TO.N,DATA3*%
X94875000Y-92655000D03*
%TO.P,SRAM1,16,Q4*%
%TO.N,DATA4*%
X94875000Y-95195000D03*
%TO.P,SRAM1,17,Q5*%
%TO.N,DATA5*%
X94875000Y-97735000D03*
%TO.P,SRAM1,18,Q6*%
%TO.N,DATA6*%
X94875000Y-100275000D03*
%TO.P,SRAM1,19,Q7*%
%TO.N,DATA7*%
X94875000Y-102815000D03*
%TO.P,SRAM1,20,~{CS}*%
%TO.N,/Memory Unit/~{SRAM_CS}*%
X94875000Y-105355000D03*
%TO.P,SRAM1,21,A10*%
%TO.N,ADDR10*%
X94875000Y-107895000D03*
%TO.P,SRAM1,22,~{OE}*%
%TO.N,~{READ}*%
X94875000Y-110435000D03*
%TO.P,SRAM1,23,A11*%
%TO.N,ADDR11*%
X94875000Y-112975000D03*
%TO.P,SRAM1,24,A9*%
%TO.N,ADDR9*%
X94875000Y-115515000D03*
%TO.P,SRAM1,25,A8*%
%TO.N,ADDR8*%
X94875000Y-118055000D03*
%TO.P,SRAM1,26,A13*%
%TO.N,ADDR13*%
X94875000Y-120595000D03*
%TO.P,SRAM1,27,~{WE}*%
%TO.N,~{WRITE}*%
X94875000Y-123135000D03*
%TO.P,SRAM1,28,VCC*%
%TO.N,+5V*%
X94875000Y-125675000D03*
%TD*%
D49*
%TO.P,C9,1*%
%TO.N,+5V*%
X180468000Y-119081000D03*
%TO.P,C9,2*%
%TO.N,GND*%
X183593000Y-119081000D03*
%TD*%
D42*
%TO.P,ROM1,1,A14*%
%TO.N,ADDR14*%
X129394000Y-125675000D03*
D43*
%TO.P,ROM1,2,A12*%
%TO.N,ADDR12*%
X129394000Y-123135000D03*
%TO.P,ROM1,3,A7*%
%TO.N,ADDR7*%
X129394000Y-120595000D03*
%TO.P,ROM1,4,A6*%
%TO.N,ADDR6*%
X129394000Y-118055000D03*
%TO.P,ROM1,5,A5*%
%TO.N,ADDR5*%
X129394000Y-115515000D03*
%TO.P,ROM1,6,A4*%
%TO.N,ADDR4*%
X129394000Y-112975000D03*
%TO.P,ROM1,7,A3*%
%TO.N,ADDR3*%
X129394000Y-110435000D03*
%TO.P,ROM1,8,A2*%
%TO.N,ADDR2*%
X129394000Y-107895000D03*
%TO.P,ROM1,9,A1*%
%TO.N,ADDR1*%
X129394000Y-105355000D03*
%TO.P,ROM1,10,A0*%
%TO.N,ADDR0*%
X129394000Y-102815000D03*
%TO.P,ROM1,11,D0*%
%TO.N,DATA0*%
X129394000Y-100275000D03*
%TO.P,ROM1,12,D1*%
%TO.N,DATA1*%
X129394000Y-97735000D03*
%TO.P,ROM1,13,D2*%
%TO.N,DATA2*%
X129394000Y-95195000D03*
%TO.P,ROM1,14,GND*%
%TO.N,GND*%
X129394000Y-92655000D03*
%TO.P,ROM1,15,D3*%
%TO.N,DATA3*%
X114154000Y-92655000D03*
%TO.P,ROM1,16,D4*%
%TO.N,DATA4*%
X114154000Y-95195000D03*
%TO.P,ROM1,17,D5*%
%TO.N,DATA5*%
X114154000Y-97735000D03*
%TO.P,ROM1,18,D6*%
%TO.N,DATA6*%
X114154000Y-100275000D03*
%TO.P,ROM1,19,D7*%
%TO.N,DATA7*%
X114154000Y-102815000D03*
%TO.P,ROM1,20,~{CS}*%
%TO.N,/Memory Unit/~{ROM_CS}*%
X114154000Y-105355000D03*
%TO.P,ROM1,21,A10*%
%TO.N,ADDR10*%
X114154000Y-107895000D03*
%TO.P,ROM1,22,~{OE}*%
%TO.N,~{READ}*%
X114154000Y-110435000D03*
%TO.P,ROM1,23,A11*%
%TO.N,ADDR11*%
X114154000Y-112975000D03*
%TO.P,ROM1,24,A9*%
%TO.N,ADDR9*%
X114154000Y-115515000D03*
%TO.P,ROM1,25,A8*%
%TO.N,ADDR8*%
X114154000Y-118055000D03*
%TO.P,ROM1,26,A13*%
%TO.N,ADDR13*%
X114154000Y-120595000D03*
%TO.P,ROM1,27,~{WE}*%
%TO.N,Net-(R2-Pad2)*%
X114154000Y-123135000D03*
%TO.P,ROM1,28,VCC*%
%TO.N,+5V*%
X114154000Y-125675000D03*
%TD*%
D12*
%TO.P,RP1,1,common*%
%TO.N,GND*%
X175007000Y-97745000D03*
D34*
%TO.P,RP1,2,R1*%
%TO.N,DATA0*%
X175007000Y-95205000D03*
%TO.P,RP1,3,R2*%
%TO.N,DATA1*%
X175007000Y-92665000D03*
%TO.P,RP1,4,R3*%
%TO.N,DATA2*%
X175007000Y-90125000D03*
%TO.P,RP1,5,R4*%
%TO.N,DATA3*%
X175007000Y-87585000D03*
%TO.P,RP1,6,R5*%
%TO.N,DATA4*%
X175007000Y-85045000D03*
%TO.P,RP1,7,R6*%
%TO.N,DATA5*%
X175007000Y-82505000D03*
%TO.P,RP1,8,R7*%
%TO.N,DATA6*%
X175007000Y-79965000D03*
%TO.P,RP1,9,R8*%
%TO.N,DATA7*%
X175007000Y-77425000D03*
%TD*%
D48*
%TO.P,C2,1*%
%TO.N,+5V*%
X208508000Y-66135000D03*
%TO.P,C2,2*%
%TO.N,GND*%
X205383000Y-66135000D03*
%TD*%
D56*
%TO.P,SW1,1,1*%
%TO.N,GND*%
X83853000Y-39746000D03*
X90353000Y-39746000D03*
%TO.P,SW1,2,2*%
%TO.N,Net-(C11-Pad1)*%
X83853000Y-44246000D03*
X90353000Y-44246000D03*
%TD*%
D57*
%TO.P,C21,1*%
%TO.N,+5V*%
X153008000Y-62685000D03*
%TO.P,C21,2*%
%TO.N,GND*%
X153008000Y-64235000D03*
%TD*%
D10*
%TO.P,R33,1*%
%TO.N,GND*%
X136590000Y-105365000D03*
%TO.P,R33,2*%
%TO.N,ADDR2*%
X138240000Y-105365000D03*
%TD*%
D20*
%TO.P,R16,1*%
%TO.N,GND*%
X190691000Y-113239000D03*
%TO.P,R16,2*%
%TO.N,ADDR19*%
X189041000Y-113239000D03*
%TD*%
D45*
%TO.P,R3,1*%
%TO.N,+5V*%
X134708000Y-75435000D03*
%TO.P,R3,2*%
%TO.N,Net-(R3-Pad2)*%
X137808000Y-75435000D03*
%TD*%
D58*
%TO.P,U14,1,DATA1*%
%TO.N,unconnected-(U14-Pad1)*%
X126320500Y-55935000D03*
%TO.P,U14,2,DATA7*%
%TO.N,unconnected-(U14-Pad2)*%
X126320500Y-56435000D03*
%TO.P,U14,3,GND*%
%TO.N,Net-(U14-Pad16)*%
X126320500Y-56935000D03*
%TO.P,U14,4,DATA5*%
%TO.N,unconnected-(U14-Pad4)*%
X126320500Y-57435000D03*
%TO.P,U14,5,DATA6*%
%TO.N,unconnected-(U14-Pad5)*%
X126320500Y-57935000D03*
%TO.P,U14,6,DATA3*%
%TO.N,unconnected-(U14-Pad6)*%
X126320500Y-58435000D03*
D59*
%TO.P,U14,7,~{SI/WU}*%
%TO.N,unconnected-(U14-Pad7)*%
X127008000Y-59122500D03*
%TO.P,U14,8,~{RD}*%
%TO.N,unconnected-(U14-Pad8)*%
X127508000Y-59122500D03*
%TO.P,U14,9,~{WR}*%
%TO.N,unconnected-(U14-Pad9)*%
X128008000Y-59122500D03*
%TO.P,U14,10,USBDP*%
%TO.N,unconnected-(U14-Pad10)*%
X128508000Y-59122500D03*
%TO.P,U14,11,USBDM*%
%TO.N,unconnected-(U14-Pad11)*%
X129008000Y-59122500D03*
%TO.P,U14,12,3V3OUT*%
%TO.N,unconnected-(U14-Pad12)*%
X129508000Y-59122500D03*
D58*
%TO.P,U14,13,~{RESET}*%
%TO.N,unconnected-(U14-Pad13)*%
X130195500Y-58435000D03*
%TO.P,U14,14,VCORE*%
%TO.N,unconnected-(U14-Pad14)*%
X130195500Y-57935000D03*
%TO.P,U14,15,VCC*%
%TO.N,unconnected-(U14-Pad15)*%
X130195500Y-57435000D03*
%TO.P,U14,16,GND*%
%TO.N,Net-(U14-Pad16)*%
X130195500Y-56935000D03*
%TO.P,U14,17,~{TXE}*%
%TO.N,unconnected-(U14-Pad17)*%
X130195500Y-56435000D03*
%TO.P,U14,18,~{RXF}*%
%TO.N,unconnected-(U14-Pad18)*%
X130195500Y-55935000D03*
D59*
%TO.P,U14,19,CBUS6*%
%TO.N,unconnected-(U14-Pad19)*%
X129508000Y-55247500D03*
%TO.P,U14,20,CBUS5*%
%TO.N,unconnected-(U14-Pad20)*%
X129008000Y-55247500D03*
%TO.P,U14,21,DATA0*%
%TO.N,unconnected-(U14-Pad21)*%
X128508000Y-55247500D03*
%TO.P,U14,22,DATA4*%
%TO.N,unconnected-(U14-Pad22)*%
X128008000Y-55247500D03*
%TO.P,U14,23,DATA2*%
%TO.N,unconnected-(U14-Pad23)*%
X127508000Y-55247500D03*
%TO.P,U14,24,VCCIO*%
%TO.N,unconnected-(U14-Pad24)*%
X127008000Y-55247500D03*
D60*
%TO.P,U14,25,GND*%
%TO.N,Net-(U14-Pad16)*%
X128258000Y-57185000D03*
%TD*%
D49*
%TO.P,C11,1*%
%TO.N,Net-(C11-Pad1)*%
X62733500Y-107915461D03*
%TO.P,C11,2*%
%TO.N,GND*%
X65858500Y-107915461D03*
%TD*%
D25*
%TO.P,ERAM1,1,A4*%
%TO.N,ADDR4*%
X221976000Y-113366500D03*
%TO.P,ERAM1,2,A3*%
%TO.N,ADDR3*%
X221176000Y-113366500D03*
%TO.P,ERAM1,3,A2*%
%TO.N,ADDR2*%
X220376000Y-113366500D03*
%TO.P,ERAM1,4,A1*%
%TO.N,ADDR1*%
X219576000Y-113366500D03*
%TO.P,ERAM1,5,A0*%
%TO.N,ADDR0*%
X218776000Y-113366500D03*
%TO.P,ERAM1,6,~{CS1}*%
%TO.N,/Memory Unit/~{ERAM_CS1}*%
X217976000Y-113366500D03*
%TO.P,ERAM1,7*%
%TO.N,N/C*%
X217176000Y-113366500D03*
%TO.P,ERAM1,8*%
X216376000Y-113366500D03*
%TO.P,ERAM1,9,IO0*%
%TO.N,DATA0*%
X215576000Y-113366500D03*
%TO.P,ERAM1,10,IO1*%
%TO.N,DATA1*%
X214776000Y-113366500D03*
%TO.P,ERAM1,11*%
%TO.N,N/C*%
X213976000Y-113366500D03*
%TO.P,ERAM1,12*%
X213176000Y-113366500D03*
%TO.P,ERAM1,13,IO2*%
%TO.N,DATA2*%
X212376000Y-113366500D03*
%TO.P,ERAM1,14,IO3*%
%TO.N,DATA3*%
X211576000Y-113366500D03*
%TO.P,ERAM1,15*%
%TO.N,N/C*%
X210776000Y-113366500D03*
%TO.P,ERAM1,16*%
X209976000Y-113366500D03*
%TO.P,ERAM1,17,~{WE}*%
%TO.N,~{WRITE}*%
X209176000Y-113366500D03*
%TO.P,ERAM1,18,A19*%
%TO.N,ADDR19*%
X208376000Y-113366500D03*
%TO.P,ERAM1,19,A18*%
%TO.N,ADDR18*%
X207576000Y-113366500D03*
%TO.P,ERAM1,20,A17*%
%TO.N,ADDR17*%
X206776000Y-113366500D03*
%TO.P,ERAM1,21,A16*%
%TO.N,ADDR16*%
X205976000Y-113366500D03*
%TO.P,ERAM1,22,A15*%
%TO.N,ADDR15*%
X205176000Y-113366500D03*
%TO.P,ERAM1,23,A14*%
%TO.N,ADDR14*%
X205176000Y-124541500D03*
%TO.P,ERAM1,24,A13*%
%TO.N,ADDR13*%
X205976000Y-124541500D03*
%TO.P,ERAM1,25,A12*%
%TO.N,ADDR12*%
X206776000Y-124541500D03*
%TO.P,ERAM1,26,A11*%
%TO.N,ADDR11*%
X207576000Y-124541500D03*
%TO.P,ERAM1,27,A10*%
%TO.N,ADDR10*%
X208376000Y-124541500D03*
%TO.P,ERAM1,28,A9*%
%TO.N,ADDR9*%
X209176000Y-124541500D03*
%TO.P,ERAM1,29*%
%TO.N,N/C*%
X209976000Y-124541500D03*
%TO.P,ERAM1,30*%
X210776000Y-124541500D03*
%TO.P,ERAM1,31,IO4*%
%TO.N,DATA4*%
X211576000Y-124541500D03*
%TO.P,ERAM1,32,IO5*%
%TO.N,DATA5*%
X212376000Y-124541500D03*
%TO.P,ERAM1,33,VCC*%
%TO.N,+5V*%
X213176000Y-124541500D03*
%TO.P,ERAM1,34,VSS*%
%TO.N,GND*%
X213976000Y-124541500D03*
%TO.P,ERAM1,35,IO6*%
%TO.N,DATA6*%
X214776000Y-124541500D03*
%TO.P,ERAM1,36,IO7*%
%TO.N,DATA7*%
X215576000Y-124541500D03*
%TO.P,ERAM1,37*%
%TO.N,N/C*%
X216376000Y-124541500D03*
%TO.P,ERAM1,38*%
X217176000Y-124541500D03*
%TO.P,ERAM1,39,A8*%
%TO.N,ADDR8*%
X217976000Y-124541500D03*
%TO.P,ERAM1,40,CS2*%
%TO.N,Net-(ERAM1-Pad40)*%
X218776000Y-124541500D03*
%TO.P,ERAM1,41,~{OE}*%
%TO.N,~{READ}*%
X219576000Y-124541500D03*
%TO.P,ERAM1,42,A7*%
%TO.N,ADDR7*%
X220376000Y-124541500D03*
%TO.P,ERAM1,43,A6*%
%TO.N,ADDR6*%
X221176000Y-124541500D03*
%TO.P,ERAM1,44,A5*%
%TO.N,ADDR5*%
X221976000Y-124541500D03*
%TD*%
D10*
%TO.P,R32,1*%
%TO.N,GND*%
X136590000Y-107905000D03*
%TO.P,R32,2*%
%TO.N,ADDR3*%
X138240000Y-107905000D03*
%TD*%
D61*
%TO.P,U3,8,VCC*%
%TO.N,+5V*%
X150608000Y-62730000D03*
%TO.P,U3,7,OUT1*%
%TO.N,/Bus Control/CLK-*%
X150608000Y-64000000D03*
%TO.P,U3,6,OUT2*%
%TO.N,/Bus Control/CLK=*%
X150608000Y-65270000D03*
%TO.P,U3,5,OUT3*%
%TO.N,/Bus Control/CLK+*%
X150608000Y-66540000D03*
%TO.P,U3,4,GND*%
%TO.N,GND*%
X143608000Y-66540000D03*
%TO.P,U3,3,IN3*%
%TO.N,/Bus Control/CLK=*%
X143608000Y-65270000D03*
%TO.P,U3,2,IN2*%
%TO.N,/Bus Control/CLK-*%
X143608000Y-64000000D03*
%TO.P,U3,1,IN1*%
%TO.N,CLOCK*%
X143608000Y-62730000D03*
%TD*%
D62*
%TO.P,J2,0*%
%TO.N,N/C*%
X222098000Y-47245331D03*
X197098000Y-47245331D03*
D12*
%TO.P,J2,1,1*%
%TO.N,unconnected-(J2-Pad1)*%
X204058000Y-48665331D03*
D13*
%TO.P,J2,2,2*%
%TO.N,unconnected-(J2-Pad2)*%
X206828000Y-48665331D03*
%TO.P,J2,3,3*%
%TO.N,unconnected-(J2-Pad3)*%
X209598000Y-48665331D03*
%TO.P,J2,4,4*%
%TO.N,unconnected-(J2-Pad4)*%
X212368000Y-48665331D03*
%TO.P,J2,5,5*%
%TO.N,unconnected-(J2-Pad5)*%
X215138000Y-48665331D03*
%TO.P,J2,6,6*%
%TO.N,unconnected-(J2-Pad6)*%
X205443000Y-45825331D03*
%TO.P,J2,7,7*%
%TO.N,unconnected-(J2-Pad7)*%
X208213000Y-45825331D03*
%TO.P,J2,8,8*%
%TO.N,unconnected-(J2-Pad8)*%
X210983000Y-45825331D03*
%TO.P,J2,9,9*%
%TO.N,unconnected-(J2-Pad9)*%
X213753000Y-45825331D03*
%TD*%
D63*
%TO.N,CLOCK*%
X188308000Y-105335000D03*
X187308000Y-69535000D03*
%TO.N,/Bus Control/~{RDY_R}*%
X190208000Y-95935000D03*
X143208000Y-68535000D03*
%TO.N,VPA*%
X191108000Y-104035000D03*
%TO.N,VDA*%
X192108000Y-103035000D03*
%TO.N,/Bus Control/CPU_W~{R}*%
X185908000Y-104435000D03*
X180808000Y-100435000D03*
X187908000Y-104435000D03*
X172908000Y-101335000D03*
%TO.N,/Bus Control/RDY_R*%
X140408000Y-73735000D03*
X138808000Y-68735000D03*
D64*
%TO.N,GND*%
X171578000Y-110191000D03*
X171070000Y-112223000D03*
D63*
%TO.N,DATA7*%
X184278000Y-108544000D03*
%TO.N,DATA6*%
X183770000Y-107651000D03*
X183262000Y-106635000D03*
%TO.N,DATA4*%
X182754000Y-105619000D03*
X138408000Y-90535000D03*
%TO.N,DATA3*%
X182246000Y-104603000D03*
%TO.N,DATA2*%
X181738000Y-103587000D03*
%TO.N,DATA1*%
X181208000Y-102835000D03*
%TO.N,DATA0*%
X180722000Y-101809000D03*
%TO.N,ADDR14*%
X179198000Y-124923000D03*
X170308000Y-121875000D03*
%TO.N,ADDR12*%
X170308000Y-127082000D03*
X179198000Y-127971000D03*
%TO.N,ADDR13*%
X179198000Y-126447000D03*
X170308000Y-124415000D03*
%TO.N,ADDR15*%
X201892000Y-127844000D03*
X179198000Y-123399000D03*
X170308000Y-119335000D03*
D64*
%TO.N,+5V*%
X177801000Y-133305000D03*
X181996299Y-132538701D03*
X132708000Y-71135000D03*
X132708000Y-69035000D03*
D63*
%TO.N,ADDR23*%
X188342000Y-131527000D03*
X172086000Y-129495000D03*
%TO.N,ADDR22*%
X187326000Y-130802500D03*
X173110598Y-129495000D03*
%TO.N,ADDR21*%
X174130897Y-129499299D03*
X186310000Y-130294500D03*
%TO.N,ADDR20*%
X185294000Y-129786500D03*
X175155420Y-129499223D03*
%TD*%
D65*
%TO.N,CLOCK*%
X188308000Y-105335000D02*
X188507511Y-105135489D01*
X188507511Y-105135489D02*
X188507511Y-104134511D01*
X188507511Y-104134511D02*
X188158000Y-103785000D01*
X188158000Y-103785000D02*
X188158000Y-102972500D01*
X187308000Y-69535000D02*
X179408000Y-61635000D01*
X179408000Y-61635000D02*
X144703000Y-61635000D01*
X144703000Y-61635000D02*
X143608000Y-62730000D01*
%TO.N,/Bus Control/~{RDY_R}*%
X190208000Y-95935000D02*
X190158000Y-95985000D01*
X190158000Y-95985000D02*
X190158000Y-98097500D01*
X143208000Y-68535000D02*
X140570500Y-68535000D01*
%TO.N,VPA*%
X191108000Y-103535000D02*
X191108000Y-104035000D01*
X190158000Y-102972500D02*
X190545500Y-102972500D01*
X190545500Y-102972500D02*
X191108000Y-103535000D01*
%TO.N,VDA*%
X191208000Y-102935000D02*
X191308000Y-103035000D01*
X191308000Y-103035000D02*
X192108000Y-103035000D01*
X190845500Y-102285000D02*
X190845500Y-102572500D01*
X190845500Y-102572500D02*
X191208000Y-102935000D01*
%TO.N,/Bus Control/CPU_W~{R}*%
X187658000Y-102972500D02*
X187658000Y-104185000D01*
X187658000Y-104185000D02*
X187908000Y-104435000D01*
X172908000Y-102565500D02*
X172779500Y-102694000D01*
X185908000Y-104435000D02*
X184808000Y-104435000D01*
X184808000Y-104435000D02*
X180808000Y-100435000D01*
X172908000Y-101335000D02*
X172908000Y-102565500D01*
D66*
%TO.N,/Bus Control/DATA_BUS_EN*%
X185970500Y-102285000D02*
X183958000Y-102285000D01*
X181308000Y-99635000D02*
X180408000Y-99635000D01*
X183958000Y-102285000D02*
X181308000Y-99635000D01*
X180008000Y-102835000D02*
X179499000Y-103344000D01*
X180408000Y-99635000D02*
X180008000Y-100035000D01*
X180008000Y-100035000D02*
X180008000Y-102835000D01*
X179499000Y-103344000D02*
X178504500Y-103344000D01*
D65*
%TO.N,+3V3*%
X190845500Y-101285000D02*
X194158000Y-101285000D01*
X194158000Y-101285000D02*
X194508000Y-100935000D01*
X189658000Y-102972500D02*
X189658000Y-104485000D01*
X190108000Y-104935000D02*
X194108000Y-104935000D01*
X189658000Y-104485000D02*
X190108000Y-104935000D01*
X194108000Y-104935000D02*
X194408000Y-104635000D01*
X194408000Y-104635000D02*
X194408000Y-102810000D01*
X194408000Y-102810000D02*
X194483000Y-102735000D01*
X194408000Y-102660000D02*
X194483000Y-102735000D01*
X194408000Y-90235000D02*
X194408000Y-102660000D01*
D67*
%TO.N,/Bus Control/CLK=*%
X150608000Y-65270000D02*
X176243000Y-65270000D01*
X176243000Y-65270000D02*
X181908000Y-70935000D01*
X181908000Y-70935000D02*
X181908000Y-97735000D01*
X184458000Y-100285000D02*
X185970500Y-100285000D01*
X181908000Y-97735000D02*
X184458000Y-100285000D01*
%TO.N,/Bus Control/CLK+*%
X150608000Y-66540000D02*
X176513000Y-66540000D01*
X176513000Y-66540000D02*
X181308000Y-71335000D01*
X181308000Y-71335000D02*
X181308000Y-98035361D01*
X181308000Y-98035361D02*
X184057639Y-100785000D01*
X184057639Y-100785000D02*
X185970500Y-100785000D01*
D68*
%TO.N,DATA7*%
X178504500Y-108544000D02*
X184278000Y-108544000D01*
D65*
%TO.N,+3V3*%
X190845500Y-101285000D02*
X190845500Y-101785000D01*
%TO.N,GND*%
X190845500Y-99785000D02*
X189158000Y-99785000D01*
X189158000Y-99785000D02*
X188408000Y-100535000D01*
X185970500Y-99785000D02*
X187658000Y-99785000D01*
X187658000Y-99785000D02*
X188408000Y-100535000D01*
D66*
%TO.N,/Bus Control/XO2_TCK*%
X186808000Y-91535000D02*
X186808000Y-92935000D01*
X186808000Y-92935000D02*
X187208000Y-93335000D01*
X187208000Y-93335000D02*
X187208000Y-94035000D01*
D68*
%TO.N,DATA1*%
X129394000Y-97735000D02*
X128114000Y-99015000D01*
X128114000Y-99015000D02*
X111988000Y-99015000D01*
X110708000Y-97735000D02*
X110115000Y-97735000D01*
X111988000Y-99015000D02*
X110708000Y-97735000D01*
%TO.N,DATA6*%
X114154000Y-97735000D02*
X112108000Y-97735000D01*
X112108000Y-97735000D02*
X110848000Y-96475000D01*
X110848000Y-96475000D02*
X96135000Y-96475000D01*
X96135000Y-96475000D02*
X94875000Y-97735000D01*
%TO.N,DATA2*%
X129394000Y-95195000D02*
X128114000Y-96475000D01*
X110968000Y-95195000D02*
X110115000Y-95195000D01*
X128114000Y-96475000D02*
X112248000Y-96475000D01*
X112248000Y-96475000D02*
X110968000Y-95195000D01*
%TO.N,DATA0*%
X129394000Y-100275000D02*
X128114000Y-101555000D01*
X128114000Y-101555000D02*
X111728000Y-101555000D01*
X111728000Y-101555000D02*
X110448000Y-100275000D01*
X110448000Y-100275000D02*
X110115000Y-100275000D01*
%TO.N,ADDR7*%
X129394000Y-120595000D02*
X128114000Y-121875000D01*
X128114000Y-121875000D02*
X111948000Y-121875000D01*
X111948000Y-121875000D02*
X110668000Y-120595000D01*
X110668000Y-120595000D02*
X110115000Y-120595000D01*
%TO.N,ADDR6*%
X129267000Y-118085000D02*
X128017000Y-119335000D01*
X128017000Y-119335000D02*
X111908000Y-119335000D01*
X111908000Y-119335000D02*
X110628000Y-118055000D01*
X110628000Y-118055000D02*
X110115000Y-118055000D01*
%TO.N,ADDR5*%
X129394000Y-115515000D02*
X128114000Y-116795000D01*
X128114000Y-116795000D02*
X111981500Y-116795000D01*
X111981500Y-116795000D02*
X110701500Y-115515000D01*
X110701500Y-115515000D02*
X110115000Y-115515000D01*
%TO.N,ADDR4*%
X129394000Y-112975000D02*
X128114000Y-114255000D01*
X128114000Y-114255000D02*
X111928000Y-114255000D01*
X111928000Y-114255000D02*
X110648000Y-112975000D01*
X110648000Y-112975000D02*
X110115000Y-112975000D01*
%TO.N,ADDR3*%
X129394000Y-110435000D02*
X128114000Y-111715000D01*
X128114000Y-111715000D02*
X111988000Y-111715000D01*
X110708000Y-110435000D02*
X110115000Y-110435000D01*
X111988000Y-111715000D02*
X110708000Y-110435000D01*
%TO.N,ADDR2*%
X129394000Y-107895000D02*
X128114000Y-109175000D01*
X128114000Y-109175000D02*
X111948000Y-109175000D01*
X110668000Y-107895000D02*
X110115000Y-107895000D01*
X111948000Y-109175000D02*
X110668000Y-107895000D01*
D65*
%TO.N,~{READ}*%
X94875000Y-110435000D02*
X95974511Y-109335489D01*
X95974511Y-109335489D02*
X110808489Y-109335489D01*
X110808489Y-109335489D02*
X111908000Y-110435000D01*
X111908000Y-110435000D02*
X114154000Y-110435000D01*
%TO.N,~{WRITE}*%
X191008000Y-94100006D02*
X191008000Y-87935000D01*
X189158000Y-95950006D02*
X191008000Y-94100006D01*
X189158000Y-98097500D02*
X189158000Y-95950006D01*
X191008000Y-87935000D02*
X191408000Y-87535000D01*
X191408000Y-87535000D02*
X192708000Y-87535000D01*
%TO.N,~{READ}*%
X188658000Y-98097500D02*
X188658000Y-95885000D01*
X190308000Y-94235000D02*
X190308000Y-85435000D01*
X188658000Y-95885000D02*
X190308000Y-94235000D01*
X190308000Y-85435000D02*
X190908000Y-84835000D01*
X190908000Y-84835000D02*
X192708000Y-84835000D01*
%TO.N,+5V*%
X144408000Y-69835000D02*
X146008000Y-71435000D01*
X140570500Y-69835000D02*
X144408000Y-69835000D01*
X153258000Y-71435000D02*
X154108000Y-72285000D01*
X146008000Y-71435000D02*
X153258000Y-71435000D01*
%TO.N,+3V3*%
X185970500Y-101785000D02*
X185970500Y-101285000D01*
D66*
%TO.N,DATA7*%
X185158000Y-91535000D02*
X185158000Y-93985000D01*
X185158000Y-93985000D02*
X185208000Y-94035000D01*
D67*
%TO.N,DATA6*%
X184208000Y-94035000D02*
X184208000Y-95235000D01*
X186008000Y-97035000D02*
X186008000Y-98747500D01*
X184208000Y-95235000D02*
X186008000Y-97035000D01*
X186008000Y-98747500D02*
X185970500Y-98785000D01*
%TO.N,/Bus Control/XO2_TMS*%
X188208000Y-94035000D02*
X188108000Y-94135000D01*
X188108000Y-94135000D02*
X188108000Y-97947500D01*
%TO.N,/Bus Control/XO2_TCK*%
X187208000Y-94035000D02*
X187208000Y-95984520D01*
X187208000Y-95984520D02*
X187658000Y-96434520D01*
X187658000Y-96434520D02*
X187658000Y-98097500D01*
%TO.N,/Bus Control/XO2_TDI*%
X186208000Y-94035000D02*
X186208000Y-96135000D01*
X186208000Y-96135000D02*
X186658000Y-96585000D01*
X186658000Y-96585000D02*
X186658000Y-98097500D01*
%TO.N,/Bus Control/~{LATCH_OE}*%
X186658000Y-102972500D02*
X186658000Y-107211390D01*
X186108000Y-111835000D02*
X185534500Y-112408500D01*
X186658000Y-107211390D02*
X186108000Y-107761390D01*
X186108000Y-107761390D02*
X186108000Y-111835000D01*
X185534500Y-112408500D02*
X178567000Y-112408500D01*
%TO.N,/Bus Control/LATCH_ADDR*%
X172717000Y-118133500D02*
X172717000Y-117226000D01*
X172717000Y-117226000D02*
X176208000Y-113735000D01*
X176208000Y-113735000D02*
X185008000Y-113735000D01*
X185008000Y-113735000D02*
X186608000Y-112135000D01*
X187158000Y-107373497D02*
X187158000Y-102972500D01*
X186608000Y-112135000D02*
X186608000Y-107923497D01*
X186608000Y-107923497D02*
X187158000Y-107373497D01*
%TO.N,CLOCK*%
X134845500Y-68535000D02*
X133908000Y-68535000D01*
X133908000Y-68535000D02*
X133408000Y-68035000D01*
X133408000Y-68035000D02*
X133408000Y-65335000D01*
X133408000Y-65335000D02*
X136013000Y-62730000D01*
X136013000Y-62730000D02*
X143608000Y-62730000D01*
%TO.N,/Bus Control/CLK=*%
X140570500Y-70485000D02*
X137258000Y-70485000D01*
X137258000Y-70485000D02*
X136908000Y-70135000D01*
X136908000Y-70135000D02*
X136908000Y-66435000D01*
X136908000Y-66435000D02*
X138073000Y-65270000D01*
X138073000Y-65270000D02*
X143608000Y-65270000D01*
X143608000Y-65270000D02*
X150608000Y-65270000D01*
D65*
%TO.N,/Bus Control/CLK-*%
X143608000Y-64000000D02*
X150608000Y-64000000D01*
D69*
%TO.N,+5V*%
X134845500Y-71135000D02*
X136658000Y-71135000D01*
X136658000Y-71135000D02*
X137308000Y-71785000D01*
X137308000Y-71785000D02*
X138658000Y-71785000D01*
X134808000Y-72835000D02*
X136808000Y-72835000D01*
X136808000Y-72835000D02*
X137308000Y-72335000D01*
X137308000Y-72335000D02*
X137308000Y-71935000D01*
X150608000Y-62730000D02*
X152963000Y-62730000D01*
X152963000Y-62730000D02*
X153008000Y-62685000D01*
D67*
%TO.N,RDY*%
X151418000Y-73135000D02*
X153308000Y-73135000D01*
X153308000Y-73135000D02*
X154108000Y-73935000D01*
%TO.N,/Bus Control/RDY_R*%
X140408000Y-73735000D02*
X143198000Y-73735000D01*
X140570500Y-69185000D02*
X139258000Y-69185000D01*
X139258000Y-69185000D02*
X138808000Y-68735000D01*
X143198000Y-73735000D02*
X143798000Y-73135000D01*
%TO.N,Net-(R3-Pad2)*%
X137808000Y-75435000D02*
X137808000Y-73635000D01*
X137808000Y-73635000D02*
X138608000Y-72835000D01*
X141908000Y-72635000D02*
X141908000Y-71335000D01*
X138608000Y-72835000D02*
X141708000Y-72835000D01*
X141708000Y-72835000D02*
X141908000Y-72635000D01*
X141708000Y-71135000D02*
X140570500Y-71135000D01*
X141908000Y-71335000D02*
X141708000Y-71135000D01*
D69*
%TO.N,+5V*%
X137908000Y-71785000D02*
X138658000Y-71785000D01*
X138658000Y-71785000D02*
X140570500Y-71785000D01*
X134808000Y-72835000D02*
X134808000Y-75335000D01*
X134808000Y-75335000D02*
X134708000Y-75435000D01*
D67*
%TO.N,GND*%
X171070000Y-112223000D02*
X172531500Y-112223000D01*
X172779500Y-108544000D02*
X172779500Y-108989500D01*
X172779500Y-108989500D02*
X171578000Y-110191000D01*
X172531500Y-112223000D02*
X172717000Y-112408500D01*
%TO.N,/DBA0*%
X172091639Y-103344000D02*
X170054000Y-101306361D01*
X177917000Y-111144000D02*
X177917000Y-112408500D01*
X169297000Y-97750000D02*
X168022000Y-97750000D01*
X174717000Y-103344000D02*
X177208000Y-105835000D01*
X170054000Y-101306361D02*
X170054000Y-98507000D01*
X170054000Y-98507000D02*
X169297000Y-97750000D01*
X172779500Y-103344000D02*
X174717000Y-103344000D01*
X172779500Y-103344000D02*
X172091639Y-103344000D01*
X177208000Y-110435000D02*
X177917000Y-111144000D01*
X177208000Y-105835000D02*
X177208000Y-110435000D01*
%TO.N,/DBA1*%
X174367000Y-103994000D02*
X176708000Y-106335000D01*
X172779500Y-103994000D02*
X171477000Y-103994000D01*
X177267000Y-111129718D02*
X177267000Y-112408500D01*
X168022000Y-100539000D02*
X168022000Y-100290000D01*
X176708000Y-106335000D02*
X176708000Y-110570718D01*
X176708000Y-110570718D02*
X177267000Y-111129718D01*
X172779500Y-103994000D02*
X174367000Y-103994000D01*
X171477000Y-103994000D02*
X168022000Y-100539000D01*
D68*
%TO.N,DATA7*%
X96135000Y-101555000D02*
X94875000Y-102815000D01*
X111705300Y-102815000D02*
X110445300Y-101555000D01*
X110445300Y-101555000D02*
X96135000Y-101555000D01*
X114154000Y-102815000D02*
X111705300Y-102815000D01*
%TO.N,DATA6*%
X183601511Y-107819489D02*
X183770000Y-107651000D01*
X178579011Y-107819489D02*
X183601511Y-107819489D01*
X114154000Y-100275000D02*
X111705300Y-100275000D01*
X96135000Y-99015000D02*
X94875000Y-100275000D01*
X111705300Y-100275000D02*
X110445300Y-99015000D01*
X110445300Y-99015000D02*
X96135000Y-99015000D01*
X178504500Y-107894000D02*
X178579011Y-107819489D01*
X182653000Y-107244000D02*
X183262000Y-106635000D01*
X178504500Y-107244000D02*
X182653000Y-107244000D01*
%TO.N,DATA4*%
X114154000Y-95195000D02*
X112894000Y-93935000D01*
X182754000Y-105619000D02*
X182754000Y-105645000D01*
X112894000Y-93935000D02*
X96135000Y-93935000D01*
X115614000Y-93735000D02*
X114154000Y-95195000D01*
X182754000Y-105645000D02*
X181805000Y-106594000D01*
X138408000Y-92535000D02*
X137208000Y-93735000D01*
X181805000Y-106594000D02*
X178504500Y-106594000D01*
X138408000Y-90535000D02*
X138408000Y-92535000D01*
X96135000Y-93935000D02*
X94875000Y-95195000D01*
X137208000Y-93735000D02*
X115614000Y-93735000D01*
%TO.N,DATA3*%
X96135000Y-91395000D02*
X94875000Y-92655000D01*
X112894000Y-91395000D02*
X96135000Y-91395000D01*
X178504500Y-105944000D02*
X180855000Y-105944000D01*
X180855000Y-105944000D02*
X182196000Y-104603000D01*
X114154000Y-92655000D02*
X112894000Y-91395000D01*
X182196000Y-104603000D02*
X182246000Y-104603000D01*
%TO.N,DATA2*%
X178504500Y-105294000D02*
X180031000Y-105294000D01*
X180031000Y-105294000D02*
X181738000Y-103587000D01*
%TO.N,DATA1*%
X181208000Y-103135000D02*
X179699000Y-104644000D01*
X179699000Y-104644000D02*
X178504500Y-104644000D01*
X181208000Y-102835000D02*
X181208000Y-103135000D01*
%TO.N,DATA0*%
X180608000Y-102935000D02*
X180608000Y-101923000D01*
X179549000Y-103994000D02*
X180608000Y-102935000D01*
X180608000Y-101923000D02*
X180722000Y-101809000D01*
X178504500Y-103994000D02*
X179549000Y-103994000D01*
%TO.N,ADDR14*%
X179198000Y-124923000D02*
X180913000Y-124923000D01*
X170308000Y-121875000D02*
X169043000Y-120610000D01*
X169043000Y-120610000D02*
X168022000Y-120610000D01*
%TO.N,ADDR12*%
X170308000Y-127082000D02*
X168916000Y-125690000D01*
X111395000Y-124415000D02*
X110115000Y-123135000D01*
X129394000Y-123135000D02*
X128114000Y-124415000D01*
X179198000Y-127971000D02*
X180913000Y-127971000D01*
X168916000Y-125690000D02*
X168022000Y-125690000D01*
X128114000Y-124415000D02*
X111395000Y-124415000D01*
%TO.N,ADDR7*%
X131939000Y-118080000D02*
X137415000Y-118080000D01*
X129424000Y-120595000D02*
X131939000Y-118080000D01*
X142622000Y-118070000D02*
X137425000Y-118070000D01*
X137425000Y-118070000D02*
X137415000Y-118080000D01*
X129394000Y-120595000D02*
X129424000Y-120595000D01*
%TO.N,ADDR6*%
X142622000Y-115530000D02*
X137425000Y-115530000D01*
X129394000Y-117958000D02*
X131812000Y-115540000D01*
X131812000Y-115540000D02*
X137415000Y-115540000D01*
X137425000Y-115530000D02*
X137415000Y-115540000D01*
%TO.N,ADDR5*%
X129394000Y-115515000D02*
X129424000Y-115515000D01*
X129424000Y-115515000D02*
X131939000Y-113000000D01*
X131939000Y-113000000D02*
X137415000Y-113000000D01*
X142622000Y-112990000D02*
X137425000Y-112990000D01*
X137425000Y-112990000D02*
X137415000Y-113000000D01*
%TO.N,ADDR4*%
X137425000Y-110450000D02*
X137415000Y-110460000D01*
X129394000Y-112975000D02*
X129424000Y-112975000D01*
X142622000Y-110450000D02*
X137425000Y-110450000D01*
X131939000Y-110460000D02*
X137415000Y-110460000D01*
X129424000Y-112975000D02*
X131939000Y-110460000D01*
%TO.N,ADDR3*%
X139706000Y-107910000D02*
X138245000Y-107910000D01*
X139569000Y-107910000D02*
X139706000Y-107910000D01*
X138431000Y-109048000D02*
X139569000Y-107910000D01*
X138245000Y-107910000D02*
X138240000Y-107905000D01*
X129424000Y-110435000D02*
X130811000Y-109048000D01*
X142622000Y-107910000D02*
X139706000Y-107910000D01*
X130811000Y-109048000D02*
X138431000Y-109048000D01*
X129394000Y-110435000D02*
X129424000Y-110435000D01*
%TO.N,ADDR2*%
X129394000Y-107895000D02*
X129424000Y-107895000D01*
X130684000Y-106635000D02*
X138685000Y-106635000D01*
X138245000Y-105370000D02*
X138240000Y-105365000D01*
X138685000Y-106635000D02*
X139950000Y-105370000D01*
X140214000Y-105370000D02*
X138245000Y-105370000D01*
X139950000Y-105370000D02*
X140214000Y-105370000D01*
X142622000Y-105370000D02*
X140214000Y-105370000D01*
X129424000Y-107895000D02*
X130684000Y-106635000D01*
%TO.N,ADDR1*%
X138812000Y-104095000D02*
X140077000Y-102830000D01*
X129394000Y-105355000D02*
X128114000Y-106635000D01*
X111395000Y-106635000D02*
X110115000Y-105355000D01*
X130654000Y-104095000D02*
X138812000Y-104095000D01*
X140077000Y-102830000D02*
X141103000Y-102830000D01*
X128114000Y-106635000D02*
X111395000Y-106635000D01*
X129394000Y-105355000D02*
X130654000Y-104095000D01*
X138245000Y-102830000D02*
X138240000Y-102825000D01*
X142622000Y-102830000D02*
X141103000Y-102830000D01*
X141103000Y-102830000D02*
X138245000Y-102830000D01*
%TO.N,ADDR0*%
X130654000Y-101555000D02*
X138812000Y-101555000D01*
X138245000Y-100290000D02*
X138240000Y-100285000D01*
X138812000Y-101555000D02*
X140077000Y-100290000D01*
X111395000Y-104095000D02*
X110115000Y-102815000D01*
X140077000Y-100290000D02*
X142622000Y-100290000D01*
X142622000Y-100290000D02*
X138245000Y-100290000D01*
X128114000Y-104095000D02*
X111395000Y-104095000D01*
X129394000Y-102815000D02*
X130654000Y-101555000D01*
X129394000Y-102815000D02*
X128114000Y-104095000D01*
%TO.N,ADDR10*%
X137552000Y-125690000D02*
X137415000Y-125827000D01*
X95999511Y-106770489D02*
X110880489Y-106770489D01*
X142622000Y-125690000D02*
X137552000Y-125690000D01*
X112005000Y-107895000D02*
X114154000Y-107895000D01*
X94875000Y-107895000D02*
X95999511Y-106770489D01*
X110880489Y-106770489D02*
X112005000Y-107895000D01*
%TO.N,ADDR11*%
X111878000Y-112975000D02*
X114154000Y-112975000D01*
X110753489Y-111850489D02*
X111878000Y-112975000D01*
X142622000Y-128230000D02*
X137425000Y-128230000D01*
X137425000Y-128230000D02*
X137415000Y-128240000D01*
X94875000Y-112975000D02*
X95999511Y-111850489D01*
X95999511Y-111850489D02*
X110753489Y-111850489D01*
%TO.N,ADDR9*%
X138817000Y-123150000D02*
X138626000Y-123150000D01*
X112019282Y-115515000D02*
X114154000Y-115515000D01*
X138558000Y-123150000D02*
X137425000Y-123150000D01*
X110894771Y-114390489D02*
X112019282Y-115515000D01*
X94875000Y-115515000D02*
X95999511Y-114390489D01*
X95999511Y-114390489D02*
X110894771Y-114390489D01*
X137425000Y-123150000D02*
X137415000Y-123160000D01*
X142622000Y-123150000D02*
X138817000Y-123150000D01*
%TO.N,ADDR8*%
X137425000Y-120610000D02*
X137415000Y-120620000D01*
X94875000Y-118055000D02*
X95999511Y-116930489D01*
X111705300Y-118055000D02*
X114154000Y-118055000D01*
X142622000Y-120610000D02*
X137425000Y-120610000D01*
X95999511Y-116930489D02*
X110580789Y-116930489D01*
X110580789Y-116930489D02*
X111705300Y-118055000D01*
%TO.N,ADDR13*%
X179198000Y-126447000D02*
X180913000Y-126447000D01*
X112019282Y-120595000D02*
X114154000Y-120595000D01*
X110894771Y-119470489D02*
X112019282Y-120595000D01*
X170308000Y-124415000D02*
X169043000Y-123150000D01*
X94875000Y-120595000D02*
X95999511Y-119470489D01*
X169043000Y-123150000D02*
X168022000Y-123150000D01*
X95999511Y-119470489D02*
X110894771Y-119470489D01*
%TO.N,ADDR15*%
X204211520Y-112195520D02*
X202112000Y-110096000D01*
X205011520Y-112195520D02*
X204211520Y-112195520D01*
X203164935Y-114463480D02*
X204944520Y-114463480D01*
X203360500Y-129312500D02*
X204630500Y-129312500D01*
X203889238Y-95720409D02*
X202612480Y-94443651D01*
X205303000Y-96287000D02*
X204736409Y-95720409D01*
X202112000Y-110096000D02*
X202112000Y-99296000D01*
X170308000Y-119335000D02*
X169043000Y-118070000D01*
X201950480Y-115677935D02*
X201950480Y-127785520D01*
X179198000Y-123399000D02*
X180913000Y-123399000D01*
X203112000Y-82296000D02*
X204912000Y-82296000D01*
X205085000Y-129312500D02*
X204630500Y-129312500D01*
X201950480Y-115677935D02*
X203164935Y-114463480D01*
X203112000Y-98296000D02*
X205112000Y-98296000D01*
X205303000Y-98105000D02*
X205303000Y-97237500D01*
X204736409Y-95720409D02*
X203889238Y-95720409D01*
X205303000Y-81905000D02*
X205303000Y-81362500D01*
X202612480Y-94443651D02*
X202612480Y-82795520D01*
X202112000Y-99296000D02*
X203112000Y-98296000D01*
X205303000Y-97237500D02*
X205303000Y-96287000D01*
X201950480Y-127785520D02*
X201892000Y-127844000D01*
X203360500Y-129312500D02*
X201950480Y-127902480D01*
X205112000Y-98296000D02*
X205303000Y-98105000D01*
X204944520Y-114463480D02*
X205176000Y-114232000D01*
X169043000Y-118070000D02*
X168022000Y-118070000D01*
X202612480Y-82795520D02*
X203112000Y-82296000D01*
X201892000Y-127844000D02*
X203360500Y-129312500D01*
X205176000Y-114232000D02*
X205176000Y-113366500D01*
X204912000Y-82296000D02*
X205303000Y-81905000D01*
X205176000Y-112360000D02*
X205011520Y-112195520D01*
X205176000Y-113366500D02*
X205176000Y-112360000D01*
D67*
%TO.N,/DBA2*%
X172779500Y-104644000D02*
X174067000Y-104644000D01*
X172091639Y-104644000D02*
X172050639Y-104603000D01*
X176617000Y-111244000D02*
X176617000Y-112408500D01*
X171070000Y-104603000D02*
X169297000Y-102830000D01*
X172050639Y-104603000D02*
X171070000Y-104603000D01*
X172779500Y-104644000D02*
X172091639Y-104644000D01*
X176208000Y-110835000D02*
X176617000Y-111244000D01*
X169297000Y-102830000D02*
X168022000Y-102830000D01*
X176208000Y-106785000D02*
X176208000Y-110835000D01*
X174067000Y-104644000D02*
X176208000Y-106785000D01*
%TO.N,/DBA3*%
X175608000Y-110935000D02*
X175608000Y-106981296D01*
X175608000Y-106981296D02*
X173920704Y-105294000D01*
X173920704Y-105294000D02*
X172779500Y-105294000D01*
X168098000Y-105294000D02*
X168022000Y-105370000D01*
X175967000Y-112408500D02*
X175967000Y-111294000D01*
X175967000Y-111294000D02*
X175608000Y-110935000D01*
X172779500Y-105294000D02*
X168098000Y-105294000D01*
%TO.N,/DBA4*%
X175317000Y-112408500D02*
X175317000Y-111444000D01*
X173935000Y-105944000D02*
X172779500Y-105944000D01*
X171253000Y-105944000D02*
X169287000Y-107910000D01*
X172779500Y-105944000D02*
X171253000Y-105944000D01*
X169287000Y-107910000D02*
X168022000Y-107910000D01*
X175108000Y-111235000D02*
X175108000Y-107117000D01*
X175108000Y-107117000D02*
X173935000Y-105944000D01*
X175317000Y-111444000D02*
X175108000Y-111235000D01*
D69*
%TO.N,+5V*%
X178504500Y-100581000D02*
X178508000Y-100577500D01*
X178508000Y-102690500D02*
X178504500Y-102694000D01*
X178508000Y-100935000D02*
X178508000Y-102690500D01*
X180468000Y-119081000D02*
X179514500Y-119081000D01*
X94875000Y-128943500D02*
X94875000Y-125675000D01*
X134708000Y-75835000D02*
X134908000Y-75635000D01*
D65*
X188783000Y-56140000D02*
X188783000Y-59335000D01*
D69*
X132708000Y-69035000D02*
X132858000Y-69185000D01*
X113288000Y-69825000D02*
X116298000Y-72835000D01*
D67*
X142622000Y-97750000D02*
X138386000Y-97750000D01*
X114174000Y-128948500D02*
X114154000Y-128928500D01*
D69*
X132858000Y-69185000D02*
X134845500Y-69185000D01*
X114154000Y-128928500D02*
X114154000Y-125675000D01*
X183389000Y-133144500D02*
X182602098Y-133144500D01*
X134845500Y-71135000D02*
X132708000Y-71135000D01*
X182602098Y-133144500D02*
X181996299Y-132538701D01*
X116298000Y-72835000D02*
X134808000Y-72835000D01*
X179514500Y-119081000D02*
X178567000Y-118133500D01*
D67*
X94870000Y-128948500D02*
X94875000Y-128943500D01*
%TO.N,/DBA5*%
X174690141Y-112385359D02*
X174690141Y-111452859D01*
X174667000Y-112408500D02*
X174690141Y-112385359D01*
X171619000Y-106594000D02*
X168022000Y-110191000D01*
X174690141Y-111452859D02*
X174608000Y-111370718D01*
X168022000Y-110191000D02*
X168022000Y-110450000D01*
X174608000Y-107633000D02*
X173569000Y-106594000D01*
X174608000Y-111370718D02*
X174608000Y-107633000D01*
X172779500Y-106594000D02*
X171619000Y-106594000D01*
X173569000Y-106594000D02*
X172779500Y-106594000D01*
%TO.N,/DBA6*%
X171784320Y-107244000D02*
X169546520Y-109481800D01*
X172779500Y-107244000D02*
X171784320Y-107244000D01*
X169546520Y-111465480D02*
X168022000Y-112990000D01*
X174017000Y-112408500D02*
X174017000Y-107793639D01*
X174017000Y-107793639D02*
X173467361Y-107244000D01*
X169546520Y-109481800D02*
X169546520Y-111465480D01*
X173467361Y-107244000D02*
X172779500Y-107244000D01*
%TO.N,/DBA7*%
X172091639Y-107894000D02*
X170054000Y-109931639D01*
X172853361Y-111207000D02*
X170054000Y-111207000D01*
X170054000Y-111207000D02*
X170054000Y-114255000D01*
X170054000Y-114255000D02*
X168779000Y-115530000D01*
X172779500Y-107894000D02*
X172091639Y-107894000D01*
X168779000Y-115530000D02*
X168022000Y-115530000D01*
X170054000Y-109931639D02*
X170054000Y-111207000D01*
X173367000Y-112408500D02*
X173367000Y-111720639D01*
X173367000Y-111720639D02*
X172853361Y-111207000D01*
D68*
%TO.N,ADDR23*%
X188469000Y-131654000D02*
X188469000Y-133144500D01*
X173367000Y-117376000D02*
X176508000Y-114235000D01*
X187108000Y-112335000D02*
X187108000Y-108377000D01*
X187108000Y-108377000D02*
X188342000Y-107143000D01*
X173367000Y-128214000D02*
X172086000Y-129495000D01*
X188342000Y-107143000D02*
X189041000Y-107143000D01*
X176508000Y-114235000D02*
X185208000Y-114235000D01*
X185208000Y-114235000D02*
X187108000Y-112335000D01*
X173367000Y-118133500D02*
X173367000Y-117376000D01*
X188342000Y-131527000D02*
X188469000Y-131654000D01*
X173367000Y-118133500D02*
X173367000Y-128214000D01*
D65*
%TO.N,Net-(R7-Pad2)*%
X190473000Y-54870000D02*
X191743000Y-53600000D01*
X191743000Y-53600000D02*
X194033000Y-53600000D01*
X190443000Y-54870000D02*
X190473000Y-54870000D01*
X190443000Y-59325000D02*
X190433000Y-59335000D01*
X190443000Y-54870000D02*
X190443000Y-59325000D01*
X188783000Y-54870000D02*
X190443000Y-54870000D01*
%TO.N,/Memory Unit/~{ERAM_CS0}*%
X184659000Y-140069500D02*
X184659000Y-137284000D01*
X186108000Y-135835000D02*
X216408000Y-135835000D01*
X217885000Y-134358000D02*
X217885000Y-129312500D01*
X184659000Y-137284000D02*
X186108000Y-135835000D01*
X216408000Y-135835000D02*
X217885000Y-134358000D01*
D68*
%TO.N,ADDR22*%
X188176000Y-108667000D02*
X189041000Y-108667000D01*
X176786000Y-114635000D02*
X185508000Y-114635000D01*
X174017000Y-128588598D02*
X173110598Y-129495000D01*
X174017000Y-118133500D02*
X174017000Y-117404000D01*
X187508000Y-109335000D02*
X188176000Y-108667000D01*
X187199000Y-130929500D02*
X187199000Y-133144500D01*
X187326000Y-130802500D02*
X187199000Y-130929500D01*
X187508000Y-112635000D02*
X187508000Y-109335000D01*
X185508000Y-114635000D02*
X187508000Y-112635000D01*
X174017000Y-117404000D02*
X176786000Y-114635000D01*
X174017000Y-118133500D02*
X174017000Y-128588598D01*
%TO.N,ADDR21*%
X177077639Y-115035000D02*
X185908000Y-115035000D01*
X188252000Y-110191000D02*
X189041000Y-110191000D01*
X174626000Y-118174500D02*
X174667000Y-118133500D01*
X174626000Y-129004196D02*
X174626000Y-118174500D01*
X174667000Y-118133500D02*
X174667000Y-117445639D01*
X187908000Y-113035000D02*
X187908000Y-110535000D01*
X174130897Y-129499299D02*
X174626000Y-129004196D01*
X186310000Y-130294500D02*
X185929000Y-130675500D01*
X185929000Y-130675500D02*
X185929000Y-133144500D01*
X187908000Y-110535000D02*
X188252000Y-110191000D01*
X185908000Y-115035000D02*
X187908000Y-113035000D01*
X174667000Y-117445639D02*
X177077639Y-115035000D01*
%TO.N,ADDR20*%
X186146000Y-115435000D02*
X188283511Y-113297489D01*
X184659000Y-130421500D02*
X185294000Y-129786500D01*
X175317000Y-129337643D02*
X175155420Y-129499223D01*
X184659000Y-130421500D02*
X184659000Y-133144500D01*
X188283511Y-111959489D02*
X188528000Y-111715000D01*
X175317000Y-118133500D02*
X175317000Y-129337643D01*
X188283511Y-113297489D02*
X188283511Y-111959489D01*
X177327639Y-115435000D02*
X186146000Y-115435000D01*
X175317000Y-118133500D02*
X175317000Y-117445639D01*
X175317000Y-117445639D02*
X177327639Y-115435000D01*
X188528000Y-111715000D02*
X189041000Y-111715000D01*
%TO.N,ADDR19*%
X207812480Y-110996480D02*
X204856480Y-110996480D01*
X186445000Y-115835000D02*
X189041000Y-113239000D01*
X203715018Y-100292982D02*
X204512000Y-99496000D01*
X204712000Y-83696000D02*
X207712000Y-83696000D01*
X206856000Y-116287000D02*
X208376000Y-114767000D01*
X207620000Y-126447000D02*
X204559000Y-126447000D01*
X204512000Y-94496000D02*
X203852560Y-93836560D01*
X208503000Y-82905000D02*
X208503000Y-81362500D01*
X207512000Y-99496000D02*
X208503000Y-98505000D01*
X175967000Y-118133500D02*
X175967000Y-129441152D01*
X175967000Y-129441152D02*
X181930901Y-135405053D01*
X206737947Y-135405053D02*
X208285000Y-133858000D01*
X208369000Y-111553000D02*
X207812480Y-110996480D01*
X208285000Y-127112000D02*
X207620000Y-126447000D01*
X204856480Y-110996480D02*
X203715018Y-109855018D01*
X175967000Y-118133500D02*
X175967000Y-117439879D01*
X208503000Y-96087000D02*
X206912000Y-94496000D01*
X208376000Y-113366500D02*
X208369000Y-113359500D01*
X204559000Y-126447000D02*
X203748560Y-125636560D01*
X206912000Y-94496000D02*
X204512000Y-94496000D01*
X208285000Y-129312500D02*
X208285000Y-127112000D01*
X207712000Y-83696000D02*
X208503000Y-82905000D01*
X203748560Y-125636560D02*
X203748560Y-116970440D01*
X204512000Y-99496000D02*
X207512000Y-99496000D01*
X203852560Y-84555440D02*
X204712000Y-83696000D01*
X181930901Y-135405053D02*
X206737947Y-135405053D01*
X208503000Y-97237500D02*
X208503000Y-96087000D01*
X208376000Y-114767000D02*
X208376000Y-113366500D01*
X175967000Y-117439879D02*
X177571879Y-115835000D01*
X208285000Y-133858000D02*
X208285000Y-129312500D01*
X203715018Y-109855018D02*
X203715018Y-100292982D01*
X208369000Y-113359500D02*
X208369000Y-111553000D01*
X204432000Y-116287000D02*
X206856000Y-116287000D01*
X203748560Y-116970440D02*
X204432000Y-116287000D01*
X208503000Y-98505000D02*
X208503000Y-97237500D01*
X177571879Y-115835000D02*
X186445000Y-115835000D01*
X203852560Y-93836560D02*
X203852560Y-84555440D01*
%TO.N,ADDR18*%
X204431283Y-126955000D02*
X203299040Y-125822757D01*
X207703000Y-97237500D02*
X207703000Y-95887000D01*
X203553040Y-84026384D02*
X204283424Y-83296000D01*
X207576000Y-114667000D02*
X207576000Y-113494000D01*
X203553040Y-94072040D02*
X203553040Y-84026384D01*
X207703000Y-82705000D02*
X207703000Y-81362500D01*
X203312000Y-109896000D02*
X203312000Y-100007793D01*
X177807570Y-116235000D02*
X187008000Y-116235000D01*
X207576000Y-111760000D02*
X207112000Y-111296000D01*
X207576000Y-113366500D02*
X207576000Y-111760000D01*
X207012480Y-99195520D02*
X207703000Y-98505000D01*
X187008000Y-116235000D02*
X188480000Y-114763000D01*
X204124273Y-99195520D02*
X207012480Y-99195520D01*
X203312000Y-100007793D02*
X204124273Y-99195520D01*
X203299040Y-125822757D02*
X203299040Y-116530960D01*
X176617000Y-118133500D02*
X176617000Y-129455434D01*
X176617000Y-118133500D02*
X176617000Y-117425570D01*
X176617000Y-129455434D02*
X182267108Y-135105542D01*
X182267108Y-135105542D02*
X206137458Y-135105542D01*
X206464000Y-115779000D02*
X207576000Y-114667000D01*
X207485000Y-127512000D02*
X206928000Y-126955000D01*
X204051000Y-115779000D02*
X206464000Y-115779000D01*
X206637849Y-94821849D02*
X204302849Y-94821849D01*
X207112000Y-83296000D02*
X207703000Y-82705000D01*
X176617000Y-117425570D02*
X177807570Y-116235000D01*
X204302849Y-94821849D02*
X203553040Y-94072040D01*
X204712000Y-111296000D02*
X203312000Y-109896000D01*
X207485000Y-129312500D02*
X207485000Y-127512000D01*
X188480000Y-114763000D02*
X189041000Y-114763000D01*
X207703000Y-95887000D02*
X206637849Y-94821849D01*
X204283424Y-83296000D02*
X207112000Y-83296000D01*
X207703000Y-98505000D02*
X207703000Y-97237500D01*
X203299040Y-116530960D02*
X204051000Y-115779000D01*
X207112000Y-111296000D02*
X204712000Y-111296000D01*
X206137458Y-135105542D02*
X207485000Y-133758000D01*
X207485000Y-133758000D02*
X207485000Y-129312500D01*
X206928000Y-126955000D02*
X204431283Y-126955000D01*
%TO.N,ADDR17*%
X177267000Y-118133500D02*
X177267000Y-117445639D01*
X203253520Y-94237520D02*
X203253520Y-83554480D01*
X202849520Y-126008955D02*
X202849520Y-116091480D01*
X206478631Y-82929369D02*
X206903000Y-82505000D01*
X206083000Y-115271000D02*
X206776000Y-114578000D01*
X206776000Y-114578000D02*
X206776000Y-113494000D01*
X206685000Y-129312500D02*
X206685000Y-127812000D01*
X203670000Y-115271000D02*
X206083000Y-115271000D01*
X177267000Y-129469717D02*
X182553314Y-134756031D01*
X206903000Y-82505000D02*
X206903000Y-81362500D01*
X202849520Y-116091480D02*
X203670000Y-115271000D01*
X177267000Y-118133500D02*
X177267000Y-129469717D01*
X206776000Y-113366500D02*
X206776000Y-111960000D01*
X206903000Y-95887000D02*
X206137369Y-95121369D01*
X206412480Y-111596480D02*
X204588894Y-111596480D01*
X202912000Y-99896000D02*
X203912000Y-98896000D01*
X204303565Y-127463000D02*
X202849520Y-126008955D01*
X203253520Y-83554480D02*
X203878631Y-82929369D01*
X203912000Y-98896000D02*
X206312000Y-98896000D01*
X182553314Y-134756031D02*
X205386969Y-134756031D01*
X178077639Y-116635000D02*
X188693000Y-116635000D01*
X206312000Y-98896000D02*
X206903000Y-98305000D01*
X206776000Y-111960000D02*
X206412480Y-111596480D01*
X205386969Y-134756031D02*
X206685000Y-133458000D01*
X188693000Y-116635000D02*
X189041000Y-116287000D01*
X204137369Y-95121369D02*
X203253520Y-94237520D01*
X206336000Y-127463000D02*
X204303565Y-127463000D01*
X177267000Y-117445639D02*
X178077639Y-116635000D01*
X206137369Y-95121369D02*
X204137369Y-95121369D01*
X206685000Y-133458000D02*
X206685000Y-129312500D01*
X202912000Y-109919586D02*
X202912000Y-99896000D01*
X206903000Y-97237500D02*
X206903000Y-95887000D01*
X206685000Y-127812000D02*
X206336000Y-127463000D01*
X203878631Y-82929369D02*
X206478631Y-82929369D01*
X206903000Y-98305000D02*
X206903000Y-97237500D01*
X204588894Y-111596480D02*
X202912000Y-109919586D01*
%TO.N,ADDR16*%
X204464828Y-111896000D02*
X202512000Y-109943172D01*
X178308000Y-117035000D02*
X187008000Y-117035000D01*
X205612480Y-98595520D02*
X206103000Y-98105000D01*
X205744000Y-127971000D02*
X204175849Y-127971000D01*
X205885000Y-128112000D02*
X205744000Y-127971000D01*
X205702000Y-114763000D02*
X205976000Y-114489000D01*
X205436889Y-95420889D02*
X204013303Y-95420889D01*
X202400000Y-126195151D02*
X202400000Y-115652000D01*
X206103000Y-97237500D02*
X206103000Y-96087000D01*
X205512000Y-111896000D02*
X204464828Y-111896000D01*
X187008000Y-117035000D02*
X188032000Y-118059000D01*
X202912000Y-83096000D02*
X203378151Y-82629849D01*
X206103000Y-82305000D02*
X206103000Y-81362500D01*
X182839520Y-134406520D02*
X204536480Y-134406520D01*
X205976000Y-112360000D02*
X205512000Y-111896000D01*
X204175849Y-127971000D02*
X202400000Y-126195151D01*
X202912000Y-94319586D02*
X202912000Y-83096000D01*
X202400000Y-115652000D02*
X203289000Y-114763000D01*
X205976000Y-113366500D02*
X205976000Y-112360000D01*
X205976000Y-114489000D02*
X205976000Y-113494000D01*
X203378151Y-82629849D02*
X205778151Y-82629849D01*
X205778151Y-82629849D02*
X206103000Y-82305000D01*
X206103000Y-98105000D02*
X206103000Y-97237500D01*
X202512000Y-99496000D02*
X203412480Y-98595520D01*
X177917000Y-118133500D02*
X177917000Y-117426000D01*
X205885000Y-133058000D02*
X205885000Y-129312500D01*
X203412480Y-98595520D02*
X205612480Y-98595520D01*
X177917000Y-117426000D02*
X178308000Y-117035000D01*
X204013303Y-95420889D02*
X202912000Y-94319586D01*
X204536480Y-134406520D02*
X205885000Y-133058000D01*
X203289000Y-114763000D02*
X205702000Y-114763000D01*
X188032000Y-118059000D02*
X189041000Y-118059000D01*
X205885000Y-129312500D02*
X205885000Y-128112000D01*
X202512000Y-109943172D02*
X202512000Y-99496000D01*
X206103000Y-96087000D02*
X205436889Y-95420889D01*
X177917000Y-118133500D02*
X177917000Y-129484000D01*
X177917000Y-129484000D02*
X182839520Y-134406520D01*
D67*
%TO.N,/Clock/CRYSTAL*%
X128528000Y-69825000D02*
X134835500Y-69825000D01*
X134835500Y-69825000D02*
X134845500Y-69835000D01*
%TO.N,~{CLOCK}*%
X134845500Y-67885000D02*
X135958000Y-67885000D01*
X135858000Y-70485000D02*
X134845500Y-70485000D01*
X136308000Y-70035000D02*
X135858000Y-70485000D01*
X136308000Y-68235000D02*
X136308000Y-70035000D01*
X135958000Y-67885000D02*
X136308000Y-68235000D01*
D65*
%TO.N,Net-(U13-Pad5)*%
X186088000Y-52330000D02*
X186083000Y-52335000D01*
X188783000Y-52330000D02*
X186088000Y-52330000D01*
%TO.N,Net-(U13-Pad6)*%
X187208000Y-53135000D02*
X186083000Y-53135000D01*
X188783000Y-53600000D02*
X187673000Y-53600000D01*
X187673000Y-53600000D02*
X187208000Y-53135000D01*
%TD*%
M02*
