%TF.GenerationSoftware,KiCad,Pcbnew,6.0.4-1.fc35*%
%TF.CreationDate,2022-04-12T19:23:18+05:30*%
%TF.ProjectId,8puter,38707574-6572-42e6-9b69-6361645f7063,rev?*%
%TF.SameCoordinates,Original*%
%TF.FileFunction,Soldermask,Bot*%
%TF.FilePolarity,Negative*%
%FSLAX46Y46*%
G04 Gerber Fmt 4.6, Leading zero omitted, Abs format (unit mm)*
G04 Created by KiCad (PCBNEW 6.0.4-1.fc35) date 2022-04-12 19:23:18*
%MOMM*%
%LPD*%
G01*
G04 APERTURE LIST*
G04 Aperture macros list*
%AMRoundRect*
0 Rectangle with rounded corners*
0 $1 Rounding radius*
0 $2 $3 $4 $5 $6 $7 $8 $9 X,Y pos of 4 corners*
0 Add a 4 corners polygon primitive as box body*
4,1,4,$2,$3,$4,$5,$6,$7,$8,$9,$2,$3,0*
0 Add four circle primitives for the rounded corners*
1,1,$1+$1,$2,$3*
1,1,$1+$1,$4,$5*
1,1,$1+$1,$6,$7*
1,1,$1+$1,$8,$9*
0 Add four rect primitives between the rounded corners*
20,1,$1+$1,$2,$3,$4,$5,0*
20,1,$1+$1,$4,$5,$6,$7,0*
20,1,$1+$1,$6,$7,$8,$9,0*
20,1,$1+$1,$8,$9,$2,$3,0*%
G04 Aperture macros list end*
%ADD10RoundRect,0.050000X0.800000X0.800000X-0.800000X0.800000X-0.800000X-0.800000X0.800000X-0.800000X0*%
%ADD11C,1.700000*%
%ADD12RoundRect,0.050000X-0.425000X0.425000X-0.425000X-0.425000X0.425000X-0.425000X0.425000X0.425000X0*%
%ADD13O,0.950000X0.950000*%
%ADD14C,3.100000*%
%ADD15RoundRect,0.050000X-0.900000X-0.900000X0.900000X-0.900000X0.900000X0.900000X-0.900000X0.900000X0*%
%ADD16O,1.900000X1.900000*%
%ADD17RoundRect,0.050000X2.000000X1.000000X-2.000000X1.000000X-2.000000X-1.000000X2.000000X-1.000000X0*%
%ADD18O,3.400000X2.100000*%
%ADD19O,2.100000X3.600000*%
%ADD20RoundRect,0.050000X-0.800000X-0.800000X0.800000X-0.800000X0.800000X0.800000X-0.800000X0.800000X0*%
%ADD21RoundRect,0.050000X0.800000X-0.800000X0.800000X0.800000X-0.800000X0.800000X-0.800000X-0.800000X0*%
%ADD22O,1.700000X1.700000*%
%ADD23RoundRect,0.050000X-0.800000X0.800000X-0.800000X-0.800000X0.800000X-0.800000X0.800000X0.800000X0*%
%ADD24RoundRect,0.050000X-1.200000X-0.800000X1.200000X-0.800000X1.200000X0.800000X-1.200000X0.800000X0*%
%ADD25O,2.500000X1.700000*%
%ADD26RoundRect,0.050000X-1.250000X-1.250000X1.250000X-1.250000X1.250000X1.250000X-1.250000X1.250000X0*%
%ADD27C,2.600000*%
%ADD28RoundRect,0.050000X1.200000X0.800000X-1.200000X0.800000X-1.200000X-0.800000X1.200000X-0.800000X0*%
%ADD29C,2.100000*%
%ADD30C,4.100000*%
G04 APERTURE END LIST*
D10*
%TO.C,C5*%
X67508000Y-74235000D03*
D11*
X65508000Y-74235000D03*
%TD*%
D10*
%TO.C,C6*%
X67508000Y-72535000D03*
D11*
X65508000Y-72535000D03*
%TD*%
D10*
%TO.C,C7*%
X67508000Y-70835000D03*
D11*
X65508000Y-70835000D03*
%TD*%
D10*
%TO.C,C8*%
X67508000Y-69135000D03*
D11*
X65508000Y-69135000D03*
%TD*%
D10*
%TO.C,C19*%
X67508000Y-67335000D03*
D11*
X65508000Y-67335000D03*
%TD*%
D10*
%TO.C,C20*%
X67508000Y-65635000D03*
D11*
X65508000Y-65635000D03*
%TD*%
D12*
%TO.C,J4*%
X188208000Y-94035000D03*
D13*
X187208000Y-94035000D03*
X186208000Y-94035000D03*
X185208000Y-94035000D03*
X184208000Y-94035000D03*
%TD*%
D14*
%TO.C,J3*%
X137378000Y-45185000D03*
X124238000Y-45185000D03*
%TD*%
D15*
%TO.C,D1*%
X143798000Y-73135000D03*
D16*
X151418000Y-73135000D03*
%TD*%
D11*
%TO.C,J1*%
X66103000Y-36796000D03*
D17*
X66103000Y-45796000D03*
D18*
X66103000Y-39796000D03*
D19*
X70603000Y-38796000D03*
X61603000Y-38796000D03*
%TD*%
D20*
%TO.C,C14*%
X70715349Y-125431000D03*
D11*
X74515349Y-125431000D03*
%TD*%
D21*
%TO.C,RP2*%
X137415000Y-130780000D03*
D22*
X137415000Y-128240000D03*
X137415000Y-125700000D03*
X137415000Y-123160000D03*
X137415000Y-120620000D03*
X137415000Y-118080000D03*
X137415000Y-115540000D03*
X137415000Y-113000000D03*
X137415000Y-110460000D03*
%TD*%
D20*
%TO.C,C13*%
X71477349Y-112604000D03*
D11*
X75277349Y-112604000D03*
%TD*%
D23*
%TO.C,C3*%
X83708000Y-76732349D03*
D11*
X83708000Y-81732349D03*
%TD*%
D23*
%TO.C,C3*%
X73026000Y-97755349D03*
D11*
X73026000Y-102755349D03*
%TD*%
D10*
%TO.C,C17*%
X86087000Y-51267000D03*
D11*
X84087000Y-51267000D03*
%TD*%
D24*
%TO.C,CPU1*%
X142622000Y-79970000D03*
D25*
X142622000Y-82510000D03*
X142622000Y-85050000D03*
X142622000Y-87590000D03*
X142622000Y-90130000D03*
X142622000Y-92670000D03*
X142622000Y-95210000D03*
X142622000Y-97750000D03*
X142622000Y-100290000D03*
X142622000Y-102830000D03*
X142622000Y-105370000D03*
X142622000Y-107910000D03*
X142622000Y-110450000D03*
X142622000Y-112990000D03*
X142622000Y-115530000D03*
X142622000Y-118070000D03*
X142622000Y-120610000D03*
X142622000Y-123150000D03*
X142622000Y-125690000D03*
X142622000Y-128230000D03*
X168022000Y-128230000D03*
X168022000Y-125690000D03*
X168022000Y-123150000D03*
X168022000Y-120610000D03*
X168022000Y-118070000D03*
X168022000Y-115530000D03*
X168022000Y-112990000D03*
X168022000Y-110450000D03*
X168022000Y-107910000D03*
X168022000Y-105370000D03*
X168022000Y-102830000D03*
X168022000Y-100290000D03*
X168022000Y-97750000D03*
X168022000Y-95210000D03*
X168022000Y-92670000D03*
X168022000Y-90130000D03*
X168022000Y-87590000D03*
X168022000Y-85050000D03*
X168022000Y-82510000D03*
X168022000Y-79970000D03*
%TD*%
D26*
%TO.C,CRYSTAL0*%
X113288000Y-77445000D03*
D27*
X128528000Y-77445000D03*
X128528000Y-69825000D03*
X113288000Y-69825000D03*
%TD*%
D10*
%TO.C,C1*%
X93040000Y-51394000D03*
D11*
X91040000Y-51394000D03*
%TD*%
D10*
%TO.C,SRAM1*%
X110115000Y-125675000D03*
D22*
X110115000Y-123135000D03*
X110115000Y-120595000D03*
X110115000Y-118055000D03*
X110115000Y-115515000D03*
X110115000Y-112975000D03*
X110115000Y-110435000D03*
X110115000Y-107895000D03*
X110115000Y-105355000D03*
X110115000Y-102815000D03*
X110115000Y-100275000D03*
X110115000Y-97735000D03*
X110115000Y-95195000D03*
X110115000Y-92655000D03*
X94875000Y-92655000D03*
X94875000Y-95195000D03*
X94875000Y-97735000D03*
X94875000Y-100275000D03*
X94875000Y-102815000D03*
X94875000Y-105355000D03*
X94875000Y-107895000D03*
X94875000Y-110435000D03*
X94875000Y-112975000D03*
X94875000Y-115515000D03*
X94875000Y-118055000D03*
X94875000Y-120595000D03*
X94875000Y-123135000D03*
X94875000Y-125675000D03*
%TD*%
D28*
%TO.C,ROM1*%
X129394000Y-125675000D03*
D25*
X129394000Y-123135000D03*
X129394000Y-120595000D03*
X129394000Y-118055000D03*
X129394000Y-115515000D03*
X129394000Y-112975000D03*
X129394000Y-110435000D03*
X129394000Y-107895000D03*
X129394000Y-105355000D03*
X129394000Y-102815000D03*
X129394000Y-100275000D03*
X129394000Y-97735000D03*
X129394000Y-95195000D03*
X129394000Y-92655000D03*
X114154000Y-92655000D03*
X114154000Y-95195000D03*
X114154000Y-97735000D03*
X114154000Y-100275000D03*
X114154000Y-102815000D03*
X114154000Y-105355000D03*
X114154000Y-107895000D03*
X114154000Y-110435000D03*
X114154000Y-112975000D03*
X114154000Y-115515000D03*
X114154000Y-118055000D03*
X114154000Y-120595000D03*
X114154000Y-123135000D03*
X114154000Y-125675000D03*
%TD*%
D21*
%TO.C,RP1*%
X175007000Y-97745000D03*
D22*
X175007000Y-95205000D03*
X175007000Y-92665000D03*
X175007000Y-90125000D03*
X175007000Y-87585000D03*
X175007000Y-85045000D03*
X175007000Y-82505000D03*
X175007000Y-79965000D03*
X175007000Y-77425000D03*
%TD*%
D29*
%TO.C,SW1*%
X83853000Y-39746000D03*
X90353000Y-39746000D03*
X83853000Y-44246000D03*
X90353000Y-44246000D03*
%TD*%
D30*
%TO.C,J2*%
X222098000Y-47245331D03*
X197098000Y-47245331D03*
D10*
X204058000Y-48665331D03*
D11*
X206828000Y-48665331D03*
X209598000Y-48665331D03*
X212368000Y-48665331D03*
X215138000Y-48665331D03*
X205443000Y-45825331D03*
X208213000Y-45825331D03*
X210983000Y-45825331D03*
X213753000Y-45825331D03*
%TD*%
G36*
X187734538Y-93618115D02*
G01*
X187735000Y-93619393D01*
X187735000Y-94451672D01*
X187734000Y-94453404D01*
X187732000Y-94453404D01*
X187731228Y-94452599D01*
X187699677Y-94392279D01*
X187638514Y-94357447D01*
X187568094Y-94361220D01*
X187533566Y-94379939D01*
X187530559Y-94382246D01*
X187528576Y-94382507D01*
X187527359Y-94380920D01*
X187527859Y-94379317D01*
X187600118Y-94299487D01*
X187658590Y-94178801D01*
X187680860Y-94046428D01*
X187680998Y-94035131D01*
X187661969Y-93902251D01*
X187606462Y-93780172D01*
X187531609Y-93693300D01*
X187531236Y-93691335D01*
X187532751Y-93690029D01*
X187533845Y-93690129D01*
X187599390Y-93715469D01*
X187668340Y-93701327D01*
X187718795Y-93652057D01*
X187731124Y-93618700D01*
X187732662Y-93617422D01*
X187734538Y-93618115D01*
G37*
G36*
X186612803Y-93785076D02*
G01*
X186665742Y-93823732D01*
X186736001Y-93827918D01*
X186797580Y-93793337D01*
X186802617Y-93787524D01*
X186804507Y-93786870D01*
X186806018Y-93788180D01*
X186805938Y-93789684D01*
X186755687Y-93896713D01*
X186735055Y-94029222D01*
X186752444Y-94162193D01*
X186804990Y-94281615D01*
X186804772Y-94283603D01*
X186802941Y-94284408D01*
X186801980Y-94284035D01*
X186750258Y-94246268D01*
X186679999Y-94242082D01*
X186618420Y-94276663D01*
X186611897Y-94284191D01*
X186610007Y-94284845D01*
X186608496Y-94283535D01*
X186608586Y-94282009D01*
X186658590Y-94178801D01*
X186680860Y-94046428D01*
X186680998Y-94035131D01*
X186661969Y-93902251D01*
X186609803Y-93787519D01*
X186609997Y-93785528D01*
X186611817Y-93784700D01*
X186612803Y-93785076D01*
G37*
G36*
X185612803Y-93785076D02*
G01*
X185665742Y-93823732D01*
X185736001Y-93827918D01*
X185797580Y-93793337D01*
X185802617Y-93787524D01*
X185804507Y-93786870D01*
X185806018Y-93788180D01*
X185805938Y-93789684D01*
X185755687Y-93896713D01*
X185735055Y-94029222D01*
X185752444Y-94162193D01*
X185804990Y-94281615D01*
X185804772Y-94283603D01*
X185802941Y-94284408D01*
X185801980Y-94284035D01*
X185750258Y-94246268D01*
X185679999Y-94242082D01*
X185618420Y-94276663D01*
X185611897Y-94284191D01*
X185610007Y-94284845D01*
X185608496Y-94283535D01*
X185608586Y-94282009D01*
X185658590Y-94178801D01*
X185680860Y-94046428D01*
X185680998Y-94035131D01*
X185661969Y-93902251D01*
X185609803Y-93787519D01*
X185609997Y-93785528D01*
X185611817Y-93784700D01*
X185612803Y-93785076D01*
G37*
G36*
X184612803Y-93785076D02*
G01*
X184665742Y-93823732D01*
X184736001Y-93827918D01*
X184797580Y-93793337D01*
X184802617Y-93787524D01*
X184804507Y-93786870D01*
X184806018Y-93788180D01*
X184805938Y-93789684D01*
X184755687Y-93896713D01*
X184735055Y-94029222D01*
X184752444Y-94162193D01*
X184804990Y-94281615D01*
X184804772Y-94283603D01*
X184802941Y-94284408D01*
X184801980Y-94284035D01*
X184750258Y-94246268D01*
X184679999Y-94242082D01*
X184618420Y-94276663D01*
X184611897Y-94284191D01*
X184610007Y-94284845D01*
X184608496Y-94283535D01*
X184608586Y-94282009D01*
X184658590Y-94178801D01*
X184680860Y-94046428D01*
X184680998Y-94035131D01*
X184661969Y-93902251D01*
X184609803Y-93787519D01*
X184609997Y-93785528D01*
X184611817Y-93784700D01*
X184612803Y-93785076D01*
G37*
G36*
X65918481Y-73276492D02*
G01*
X65919294Y-73278319D01*
X65918673Y-73279569D01*
X65873376Y-73322051D01*
X65856217Y-73390314D01*
X65878706Y-73457068D01*
X65913571Y-73488142D01*
X65914198Y-73490041D01*
X65912868Y-73491534D01*
X65911427Y-73491462D01*
X65770043Y-73428514D01*
X65596640Y-73391656D01*
X65419360Y-73391656D01*
X65245957Y-73428514D01*
X65101978Y-73492618D01*
X65099989Y-73492409D01*
X65099176Y-73490582D01*
X65099777Y-73489351D01*
X65144042Y-73446658D01*
X65160246Y-73378164D01*
X65136821Y-73311715D01*
X65104212Y-73282652D01*
X65103585Y-73280753D01*
X65104915Y-73279260D01*
X65106356Y-73279332D01*
X65245957Y-73341486D01*
X65419360Y-73378344D01*
X65596640Y-73378344D01*
X65770043Y-73341486D01*
X65916492Y-73276283D01*
X65918481Y-73276492D01*
G37*
G36*
X65918481Y-71576492D02*
G01*
X65919294Y-71578319D01*
X65918673Y-71579569D01*
X65873376Y-71622051D01*
X65856217Y-71690314D01*
X65878706Y-71757068D01*
X65913571Y-71788142D01*
X65914198Y-71790041D01*
X65912868Y-71791534D01*
X65911427Y-71791462D01*
X65770043Y-71728514D01*
X65596640Y-71691656D01*
X65419360Y-71691656D01*
X65245957Y-71728514D01*
X65101978Y-71792618D01*
X65099989Y-71792409D01*
X65099176Y-71790582D01*
X65099777Y-71789351D01*
X65144042Y-71746658D01*
X65160246Y-71678164D01*
X65136821Y-71611715D01*
X65104212Y-71582652D01*
X65103585Y-71580753D01*
X65104915Y-71579260D01*
X65106356Y-71579332D01*
X65245957Y-71641486D01*
X65419360Y-71678344D01*
X65596640Y-71678344D01*
X65770043Y-71641486D01*
X65916492Y-71576283D01*
X65918481Y-71576492D01*
G37*
G36*
X65918481Y-69876492D02*
G01*
X65919294Y-69878319D01*
X65918673Y-69879569D01*
X65873376Y-69922051D01*
X65856217Y-69990314D01*
X65878706Y-70057068D01*
X65913571Y-70088142D01*
X65914198Y-70090041D01*
X65912868Y-70091534D01*
X65911427Y-70091462D01*
X65770043Y-70028514D01*
X65596640Y-69991656D01*
X65419360Y-69991656D01*
X65245957Y-70028514D01*
X65101978Y-70092618D01*
X65099989Y-70092409D01*
X65099176Y-70090582D01*
X65099777Y-70089351D01*
X65144042Y-70046658D01*
X65160246Y-69978164D01*
X65136821Y-69911715D01*
X65104212Y-69882652D01*
X65103585Y-69880753D01*
X65104915Y-69879260D01*
X65106356Y-69879332D01*
X65245957Y-69941486D01*
X65419360Y-69978344D01*
X65596640Y-69978344D01*
X65770043Y-69941486D01*
X65916492Y-69876283D01*
X65918481Y-69876492D01*
G37*
G36*
X65245957Y-68141486D02*
G01*
X65419360Y-68178344D01*
X65596640Y-68178344D01*
X65770043Y-68141486D01*
X65869763Y-68097088D01*
X65871752Y-68097297D01*
X65872565Y-68099124D01*
X65871478Y-68100700D01*
X65828979Y-68122167D01*
X65777421Y-68170522D01*
X65760263Y-68238785D01*
X65782734Y-68305485D01*
X65828673Y-68342229D01*
X65829401Y-68344092D01*
X65829183Y-68344742D01*
X65828909Y-68345248D01*
X65882369Y-68374153D01*
X65883417Y-68375856D01*
X65882466Y-68377615D01*
X65880605Y-68377739D01*
X65770043Y-68328514D01*
X65596640Y-68291656D01*
X65419360Y-68291656D01*
X65245957Y-68328514D01*
X65140805Y-68375331D01*
X65138816Y-68375122D01*
X65138003Y-68373295D01*
X65139065Y-68371732D01*
X65188677Y-68345795D01*
X65239555Y-68296725D01*
X65255759Y-68228231D01*
X65232358Y-68161849D01*
X65176573Y-68118492D01*
X65169628Y-68115999D01*
X65167327Y-68115252D01*
X65166969Y-68115096D01*
X65128182Y-68093419D01*
X65127158Y-68091701D01*
X65128134Y-68089955D01*
X65129971Y-68089846D01*
X65245957Y-68141486D01*
G37*
G36*
X66674651Y-68169290D02*
G01*
X66689645Y-68179309D01*
X66708199Y-68183000D01*
X68307801Y-68183000D01*
X68326355Y-68179309D01*
X68341189Y-68169397D01*
X68343185Y-68169266D01*
X68344296Y-68170929D01*
X68344209Y-68171658D01*
X68325078Y-68232753D01*
X68344379Y-68298484D01*
X68343907Y-68300427D01*
X68341988Y-68300991D01*
X68341349Y-68300710D01*
X68326355Y-68290691D01*
X68307801Y-68287000D01*
X66708199Y-68287000D01*
X66689645Y-68290691D01*
X66674811Y-68300603D01*
X66672815Y-68300734D01*
X66671704Y-68299071D01*
X66671791Y-68298342D01*
X66690922Y-68237247D01*
X66671621Y-68171516D01*
X66672093Y-68169573D01*
X66674012Y-68169009D01*
X66674651Y-68169290D01*
G37*
G36*
X65918481Y-66376492D02*
G01*
X65919294Y-66378319D01*
X65918673Y-66379569D01*
X65873376Y-66422051D01*
X65856217Y-66490314D01*
X65878706Y-66557068D01*
X65913571Y-66588142D01*
X65914198Y-66590041D01*
X65912868Y-66591534D01*
X65911427Y-66591462D01*
X65770043Y-66528514D01*
X65596640Y-66491656D01*
X65419360Y-66491656D01*
X65245957Y-66528514D01*
X65101978Y-66592618D01*
X65099989Y-66592409D01*
X65099176Y-66590582D01*
X65099777Y-66589351D01*
X65144042Y-66546658D01*
X65160246Y-66478164D01*
X65136821Y-66411715D01*
X65104212Y-66382652D01*
X65103585Y-66380753D01*
X65104915Y-66379260D01*
X65106356Y-66379332D01*
X65245957Y-66441486D01*
X65419360Y-66478344D01*
X65596640Y-66478344D01*
X65770043Y-66441486D01*
X65916492Y-66376283D01*
X65918481Y-66376492D01*
G37*
M02*
