%TF.GenerationSoftware,KiCad,Pcbnew,6.0.4-1.fc35*%
%TF.CreationDate,2022-04-12T19:23:18+05:30*%
%TF.ProjectId,8puter,38707574-6572-42e6-9b69-6361645f7063,rev?*%
%TF.SameCoordinates,Original*%
%TF.FileFunction,Legend,Top*%
%TF.FilePolarity,Positive*%
%FSLAX46Y46*%
G04 Gerber Fmt 4.6, Leading zero omitted, Abs format (unit mm)*
G04 Created by KiCad (PCBNEW 6.0.4-1.fc35) date 2022-04-12 19:23:18*
%MOMM*%
%LPD*%
G01*
G04 APERTURE LIST*
%ADD10C,0.500000*%
%ADD11C,0.200000*%
%ADD12C,0.150000*%
%ADD13C,0.120000*%
G04 APERTURE END LIST*
D10*
X60660380Y-147396904D02*
X60469904Y-147301666D01*
X60374666Y-147206428D01*
X60279428Y-147015952D01*
X60279428Y-146920714D01*
X60374666Y-146730238D01*
X60469904Y-146635000D01*
X60660380Y-146539761D01*
X61041333Y-146539761D01*
X61231809Y-146635000D01*
X61327047Y-146730238D01*
X61422285Y-146920714D01*
X61422285Y-147015952D01*
X61327047Y-147206428D01*
X61231809Y-147301666D01*
X61041333Y-147396904D01*
X60660380Y-147396904D01*
X60469904Y-147492142D01*
X60374666Y-147587380D01*
X60279428Y-147777857D01*
X60279428Y-148158809D01*
X60374666Y-148349285D01*
X60469904Y-148444523D01*
X60660380Y-148539761D01*
X61041333Y-148539761D01*
X61231809Y-148444523D01*
X61327047Y-148349285D01*
X61422285Y-148158809D01*
X61422285Y-147777857D01*
X61327047Y-147587380D01*
X61231809Y-147492142D01*
X61041333Y-147396904D01*
X62279428Y-147206428D02*
X62279428Y-149206428D01*
X62279428Y-147301666D02*
X62469904Y-147206428D01*
X62850857Y-147206428D01*
X63041333Y-147301666D01*
X63136571Y-147396904D01*
X63231809Y-147587380D01*
X63231809Y-148158809D01*
X63136571Y-148349285D01*
X63041333Y-148444523D01*
X62850857Y-148539761D01*
X62469904Y-148539761D01*
X62279428Y-148444523D01*
X64946095Y-147206428D02*
X64946095Y-148539761D01*
X64088952Y-147206428D02*
X64088952Y-148254047D01*
X64184190Y-148444523D01*
X64374666Y-148539761D01*
X64660380Y-148539761D01*
X64850857Y-148444523D01*
X64946095Y-148349285D01*
X65612761Y-147206428D02*
X66374666Y-147206428D01*
X65898476Y-146539761D02*
X65898476Y-148254047D01*
X65993714Y-148444523D01*
X66184190Y-148539761D01*
X66374666Y-148539761D01*
X67803238Y-148444523D02*
X67612761Y-148539761D01*
X67231809Y-148539761D01*
X67041333Y-148444523D01*
X66946095Y-148254047D01*
X66946095Y-147492142D01*
X67041333Y-147301666D01*
X67231809Y-147206428D01*
X67612761Y-147206428D01*
X67803238Y-147301666D01*
X67898476Y-147492142D01*
X67898476Y-147682619D01*
X66946095Y-147873095D01*
X68755619Y-148539761D02*
X68755619Y-147206428D01*
X68755619Y-147587380D02*
X68850857Y-147396904D01*
X68946095Y-147301666D01*
X69136571Y-147206428D01*
X69327047Y-147206428D01*
D11*
X60133238Y-149682380D02*
X60704666Y-149682380D01*
X60418952Y-150682380D02*
X60418952Y-149682380D01*
X61038000Y-150682380D02*
X61038000Y-149682380D01*
X61466571Y-150682380D02*
X61466571Y-150158571D01*
X61418952Y-150063333D01*
X61323714Y-150015714D01*
X61180857Y-150015714D01*
X61085619Y-150063333D01*
X61038000Y-150110952D01*
X62323714Y-150634761D02*
X62228476Y-150682380D01*
X62038000Y-150682380D01*
X61942761Y-150634761D01*
X61895142Y-150539523D01*
X61895142Y-150158571D01*
X61942761Y-150063333D01*
X62038000Y-150015714D01*
X62228476Y-150015714D01*
X62323714Y-150063333D01*
X62371333Y-150158571D01*
X62371333Y-150253809D01*
X61895142Y-150349047D01*
X63561809Y-150682380D02*
X63561809Y-149682380D01*
X63990380Y-150682380D02*
X63990380Y-150158571D01*
X63942761Y-150063333D01*
X63847523Y-150015714D01*
X63704666Y-150015714D01*
X63609428Y-150063333D01*
X63561809Y-150110952D01*
X64609428Y-150682380D02*
X64514190Y-150634761D01*
X64466571Y-150587142D01*
X64418952Y-150491904D01*
X64418952Y-150206190D01*
X64466571Y-150110952D01*
X64514190Y-150063333D01*
X64609428Y-150015714D01*
X64752285Y-150015714D01*
X64847523Y-150063333D01*
X64895142Y-150110952D01*
X64942761Y-150206190D01*
X64942761Y-150491904D01*
X64895142Y-150587142D01*
X64847523Y-150634761D01*
X64752285Y-150682380D01*
X64609428Y-150682380D01*
X65371333Y-150682380D02*
X65371333Y-150015714D01*
X65371333Y-150110952D02*
X65418952Y-150063333D01*
X65514190Y-150015714D01*
X65657047Y-150015714D01*
X65752285Y-150063333D01*
X65799904Y-150158571D01*
X65799904Y-150682380D01*
X65799904Y-150158571D02*
X65847523Y-150063333D01*
X65942761Y-150015714D01*
X66085619Y-150015714D01*
X66180857Y-150063333D01*
X66228476Y-150158571D01*
X66228476Y-150682380D01*
X67085619Y-150634761D02*
X66990380Y-150682380D01*
X66799904Y-150682380D01*
X66704666Y-150634761D01*
X66657047Y-150539523D01*
X66657047Y-150158571D01*
X66704666Y-150063333D01*
X66799904Y-150015714D01*
X66990380Y-150015714D01*
X67085619Y-150063333D01*
X67133238Y-150158571D01*
X67133238Y-150253809D01*
X66657047Y-150349047D01*
X67561809Y-150682380D02*
X67561809Y-149682380D01*
X67561809Y-150063333D02*
X67657047Y-150015714D01*
X67847523Y-150015714D01*
X67942761Y-150063333D01*
X67990380Y-150110952D01*
X68038000Y-150206190D01*
X68038000Y-150491904D01*
X67990380Y-150587142D01*
X67942761Y-150634761D01*
X67847523Y-150682380D01*
X67657047Y-150682380D01*
X67561809Y-150634761D01*
X68466571Y-150682380D02*
X68466571Y-150015714D01*
X68466571Y-150206190D02*
X68514190Y-150110952D01*
X68561809Y-150063333D01*
X68657047Y-150015714D01*
X68752285Y-150015714D01*
X69466571Y-150634761D02*
X69371333Y-150682380D01*
X69180857Y-150682380D01*
X69085619Y-150634761D01*
X69038000Y-150539523D01*
X69038000Y-150158571D01*
X69085619Y-150063333D01*
X69180857Y-150015714D01*
X69371333Y-150015714D01*
X69466571Y-150063333D01*
X69514190Y-150158571D01*
X69514190Y-150253809D01*
X69038000Y-150349047D01*
X69847523Y-150015714D02*
X70038000Y-150682380D01*
X70228476Y-150206190D01*
X70418952Y-150682380D01*
X70609428Y-150015714D01*
X72180857Y-150634761D02*
X72085619Y-150682380D01*
X71895142Y-150682380D01*
X71799904Y-150634761D01*
X71752285Y-150587142D01*
X71704666Y-150491904D01*
X71704666Y-150206190D01*
X71752285Y-150110952D01*
X71799904Y-150063333D01*
X71895142Y-150015714D01*
X72085619Y-150015714D01*
X72180857Y-150063333D01*
X72752285Y-150682380D02*
X72657047Y-150634761D01*
X72609428Y-150587142D01*
X72561809Y-150491904D01*
X72561809Y-150206190D01*
X72609428Y-150110952D01*
X72657047Y-150063333D01*
X72752285Y-150015714D01*
X72895142Y-150015714D01*
X72990380Y-150063333D01*
X73038000Y-150110952D01*
X73085619Y-150206190D01*
X73085619Y-150491904D01*
X73038000Y-150587142D01*
X72990380Y-150634761D01*
X72895142Y-150682380D01*
X72752285Y-150682380D01*
X73514190Y-150682380D02*
X73514190Y-150015714D01*
X73514190Y-150110952D02*
X73561809Y-150063333D01*
X73657047Y-150015714D01*
X73799904Y-150015714D01*
X73895142Y-150063333D01*
X73942761Y-150158571D01*
X73942761Y-150682380D01*
X73942761Y-150158571D02*
X73990380Y-150063333D01*
X74085619Y-150015714D01*
X74228476Y-150015714D01*
X74323714Y-150063333D01*
X74371333Y-150158571D01*
X74371333Y-150682380D01*
X74847523Y-150015714D02*
X74847523Y-151015714D01*
X74847523Y-150063333D02*
X74942761Y-150015714D01*
X75133238Y-150015714D01*
X75228476Y-150063333D01*
X75276095Y-150110952D01*
X75323714Y-150206190D01*
X75323714Y-150491904D01*
X75276095Y-150587142D01*
X75228476Y-150634761D01*
X75133238Y-150682380D01*
X74942761Y-150682380D01*
X74847523Y-150634761D01*
X76180857Y-150015714D02*
X76180857Y-150682380D01*
X75752285Y-150015714D02*
X75752285Y-150539523D01*
X75799904Y-150634761D01*
X75895142Y-150682380D01*
X76038000Y-150682380D01*
X76133238Y-150634761D01*
X76180857Y-150587142D01*
X76514190Y-150015714D02*
X76895142Y-150015714D01*
X76657047Y-149682380D02*
X76657047Y-150539523D01*
X76704666Y-150634761D01*
X76799904Y-150682380D01*
X76895142Y-150682380D01*
X77609428Y-150634761D02*
X77514190Y-150682380D01*
X77323714Y-150682380D01*
X77228476Y-150634761D01*
X77180857Y-150539523D01*
X77180857Y-150158571D01*
X77228476Y-150063333D01*
X77323714Y-150015714D01*
X77514190Y-150015714D01*
X77609428Y-150063333D01*
X77657047Y-150158571D01*
X77657047Y-150253809D01*
X77180857Y-150349047D01*
X78085619Y-150682380D02*
X78085619Y-150015714D01*
X78085619Y-150206190D02*
X78133238Y-150110952D01*
X78180857Y-150063333D01*
X78276095Y-150015714D01*
X78371333Y-150015714D01*
X60276095Y-152292380D02*
X60276095Y-151292380D01*
X60514190Y-151292380D01*
X60657047Y-151340000D01*
X60752285Y-151435238D01*
X60799904Y-151530476D01*
X60847523Y-151720952D01*
X60847523Y-151863809D01*
X60799904Y-152054285D01*
X60752285Y-152149523D01*
X60657047Y-152244761D01*
X60514190Y-152292380D01*
X60276095Y-152292380D01*
X61657047Y-152244761D02*
X61561809Y-152292380D01*
X61371333Y-152292380D01*
X61276095Y-152244761D01*
X61228476Y-152149523D01*
X61228476Y-151768571D01*
X61276095Y-151673333D01*
X61371333Y-151625714D01*
X61561809Y-151625714D01*
X61657047Y-151673333D01*
X61704666Y-151768571D01*
X61704666Y-151863809D01*
X61228476Y-151959047D01*
X62085619Y-152244761D02*
X62180857Y-152292380D01*
X62371333Y-152292380D01*
X62466571Y-152244761D01*
X62514190Y-152149523D01*
X62514190Y-152101904D01*
X62466571Y-152006666D01*
X62371333Y-151959047D01*
X62228476Y-151959047D01*
X62133238Y-151911428D01*
X62085619Y-151816190D01*
X62085619Y-151768571D01*
X62133238Y-151673333D01*
X62228476Y-151625714D01*
X62371333Y-151625714D01*
X62466571Y-151673333D01*
X62942761Y-152292380D02*
X62942761Y-151625714D01*
X62942761Y-151292380D02*
X62895142Y-151340000D01*
X62942761Y-151387619D01*
X62990380Y-151340000D01*
X62942761Y-151292380D01*
X62942761Y-151387619D01*
X63847523Y-151625714D02*
X63847523Y-152435238D01*
X63799904Y-152530476D01*
X63752285Y-152578095D01*
X63657047Y-152625714D01*
X63514190Y-152625714D01*
X63418952Y-152578095D01*
X63847523Y-152244761D02*
X63752285Y-152292380D01*
X63561809Y-152292380D01*
X63466571Y-152244761D01*
X63418952Y-152197142D01*
X63371333Y-152101904D01*
X63371333Y-151816190D01*
X63418952Y-151720952D01*
X63466571Y-151673333D01*
X63561809Y-151625714D01*
X63752285Y-151625714D01*
X63847523Y-151673333D01*
X64323714Y-151625714D02*
X64323714Y-152292380D01*
X64323714Y-151720952D02*
X64371333Y-151673333D01*
X64466571Y-151625714D01*
X64609428Y-151625714D01*
X64704666Y-151673333D01*
X64752285Y-151768571D01*
X64752285Y-152292380D01*
X65609428Y-152244761D02*
X65514190Y-152292380D01*
X65323714Y-152292380D01*
X65228476Y-152244761D01*
X65180857Y-152149523D01*
X65180857Y-151768571D01*
X65228476Y-151673333D01*
X65323714Y-151625714D01*
X65514190Y-151625714D01*
X65609428Y-151673333D01*
X65657047Y-151768571D01*
X65657047Y-151863809D01*
X65180857Y-151959047D01*
X66514190Y-152292380D02*
X66514190Y-151292380D01*
X66514190Y-152244761D02*
X66418952Y-152292380D01*
X66228476Y-152292380D01*
X66133238Y-152244761D01*
X66085619Y-152197142D01*
X66038000Y-152101904D01*
X66038000Y-151816190D01*
X66085619Y-151720952D01*
X66133238Y-151673333D01*
X66228476Y-151625714D01*
X66418952Y-151625714D01*
X66514190Y-151673333D01*
X67752285Y-152292380D02*
X67752285Y-151292380D01*
X67752285Y-151673333D02*
X67847523Y-151625714D01*
X68038000Y-151625714D01*
X68133238Y-151673333D01*
X68180857Y-151720952D01*
X68228476Y-151816190D01*
X68228476Y-152101904D01*
X68180857Y-152197142D01*
X68133238Y-152244761D01*
X68038000Y-152292380D01*
X67847523Y-152292380D01*
X67752285Y-152244761D01*
X68561809Y-151625714D02*
X68799904Y-152292380D01*
X69038000Y-151625714D02*
X68799904Y-152292380D01*
X68704666Y-152530476D01*
X68657047Y-152578095D01*
X68561809Y-152625714D01*
X70085619Y-151625714D02*
X70609428Y-151625714D01*
X70085619Y-152292380D01*
X70609428Y-152292380D01*
X70990380Y-152292380D02*
X70990380Y-151625714D01*
X70990380Y-151816190D02*
X71038000Y-151720952D01*
X71085619Y-151673333D01*
X71180857Y-151625714D01*
X71276095Y-151625714D01*
X71466571Y-151625714D02*
X71847523Y-151625714D01*
X71609428Y-151292380D02*
X71609428Y-152149523D01*
X71657047Y-152244761D01*
X71752285Y-152292380D01*
X71847523Y-152292380D01*
X72180857Y-152292380D02*
X72180857Y-151292380D01*
X72609428Y-152292380D02*
X72609428Y-151768571D01*
X72561809Y-151673333D01*
X72466571Y-151625714D01*
X72323714Y-151625714D01*
X72228476Y-151673333D01*
X72180857Y-151720952D01*
X72990380Y-152292380D02*
X73514190Y-151625714D01*
X72990380Y-151625714D02*
X73514190Y-152292380D01*
X73895142Y-151625714D02*
X73895142Y-152292380D01*
X73895142Y-151720952D02*
X73942761Y-151673333D01*
X74038000Y-151625714D01*
X74180857Y-151625714D01*
X74276095Y-151673333D01*
X74323714Y-151768571D01*
X74323714Y-152292380D01*
D12*
%TO.C,R9*%
X196866333Y-81887380D02*
X196533000Y-81411190D01*
X196294904Y-81887380D02*
X196294904Y-80887380D01*
X196675857Y-80887380D01*
X196771095Y-80935000D01*
X196818714Y-80982619D01*
X196866333Y-81077857D01*
X196866333Y-81220714D01*
X196818714Y-81315952D01*
X196771095Y-81363571D01*
X196675857Y-81411190D01*
X196294904Y-81411190D01*
X197342523Y-81887380D02*
X197533000Y-81887380D01*
X197628238Y-81839761D01*
X197675857Y-81792142D01*
X197771095Y-81649285D01*
X197818714Y-81458809D01*
X197818714Y-81077857D01*
X197771095Y-80982619D01*
X197723476Y-80935000D01*
X197628238Y-80887380D01*
X197437761Y-80887380D01*
X197342523Y-80935000D01*
X197294904Y-80982619D01*
X197247285Y-81077857D01*
X197247285Y-81315952D01*
X197294904Y-81411190D01*
X197342523Y-81458809D01*
X197437761Y-81506428D01*
X197628238Y-81506428D01*
X197723476Y-81458809D01*
X197771095Y-81411190D01*
X197818714Y-81315952D01*
%TO.C,C30*%
X197715142Y-92492142D02*
X197667523Y-92539761D01*
X197524666Y-92587380D01*
X197429428Y-92587380D01*
X197286571Y-92539761D01*
X197191333Y-92444523D01*
X197143714Y-92349285D01*
X197096095Y-92158809D01*
X197096095Y-92015952D01*
X197143714Y-91825476D01*
X197191333Y-91730238D01*
X197286571Y-91635000D01*
X197429428Y-91587380D01*
X197524666Y-91587380D01*
X197667523Y-91635000D01*
X197715142Y-91682619D01*
X198048476Y-91587380D02*
X198667523Y-91587380D01*
X198334190Y-91968333D01*
X198477047Y-91968333D01*
X198572285Y-92015952D01*
X198619904Y-92063571D01*
X198667523Y-92158809D01*
X198667523Y-92396904D01*
X198619904Y-92492142D01*
X198572285Y-92539761D01*
X198477047Y-92587380D01*
X198191333Y-92587380D01*
X198096095Y-92539761D01*
X198048476Y-92492142D01*
X199286571Y-91587380D02*
X199381809Y-91587380D01*
X199477047Y-91635000D01*
X199524666Y-91682619D01*
X199572285Y-91777857D01*
X199619904Y-91968333D01*
X199619904Y-92206428D01*
X199572285Y-92396904D01*
X199524666Y-92492142D01*
X199477047Y-92539761D01*
X199381809Y-92587380D01*
X199286571Y-92587380D01*
X199191333Y-92539761D01*
X199143714Y-92492142D01*
X199096095Y-92396904D01*
X199048476Y-92206428D01*
X199048476Y-91968333D01*
X199096095Y-91777857D01*
X199143714Y-91682619D01*
X199191333Y-91635000D01*
X199286571Y-91587380D01*
%TO.C,C29*%
X197715142Y-94192142D02*
X197667523Y-94239761D01*
X197524666Y-94287380D01*
X197429428Y-94287380D01*
X197286571Y-94239761D01*
X197191333Y-94144523D01*
X197143714Y-94049285D01*
X197096095Y-93858809D01*
X197096095Y-93715952D01*
X197143714Y-93525476D01*
X197191333Y-93430238D01*
X197286571Y-93335000D01*
X197429428Y-93287380D01*
X197524666Y-93287380D01*
X197667523Y-93335000D01*
X197715142Y-93382619D01*
X198096095Y-93382619D02*
X198143714Y-93335000D01*
X198238952Y-93287380D01*
X198477047Y-93287380D01*
X198572285Y-93335000D01*
X198619904Y-93382619D01*
X198667523Y-93477857D01*
X198667523Y-93573095D01*
X198619904Y-93715952D01*
X198048476Y-94287380D01*
X198667523Y-94287380D01*
X199143714Y-94287380D02*
X199334190Y-94287380D01*
X199429428Y-94239761D01*
X199477047Y-94192142D01*
X199572285Y-94049285D01*
X199619904Y-93858809D01*
X199619904Y-93477857D01*
X199572285Y-93382619D01*
X199524666Y-93335000D01*
X199429428Y-93287380D01*
X199238952Y-93287380D01*
X199143714Y-93335000D01*
X199096095Y-93382619D01*
X199048476Y-93477857D01*
X199048476Y-93715952D01*
X199096095Y-93811190D01*
X199143714Y-93858809D01*
X199238952Y-93906428D01*
X199429428Y-93906428D01*
X199524666Y-93858809D01*
X199572285Y-93811190D01*
X199619904Y-93715952D01*
%TO.C,C28*%
X197840142Y-96002142D02*
X197792523Y-96049761D01*
X197649666Y-96097380D01*
X197554428Y-96097380D01*
X197411571Y-96049761D01*
X197316333Y-95954523D01*
X197268714Y-95859285D01*
X197221095Y-95668809D01*
X197221095Y-95525952D01*
X197268714Y-95335476D01*
X197316333Y-95240238D01*
X197411571Y-95145000D01*
X197554428Y-95097380D01*
X197649666Y-95097380D01*
X197792523Y-95145000D01*
X197840142Y-95192619D01*
X198221095Y-95192619D02*
X198268714Y-95145000D01*
X198363952Y-95097380D01*
X198602047Y-95097380D01*
X198697285Y-95145000D01*
X198744904Y-95192619D01*
X198792523Y-95287857D01*
X198792523Y-95383095D01*
X198744904Y-95525952D01*
X198173476Y-96097380D01*
X198792523Y-96097380D01*
X199363952Y-95525952D02*
X199268714Y-95478333D01*
X199221095Y-95430714D01*
X199173476Y-95335476D01*
X199173476Y-95287857D01*
X199221095Y-95192619D01*
X199268714Y-95145000D01*
X199363952Y-95097380D01*
X199554428Y-95097380D01*
X199649666Y-95145000D01*
X199697285Y-95192619D01*
X199744904Y-95287857D01*
X199744904Y-95335476D01*
X199697285Y-95430714D01*
X199649666Y-95478333D01*
X199554428Y-95525952D01*
X199363952Y-95525952D01*
X199268714Y-95573571D01*
X199221095Y-95621190D01*
X199173476Y-95716428D01*
X199173476Y-95906904D01*
X199221095Y-96002142D01*
X199268714Y-96049761D01*
X199363952Y-96097380D01*
X199554428Y-96097380D01*
X199649666Y-96049761D01*
X199697285Y-96002142D01*
X199744904Y-95906904D01*
X199744904Y-95716428D01*
X199697285Y-95621190D01*
X199649666Y-95573571D01*
X199554428Y-95525952D01*
%TO.C,C27*%
X197815142Y-97692142D02*
X197767523Y-97739761D01*
X197624666Y-97787380D01*
X197529428Y-97787380D01*
X197386571Y-97739761D01*
X197291333Y-97644523D01*
X197243714Y-97549285D01*
X197196095Y-97358809D01*
X197196095Y-97215952D01*
X197243714Y-97025476D01*
X197291333Y-96930238D01*
X197386571Y-96835000D01*
X197529428Y-96787380D01*
X197624666Y-96787380D01*
X197767523Y-96835000D01*
X197815142Y-96882619D01*
X198196095Y-96882619D02*
X198243714Y-96835000D01*
X198338952Y-96787380D01*
X198577047Y-96787380D01*
X198672285Y-96835000D01*
X198719904Y-96882619D01*
X198767523Y-96977857D01*
X198767523Y-97073095D01*
X198719904Y-97215952D01*
X198148476Y-97787380D01*
X198767523Y-97787380D01*
X199100857Y-96787380D02*
X199767523Y-96787380D01*
X199338952Y-97787380D01*
%TO.C,C26*%
X197840142Y-99492142D02*
X197792523Y-99539761D01*
X197649666Y-99587380D01*
X197554428Y-99587380D01*
X197411571Y-99539761D01*
X197316333Y-99444523D01*
X197268714Y-99349285D01*
X197221095Y-99158809D01*
X197221095Y-99015952D01*
X197268714Y-98825476D01*
X197316333Y-98730238D01*
X197411571Y-98635000D01*
X197554428Y-98587380D01*
X197649666Y-98587380D01*
X197792523Y-98635000D01*
X197840142Y-98682619D01*
X198221095Y-98682619D02*
X198268714Y-98635000D01*
X198363952Y-98587380D01*
X198602047Y-98587380D01*
X198697285Y-98635000D01*
X198744904Y-98682619D01*
X198792523Y-98777857D01*
X198792523Y-98873095D01*
X198744904Y-99015952D01*
X198173476Y-99587380D01*
X198792523Y-99587380D01*
X199649666Y-98587380D02*
X199459190Y-98587380D01*
X199363952Y-98635000D01*
X199316333Y-98682619D01*
X199221095Y-98825476D01*
X199173476Y-99015952D01*
X199173476Y-99396904D01*
X199221095Y-99492142D01*
X199268714Y-99539761D01*
X199363952Y-99587380D01*
X199554428Y-99587380D01*
X199649666Y-99539761D01*
X199697285Y-99492142D01*
X199744904Y-99396904D01*
X199744904Y-99158809D01*
X199697285Y-99063571D01*
X199649666Y-99015952D01*
X199554428Y-98968333D01*
X199363952Y-98968333D01*
X199268714Y-99015952D01*
X199221095Y-99063571D01*
X199173476Y-99158809D01*
%TO.C,C31*%
X197615142Y-90592142D02*
X197567523Y-90639761D01*
X197424666Y-90687380D01*
X197329428Y-90687380D01*
X197186571Y-90639761D01*
X197091333Y-90544523D01*
X197043714Y-90449285D01*
X196996095Y-90258809D01*
X196996095Y-90115952D01*
X197043714Y-89925476D01*
X197091333Y-89830238D01*
X197186571Y-89735000D01*
X197329428Y-89687380D01*
X197424666Y-89687380D01*
X197567523Y-89735000D01*
X197615142Y-89782619D01*
X197948476Y-89687380D02*
X198567523Y-89687380D01*
X198234190Y-90068333D01*
X198377047Y-90068333D01*
X198472285Y-90115952D01*
X198519904Y-90163571D01*
X198567523Y-90258809D01*
X198567523Y-90496904D01*
X198519904Y-90592142D01*
X198472285Y-90639761D01*
X198377047Y-90687380D01*
X198091333Y-90687380D01*
X197996095Y-90639761D01*
X197948476Y-90592142D01*
X199519904Y-90687380D02*
X198948476Y-90687380D01*
X199234190Y-90687380D02*
X199234190Y-89687380D01*
X199138952Y-89830238D01*
X199043714Y-89925476D01*
X198948476Y-89973095D01*
%TO.C,C24*%
X197740142Y-103102142D02*
X197692523Y-103149761D01*
X197549666Y-103197380D01*
X197454428Y-103197380D01*
X197311571Y-103149761D01*
X197216333Y-103054523D01*
X197168714Y-102959285D01*
X197121095Y-102768809D01*
X197121095Y-102625952D01*
X197168714Y-102435476D01*
X197216333Y-102340238D01*
X197311571Y-102245000D01*
X197454428Y-102197380D01*
X197549666Y-102197380D01*
X197692523Y-102245000D01*
X197740142Y-102292619D01*
X198121095Y-102292619D02*
X198168714Y-102245000D01*
X198263952Y-102197380D01*
X198502047Y-102197380D01*
X198597285Y-102245000D01*
X198644904Y-102292619D01*
X198692523Y-102387857D01*
X198692523Y-102483095D01*
X198644904Y-102625952D01*
X198073476Y-103197380D01*
X198692523Y-103197380D01*
X199549666Y-102530714D02*
X199549666Y-103197380D01*
X199311571Y-102149761D02*
X199073476Y-102864047D01*
X199692523Y-102864047D01*
%TO.C,C25*%
X197740142Y-101292142D02*
X197692523Y-101339761D01*
X197549666Y-101387380D01*
X197454428Y-101387380D01*
X197311571Y-101339761D01*
X197216333Y-101244523D01*
X197168714Y-101149285D01*
X197121095Y-100958809D01*
X197121095Y-100815952D01*
X197168714Y-100625476D01*
X197216333Y-100530238D01*
X197311571Y-100435000D01*
X197454428Y-100387380D01*
X197549666Y-100387380D01*
X197692523Y-100435000D01*
X197740142Y-100482619D01*
X198121095Y-100482619D02*
X198168714Y-100435000D01*
X198263952Y-100387380D01*
X198502047Y-100387380D01*
X198597285Y-100435000D01*
X198644904Y-100482619D01*
X198692523Y-100577857D01*
X198692523Y-100673095D01*
X198644904Y-100815952D01*
X198073476Y-101387380D01*
X198692523Y-101387380D01*
X199597285Y-100387380D02*
X199121095Y-100387380D01*
X199073476Y-100863571D01*
X199121095Y-100815952D01*
X199216333Y-100768333D01*
X199454428Y-100768333D01*
X199549666Y-100815952D01*
X199597285Y-100863571D01*
X199644904Y-100958809D01*
X199644904Y-101196904D01*
X199597285Y-101292142D01*
X199549666Y-101339761D01*
X199454428Y-101387380D01*
X199216333Y-101387380D01*
X199121095Y-101339761D01*
X199073476Y-101292142D01*
%TO.C,C5*%
X66341333Y-78342142D02*
X66293714Y-78389761D01*
X66150857Y-78437380D01*
X66055619Y-78437380D01*
X65912761Y-78389761D01*
X65817523Y-78294523D01*
X65769904Y-78199285D01*
X65722285Y-78008809D01*
X65722285Y-77865952D01*
X65769904Y-77675476D01*
X65817523Y-77580238D01*
X65912761Y-77485000D01*
X66055619Y-77437380D01*
X66150857Y-77437380D01*
X66293714Y-77485000D01*
X66341333Y-77532619D01*
X67246095Y-77437380D02*
X66769904Y-77437380D01*
X66722285Y-77913571D01*
X66769904Y-77865952D01*
X66865142Y-77818333D01*
X67103238Y-77818333D01*
X67198476Y-77865952D01*
X67246095Y-77913571D01*
X67293714Y-78008809D01*
X67293714Y-78246904D01*
X67246095Y-78342142D01*
X67198476Y-78389761D01*
X67103238Y-78437380D01*
X66865142Y-78437380D01*
X66769904Y-78389761D01*
X66722285Y-78342142D01*
%TO.C,C6*%
X66341333Y-76642142D02*
X66293714Y-76689761D01*
X66150857Y-76737380D01*
X66055619Y-76737380D01*
X65912761Y-76689761D01*
X65817523Y-76594523D01*
X65769904Y-76499285D01*
X65722285Y-76308809D01*
X65722285Y-76165952D01*
X65769904Y-75975476D01*
X65817523Y-75880238D01*
X65912761Y-75785000D01*
X66055619Y-75737380D01*
X66150857Y-75737380D01*
X66293714Y-75785000D01*
X66341333Y-75832619D01*
X67198476Y-75737380D02*
X67008000Y-75737380D01*
X66912761Y-75785000D01*
X66865142Y-75832619D01*
X66769904Y-75975476D01*
X66722285Y-76165952D01*
X66722285Y-76546904D01*
X66769904Y-76642142D01*
X66817523Y-76689761D01*
X66912761Y-76737380D01*
X67103238Y-76737380D01*
X67198476Y-76689761D01*
X67246095Y-76642142D01*
X67293714Y-76546904D01*
X67293714Y-76308809D01*
X67246095Y-76213571D01*
X67198476Y-76165952D01*
X67103238Y-76118333D01*
X66912761Y-76118333D01*
X66817523Y-76165952D01*
X66769904Y-76213571D01*
X66722285Y-76308809D01*
%TO.C,C7*%
X66341333Y-74942142D02*
X66293714Y-74989761D01*
X66150857Y-75037380D01*
X66055619Y-75037380D01*
X65912761Y-74989761D01*
X65817523Y-74894523D01*
X65769904Y-74799285D01*
X65722285Y-74608809D01*
X65722285Y-74465952D01*
X65769904Y-74275476D01*
X65817523Y-74180238D01*
X65912761Y-74085000D01*
X66055619Y-74037380D01*
X66150857Y-74037380D01*
X66293714Y-74085000D01*
X66341333Y-74132619D01*
X66674666Y-74037380D02*
X67341333Y-74037380D01*
X66912761Y-75037380D01*
%TO.C,C8*%
X66341333Y-73242142D02*
X66293714Y-73289761D01*
X66150857Y-73337380D01*
X66055619Y-73337380D01*
X65912761Y-73289761D01*
X65817523Y-73194523D01*
X65769904Y-73099285D01*
X65722285Y-72908809D01*
X65722285Y-72765952D01*
X65769904Y-72575476D01*
X65817523Y-72480238D01*
X65912761Y-72385000D01*
X66055619Y-72337380D01*
X66150857Y-72337380D01*
X66293714Y-72385000D01*
X66341333Y-72432619D01*
X66912761Y-72765952D02*
X66817523Y-72718333D01*
X66769904Y-72670714D01*
X66722285Y-72575476D01*
X66722285Y-72527857D01*
X66769904Y-72432619D01*
X66817523Y-72385000D01*
X66912761Y-72337380D01*
X67103238Y-72337380D01*
X67198476Y-72385000D01*
X67246095Y-72432619D01*
X67293714Y-72527857D01*
X67293714Y-72575476D01*
X67246095Y-72670714D01*
X67198476Y-72718333D01*
X67103238Y-72765952D01*
X66912761Y-72765952D01*
X66817523Y-72813571D01*
X66769904Y-72861190D01*
X66722285Y-72956428D01*
X66722285Y-73146904D01*
X66769904Y-73242142D01*
X66817523Y-73289761D01*
X66912761Y-73337380D01*
X67103238Y-73337380D01*
X67198476Y-73289761D01*
X67246095Y-73242142D01*
X67293714Y-73146904D01*
X67293714Y-72956428D01*
X67246095Y-72861190D01*
X67198476Y-72813571D01*
X67103238Y-72765952D01*
%TO.C,C19*%
X65865142Y-71442142D02*
X65817523Y-71489761D01*
X65674666Y-71537380D01*
X65579428Y-71537380D01*
X65436571Y-71489761D01*
X65341333Y-71394523D01*
X65293714Y-71299285D01*
X65246095Y-71108809D01*
X65246095Y-70965952D01*
X65293714Y-70775476D01*
X65341333Y-70680238D01*
X65436571Y-70585000D01*
X65579428Y-70537380D01*
X65674666Y-70537380D01*
X65817523Y-70585000D01*
X65865142Y-70632619D01*
X66817523Y-71537380D02*
X66246095Y-71537380D01*
X66531809Y-71537380D02*
X66531809Y-70537380D01*
X66436571Y-70680238D01*
X66341333Y-70775476D01*
X66246095Y-70823095D01*
X67293714Y-71537380D02*
X67484190Y-71537380D01*
X67579428Y-71489761D01*
X67627047Y-71442142D01*
X67722285Y-71299285D01*
X67769904Y-71108809D01*
X67769904Y-70727857D01*
X67722285Y-70632619D01*
X67674666Y-70585000D01*
X67579428Y-70537380D01*
X67388952Y-70537380D01*
X67293714Y-70585000D01*
X67246095Y-70632619D01*
X67198476Y-70727857D01*
X67198476Y-70965952D01*
X67246095Y-71061190D01*
X67293714Y-71108809D01*
X67388952Y-71156428D01*
X67579428Y-71156428D01*
X67674666Y-71108809D01*
X67722285Y-71061190D01*
X67769904Y-70965952D01*
%TO.C,C20*%
X65865142Y-69742142D02*
X65817523Y-69789761D01*
X65674666Y-69837380D01*
X65579428Y-69837380D01*
X65436571Y-69789761D01*
X65341333Y-69694523D01*
X65293714Y-69599285D01*
X65246095Y-69408809D01*
X65246095Y-69265952D01*
X65293714Y-69075476D01*
X65341333Y-68980238D01*
X65436571Y-68885000D01*
X65579428Y-68837380D01*
X65674666Y-68837380D01*
X65817523Y-68885000D01*
X65865142Y-68932619D01*
X66246095Y-68932619D02*
X66293714Y-68885000D01*
X66388952Y-68837380D01*
X66627047Y-68837380D01*
X66722285Y-68885000D01*
X66769904Y-68932619D01*
X66817523Y-69027857D01*
X66817523Y-69123095D01*
X66769904Y-69265952D01*
X66198476Y-69837380D01*
X66817523Y-69837380D01*
X67436571Y-68837380D02*
X67531809Y-68837380D01*
X67627047Y-68885000D01*
X67674666Y-68932619D01*
X67722285Y-69027857D01*
X67769904Y-69218333D01*
X67769904Y-69456428D01*
X67722285Y-69646904D01*
X67674666Y-69742142D01*
X67627047Y-69789761D01*
X67531809Y-69837380D01*
X67436571Y-69837380D01*
X67341333Y-69789761D01*
X67293714Y-69742142D01*
X67246095Y-69646904D01*
X67198476Y-69456428D01*
X67198476Y-69218333D01*
X67246095Y-69027857D01*
X67293714Y-68932619D01*
X67341333Y-68885000D01*
X67436571Y-68837380D01*
%TO.C,J4*%
X189560380Y-94368333D02*
X190274666Y-94368333D01*
X190417523Y-94415952D01*
X190512761Y-94511190D01*
X190560380Y-94654047D01*
X190560380Y-94749285D01*
X189893714Y-93463571D02*
X190560380Y-93463571D01*
X189512761Y-93701666D02*
X190227047Y-93939761D01*
X190227047Y-93320714D01*
%TO.C,U15*%
X187169904Y-96167380D02*
X187169904Y-96976904D01*
X187217523Y-97072142D01*
X187265142Y-97119761D01*
X187360380Y-97167380D01*
X187550857Y-97167380D01*
X187646095Y-97119761D01*
X187693714Y-97072142D01*
X187741333Y-96976904D01*
X187741333Y-96167380D01*
X188741333Y-97167380D02*
X188169904Y-97167380D01*
X188455619Y-97167380D02*
X188455619Y-96167380D01*
X188360380Y-96310238D01*
X188265142Y-96405476D01*
X188169904Y-96453095D01*
X189646095Y-96167380D02*
X189169904Y-96167380D01*
X189122285Y-96643571D01*
X189169904Y-96595952D01*
X189265142Y-96548333D01*
X189503238Y-96548333D01*
X189598476Y-96595952D01*
X189646095Y-96643571D01*
X189693714Y-96738809D01*
X189693714Y-96976904D01*
X189646095Y-97072142D01*
X189598476Y-97119761D01*
X189503238Y-97167380D01*
X189265142Y-97167380D01*
X189169904Y-97119761D01*
X189122285Y-97072142D01*
%TO.C,PWREG1*%
X72246095Y-56537380D02*
X72246095Y-55537380D01*
X72627047Y-55537380D01*
X72722285Y-55585000D01*
X72769904Y-55632619D01*
X72817523Y-55727857D01*
X72817523Y-55870714D01*
X72769904Y-55965952D01*
X72722285Y-56013571D01*
X72627047Y-56061190D01*
X72246095Y-56061190D01*
X73150857Y-55537380D02*
X73388952Y-56537380D01*
X73579428Y-55823095D01*
X73769904Y-56537380D01*
X74008000Y-55537380D01*
X74960380Y-56537380D02*
X74627047Y-56061190D01*
X74388952Y-56537380D02*
X74388952Y-55537380D01*
X74769904Y-55537380D01*
X74865142Y-55585000D01*
X74912761Y-55632619D01*
X74960380Y-55727857D01*
X74960380Y-55870714D01*
X74912761Y-55965952D01*
X74865142Y-56013571D01*
X74769904Y-56061190D01*
X74388952Y-56061190D01*
X75388952Y-56013571D02*
X75722285Y-56013571D01*
X75865142Y-56537380D02*
X75388952Y-56537380D01*
X75388952Y-55537380D01*
X75865142Y-55537380D01*
X76817523Y-55585000D02*
X76722285Y-55537380D01*
X76579428Y-55537380D01*
X76436571Y-55585000D01*
X76341333Y-55680238D01*
X76293714Y-55775476D01*
X76246095Y-55965952D01*
X76246095Y-56108809D01*
X76293714Y-56299285D01*
X76341333Y-56394523D01*
X76436571Y-56489761D01*
X76579428Y-56537380D01*
X76674666Y-56537380D01*
X76817523Y-56489761D01*
X76865142Y-56442142D01*
X76865142Y-56108809D01*
X76674666Y-56108809D01*
X77817523Y-56537380D02*
X77246095Y-56537380D01*
X77531809Y-56537380D02*
X77531809Y-55537380D01*
X77436571Y-55680238D01*
X77341333Y-55775476D01*
X77246095Y-55823095D01*
%TO.C,R8*%
X188541333Y-91987380D02*
X188208000Y-91511190D01*
X187969904Y-91987380D02*
X187969904Y-90987380D01*
X188350857Y-90987380D01*
X188446095Y-91035000D01*
X188493714Y-91082619D01*
X188541333Y-91177857D01*
X188541333Y-91320714D01*
X188493714Y-91415952D01*
X188446095Y-91463571D01*
X188350857Y-91511190D01*
X187969904Y-91511190D01*
X189112761Y-91415952D02*
X189017523Y-91368333D01*
X188969904Y-91320714D01*
X188922285Y-91225476D01*
X188922285Y-91177857D01*
X188969904Y-91082619D01*
X189017523Y-91035000D01*
X189112761Y-90987380D01*
X189303238Y-90987380D01*
X189398476Y-91035000D01*
X189446095Y-91082619D01*
X189493714Y-91177857D01*
X189493714Y-91225476D01*
X189446095Y-91320714D01*
X189398476Y-91368333D01*
X189303238Y-91415952D01*
X189112761Y-91415952D01*
X189017523Y-91463571D01*
X188969904Y-91511190D01*
X188922285Y-91606428D01*
X188922285Y-91796904D01*
X188969904Y-91892142D01*
X189017523Y-91939761D01*
X189112761Y-91987380D01*
X189303238Y-91987380D01*
X189398476Y-91939761D01*
X189446095Y-91892142D01*
X189493714Y-91796904D01*
X189493714Y-91606428D01*
X189446095Y-91511190D01*
X189398476Y-91463571D01*
X189303238Y-91415952D01*
%TO.C,R21*%
X184143142Y-125375380D02*
X183809809Y-124899190D01*
X183571714Y-125375380D02*
X183571714Y-124375380D01*
X183952666Y-124375380D01*
X184047904Y-124423000D01*
X184095523Y-124470619D01*
X184143142Y-124565857D01*
X184143142Y-124708714D01*
X184095523Y-124803952D01*
X184047904Y-124851571D01*
X183952666Y-124899190D01*
X183571714Y-124899190D01*
X184524095Y-124470619D02*
X184571714Y-124423000D01*
X184666952Y-124375380D01*
X184905047Y-124375380D01*
X185000285Y-124423000D01*
X185047904Y-124470619D01*
X185095523Y-124565857D01*
X185095523Y-124661095D01*
X185047904Y-124803952D01*
X184476476Y-125375380D01*
X185095523Y-125375380D01*
X186047904Y-125375380D02*
X185476476Y-125375380D01*
X185762190Y-125375380D02*
X185762190Y-124375380D01*
X185666952Y-124518238D01*
X185571714Y-124613476D01*
X185476476Y-124661095D01*
%TO.C,J3*%
X130474666Y-51357380D02*
X130474666Y-52071666D01*
X130427047Y-52214523D01*
X130331809Y-52309761D01*
X130188952Y-52357380D01*
X130093714Y-52357380D01*
X130855619Y-51357380D02*
X131474666Y-51357380D01*
X131141333Y-51738333D01*
X131284190Y-51738333D01*
X131379428Y-51785952D01*
X131427047Y-51833571D01*
X131474666Y-51928809D01*
X131474666Y-52166904D01*
X131427047Y-52262142D01*
X131379428Y-52309761D01*
X131284190Y-52357380D01*
X130998476Y-52357380D01*
X130903238Y-52309761D01*
X130855619Y-52262142D01*
%TO.C,U6*%
X78539095Y-38850380D02*
X78539095Y-39659904D01*
X78586714Y-39755142D01*
X78634333Y-39802761D01*
X78729571Y-39850380D01*
X78920047Y-39850380D01*
X79015285Y-39802761D01*
X79062904Y-39755142D01*
X79110523Y-39659904D01*
X79110523Y-38850380D01*
X80015285Y-38850380D02*
X79824809Y-38850380D01*
X79729571Y-38898000D01*
X79681952Y-38945619D01*
X79586714Y-39088476D01*
X79539095Y-39278952D01*
X79539095Y-39659904D01*
X79586714Y-39755142D01*
X79634333Y-39802761D01*
X79729571Y-39850380D01*
X79920047Y-39850380D01*
X80015285Y-39802761D01*
X80062904Y-39755142D01*
X80110523Y-39659904D01*
X80110523Y-39421809D01*
X80062904Y-39326571D01*
X80015285Y-39278952D01*
X79920047Y-39231333D01*
X79729571Y-39231333D01*
X79634333Y-39278952D01*
X79586714Y-39326571D01*
X79539095Y-39421809D01*
%TO.C,ERAM2*%
X223791571Y-105015476D02*
X223791571Y-104682142D01*
X224315380Y-104539285D02*
X224315380Y-105015476D01*
X223315380Y-105015476D01*
X223315380Y-104539285D01*
X224315380Y-103539285D02*
X223839190Y-103872619D01*
X224315380Y-104110714D02*
X223315380Y-104110714D01*
X223315380Y-103729761D01*
X223363000Y-103634523D01*
X223410619Y-103586904D01*
X223505857Y-103539285D01*
X223648714Y-103539285D01*
X223743952Y-103586904D01*
X223791571Y-103634523D01*
X223839190Y-103729761D01*
X223839190Y-104110714D01*
X224029666Y-103158333D02*
X224029666Y-102682142D01*
X224315380Y-103253571D02*
X223315380Y-102920238D01*
X224315380Y-102586904D01*
X224315380Y-102253571D02*
X223315380Y-102253571D01*
X224029666Y-101920238D01*
X223315380Y-101586904D01*
X224315380Y-101586904D01*
X223410619Y-101158333D02*
X223363000Y-101110714D01*
X223315380Y-101015476D01*
X223315380Y-100777380D01*
X223363000Y-100682142D01*
X223410619Y-100634523D01*
X223505857Y-100586904D01*
X223601095Y-100586904D01*
X223743952Y-100634523D01*
X224315380Y-101205952D01*
X224315380Y-100586904D01*
%TO.C,U2*%
X136946095Y-72737380D02*
X136946095Y-73546904D01*
X136993714Y-73642142D01*
X137041333Y-73689761D01*
X137136571Y-73737380D01*
X137327047Y-73737380D01*
X137422285Y-73689761D01*
X137469904Y-73642142D01*
X137517523Y-73546904D01*
X137517523Y-72737380D01*
X137946095Y-72832619D02*
X137993714Y-72785000D01*
X138088952Y-72737380D01*
X138327047Y-72737380D01*
X138422285Y-72785000D01*
X138469904Y-72832619D01*
X138517523Y-72927857D01*
X138517523Y-73023095D01*
X138469904Y-73165952D01*
X137898476Y-73737380D01*
X138517523Y-73737380D01*
%TO.C,D1*%
X146869904Y-71117380D02*
X146869904Y-70117380D01*
X147108000Y-70117380D01*
X147250857Y-70165000D01*
X147346095Y-70260238D01*
X147393714Y-70355476D01*
X147441333Y-70545952D01*
X147441333Y-70688809D01*
X147393714Y-70879285D01*
X147346095Y-70974523D01*
X147250857Y-71069761D01*
X147108000Y-71117380D01*
X146869904Y-71117380D01*
X148393714Y-71117380D02*
X147822285Y-71117380D01*
X148108000Y-71117380D02*
X148108000Y-70117380D01*
X148012761Y-70260238D01*
X147917523Y-70355476D01*
X147822285Y-70403095D01*
X143536095Y-71687380D02*
X143536095Y-70687380D01*
X144107523Y-71687380D02*
X143678952Y-71115952D01*
X144107523Y-70687380D02*
X143536095Y-71258809D01*
%TO.C,R20*%
X184143142Y-123851380D02*
X183809809Y-123375190D01*
X183571714Y-123851380D02*
X183571714Y-122851380D01*
X183952666Y-122851380D01*
X184047904Y-122899000D01*
X184095523Y-122946619D01*
X184143142Y-123041857D01*
X184143142Y-123184714D01*
X184095523Y-123279952D01*
X184047904Y-123327571D01*
X183952666Y-123375190D01*
X183571714Y-123375190D01*
X184524095Y-122946619D02*
X184571714Y-122899000D01*
X184666952Y-122851380D01*
X184905047Y-122851380D01*
X185000285Y-122899000D01*
X185047904Y-122946619D01*
X185095523Y-123041857D01*
X185095523Y-123137095D01*
X185047904Y-123279952D01*
X184476476Y-123851380D01*
X185095523Y-123851380D01*
X185714571Y-122851380D02*
X185809809Y-122851380D01*
X185905047Y-122899000D01*
X185952666Y-122946619D01*
X186000285Y-123041857D01*
X186047904Y-123232333D01*
X186047904Y-123470428D01*
X186000285Y-123660904D01*
X185952666Y-123756142D01*
X185905047Y-123803761D01*
X185809809Y-123851380D01*
X185714571Y-123851380D01*
X185619333Y-123803761D01*
X185571714Y-123756142D01*
X185524095Y-123660904D01*
X185476476Y-123470428D01*
X185476476Y-123232333D01*
X185524095Y-123041857D01*
X185571714Y-122946619D01*
X185619333Y-122899000D01*
X185714571Y-122851380D01*
%TO.C,J1*%
X58374666Y-44987380D02*
X58374666Y-45701666D01*
X58327047Y-45844523D01*
X58231809Y-45939761D01*
X58088952Y-45987380D01*
X57993714Y-45987380D01*
X59374666Y-45987380D02*
X58803238Y-45987380D01*
X59088952Y-45987380D02*
X59088952Y-44987380D01*
X58993714Y-45130238D01*
X58898476Y-45225476D01*
X58803238Y-45273095D01*
%TO.C,R17*%
X192365142Y-115215380D02*
X192031809Y-114739190D01*
X191793714Y-115215380D02*
X191793714Y-114215380D01*
X192174666Y-114215380D01*
X192269904Y-114263000D01*
X192317523Y-114310619D01*
X192365142Y-114405857D01*
X192365142Y-114548714D01*
X192317523Y-114643952D01*
X192269904Y-114691571D01*
X192174666Y-114739190D01*
X191793714Y-114739190D01*
X193317523Y-115215380D02*
X192746095Y-115215380D01*
X193031809Y-115215380D02*
X193031809Y-114215380D01*
X192936571Y-114358238D01*
X192841333Y-114453476D01*
X192746095Y-114501095D01*
X193650857Y-114215380D02*
X194317523Y-114215380D01*
X193888952Y-115215380D01*
%TO.C,U7*%
X181146095Y-47907380D02*
X181146095Y-48716904D01*
X181193714Y-48812142D01*
X181241333Y-48859761D01*
X181336571Y-48907380D01*
X181527047Y-48907380D01*
X181622285Y-48859761D01*
X181669904Y-48812142D01*
X181717523Y-48716904D01*
X181717523Y-47907380D01*
X182098476Y-47907380D02*
X182765142Y-47907380D01*
X182336571Y-48907380D01*
%TO.C,R35*%
X133724142Y-100737380D02*
X133390809Y-100261190D01*
X133152714Y-100737380D02*
X133152714Y-99737380D01*
X133533666Y-99737380D01*
X133628904Y-99785000D01*
X133676523Y-99832619D01*
X133724142Y-99927857D01*
X133724142Y-100070714D01*
X133676523Y-100165952D01*
X133628904Y-100213571D01*
X133533666Y-100261190D01*
X133152714Y-100261190D01*
X134057476Y-99737380D02*
X134676523Y-99737380D01*
X134343190Y-100118333D01*
X134486047Y-100118333D01*
X134581285Y-100165952D01*
X134628904Y-100213571D01*
X134676523Y-100308809D01*
X134676523Y-100546904D01*
X134628904Y-100642142D01*
X134581285Y-100689761D01*
X134486047Y-100737380D01*
X134200333Y-100737380D01*
X134105095Y-100689761D01*
X134057476Y-100642142D01*
X135581285Y-99737380D02*
X135105095Y-99737380D01*
X135057476Y-100213571D01*
X135105095Y-100165952D01*
X135200333Y-100118333D01*
X135438428Y-100118333D01*
X135533666Y-100165952D01*
X135581285Y-100213571D01*
X135628904Y-100308809D01*
X135628904Y-100546904D01*
X135581285Y-100642142D01*
X135533666Y-100689761D01*
X135438428Y-100737380D01*
X135200333Y-100737380D01*
X135105095Y-100689761D01*
X135057476Y-100642142D01*
%TO.C,C14*%
X71972491Y-120538142D02*
X71924872Y-120585761D01*
X71782015Y-120633380D01*
X71686777Y-120633380D01*
X71543920Y-120585761D01*
X71448682Y-120490523D01*
X71401063Y-120395285D01*
X71353444Y-120204809D01*
X71353444Y-120061952D01*
X71401063Y-119871476D01*
X71448682Y-119776238D01*
X71543920Y-119681000D01*
X71686777Y-119633380D01*
X71782015Y-119633380D01*
X71924872Y-119681000D01*
X71972491Y-119728619D01*
X72924872Y-120633380D02*
X72353444Y-120633380D01*
X72639158Y-120633380D02*
X72639158Y-119633380D01*
X72543920Y-119776238D01*
X72448682Y-119871476D01*
X72353444Y-119919095D01*
X73782015Y-119966714D02*
X73782015Y-120633380D01*
X73543920Y-119585761D02*
X73305825Y-120300047D01*
X73924872Y-120300047D01*
%TO.C,RP2*%
X135467380Y-120016666D02*
X134991190Y-120350000D01*
X135467380Y-120588095D02*
X134467380Y-120588095D01*
X134467380Y-120207142D01*
X134515000Y-120111904D01*
X134562619Y-120064285D01*
X134657857Y-120016666D01*
X134800714Y-120016666D01*
X134895952Y-120064285D01*
X134943571Y-120111904D01*
X134991190Y-120207142D01*
X134991190Y-120588095D01*
X135467380Y-119588095D02*
X134467380Y-119588095D01*
X134467380Y-119207142D01*
X134515000Y-119111904D01*
X134562619Y-119064285D01*
X134657857Y-119016666D01*
X134800714Y-119016666D01*
X134895952Y-119064285D01*
X134943571Y-119111904D01*
X134991190Y-119207142D01*
X134991190Y-119588095D01*
X134562619Y-118635714D02*
X134515000Y-118588095D01*
X134467380Y-118492857D01*
X134467380Y-118254761D01*
X134515000Y-118159523D01*
X134562619Y-118111904D01*
X134657857Y-118064285D01*
X134753095Y-118064285D01*
X134895952Y-118111904D01*
X135467380Y-118683333D01*
X135467380Y-118064285D01*
%TO.C,U11*%
X231660380Y-138773095D02*
X232469904Y-138773095D01*
X232565142Y-138725476D01*
X232612761Y-138677857D01*
X232660380Y-138582619D01*
X232660380Y-138392142D01*
X232612761Y-138296904D01*
X232565142Y-138249285D01*
X232469904Y-138201666D01*
X231660380Y-138201666D01*
X232660380Y-137201666D02*
X232660380Y-137773095D01*
X232660380Y-137487380D02*
X231660380Y-137487380D01*
X231803238Y-137582619D01*
X231898476Y-137677857D01*
X231946095Y-137773095D01*
X232660380Y-136249285D02*
X232660380Y-136820714D01*
X232660380Y-136535000D02*
X231660380Y-136535000D01*
X231803238Y-136630238D01*
X231898476Y-136725476D01*
X231946095Y-136820714D01*
%TO.C,R4*%
X198141333Y-85287380D02*
X197808000Y-84811190D01*
X197569904Y-85287380D02*
X197569904Y-84287380D01*
X197950857Y-84287380D01*
X198046095Y-84335000D01*
X198093714Y-84382619D01*
X198141333Y-84477857D01*
X198141333Y-84620714D01*
X198093714Y-84715952D01*
X198046095Y-84763571D01*
X197950857Y-84811190D01*
X197569904Y-84811190D01*
X198998476Y-84620714D02*
X198998476Y-85287380D01*
X198760380Y-84239761D02*
X198522285Y-84954047D01*
X199141333Y-84954047D01*
%TO.C,C23*%
X161165142Y-49242142D02*
X161117523Y-49289761D01*
X160974666Y-49337380D01*
X160879428Y-49337380D01*
X160736571Y-49289761D01*
X160641333Y-49194523D01*
X160593714Y-49099285D01*
X160546095Y-48908809D01*
X160546095Y-48765952D01*
X160593714Y-48575476D01*
X160641333Y-48480238D01*
X160736571Y-48385000D01*
X160879428Y-48337380D01*
X160974666Y-48337380D01*
X161117523Y-48385000D01*
X161165142Y-48432619D01*
X161546095Y-48432619D02*
X161593714Y-48385000D01*
X161688952Y-48337380D01*
X161927047Y-48337380D01*
X162022285Y-48385000D01*
X162069904Y-48432619D01*
X162117523Y-48527857D01*
X162117523Y-48623095D01*
X162069904Y-48765952D01*
X161498476Y-49337380D01*
X162117523Y-49337380D01*
X162450857Y-48337380D02*
X163069904Y-48337380D01*
X162736571Y-48718333D01*
X162879428Y-48718333D01*
X162974666Y-48765952D01*
X163022285Y-48813571D01*
X163069904Y-48908809D01*
X163069904Y-49146904D01*
X163022285Y-49242142D01*
X162974666Y-49289761D01*
X162879428Y-49337380D01*
X162593714Y-49337380D01*
X162498476Y-49289761D01*
X162450857Y-49242142D01*
%TO.C,R18*%
X192365142Y-116987380D02*
X192031809Y-116511190D01*
X191793714Y-116987380D02*
X191793714Y-115987380D01*
X192174666Y-115987380D01*
X192269904Y-116035000D01*
X192317523Y-116082619D01*
X192365142Y-116177857D01*
X192365142Y-116320714D01*
X192317523Y-116415952D01*
X192269904Y-116463571D01*
X192174666Y-116511190D01*
X191793714Y-116511190D01*
X193317523Y-116987380D02*
X192746095Y-116987380D01*
X193031809Y-116987380D02*
X193031809Y-115987380D01*
X192936571Y-116130238D01*
X192841333Y-116225476D01*
X192746095Y-116273095D01*
X193888952Y-116415952D02*
X193793714Y-116368333D01*
X193746095Y-116320714D01*
X193698476Y-116225476D01*
X193698476Y-116177857D01*
X193746095Y-116082619D01*
X193793714Y-116035000D01*
X193888952Y-115987380D01*
X194079428Y-115987380D01*
X194174666Y-116035000D01*
X194222285Y-116082619D01*
X194269904Y-116177857D01*
X194269904Y-116225476D01*
X194222285Y-116320714D01*
X194174666Y-116368333D01*
X194079428Y-116415952D01*
X193888952Y-116415952D01*
X193793714Y-116463571D01*
X193746095Y-116511190D01*
X193698476Y-116606428D01*
X193698476Y-116796904D01*
X193746095Y-116892142D01*
X193793714Y-116939761D01*
X193888952Y-116987380D01*
X194079428Y-116987380D01*
X194174666Y-116939761D01*
X194222285Y-116892142D01*
X194269904Y-116796904D01*
X194269904Y-116606428D01*
X194222285Y-116511190D01*
X194174666Y-116463571D01*
X194079428Y-116415952D01*
%TO.C,R12*%
X192365142Y-107595380D02*
X192031809Y-107119190D01*
X191793714Y-107595380D02*
X191793714Y-106595380D01*
X192174666Y-106595380D01*
X192269904Y-106643000D01*
X192317523Y-106690619D01*
X192365142Y-106785857D01*
X192365142Y-106928714D01*
X192317523Y-107023952D01*
X192269904Y-107071571D01*
X192174666Y-107119190D01*
X191793714Y-107119190D01*
X193317523Y-107595380D02*
X192746095Y-107595380D01*
X193031809Y-107595380D02*
X193031809Y-106595380D01*
X192936571Y-106738238D01*
X192841333Y-106833476D01*
X192746095Y-106881095D01*
X193698476Y-106690619D02*
X193746095Y-106643000D01*
X193841333Y-106595380D01*
X194079428Y-106595380D01*
X194174666Y-106643000D01*
X194222285Y-106690619D01*
X194269904Y-106785857D01*
X194269904Y-106881095D01*
X194222285Y-107023952D01*
X193650857Y-107595380D01*
X194269904Y-107595380D01*
%TO.C,R22*%
X184143142Y-126899380D02*
X183809809Y-126423190D01*
X183571714Y-126899380D02*
X183571714Y-125899380D01*
X183952666Y-125899380D01*
X184047904Y-125947000D01*
X184095523Y-125994619D01*
X184143142Y-126089857D01*
X184143142Y-126232714D01*
X184095523Y-126327952D01*
X184047904Y-126375571D01*
X183952666Y-126423190D01*
X183571714Y-126423190D01*
X184524095Y-125994619D02*
X184571714Y-125947000D01*
X184666952Y-125899380D01*
X184905047Y-125899380D01*
X185000285Y-125947000D01*
X185047904Y-125994619D01*
X185095523Y-126089857D01*
X185095523Y-126185095D01*
X185047904Y-126327952D01*
X184476476Y-126899380D01*
X185095523Y-126899380D01*
X185476476Y-125994619D02*
X185524095Y-125947000D01*
X185619333Y-125899380D01*
X185857428Y-125899380D01*
X185952666Y-125947000D01*
X186000285Y-125994619D01*
X186047904Y-126089857D01*
X186047904Y-126185095D01*
X186000285Y-126327952D01*
X185428857Y-126899380D01*
X186047904Y-126899380D01*
%TO.C,R6*%
X145741333Y-53857380D02*
X145408000Y-53381190D01*
X145169904Y-53857380D02*
X145169904Y-52857380D01*
X145550857Y-52857380D01*
X145646095Y-52905000D01*
X145693714Y-52952619D01*
X145741333Y-53047857D01*
X145741333Y-53190714D01*
X145693714Y-53285952D01*
X145646095Y-53333571D01*
X145550857Y-53381190D01*
X145169904Y-53381190D01*
X146598476Y-52857380D02*
X146408000Y-52857380D01*
X146312761Y-52905000D01*
X146265142Y-52952619D01*
X146169904Y-53095476D01*
X146122285Y-53285952D01*
X146122285Y-53666904D01*
X146169904Y-53762142D01*
X146217523Y-53809761D01*
X146312761Y-53857380D01*
X146503238Y-53857380D01*
X146598476Y-53809761D01*
X146646095Y-53762142D01*
X146693714Y-53666904D01*
X146693714Y-53428809D01*
X146646095Y-53333571D01*
X146598476Y-53285952D01*
X146503238Y-53238333D01*
X146312761Y-53238333D01*
X146217523Y-53285952D01*
X146169904Y-53333571D01*
X146122285Y-53428809D01*
%TO.C,C4*%
X132891833Y-98102142D02*
X132844214Y-98149761D01*
X132701357Y-98197380D01*
X132606119Y-98197380D01*
X132463261Y-98149761D01*
X132368023Y-98054523D01*
X132320404Y-97959285D01*
X132272785Y-97768809D01*
X132272785Y-97625952D01*
X132320404Y-97435476D01*
X132368023Y-97340238D01*
X132463261Y-97245000D01*
X132606119Y-97197380D01*
X132701357Y-97197380D01*
X132844214Y-97245000D01*
X132891833Y-97292619D01*
X133748976Y-97530714D02*
X133748976Y-98197380D01*
X133510880Y-97149761D02*
X133272785Y-97864047D01*
X133891833Y-97864047D01*
%TO.C,C13*%
X72734491Y-107711142D02*
X72686872Y-107758761D01*
X72544015Y-107806380D01*
X72448777Y-107806380D01*
X72305920Y-107758761D01*
X72210682Y-107663523D01*
X72163063Y-107568285D01*
X72115444Y-107377809D01*
X72115444Y-107234952D01*
X72163063Y-107044476D01*
X72210682Y-106949238D01*
X72305920Y-106854000D01*
X72448777Y-106806380D01*
X72544015Y-106806380D01*
X72686872Y-106854000D01*
X72734491Y-106901619D01*
X73686872Y-107806380D02*
X73115444Y-107806380D01*
X73401158Y-107806380D02*
X73401158Y-106806380D01*
X73305920Y-106949238D01*
X73210682Y-107044476D01*
X73115444Y-107092095D01*
X74020206Y-106806380D02*
X74639253Y-106806380D01*
X74305920Y-107187333D01*
X74448777Y-107187333D01*
X74544015Y-107234952D01*
X74591634Y-107282571D01*
X74639253Y-107377809D01*
X74639253Y-107615904D01*
X74591634Y-107711142D01*
X74544015Y-107758761D01*
X74448777Y-107806380D01*
X74163063Y-107806380D01*
X74067825Y-107758761D01*
X74020206Y-107711142D01*
%TO.C,C3*%
X89315142Y-79399015D02*
X89362761Y-79446634D01*
X89410380Y-79589491D01*
X89410380Y-79684729D01*
X89362761Y-79827587D01*
X89267523Y-79922825D01*
X89172285Y-79970444D01*
X88981809Y-80018063D01*
X88838952Y-80018063D01*
X88648476Y-79970444D01*
X88553238Y-79922825D01*
X88458000Y-79827587D01*
X88410380Y-79684729D01*
X88410380Y-79589491D01*
X88458000Y-79446634D01*
X88505619Y-79399015D01*
X88410380Y-79065682D02*
X88410380Y-78446634D01*
X88791333Y-78779968D01*
X88791333Y-78637110D01*
X88838952Y-78541872D01*
X88886571Y-78494253D01*
X88981809Y-78446634D01*
X89219904Y-78446634D01*
X89315142Y-78494253D01*
X89362761Y-78541872D01*
X89410380Y-78637110D01*
X89410380Y-78922825D01*
X89362761Y-79018063D01*
X89315142Y-79065682D01*
%TO.C,AD_DEC1*%
X182090666Y-139654619D02*
X182090666Y-139178428D01*
X182376380Y-139749857D02*
X181376380Y-139416523D01*
X182376380Y-139083190D01*
X182376380Y-138749857D02*
X181376380Y-138749857D01*
X181376380Y-138511761D01*
X181424000Y-138368904D01*
X181519238Y-138273666D01*
X181614476Y-138226047D01*
X181804952Y-138178428D01*
X181947809Y-138178428D01*
X182138285Y-138226047D01*
X182233523Y-138273666D01*
X182328761Y-138368904D01*
X182376380Y-138511761D01*
X182376380Y-138749857D01*
X182471619Y-137987952D02*
X182471619Y-137226047D01*
X182376380Y-136987952D02*
X181376380Y-136987952D01*
X181376380Y-136749857D01*
X181424000Y-136607000D01*
X181519238Y-136511761D01*
X181614476Y-136464142D01*
X181804952Y-136416523D01*
X181947809Y-136416523D01*
X182138285Y-136464142D01*
X182233523Y-136511761D01*
X182328761Y-136607000D01*
X182376380Y-136749857D01*
X182376380Y-136987952D01*
X181852571Y-135987952D02*
X181852571Y-135654619D01*
X182376380Y-135511761D02*
X182376380Y-135987952D01*
X181376380Y-135987952D01*
X181376380Y-135511761D01*
X182281142Y-134511761D02*
X182328761Y-134559380D01*
X182376380Y-134702238D01*
X182376380Y-134797476D01*
X182328761Y-134940333D01*
X182233523Y-135035571D01*
X182138285Y-135083190D01*
X181947809Y-135130809D01*
X181804952Y-135130809D01*
X181614476Y-135083190D01*
X181519238Y-135035571D01*
X181424000Y-134940333D01*
X181376380Y-134797476D01*
X181376380Y-134702238D01*
X181424000Y-134559380D01*
X181471619Y-134511761D01*
X182376380Y-133559380D02*
X182376380Y-134130809D01*
X182376380Y-133845095D02*
X181376380Y-133845095D01*
X181519238Y-133940333D01*
X181614476Y-134035571D01*
X181662095Y-134130809D01*
%TO.C,C3*%
X78633142Y-100422015D02*
X78680761Y-100469634D01*
X78728380Y-100612491D01*
X78728380Y-100707729D01*
X78680761Y-100850587D01*
X78585523Y-100945825D01*
X78490285Y-100993444D01*
X78299809Y-101041063D01*
X78156952Y-101041063D01*
X77966476Y-100993444D01*
X77871238Y-100945825D01*
X77776000Y-100850587D01*
X77728380Y-100707729D01*
X77728380Y-100612491D01*
X77776000Y-100469634D01*
X77823619Y-100422015D01*
X77728380Y-100088682D02*
X77728380Y-99469634D01*
X78109333Y-99802968D01*
X78109333Y-99660110D01*
X78156952Y-99564872D01*
X78204571Y-99517253D01*
X78299809Y-99469634D01*
X78537904Y-99469634D01*
X78633142Y-99517253D01*
X78680761Y-99564872D01*
X78728380Y-99660110D01*
X78728380Y-99945825D01*
X78680761Y-100041063D01*
X78633142Y-100088682D01*
%TO.C,BDT1*%
X174356285Y-107030571D02*
X174499142Y-107078190D01*
X174546761Y-107125809D01*
X174594380Y-107221047D01*
X174594380Y-107363904D01*
X174546761Y-107459142D01*
X174499142Y-107506761D01*
X174403904Y-107554380D01*
X174022952Y-107554380D01*
X174022952Y-106554380D01*
X174356285Y-106554380D01*
X174451523Y-106602000D01*
X174499142Y-106649619D01*
X174546761Y-106744857D01*
X174546761Y-106840095D01*
X174499142Y-106935333D01*
X174451523Y-106982952D01*
X174356285Y-107030571D01*
X174022952Y-107030571D01*
X175022952Y-107554380D02*
X175022952Y-106554380D01*
X175261047Y-106554380D01*
X175403904Y-106602000D01*
X175499142Y-106697238D01*
X175546761Y-106792476D01*
X175594380Y-106982952D01*
X175594380Y-107125809D01*
X175546761Y-107316285D01*
X175499142Y-107411523D01*
X175403904Y-107506761D01*
X175261047Y-107554380D01*
X175022952Y-107554380D01*
X175880095Y-106554380D02*
X176451523Y-106554380D01*
X176165809Y-107554380D02*
X176165809Y-106554380D01*
X177308666Y-107554380D02*
X176737238Y-107554380D01*
X177022952Y-107554380D02*
X177022952Y-106554380D01*
X176927714Y-106697238D01*
X176832476Y-106792476D01*
X176737238Y-106840095D01*
%TO.C,LATCH1*%
X180294380Y-117271000D02*
X180294380Y-117747190D01*
X179294380Y-117747190D01*
X180008666Y-116985285D02*
X180008666Y-116509095D01*
X180294380Y-117080523D02*
X179294380Y-116747190D01*
X180294380Y-116413857D01*
X179294380Y-116223380D02*
X179294380Y-115651952D01*
X180294380Y-115937666D02*
X179294380Y-115937666D01*
X180199142Y-114747190D02*
X180246761Y-114794809D01*
X180294380Y-114937666D01*
X180294380Y-115032904D01*
X180246761Y-115175761D01*
X180151523Y-115271000D01*
X180056285Y-115318619D01*
X179865809Y-115366238D01*
X179722952Y-115366238D01*
X179532476Y-115318619D01*
X179437238Y-115271000D01*
X179342000Y-115175761D01*
X179294380Y-115032904D01*
X179294380Y-114937666D01*
X179342000Y-114794809D01*
X179389619Y-114747190D01*
X180294380Y-114318619D02*
X179294380Y-114318619D01*
X179770571Y-114318619D02*
X179770571Y-113747190D01*
X180294380Y-113747190D02*
X179294380Y-113747190D01*
X180294380Y-112747190D02*
X180294380Y-113318619D01*
X180294380Y-113032904D02*
X179294380Y-113032904D01*
X179437238Y-113128142D01*
X179532476Y-113223380D01*
X179580095Y-113318619D01*
%TO.C,C17*%
X84444142Y-55374142D02*
X84396523Y-55421761D01*
X84253666Y-55469380D01*
X84158428Y-55469380D01*
X84015571Y-55421761D01*
X83920333Y-55326523D01*
X83872714Y-55231285D01*
X83825095Y-55040809D01*
X83825095Y-54897952D01*
X83872714Y-54707476D01*
X83920333Y-54612238D01*
X84015571Y-54517000D01*
X84158428Y-54469380D01*
X84253666Y-54469380D01*
X84396523Y-54517000D01*
X84444142Y-54564619D01*
X85396523Y-55469380D02*
X84825095Y-55469380D01*
X85110809Y-55469380D02*
X85110809Y-54469380D01*
X85015571Y-54612238D01*
X84920333Y-54707476D01*
X84825095Y-54755095D01*
X85729857Y-54469380D02*
X86396523Y-54469380D01*
X85967952Y-55469380D01*
%TO.C,CPU1*%
X154131523Y-77782142D02*
X154083904Y-77829761D01*
X153941047Y-77877380D01*
X153845809Y-77877380D01*
X153702952Y-77829761D01*
X153607714Y-77734523D01*
X153560095Y-77639285D01*
X153512476Y-77448809D01*
X153512476Y-77305952D01*
X153560095Y-77115476D01*
X153607714Y-77020238D01*
X153702952Y-76925000D01*
X153845809Y-76877380D01*
X153941047Y-76877380D01*
X154083904Y-76925000D01*
X154131523Y-76972619D01*
X154560095Y-77877380D02*
X154560095Y-76877380D01*
X154941047Y-76877380D01*
X155036285Y-76925000D01*
X155083904Y-76972619D01*
X155131523Y-77067857D01*
X155131523Y-77210714D01*
X155083904Y-77305952D01*
X155036285Y-77353571D01*
X154941047Y-77401190D01*
X154560095Y-77401190D01*
X155560095Y-76877380D02*
X155560095Y-77686904D01*
X155607714Y-77782142D01*
X155655333Y-77829761D01*
X155750571Y-77877380D01*
X155941047Y-77877380D01*
X156036285Y-77829761D01*
X156083904Y-77782142D01*
X156131523Y-77686904D01*
X156131523Y-76877380D01*
X157131523Y-77877380D02*
X156560095Y-77877380D01*
X156845809Y-77877380D02*
X156845809Y-76877380D01*
X156750571Y-77020238D01*
X156655333Y-77115476D01*
X156560095Y-77163095D01*
%TO.C,PWREG2*%
X72746095Y-49537380D02*
X72746095Y-48537380D01*
X73127047Y-48537380D01*
X73222285Y-48585000D01*
X73269904Y-48632619D01*
X73317523Y-48727857D01*
X73317523Y-48870714D01*
X73269904Y-48965952D01*
X73222285Y-49013571D01*
X73127047Y-49061190D01*
X72746095Y-49061190D01*
X73650857Y-48537380D02*
X73888952Y-49537380D01*
X74079428Y-48823095D01*
X74269904Y-49537380D01*
X74508000Y-48537380D01*
X75460380Y-49537380D02*
X75127047Y-49061190D01*
X74888952Y-49537380D02*
X74888952Y-48537380D01*
X75269904Y-48537380D01*
X75365142Y-48585000D01*
X75412761Y-48632619D01*
X75460380Y-48727857D01*
X75460380Y-48870714D01*
X75412761Y-48965952D01*
X75365142Y-49013571D01*
X75269904Y-49061190D01*
X74888952Y-49061190D01*
X75888952Y-49013571D02*
X76222285Y-49013571D01*
X76365142Y-49537380D02*
X75888952Y-49537380D01*
X75888952Y-48537380D01*
X76365142Y-48537380D01*
X77317523Y-48585000D02*
X77222285Y-48537380D01*
X77079428Y-48537380D01*
X76936571Y-48585000D01*
X76841333Y-48680238D01*
X76793714Y-48775476D01*
X76746095Y-48965952D01*
X76746095Y-49108809D01*
X76793714Y-49299285D01*
X76841333Y-49394523D01*
X76936571Y-49489761D01*
X77079428Y-49537380D01*
X77174666Y-49537380D01*
X77317523Y-49489761D01*
X77365142Y-49442142D01*
X77365142Y-49108809D01*
X77174666Y-49108809D01*
X77746095Y-48632619D02*
X77793714Y-48585000D01*
X77888952Y-48537380D01*
X78127047Y-48537380D01*
X78222285Y-48585000D01*
X78269904Y-48632619D01*
X78317523Y-48727857D01*
X78317523Y-48823095D01*
X78269904Y-48965952D01*
X77698476Y-49537380D01*
X78317523Y-49537380D01*
%TO.C,R19*%
X192365142Y-118511380D02*
X192031809Y-118035190D01*
X191793714Y-118511380D02*
X191793714Y-117511380D01*
X192174666Y-117511380D01*
X192269904Y-117559000D01*
X192317523Y-117606619D01*
X192365142Y-117701857D01*
X192365142Y-117844714D01*
X192317523Y-117939952D01*
X192269904Y-117987571D01*
X192174666Y-118035190D01*
X191793714Y-118035190D01*
X193317523Y-118511380D02*
X192746095Y-118511380D01*
X193031809Y-118511380D02*
X193031809Y-117511380D01*
X192936571Y-117654238D01*
X192841333Y-117749476D01*
X192746095Y-117797095D01*
X193793714Y-118511380D02*
X193984190Y-118511380D01*
X194079428Y-118463761D01*
X194127047Y-118416142D01*
X194222285Y-118273285D01*
X194269904Y-118082809D01*
X194269904Y-117701857D01*
X194222285Y-117606619D01*
X194174666Y-117559000D01*
X194079428Y-117511380D01*
X193888952Y-117511380D01*
X193793714Y-117559000D01*
X193746095Y-117606619D01*
X193698476Y-117701857D01*
X193698476Y-117939952D01*
X193746095Y-118035190D01*
X193793714Y-118082809D01*
X193888952Y-118130428D01*
X194079428Y-118130428D01*
X194174666Y-118082809D01*
X194222285Y-118035190D01*
X194269904Y-117939952D01*
%TO.C,R5*%
X197991333Y-87887380D02*
X197658000Y-87411190D01*
X197419904Y-87887380D02*
X197419904Y-86887380D01*
X197800857Y-86887380D01*
X197896095Y-86935000D01*
X197943714Y-86982619D01*
X197991333Y-87077857D01*
X197991333Y-87220714D01*
X197943714Y-87315952D01*
X197896095Y-87363571D01*
X197800857Y-87411190D01*
X197419904Y-87411190D01*
X198896095Y-86887380D02*
X198419904Y-86887380D01*
X198372285Y-87363571D01*
X198419904Y-87315952D01*
X198515142Y-87268333D01*
X198753238Y-87268333D01*
X198848476Y-87315952D01*
X198896095Y-87363571D01*
X198943714Y-87458809D01*
X198943714Y-87696904D01*
X198896095Y-87792142D01*
X198848476Y-87839761D01*
X198753238Y-87887380D01*
X198515142Y-87887380D01*
X198419904Y-87839761D01*
X198372285Y-87792142D01*
%TO.C,U13*%
X190169904Y-57087380D02*
X190169904Y-57896904D01*
X190217523Y-57992142D01*
X190265142Y-58039761D01*
X190360380Y-58087380D01*
X190550857Y-58087380D01*
X190646095Y-58039761D01*
X190693714Y-57992142D01*
X190741333Y-57896904D01*
X190741333Y-57087380D01*
X191741333Y-58087380D02*
X191169904Y-58087380D01*
X191455619Y-58087380D02*
X191455619Y-57087380D01*
X191360380Y-57230238D01*
X191265142Y-57325476D01*
X191169904Y-57373095D01*
X192074666Y-57087380D02*
X192693714Y-57087380D01*
X192360380Y-57468333D01*
X192503238Y-57468333D01*
X192598476Y-57515952D01*
X192646095Y-57563571D01*
X192693714Y-57658809D01*
X192693714Y-57896904D01*
X192646095Y-57992142D01*
X192598476Y-58039761D01*
X192503238Y-58087380D01*
X192217523Y-58087380D01*
X192122285Y-58039761D01*
X192074666Y-57992142D01*
%TO.C,R2*%
X87291333Y-59167380D02*
X86958000Y-58691190D01*
X86719904Y-59167380D02*
X86719904Y-58167380D01*
X87100857Y-58167380D01*
X87196095Y-58215000D01*
X87243714Y-58262619D01*
X87291333Y-58357857D01*
X87291333Y-58500714D01*
X87243714Y-58595952D01*
X87196095Y-58643571D01*
X87100857Y-58691190D01*
X86719904Y-58691190D01*
X87672285Y-58262619D02*
X87719904Y-58215000D01*
X87815142Y-58167380D01*
X88053238Y-58167380D01*
X88148476Y-58215000D01*
X88196095Y-58262619D01*
X88243714Y-58357857D01*
X88243714Y-58453095D01*
X88196095Y-58595952D01*
X87624666Y-59167380D01*
X88243714Y-59167380D01*
%TO.C,U12*%
X108069904Y-45987380D02*
X108069904Y-46796904D01*
X108117523Y-46892142D01*
X108165142Y-46939761D01*
X108260380Y-46987380D01*
X108450857Y-46987380D01*
X108546095Y-46939761D01*
X108593714Y-46892142D01*
X108641333Y-46796904D01*
X108641333Y-45987380D01*
X109641333Y-46987380D02*
X109069904Y-46987380D01*
X109355619Y-46987380D02*
X109355619Y-45987380D01*
X109260380Y-46130238D01*
X109165142Y-46225476D01*
X109069904Y-46273095D01*
X110022285Y-46082619D02*
X110069904Y-46035000D01*
X110165142Y-45987380D01*
X110403238Y-45987380D01*
X110498476Y-46035000D01*
X110546095Y-46082619D01*
X110593714Y-46177857D01*
X110593714Y-46273095D01*
X110546095Y-46415952D01*
X109974666Y-46987380D01*
X110593714Y-46987380D01*
%TO.C,C12*%
X206365142Y-63592142D02*
X206317523Y-63639761D01*
X206174666Y-63687380D01*
X206079428Y-63687380D01*
X205936571Y-63639761D01*
X205841333Y-63544523D01*
X205793714Y-63449285D01*
X205746095Y-63258809D01*
X205746095Y-63115952D01*
X205793714Y-62925476D01*
X205841333Y-62830238D01*
X205936571Y-62735000D01*
X206079428Y-62687380D01*
X206174666Y-62687380D01*
X206317523Y-62735000D01*
X206365142Y-62782619D01*
X207317523Y-63687380D02*
X206746095Y-63687380D01*
X207031809Y-63687380D02*
X207031809Y-62687380D01*
X206936571Y-62830238D01*
X206841333Y-62925476D01*
X206746095Y-62973095D01*
X207698476Y-62782619D02*
X207746095Y-62735000D01*
X207841333Y-62687380D01*
X208079428Y-62687380D01*
X208174666Y-62735000D01*
X208222285Y-62782619D01*
X208269904Y-62877857D01*
X208269904Y-62973095D01*
X208222285Y-63115952D01*
X207650857Y-63687380D01*
X208269904Y-63687380D01*
%TO.C,C18*%
X198265142Y-69242142D02*
X198217523Y-69289761D01*
X198074666Y-69337380D01*
X197979428Y-69337380D01*
X197836571Y-69289761D01*
X197741333Y-69194523D01*
X197693714Y-69099285D01*
X197646095Y-68908809D01*
X197646095Y-68765952D01*
X197693714Y-68575476D01*
X197741333Y-68480238D01*
X197836571Y-68385000D01*
X197979428Y-68337380D01*
X198074666Y-68337380D01*
X198217523Y-68385000D01*
X198265142Y-68432619D01*
X199217523Y-69337380D02*
X198646095Y-69337380D01*
X198931809Y-69337380D02*
X198931809Y-68337380D01*
X198836571Y-68480238D01*
X198741333Y-68575476D01*
X198646095Y-68623095D01*
X199788952Y-68765952D02*
X199693714Y-68718333D01*
X199646095Y-68670714D01*
X199598476Y-68575476D01*
X199598476Y-68527857D01*
X199646095Y-68432619D01*
X199693714Y-68385000D01*
X199788952Y-68337380D01*
X199979428Y-68337380D01*
X200074666Y-68385000D01*
X200122285Y-68432619D01*
X200169904Y-68527857D01*
X200169904Y-68575476D01*
X200122285Y-68670714D01*
X200074666Y-68718333D01*
X199979428Y-68765952D01*
X199788952Y-68765952D01*
X199693714Y-68813571D01*
X199646095Y-68861190D01*
X199598476Y-68956428D01*
X199598476Y-69146904D01*
X199646095Y-69242142D01*
X199693714Y-69289761D01*
X199788952Y-69337380D01*
X199979428Y-69337380D01*
X200074666Y-69289761D01*
X200122285Y-69242142D01*
X200169904Y-69146904D01*
X200169904Y-68956428D01*
X200122285Y-68861190D01*
X200074666Y-68813571D01*
X199979428Y-68765952D01*
%TO.C,CRYSTAL0*%
X118122285Y-66542142D02*
X118074666Y-66589761D01*
X117931809Y-66637380D01*
X117836571Y-66637380D01*
X117693714Y-66589761D01*
X117598476Y-66494523D01*
X117550857Y-66399285D01*
X117503238Y-66208809D01*
X117503238Y-66065952D01*
X117550857Y-65875476D01*
X117598476Y-65780238D01*
X117693714Y-65685000D01*
X117836571Y-65637380D01*
X117931809Y-65637380D01*
X118074666Y-65685000D01*
X118122285Y-65732619D01*
X119122285Y-66637380D02*
X118788952Y-66161190D01*
X118550857Y-66637380D02*
X118550857Y-65637380D01*
X118931809Y-65637380D01*
X119027047Y-65685000D01*
X119074666Y-65732619D01*
X119122285Y-65827857D01*
X119122285Y-65970714D01*
X119074666Y-66065952D01*
X119027047Y-66113571D01*
X118931809Y-66161190D01*
X118550857Y-66161190D01*
X119741333Y-66161190D02*
X119741333Y-66637380D01*
X119408000Y-65637380D02*
X119741333Y-66161190D01*
X120074666Y-65637380D01*
X120360380Y-66589761D02*
X120503238Y-66637380D01*
X120741333Y-66637380D01*
X120836571Y-66589761D01*
X120884190Y-66542142D01*
X120931809Y-66446904D01*
X120931809Y-66351666D01*
X120884190Y-66256428D01*
X120836571Y-66208809D01*
X120741333Y-66161190D01*
X120550857Y-66113571D01*
X120455619Y-66065952D01*
X120408000Y-66018333D01*
X120360380Y-65923095D01*
X120360380Y-65827857D01*
X120408000Y-65732619D01*
X120455619Y-65685000D01*
X120550857Y-65637380D01*
X120788952Y-65637380D01*
X120931809Y-65685000D01*
X121217523Y-65637380D02*
X121788952Y-65637380D01*
X121503238Y-66637380D02*
X121503238Y-65637380D01*
X122074666Y-66351666D02*
X122550857Y-66351666D01*
X121979428Y-66637380D02*
X122312761Y-65637380D01*
X122646095Y-66637380D01*
X123455619Y-66637380D02*
X122979428Y-66637380D01*
X122979428Y-65637380D01*
X123979428Y-65637380D02*
X124074666Y-65637380D01*
X124169904Y-65685000D01*
X124217523Y-65732619D01*
X124265142Y-65827857D01*
X124312761Y-66018333D01*
X124312761Y-66256428D01*
X124265142Y-66446904D01*
X124217523Y-66542142D01*
X124169904Y-66589761D01*
X124074666Y-66637380D01*
X123979428Y-66637380D01*
X123884190Y-66589761D01*
X123836571Y-66542142D01*
X123788952Y-66446904D01*
X123741333Y-66256428D01*
X123741333Y-66018333D01*
X123788952Y-65827857D01*
X123836571Y-65732619D01*
X123884190Y-65685000D01*
X123979428Y-65637380D01*
%TO.C,R1*%
X154560380Y-70801666D02*
X154084190Y-71135000D01*
X154560380Y-71373095D02*
X153560380Y-71373095D01*
X153560380Y-70992142D01*
X153608000Y-70896904D01*
X153655619Y-70849285D01*
X153750857Y-70801666D01*
X153893714Y-70801666D01*
X153988952Y-70849285D01*
X154036571Y-70896904D01*
X154084190Y-70992142D01*
X154084190Y-71373095D01*
X154560380Y-69849285D02*
X154560380Y-70420714D01*
X154560380Y-70135000D02*
X153560380Y-70135000D01*
X153703238Y-70230238D01*
X153798476Y-70325476D01*
X153846095Y-70420714D01*
%TO.C,C10*%
X175065142Y-101349642D02*
X175017523Y-101397261D01*
X174874666Y-101444880D01*
X174779428Y-101444880D01*
X174636571Y-101397261D01*
X174541333Y-101302023D01*
X174493714Y-101206785D01*
X174446095Y-101016309D01*
X174446095Y-100873452D01*
X174493714Y-100682976D01*
X174541333Y-100587738D01*
X174636571Y-100492500D01*
X174779428Y-100444880D01*
X174874666Y-100444880D01*
X175017523Y-100492500D01*
X175065142Y-100540119D01*
X176017523Y-101444880D02*
X175446095Y-101444880D01*
X175731809Y-101444880D02*
X175731809Y-100444880D01*
X175636571Y-100587738D01*
X175541333Y-100682976D01*
X175446095Y-100730595D01*
X176636571Y-100444880D02*
X176731809Y-100444880D01*
X176827047Y-100492500D01*
X176874666Y-100540119D01*
X176922285Y-100635357D01*
X176969904Y-100825833D01*
X176969904Y-101063928D01*
X176922285Y-101254404D01*
X176874666Y-101349642D01*
X176827047Y-101397261D01*
X176731809Y-101444880D01*
X176636571Y-101444880D01*
X176541333Y-101397261D01*
X176493714Y-101349642D01*
X176446095Y-101254404D01*
X176398476Y-101063928D01*
X176398476Y-100825833D01*
X176446095Y-100635357D01*
X176493714Y-100540119D01*
X176541333Y-100492500D01*
X176636571Y-100444880D01*
%TO.C,R34*%
X133533142Y-103277380D02*
X133199809Y-102801190D01*
X132961714Y-103277380D02*
X132961714Y-102277380D01*
X133342666Y-102277380D01*
X133437904Y-102325000D01*
X133485523Y-102372619D01*
X133533142Y-102467857D01*
X133533142Y-102610714D01*
X133485523Y-102705952D01*
X133437904Y-102753571D01*
X133342666Y-102801190D01*
X132961714Y-102801190D01*
X133866476Y-102277380D02*
X134485523Y-102277380D01*
X134152190Y-102658333D01*
X134295047Y-102658333D01*
X134390285Y-102705952D01*
X134437904Y-102753571D01*
X134485523Y-102848809D01*
X134485523Y-103086904D01*
X134437904Y-103182142D01*
X134390285Y-103229761D01*
X134295047Y-103277380D01*
X134009333Y-103277380D01*
X133914095Y-103229761D01*
X133866476Y-103182142D01*
X135342666Y-102610714D02*
X135342666Y-103277380D01*
X135104571Y-102229761D02*
X134866476Y-102944047D01*
X135485523Y-102944047D01*
%TO.C,ERAM3*%
X223791571Y-89140476D02*
X223791571Y-88807142D01*
X224315380Y-88664285D02*
X224315380Y-89140476D01*
X223315380Y-89140476D01*
X223315380Y-88664285D01*
X224315380Y-87664285D02*
X223839190Y-87997619D01*
X224315380Y-88235714D02*
X223315380Y-88235714D01*
X223315380Y-87854761D01*
X223363000Y-87759523D01*
X223410619Y-87711904D01*
X223505857Y-87664285D01*
X223648714Y-87664285D01*
X223743952Y-87711904D01*
X223791571Y-87759523D01*
X223839190Y-87854761D01*
X223839190Y-88235714D01*
X224029666Y-87283333D02*
X224029666Y-86807142D01*
X224315380Y-87378571D02*
X223315380Y-87045238D01*
X224315380Y-86711904D01*
X224315380Y-86378571D02*
X223315380Y-86378571D01*
X224029666Y-86045238D01*
X223315380Y-85711904D01*
X224315380Y-85711904D01*
X223315380Y-85330952D02*
X223315380Y-84711904D01*
X223696333Y-85045238D01*
X223696333Y-84902380D01*
X223743952Y-84807142D01*
X223791571Y-84759523D01*
X223886809Y-84711904D01*
X224124904Y-84711904D01*
X224220142Y-84759523D01*
X224267761Y-84807142D01*
X224315380Y-84902380D01*
X224315380Y-85188095D01*
X224267761Y-85283333D01*
X224220142Y-85330952D01*
%TO.C,R23*%
X184143142Y-128423380D02*
X183809809Y-127947190D01*
X183571714Y-128423380D02*
X183571714Y-127423380D01*
X183952666Y-127423380D01*
X184047904Y-127471000D01*
X184095523Y-127518619D01*
X184143142Y-127613857D01*
X184143142Y-127756714D01*
X184095523Y-127851952D01*
X184047904Y-127899571D01*
X183952666Y-127947190D01*
X183571714Y-127947190D01*
X184524095Y-127518619D02*
X184571714Y-127471000D01*
X184666952Y-127423380D01*
X184905047Y-127423380D01*
X185000285Y-127471000D01*
X185047904Y-127518619D01*
X185095523Y-127613857D01*
X185095523Y-127709095D01*
X185047904Y-127851952D01*
X184476476Y-128423380D01*
X185095523Y-128423380D01*
X185428857Y-127423380D02*
X186047904Y-127423380D01*
X185714571Y-127804333D01*
X185857428Y-127804333D01*
X185952666Y-127851952D01*
X186000285Y-127899571D01*
X186047904Y-127994809D01*
X186047904Y-128232904D01*
X186000285Y-128328142D01*
X185952666Y-128375761D01*
X185857428Y-128423380D01*
X185571714Y-128423380D01*
X185476476Y-128375761D01*
X185428857Y-128328142D01*
%TO.C,C1*%
X91990220Y-55283142D02*
X91942601Y-55330761D01*
X91799744Y-55378380D01*
X91704506Y-55378380D01*
X91561648Y-55330761D01*
X91466410Y-55235523D01*
X91418791Y-55140285D01*
X91371172Y-54949809D01*
X91371172Y-54806952D01*
X91418791Y-54616476D01*
X91466410Y-54521238D01*
X91561648Y-54426000D01*
X91704506Y-54378380D01*
X91799744Y-54378380D01*
X91942601Y-54426000D01*
X91990220Y-54473619D01*
X92942601Y-55378380D02*
X92371172Y-55378380D01*
X92656887Y-55378380D02*
X92656887Y-54378380D01*
X92561648Y-54521238D01*
X92466410Y-54616476D01*
X92371172Y-54664095D01*
%TO.C,ERAM0*%
X223573571Y-137090476D02*
X223573571Y-136757142D01*
X224097380Y-136614285D02*
X224097380Y-137090476D01*
X223097380Y-137090476D01*
X223097380Y-136614285D01*
X224097380Y-135614285D02*
X223621190Y-135947619D01*
X224097380Y-136185714D02*
X223097380Y-136185714D01*
X223097380Y-135804761D01*
X223145000Y-135709523D01*
X223192619Y-135661904D01*
X223287857Y-135614285D01*
X223430714Y-135614285D01*
X223525952Y-135661904D01*
X223573571Y-135709523D01*
X223621190Y-135804761D01*
X223621190Y-136185714D01*
X223811666Y-135233333D02*
X223811666Y-134757142D01*
X224097380Y-135328571D02*
X223097380Y-134995238D01*
X224097380Y-134661904D01*
X224097380Y-134328571D02*
X223097380Y-134328571D01*
X223811666Y-133995238D01*
X223097380Y-133661904D01*
X224097380Y-133661904D01*
X223097380Y-132995238D02*
X223097380Y-132900000D01*
X223145000Y-132804761D01*
X223192619Y-132757142D01*
X223287857Y-132709523D01*
X223478333Y-132661904D01*
X223716428Y-132661904D01*
X223906904Y-132709523D01*
X224002142Y-132757142D01*
X224049761Y-132804761D01*
X224097380Y-132900000D01*
X224097380Y-132995238D01*
X224049761Y-133090476D01*
X224002142Y-133138095D01*
X223906904Y-133185714D01*
X223716428Y-133233333D01*
X223478333Y-133233333D01*
X223287857Y-133185714D01*
X223192619Y-133138095D01*
X223145000Y-133090476D01*
X223097380Y-132995238D01*
%TO.C,R14*%
X192365142Y-110643380D02*
X192031809Y-110167190D01*
X191793714Y-110643380D02*
X191793714Y-109643380D01*
X192174666Y-109643380D01*
X192269904Y-109691000D01*
X192317523Y-109738619D01*
X192365142Y-109833857D01*
X192365142Y-109976714D01*
X192317523Y-110071952D01*
X192269904Y-110119571D01*
X192174666Y-110167190D01*
X191793714Y-110167190D01*
X193317523Y-110643380D02*
X192746095Y-110643380D01*
X193031809Y-110643380D02*
X193031809Y-109643380D01*
X192936571Y-109786238D01*
X192841333Y-109881476D01*
X192746095Y-109929095D01*
X194174666Y-109976714D02*
X194174666Y-110643380D01*
X193936571Y-109595761D02*
X193698476Y-110310047D01*
X194317523Y-110310047D01*
%TO.C,R7*%
X186841333Y-59787380D02*
X186508000Y-59311190D01*
X186269904Y-59787380D02*
X186269904Y-58787380D01*
X186650857Y-58787380D01*
X186746095Y-58835000D01*
X186793714Y-58882619D01*
X186841333Y-58977857D01*
X186841333Y-59120714D01*
X186793714Y-59215952D01*
X186746095Y-59263571D01*
X186650857Y-59311190D01*
X186269904Y-59311190D01*
X187174666Y-58787380D02*
X187841333Y-58787380D01*
X187412761Y-59787380D01*
%TO.C,C16*%
X97077142Y-131153857D02*
X97124761Y-131201476D01*
X97172380Y-131344333D01*
X97172380Y-131439571D01*
X97124761Y-131582428D01*
X97029523Y-131677666D01*
X96934285Y-131725285D01*
X96743809Y-131772904D01*
X96600952Y-131772904D01*
X96410476Y-131725285D01*
X96315238Y-131677666D01*
X96220000Y-131582428D01*
X96172380Y-131439571D01*
X96172380Y-131344333D01*
X96220000Y-131201476D01*
X96267619Y-131153857D01*
X97172380Y-130201476D02*
X97172380Y-130772904D01*
X97172380Y-130487190D02*
X96172380Y-130487190D01*
X96315238Y-130582428D01*
X96410476Y-130677666D01*
X96458095Y-130772904D01*
X96172380Y-129344333D02*
X96172380Y-129534809D01*
X96220000Y-129630047D01*
X96267619Y-129677666D01*
X96410476Y-129772904D01*
X96600952Y-129820523D01*
X96981904Y-129820523D01*
X97077142Y-129772904D01*
X97124761Y-129725285D01*
X97172380Y-129630047D01*
X97172380Y-129439571D01*
X97124761Y-129344333D01*
X97077142Y-129296714D01*
X96981904Y-129249095D01*
X96743809Y-129249095D01*
X96648571Y-129296714D01*
X96600952Y-129344333D01*
X96553333Y-129439571D01*
X96553333Y-129630047D01*
X96600952Y-129725285D01*
X96648571Y-129772904D01*
X96743809Y-129820523D01*
%TO.C,C22*%
X155165142Y-50462142D02*
X155117523Y-50509761D01*
X154974666Y-50557380D01*
X154879428Y-50557380D01*
X154736571Y-50509761D01*
X154641333Y-50414523D01*
X154593714Y-50319285D01*
X154546095Y-50128809D01*
X154546095Y-49985952D01*
X154593714Y-49795476D01*
X154641333Y-49700238D01*
X154736571Y-49605000D01*
X154879428Y-49557380D01*
X154974666Y-49557380D01*
X155117523Y-49605000D01*
X155165142Y-49652619D01*
X155546095Y-49652619D02*
X155593714Y-49605000D01*
X155688952Y-49557380D01*
X155927047Y-49557380D01*
X156022285Y-49605000D01*
X156069904Y-49652619D01*
X156117523Y-49747857D01*
X156117523Y-49843095D01*
X156069904Y-49985952D01*
X155498476Y-50557380D01*
X156117523Y-50557380D01*
X156498476Y-49652619D02*
X156546095Y-49605000D01*
X156641333Y-49557380D01*
X156879428Y-49557380D01*
X156974666Y-49605000D01*
X157022285Y-49652619D01*
X157069904Y-49747857D01*
X157069904Y-49843095D01*
X157022285Y-49985952D01*
X156450857Y-50557380D01*
X157069904Y-50557380D01*
%TO.C,C15*%
X116381142Y-131153857D02*
X116428761Y-131201476D01*
X116476380Y-131344333D01*
X116476380Y-131439571D01*
X116428761Y-131582428D01*
X116333523Y-131677666D01*
X116238285Y-131725285D01*
X116047809Y-131772904D01*
X115904952Y-131772904D01*
X115714476Y-131725285D01*
X115619238Y-131677666D01*
X115524000Y-131582428D01*
X115476380Y-131439571D01*
X115476380Y-131344333D01*
X115524000Y-131201476D01*
X115571619Y-131153857D01*
X116476380Y-130201476D02*
X116476380Y-130772904D01*
X116476380Y-130487190D02*
X115476380Y-130487190D01*
X115619238Y-130582428D01*
X115714476Y-130677666D01*
X115762095Y-130772904D01*
X115476380Y-129296714D02*
X115476380Y-129772904D01*
X115952571Y-129820523D01*
X115904952Y-129772904D01*
X115857333Y-129677666D01*
X115857333Y-129439571D01*
X115904952Y-129344333D01*
X115952571Y-129296714D01*
X116047809Y-129249095D01*
X116285904Y-129249095D01*
X116381142Y-129296714D01*
X116428761Y-129344333D01*
X116476380Y-129439571D01*
X116476380Y-129677666D01*
X116428761Y-129772904D01*
X116381142Y-129820523D01*
%TO.C,U8*%
X126346095Y-135837380D02*
X126346095Y-136646904D01*
X126393714Y-136742142D01*
X126441333Y-136789761D01*
X126536571Y-136837380D01*
X126727047Y-136837380D01*
X126822285Y-136789761D01*
X126869904Y-136742142D01*
X126917523Y-136646904D01*
X126917523Y-135837380D01*
X127536571Y-136265952D02*
X127441333Y-136218333D01*
X127393714Y-136170714D01*
X127346095Y-136075476D01*
X127346095Y-136027857D01*
X127393714Y-135932619D01*
X127441333Y-135885000D01*
X127536571Y-135837380D01*
X127727047Y-135837380D01*
X127822285Y-135885000D01*
X127869904Y-135932619D01*
X127917523Y-136027857D01*
X127917523Y-136075476D01*
X127869904Y-136170714D01*
X127822285Y-136218333D01*
X127727047Y-136265952D01*
X127536571Y-136265952D01*
X127441333Y-136313571D01*
X127393714Y-136361190D01*
X127346095Y-136456428D01*
X127346095Y-136646904D01*
X127393714Y-136742142D01*
X127441333Y-136789761D01*
X127536571Y-136837380D01*
X127727047Y-136837380D01*
X127822285Y-136789761D01*
X127869904Y-136742142D01*
X127917523Y-136646904D01*
X127917523Y-136456428D01*
X127869904Y-136361190D01*
X127822285Y-136313571D01*
X127727047Y-136265952D01*
%TO.C,R13*%
X192365142Y-109119380D02*
X192031809Y-108643190D01*
X191793714Y-109119380D02*
X191793714Y-108119380D01*
X192174666Y-108119380D01*
X192269904Y-108167000D01*
X192317523Y-108214619D01*
X192365142Y-108309857D01*
X192365142Y-108452714D01*
X192317523Y-108547952D01*
X192269904Y-108595571D01*
X192174666Y-108643190D01*
X191793714Y-108643190D01*
X193317523Y-109119380D02*
X192746095Y-109119380D01*
X193031809Y-109119380D02*
X193031809Y-108119380D01*
X192936571Y-108262238D01*
X192841333Y-108357476D01*
X192746095Y-108405095D01*
X193650857Y-108119380D02*
X194269904Y-108119380D01*
X193936571Y-108500333D01*
X194079428Y-108500333D01*
X194174666Y-108547952D01*
X194222285Y-108595571D01*
X194269904Y-108690809D01*
X194269904Y-108928904D01*
X194222285Y-109024142D01*
X194174666Y-109071761D01*
X194079428Y-109119380D01*
X193793714Y-109119380D01*
X193698476Y-109071761D01*
X193650857Y-109024142D01*
%TO.C,R15*%
X192365142Y-112167380D02*
X192031809Y-111691190D01*
X191793714Y-112167380D02*
X191793714Y-111167380D01*
X192174666Y-111167380D01*
X192269904Y-111215000D01*
X192317523Y-111262619D01*
X192365142Y-111357857D01*
X192365142Y-111500714D01*
X192317523Y-111595952D01*
X192269904Y-111643571D01*
X192174666Y-111691190D01*
X191793714Y-111691190D01*
X193317523Y-112167380D02*
X192746095Y-112167380D01*
X193031809Y-112167380D02*
X193031809Y-111167380D01*
X192936571Y-111310238D01*
X192841333Y-111405476D01*
X192746095Y-111453095D01*
X194222285Y-111167380D02*
X193746095Y-111167380D01*
X193698476Y-111643571D01*
X193746095Y-111595952D01*
X193841333Y-111548333D01*
X194079428Y-111548333D01*
X194174666Y-111595952D01*
X194222285Y-111643571D01*
X194269904Y-111738809D01*
X194269904Y-111976904D01*
X194222285Y-112072142D01*
X194174666Y-112119761D01*
X194079428Y-112167380D01*
X193841333Y-112167380D01*
X193746095Y-112119761D01*
X193698476Y-112072142D01*
%TO.C,SRAM1*%
X100233095Y-128409761D02*
X100375952Y-128457380D01*
X100614047Y-128457380D01*
X100709285Y-128409761D01*
X100756904Y-128362142D01*
X100804523Y-128266904D01*
X100804523Y-128171666D01*
X100756904Y-128076428D01*
X100709285Y-128028809D01*
X100614047Y-127981190D01*
X100423571Y-127933571D01*
X100328333Y-127885952D01*
X100280714Y-127838333D01*
X100233095Y-127743095D01*
X100233095Y-127647857D01*
X100280714Y-127552619D01*
X100328333Y-127505000D01*
X100423571Y-127457380D01*
X100661666Y-127457380D01*
X100804523Y-127505000D01*
X101804523Y-128457380D02*
X101471190Y-127981190D01*
X101233095Y-128457380D02*
X101233095Y-127457380D01*
X101614047Y-127457380D01*
X101709285Y-127505000D01*
X101756904Y-127552619D01*
X101804523Y-127647857D01*
X101804523Y-127790714D01*
X101756904Y-127885952D01*
X101709285Y-127933571D01*
X101614047Y-127981190D01*
X101233095Y-127981190D01*
X102185476Y-128171666D02*
X102661666Y-128171666D01*
X102090238Y-128457380D02*
X102423571Y-127457380D01*
X102756904Y-128457380D01*
X103090238Y-128457380D02*
X103090238Y-127457380D01*
X103423571Y-128171666D01*
X103756904Y-127457380D01*
X103756904Y-128457380D01*
X104756904Y-128457380D02*
X104185476Y-128457380D01*
X104471190Y-128457380D02*
X104471190Y-127457380D01*
X104375952Y-127600238D01*
X104280714Y-127695476D01*
X104185476Y-127743095D01*
%TO.C,C9*%
X181863833Y-121470142D02*
X181816214Y-121517761D01*
X181673357Y-121565380D01*
X181578119Y-121565380D01*
X181435261Y-121517761D01*
X181340023Y-121422523D01*
X181292404Y-121327285D01*
X181244785Y-121136809D01*
X181244785Y-120993952D01*
X181292404Y-120803476D01*
X181340023Y-120708238D01*
X181435261Y-120613000D01*
X181578119Y-120565380D01*
X181673357Y-120565380D01*
X181816214Y-120613000D01*
X181863833Y-120660619D01*
X182340023Y-121565380D02*
X182530500Y-121565380D01*
X182625738Y-121517761D01*
X182673357Y-121470142D01*
X182768595Y-121327285D01*
X182816214Y-121136809D01*
X182816214Y-120755857D01*
X182768595Y-120660619D01*
X182720976Y-120613000D01*
X182625738Y-120565380D01*
X182435261Y-120565380D01*
X182340023Y-120613000D01*
X182292404Y-120660619D01*
X182244785Y-120755857D01*
X182244785Y-120993952D01*
X182292404Y-121089190D01*
X182340023Y-121136809D01*
X182435261Y-121184428D01*
X182625738Y-121184428D01*
X182720976Y-121136809D01*
X182768595Y-121089190D01*
X182816214Y-120993952D01*
%TO.C,ROM1*%
X120532095Y-128423380D02*
X120198761Y-127947190D01*
X119960666Y-128423380D02*
X119960666Y-127423380D01*
X120341619Y-127423380D01*
X120436857Y-127471000D01*
X120484476Y-127518619D01*
X120532095Y-127613857D01*
X120532095Y-127756714D01*
X120484476Y-127851952D01*
X120436857Y-127899571D01*
X120341619Y-127947190D01*
X119960666Y-127947190D01*
X121151142Y-127423380D02*
X121341619Y-127423380D01*
X121436857Y-127471000D01*
X121532095Y-127566238D01*
X121579714Y-127756714D01*
X121579714Y-128090047D01*
X121532095Y-128280523D01*
X121436857Y-128375761D01*
X121341619Y-128423380D01*
X121151142Y-128423380D01*
X121055904Y-128375761D01*
X120960666Y-128280523D01*
X120913047Y-128090047D01*
X120913047Y-127756714D01*
X120960666Y-127566238D01*
X121055904Y-127471000D01*
X121151142Y-127423380D01*
X122008285Y-128423380D02*
X122008285Y-127423380D01*
X122341619Y-128137666D01*
X122674952Y-127423380D01*
X122674952Y-128423380D01*
X123674952Y-128423380D02*
X123103523Y-128423380D01*
X123389238Y-128423380D02*
X123389238Y-127423380D01*
X123294000Y-127566238D01*
X123198761Y-127661476D01*
X123103523Y-127709095D01*
%TO.C,RP1*%
X173059380Y-86981666D02*
X172583190Y-87315000D01*
X173059380Y-87553095D02*
X172059380Y-87553095D01*
X172059380Y-87172142D01*
X172107000Y-87076904D01*
X172154619Y-87029285D01*
X172249857Y-86981666D01*
X172392714Y-86981666D01*
X172487952Y-87029285D01*
X172535571Y-87076904D01*
X172583190Y-87172142D01*
X172583190Y-87553095D01*
X173059380Y-86553095D02*
X172059380Y-86553095D01*
X172059380Y-86172142D01*
X172107000Y-86076904D01*
X172154619Y-86029285D01*
X172249857Y-85981666D01*
X172392714Y-85981666D01*
X172487952Y-86029285D01*
X172535571Y-86076904D01*
X172583190Y-86172142D01*
X172583190Y-86553095D01*
X173059380Y-85029285D02*
X173059380Y-85600714D01*
X173059380Y-85315000D02*
X172059380Y-85315000D01*
X172202238Y-85410238D01*
X172297476Y-85505476D01*
X172345095Y-85600714D01*
%TO.C,C2*%
X206778833Y-68792142D02*
X206731214Y-68839761D01*
X206588357Y-68887380D01*
X206493119Y-68887380D01*
X206350261Y-68839761D01*
X206255023Y-68744523D01*
X206207404Y-68649285D01*
X206159785Y-68458809D01*
X206159785Y-68315952D01*
X206207404Y-68125476D01*
X206255023Y-68030238D01*
X206350261Y-67935000D01*
X206493119Y-67887380D01*
X206588357Y-67887380D01*
X206731214Y-67935000D01*
X206778833Y-67982619D01*
X207159785Y-67982619D02*
X207207404Y-67935000D01*
X207302642Y-67887380D01*
X207540738Y-67887380D01*
X207635976Y-67935000D01*
X207683595Y-67982619D01*
X207731214Y-68077857D01*
X207731214Y-68173095D01*
X207683595Y-68315952D01*
X207112166Y-68887380D01*
X207731214Y-68887380D01*
%TO.C,SW1*%
X85769666Y-38150761D02*
X85912523Y-38198380D01*
X86150619Y-38198380D01*
X86245857Y-38150761D01*
X86293476Y-38103142D01*
X86341095Y-38007904D01*
X86341095Y-37912666D01*
X86293476Y-37817428D01*
X86245857Y-37769809D01*
X86150619Y-37722190D01*
X85960142Y-37674571D01*
X85864904Y-37626952D01*
X85817285Y-37579333D01*
X85769666Y-37484095D01*
X85769666Y-37388857D01*
X85817285Y-37293619D01*
X85864904Y-37246000D01*
X85960142Y-37198380D01*
X86198238Y-37198380D01*
X86341095Y-37246000D01*
X86674428Y-37198380D02*
X86912523Y-38198380D01*
X87103000Y-37484095D01*
X87293476Y-38198380D01*
X87531571Y-37198380D01*
X88436333Y-38198380D02*
X87864904Y-38198380D01*
X88150619Y-38198380D02*
X88150619Y-37198380D01*
X88055380Y-37341238D01*
X87960142Y-37436476D01*
X87864904Y-37484095D01*
%TO.C,C21*%
X153395142Y-61062857D02*
X153442761Y-61110476D01*
X153490380Y-61253333D01*
X153490380Y-61348571D01*
X153442761Y-61491428D01*
X153347523Y-61586666D01*
X153252285Y-61634285D01*
X153061809Y-61681904D01*
X152918952Y-61681904D01*
X152728476Y-61634285D01*
X152633238Y-61586666D01*
X152538000Y-61491428D01*
X152490380Y-61348571D01*
X152490380Y-61253333D01*
X152538000Y-61110476D01*
X152585619Y-61062857D01*
X152585619Y-60681904D02*
X152538000Y-60634285D01*
X152490380Y-60539047D01*
X152490380Y-60300952D01*
X152538000Y-60205714D01*
X152585619Y-60158095D01*
X152680857Y-60110476D01*
X152776095Y-60110476D01*
X152918952Y-60158095D01*
X153490380Y-60729523D01*
X153490380Y-60110476D01*
X153490380Y-59158095D02*
X153490380Y-59729523D01*
X153490380Y-59443809D02*
X152490380Y-59443809D01*
X152633238Y-59539047D01*
X152728476Y-59634285D01*
X152776095Y-59729523D01*
%TO.C,R33*%
X133407142Y-105817380D02*
X133073809Y-105341190D01*
X132835714Y-105817380D02*
X132835714Y-104817380D01*
X133216666Y-104817380D01*
X133311904Y-104865000D01*
X133359523Y-104912619D01*
X133407142Y-105007857D01*
X133407142Y-105150714D01*
X133359523Y-105245952D01*
X133311904Y-105293571D01*
X133216666Y-105341190D01*
X132835714Y-105341190D01*
X133740476Y-104817380D02*
X134359523Y-104817380D01*
X134026190Y-105198333D01*
X134169047Y-105198333D01*
X134264285Y-105245952D01*
X134311904Y-105293571D01*
X134359523Y-105388809D01*
X134359523Y-105626904D01*
X134311904Y-105722142D01*
X134264285Y-105769761D01*
X134169047Y-105817380D01*
X133883333Y-105817380D01*
X133788095Y-105769761D01*
X133740476Y-105722142D01*
X134692857Y-104817380D02*
X135311904Y-104817380D01*
X134978571Y-105198333D01*
X135121428Y-105198333D01*
X135216666Y-105245952D01*
X135264285Y-105293571D01*
X135311904Y-105388809D01*
X135311904Y-105626904D01*
X135264285Y-105722142D01*
X135216666Y-105769761D01*
X135121428Y-105817380D01*
X134835714Y-105817380D01*
X134740476Y-105769761D01*
X134692857Y-105722142D01*
%TO.C,R16*%
X192365142Y-113691380D02*
X192031809Y-113215190D01*
X191793714Y-113691380D02*
X191793714Y-112691380D01*
X192174666Y-112691380D01*
X192269904Y-112739000D01*
X192317523Y-112786619D01*
X192365142Y-112881857D01*
X192365142Y-113024714D01*
X192317523Y-113119952D01*
X192269904Y-113167571D01*
X192174666Y-113215190D01*
X191793714Y-113215190D01*
X193317523Y-113691380D02*
X192746095Y-113691380D01*
X193031809Y-113691380D02*
X193031809Y-112691380D01*
X192936571Y-112834238D01*
X192841333Y-112929476D01*
X192746095Y-112977095D01*
X194174666Y-112691380D02*
X193984190Y-112691380D01*
X193888952Y-112739000D01*
X193841333Y-112786619D01*
X193746095Y-112929476D01*
X193698476Y-113119952D01*
X193698476Y-113500904D01*
X193746095Y-113596142D01*
X193793714Y-113643761D01*
X193888952Y-113691380D01*
X194079428Y-113691380D01*
X194174666Y-113643761D01*
X194222285Y-113596142D01*
X194269904Y-113500904D01*
X194269904Y-113262809D01*
X194222285Y-113167571D01*
X194174666Y-113119952D01*
X194079428Y-113072333D01*
X193888952Y-113072333D01*
X193793714Y-113119952D01*
X193746095Y-113167571D01*
X193698476Y-113262809D01*
%TO.C,R3*%
X136041333Y-77887380D02*
X135708000Y-77411190D01*
X135469904Y-77887380D02*
X135469904Y-76887380D01*
X135850857Y-76887380D01*
X135946095Y-76935000D01*
X135993714Y-76982619D01*
X136041333Y-77077857D01*
X136041333Y-77220714D01*
X135993714Y-77315952D01*
X135946095Y-77363571D01*
X135850857Y-77411190D01*
X135469904Y-77411190D01*
X136374666Y-76887380D02*
X136993714Y-76887380D01*
X136660380Y-77268333D01*
X136803238Y-77268333D01*
X136898476Y-77315952D01*
X136946095Y-77363571D01*
X136993714Y-77458809D01*
X136993714Y-77696904D01*
X136946095Y-77792142D01*
X136898476Y-77839761D01*
X136803238Y-77887380D01*
X136517523Y-77887380D01*
X136422285Y-77839761D01*
X136374666Y-77792142D01*
%TO.C,U14*%
X127019904Y-53337380D02*
X127019904Y-54146904D01*
X127067523Y-54242142D01*
X127115142Y-54289761D01*
X127210380Y-54337380D01*
X127400857Y-54337380D01*
X127496095Y-54289761D01*
X127543714Y-54242142D01*
X127591333Y-54146904D01*
X127591333Y-53337380D01*
X128591333Y-54337380D02*
X128019904Y-54337380D01*
X128305619Y-54337380D02*
X128305619Y-53337380D01*
X128210380Y-53480238D01*
X128115142Y-53575476D01*
X128019904Y-53623095D01*
X129448476Y-53670714D02*
X129448476Y-54337380D01*
X129210380Y-53289761D02*
X128972285Y-54004047D01*
X129591333Y-54004047D01*
%TO.C,C11*%
X63653142Y-106422603D02*
X63605523Y-106470222D01*
X63462666Y-106517841D01*
X63367428Y-106517841D01*
X63224571Y-106470222D01*
X63129333Y-106374984D01*
X63081714Y-106279746D01*
X63034095Y-106089270D01*
X63034095Y-105946413D01*
X63081714Y-105755937D01*
X63129333Y-105660699D01*
X63224571Y-105565461D01*
X63367428Y-105517841D01*
X63462666Y-105517841D01*
X63605523Y-105565461D01*
X63653142Y-105613080D01*
X64605523Y-106517841D02*
X64034095Y-106517841D01*
X64319809Y-106517841D02*
X64319809Y-105517841D01*
X64224571Y-105660699D01*
X64129333Y-105755937D01*
X64034095Y-105803556D01*
X65557904Y-106517841D02*
X64986476Y-106517841D01*
X65272190Y-106517841D02*
X65272190Y-105517841D01*
X65176952Y-105660699D01*
X65081714Y-105755937D01*
X64986476Y-105803556D01*
%TO.C,ERAM1*%
X223664571Y-121144476D02*
X223664571Y-120811142D01*
X224188380Y-120668285D02*
X224188380Y-121144476D01*
X223188380Y-121144476D01*
X223188380Y-120668285D01*
X224188380Y-119668285D02*
X223712190Y-120001619D01*
X224188380Y-120239714D02*
X223188380Y-120239714D01*
X223188380Y-119858761D01*
X223236000Y-119763523D01*
X223283619Y-119715904D01*
X223378857Y-119668285D01*
X223521714Y-119668285D01*
X223616952Y-119715904D01*
X223664571Y-119763523D01*
X223712190Y-119858761D01*
X223712190Y-120239714D01*
X223902666Y-119287333D02*
X223902666Y-118811142D01*
X224188380Y-119382571D02*
X223188380Y-119049238D01*
X224188380Y-118715904D01*
X224188380Y-118382571D02*
X223188380Y-118382571D01*
X223902666Y-118049238D01*
X223188380Y-117715904D01*
X224188380Y-117715904D01*
X224188380Y-116715904D02*
X224188380Y-117287333D01*
X224188380Y-117001619D02*
X223188380Y-117001619D01*
X223331238Y-117096857D01*
X223426476Y-117192095D01*
X223474095Y-117287333D01*
%TO.C,R32*%
X133724142Y-108357380D02*
X133390809Y-107881190D01*
X133152714Y-108357380D02*
X133152714Y-107357380D01*
X133533666Y-107357380D01*
X133628904Y-107405000D01*
X133676523Y-107452619D01*
X133724142Y-107547857D01*
X133724142Y-107690714D01*
X133676523Y-107785952D01*
X133628904Y-107833571D01*
X133533666Y-107881190D01*
X133152714Y-107881190D01*
X134057476Y-107357380D02*
X134676523Y-107357380D01*
X134343190Y-107738333D01*
X134486047Y-107738333D01*
X134581285Y-107785952D01*
X134628904Y-107833571D01*
X134676523Y-107928809D01*
X134676523Y-108166904D01*
X134628904Y-108262142D01*
X134581285Y-108309761D01*
X134486047Y-108357380D01*
X134200333Y-108357380D01*
X134105095Y-108309761D01*
X134057476Y-108262142D01*
X135057476Y-107452619D02*
X135105095Y-107405000D01*
X135200333Y-107357380D01*
X135438428Y-107357380D01*
X135533666Y-107405000D01*
X135581285Y-107452619D01*
X135628904Y-107547857D01*
X135628904Y-107643095D01*
X135581285Y-107785952D01*
X135009857Y-108357380D01*
X135628904Y-108357380D01*
%TO.C,U3*%
X146346095Y-60037380D02*
X146346095Y-60846904D01*
X146393714Y-60942142D01*
X146441333Y-60989761D01*
X146536571Y-61037380D01*
X146727047Y-61037380D01*
X146822285Y-60989761D01*
X146869904Y-60942142D01*
X146917523Y-60846904D01*
X146917523Y-60037380D01*
X147298476Y-60037380D02*
X147917523Y-60037380D01*
X147584190Y-60418333D01*
X147727047Y-60418333D01*
X147822285Y-60465952D01*
X147869904Y-60513571D01*
X147917523Y-60608809D01*
X147917523Y-60846904D01*
X147869904Y-60942142D01*
X147822285Y-60989761D01*
X147727047Y-61037380D01*
X147441333Y-61037380D01*
X147346095Y-60989761D01*
X147298476Y-60942142D01*
%TO.C,J2*%
X209264666Y-50917711D02*
X209264666Y-51631997D01*
X209217047Y-51774854D01*
X209121809Y-51870092D01*
X208978952Y-51917711D01*
X208883714Y-51917711D01*
X209693238Y-51012950D02*
X209740857Y-50965331D01*
X209836095Y-50917711D01*
X210074190Y-50917711D01*
X210169428Y-50965331D01*
X210217047Y-51012950D01*
X210264666Y-51108188D01*
X210264666Y-51203426D01*
X210217047Y-51346283D01*
X209645619Y-51917711D01*
X210264666Y-51917711D01*
D13*
%TO.C,R9*%
X194170742Y-80912500D02*
X194645258Y-80912500D01*
X194170742Y-81957500D02*
X194645258Y-81957500D01*
%TO.C,C30*%
X195323580Y-91605000D02*
X195042420Y-91605000D01*
X195323580Y-92625000D02*
X195042420Y-92625000D01*
%TO.C,C29*%
X195323580Y-93325000D02*
X195042420Y-93325000D01*
X195323580Y-94345000D02*
X195042420Y-94345000D01*
%TO.C,C28*%
X195348580Y-95125000D02*
X195067420Y-95125000D01*
X195348580Y-96145000D02*
X195067420Y-96145000D01*
%TO.C,C27*%
X195398580Y-96825000D02*
X195117420Y-96825000D01*
X195398580Y-97845000D02*
X195117420Y-97845000D01*
%TO.C,C26*%
X195423580Y-98625000D02*
X195142420Y-98625000D01*
X195423580Y-99645000D02*
X195142420Y-99645000D01*
%TO.C,C31*%
X195323580Y-89725000D02*
X195042420Y-89725000D01*
X195323580Y-90745000D02*
X195042420Y-90745000D01*
%TO.C,C24*%
X195398580Y-102225000D02*
X195117420Y-102225000D01*
X195398580Y-103245000D02*
X195117420Y-103245000D01*
%TO.C,C25*%
X195423580Y-100425000D02*
X195142420Y-100425000D01*
X195423580Y-101445000D02*
X195142420Y-101445000D01*
%TO.C,C5*%
X64507000Y-73195000D02*
X64507000Y-72582000D01*
X65187000Y-73195000D02*
X65187000Y-72011000D01*
X66308000Y-73195000D02*
X66308000Y-71662000D01*
X65267000Y-76503000D02*
X65267000Y-75275000D01*
X65387000Y-76564000D02*
X65387000Y-75275000D01*
X65347000Y-76545000D02*
X65347000Y-75275000D01*
X64827000Y-76206000D02*
X64827000Y-75275000D01*
X64547000Y-73195000D02*
X64547000Y-72536000D01*
X64867000Y-73195000D02*
X64867000Y-72231000D01*
X66348000Y-76811000D02*
X66348000Y-75275000D01*
X64947000Y-76300000D02*
X64947000Y-75275000D01*
X66468000Y-73195000D02*
X66468000Y-71655000D01*
X65787000Y-73195000D02*
X65787000Y-71755000D01*
X65627000Y-76663000D02*
X65627000Y-75275000D01*
X65587000Y-76649000D02*
X65587000Y-75275000D01*
X64747000Y-76136000D02*
X64747000Y-75275000D01*
X65908000Y-76746000D02*
X65908000Y-75275000D01*
X66268000Y-73195000D02*
X66268000Y-71666000D01*
X65667000Y-73195000D02*
X65667000Y-71793000D01*
X65948000Y-73195000D02*
X65948000Y-71715000D01*
X65227000Y-73195000D02*
X65227000Y-71988000D01*
X65107000Y-73195000D02*
X65107000Y-72060000D01*
X66388000Y-73195000D02*
X66388000Y-71657000D01*
X65988000Y-76763000D02*
X65988000Y-75275000D01*
X65067000Y-76384000D02*
X65067000Y-75275000D01*
X64667000Y-76061000D02*
X64667000Y-75275000D01*
X64507000Y-75888000D02*
X64507000Y-75275000D01*
X65467000Y-73195000D02*
X65467000Y-71870000D01*
X66508000Y-76815000D02*
X66508000Y-75275000D01*
X66188000Y-76796000D02*
X66188000Y-75275000D01*
X65467000Y-76600000D02*
X65467000Y-75275000D01*
X66028000Y-76771000D02*
X66028000Y-75275000D01*
X64027000Y-75040000D02*
X64027000Y-73430000D01*
X64227000Y-75486000D02*
X64227000Y-72984000D01*
X64387000Y-75735000D02*
X64387000Y-72735000D01*
X66148000Y-73195000D02*
X66148000Y-71679000D01*
X65427000Y-73195000D02*
X65427000Y-71887000D01*
X63987000Y-74912000D02*
X63987000Y-73558000D01*
X64947000Y-73195000D02*
X64947000Y-72170000D01*
X64987000Y-73195000D02*
X64987000Y-72140000D01*
X65747000Y-76703000D02*
X65747000Y-75275000D01*
X65507000Y-73195000D02*
X65507000Y-71853000D01*
X65627000Y-73195000D02*
X65627000Y-71807000D01*
X65427000Y-76583000D02*
X65427000Y-75275000D01*
X65267000Y-73195000D02*
X65267000Y-71967000D01*
X64627000Y-76020000D02*
X64627000Y-75275000D01*
X64987000Y-76330000D02*
X64987000Y-75275000D01*
X66188000Y-73195000D02*
X66188000Y-71674000D01*
X65587000Y-73195000D02*
X65587000Y-71821000D01*
X65547000Y-73195000D02*
X65547000Y-71837000D01*
X66348000Y-73195000D02*
X66348000Y-71659000D01*
X65507000Y-76617000D02*
X65507000Y-75275000D01*
X65828000Y-76726000D02*
X65828000Y-75275000D01*
X64107000Y-75246000D02*
X64107000Y-73224000D01*
X64427000Y-75789000D02*
X64427000Y-72681000D01*
X64067000Y-75150000D02*
X64067000Y-73320000D01*
X69312775Y-75710000D02*
X68812775Y-75710000D01*
X66508000Y-73195000D02*
X66508000Y-71655000D01*
X65707000Y-76690000D02*
X65707000Y-75275000D01*
X65027000Y-76357000D02*
X65027000Y-75275000D01*
X65307000Y-73195000D02*
X65307000Y-71945000D01*
X65147000Y-76435000D02*
X65147000Y-75275000D01*
X64707000Y-76099000D02*
X64707000Y-75275000D01*
X64587000Y-73195000D02*
X64587000Y-72492000D01*
X64147000Y-75333000D02*
X64147000Y-73137000D01*
X66388000Y-76813000D02*
X66388000Y-75275000D01*
X66228000Y-76800000D02*
X66228000Y-75275000D01*
X66428000Y-76814000D02*
X66428000Y-75275000D01*
X66308000Y-76808000D02*
X66308000Y-75275000D01*
X64707000Y-73195000D02*
X64707000Y-72371000D01*
X65387000Y-73195000D02*
X65387000Y-71906000D01*
X63947000Y-74753000D02*
X63947000Y-73717000D01*
X63907000Y-74519000D02*
X63907000Y-73951000D01*
X65908000Y-73195000D02*
X65908000Y-71724000D01*
X64787000Y-73195000D02*
X64787000Y-72298000D01*
X65347000Y-73195000D02*
X65347000Y-71925000D01*
X66108000Y-73195000D02*
X66108000Y-71685000D01*
X64267000Y-75554000D02*
X64267000Y-72916000D01*
X64307000Y-75618000D02*
X64307000Y-72852000D01*
X65547000Y-76633000D02*
X65547000Y-75275000D01*
X65227000Y-76482000D02*
X65227000Y-75275000D01*
X64187000Y-75413000D02*
X64187000Y-73057000D01*
X65147000Y-73195000D02*
X65147000Y-72035000D01*
X64587000Y-75978000D02*
X64587000Y-75275000D01*
X64907000Y-76270000D02*
X64907000Y-75275000D01*
X64467000Y-75840000D02*
X64467000Y-72630000D01*
X65027000Y-73195000D02*
X65027000Y-72113000D01*
X65747000Y-73195000D02*
X65747000Y-71767000D01*
X65988000Y-73195000D02*
X65988000Y-71707000D01*
X65667000Y-76677000D02*
X65667000Y-75275000D01*
X66148000Y-76791000D02*
X66148000Y-75275000D01*
X66068000Y-73195000D02*
X66068000Y-71692000D01*
X64347000Y-75678000D02*
X64347000Y-72792000D01*
X64667000Y-73195000D02*
X64667000Y-72409000D01*
X65707000Y-73195000D02*
X65707000Y-71780000D01*
X66228000Y-73195000D02*
X66228000Y-71670000D01*
X66428000Y-73195000D02*
X66428000Y-71656000D01*
X65828000Y-73195000D02*
X65828000Y-71744000D01*
X64627000Y-73195000D02*
X64627000Y-72450000D01*
X65787000Y-76715000D02*
X65787000Y-75275000D01*
X64867000Y-76239000D02*
X64867000Y-75275000D01*
X65067000Y-73195000D02*
X65067000Y-72086000D01*
X65107000Y-76410000D02*
X65107000Y-75275000D01*
X65307000Y-76525000D02*
X65307000Y-75275000D01*
X66268000Y-76804000D02*
X66268000Y-75275000D01*
X64787000Y-76172000D02*
X64787000Y-75275000D01*
X66068000Y-76778000D02*
X66068000Y-75275000D01*
X65868000Y-73195000D02*
X65868000Y-71734000D01*
X65187000Y-76459000D02*
X65187000Y-75275000D01*
X69062775Y-75960000D02*
X69062775Y-75460000D01*
X66108000Y-76785000D02*
X66108000Y-75275000D01*
X64827000Y-73195000D02*
X64827000Y-72264000D01*
X66028000Y-73195000D02*
X66028000Y-71699000D01*
X65948000Y-76755000D02*
X65948000Y-75275000D01*
X64907000Y-73195000D02*
X64907000Y-72200000D01*
X64747000Y-73195000D02*
X64747000Y-72334000D01*
X66468000Y-76815000D02*
X66468000Y-75275000D01*
X65868000Y-76736000D02*
X65868000Y-75275000D01*
X64547000Y-75934000D02*
X64547000Y-75275000D01*
X69128000Y-74235000D02*
G75*
G03*
X69128000Y-74235000I-2620000J0D01*
G01*
%TO.C,C6*%
X64507000Y-71495000D02*
X64507000Y-70882000D01*
X65187000Y-71495000D02*
X65187000Y-70311000D01*
X66308000Y-71495000D02*
X66308000Y-69962000D01*
X65267000Y-74803000D02*
X65267000Y-73575000D01*
X65387000Y-74864000D02*
X65387000Y-73575000D01*
X65347000Y-74845000D02*
X65347000Y-73575000D01*
X64827000Y-74506000D02*
X64827000Y-73575000D01*
X64547000Y-71495000D02*
X64547000Y-70836000D01*
X64867000Y-71495000D02*
X64867000Y-70531000D01*
X66348000Y-75111000D02*
X66348000Y-73575000D01*
X64947000Y-74600000D02*
X64947000Y-73575000D01*
X66468000Y-71495000D02*
X66468000Y-69955000D01*
X65787000Y-71495000D02*
X65787000Y-70055000D01*
X65627000Y-74963000D02*
X65627000Y-73575000D01*
X65587000Y-74949000D02*
X65587000Y-73575000D01*
X64747000Y-74436000D02*
X64747000Y-73575000D01*
X65908000Y-75046000D02*
X65908000Y-73575000D01*
X66268000Y-71495000D02*
X66268000Y-69966000D01*
X65667000Y-71495000D02*
X65667000Y-70093000D01*
X65948000Y-71495000D02*
X65948000Y-70015000D01*
X65227000Y-71495000D02*
X65227000Y-70288000D01*
X65107000Y-71495000D02*
X65107000Y-70360000D01*
X66388000Y-71495000D02*
X66388000Y-69957000D01*
X65988000Y-75063000D02*
X65988000Y-73575000D01*
X65067000Y-74684000D02*
X65067000Y-73575000D01*
X64667000Y-74361000D02*
X64667000Y-73575000D01*
X64507000Y-74188000D02*
X64507000Y-73575000D01*
X65467000Y-71495000D02*
X65467000Y-70170000D01*
X66508000Y-75115000D02*
X66508000Y-73575000D01*
X66188000Y-75096000D02*
X66188000Y-73575000D01*
X65467000Y-74900000D02*
X65467000Y-73575000D01*
X66028000Y-75071000D02*
X66028000Y-73575000D01*
X64027000Y-73340000D02*
X64027000Y-71730000D01*
X64227000Y-73786000D02*
X64227000Y-71284000D01*
X64387000Y-74035000D02*
X64387000Y-71035000D01*
X66148000Y-71495000D02*
X66148000Y-69979000D01*
X65427000Y-71495000D02*
X65427000Y-70187000D01*
X63987000Y-73212000D02*
X63987000Y-71858000D01*
X64947000Y-71495000D02*
X64947000Y-70470000D01*
X64987000Y-71495000D02*
X64987000Y-70440000D01*
X65747000Y-75003000D02*
X65747000Y-73575000D01*
X65507000Y-71495000D02*
X65507000Y-70153000D01*
X65627000Y-71495000D02*
X65627000Y-70107000D01*
X65427000Y-74883000D02*
X65427000Y-73575000D01*
X65267000Y-71495000D02*
X65267000Y-70267000D01*
X64627000Y-74320000D02*
X64627000Y-73575000D01*
X64987000Y-74630000D02*
X64987000Y-73575000D01*
X66188000Y-71495000D02*
X66188000Y-69974000D01*
X65587000Y-71495000D02*
X65587000Y-70121000D01*
X65547000Y-71495000D02*
X65547000Y-70137000D01*
X66348000Y-71495000D02*
X66348000Y-69959000D01*
X65507000Y-74917000D02*
X65507000Y-73575000D01*
X65828000Y-75026000D02*
X65828000Y-73575000D01*
X64107000Y-73546000D02*
X64107000Y-71524000D01*
X64427000Y-74089000D02*
X64427000Y-70981000D01*
X64067000Y-73450000D02*
X64067000Y-71620000D01*
X69312775Y-74010000D02*
X68812775Y-74010000D01*
X66508000Y-71495000D02*
X66508000Y-69955000D01*
X65707000Y-74990000D02*
X65707000Y-73575000D01*
X65027000Y-74657000D02*
X65027000Y-73575000D01*
X65307000Y-71495000D02*
X65307000Y-70245000D01*
X65147000Y-74735000D02*
X65147000Y-73575000D01*
X64707000Y-74399000D02*
X64707000Y-73575000D01*
X64587000Y-71495000D02*
X64587000Y-70792000D01*
X64147000Y-73633000D02*
X64147000Y-71437000D01*
X66388000Y-75113000D02*
X66388000Y-73575000D01*
X66228000Y-75100000D02*
X66228000Y-73575000D01*
X66428000Y-75114000D02*
X66428000Y-73575000D01*
X66308000Y-75108000D02*
X66308000Y-73575000D01*
X64707000Y-71495000D02*
X64707000Y-70671000D01*
X65387000Y-71495000D02*
X65387000Y-70206000D01*
X63947000Y-73053000D02*
X63947000Y-72017000D01*
X63907000Y-72819000D02*
X63907000Y-72251000D01*
X65908000Y-71495000D02*
X65908000Y-70024000D01*
X64787000Y-71495000D02*
X64787000Y-70598000D01*
X65347000Y-71495000D02*
X65347000Y-70225000D01*
X66108000Y-71495000D02*
X66108000Y-69985000D01*
X64267000Y-73854000D02*
X64267000Y-71216000D01*
X64307000Y-73918000D02*
X64307000Y-71152000D01*
X65547000Y-74933000D02*
X65547000Y-73575000D01*
X65227000Y-74782000D02*
X65227000Y-73575000D01*
X64187000Y-73713000D02*
X64187000Y-71357000D01*
X65147000Y-71495000D02*
X65147000Y-70335000D01*
X64587000Y-74278000D02*
X64587000Y-73575000D01*
X64907000Y-74570000D02*
X64907000Y-73575000D01*
X64467000Y-74140000D02*
X64467000Y-70930000D01*
X65027000Y-71495000D02*
X65027000Y-70413000D01*
X65747000Y-71495000D02*
X65747000Y-70067000D01*
X65988000Y-71495000D02*
X65988000Y-70007000D01*
X65667000Y-74977000D02*
X65667000Y-73575000D01*
X66148000Y-75091000D02*
X66148000Y-73575000D01*
X66068000Y-71495000D02*
X66068000Y-69992000D01*
X64347000Y-73978000D02*
X64347000Y-71092000D01*
X64667000Y-71495000D02*
X64667000Y-70709000D01*
X65707000Y-71495000D02*
X65707000Y-70080000D01*
X66228000Y-71495000D02*
X66228000Y-69970000D01*
X66428000Y-71495000D02*
X66428000Y-69956000D01*
X65828000Y-71495000D02*
X65828000Y-70044000D01*
X64627000Y-71495000D02*
X64627000Y-70750000D01*
X65787000Y-75015000D02*
X65787000Y-73575000D01*
X64867000Y-74539000D02*
X64867000Y-73575000D01*
X65067000Y-71495000D02*
X65067000Y-70386000D01*
X65107000Y-74710000D02*
X65107000Y-73575000D01*
X65307000Y-74825000D02*
X65307000Y-73575000D01*
X66268000Y-75104000D02*
X66268000Y-73575000D01*
X64787000Y-74472000D02*
X64787000Y-73575000D01*
X66068000Y-75078000D02*
X66068000Y-73575000D01*
X65868000Y-71495000D02*
X65868000Y-70034000D01*
X65187000Y-74759000D02*
X65187000Y-73575000D01*
X69062775Y-74260000D02*
X69062775Y-73760000D01*
X66108000Y-75085000D02*
X66108000Y-73575000D01*
X64827000Y-71495000D02*
X64827000Y-70564000D01*
X66028000Y-71495000D02*
X66028000Y-69999000D01*
X65948000Y-75055000D02*
X65948000Y-73575000D01*
X64907000Y-71495000D02*
X64907000Y-70500000D01*
X64747000Y-71495000D02*
X64747000Y-70634000D01*
X66468000Y-75115000D02*
X66468000Y-73575000D01*
X65868000Y-75036000D02*
X65868000Y-73575000D01*
X64547000Y-74234000D02*
X64547000Y-73575000D01*
X69128000Y-72535000D02*
G75*
G03*
X69128000Y-72535000I-2620000J0D01*
G01*
%TO.C,C7*%
X64507000Y-69795000D02*
X64507000Y-69182000D01*
X65187000Y-69795000D02*
X65187000Y-68611000D01*
X66308000Y-69795000D02*
X66308000Y-68262000D01*
X65267000Y-73103000D02*
X65267000Y-71875000D01*
X65387000Y-73164000D02*
X65387000Y-71875000D01*
X65347000Y-73145000D02*
X65347000Y-71875000D01*
X64827000Y-72806000D02*
X64827000Y-71875000D01*
X64547000Y-69795000D02*
X64547000Y-69136000D01*
X64867000Y-69795000D02*
X64867000Y-68831000D01*
X66348000Y-73411000D02*
X66348000Y-71875000D01*
X64947000Y-72900000D02*
X64947000Y-71875000D01*
X66468000Y-69795000D02*
X66468000Y-68255000D01*
X65787000Y-69795000D02*
X65787000Y-68355000D01*
X65627000Y-73263000D02*
X65627000Y-71875000D01*
X65587000Y-73249000D02*
X65587000Y-71875000D01*
X64747000Y-72736000D02*
X64747000Y-71875000D01*
X65908000Y-73346000D02*
X65908000Y-71875000D01*
X66268000Y-69795000D02*
X66268000Y-68266000D01*
X65667000Y-69795000D02*
X65667000Y-68393000D01*
X65948000Y-69795000D02*
X65948000Y-68315000D01*
X65227000Y-69795000D02*
X65227000Y-68588000D01*
X65107000Y-69795000D02*
X65107000Y-68660000D01*
X66388000Y-69795000D02*
X66388000Y-68257000D01*
X65988000Y-73363000D02*
X65988000Y-71875000D01*
X65067000Y-72984000D02*
X65067000Y-71875000D01*
X64667000Y-72661000D02*
X64667000Y-71875000D01*
X64507000Y-72488000D02*
X64507000Y-71875000D01*
X65467000Y-69795000D02*
X65467000Y-68470000D01*
X66508000Y-73415000D02*
X66508000Y-71875000D01*
X66188000Y-73396000D02*
X66188000Y-71875000D01*
X65467000Y-73200000D02*
X65467000Y-71875000D01*
X66028000Y-73371000D02*
X66028000Y-71875000D01*
X64027000Y-71640000D02*
X64027000Y-70030000D01*
X64227000Y-72086000D02*
X64227000Y-69584000D01*
X64387000Y-72335000D02*
X64387000Y-69335000D01*
X66148000Y-69795000D02*
X66148000Y-68279000D01*
X65427000Y-69795000D02*
X65427000Y-68487000D01*
X63987000Y-71512000D02*
X63987000Y-70158000D01*
X64947000Y-69795000D02*
X64947000Y-68770000D01*
X64987000Y-69795000D02*
X64987000Y-68740000D01*
X65747000Y-73303000D02*
X65747000Y-71875000D01*
X65507000Y-69795000D02*
X65507000Y-68453000D01*
X65627000Y-69795000D02*
X65627000Y-68407000D01*
X65427000Y-73183000D02*
X65427000Y-71875000D01*
X65267000Y-69795000D02*
X65267000Y-68567000D01*
X64627000Y-72620000D02*
X64627000Y-71875000D01*
X64987000Y-72930000D02*
X64987000Y-71875000D01*
X66188000Y-69795000D02*
X66188000Y-68274000D01*
X65587000Y-69795000D02*
X65587000Y-68421000D01*
X65547000Y-69795000D02*
X65547000Y-68437000D01*
X66348000Y-69795000D02*
X66348000Y-68259000D01*
X65507000Y-73217000D02*
X65507000Y-71875000D01*
X65828000Y-73326000D02*
X65828000Y-71875000D01*
X64107000Y-71846000D02*
X64107000Y-69824000D01*
X64427000Y-72389000D02*
X64427000Y-69281000D01*
X64067000Y-71750000D02*
X64067000Y-69920000D01*
X69312775Y-72310000D02*
X68812775Y-72310000D01*
X66508000Y-69795000D02*
X66508000Y-68255000D01*
X65707000Y-73290000D02*
X65707000Y-71875000D01*
X65027000Y-72957000D02*
X65027000Y-71875000D01*
X65307000Y-69795000D02*
X65307000Y-68545000D01*
X65147000Y-73035000D02*
X65147000Y-71875000D01*
X64707000Y-72699000D02*
X64707000Y-71875000D01*
X64587000Y-69795000D02*
X64587000Y-69092000D01*
X64147000Y-71933000D02*
X64147000Y-69737000D01*
X66388000Y-73413000D02*
X66388000Y-71875000D01*
X66228000Y-73400000D02*
X66228000Y-71875000D01*
X66428000Y-73414000D02*
X66428000Y-71875000D01*
X66308000Y-73408000D02*
X66308000Y-71875000D01*
X64707000Y-69795000D02*
X64707000Y-68971000D01*
X65387000Y-69795000D02*
X65387000Y-68506000D01*
X63947000Y-71353000D02*
X63947000Y-70317000D01*
X63907000Y-71119000D02*
X63907000Y-70551000D01*
X65908000Y-69795000D02*
X65908000Y-68324000D01*
X64787000Y-69795000D02*
X64787000Y-68898000D01*
X65347000Y-69795000D02*
X65347000Y-68525000D01*
X66108000Y-69795000D02*
X66108000Y-68285000D01*
X64267000Y-72154000D02*
X64267000Y-69516000D01*
X64307000Y-72218000D02*
X64307000Y-69452000D01*
X65547000Y-73233000D02*
X65547000Y-71875000D01*
X65227000Y-73082000D02*
X65227000Y-71875000D01*
X64187000Y-72013000D02*
X64187000Y-69657000D01*
X65147000Y-69795000D02*
X65147000Y-68635000D01*
X64587000Y-72578000D02*
X64587000Y-71875000D01*
X64907000Y-72870000D02*
X64907000Y-71875000D01*
X64467000Y-72440000D02*
X64467000Y-69230000D01*
X65027000Y-69795000D02*
X65027000Y-68713000D01*
X65747000Y-69795000D02*
X65747000Y-68367000D01*
X65988000Y-69795000D02*
X65988000Y-68307000D01*
X65667000Y-73277000D02*
X65667000Y-71875000D01*
X66148000Y-73391000D02*
X66148000Y-71875000D01*
X66068000Y-69795000D02*
X66068000Y-68292000D01*
X64347000Y-72278000D02*
X64347000Y-69392000D01*
X64667000Y-69795000D02*
X64667000Y-69009000D01*
X65707000Y-69795000D02*
X65707000Y-68380000D01*
X66228000Y-69795000D02*
X66228000Y-68270000D01*
X66428000Y-69795000D02*
X66428000Y-68256000D01*
X65828000Y-69795000D02*
X65828000Y-68344000D01*
X64627000Y-69795000D02*
X64627000Y-69050000D01*
X65787000Y-73315000D02*
X65787000Y-71875000D01*
X64867000Y-72839000D02*
X64867000Y-71875000D01*
X65067000Y-69795000D02*
X65067000Y-68686000D01*
X65107000Y-73010000D02*
X65107000Y-71875000D01*
X65307000Y-73125000D02*
X65307000Y-71875000D01*
X66268000Y-73404000D02*
X66268000Y-71875000D01*
X64787000Y-72772000D02*
X64787000Y-71875000D01*
X66068000Y-73378000D02*
X66068000Y-71875000D01*
X65868000Y-69795000D02*
X65868000Y-68334000D01*
X65187000Y-73059000D02*
X65187000Y-71875000D01*
X69062775Y-72560000D02*
X69062775Y-72060000D01*
X66108000Y-73385000D02*
X66108000Y-71875000D01*
X64827000Y-69795000D02*
X64827000Y-68864000D01*
X66028000Y-69795000D02*
X66028000Y-68299000D01*
X65948000Y-73355000D02*
X65948000Y-71875000D01*
X64907000Y-69795000D02*
X64907000Y-68800000D01*
X64747000Y-69795000D02*
X64747000Y-68934000D01*
X66468000Y-73415000D02*
X66468000Y-71875000D01*
X65868000Y-73336000D02*
X65868000Y-71875000D01*
X64547000Y-72534000D02*
X64547000Y-71875000D01*
X69128000Y-70835000D02*
G75*
G03*
X69128000Y-70835000I-2620000J0D01*
G01*
%TO.C,C8*%
X64507000Y-68095000D02*
X64507000Y-67482000D01*
X65187000Y-68095000D02*
X65187000Y-66911000D01*
X66308000Y-68095000D02*
X66308000Y-66562000D01*
X65267000Y-71403000D02*
X65267000Y-70175000D01*
X65387000Y-71464000D02*
X65387000Y-70175000D01*
X65347000Y-71445000D02*
X65347000Y-70175000D01*
X64827000Y-71106000D02*
X64827000Y-70175000D01*
X64547000Y-68095000D02*
X64547000Y-67436000D01*
X64867000Y-68095000D02*
X64867000Y-67131000D01*
X66348000Y-71711000D02*
X66348000Y-70175000D01*
X64947000Y-71200000D02*
X64947000Y-70175000D01*
X66468000Y-68095000D02*
X66468000Y-66555000D01*
X65787000Y-68095000D02*
X65787000Y-66655000D01*
X65627000Y-71563000D02*
X65627000Y-70175000D01*
X65587000Y-71549000D02*
X65587000Y-70175000D01*
X64747000Y-71036000D02*
X64747000Y-70175000D01*
X65908000Y-71646000D02*
X65908000Y-70175000D01*
X66268000Y-68095000D02*
X66268000Y-66566000D01*
X65667000Y-68095000D02*
X65667000Y-66693000D01*
X65948000Y-68095000D02*
X65948000Y-66615000D01*
X65227000Y-68095000D02*
X65227000Y-66888000D01*
X65107000Y-68095000D02*
X65107000Y-66960000D01*
X66388000Y-68095000D02*
X66388000Y-66557000D01*
X65988000Y-71663000D02*
X65988000Y-70175000D01*
X65067000Y-71284000D02*
X65067000Y-70175000D01*
X64667000Y-70961000D02*
X64667000Y-70175000D01*
X64507000Y-70788000D02*
X64507000Y-70175000D01*
X65467000Y-68095000D02*
X65467000Y-66770000D01*
X66508000Y-71715000D02*
X66508000Y-70175000D01*
X66188000Y-71696000D02*
X66188000Y-70175000D01*
X65467000Y-71500000D02*
X65467000Y-70175000D01*
X66028000Y-71671000D02*
X66028000Y-70175000D01*
X64027000Y-69940000D02*
X64027000Y-68330000D01*
X64227000Y-70386000D02*
X64227000Y-67884000D01*
X64387000Y-70635000D02*
X64387000Y-67635000D01*
X66148000Y-68095000D02*
X66148000Y-66579000D01*
X65427000Y-68095000D02*
X65427000Y-66787000D01*
X63987000Y-69812000D02*
X63987000Y-68458000D01*
X64947000Y-68095000D02*
X64947000Y-67070000D01*
X64987000Y-68095000D02*
X64987000Y-67040000D01*
X65747000Y-71603000D02*
X65747000Y-70175000D01*
X65507000Y-68095000D02*
X65507000Y-66753000D01*
X65627000Y-68095000D02*
X65627000Y-66707000D01*
X65427000Y-71483000D02*
X65427000Y-70175000D01*
X65267000Y-68095000D02*
X65267000Y-66867000D01*
X64627000Y-70920000D02*
X64627000Y-70175000D01*
X64987000Y-71230000D02*
X64987000Y-70175000D01*
X66188000Y-68095000D02*
X66188000Y-66574000D01*
X65587000Y-68095000D02*
X65587000Y-66721000D01*
X65547000Y-68095000D02*
X65547000Y-66737000D01*
X66348000Y-68095000D02*
X66348000Y-66559000D01*
X65507000Y-71517000D02*
X65507000Y-70175000D01*
X65828000Y-71626000D02*
X65828000Y-70175000D01*
X64107000Y-70146000D02*
X64107000Y-68124000D01*
X64427000Y-70689000D02*
X64427000Y-67581000D01*
X64067000Y-70050000D02*
X64067000Y-68220000D01*
X69312775Y-70610000D02*
X68812775Y-70610000D01*
X66508000Y-68095000D02*
X66508000Y-66555000D01*
X65707000Y-71590000D02*
X65707000Y-70175000D01*
X65027000Y-71257000D02*
X65027000Y-70175000D01*
X65307000Y-68095000D02*
X65307000Y-66845000D01*
X65147000Y-71335000D02*
X65147000Y-70175000D01*
X64707000Y-70999000D02*
X64707000Y-70175000D01*
X64587000Y-68095000D02*
X64587000Y-67392000D01*
X64147000Y-70233000D02*
X64147000Y-68037000D01*
X66388000Y-71713000D02*
X66388000Y-70175000D01*
X66228000Y-71700000D02*
X66228000Y-70175000D01*
X66428000Y-71714000D02*
X66428000Y-70175000D01*
X66308000Y-71708000D02*
X66308000Y-70175000D01*
X64707000Y-68095000D02*
X64707000Y-67271000D01*
X65387000Y-68095000D02*
X65387000Y-66806000D01*
X63947000Y-69653000D02*
X63947000Y-68617000D01*
X63907000Y-69419000D02*
X63907000Y-68851000D01*
X65908000Y-68095000D02*
X65908000Y-66624000D01*
X64787000Y-68095000D02*
X64787000Y-67198000D01*
X65347000Y-68095000D02*
X65347000Y-66825000D01*
X66108000Y-68095000D02*
X66108000Y-66585000D01*
X64267000Y-70454000D02*
X64267000Y-67816000D01*
X64307000Y-70518000D02*
X64307000Y-67752000D01*
X65547000Y-71533000D02*
X65547000Y-70175000D01*
X65227000Y-71382000D02*
X65227000Y-70175000D01*
X64187000Y-70313000D02*
X64187000Y-67957000D01*
X65147000Y-68095000D02*
X65147000Y-66935000D01*
X64587000Y-70878000D02*
X64587000Y-70175000D01*
X64907000Y-71170000D02*
X64907000Y-70175000D01*
X64467000Y-70740000D02*
X64467000Y-67530000D01*
X65027000Y-68095000D02*
X65027000Y-67013000D01*
X65747000Y-68095000D02*
X65747000Y-66667000D01*
X65988000Y-68095000D02*
X65988000Y-66607000D01*
X65667000Y-71577000D02*
X65667000Y-70175000D01*
X66148000Y-71691000D02*
X66148000Y-70175000D01*
X66068000Y-68095000D02*
X66068000Y-66592000D01*
X64347000Y-70578000D02*
X64347000Y-67692000D01*
X64667000Y-68095000D02*
X64667000Y-67309000D01*
X65707000Y-68095000D02*
X65707000Y-66680000D01*
X66228000Y-68095000D02*
X66228000Y-66570000D01*
X66428000Y-68095000D02*
X66428000Y-66556000D01*
X65828000Y-68095000D02*
X65828000Y-66644000D01*
X64627000Y-68095000D02*
X64627000Y-67350000D01*
X65787000Y-71615000D02*
X65787000Y-70175000D01*
X64867000Y-71139000D02*
X64867000Y-70175000D01*
X65067000Y-68095000D02*
X65067000Y-66986000D01*
X65107000Y-71310000D02*
X65107000Y-70175000D01*
X65307000Y-71425000D02*
X65307000Y-70175000D01*
X66268000Y-71704000D02*
X66268000Y-70175000D01*
X64787000Y-71072000D02*
X64787000Y-70175000D01*
X66068000Y-71678000D02*
X66068000Y-70175000D01*
X65868000Y-68095000D02*
X65868000Y-66634000D01*
X65187000Y-71359000D02*
X65187000Y-70175000D01*
X69062775Y-70860000D02*
X69062775Y-70360000D01*
X66108000Y-71685000D02*
X66108000Y-70175000D01*
X64827000Y-68095000D02*
X64827000Y-67164000D01*
X66028000Y-68095000D02*
X66028000Y-66599000D01*
X65948000Y-71655000D02*
X65948000Y-70175000D01*
X64907000Y-68095000D02*
X64907000Y-67100000D01*
X64747000Y-68095000D02*
X64747000Y-67234000D01*
X66468000Y-71715000D02*
X66468000Y-70175000D01*
X65868000Y-71636000D02*
X65868000Y-70175000D01*
X64547000Y-70834000D02*
X64547000Y-70175000D01*
X69128000Y-69135000D02*
G75*
G03*
X69128000Y-69135000I-2620000J0D01*
G01*
%TO.C,C19*%
X64507000Y-66295000D02*
X64507000Y-65682000D01*
X65187000Y-66295000D02*
X65187000Y-65111000D01*
X66308000Y-66295000D02*
X66308000Y-64762000D01*
X65267000Y-69603000D02*
X65267000Y-68375000D01*
X65387000Y-69664000D02*
X65387000Y-68375000D01*
X65347000Y-69645000D02*
X65347000Y-68375000D01*
X64827000Y-69306000D02*
X64827000Y-68375000D01*
X64547000Y-66295000D02*
X64547000Y-65636000D01*
X64867000Y-66295000D02*
X64867000Y-65331000D01*
X66348000Y-69911000D02*
X66348000Y-68375000D01*
X64947000Y-69400000D02*
X64947000Y-68375000D01*
X66468000Y-66295000D02*
X66468000Y-64755000D01*
X65787000Y-66295000D02*
X65787000Y-64855000D01*
X65627000Y-69763000D02*
X65627000Y-68375000D01*
X65587000Y-69749000D02*
X65587000Y-68375000D01*
X64747000Y-69236000D02*
X64747000Y-68375000D01*
X65908000Y-69846000D02*
X65908000Y-68375000D01*
X66268000Y-66295000D02*
X66268000Y-64766000D01*
X65667000Y-66295000D02*
X65667000Y-64893000D01*
X65948000Y-66295000D02*
X65948000Y-64815000D01*
X65227000Y-66295000D02*
X65227000Y-65088000D01*
X65107000Y-66295000D02*
X65107000Y-65160000D01*
X66388000Y-66295000D02*
X66388000Y-64757000D01*
X65988000Y-69863000D02*
X65988000Y-68375000D01*
X65067000Y-69484000D02*
X65067000Y-68375000D01*
X64667000Y-69161000D02*
X64667000Y-68375000D01*
X64507000Y-68988000D02*
X64507000Y-68375000D01*
X65467000Y-66295000D02*
X65467000Y-64970000D01*
X66508000Y-69915000D02*
X66508000Y-68375000D01*
X66188000Y-69896000D02*
X66188000Y-68375000D01*
X65467000Y-69700000D02*
X65467000Y-68375000D01*
X66028000Y-69871000D02*
X66028000Y-68375000D01*
X64027000Y-68140000D02*
X64027000Y-66530000D01*
X64227000Y-68586000D02*
X64227000Y-66084000D01*
X64387000Y-68835000D02*
X64387000Y-65835000D01*
X66148000Y-66295000D02*
X66148000Y-64779000D01*
X65427000Y-66295000D02*
X65427000Y-64987000D01*
X63987000Y-68012000D02*
X63987000Y-66658000D01*
X64947000Y-66295000D02*
X64947000Y-65270000D01*
X64987000Y-66295000D02*
X64987000Y-65240000D01*
X65747000Y-69803000D02*
X65747000Y-68375000D01*
X65507000Y-66295000D02*
X65507000Y-64953000D01*
X65627000Y-66295000D02*
X65627000Y-64907000D01*
X65427000Y-69683000D02*
X65427000Y-68375000D01*
X65267000Y-66295000D02*
X65267000Y-65067000D01*
X64627000Y-69120000D02*
X64627000Y-68375000D01*
X64987000Y-69430000D02*
X64987000Y-68375000D01*
X66188000Y-66295000D02*
X66188000Y-64774000D01*
X65587000Y-66295000D02*
X65587000Y-64921000D01*
X65547000Y-66295000D02*
X65547000Y-64937000D01*
X66348000Y-66295000D02*
X66348000Y-64759000D01*
X65507000Y-69717000D02*
X65507000Y-68375000D01*
X65828000Y-69826000D02*
X65828000Y-68375000D01*
X64107000Y-68346000D02*
X64107000Y-66324000D01*
X64427000Y-68889000D02*
X64427000Y-65781000D01*
X64067000Y-68250000D02*
X64067000Y-66420000D01*
X69312775Y-68810000D02*
X68812775Y-68810000D01*
X66508000Y-66295000D02*
X66508000Y-64755000D01*
X65707000Y-69790000D02*
X65707000Y-68375000D01*
X65027000Y-69457000D02*
X65027000Y-68375000D01*
X65307000Y-66295000D02*
X65307000Y-65045000D01*
X65147000Y-69535000D02*
X65147000Y-68375000D01*
X64707000Y-69199000D02*
X64707000Y-68375000D01*
X64587000Y-66295000D02*
X64587000Y-65592000D01*
X64147000Y-68433000D02*
X64147000Y-66237000D01*
X66388000Y-69913000D02*
X66388000Y-68375000D01*
X66228000Y-69900000D02*
X66228000Y-68375000D01*
X66428000Y-69914000D02*
X66428000Y-68375000D01*
X66308000Y-69908000D02*
X66308000Y-68375000D01*
X64707000Y-66295000D02*
X64707000Y-65471000D01*
X65387000Y-66295000D02*
X65387000Y-65006000D01*
X63947000Y-67853000D02*
X63947000Y-66817000D01*
X63907000Y-67619000D02*
X63907000Y-67051000D01*
X65908000Y-66295000D02*
X65908000Y-64824000D01*
X64787000Y-66295000D02*
X64787000Y-65398000D01*
X65347000Y-66295000D02*
X65347000Y-65025000D01*
X66108000Y-66295000D02*
X66108000Y-64785000D01*
X64267000Y-68654000D02*
X64267000Y-66016000D01*
X64307000Y-68718000D02*
X64307000Y-65952000D01*
X65547000Y-69733000D02*
X65547000Y-68375000D01*
X65227000Y-69582000D02*
X65227000Y-68375000D01*
X64187000Y-68513000D02*
X64187000Y-66157000D01*
X65147000Y-66295000D02*
X65147000Y-65135000D01*
X64587000Y-69078000D02*
X64587000Y-68375000D01*
X64907000Y-69370000D02*
X64907000Y-68375000D01*
X64467000Y-68940000D02*
X64467000Y-65730000D01*
X65027000Y-66295000D02*
X65027000Y-65213000D01*
X65747000Y-66295000D02*
X65747000Y-64867000D01*
X65988000Y-66295000D02*
X65988000Y-64807000D01*
X65667000Y-69777000D02*
X65667000Y-68375000D01*
X66148000Y-69891000D02*
X66148000Y-68375000D01*
X66068000Y-66295000D02*
X66068000Y-64792000D01*
X64347000Y-68778000D02*
X64347000Y-65892000D01*
X64667000Y-66295000D02*
X64667000Y-65509000D01*
X65707000Y-66295000D02*
X65707000Y-64880000D01*
X66228000Y-66295000D02*
X66228000Y-64770000D01*
X66428000Y-66295000D02*
X66428000Y-64756000D01*
X65828000Y-66295000D02*
X65828000Y-64844000D01*
X64627000Y-66295000D02*
X64627000Y-65550000D01*
X65787000Y-69815000D02*
X65787000Y-68375000D01*
X64867000Y-69339000D02*
X64867000Y-68375000D01*
X65067000Y-66295000D02*
X65067000Y-65186000D01*
X65107000Y-69510000D02*
X65107000Y-68375000D01*
X65307000Y-69625000D02*
X65307000Y-68375000D01*
X66268000Y-69904000D02*
X66268000Y-68375000D01*
X64787000Y-69272000D02*
X64787000Y-68375000D01*
X66068000Y-69878000D02*
X66068000Y-68375000D01*
X65868000Y-66295000D02*
X65868000Y-64834000D01*
X65187000Y-69559000D02*
X65187000Y-68375000D01*
X69062775Y-69060000D02*
X69062775Y-68560000D01*
X66108000Y-69885000D02*
X66108000Y-68375000D01*
X64827000Y-66295000D02*
X64827000Y-65364000D01*
X66028000Y-66295000D02*
X66028000Y-64799000D01*
X65948000Y-69855000D02*
X65948000Y-68375000D01*
X64907000Y-66295000D02*
X64907000Y-65300000D01*
X64747000Y-66295000D02*
X64747000Y-65434000D01*
X66468000Y-69915000D02*
X66468000Y-68375000D01*
X65868000Y-69836000D02*
X65868000Y-68375000D01*
X64547000Y-69034000D02*
X64547000Y-68375000D01*
X69128000Y-67335000D02*
G75*
G03*
X69128000Y-67335000I-2620000J0D01*
G01*
%TO.C,C20*%
X64507000Y-64595000D02*
X64507000Y-63982000D01*
X65187000Y-64595000D02*
X65187000Y-63411000D01*
X66308000Y-64595000D02*
X66308000Y-63062000D01*
X65267000Y-67903000D02*
X65267000Y-66675000D01*
X65387000Y-67964000D02*
X65387000Y-66675000D01*
X65347000Y-67945000D02*
X65347000Y-66675000D01*
X64827000Y-67606000D02*
X64827000Y-66675000D01*
X64547000Y-64595000D02*
X64547000Y-63936000D01*
X64867000Y-64595000D02*
X64867000Y-63631000D01*
X66348000Y-68211000D02*
X66348000Y-66675000D01*
X64947000Y-67700000D02*
X64947000Y-66675000D01*
X66468000Y-64595000D02*
X66468000Y-63055000D01*
X65787000Y-64595000D02*
X65787000Y-63155000D01*
X65627000Y-68063000D02*
X65627000Y-66675000D01*
X65587000Y-68049000D02*
X65587000Y-66675000D01*
X64747000Y-67536000D02*
X64747000Y-66675000D01*
X65908000Y-68146000D02*
X65908000Y-66675000D01*
X66268000Y-64595000D02*
X66268000Y-63066000D01*
X65667000Y-64595000D02*
X65667000Y-63193000D01*
X65948000Y-64595000D02*
X65948000Y-63115000D01*
X65227000Y-64595000D02*
X65227000Y-63388000D01*
X65107000Y-64595000D02*
X65107000Y-63460000D01*
X66388000Y-64595000D02*
X66388000Y-63057000D01*
X65988000Y-68163000D02*
X65988000Y-66675000D01*
X65067000Y-67784000D02*
X65067000Y-66675000D01*
X64667000Y-67461000D02*
X64667000Y-66675000D01*
X64507000Y-67288000D02*
X64507000Y-66675000D01*
X65467000Y-64595000D02*
X65467000Y-63270000D01*
X66508000Y-68215000D02*
X66508000Y-66675000D01*
X66188000Y-68196000D02*
X66188000Y-66675000D01*
X65467000Y-68000000D02*
X65467000Y-66675000D01*
X66028000Y-68171000D02*
X66028000Y-66675000D01*
X64027000Y-66440000D02*
X64027000Y-64830000D01*
X64227000Y-66886000D02*
X64227000Y-64384000D01*
X64387000Y-67135000D02*
X64387000Y-64135000D01*
X66148000Y-64595000D02*
X66148000Y-63079000D01*
X65427000Y-64595000D02*
X65427000Y-63287000D01*
X63987000Y-66312000D02*
X63987000Y-64958000D01*
X64947000Y-64595000D02*
X64947000Y-63570000D01*
X64987000Y-64595000D02*
X64987000Y-63540000D01*
X65747000Y-68103000D02*
X65747000Y-66675000D01*
X65507000Y-64595000D02*
X65507000Y-63253000D01*
X65627000Y-64595000D02*
X65627000Y-63207000D01*
X65427000Y-67983000D02*
X65427000Y-66675000D01*
X65267000Y-64595000D02*
X65267000Y-63367000D01*
X64627000Y-67420000D02*
X64627000Y-66675000D01*
X64987000Y-67730000D02*
X64987000Y-66675000D01*
X66188000Y-64595000D02*
X66188000Y-63074000D01*
X65587000Y-64595000D02*
X65587000Y-63221000D01*
X65547000Y-64595000D02*
X65547000Y-63237000D01*
X66348000Y-64595000D02*
X66348000Y-63059000D01*
X65507000Y-68017000D02*
X65507000Y-66675000D01*
X65828000Y-68126000D02*
X65828000Y-66675000D01*
X64107000Y-66646000D02*
X64107000Y-64624000D01*
X64427000Y-67189000D02*
X64427000Y-64081000D01*
X64067000Y-66550000D02*
X64067000Y-64720000D01*
X69312775Y-67110000D02*
X68812775Y-67110000D01*
X66508000Y-64595000D02*
X66508000Y-63055000D01*
X65707000Y-68090000D02*
X65707000Y-66675000D01*
X65027000Y-67757000D02*
X65027000Y-66675000D01*
X65307000Y-64595000D02*
X65307000Y-63345000D01*
X65147000Y-67835000D02*
X65147000Y-66675000D01*
X64707000Y-67499000D02*
X64707000Y-66675000D01*
X64587000Y-64595000D02*
X64587000Y-63892000D01*
X64147000Y-66733000D02*
X64147000Y-64537000D01*
X66388000Y-68213000D02*
X66388000Y-66675000D01*
X66228000Y-68200000D02*
X66228000Y-66675000D01*
X66428000Y-68214000D02*
X66428000Y-66675000D01*
X66308000Y-68208000D02*
X66308000Y-66675000D01*
X64707000Y-64595000D02*
X64707000Y-63771000D01*
X65387000Y-64595000D02*
X65387000Y-63306000D01*
X63947000Y-66153000D02*
X63947000Y-65117000D01*
X63907000Y-65919000D02*
X63907000Y-65351000D01*
X65908000Y-64595000D02*
X65908000Y-63124000D01*
X64787000Y-64595000D02*
X64787000Y-63698000D01*
X65347000Y-64595000D02*
X65347000Y-63325000D01*
X66108000Y-64595000D02*
X66108000Y-63085000D01*
X64267000Y-66954000D02*
X64267000Y-64316000D01*
X64307000Y-67018000D02*
X64307000Y-64252000D01*
X65547000Y-68033000D02*
X65547000Y-66675000D01*
X65227000Y-67882000D02*
X65227000Y-66675000D01*
X64187000Y-66813000D02*
X64187000Y-64457000D01*
X65147000Y-64595000D02*
X65147000Y-63435000D01*
X64587000Y-67378000D02*
X64587000Y-66675000D01*
X64907000Y-67670000D02*
X64907000Y-66675000D01*
X64467000Y-67240000D02*
X64467000Y-64030000D01*
X65027000Y-64595000D02*
X65027000Y-63513000D01*
X65747000Y-64595000D02*
X65747000Y-63167000D01*
X65988000Y-64595000D02*
X65988000Y-63107000D01*
X65667000Y-68077000D02*
X65667000Y-66675000D01*
X66148000Y-68191000D02*
X66148000Y-66675000D01*
X66068000Y-64595000D02*
X66068000Y-63092000D01*
X64347000Y-67078000D02*
X64347000Y-64192000D01*
X64667000Y-64595000D02*
X64667000Y-63809000D01*
X65707000Y-64595000D02*
X65707000Y-63180000D01*
X66228000Y-64595000D02*
X66228000Y-63070000D01*
X66428000Y-64595000D02*
X66428000Y-63056000D01*
X65828000Y-64595000D02*
X65828000Y-63144000D01*
X64627000Y-64595000D02*
X64627000Y-63850000D01*
X65787000Y-68115000D02*
X65787000Y-66675000D01*
X64867000Y-67639000D02*
X64867000Y-66675000D01*
X65067000Y-64595000D02*
X65067000Y-63486000D01*
X65107000Y-67810000D02*
X65107000Y-66675000D01*
X65307000Y-67925000D02*
X65307000Y-66675000D01*
X66268000Y-68204000D02*
X66268000Y-66675000D01*
X64787000Y-67572000D02*
X64787000Y-66675000D01*
X66068000Y-68178000D02*
X66068000Y-66675000D01*
X65868000Y-64595000D02*
X65868000Y-63134000D01*
X65187000Y-67859000D02*
X65187000Y-66675000D01*
X69062775Y-67360000D02*
X69062775Y-66860000D01*
X66108000Y-68185000D02*
X66108000Y-66675000D01*
X64827000Y-64595000D02*
X64827000Y-63664000D01*
X66028000Y-64595000D02*
X66028000Y-63099000D01*
X65948000Y-68155000D02*
X65948000Y-66675000D01*
X64907000Y-64595000D02*
X64907000Y-63600000D01*
X64747000Y-64595000D02*
X64747000Y-63734000D01*
X66468000Y-68215000D02*
X66468000Y-66675000D01*
X65868000Y-68136000D02*
X65868000Y-66675000D01*
X64547000Y-67334000D02*
X64547000Y-66675000D01*
X69128000Y-65635000D02*
G75*
G03*
X69128000Y-65635000I-2620000J0D01*
G01*
%TO.C,J4*%
X188893000Y-93340000D02*
X188893000Y-94035000D01*
X183648000Y-93340000D02*
X183648000Y-93640507D01*
X187523000Y-94730000D02*
X183648000Y-94730000D01*
X187523000Y-93340000D02*
X187523000Y-93426724D01*
X187523000Y-94643276D02*
X187523000Y-94730000D01*
X188208000Y-93340000D02*
X188893000Y-93340000D01*
X187523000Y-93340000D02*
X183648000Y-93340000D01*
X183648000Y-94429493D02*
X183648000Y-94730000D01*
%TO.C,U15*%
X185798000Y-103145000D02*
X185798000Y-102670000D01*
X191018000Y-103145000D02*
X191018000Y-102670000D01*
X191018000Y-97925000D02*
X191018000Y-98400000D01*
X190543000Y-97925000D02*
X191018000Y-97925000D01*
X186273000Y-103145000D02*
X185798000Y-103145000D01*
X186273000Y-97925000D02*
X185798000Y-97925000D01*
X190543000Y-103145000D02*
X191018000Y-103145000D01*
%TO.C,PWREG1*%
X75008000Y-60145000D02*
X73508000Y-60145000D01*
X75008000Y-56925000D02*
X72083000Y-56925000D01*
X75008000Y-60145000D02*
X76508000Y-60145000D01*
X75008000Y-56925000D02*
X76508000Y-56925000D01*
%TO.C,R8*%
X186220258Y-91012500D02*
X185745742Y-91012500D01*
X186220258Y-92057500D02*
X185745742Y-92057500D01*
%TO.C,R21*%
X181975258Y-124400500D02*
X181500742Y-124400500D01*
X181975258Y-125445500D02*
X181500742Y-125445500D01*
%TO.C,J3*%
X138238000Y-35315000D02*
X138238000Y-34795000D01*
X137468000Y-49015000D02*
X135158000Y-49015000D01*
X123378000Y-34795000D02*
X123378000Y-35315000D01*
X138238000Y-34795000D02*
X123378000Y-34795000D01*
X137468000Y-49015000D02*
X137468000Y-46945000D01*
X128958000Y-49005000D02*
X128138000Y-49005000D01*
X123378000Y-35315000D02*
X124148000Y-35315000D01*
X137468000Y-35315000D02*
X137468000Y-43425000D01*
X137468000Y-35315000D02*
X138238000Y-35315000D01*
X124148000Y-43425000D02*
X124148000Y-35315000D01*
X126458000Y-49015000D02*
X124148000Y-49015000D01*
X124148000Y-49015000D02*
X124148000Y-46945000D01*
X130978000Y-49005000D02*
X130638000Y-49005000D01*
X135158000Y-50305000D02*
X135158000Y-49015000D01*
X133478000Y-49005000D02*
X132658000Y-49005000D01*
%TO.C,U6*%
X78631000Y-43338000D02*
X79931000Y-43338000D01*
X79931000Y-40218000D02*
X77931000Y-40218000D01*
%TO.C,ERAM2*%
X223018000Y-102825000D02*
X223018000Y-108015000D01*
X223018000Y-108015000D02*
X222638000Y-108015000D01*
X223018000Y-97635000D02*
X222638000Y-97635000D01*
X204388000Y-102825000D02*
X204388000Y-108015000D01*
X204388000Y-102825000D02*
X204388000Y-97635000D01*
X204388000Y-97635000D02*
X204768000Y-97635000D01*
X204388000Y-108015000D02*
X204768000Y-108015000D01*
X223018000Y-102825000D02*
X223018000Y-97635000D01*
X222638000Y-97635000D02*
X222638000Y-96475000D01*
%TO.C,U2*%
X137708000Y-72445000D02*
X141308000Y-72445000D01*
X137708000Y-72445000D02*
X135508000Y-72445000D01*
X137708000Y-67225000D02*
X135508000Y-67225000D01*
X137708000Y-67225000D02*
X139908000Y-67225000D01*
%TO.C,D1*%
X144888000Y-74275000D02*
X144888000Y-74605000D01*
X144888000Y-74605000D02*
X150328000Y-74605000D01*
X144888000Y-71665000D02*
X150328000Y-71665000D01*
X145788000Y-71665000D02*
X145788000Y-74605000D01*
X145668000Y-71665000D02*
X145668000Y-74605000D01*
X145908000Y-71665000D02*
X145908000Y-74605000D01*
X144888000Y-71995000D02*
X144888000Y-71665000D01*
X150328000Y-74605000D02*
X150328000Y-74275000D01*
X150328000Y-71665000D02*
X150328000Y-71995000D01*
%TO.C,R20*%
X181975258Y-123921500D02*
X181500742Y-123921500D01*
X181975258Y-122876500D02*
X181500742Y-122876500D01*
%TO.C,J1*%
X60993000Y-46906000D02*
X60993000Y-40846000D01*
X60993000Y-33686000D02*
X71213000Y-33686000D01*
X67103000Y-47096000D02*
X65103000Y-47096000D01*
X60993000Y-36746000D02*
X60993000Y-33686000D01*
X63803000Y-46906000D02*
X60993000Y-46906000D01*
X71213000Y-33686000D02*
X71213000Y-36746000D01*
X71213000Y-46906000D02*
X68403000Y-46906000D01*
X71213000Y-40846000D02*
X71213000Y-46906000D01*
%TO.C,R17*%
X190103258Y-114240500D02*
X189628742Y-114240500D01*
X190103258Y-115285500D02*
X189628742Y-115285500D01*
%TO.C,U7*%
X185518000Y-50725000D02*
X185518000Y-51025000D01*
X178298000Y-57945000D02*
X178298000Y-57645000D01*
X185218000Y-57945000D02*
X185518000Y-57945000D01*
X178598000Y-50725000D02*
X178298000Y-50725000D01*
X185218000Y-50725000D02*
X185518000Y-50725000D01*
X178298000Y-51025000D02*
X176983000Y-51025000D01*
X178298000Y-50725000D02*
X178298000Y-51025000D01*
X185518000Y-57945000D02*
X185518000Y-57645000D01*
X178598000Y-57945000D02*
X178298000Y-57945000D01*
%TO.C,R35*%
X137177742Y-99762500D02*
X137652258Y-99762500D01*
X137177742Y-100807500D02*
X137652258Y-100807500D01*
%TO.C,C14*%
X75176349Y-122242000D02*
X75176349Y-124391000D01*
X73496349Y-121446000D02*
X73496349Y-124391000D01*
X74336349Y-121727000D02*
X74336349Y-124391000D01*
X76576349Y-124333000D02*
X76576349Y-126529000D01*
X73536349Y-121455000D02*
X73536349Y-124391000D01*
X73656349Y-126471000D02*
X73656349Y-129378000D01*
X74816349Y-126471000D02*
X74816349Y-128875000D01*
X75296349Y-122341000D02*
X75296349Y-124391000D01*
X74096349Y-121626000D02*
X74096349Y-124391000D01*
X73696349Y-126471000D02*
X73696349Y-129367000D01*
X73816349Y-126471000D02*
X73816349Y-129333000D01*
X74296349Y-126471000D02*
X74296349Y-129153000D01*
X72855349Y-121357000D02*
X72855349Y-129505000D01*
X74616349Y-121869000D02*
X74616349Y-124391000D01*
X76496349Y-124085000D02*
X76496349Y-126777000D01*
X74376349Y-126471000D02*
X74376349Y-129117000D01*
X73736349Y-121506000D02*
X73736349Y-124391000D01*
X73816349Y-121529000D02*
X73816349Y-124391000D01*
X76376349Y-123786000D02*
X76376349Y-127076000D01*
X74496349Y-121804000D02*
X74496349Y-124391000D01*
X73936349Y-121568000D02*
X73936349Y-124391000D01*
X75336349Y-122376000D02*
X75336349Y-124391000D01*
X72695349Y-121351000D02*
X72695349Y-129511000D01*
X74016349Y-121596000D02*
X74016349Y-124391000D01*
X75736349Y-122780000D02*
X75736349Y-128082000D01*
X68205651Y-123116000D02*
X69005651Y-123116000D01*
X76696349Y-124898000D02*
X76696349Y-125964000D01*
X73295349Y-121407000D02*
X73295349Y-129455000D01*
X73215349Y-121394000D02*
X73215349Y-129468000D01*
X72655349Y-121351000D02*
X72655349Y-129511000D01*
X75176349Y-126471000D02*
X75176349Y-128620000D01*
X73175349Y-121389000D02*
X73175349Y-129473000D01*
X74016349Y-126471000D02*
X74016349Y-129266000D01*
X74456349Y-121784000D02*
X74456349Y-124391000D01*
X73616349Y-121474000D02*
X73616349Y-124391000D01*
X73536349Y-126471000D02*
X73536349Y-129407000D01*
X76016349Y-123144000D02*
X76016349Y-127718000D01*
X75816349Y-122875000D02*
X75816349Y-127987000D01*
X73896349Y-121554000D02*
X73896349Y-124391000D01*
X76256349Y-123541000D02*
X76256349Y-127321000D01*
X75856349Y-122926000D02*
X75856349Y-127936000D01*
X74696349Y-121914000D02*
X74696349Y-124391000D01*
X74496349Y-126471000D02*
X74496349Y-129058000D01*
X74336349Y-126471000D02*
X74336349Y-129135000D01*
X73015349Y-121370000D02*
X73015349Y-129492000D01*
X75576349Y-122605000D02*
X75576349Y-128257000D01*
X73976349Y-126471000D02*
X73976349Y-129281000D01*
X72615349Y-121351000D02*
X72615349Y-129511000D01*
X75456349Y-122486000D02*
X75456349Y-124391000D01*
X74136349Y-121641000D02*
X74136349Y-124391000D01*
X75416349Y-122448000D02*
X75416349Y-124391000D01*
X74856349Y-126471000D02*
X74856349Y-128849000D01*
X76216349Y-123467000D02*
X76216349Y-127395000D01*
X76096349Y-123265000D02*
X76096349Y-127597000D01*
X75496349Y-126471000D02*
X75496349Y-128338000D01*
X72895349Y-121360000D02*
X72895349Y-129502000D01*
X74136349Y-126471000D02*
X74136349Y-129221000D01*
X76656349Y-124663000D02*
X76656349Y-126199000D01*
X75016349Y-126471000D02*
X75016349Y-128740000D01*
X74736349Y-126471000D02*
X74736349Y-128924000D01*
X76336349Y-123700000D02*
X76336349Y-127162000D01*
X73055349Y-121374000D02*
X73055349Y-129488000D01*
X75056349Y-126471000D02*
X75056349Y-128711000D01*
X74936349Y-122066000D02*
X74936349Y-124391000D01*
X73776349Y-126471000D02*
X73776349Y-129345000D01*
X73456349Y-121437000D02*
X73456349Y-129425000D01*
X75776349Y-122827000D02*
X75776349Y-128035000D01*
X74416349Y-126471000D02*
X74416349Y-129097000D01*
X74376349Y-121745000D02*
X74376349Y-124391000D01*
X73856349Y-121542000D02*
X73856349Y-124391000D01*
X75456349Y-126471000D02*
X75456349Y-128376000D01*
X74896349Y-126471000D02*
X74896349Y-128823000D01*
X73856349Y-126471000D02*
X73856349Y-129320000D01*
X73696349Y-121495000D02*
X73696349Y-124391000D01*
X74656349Y-126471000D02*
X74656349Y-128971000D01*
X75536349Y-126471000D02*
X75536349Y-128298000D01*
X73576349Y-121464000D02*
X73576349Y-124391000D01*
X74856349Y-122013000D02*
X74856349Y-124391000D01*
X74896349Y-122039000D02*
X74896349Y-124391000D01*
X73896349Y-126471000D02*
X73896349Y-129308000D01*
X73255349Y-121401000D02*
X73255349Y-129461000D01*
X75976349Y-123086000D02*
X75976349Y-127776000D01*
X75536349Y-122564000D02*
X75536349Y-124391000D01*
X74056349Y-126471000D02*
X74056349Y-129252000D01*
X76456349Y-123978000D02*
X76456349Y-126884000D01*
X74216349Y-126471000D02*
X74216349Y-129188000D01*
X73496349Y-126471000D02*
X73496349Y-129416000D01*
X73376349Y-121421000D02*
X73376349Y-129441000D01*
X74616349Y-126471000D02*
X74616349Y-128993000D01*
X75656349Y-122690000D02*
X75656349Y-128172000D01*
X74656349Y-121891000D02*
X74656349Y-124391000D01*
X74696349Y-126471000D02*
X74696349Y-128948000D01*
X75336349Y-126471000D02*
X75336349Y-128486000D01*
X73736349Y-126471000D02*
X73736349Y-129356000D01*
X73656349Y-121484000D02*
X73656349Y-124391000D01*
X75216349Y-126471000D02*
X75216349Y-128587000D01*
X75216349Y-122275000D02*
X75216349Y-124391000D01*
X75136349Y-122211000D02*
X75136349Y-124391000D01*
X73576349Y-126471000D02*
X73576349Y-129398000D01*
X74816349Y-121987000D02*
X74816349Y-124391000D01*
X74736349Y-121938000D02*
X74736349Y-124391000D01*
X74536349Y-126471000D02*
X74536349Y-129037000D01*
X74416349Y-121765000D02*
X74416349Y-124391000D01*
X74776349Y-121962000D02*
X74776349Y-124391000D01*
X76536349Y-124202000D02*
X76536349Y-126660000D01*
X74216349Y-121674000D02*
X74216349Y-124391000D01*
X75416349Y-126471000D02*
X75416349Y-128414000D01*
X74056349Y-121610000D02*
X74056349Y-124391000D01*
X75896349Y-122977000D02*
X75896349Y-127885000D01*
X75376349Y-122412000D02*
X75376349Y-124391000D01*
X76136349Y-123329000D02*
X76136349Y-127533000D01*
X75256349Y-122307000D02*
X75256349Y-124391000D01*
X75096349Y-122181000D02*
X75096349Y-124391000D01*
X74536349Y-121825000D02*
X74536349Y-124391000D01*
X76176349Y-123397000D02*
X76176349Y-127465000D01*
X75496349Y-122524000D02*
X75496349Y-124391000D01*
X75616349Y-122647000D02*
X75616349Y-128215000D01*
X74936349Y-126471000D02*
X74936349Y-128796000D01*
X73336349Y-121414000D02*
X73336349Y-129448000D01*
X76416349Y-123879000D02*
X76416349Y-126983000D01*
X74096349Y-126471000D02*
X74096349Y-129236000D01*
X74456349Y-126471000D02*
X74456349Y-129078000D01*
X72775349Y-121354000D02*
X72775349Y-129508000D01*
X74296349Y-121709000D02*
X74296349Y-124391000D01*
X74256349Y-121691000D02*
X74256349Y-124391000D01*
X74776349Y-126471000D02*
X74776349Y-128900000D01*
X72815349Y-121355000D02*
X72815349Y-129507000D01*
X73936349Y-126471000D02*
X73936349Y-129294000D01*
X75096349Y-126471000D02*
X75096349Y-128681000D01*
X75696349Y-122734000D02*
X75696349Y-128128000D01*
X74256349Y-126471000D02*
X74256349Y-129171000D01*
X75016349Y-122122000D02*
X75016349Y-124391000D01*
X75056349Y-122151000D02*
X75056349Y-124391000D01*
X75296349Y-126471000D02*
X75296349Y-128521000D01*
X73616349Y-126471000D02*
X73616349Y-129388000D01*
X73976349Y-121581000D02*
X73976349Y-124391000D01*
X73776349Y-121517000D02*
X73776349Y-124391000D01*
X74976349Y-122093000D02*
X74976349Y-124391000D01*
X75936349Y-123031000D02*
X75936349Y-127831000D01*
X74176349Y-121657000D02*
X74176349Y-124391000D01*
X75376349Y-126471000D02*
X75376349Y-128450000D01*
X73416349Y-121429000D02*
X73416349Y-129433000D01*
X75256349Y-126471000D02*
X75256349Y-128555000D01*
X72935349Y-121363000D02*
X72935349Y-129499000D01*
X74576349Y-121847000D02*
X74576349Y-124391000D01*
X75136349Y-126471000D02*
X75136349Y-128651000D01*
X74576349Y-126471000D02*
X74576349Y-129015000D01*
X74976349Y-126471000D02*
X74976349Y-128769000D01*
X73095349Y-121379000D02*
X73095349Y-129483000D01*
X68605651Y-122716000D02*
X68605651Y-123516000D01*
X72735349Y-121352000D02*
X72735349Y-129510000D01*
X76056349Y-123203000D02*
X76056349Y-127659000D01*
X74176349Y-126471000D02*
X74176349Y-129205000D01*
X76616349Y-124483000D02*
X76616349Y-126379000D01*
X76296349Y-123618000D02*
X76296349Y-127244000D01*
X72975349Y-121366000D02*
X72975349Y-129496000D01*
X73135349Y-121383000D02*
X73135349Y-129479000D01*
X76735349Y-125431000D02*
G75*
G03*
X76735349Y-125431000I-4120000J0D01*
G01*
%TO.C,RP2*%
X138815000Y-132220000D02*
X138815000Y-109020000D01*
X138815000Y-109020000D02*
X136015000Y-109020000D01*
X136015000Y-109020000D02*
X136015000Y-132220000D01*
X136015000Y-132220000D02*
X138815000Y-132220000D01*
X136015000Y-129510000D02*
X138815000Y-129510000D01*
%TO.C,U11*%
X231118000Y-137535000D02*
X231118000Y-135335000D01*
X225898000Y-137535000D02*
X225898000Y-135335000D01*
X231118000Y-137535000D02*
X231118000Y-139735000D01*
X225898000Y-137535000D02*
X225898000Y-141135000D01*
%TO.C,R4*%
X194985064Y-83925000D02*
X193530936Y-83925000D01*
X194985064Y-85745000D02*
X193530936Y-85745000D01*
%TO.C,C23*%
X161096748Y-49825000D02*
X162519252Y-49825000D01*
X161096748Y-51645000D02*
X162519252Y-51645000D01*
%TO.C,R18*%
X190103258Y-117057500D02*
X189628742Y-117057500D01*
X190103258Y-116012500D02*
X189628742Y-116012500D01*
%TO.C,R12*%
X190103258Y-107665500D02*
X189628742Y-107665500D01*
X190103258Y-106620500D02*
X189628742Y-106620500D01*
%TO.C,R22*%
X181975258Y-125924500D02*
X181500742Y-125924500D01*
X181975258Y-126969500D02*
X181500742Y-126969500D01*
%TO.C,R6*%
X145670742Y-54312500D02*
X146145258Y-54312500D01*
X145670742Y-55357500D02*
X146145258Y-55357500D01*
%TO.C,C4*%
X137364252Y-98655000D02*
X135941748Y-98655000D01*
X137364252Y-96835000D02*
X135941748Y-96835000D01*
%TO.C,C13*%
X76778349Y-110317000D02*
X76778349Y-114891000D01*
X74458349Y-113644000D02*
X74458349Y-116540000D01*
X73617349Y-108530000D02*
X73617349Y-116678000D01*
X73857349Y-108552000D02*
X73857349Y-116656000D01*
X75018349Y-108864000D02*
X75018349Y-111564000D01*
X75818349Y-113644000D02*
X75818349Y-115884000D01*
X75898349Y-109384000D02*
X75898349Y-111564000D01*
X69367651Y-109889000D02*
X69367651Y-110689000D01*
X76018349Y-113644000D02*
X76018349Y-115728000D01*
X75178349Y-113644000D02*
X75178349Y-116270000D01*
X75618349Y-109186000D02*
X75618349Y-111564000D01*
X75258349Y-113644000D02*
X75258349Y-116231000D01*
X77458349Y-112071000D02*
X77458349Y-113137000D01*
X75298349Y-113644000D02*
X75298349Y-116210000D01*
X76898349Y-110502000D02*
X76898349Y-114706000D01*
X73657349Y-108533000D02*
X73657349Y-116675000D01*
X76098349Y-113644000D02*
X76098349Y-115659000D01*
X75938349Y-109415000D02*
X75938349Y-111564000D01*
X73897349Y-108556000D02*
X73897349Y-116652000D01*
X75018349Y-113644000D02*
X75018349Y-116344000D01*
X76338349Y-109778000D02*
X76338349Y-115430000D01*
X74338349Y-108637000D02*
X74338349Y-111564000D01*
X75978349Y-109448000D02*
X75978349Y-111564000D01*
X74698349Y-108741000D02*
X74698349Y-111564000D01*
X76138349Y-113644000D02*
X76138349Y-115623000D01*
X77138349Y-110959000D02*
X77138349Y-114249000D01*
X74858349Y-113644000D02*
X74858349Y-116409000D01*
X76858349Y-110438000D02*
X76858349Y-114770000D01*
X76138349Y-109585000D02*
X76138349Y-111564000D01*
X77098349Y-110873000D02*
X77098349Y-114335000D01*
X76618349Y-110099000D02*
X76618349Y-115109000D01*
X74498349Y-113644000D02*
X74498349Y-116529000D01*
X74017349Y-108574000D02*
X74017349Y-116634000D01*
X77058349Y-110791000D02*
X77058349Y-114417000D01*
X74938349Y-113644000D02*
X74938349Y-116378000D01*
X76298349Y-109737000D02*
X76298349Y-111564000D01*
X73457349Y-108524000D02*
X73457349Y-116684000D01*
X75138349Y-113644000D02*
X75138349Y-116290000D01*
X74218349Y-108610000D02*
X74218349Y-116598000D01*
X76978349Y-110640000D02*
X76978349Y-114568000D01*
X74057349Y-108580000D02*
X74057349Y-116628000D01*
X74778349Y-108769000D02*
X74778349Y-111564000D01*
X74818349Y-113644000D02*
X74818349Y-116425000D01*
X74258349Y-113644000D02*
X74258349Y-116589000D01*
X77218349Y-111151000D02*
X77218349Y-114057000D01*
X74818349Y-108783000D02*
X74818349Y-111564000D01*
X77298349Y-111375000D02*
X77298349Y-113833000D01*
X74658349Y-113644000D02*
X74658349Y-116481000D01*
X75658349Y-109212000D02*
X75658349Y-111564000D01*
X74178349Y-108602000D02*
X74178349Y-116606000D01*
X74138349Y-108594000D02*
X74138349Y-116614000D01*
X73577349Y-108528000D02*
X73577349Y-116680000D01*
X75738349Y-113644000D02*
X75738349Y-115942000D01*
X75378349Y-109042000D02*
X75378349Y-111564000D01*
X74298349Y-108628000D02*
X74298349Y-111564000D01*
X74898349Y-108814000D02*
X74898349Y-111564000D01*
X75538349Y-113644000D02*
X75538349Y-116073000D01*
X76698349Y-110204000D02*
X76698349Y-115004000D01*
X73537349Y-108527000D02*
X73537349Y-116681000D01*
X75178349Y-108938000D02*
X75178349Y-111564000D01*
X75578349Y-109160000D02*
X75578349Y-111564000D01*
X75218349Y-108957000D02*
X75218349Y-111564000D01*
X75138349Y-108918000D02*
X75138349Y-111564000D01*
X75498349Y-109111000D02*
X75498349Y-111564000D01*
X76538349Y-110000000D02*
X76538349Y-115208000D01*
X75858349Y-109354000D02*
X75858349Y-111564000D01*
X75458349Y-109087000D02*
X75458349Y-111564000D01*
X77378349Y-111656000D02*
X77378349Y-113552000D01*
X76818349Y-110376000D02*
X76818349Y-114832000D01*
X74698349Y-113644000D02*
X74698349Y-116467000D01*
X73737349Y-108539000D02*
X73737349Y-116669000D01*
X74618349Y-108715000D02*
X74618349Y-111564000D01*
X75258349Y-108977000D02*
X75258349Y-111564000D01*
X74338349Y-113644000D02*
X74338349Y-116571000D01*
X77178349Y-111052000D02*
X77178349Y-114156000D01*
X76578349Y-110048000D02*
X76578349Y-115160000D01*
X76178349Y-113644000D02*
X76178349Y-115587000D01*
X77258349Y-111258000D02*
X77258349Y-113950000D01*
X75738349Y-109266000D02*
X75738349Y-111564000D01*
X74978349Y-108847000D02*
X74978349Y-111564000D01*
X76058349Y-109514000D02*
X76058349Y-111564000D01*
X75778349Y-109295000D02*
X75778349Y-111564000D01*
X75418349Y-113644000D02*
X75418349Y-116144000D01*
X74778349Y-113644000D02*
X74778349Y-116439000D01*
X74618349Y-113644000D02*
X74618349Y-116493000D01*
X74538349Y-108690000D02*
X74538349Y-111564000D01*
X74298349Y-113644000D02*
X74298349Y-116580000D01*
X75098349Y-113644000D02*
X75098349Y-116308000D01*
X74938349Y-108830000D02*
X74938349Y-111564000D01*
X75418349Y-109064000D02*
X75418349Y-111564000D01*
X74858349Y-108799000D02*
X74858349Y-111564000D01*
X76098349Y-109549000D02*
X76098349Y-111564000D01*
X76258349Y-109697000D02*
X76258349Y-111564000D01*
X73417349Y-108524000D02*
X73417349Y-116684000D01*
X76218349Y-113644000D02*
X76218349Y-115549000D01*
X75898349Y-113644000D02*
X75898349Y-115824000D01*
X73377349Y-108524000D02*
X73377349Y-116684000D01*
X75578349Y-113644000D02*
X75578349Y-116048000D01*
X76218349Y-109659000D02*
X76218349Y-111564000D01*
X75698349Y-113644000D02*
X75698349Y-115969000D01*
X75858349Y-113644000D02*
X75858349Y-115854000D01*
X74098349Y-108587000D02*
X74098349Y-116621000D01*
X75698349Y-109239000D02*
X75698349Y-111564000D01*
X73937349Y-108562000D02*
X73937349Y-116646000D01*
X74258349Y-108619000D02*
X74258349Y-111564000D01*
X75218349Y-113644000D02*
X75218349Y-116251000D01*
X73817349Y-108547000D02*
X73817349Y-116661000D01*
X73777349Y-108543000D02*
X73777349Y-116665000D01*
X73977349Y-108567000D02*
X73977349Y-116641000D01*
X76058349Y-113644000D02*
X76058349Y-115694000D01*
X74978349Y-113644000D02*
X74978349Y-116361000D01*
X76298349Y-113644000D02*
X76298349Y-115471000D01*
X74738349Y-108754000D02*
X74738349Y-111564000D01*
X74418349Y-113644000D02*
X74418349Y-116551000D01*
X74378349Y-113644000D02*
X74378349Y-116561000D01*
X74498349Y-108679000D02*
X74498349Y-111564000D01*
X76418349Y-109863000D02*
X76418349Y-115345000D01*
X74578349Y-108702000D02*
X74578349Y-111564000D01*
X75618349Y-113644000D02*
X75618349Y-116022000D01*
X74578349Y-113644000D02*
X74578349Y-116506000D01*
X77018349Y-110714000D02*
X77018349Y-114494000D01*
X75938349Y-113644000D02*
X75938349Y-115793000D01*
X75098349Y-108900000D02*
X75098349Y-111564000D01*
X75818349Y-109324000D02*
X75818349Y-111564000D01*
X75338349Y-109020000D02*
X75338349Y-111564000D01*
X75658349Y-113644000D02*
X75658349Y-115996000D01*
X75058349Y-108882000D02*
X75058349Y-111564000D01*
X74378349Y-108647000D02*
X74378349Y-111564000D01*
X74538349Y-113644000D02*
X74538349Y-116518000D01*
X76498349Y-109953000D02*
X76498349Y-115255000D01*
X73497349Y-108525000D02*
X73497349Y-116683000D01*
X74738349Y-113644000D02*
X74738349Y-116454000D01*
X76658349Y-110150000D02*
X76658349Y-115058000D01*
X75538349Y-109135000D02*
X75538349Y-111564000D01*
X77338349Y-111506000D02*
X77338349Y-113702000D01*
X74658349Y-108727000D02*
X74658349Y-111564000D01*
X76018349Y-109480000D02*
X76018349Y-111564000D01*
X74418349Y-108657000D02*
X74418349Y-111564000D01*
X74898349Y-113644000D02*
X74898349Y-116394000D01*
X75338349Y-113644000D02*
X75338349Y-116188000D01*
X68967651Y-110289000D02*
X69767651Y-110289000D01*
X74458349Y-108668000D02*
X74458349Y-111564000D01*
X75498349Y-113644000D02*
X75498349Y-116097000D01*
X76458349Y-109907000D02*
X76458349Y-115301000D01*
X75778349Y-113644000D02*
X75778349Y-115913000D01*
X75058349Y-113644000D02*
X75058349Y-116326000D01*
X73697349Y-108536000D02*
X73697349Y-116672000D01*
X76738349Y-110259000D02*
X76738349Y-114949000D01*
X76378349Y-109820000D02*
X76378349Y-115388000D01*
X75978349Y-113644000D02*
X75978349Y-115760000D01*
X76178349Y-109621000D02*
X76178349Y-111564000D01*
X76258349Y-113644000D02*
X76258349Y-115511000D01*
X77418349Y-111836000D02*
X77418349Y-113372000D01*
X75298349Y-108998000D02*
X75298349Y-111564000D01*
X75378349Y-113644000D02*
X75378349Y-116166000D01*
X75458349Y-113644000D02*
X75458349Y-116121000D01*
X76938349Y-110570000D02*
X76938349Y-114638000D01*
X77497349Y-112604000D02*
G75*
G03*
X77497349Y-112604000I-4120000J0D01*
G01*
%TO.C,C3*%
X86423000Y-75222651D02*
X85623000Y-75222651D01*
X86653000Y-82073349D02*
X84748000Y-82073349D01*
X87622000Y-80393349D02*
X79794000Y-80393349D01*
X82668000Y-81473349D02*
X80290000Y-81473349D01*
X84241000Y-83313349D02*
X83175000Y-83313349D01*
X87760000Y-79712349D02*
X79656000Y-79712349D01*
X84806000Y-83193349D02*
X82610000Y-83193349D01*
X87571000Y-80553349D02*
X79845000Y-80553349D01*
X87784000Y-79432349D02*
X79632000Y-79432349D01*
X82668000Y-81193349D02*
X80124000Y-81193349D01*
X85598000Y-82873349D02*
X81818000Y-82873349D01*
X87732000Y-79912349D02*
X79684000Y-79912349D01*
X82668000Y-82313349D02*
X81011000Y-82313349D01*
X86405000Y-82313349D02*
X84748000Y-82313349D01*
X85672000Y-82833349D02*
X81744000Y-82833349D01*
X87750000Y-79792349D02*
X79666000Y-79792349D01*
X82668000Y-80753349D02*
X79918000Y-80753349D01*
X85260000Y-83033349D02*
X82156000Y-83033349D01*
X87482000Y-80793349D02*
X84748000Y-80793349D01*
X86958000Y-81713349D02*
X84748000Y-81713349D01*
X87412000Y-80953349D02*
X84748000Y-80953349D01*
X82668000Y-81633349D02*
X80399000Y-81633349D01*
X87787000Y-79352349D02*
X79629000Y-79352349D01*
X87788000Y-79272349D02*
X79628000Y-79272349D01*
X82668000Y-81953349D02*
X80653000Y-81953349D01*
X87675000Y-80193349D02*
X79741000Y-80193349D01*
X82668000Y-81033349D02*
X80042000Y-81033349D01*
X87270000Y-81233349D02*
X84748000Y-81233349D01*
X86763000Y-81953349D02*
X84748000Y-81953349D01*
X87718000Y-79993349D02*
X79698000Y-79993349D01*
X84656000Y-83233349D02*
X82760000Y-83233349D01*
X87314000Y-81153349D02*
X84748000Y-81153349D01*
X82668000Y-82633349D02*
X81421000Y-82633349D01*
X82668000Y-82753349D02*
X81606000Y-82753349D01*
X87073000Y-81553349D02*
X84748000Y-81553349D01*
X82668000Y-80993349D02*
X80022000Y-80993349D01*
X87738000Y-79872349D02*
X79678000Y-79872349D01*
X86264000Y-82433349D02*
X84748000Y-82433349D01*
X82668000Y-82593349D02*
X81363000Y-82593349D01*
X82668000Y-82033349D02*
X80725000Y-82033349D01*
X82668000Y-81713349D02*
X80458000Y-81713349D01*
X87779000Y-79512349D02*
X79637000Y-79512349D01*
X87248000Y-81273349D02*
X84748000Y-81273349D01*
X82668000Y-81993349D02*
X80689000Y-81993349D01*
X87529000Y-80673349D02*
X79887000Y-80673349D01*
X86023000Y-74822651D02*
X86023000Y-75622651D01*
X82668000Y-80953349D02*
X80004000Y-80953349D01*
X82668000Y-82513349D02*
X81254000Y-82513349D01*
X87046000Y-81593349D02*
X84748000Y-81593349D01*
X82668000Y-82193349D02*
X80882000Y-82193349D01*
X86213000Y-82473349D02*
X84748000Y-82473349D01*
X87126000Y-81473349D02*
X84748000Y-81473349D01*
X87498000Y-80753349D02*
X84748000Y-80753349D01*
X82668000Y-81513349D02*
X80316000Y-81513349D01*
X82668000Y-82113349D02*
X80801000Y-82113349D01*
X87655000Y-80273349D02*
X79761000Y-80273349D01*
X86864000Y-81833349D02*
X84748000Y-81833349D01*
X82668000Y-81353349D02*
X80215000Y-81353349D01*
X86691000Y-82033349D02*
X84748000Y-82033349D01*
X82668000Y-80713349D02*
X79903000Y-80713349D01*
X87374000Y-81033349D02*
X84748000Y-81033349D01*
X86312000Y-82393349D02*
X84748000Y-82393349D01*
X82668000Y-80873349D02*
X79968000Y-80873349D01*
X82668000Y-80793349D02*
X79934000Y-80793349D01*
X86897000Y-81793349D02*
X84748000Y-81793349D01*
X87745000Y-79832349D02*
X79671000Y-79832349D01*
X82668000Y-81273349D02*
X80168000Y-81273349D01*
X82668000Y-82353349D02*
X81057000Y-82353349D01*
X82668000Y-82153349D02*
X80841000Y-82153349D01*
X87355000Y-81073349D02*
X84748000Y-81073349D01*
X87769000Y-79632349D02*
X79647000Y-79632349D01*
X87292000Y-81193349D02*
X84748000Y-81193349D01*
X82668000Y-81593349D02*
X80370000Y-81593349D01*
X82668000Y-82713349D02*
X81542000Y-82713349D01*
X87756000Y-79752349D02*
X79660000Y-79752349D01*
X82668000Y-82233349D02*
X80924000Y-82233349D01*
X85161000Y-83073349D02*
X82255000Y-83073349D01*
X86615000Y-82113349D02*
X84748000Y-82113349D01*
X85995000Y-82633349D02*
X84748000Y-82633349D01*
X87785000Y-79392349D02*
X79631000Y-79392349D01*
X82668000Y-80913349D02*
X79986000Y-80913349D01*
X84937000Y-83153349D02*
X82479000Y-83153349D01*
X82668000Y-82673349D02*
X81480000Y-82673349D01*
X86534000Y-82193349D02*
X84748000Y-82193349D01*
X86162000Y-82513349D02*
X84748000Y-82513349D01*
X86053000Y-82593349D02*
X84748000Y-82593349D01*
X86832000Y-81873349D02*
X84748000Y-81873349D01*
X82668000Y-81113349D02*
X80081000Y-81113349D01*
X87788000Y-79232349D02*
X79628000Y-79232349D01*
X87558000Y-80593349D02*
X79858000Y-80593349D01*
X86798000Y-81913349D02*
X84748000Y-81913349D01*
X87448000Y-80873349D02*
X84748000Y-80873349D01*
X85874000Y-82713349D02*
X84748000Y-82713349D01*
X87543000Y-80633349D02*
X79873000Y-80633349D01*
X82668000Y-82473349D02*
X81203000Y-82473349D01*
X87610000Y-80433349D02*
X79806000Y-80433349D01*
X87597000Y-80473349D02*
X79819000Y-80473349D01*
X86988000Y-81673349D02*
X84748000Y-81673349D01*
X85742000Y-82793349D02*
X81674000Y-82793349D01*
X87225000Y-81313349D02*
X84748000Y-81313349D01*
X86108000Y-82553349D02*
X84748000Y-82553349D01*
X87644000Y-80313349D02*
X79772000Y-80313349D01*
X87465000Y-80833349D02*
X84748000Y-80833349D01*
X87776000Y-79552349D02*
X79640000Y-79552349D01*
X86928000Y-81753349D02*
X84748000Y-81753349D01*
X87201000Y-81353349D02*
X84748000Y-81353349D01*
X87710000Y-80033349D02*
X79706000Y-80033349D01*
X85054000Y-83113349D02*
X82362000Y-83113349D01*
X82668000Y-81793349D02*
X80519000Y-81793349D01*
X86575000Y-82153349D02*
X84748000Y-82153349D01*
X82668000Y-81833349D02*
X80552000Y-81833349D01*
X87773000Y-79592349D02*
X79643000Y-79592349D01*
X82668000Y-81673349D02*
X80428000Y-81673349D01*
X87513000Y-80713349D02*
X84748000Y-80713349D01*
X82668000Y-82073349D02*
X80763000Y-82073349D01*
X82668000Y-81313349D02*
X80191000Y-81313349D01*
X86359000Y-82353349D02*
X84748000Y-82353349D01*
X82668000Y-81073349D02*
X80061000Y-81073349D01*
X85439000Y-82953349D02*
X81977000Y-82953349D01*
X82668000Y-81393349D02*
X80239000Y-81393349D01*
X87335000Y-81113349D02*
X84748000Y-81113349D01*
X87684000Y-80153349D02*
X79732000Y-80153349D01*
X82668000Y-81873349D02*
X80584000Y-81873349D01*
X87585000Y-80513349D02*
X79831000Y-80513349D01*
X86492000Y-82233349D02*
X84748000Y-82233349D01*
X87430000Y-80913349D02*
X84748000Y-80913349D01*
X82668000Y-82553349D02*
X81308000Y-82553349D01*
X82668000Y-81433349D02*
X80264000Y-81433349D01*
X82668000Y-82273349D02*
X80967000Y-82273349D01*
X87725000Y-79953349D02*
X79691000Y-79953349D01*
X82668000Y-82433349D02*
X81152000Y-82433349D01*
X87100000Y-81513349D02*
X84748000Y-81513349D01*
X82668000Y-81553349D02*
X80343000Y-81553349D01*
X87394000Y-80993349D02*
X84748000Y-80993349D01*
X87782000Y-79472349D02*
X79634000Y-79472349D01*
X87765000Y-79672349D02*
X79651000Y-79672349D01*
X86727000Y-81993349D02*
X84748000Y-81993349D01*
X82668000Y-81153349D02*
X80102000Y-81153349D01*
X85521000Y-82913349D02*
X81895000Y-82913349D01*
X87702000Y-80073349D02*
X79714000Y-80073349D01*
X87152000Y-81433349D02*
X84748000Y-81433349D01*
X85353000Y-82993349D02*
X82063000Y-82993349D01*
X87633000Y-80353349D02*
X79783000Y-80353349D01*
X82668000Y-81913349D02*
X80618000Y-81913349D01*
X87177000Y-81393349D02*
X84748000Y-81393349D01*
X82668000Y-81233349D02*
X80146000Y-81233349D01*
X86449000Y-82273349D02*
X84748000Y-82273349D01*
X87665000Y-80233349D02*
X79751000Y-80233349D01*
X82668000Y-80833349D02*
X79951000Y-80833349D01*
X87017000Y-81633349D02*
X84748000Y-81633349D01*
X84476000Y-83273349D02*
X82940000Y-83273349D01*
X85810000Y-82753349D02*
X84748000Y-82753349D01*
X85936000Y-82673349D02*
X84748000Y-82673349D01*
X82668000Y-82393349D02*
X81104000Y-82393349D01*
X87788000Y-79312349D02*
X79628000Y-79312349D01*
X82668000Y-81753349D02*
X80488000Y-81753349D01*
X87693000Y-80113349D02*
X79723000Y-80113349D01*
X87828000Y-79232349D02*
G75*
G03*
X87828000Y-79232349I-4120000J0D01*
G01*
%TO.C,AD_DEC1*%
X197984000Y-136607000D02*
X197984000Y-139257000D01*
X182764000Y-136607000D02*
X182764000Y-141057000D01*
X197984000Y-136607000D02*
X197984000Y-133957000D01*
X182764000Y-136607000D02*
X182764000Y-133957000D01*
%TO.C,C3*%
X71986000Y-102176349D02*
X69420000Y-102176349D01*
X71986000Y-103136349D02*
X70119000Y-103136349D01*
X76847000Y-101696349D02*
X69205000Y-101696349D01*
X76673000Y-102096349D02*
X74066000Y-102096349D01*
X76276000Y-102736349D02*
X74066000Y-102736349D01*
X71986000Y-102336349D02*
X69509000Y-102336349D01*
X76730000Y-101976349D02*
X74066000Y-101976349D01*
X71986000Y-102616349D02*
X69688000Y-102616349D01*
X75531000Y-103496349D02*
X74066000Y-103496349D01*
X76610000Y-102216349D02*
X74066000Y-102216349D01*
X76182000Y-102856349D02*
X74066000Y-102856349D01*
X71986000Y-101936349D02*
X69304000Y-101936349D01*
X76915000Y-101496349D02*
X69137000Y-101496349D01*
X76444000Y-102496349D02*
X74066000Y-102496349D01*
X76783000Y-101856349D02*
X74066000Y-101856349D01*
X74479000Y-104096349D02*
X71573000Y-104096349D01*
X76116000Y-102936349D02*
X74066000Y-102936349D01*
X71986000Y-103376349D02*
X70375000Y-103376349D01*
X75852000Y-103216349D02*
X74066000Y-103216349D01*
X75128000Y-103776349D02*
X74066000Y-103776349D01*
X71986000Y-102656349D02*
X69717000Y-102656349D01*
X71986000Y-102896349D02*
X69902000Y-102896349D01*
X76928000Y-101456349D02*
X69124000Y-101456349D01*
X76306000Y-102696349D02*
X74066000Y-102696349D01*
X71986000Y-103096349D02*
X70081000Y-103096349D01*
X74990000Y-103856349D02*
X71062000Y-103856349D01*
X76940000Y-101416349D02*
X69112000Y-101416349D01*
X76566000Y-102296349D02*
X74066000Y-102296349D01*
X75971000Y-103096349D02*
X74066000Y-103096349D01*
X77106000Y-100295349D02*
X68946000Y-100295349D01*
X71986000Y-101776349D02*
X69236000Y-101776349D01*
X77056000Y-100895349D02*
X68996000Y-100895349D01*
X76045000Y-103016349D02*
X74066000Y-103016349D01*
X73559000Y-104336349D02*
X72493000Y-104336349D01*
X75677000Y-103376349D02*
X74066000Y-103376349D01*
X75933000Y-103136349D02*
X74066000Y-103136349D01*
X74671000Y-104016349D02*
X71381000Y-104016349D01*
X77094000Y-100575349D02*
X68958000Y-100575349D01*
X76653000Y-102136349D02*
X74066000Y-102136349D01*
X76495000Y-102416349D02*
X74066000Y-102416349D01*
X71986000Y-102856349D02*
X69870000Y-102856349D01*
X71986000Y-102536349D02*
X69634000Y-102536349D01*
X71986000Y-103536349D02*
X70572000Y-103536349D01*
X76081000Y-102976349D02*
X74066000Y-102976349D01*
X74124000Y-104216349D02*
X71928000Y-104216349D01*
X77083000Y-100695349D02*
X68969000Y-100695349D01*
X76215000Y-102816349D02*
X74066000Y-102816349D01*
X75341000Y-95845651D02*
X75341000Y-96645651D01*
X77074000Y-100775349D02*
X68978000Y-100775349D01*
X71986000Y-102216349D02*
X69442000Y-102216349D01*
X77043000Y-100976349D02*
X69009000Y-100976349D01*
X71986000Y-102256349D02*
X69464000Y-102256349D01*
X75767000Y-103296349D02*
X74066000Y-103296349D01*
X76712000Y-102016349D02*
X74066000Y-102016349D01*
X71986000Y-103016349D02*
X70007000Y-103016349D01*
X76748000Y-101936349D02*
X74066000Y-101936349D01*
X71986000Y-102736349D02*
X69776000Y-102736349D01*
X71986000Y-103256349D02*
X70242000Y-103256349D01*
X76903000Y-101536349D02*
X69149000Y-101536349D01*
X76983000Y-101256349D02*
X69069000Y-101256349D01*
X77091000Y-100615349D02*
X68961000Y-100615349D01*
X71986000Y-103736349D02*
X70860000Y-103736349D01*
X71986000Y-102776349D02*
X69806000Y-102776349D01*
X71986000Y-103656349D02*
X70739000Y-103656349D01*
X76831000Y-101736349D02*
X74066000Y-101736349D01*
X76470000Y-102456349D02*
X74066000Y-102456349D01*
X76543000Y-102336349D02*
X74066000Y-102336349D01*
X76246000Y-102776349D02*
X74066000Y-102776349D01*
X74839000Y-103936349D02*
X71213000Y-103936349D01*
X75582000Y-103456349D02*
X74066000Y-103456349D01*
X75741000Y-96245651D02*
X74941000Y-96245651D01*
X71986000Y-101816349D02*
X69252000Y-101816349D01*
X76766000Y-101896349D02*
X74066000Y-101896349D01*
X71986000Y-101736349D02*
X69221000Y-101736349D01*
X75810000Y-103256349D02*
X74066000Y-103256349D01*
X75480000Y-103536349D02*
X74066000Y-103536349D01*
X71986000Y-102976349D02*
X69971000Y-102976349D01*
X76150000Y-102896349D02*
X74066000Y-102896349D01*
X71986000Y-103176349D02*
X70159000Y-103176349D01*
X77105000Y-100375349D02*
X68947000Y-100375349D01*
X71986000Y-102096349D02*
X69379000Y-102096349D01*
X77050000Y-100935349D02*
X69002000Y-100935349D01*
X75371000Y-103616349D02*
X74066000Y-103616349D01*
X76632000Y-102176349D02*
X74066000Y-102176349D01*
X77078000Y-100735349D02*
X68974000Y-100735349D01*
X77103000Y-100415349D02*
X68949000Y-100415349D01*
X71986000Y-102056349D02*
X69360000Y-102056349D01*
X77028000Y-101056349D02*
X69024000Y-101056349D01*
X76335000Y-102656349D02*
X74066000Y-102656349D01*
X76861000Y-101656349D02*
X69191000Y-101656349D01*
X71986000Y-103416349D02*
X70422000Y-103416349D01*
X76993000Y-101216349D02*
X69059000Y-101216349D01*
X77102000Y-100455349D02*
X68950000Y-100455349D01*
X74757000Y-103976349D02*
X71295000Y-103976349D01*
X71986000Y-103336349D02*
X70329000Y-103336349D01*
X77100000Y-100495349D02*
X68952000Y-100495349D01*
X75060000Y-103816349D02*
X70992000Y-103816349D01*
X71986000Y-102136349D02*
X69399000Y-102136349D01*
X77087000Y-100655349D02*
X68965000Y-100655349D01*
X71986000Y-103296349D02*
X70285000Y-103296349D01*
X74916000Y-103896349D02*
X71136000Y-103896349D01*
X71986000Y-102296349D02*
X69486000Y-102296349D01*
X75630000Y-103416349D02*
X74066000Y-103416349D01*
X77002000Y-101176349D02*
X69050000Y-101176349D01*
X71986000Y-102696349D02*
X69746000Y-102696349D01*
X71986000Y-101896349D02*
X69286000Y-101896349D01*
X77063000Y-100855349D02*
X68989000Y-100855349D01*
X71986000Y-103056349D02*
X70043000Y-103056349D01*
X71986000Y-103496349D02*
X70521000Y-103496349D01*
X74578000Y-104056349D02*
X71474000Y-104056349D01*
X71986000Y-102816349D02*
X69837000Y-102816349D01*
X71986000Y-101976349D02*
X69322000Y-101976349D01*
X76962000Y-101336349D02*
X69090000Y-101336349D01*
X77097000Y-100535349D02*
X68955000Y-100535349D01*
X76973000Y-101296349D02*
X69079000Y-101296349D01*
X76588000Y-102256349D02*
X74066000Y-102256349D01*
X71986000Y-103216349D02*
X70200000Y-103216349D01*
X74255000Y-104176349D02*
X71797000Y-104176349D01*
X77106000Y-100335349D02*
X68946000Y-100335349D01*
X75723000Y-103336349D02*
X74066000Y-103336349D01*
X76876000Y-101616349D02*
X69176000Y-101616349D01*
X73794000Y-104296349D02*
X72258000Y-104296349D01*
X71986000Y-102496349D02*
X69608000Y-102496349D01*
X76009000Y-103056349D02*
X74066000Y-103056349D01*
X77036000Y-101016349D02*
X69016000Y-101016349D01*
X71986000Y-102576349D02*
X69661000Y-102576349D01*
X71986000Y-103616349D02*
X70681000Y-103616349D01*
X71986000Y-102376349D02*
X69533000Y-102376349D01*
X71986000Y-103776349D02*
X70924000Y-103776349D01*
X77011000Y-101136349D02*
X69041000Y-101136349D01*
X71986000Y-102416349D02*
X69557000Y-102416349D01*
X76418000Y-102536349D02*
X74066000Y-102536349D01*
X74372000Y-104136349D02*
X71680000Y-104136349D01*
X76519000Y-102376349D02*
X74066000Y-102376349D01*
X71986000Y-103456349D02*
X70470000Y-103456349D01*
X76951000Y-101376349D02*
X69101000Y-101376349D01*
X76800000Y-101816349D02*
X74066000Y-101816349D01*
X71986000Y-102936349D02*
X69936000Y-102936349D01*
X71986000Y-101856349D02*
X69269000Y-101856349D01*
X75192000Y-103736349D02*
X74066000Y-103736349D01*
X76816000Y-101776349D02*
X74066000Y-101776349D01*
X77020000Y-101096349D02*
X69032000Y-101096349D01*
X71986000Y-102016349D02*
X69340000Y-102016349D01*
X77106000Y-100255349D02*
X68946000Y-100255349D01*
X71986000Y-103576349D02*
X70626000Y-103576349D01*
X71986000Y-103696349D02*
X70798000Y-103696349D01*
X76391000Y-102576349D02*
X74066000Y-102576349D01*
X76889000Y-101576349D02*
X69163000Y-101576349D01*
X76692000Y-102056349D02*
X74066000Y-102056349D01*
X76364000Y-102616349D02*
X74066000Y-102616349D01*
X75313000Y-103656349D02*
X74066000Y-103656349D01*
X71986000Y-102456349D02*
X69582000Y-102456349D01*
X75254000Y-103696349D02*
X74066000Y-103696349D01*
X73974000Y-104256349D02*
X72078000Y-104256349D01*
X75893000Y-103176349D02*
X74066000Y-103176349D01*
X75426000Y-103576349D02*
X74066000Y-103576349D01*
X77068000Y-100815349D02*
X68984000Y-100815349D01*
X77146000Y-100255349D02*
G75*
G03*
X77146000Y-100255349I-4120000J0D01*
G01*
%TO.C,BDT1*%
X175642000Y-109004000D02*
X173442000Y-109004000D01*
X175642000Y-109004000D02*
X177842000Y-109004000D01*
X175642000Y-102234000D02*
X177842000Y-102234000D01*
X175642000Y-102234000D02*
X172042000Y-102234000D01*
%TO.C,LATCH1*%
X172257000Y-115271000D02*
X172257000Y-113071000D01*
X172257000Y-115271000D02*
X172257000Y-117471000D01*
X179027000Y-115271000D02*
X179027000Y-117471000D01*
X179027000Y-115271000D02*
X179027000Y-111671000D01*
%TO.C,C17*%
X83526000Y-53332000D02*
X83526000Y-52307000D01*
X84567000Y-53795000D02*
X84567000Y-52307000D01*
X84286000Y-50227000D02*
X84286000Y-48812000D01*
X84607000Y-50227000D02*
X84607000Y-48731000D01*
X83406000Y-50227000D02*
X83406000Y-49296000D01*
X84086000Y-50227000D02*
X84086000Y-48885000D01*
X82926000Y-52710000D02*
X82926000Y-49824000D01*
X83126000Y-52966000D02*
X83126000Y-52307000D01*
X84807000Y-50227000D02*
X84807000Y-48702000D01*
X82646000Y-52182000D02*
X82646000Y-50352000D01*
X84326000Y-50227000D02*
X84326000Y-48799000D01*
X83646000Y-50227000D02*
X83646000Y-49118000D01*
X84967000Y-50227000D02*
X84967000Y-48689000D01*
X84246000Y-50227000D02*
X84246000Y-48825000D01*
X83646000Y-53416000D02*
X83646000Y-52307000D01*
X83126000Y-50227000D02*
X83126000Y-49568000D01*
X85087000Y-50227000D02*
X85087000Y-48687000D01*
X83806000Y-50227000D02*
X83806000Y-49020000D01*
X84246000Y-53709000D02*
X84246000Y-52307000D01*
X84126000Y-53665000D02*
X84126000Y-52307000D01*
X83486000Y-53302000D02*
X83486000Y-52307000D01*
X83246000Y-50227000D02*
X83246000Y-49441000D01*
X84647000Y-53810000D02*
X84647000Y-52307000D01*
X83926000Y-50227000D02*
X83926000Y-48957000D01*
X84887000Y-53840000D02*
X84887000Y-52307000D01*
X84206000Y-50227000D02*
X84206000Y-48839000D01*
X83366000Y-53204000D02*
X83366000Y-52307000D01*
X84727000Y-50227000D02*
X84727000Y-48711000D01*
X84006000Y-53615000D02*
X84006000Y-52307000D01*
X84967000Y-53845000D02*
X84967000Y-52307000D01*
X83206000Y-50227000D02*
X83206000Y-49482000D01*
X83766000Y-53491000D02*
X83766000Y-52307000D01*
X84407000Y-50227000D02*
X84407000Y-48776000D01*
X84286000Y-53722000D02*
X84286000Y-52307000D01*
X82526000Y-51785000D02*
X82526000Y-50749000D01*
X84006000Y-50227000D02*
X84006000Y-48919000D01*
X83926000Y-53577000D02*
X83926000Y-52307000D01*
X83086000Y-52920000D02*
X83086000Y-52307000D01*
X83526000Y-50227000D02*
X83526000Y-49202000D01*
X84166000Y-53681000D02*
X84166000Y-52307000D01*
X82486000Y-51551000D02*
X82486000Y-50983000D01*
X83446000Y-53271000D02*
X83446000Y-52307000D01*
X83966000Y-50227000D02*
X83966000Y-48938000D01*
X84366000Y-50227000D02*
X84366000Y-48787000D01*
X83566000Y-50227000D02*
X83566000Y-49172000D01*
X82806000Y-52518000D02*
X82806000Y-50016000D01*
X84166000Y-50227000D02*
X84166000Y-48853000D01*
X82966000Y-52767000D02*
X82966000Y-49767000D01*
X84206000Y-53695000D02*
X84206000Y-52307000D01*
X83606000Y-50227000D02*
X83606000Y-49145000D01*
X84647000Y-50227000D02*
X84647000Y-48724000D01*
X83726000Y-50227000D02*
X83726000Y-49067000D01*
X84687000Y-53817000D02*
X84687000Y-52307000D01*
X84527000Y-50227000D02*
X84527000Y-48747000D01*
X84407000Y-53758000D02*
X84407000Y-52307000D01*
X84807000Y-53832000D02*
X84807000Y-52307000D01*
X83886000Y-50227000D02*
X83886000Y-48977000D01*
X85087000Y-53847000D02*
X85087000Y-52307000D01*
X83046000Y-52872000D02*
X83046000Y-49662000D01*
X84527000Y-53787000D02*
X84527000Y-52307000D01*
X83726000Y-53467000D02*
X83726000Y-52307000D01*
X83766000Y-50227000D02*
X83766000Y-49043000D01*
X84326000Y-53735000D02*
X84326000Y-52307000D01*
X83486000Y-50227000D02*
X83486000Y-49232000D01*
X84767000Y-53828000D02*
X84767000Y-52307000D01*
X83966000Y-53596000D02*
X83966000Y-52307000D01*
X84847000Y-53836000D02*
X84847000Y-52307000D01*
X87641775Y-52992000D02*
X87641775Y-52492000D01*
X85007000Y-53846000D02*
X85007000Y-52307000D01*
X83846000Y-53535000D02*
X83846000Y-52307000D01*
X87891775Y-52742000D02*
X87391775Y-52742000D01*
X85007000Y-50227000D02*
X85007000Y-48688000D01*
X84567000Y-50227000D02*
X84567000Y-48739000D01*
X84607000Y-53803000D02*
X84607000Y-52307000D01*
X84927000Y-50227000D02*
X84927000Y-48691000D01*
X83286000Y-53131000D02*
X83286000Y-52307000D01*
X83206000Y-53052000D02*
X83206000Y-52307000D01*
X84487000Y-53778000D02*
X84487000Y-52307000D01*
X82726000Y-52365000D02*
X82726000Y-50169000D01*
X84927000Y-53843000D02*
X84927000Y-52307000D01*
X82886000Y-52650000D02*
X82886000Y-49884000D01*
X84046000Y-50227000D02*
X84046000Y-48902000D01*
X84086000Y-53649000D02*
X84086000Y-52307000D01*
X84727000Y-53823000D02*
X84727000Y-52307000D01*
X85047000Y-50227000D02*
X85047000Y-48687000D01*
X82846000Y-52586000D02*
X82846000Y-49948000D01*
X82606000Y-52072000D02*
X82606000Y-50462000D01*
X84366000Y-53747000D02*
X84366000Y-52307000D01*
X83006000Y-52821000D02*
X83006000Y-49713000D01*
X84767000Y-50227000D02*
X84767000Y-48706000D01*
X84687000Y-50227000D02*
X84687000Y-48717000D01*
X82766000Y-52445000D02*
X82766000Y-50089000D01*
X83246000Y-53093000D02*
X83246000Y-52307000D01*
X84487000Y-50227000D02*
X84487000Y-48756000D01*
X82566000Y-51944000D02*
X82566000Y-50590000D01*
X83686000Y-53442000D02*
X83686000Y-52307000D01*
X84847000Y-50227000D02*
X84847000Y-48698000D01*
X83686000Y-50227000D02*
X83686000Y-49092000D01*
X84447000Y-50227000D02*
X84447000Y-48766000D01*
X84046000Y-53632000D02*
X84046000Y-52307000D01*
X83086000Y-50227000D02*
X83086000Y-49614000D01*
X82686000Y-52278000D02*
X82686000Y-50256000D01*
X84126000Y-50227000D02*
X84126000Y-48869000D01*
X84447000Y-53768000D02*
X84447000Y-52307000D01*
X83366000Y-50227000D02*
X83366000Y-49330000D01*
X83846000Y-50227000D02*
X83846000Y-48999000D01*
X83606000Y-53389000D02*
X83606000Y-52307000D01*
X83166000Y-50227000D02*
X83166000Y-49524000D01*
X83886000Y-53557000D02*
X83886000Y-52307000D01*
X83806000Y-53514000D02*
X83806000Y-52307000D01*
X84887000Y-50227000D02*
X84887000Y-48694000D01*
X83566000Y-53362000D02*
X83566000Y-52307000D01*
X83406000Y-53238000D02*
X83406000Y-52307000D01*
X85047000Y-53847000D02*
X85047000Y-52307000D01*
X83286000Y-50227000D02*
X83286000Y-49403000D01*
X83166000Y-53010000D02*
X83166000Y-52307000D01*
X83326000Y-53168000D02*
X83326000Y-52307000D01*
X83326000Y-50227000D02*
X83326000Y-49366000D01*
X83446000Y-50227000D02*
X83446000Y-49263000D01*
X87707000Y-51267000D02*
G75*
G03*
X87707000Y-51267000I-2620000J0D01*
G01*
%TO.C,CPU1*%
X154322000Y-78640000D02*
X144182000Y-78640000D01*
X144182000Y-78640000D02*
X144182000Y-129560000D01*
X166462000Y-129560000D02*
X166462000Y-78640000D01*
X144182000Y-129560000D02*
X166462000Y-129560000D01*
X166462000Y-78640000D02*
X156322000Y-78640000D01*
X154322000Y-78640000D02*
G75*
G03*
X156322000Y-78640000I1000000J0D01*
G01*
%TO.C,PWREG2*%
X75508000Y-53145000D02*
X77008000Y-53145000D01*
X75508000Y-49925000D02*
X72583000Y-49925000D01*
X75508000Y-49925000D02*
X77008000Y-49925000D01*
X75508000Y-53145000D02*
X74008000Y-53145000D01*
%TO.C,R19*%
X190103258Y-117536500D02*
X189628742Y-117536500D01*
X190103258Y-118581500D02*
X189628742Y-118581500D01*
%TO.C,R5*%
X194985064Y-88445000D02*
X193530936Y-88445000D01*
X194985064Y-86625000D02*
X193530936Y-86625000D01*
%TO.C,U13*%
X191408000Y-51675000D02*
X193358000Y-51675000D01*
X191408000Y-56795000D02*
X194858000Y-56795000D01*
X191408000Y-56795000D02*
X189458000Y-56795000D01*
X191408000Y-51675000D02*
X189458000Y-51675000D01*
%TO.C,R2*%
X86730936Y-61445000D02*
X88185064Y-61445000D01*
X86730936Y-59625000D02*
X88185064Y-59625000D01*
D12*
%TO.C,U12*%
X104133000Y-49735000D02*
X102858000Y-49735000D01*
X114483000Y-49160000D02*
X113808000Y-49160000D01*
X104133000Y-49160000D02*
X104808000Y-49160000D01*
X104133000Y-59510000D02*
X104808000Y-59510000D01*
X104133000Y-49160000D02*
X104133000Y-49735000D01*
X114483000Y-59510000D02*
X114483000Y-58835000D01*
X114483000Y-49160000D02*
X114483000Y-49835000D01*
X104133000Y-59510000D02*
X104133000Y-58835000D01*
X114483000Y-59510000D02*
X113808000Y-59510000D01*
D13*
%TO.C,C12*%
X207719252Y-62295000D02*
X206296748Y-62295000D01*
X207719252Y-59575000D02*
X206296748Y-59575000D01*
%TO.C,C18*%
X198196748Y-69825000D02*
X199619252Y-69825000D01*
X198196748Y-71645000D02*
X199619252Y-71645000D01*
%TO.C,CRYSTAL0*%
X110458000Y-80085000D02*
X130608000Y-80085000D01*
X110458000Y-67935000D02*
X110458000Y-80085000D01*
X131358000Y-79335000D02*
X131358000Y-67935000D01*
X130608000Y-67185000D02*
X111208000Y-67185000D01*
X131358000Y-67935000D02*
G75*
G03*
X130608000Y-67185000I-750000J0D01*
G01*
X111208000Y-67185000D02*
G75*
G03*
X110458000Y-67935000I0J-750000D01*
G01*
X130608000Y-80085000D02*
G75*
G03*
X131358000Y-79335000I0J750000D01*
G01*
%TO.C,R1*%
X154630500Y-72872742D02*
X154630500Y-73347258D01*
X153585500Y-72872742D02*
X153585500Y-73347258D01*
%TO.C,C10*%
X179418000Y-100083752D02*
X179418000Y-98661248D01*
X177598000Y-100083752D02*
X177598000Y-98661248D01*
%TO.C,R34*%
X137177742Y-102302500D02*
X137652258Y-102302500D01*
X137177742Y-103347500D02*
X137652258Y-103347500D01*
%TO.C,ERAM3*%
X204388000Y-81760000D02*
X204768000Y-81760000D01*
X204388000Y-86950000D02*
X204388000Y-92140000D01*
X223018000Y-86950000D02*
X223018000Y-81760000D01*
X222638000Y-81760000D02*
X222638000Y-80600000D01*
X223018000Y-81760000D02*
X222638000Y-81760000D01*
X204388000Y-86950000D02*
X204388000Y-81760000D01*
X223018000Y-86950000D02*
X223018000Y-92140000D01*
X204388000Y-92140000D02*
X204768000Y-92140000D01*
X223018000Y-92140000D02*
X222638000Y-92140000D01*
%TO.C,R23*%
X181975258Y-127448500D02*
X181500742Y-127448500D01*
X181975258Y-128493500D02*
X181500742Y-128493500D01*
%TO.C,C1*%
X91560000Y-50354000D02*
X91560000Y-48858000D01*
X91800000Y-53963000D02*
X91800000Y-52434000D01*
X91920000Y-53972000D02*
X91920000Y-52434000D01*
X91560000Y-53930000D02*
X91560000Y-52434000D01*
X90399000Y-53398000D02*
X90399000Y-52434000D01*
X91319000Y-53874000D02*
X91319000Y-52434000D01*
X91720000Y-50354000D02*
X91720000Y-48833000D01*
X91600000Y-53937000D02*
X91600000Y-52434000D01*
X90679000Y-50354000D02*
X90679000Y-49194000D01*
X90239000Y-50354000D02*
X90239000Y-49530000D01*
X91960000Y-50354000D02*
X91960000Y-48815000D01*
X92000000Y-53974000D02*
X92000000Y-52434000D01*
X91880000Y-53970000D02*
X91880000Y-52434000D01*
X91680000Y-53950000D02*
X91680000Y-52434000D01*
X90199000Y-53220000D02*
X90199000Y-52434000D01*
X89479000Y-51912000D02*
X89479000Y-50876000D01*
X91600000Y-50354000D02*
X91600000Y-48851000D01*
X91520000Y-50354000D02*
X91520000Y-48866000D01*
X89919000Y-52894000D02*
X89919000Y-49894000D01*
X91119000Y-53808000D02*
X91119000Y-52434000D01*
X90679000Y-53594000D02*
X90679000Y-52434000D01*
X90639000Y-53569000D02*
X90639000Y-52434000D01*
X91360000Y-50354000D02*
X91360000Y-48903000D01*
X90639000Y-50354000D02*
X90639000Y-49219000D01*
X90279000Y-50354000D02*
X90279000Y-49493000D01*
X91800000Y-50354000D02*
X91800000Y-48825000D01*
X90879000Y-50354000D02*
X90879000Y-49084000D01*
X89719000Y-52572000D02*
X89719000Y-50216000D01*
X90759000Y-50354000D02*
X90759000Y-49147000D01*
X90559000Y-50354000D02*
X90559000Y-49272000D01*
X90279000Y-53295000D02*
X90279000Y-52434000D01*
X90119000Y-50354000D02*
X90119000Y-49651000D01*
X90919000Y-53723000D02*
X90919000Y-52434000D01*
X91440000Y-53905000D02*
X91440000Y-52434000D01*
X91480000Y-53914000D02*
X91480000Y-52434000D01*
X92000000Y-50354000D02*
X92000000Y-48814000D01*
X91440000Y-50354000D02*
X91440000Y-48883000D01*
X90519000Y-53489000D02*
X90519000Y-52434000D01*
X90919000Y-50354000D02*
X90919000Y-49065000D01*
X90799000Y-53662000D02*
X90799000Y-52434000D01*
X89839000Y-52777000D02*
X89839000Y-50011000D01*
X91960000Y-53973000D02*
X91960000Y-52434000D01*
X91760000Y-50354000D02*
X91760000Y-48829000D01*
X90159000Y-53179000D02*
X90159000Y-52434000D01*
X91239000Y-50354000D02*
X91239000Y-48939000D01*
X91880000Y-50354000D02*
X91880000Y-48818000D01*
X90359000Y-53365000D02*
X90359000Y-52434000D01*
X90439000Y-53429000D02*
X90439000Y-52434000D01*
X92040000Y-50354000D02*
X92040000Y-48814000D01*
X91400000Y-50354000D02*
X91400000Y-48893000D01*
X91840000Y-50354000D02*
X91840000Y-48821000D01*
X89959000Y-52948000D02*
X89959000Y-49840000D01*
X92040000Y-53974000D02*
X92040000Y-52434000D01*
X91039000Y-53776000D02*
X91039000Y-52434000D01*
X91279000Y-50354000D02*
X91279000Y-48926000D01*
X91159000Y-50354000D02*
X91159000Y-48966000D01*
X91520000Y-53922000D02*
X91520000Y-52434000D01*
X91199000Y-53836000D02*
X91199000Y-52434000D01*
X91640000Y-50354000D02*
X91640000Y-48844000D01*
X90039000Y-53047000D02*
X90039000Y-52434000D01*
X90079000Y-53093000D02*
X90079000Y-52434000D01*
X89599000Y-52309000D02*
X89599000Y-50479000D01*
X90199000Y-50354000D02*
X90199000Y-49568000D01*
X90599000Y-53543000D02*
X90599000Y-52434000D01*
X90719000Y-53618000D02*
X90719000Y-52434000D01*
X91920000Y-50354000D02*
X91920000Y-48816000D01*
X91199000Y-50354000D02*
X91199000Y-48952000D01*
X91119000Y-50354000D02*
X91119000Y-48980000D01*
X90399000Y-50354000D02*
X90399000Y-49390000D01*
X90319000Y-50354000D02*
X90319000Y-49457000D01*
X90359000Y-50354000D02*
X90359000Y-49423000D01*
X90559000Y-53516000D02*
X90559000Y-52434000D01*
X90799000Y-50354000D02*
X90799000Y-49126000D01*
X94844775Y-52869000D02*
X94344775Y-52869000D01*
X91840000Y-53967000D02*
X91840000Y-52434000D01*
X91760000Y-53959000D02*
X91760000Y-52434000D01*
X90039000Y-50354000D02*
X90039000Y-49741000D01*
X90159000Y-50354000D02*
X90159000Y-49609000D01*
X91360000Y-53885000D02*
X91360000Y-52434000D01*
X90839000Y-50354000D02*
X90839000Y-49104000D01*
X90759000Y-53641000D02*
X90759000Y-52434000D01*
X90719000Y-50354000D02*
X90719000Y-49170000D01*
X91720000Y-53955000D02*
X91720000Y-52434000D01*
X91480000Y-50354000D02*
X91480000Y-48874000D01*
X90519000Y-50354000D02*
X90519000Y-49299000D01*
X91640000Y-53944000D02*
X91640000Y-52434000D01*
X91680000Y-50354000D02*
X91680000Y-48838000D01*
X89999000Y-52999000D02*
X89999000Y-49789000D01*
X89559000Y-52199000D02*
X89559000Y-50589000D01*
X91079000Y-53792000D02*
X91079000Y-52434000D01*
X91319000Y-50354000D02*
X91319000Y-48914000D01*
X91239000Y-53849000D02*
X91239000Y-52434000D01*
X89759000Y-52645000D02*
X89759000Y-50143000D01*
X90839000Y-53684000D02*
X90839000Y-52434000D01*
X90439000Y-50354000D02*
X90439000Y-49359000D01*
X90479000Y-50354000D02*
X90479000Y-49329000D01*
X90999000Y-53759000D02*
X90999000Y-52434000D01*
X91279000Y-53862000D02*
X91279000Y-52434000D01*
X90079000Y-50354000D02*
X90079000Y-49695000D01*
X90319000Y-53331000D02*
X90319000Y-52434000D01*
X91400000Y-53895000D02*
X91400000Y-52434000D01*
X90959000Y-53742000D02*
X90959000Y-52434000D01*
X90959000Y-50354000D02*
X90959000Y-49046000D01*
X91159000Y-53822000D02*
X91159000Y-52434000D01*
X90119000Y-53137000D02*
X90119000Y-52434000D01*
X90879000Y-53704000D02*
X90879000Y-52434000D01*
X94594775Y-53119000D02*
X94594775Y-52619000D01*
X89639000Y-52405000D02*
X89639000Y-50383000D01*
X89879000Y-52837000D02*
X89879000Y-49951000D01*
X90239000Y-53258000D02*
X90239000Y-52434000D01*
X91079000Y-50354000D02*
X91079000Y-48996000D01*
X89439000Y-51678000D02*
X89439000Y-51110000D01*
X90479000Y-53459000D02*
X90479000Y-52434000D01*
X89519000Y-52071000D02*
X89519000Y-50717000D01*
X90999000Y-50354000D02*
X90999000Y-49029000D01*
X89799000Y-52713000D02*
X89799000Y-50075000D01*
X90599000Y-50354000D02*
X90599000Y-49245000D01*
X89679000Y-52492000D02*
X89679000Y-50296000D01*
X91039000Y-50354000D02*
X91039000Y-49012000D01*
X94660000Y-51394000D02*
G75*
G03*
X94660000Y-51394000I-2620000J0D01*
G01*
%TO.C,ERAM0*%
X222800000Y-134900000D02*
X222800000Y-140090000D01*
X222800000Y-129710000D02*
X222420000Y-129710000D01*
X204170000Y-129710000D02*
X204550000Y-129710000D01*
X222800000Y-140090000D02*
X222420000Y-140090000D01*
X204170000Y-140090000D02*
X204550000Y-140090000D01*
X222800000Y-134900000D02*
X222800000Y-129710000D01*
X204170000Y-134900000D02*
X204170000Y-129710000D01*
X204170000Y-134900000D02*
X204170000Y-140090000D01*
X222420000Y-129710000D02*
X222420000Y-128550000D01*
%TO.C,R14*%
X190103258Y-109668500D02*
X189628742Y-109668500D01*
X190103258Y-110713500D02*
X189628742Y-110713500D01*
%TO.C,R7*%
X189370742Y-59857500D02*
X189845258Y-59857500D01*
X189370742Y-58812500D02*
X189845258Y-58812500D01*
%TO.C,C16*%
X93960000Y-129799748D02*
X93960000Y-131222252D01*
X95780000Y-129799748D02*
X95780000Y-131222252D01*
%TO.C,C22*%
X155667420Y-51025000D02*
X155948580Y-51025000D01*
X155667420Y-52045000D02*
X155948580Y-52045000D01*
%TO.C,C15*%
X113264000Y-129799748D02*
X113264000Y-131222252D01*
X115084000Y-129799748D02*
X115084000Y-131222252D01*
%TO.C,U8*%
X127108000Y-135545000D02*
X130708000Y-135545000D01*
X127108000Y-130325000D02*
X129308000Y-130325000D01*
X127108000Y-135545000D02*
X124908000Y-135545000D01*
X127108000Y-130325000D02*
X124908000Y-130325000D01*
%TO.C,R13*%
X190103258Y-108144500D02*
X189628742Y-108144500D01*
X190103258Y-109189500D02*
X189628742Y-109189500D01*
%TO.C,R15*%
X190103258Y-111192500D02*
X189628742Y-111192500D01*
X190103258Y-112237500D02*
X189628742Y-112237500D01*
%TO.C,SRAM1*%
X108955000Y-91325000D02*
X96035000Y-91325000D01*
X96035000Y-91325000D02*
X96035000Y-127005000D01*
X103495000Y-127005000D02*
X108955000Y-127005000D01*
X108955000Y-127005000D02*
X108955000Y-91325000D01*
X96035000Y-127005000D02*
X101495000Y-127005000D01*
X103495000Y-127005000D02*
G75*
G03*
X101495000Y-127005000I-1000000J0D01*
G01*
%TO.C,C9*%
X181319248Y-118171000D02*
X182741752Y-118171000D01*
X181319248Y-119991000D02*
X182741752Y-119991000D01*
%TO.C,ROM1*%
X115714000Y-127005000D02*
X120774000Y-127005000D01*
X127834000Y-127005000D02*
X127834000Y-91325000D01*
X115714000Y-91325000D02*
X115714000Y-127005000D01*
X122774000Y-127005000D02*
X127834000Y-127005000D01*
X127834000Y-91325000D02*
X115714000Y-91325000D01*
X122774000Y-127005000D02*
G75*
G03*
X120774000Y-127005000I-1000000J0D01*
G01*
%TO.C,RP1*%
X173607000Y-75985000D02*
X173607000Y-99185000D01*
X173607000Y-99185000D02*
X176407000Y-99185000D01*
X176407000Y-75985000D02*
X173607000Y-75985000D01*
X176407000Y-99185000D02*
X176407000Y-75985000D01*
X173607000Y-96475000D02*
X176407000Y-96475000D01*
%TO.C,C2*%
X207656752Y-67495000D02*
X206234248Y-67495000D01*
X207656752Y-64775000D02*
X206234248Y-64775000D01*
%TO.C,SW1*%
X90603000Y-42746000D02*
X90603000Y-41246000D01*
X89353000Y-38746000D02*
X84853000Y-38746000D01*
X83603000Y-41246000D02*
X83603000Y-42746000D01*
X84853000Y-45246000D02*
X89353000Y-45246000D01*
%TO.C,C21*%
X153518000Y-63319420D02*
X153518000Y-63600580D01*
X152498000Y-63319420D02*
X152498000Y-63600580D01*
%TO.C,R33*%
X137177742Y-104842500D02*
X137652258Y-104842500D01*
X137177742Y-105887500D02*
X137652258Y-105887500D01*
%TO.C,R16*%
X190103258Y-113761500D02*
X189628742Y-113761500D01*
X190103258Y-112716500D02*
X189628742Y-112716500D01*
%TO.C,R3*%
X135530936Y-76345000D02*
X136985064Y-76345000D01*
X135530936Y-74525000D02*
X136985064Y-74525000D01*
%TO.C,U14*%
X129893000Y-59295000D02*
X130368000Y-59295000D01*
X129893000Y-55075000D02*
X130368000Y-55075000D01*
X130368000Y-55075000D02*
X130368000Y-55550000D01*
X126148000Y-59295000D02*
X126148000Y-58820000D01*
X130368000Y-59295000D02*
X130368000Y-58820000D01*
X126623000Y-59295000D02*
X126148000Y-59295000D01*
X126623000Y-55075000D02*
X126148000Y-55075000D01*
%TO.C,C11*%
X63584748Y-107005461D02*
X65007252Y-107005461D01*
X63584748Y-108825461D02*
X65007252Y-108825461D01*
%TO.C,ERAM1*%
X204261000Y-118954000D02*
X204261000Y-113764000D01*
X222891000Y-124144000D02*
X222511000Y-124144000D01*
X222891000Y-118954000D02*
X222891000Y-124144000D01*
X204261000Y-118954000D02*
X204261000Y-124144000D01*
X222891000Y-118954000D02*
X222891000Y-113764000D01*
X204261000Y-124144000D02*
X204641000Y-124144000D01*
X222511000Y-113764000D02*
X222511000Y-112604000D01*
X222891000Y-113764000D02*
X222511000Y-113764000D01*
X204261000Y-113764000D02*
X204641000Y-113764000D01*
%TO.C,R32*%
X137177742Y-107382500D02*
X137652258Y-107382500D01*
X137177742Y-108427500D02*
X137652258Y-108427500D01*
%TO.C,U3*%
X149868000Y-67845000D02*
X149868000Y-67100000D01*
X144348000Y-67845000D02*
X144348000Y-67100000D01*
X144348000Y-61425000D02*
X144348000Y-62170000D01*
X147108000Y-61425000D02*
X149868000Y-61425000D01*
X144348000Y-62170000D02*
X142658000Y-62170000D01*
X149868000Y-61425000D02*
X149868000Y-62170000D01*
X147108000Y-67845000D02*
X144348000Y-67845000D01*
X147108000Y-61425000D02*
X144348000Y-61425000D01*
X147108000Y-67845000D02*
X149868000Y-67845000D01*
%TO.C,J2*%
X204308000Y-51419669D02*
X203808000Y-51419669D01*
X225083000Y-50525331D02*
X194113000Y-50525331D01*
X203808000Y-51419669D02*
X204058000Y-50986656D01*
X225083000Y-35985331D02*
X225083000Y-50525331D01*
X204058000Y-50986656D02*
X204308000Y-51419669D01*
X194113000Y-50525331D02*
X194113000Y-35985331D01*
%TD*%
M02*
