%TF.GenerationSoftware,KiCad,Pcbnew,6.0.4-1.fc35*%
%TF.CreationDate,2022-04-12T19:23:18+05:30*%
%TF.ProjectId,8puter,38707574-6572-42e6-9b69-6361645f7063,rev?*%
%TF.SameCoordinates,Original*%
%TF.FileFunction,Paste,Top*%
%TF.FilePolarity,Positive*%
%FSLAX46Y46*%
G04 Gerber Fmt 4.6, Leading zero omitted, Abs format (unit mm)*
G04 Created by KiCad (PCBNEW 6.0.4-1.fc35) date 2022-04-12 19:23:18*
%MOMM*%
%LPD*%
G01*
G04 APERTURE LIST*
G04 Aperture macros list*
%AMRoundRect*
0 Rectangle with rounded corners*
0 $1 Rounding radius*
0 $2 $3 $4 $5 $6 $7 $8 $9 X,Y pos of 4 corners*
0 Add a 4 corners polygon primitive as box body*
4,1,4,$2,$3,$4,$5,$6,$7,$8,$9,$2,$3,0*
0 Add four circle primitives for the rounded corners*
1,1,$1+$1,$2,$3*
1,1,$1+$1,$4,$5*
1,1,$1+$1,$6,$7*
1,1,$1+$1,$8,$9*
0 Add four rect primitives between the rounded corners*
20,1,$1+$1,$2,$3,$4,$5,0*
20,1,$1+$1,$4,$5,$6,$7,0*
20,1,$1+$1,$6,$7,$8,$9,0*
20,1,$1+$1,$8,$9,$2,$3,0*%
G04 Aperture macros list end*
%ADD10RoundRect,0.200000X-0.200000X-0.275000X0.200000X-0.275000X0.200000X0.275000X-0.200000X0.275000X0*%
%ADD11RoundRect,0.225000X0.225000X0.250000X-0.225000X0.250000X-0.225000X-0.250000X0.225000X-0.250000X0*%
%ADD12RoundRect,0.207500X-0.207500X-0.207500X0.207500X-0.207500X0.207500X0.207500X-0.207500X0.207500X0*%
%ADD13RoundRect,0.062500X-0.375000X-0.062500X0.375000X-0.062500X0.375000X0.062500X-0.375000X0.062500X0*%
%ADD14RoundRect,0.062500X-0.062500X-0.375000X0.062500X-0.375000X0.062500X0.375000X-0.062500X0.375000X0*%
%ADD15RoundRect,0.100000X-0.712500X-0.100000X0.712500X-0.100000X0.712500X0.100000X-0.712500X0.100000X0*%
%ADD16RoundRect,0.200000X0.200000X0.275000X-0.200000X0.275000X-0.200000X-0.275000X0.200000X-0.275000X0*%
%ADD17R,1.250000X3.000000*%
%ADD18R,0.700000X1.000000*%
%ADD19R,0.700000X0.600000*%
%ADD20RoundRect,0.137500X-0.137500X0.625000X-0.137500X-0.625000X0.137500X-0.625000X0.137500X0.625000X0*%
%ADD21RoundRect,0.100000X0.637500X0.100000X-0.637500X0.100000X-0.637500X-0.100000X0.637500X-0.100000X0*%
%ADD22RoundRect,0.125000X-0.625000X-0.125000X0.625000X-0.125000X0.625000X0.125000X-0.625000X0.125000X0*%
%ADD23RoundRect,0.125000X-0.125000X-0.625000X0.125000X-0.625000X0.125000X0.625000X-0.125000X0.625000X0*%
%ADD24RoundRect,0.100000X0.100000X-0.637500X0.100000X0.637500X-0.100000X0.637500X-0.100000X-0.637500X0*%
%ADD25RoundRect,0.250000X0.400000X0.625000X-0.400000X0.625000X-0.400000X-0.625000X0.400000X-0.625000X0*%
%ADD26RoundRect,0.250000X-0.325000X-0.650000X0.325000X-0.650000X0.325000X0.650000X-0.325000X0.650000X0*%
%ADD27RoundRect,0.250000X0.412500X0.650000X-0.412500X0.650000X-0.412500X-0.650000X0.412500X-0.650000X0*%
%ADD28RoundRect,0.150000X0.150000X-0.837500X0.150000X0.837500X-0.150000X0.837500X-0.150000X-0.837500X0*%
%ADD29RoundRect,0.100000X-0.637500X-0.100000X0.637500X-0.100000X0.637500X0.100000X-0.637500X0.100000X0*%
%ADD30RoundRect,0.100000X-0.100000X0.637500X-0.100000X-0.637500X0.100000X-0.637500X0.100000X0.637500X0*%
%ADD31RoundRect,0.150000X0.675000X0.150000X-0.675000X0.150000X-0.675000X-0.150000X0.675000X-0.150000X0*%
%ADD32RoundRect,0.250000X-0.400000X-0.625000X0.400000X-0.625000X0.400000X0.625000X-0.400000X0.625000X0*%
%ADD33R,1.500000X0.520000*%
%ADD34R,0.520000X1.500000*%
%ADD35RoundRect,0.250000X0.412500X1.100000X-0.412500X1.100000X-0.412500X-1.100000X0.412500X-1.100000X0*%
%ADD36RoundRect,0.250000X-0.412500X-0.650000X0.412500X-0.650000X0.412500X0.650000X-0.412500X0.650000X0*%
%ADD37RoundRect,0.200000X-0.275000X0.200000X-0.275000X-0.200000X0.275000X-0.200000X0.275000X0.200000X0*%
%ADD38RoundRect,0.250000X0.650000X-0.412500X0.650000X0.412500X-0.650000X0.412500X-0.650000X-0.412500X0*%
%ADD39RoundRect,0.250000X-0.650000X0.412500X-0.650000X-0.412500X0.650000X-0.412500X0.650000X0.412500X0*%
%ADD40RoundRect,0.225000X-0.225000X-0.250000X0.225000X-0.250000X0.225000X0.250000X-0.225000X0.250000X0*%
%ADD41RoundRect,0.225000X-0.250000X0.225000X-0.250000X-0.225000X0.250000X-0.225000X0.250000X0.225000X0*%
%ADD42RoundRect,0.250000X-0.275000X-0.275000X0.275000X-0.275000X0.275000X0.275000X-0.275000X0.275000X0*%
%ADD43RoundRect,0.062500X-0.350000X-0.062500X0.350000X-0.062500X0.350000X0.062500X-0.350000X0.062500X0*%
%ADD44RoundRect,0.062500X-0.062500X-0.350000X0.062500X-0.350000X0.062500X0.350000X-0.062500X0.350000X0*%
%ADD45RoundRect,0.150000X-0.800000X-0.150000X0.800000X-0.150000X0.800000X0.150000X-0.800000X0.150000X0*%
G04 APERTURE END LIST*
D10*
%TO.C,R9*%
X193583000Y-81435000D03*
X195233000Y-81435000D03*
%TD*%
D11*
%TO.C,C30*%
X195958000Y-92115000D03*
X194408000Y-92115000D03*
%TD*%
%TO.C,C29*%
X195958000Y-93835000D03*
X194408000Y-93835000D03*
%TD*%
%TO.C,C28*%
X195983000Y-95635000D03*
X194433000Y-95635000D03*
%TD*%
%TO.C,C27*%
X196033000Y-97335000D03*
X194483000Y-97335000D03*
%TD*%
%TO.C,C26*%
X196058000Y-99135000D03*
X194508000Y-99135000D03*
%TD*%
%TO.C,C31*%
X195958000Y-90235000D03*
X194408000Y-90235000D03*
%TD*%
%TO.C,C24*%
X196033000Y-102735000D03*
X194483000Y-102735000D03*
%TD*%
%TO.C,C25*%
X196058000Y-100935000D03*
X194508000Y-100935000D03*
%TD*%
D12*
%TO.C,U15*%
X189438000Y-101565000D03*
X187378000Y-99505000D03*
X189438000Y-100535000D03*
X188408000Y-100535000D03*
X189438000Y-99505000D03*
X187378000Y-101565000D03*
X188408000Y-101565000D03*
X188408000Y-99505000D03*
X187378000Y-100535000D03*
D13*
X185970500Y-98785000D03*
X185970500Y-99285000D03*
X185970500Y-99785000D03*
X185970500Y-100285000D03*
X185970500Y-100785000D03*
X185970500Y-101285000D03*
X185970500Y-101785000D03*
X185970500Y-102285000D03*
D14*
X186658000Y-102972500D03*
X187158000Y-102972500D03*
X187658000Y-102972500D03*
X188158000Y-102972500D03*
X188658000Y-102972500D03*
X189158000Y-102972500D03*
X189658000Y-102972500D03*
X190158000Y-102972500D03*
D13*
X190845500Y-102285000D03*
X190845500Y-101785000D03*
X190845500Y-101285000D03*
X190845500Y-100785000D03*
X190845500Y-100285000D03*
X190845500Y-99785000D03*
X190845500Y-99285000D03*
X190845500Y-98785000D03*
D14*
X190158000Y-98097500D03*
X189658000Y-98097500D03*
X189158000Y-98097500D03*
X188658000Y-98097500D03*
X188158000Y-98097500D03*
X187658000Y-98097500D03*
X187158000Y-98097500D03*
X186658000Y-98097500D03*
%TD*%
D15*
%TO.C,PWREG1*%
X72895500Y-57560000D03*
X72895500Y-58210000D03*
X72895500Y-58860000D03*
X72895500Y-59510000D03*
X77120500Y-59510000D03*
X77120500Y-58860000D03*
X77120500Y-58210000D03*
X77120500Y-57560000D03*
%TD*%
D16*
%TO.C,R8*%
X186808000Y-91535000D03*
X185158000Y-91535000D03*
%TD*%
%TO.C,R21*%
X182563000Y-124923000D03*
X180913000Y-124923000D03*
%TD*%
D17*
%TO.C,J3*%
X134308000Y-48865000D03*
X131808000Y-48865000D03*
X129808000Y-48865000D03*
X127308000Y-48865000D03*
%TD*%
D18*
%TO.C,U6*%
X78281000Y-41028000D03*
D19*
X78281000Y-42728000D03*
X80281000Y-42728000D03*
X80281000Y-40828000D03*
%TD*%
D20*
%TO.C,ERAM2*%
X222103000Y-97237500D03*
X221303000Y-97237500D03*
X220503000Y-97237500D03*
X219703000Y-97237500D03*
X218903000Y-97237500D03*
X218103000Y-97237500D03*
X217303000Y-97237500D03*
X216503000Y-97237500D03*
X215703000Y-97237500D03*
X214903000Y-97237500D03*
X214103000Y-97237500D03*
X213303000Y-97237500D03*
X212503000Y-97237500D03*
X211703000Y-97237500D03*
X210903000Y-97237500D03*
X210103000Y-97237500D03*
X209303000Y-97237500D03*
X208503000Y-97237500D03*
X207703000Y-97237500D03*
X206903000Y-97237500D03*
X206103000Y-97237500D03*
X205303000Y-97237500D03*
X205303000Y-108412500D03*
X206103000Y-108412500D03*
X206903000Y-108412500D03*
X207703000Y-108412500D03*
X208503000Y-108412500D03*
X209303000Y-108412500D03*
X210103000Y-108412500D03*
X210903000Y-108412500D03*
X211703000Y-108412500D03*
X212503000Y-108412500D03*
X213303000Y-108412500D03*
X214103000Y-108412500D03*
X214903000Y-108412500D03*
X215703000Y-108412500D03*
X216503000Y-108412500D03*
X217303000Y-108412500D03*
X218103000Y-108412500D03*
X218903000Y-108412500D03*
X219703000Y-108412500D03*
X220503000Y-108412500D03*
X221303000Y-108412500D03*
X222103000Y-108412500D03*
%TD*%
D21*
%TO.C,U2*%
X140570500Y-71785000D03*
X140570500Y-71135000D03*
X140570500Y-70485000D03*
X140570500Y-69835000D03*
X140570500Y-69185000D03*
X140570500Y-68535000D03*
X140570500Y-67885000D03*
X134845500Y-67885000D03*
X134845500Y-68535000D03*
X134845500Y-69185000D03*
X134845500Y-69835000D03*
X134845500Y-70485000D03*
X134845500Y-71135000D03*
X134845500Y-71785000D03*
%TD*%
D16*
%TO.C,R20*%
X182563000Y-123399000D03*
X180913000Y-123399000D03*
%TD*%
%TO.C,R17*%
X190691000Y-114763000D03*
X189041000Y-114763000D03*
%TD*%
D22*
%TO.C,U7*%
X177733000Y-51535000D03*
X177733000Y-52335000D03*
X177733000Y-53135000D03*
X177733000Y-53935000D03*
X177733000Y-54735000D03*
X177733000Y-55535000D03*
X177733000Y-56335000D03*
X177733000Y-57135000D03*
D23*
X179108000Y-58510000D03*
X179908000Y-58510000D03*
X180708000Y-58510000D03*
X181508000Y-58510000D03*
X182308000Y-58510000D03*
X183108000Y-58510000D03*
X183908000Y-58510000D03*
X184708000Y-58510000D03*
D22*
X186083000Y-57135000D03*
X186083000Y-56335000D03*
X186083000Y-55535000D03*
X186083000Y-54735000D03*
X186083000Y-53935000D03*
X186083000Y-53135000D03*
X186083000Y-52335000D03*
X186083000Y-51535000D03*
D23*
X184708000Y-50160000D03*
X183908000Y-50160000D03*
X183108000Y-50160000D03*
X182308000Y-50160000D03*
X181508000Y-50160000D03*
X180708000Y-50160000D03*
X179908000Y-50160000D03*
X179108000Y-50160000D03*
%TD*%
D10*
%TO.C,R35*%
X136590000Y-100285000D03*
X138240000Y-100285000D03*
%TD*%
D24*
%TO.C,U11*%
X226558000Y-140397500D03*
X227208000Y-140397500D03*
X227858000Y-140397500D03*
X228508000Y-140397500D03*
X229158000Y-140397500D03*
X229808000Y-140397500D03*
X230458000Y-140397500D03*
X230458000Y-134672500D03*
X229808000Y-134672500D03*
X229158000Y-134672500D03*
X228508000Y-134672500D03*
X227858000Y-134672500D03*
X227208000Y-134672500D03*
X226558000Y-134672500D03*
%TD*%
D25*
%TO.C,R4*%
X195808000Y-84835000D03*
X192708000Y-84835000D03*
%TD*%
D26*
%TO.C,C23*%
X160333000Y-50735000D03*
X163283000Y-50735000D03*
%TD*%
D16*
%TO.C,R18*%
X190691000Y-116535000D03*
X189041000Y-116535000D03*
%TD*%
%TO.C,R12*%
X190691000Y-107143000D03*
X189041000Y-107143000D03*
%TD*%
%TO.C,R22*%
X182563000Y-126447000D03*
X180913000Y-126447000D03*
%TD*%
D10*
%TO.C,R6*%
X145083000Y-54835000D03*
X146733000Y-54835000D03*
%TD*%
D27*
%TO.C,C4*%
X138215500Y-97745000D03*
X135090500Y-97745000D03*
%TD*%
D28*
%TO.C,AD_DEC1*%
X183389000Y-140069500D03*
X184659000Y-140069500D03*
X185929000Y-140069500D03*
X187199000Y-140069500D03*
X188469000Y-140069500D03*
X189739000Y-140069500D03*
X191009000Y-140069500D03*
X192279000Y-140069500D03*
X193549000Y-140069500D03*
X194819000Y-140069500D03*
X196089000Y-140069500D03*
X197359000Y-140069500D03*
X197359000Y-133144500D03*
X196089000Y-133144500D03*
X194819000Y-133144500D03*
X193549000Y-133144500D03*
X192279000Y-133144500D03*
X191009000Y-133144500D03*
X189739000Y-133144500D03*
X188469000Y-133144500D03*
X187199000Y-133144500D03*
X185929000Y-133144500D03*
X184659000Y-133144500D03*
X183389000Y-133144500D03*
%TD*%
D29*
%TO.C,BDT1*%
X172779500Y-102694000D03*
X172779500Y-103344000D03*
X172779500Y-103994000D03*
X172779500Y-104644000D03*
X172779500Y-105294000D03*
X172779500Y-105944000D03*
X172779500Y-106594000D03*
X172779500Y-107244000D03*
X172779500Y-107894000D03*
X172779500Y-108544000D03*
X178504500Y-108544000D03*
X178504500Y-107894000D03*
X178504500Y-107244000D03*
X178504500Y-106594000D03*
X178504500Y-105944000D03*
X178504500Y-105294000D03*
X178504500Y-104644000D03*
X178504500Y-103994000D03*
X178504500Y-103344000D03*
X178504500Y-102694000D03*
%TD*%
D30*
%TO.C,LATCH1*%
X178567000Y-112408500D03*
X177917000Y-112408500D03*
X177267000Y-112408500D03*
X176617000Y-112408500D03*
X175967000Y-112408500D03*
X175317000Y-112408500D03*
X174667000Y-112408500D03*
X174017000Y-112408500D03*
X173367000Y-112408500D03*
X172717000Y-112408500D03*
X172717000Y-118133500D03*
X173367000Y-118133500D03*
X174017000Y-118133500D03*
X174667000Y-118133500D03*
X175317000Y-118133500D03*
X175967000Y-118133500D03*
X176617000Y-118133500D03*
X177267000Y-118133500D03*
X177917000Y-118133500D03*
X178567000Y-118133500D03*
%TD*%
D15*
%TO.C,PWREG2*%
X73395500Y-50560000D03*
X73395500Y-51210000D03*
X73395500Y-51860000D03*
X73395500Y-52510000D03*
X77620500Y-52510000D03*
X77620500Y-51860000D03*
X77620500Y-51210000D03*
X77620500Y-50560000D03*
%TD*%
D16*
%TO.C,R19*%
X190691000Y-118059000D03*
X189041000Y-118059000D03*
%TD*%
D25*
%TO.C,R5*%
X195808000Y-87535000D03*
X192708000Y-87535000D03*
%TD*%
D31*
%TO.C,U13*%
X194033000Y-56140000D03*
X194033000Y-54870000D03*
X194033000Y-53600000D03*
X194033000Y-52330000D03*
X188783000Y-52330000D03*
X188783000Y-53600000D03*
X188783000Y-54870000D03*
X188783000Y-56140000D03*
%TD*%
D32*
%TO.C,R2*%
X85908000Y-60535000D03*
X89008000Y-60535000D03*
%TD*%
D33*
%TO.C,U12*%
X103258000Y-50335000D03*
X103258000Y-51135000D03*
X103258000Y-51935000D03*
X103258000Y-52735000D03*
X103258000Y-53535000D03*
X103258000Y-54335000D03*
X103258000Y-55135000D03*
X103258000Y-55935000D03*
X103258000Y-56735000D03*
X103258000Y-57535000D03*
X103258000Y-58335000D03*
D34*
X105308000Y-60385000D03*
X106108000Y-60385000D03*
X106908000Y-60385000D03*
X107708000Y-60385000D03*
X108508000Y-60385000D03*
X109308000Y-60385000D03*
X110108000Y-60385000D03*
X110908000Y-60385000D03*
X111708000Y-60385000D03*
X112508000Y-60385000D03*
X113308000Y-60385000D03*
D33*
X115358000Y-58335000D03*
X115358000Y-57535000D03*
X115358000Y-56735000D03*
X115358000Y-55935000D03*
X115358000Y-55135000D03*
X115358000Y-54335000D03*
X115358000Y-53535000D03*
X115358000Y-52735000D03*
X115358000Y-51935000D03*
X115358000Y-51135000D03*
X115358000Y-50335000D03*
D34*
X113308000Y-48285000D03*
X112508000Y-48285000D03*
X111708000Y-48285000D03*
X110908000Y-48285000D03*
X110108000Y-48285000D03*
X109308000Y-48285000D03*
X108508000Y-48285000D03*
X107708000Y-48285000D03*
X106908000Y-48285000D03*
X106108000Y-48285000D03*
X105308000Y-48285000D03*
%TD*%
D35*
%TO.C,C12*%
X208570500Y-60935000D03*
X205445500Y-60935000D03*
%TD*%
D36*
%TO.C,C18*%
X197345500Y-70735000D03*
X200470500Y-70735000D03*
%TD*%
D37*
%TO.C,R1*%
X154108000Y-72285000D03*
X154108000Y-73935000D03*
%TD*%
D38*
%TO.C,C10*%
X178508000Y-100935000D03*
X178508000Y-97810000D03*
%TD*%
D10*
%TO.C,R34*%
X136590000Y-102825000D03*
X138240000Y-102825000D03*
%TD*%
D20*
%TO.C,ERAM3*%
X222103000Y-81362500D03*
X221303000Y-81362500D03*
X220503000Y-81362500D03*
X219703000Y-81362500D03*
X218903000Y-81362500D03*
X218103000Y-81362500D03*
X217303000Y-81362500D03*
X216503000Y-81362500D03*
X215703000Y-81362500D03*
X214903000Y-81362500D03*
X214103000Y-81362500D03*
X213303000Y-81362500D03*
X212503000Y-81362500D03*
X211703000Y-81362500D03*
X210903000Y-81362500D03*
X210103000Y-81362500D03*
X209303000Y-81362500D03*
X208503000Y-81362500D03*
X207703000Y-81362500D03*
X206903000Y-81362500D03*
X206103000Y-81362500D03*
X205303000Y-81362500D03*
X205303000Y-92537500D03*
X206103000Y-92537500D03*
X206903000Y-92537500D03*
X207703000Y-92537500D03*
X208503000Y-92537500D03*
X209303000Y-92537500D03*
X210103000Y-92537500D03*
X210903000Y-92537500D03*
X211703000Y-92537500D03*
X212503000Y-92537500D03*
X213303000Y-92537500D03*
X214103000Y-92537500D03*
X214903000Y-92537500D03*
X215703000Y-92537500D03*
X216503000Y-92537500D03*
X217303000Y-92537500D03*
X218103000Y-92537500D03*
X218903000Y-92537500D03*
X219703000Y-92537500D03*
X220503000Y-92537500D03*
X221303000Y-92537500D03*
X222103000Y-92537500D03*
%TD*%
D16*
%TO.C,R23*%
X182563000Y-127971000D03*
X180913000Y-127971000D03*
%TD*%
D20*
%TO.C,ERAM0*%
X221885000Y-129312500D03*
X221085000Y-129312500D03*
X220285000Y-129312500D03*
X219485000Y-129312500D03*
X218685000Y-129312500D03*
X217885000Y-129312500D03*
X217085000Y-129312500D03*
X216285000Y-129312500D03*
X215485000Y-129312500D03*
X214685000Y-129312500D03*
X213885000Y-129312500D03*
X213085000Y-129312500D03*
X212285000Y-129312500D03*
X211485000Y-129312500D03*
X210685000Y-129312500D03*
X209885000Y-129312500D03*
X209085000Y-129312500D03*
X208285000Y-129312500D03*
X207485000Y-129312500D03*
X206685000Y-129312500D03*
X205885000Y-129312500D03*
X205085000Y-129312500D03*
X205085000Y-140487500D03*
X205885000Y-140487500D03*
X206685000Y-140487500D03*
X207485000Y-140487500D03*
X208285000Y-140487500D03*
X209085000Y-140487500D03*
X209885000Y-140487500D03*
X210685000Y-140487500D03*
X211485000Y-140487500D03*
X212285000Y-140487500D03*
X213085000Y-140487500D03*
X213885000Y-140487500D03*
X214685000Y-140487500D03*
X215485000Y-140487500D03*
X216285000Y-140487500D03*
X217085000Y-140487500D03*
X217885000Y-140487500D03*
X218685000Y-140487500D03*
X219485000Y-140487500D03*
X220285000Y-140487500D03*
X221085000Y-140487500D03*
X221885000Y-140487500D03*
%TD*%
D16*
%TO.C,R14*%
X190691000Y-110191000D03*
X189041000Y-110191000D03*
%TD*%
D10*
%TO.C,R7*%
X188783000Y-59335000D03*
X190433000Y-59335000D03*
%TD*%
D39*
%TO.C,C16*%
X94870000Y-128948500D03*
X94870000Y-132073500D03*
%TD*%
D40*
%TO.C,C22*%
X155033000Y-51535000D03*
X156583000Y-51535000D03*
%TD*%
D39*
%TO.C,C15*%
X114174000Y-128948500D03*
X114174000Y-132073500D03*
%TD*%
D21*
%TO.C,U8*%
X129970500Y-134885000D03*
X129970500Y-134235000D03*
X129970500Y-133585000D03*
X129970500Y-132935000D03*
X129970500Y-132285000D03*
X129970500Y-131635000D03*
X129970500Y-130985000D03*
X124245500Y-130985000D03*
X124245500Y-131635000D03*
X124245500Y-132285000D03*
X124245500Y-132935000D03*
X124245500Y-133585000D03*
X124245500Y-134235000D03*
X124245500Y-134885000D03*
%TD*%
D16*
%TO.C,R13*%
X190691000Y-108667000D03*
X189041000Y-108667000D03*
%TD*%
%TO.C,R15*%
X190691000Y-111715000D03*
X189041000Y-111715000D03*
%TD*%
D36*
%TO.C,C9*%
X180468000Y-119081000D03*
X183593000Y-119081000D03*
%TD*%
D35*
%TO.C,C2*%
X208508000Y-66135000D03*
X205383000Y-66135000D03*
%TD*%
D41*
%TO.C,C21*%
X153008000Y-62685000D03*
X153008000Y-64235000D03*
%TD*%
D10*
%TO.C,R33*%
X136590000Y-105365000D03*
X138240000Y-105365000D03*
%TD*%
D16*
%TO.C,R16*%
X190691000Y-113239000D03*
X189041000Y-113239000D03*
%TD*%
D32*
%TO.C,R3*%
X134708000Y-75435000D03*
X137808000Y-75435000D03*
%TD*%
D42*
%TO.C,U14*%
X128908000Y-56535000D03*
X128908000Y-57835000D03*
X127608000Y-56535000D03*
X127608000Y-57835000D03*
D43*
X126320500Y-55935000D03*
X126320500Y-56435000D03*
X126320500Y-56935000D03*
X126320500Y-57435000D03*
X126320500Y-57935000D03*
X126320500Y-58435000D03*
D44*
X127008000Y-59122500D03*
X127508000Y-59122500D03*
X128008000Y-59122500D03*
X128508000Y-59122500D03*
X129008000Y-59122500D03*
X129508000Y-59122500D03*
D43*
X130195500Y-58435000D03*
X130195500Y-57935000D03*
X130195500Y-57435000D03*
X130195500Y-56935000D03*
X130195500Y-56435000D03*
X130195500Y-55935000D03*
D44*
X129508000Y-55247500D03*
X129008000Y-55247500D03*
X128508000Y-55247500D03*
X128008000Y-55247500D03*
X127508000Y-55247500D03*
X127008000Y-55247500D03*
%TD*%
D36*
%TO.C,C11*%
X62733500Y-107915461D03*
X65858500Y-107915461D03*
%TD*%
D20*
%TO.C,ERAM1*%
X221976000Y-113366500D03*
X221176000Y-113366500D03*
X220376000Y-113366500D03*
X219576000Y-113366500D03*
X218776000Y-113366500D03*
X217976000Y-113366500D03*
X217176000Y-113366500D03*
X216376000Y-113366500D03*
X215576000Y-113366500D03*
X214776000Y-113366500D03*
X213976000Y-113366500D03*
X213176000Y-113366500D03*
X212376000Y-113366500D03*
X211576000Y-113366500D03*
X210776000Y-113366500D03*
X209976000Y-113366500D03*
X209176000Y-113366500D03*
X208376000Y-113366500D03*
X207576000Y-113366500D03*
X206776000Y-113366500D03*
X205976000Y-113366500D03*
X205176000Y-113366500D03*
X205176000Y-124541500D03*
X205976000Y-124541500D03*
X206776000Y-124541500D03*
X207576000Y-124541500D03*
X208376000Y-124541500D03*
X209176000Y-124541500D03*
X209976000Y-124541500D03*
X210776000Y-124541500D03*
X211576000Y-124541500D03*
X212376000Y-124541500D03*
X213176000Y-124541500D03*
X213976000Y-124541500D03*
X214776000Y-124541500D03*
X215576000Y-124541500D03*
X216376000Y-124541500D03*
X217176000Y-124541500D03*
X217976000Y-124541500D03*
X218776000Y-124541500D03*
X219576000Y-124541500D03*
X220376000Y-124541500D03*
X221176000Y-124541500D03*
X221976000Y-124541500D03*
%TD*%
D10*
%TO.C,R32*%
X136590000Y-107905000D03*
X138240000Y-107905000D03*
%TD*%
D45*
%TO.C,U3*%
X150608000Y-62730000D03*
X150608000Y-64000000D03*
X150608000Y-65270000D03*
X150608000Y-66540000D03*
X143608000Y-66540000D03*
X143608000Y-65270000D03*
X143608000Y-64000000D03*
X143608000Y-62730000D03*
%TD*%
M02*
