M48
; DRILL file {KiCad 6.0.4-1.fc35} date Tuesday 12 April 2022 07:23:20 PM
; FORMAT={-:-/ absolute / inch / decimal}
; #@! TF.CreationDate,2022-04-12T19:23:20+05:30
; #@! TF.GenerationSoftware,Kicad,Pcbnew,6.0.4-1.fc35
; #@! TF.FileFunction,Plated,1,4,PTH
FMAT,2
INCH
; #@! TA.AperFunction,Plated,PTH,ViaDrill
T1C0.0118
; #@! TA.AperFunction,Plated,PTH,ViaDrill
T2C0.0157
; #@! TA.AperFunction,Plated,PTH,ComponentDrill
T3C0.0197
; #@! TA.AperFunction,Plated,PTH,ComponentDrill
T4C0.0315
; #@! TA.AperFunction,Plated,PTH,ComponentDrill
T5C0.0354
; #@! TA.AperFunction,Plated,PTH,ComponentDrill
T6C0.0394
; #@! TA.AperFunction,Plated,PTH,ComponentDrill
T7C0.0433
; #@! TA.AperFunction,Plated,PTH,ComponentDrill
T8C0.0906
; #@! TA.AperFunction,Plated,PTH,ComponentDrill
T9C0.1260
%
G90
G05
T1
X5.4491Y-3.5644
X5.4649Y-2.7061
X5.5279Y-2.903
X5.6381Y-2.6982
X6.705Y-4.6982
X6.705Y-4.7982
X6.705Y-4.8982
X6.705Y-5.0032
X6.775Y-5.0982
X6.8074Y-3.9896
X6.8154Y-5.0982
X6.8555Y-5.0984
X6.8959Y-5.0984
X7.055Y-4.8582
X7.055Y-4.9182
X7.055Y-4.9782
X7.055Y-5.0382
X7.115Y-4.0082
X7.1184Y-3.9541
X7.1342Y-4.0486
X7.155Y-4.0782
X7.175Y-4.1182
X7.195Y-4.1582
X7.215Y-4.1982
X7.235Y-4.2382
X7.255Y-4.2734
X7.295Y-5.1097
X7.3192Y-4.1116
X7.335Y-5.1297
X7.3743Y-2.7376
X7.375Y-5.1497
X7.398Y-4.1116
X7.4137Y-4.147
X7.415Y-5.1782
X7.4885Y-3.777
X7.5239Y-4.0959
X7.5633Y-4.0565
X7.9485Y-5.0332
T2
X5.2247Y-2.7179
X5.2247Y-2.8006
X6.735Y-4.4182
X6.755Y-4.3382
X7.0Y-5.2482
X7.1652Y-5.2181
T3
X7.2523Y-3.7022
X7.2917Y-3.7022
X7.331Y-3.7022
X7.3704Y-3.7022
X7.4098Y-3.7022
T4
X2.5791Y-2.5841
X2.5791Y-2.651
X2.5791Y-2.7219
X2.5791Y-2.7888
X2.5791Y-2.8557
X2.5791Y-2.9226
X2.6578Y-2.5841
X2.6578Y-2.651
X2.6578Y-2.7219
X2.6578Y-2.7888
X2.6578Y-2.8557
X2.6578Y-2.9226
X2.7841Y-4.9382
X2.8141Y-4.4332
X2.875Y-3.8486
X2.875Y-4.0455
X2.9337Y-4.9382
X2.9637Y-4.4332
X3.2956Y-3.021
X3.2956Y-3.2178
X3.3105Y-2.0184
X3.3893Y-2.0184
X3.5843Y-2.0234
X3.663Y-2.0234
X3.7352Y-3.6478
X3.7352Y-3.7478
X3.7352Y-3.8478
X3.7352Y-3.9478
X3.7352Y-4.0478
X3.7352Y-4.1478
X3.7352Y-4.2478
X3.7352Y-4.3478
X3.7352Y-4.4478
X3.7352Y-4.5478
X3.7352Y-4.6478
X3.7352Y-4.7478
X3.7352Y-4.8478
X3.7352Y-4.9478
X4.3352Y-3.6478
X4.3352Y-3.7478
X4.3352Y-3.8478
X4.3352Y-3.9478
X4.3352Y-4.0478
X4.3352Y-4.1478
X4.3352Y-4.2478
X4.3352Y-4.3478
X4.3352Y-4.4478
X4.3352Y-4.5478
X4.3352Y-4.6478
X4.3352Y-4.7478
X4.3352Y-4.8478
X4.3352Y-4.9478
X4.4943Y-3.6478
X4.4943Y-3.7478
X4.4943Y-3.8478
X4.4943Y-3.9478
X4.4943Y-4.0478
X4.4943Y-4.1478
X4.4943Y-4.2478
X4.4943Y-4.3478
X4.4943Y-4.4478
X4.4943Y-4.5478
X4.4943Y-4.6478
X4.4943Y-4.7478
X4.4943Y-4.8478
X4.4943Y-4.9478
X5.0943Y-3.6478
X5.0943Y-3.7478
X5.0943Y-3.8478
X5.0943Y-3.9478
X5.0943Y-4.0478
X5.0943Y-4.1478
X5.0943Y-4.2478
X5.0943Y-4.3478
X5.0943Y-4.4478
X5.0943Y-4.5478
X5.0943Y-4.6478
X5.0943Y-4.7478
X5.0943Y-4.8478
X5.0943Y-4.9478
X5.41Y-4.3488
X5.41Y-4.4488
X5.41Y-4.5488
X5.41Y-4.6488
X5.41Y-4.7488
X5.41Y-4.8488
X5.41Y-4.9488
X5.41Y-5.0488
X5.41Y-5.1488
X5.615Y-3.1484
X5.615Y-3.2484
X5.615Y-3.3484
X5.615Y-3.4484
X5.615Y-3.5484
X5.615Y-3.6484
X5.615Y-3.7484
X5.615Y-3.8484
X5.615Y-3.9484
X5.615Y-4.0484
X5.615Y-4.1484
X5.615Y-4.2484
X5.615Y-4.3484
X5.615Y-4.4484
X5.615Y-4.5484
X5.615Y-4.6484
X5.615Y-4.7484
X5.615Y-4.8484
X5.615Y-4.9484
X5.615Y-5.0484
X6.615Y-3.1484
X6.615Y-3.2484
X6.615Y-3.3484
X6.615Y-3.4484
X6.615Y-3.5484
X6.615Y-3.6484
X6.615Y-3.7484
X6.615Y-3.8484
X6.615Y-3.9484
X6.615Y-4.0484
X6.615Y-4.1484
X6.615Y-4.2484
X6.615Y-4.3484
X6.615Y-4.4484
X6.615Y-4.5484
X6.615Y-4.6484
X6.615Y-4.7484
X6.615Y-4.8484
X6.615Y-4.9484
X6.615Y-5.0484
X6.89Y-3.0482
X6.89Y-3.1482
X6.89Y-3.2482
X6.89Y-3.3482
X6.89Y-3.4482
X6.89Y-3.5482
X6.89Y-3.6482
X6.89Y-3.7482
X6.89Y-3.8482
T5
X5.6613Y-2.8793
X5.9613Y-2.8793
T6
X4.4602Y-2.749
X4.4602Y-3.049
X5.0602Y-2.749
X5.0602Y-3.049
X8.0338Y-1.916
X8.0883Y-1.8041
X8.1428Y-1.916
X8.1974Y-1.8041
X8.2519Y-1.916
X8.3064Y-1.8041
X8.3609Y-1.916
X8.4155Y-1.8041
X8.47Y-1.916
T7
X3.3013Y-1.5648
X3.3013Y-1.742
X3.5572Y-1.5648
X3.5572Y-1.742
T8
X4.8913Y-1.7789
X5.4086Y-1.7789
T9
X7.7598Y-1.8601
X8.744Y-1.8601
T6
G00X2.4253Y-1.5569
M15
G01X2.4253Y-1.4979
M16
G05
G00X2.6281Y-1.5668
M15
G01X2.5769Y-1.5668
M16
G05
G00X2.6419Y-1.803
M15
G01X2.5631Y-1.803
M16
G05
G00X2.7796Y-1.5569
M15
G01X2.7796Y-1.4979
M16
G05
T0
M30
